<?xml version="1.0" encoding="utf-8"?>
<!-- Generator: Adobe Illustrator 16.0.0, SVG Export Plug-In . SVG Version: 6.00 Build 0)  -->
<!DOCTYPE svg PUBLIC "-//W3C//DTD SVG 1.1//EN" "http://www.w3.org/Graphics/SVG/1.1/DTD/svg11.dtd" [
	<!ENTITY ns_extend "http://ns.adobe.com/Extensibility/1.0/">
	<!ENTITY ns_ai "http://ns.adobe.com/AdobeIllustrator/10.0/">
	<!ENTITY ns_graphs "http://ns.adobe.com/Graphs/1.0/">
	<!ENTITY ns_vars "http://ns.adobe.com/Variables/1.0/">
	<!ENTITY ns_imrep "http://ns.adobe.com/ImageReplacement/1.0/">
	<!ENTITY ns_sfw "http://ns.adobe.com/SaveForWeb/1.0/">
	<!ENTITY ns_custom "http://ns.adobe.com/GenericCustomNamespace/1.0/">
	<!ENTITY ns_adobe_xpath "http://ns.adobe.com/XPath/1.0/">
]>
<svg version="1.1" id="Layer_1" xmlns:x="&ns_extend;" xmlns:i="&ns_ai;" xmlns:graph="&ns_graphs;"
	 xmlns="http://www.w3.org/2000/svg" xmlns:xlink="http://www.w3.org/1999/xlink" x="0px" y="0px" width="260px" height="207px"
	 viewBox="0 0 260 207" enable-background="new 0 0 260 207" xml:space="preserve">
<metadata><?xpacket begin="﻿" id="W5M0MpCehiHzreSzNTczkc9d"?>
<x:xmpmeta xmlns:x="adobe:ns:meta/" x:xmptk="Adobe XMP Core 5.3-c011 66.145661, 2012/02/06-14:56:27        ">
   <rdf:RDF xmlns:rdf="http://www.w3.org/1999/02/22-rdf-syntax-ns#">
      <rdf:Description rdf:about=""
            xmlns:dc="http://purl.org/dc/elements/1.1/">
         <dc:format>image/svg+xml</dc:format>
         <dc:title>
            <rdf:Alt>
               <rdf:li xml:lang="x-default">Print</rdf:li>
            </rdf:Alt>
         </dc:title>
      </rdf:Description>
      <rdf:Description rdf:about=""
            xmlns:xmp="http://ns.adobe.com/xap/1.0/"
            xmlns:xmpGImg="http://ns.adobe.com/xap/1.0/g/img/">
         <xmp:MetadataDate>2017-12-14T16:54:14+02:00</xmp:MetadataDate>
         <xmp:ModifyDate>2017-12-14T16:54:14+02:00</xmp:ModifyDate>
         <xmp:CreateDate>2017-12-14T16:54:14+02:00</xmp:CreateDate>
         <xmp:CreatorTool>Adobe Illustrator CS6 (Windows)</xmp:CreatorTool>
         <xmp:Thumbnails>
            <rdf:Alt>
               <rdf:li rdf:parseType="Resource">
                  <xmpGImg:width>256</xmpGImg:width>
                  <xmpGImg:height>56</xmpGImg:height>
                  <xmpGImg:format>JPEG</xmpGImg:format>
                  <xmpGImg:image>/9j/4AAQSkZJRgABAgEASABIAAD/7QAsUGhvdG9zaG9wIDMuMAA4QklNA+0AAAAAABAASAAAAAEA&#xA;AQBIAAAAAQAB/+4ADkFkb2JlAGTAAAAAAf/bAIQABgQEBAUEBgUFBgkGBQYJCwgGBggLDAoKCwoK&#xA;DBAMDAwMDAwQDA4PEA8ODBMTFBQTExwbGxscHx8fHx8fHx8fHwEHBwcNDA0YEBAYGhURFRofHx8f&#xA;Hx8fHx8fHx8fHx8fHx8fHx8fHx8fHx8fHx8fHx8fHx8fHx8fHx8fHx8fHx8f/8AAEQgAOAEAAwER&#xA;AAIRAQMRAf/EAaIAAAAHAQEBAQEAAAAAAAAAAAQFAwIGAQAHCAkKCwEAAgIDAQEBAQEAAAAAAAAA&#xA;AQACAwQFBgcICQoLEAACAQMDAgQCBgcDBAIGAnMBAgMRBAAFIRIxQVEGE2EicYEUMpGhBxWxQiPB&#xA;UtHhMxZi8CRygvElQzRTkqKyY3PCNUQnk6OzNhdUZHTD0uIIJoMJChgZhJRFRqS0VtNVKBry4/PE&#xA;1OT0ZXWFlaW1xdXl9WZ2hpamtsbW5vY3R1dnd4eXp7fH1+f3OEhYaHiImKi4yNjo+Ck5SVlpeYmZ&#xA;qbnJ2en5KjpKWmp6ipqqusra6voRAAICAQIDBQUEBQYECAMDbQEAAhEDBCESMUEFURNhIgZxgZEy&#xA;obHwFMHR4SNCFVJicvEzJDRDghaSUyWiY7LCB3PSNeJEgxdUkwgJChgZJjZFGidkdFU38qOzwygp&#xA;0+PzhJSktMTU5PRldYWVpbXF1eX1RlZmdoaWprbG1ub2R1dnd4eXp7fH1+f3OEhYaHiImKi4yNjo&#xA;+DlJWWl5iZmpucnZ6fkqOkpaanqKmqq6ytrq+v/aAAwDAQACEQMRAD8A9U4q7FWMXH5n/l/b6gLC&#xA;XXbVbgniSH5RqelGmAMS071bKzmhdW2jDOrpkFlfWN/apd2NxFdWstTHPA6yRtQ0PFlJB3GTBB5N&#xA;ZBHNXwodirsVdirsVdirsVdirsVeI/nixXzRakdfqMQH0zyjOf7TiJZxfLh+7iL2nYGQx0kiOfiV&#xA;8+Efpecc2UtuSVqTUgggGh+R8MxPDBA2FHb3X9473ZePKJlRJMbPMEEA0bFek/za5+e4RGYDuFss&#xA;iRRPK5okalmPgAKnDEEmgxnIRBJ5BjjeftIqOEM7r/NxQbewLVzZjsnL3j8fB0EvaTTg7CR+A/Wn&#xA;em6naajbC4tW5JXiwIoytSpUjx3zAzYJY5cMncaXV488OOB2RWVOS7FWY/lL/wApxZ/8Y5v+TTZs&#xA;Oy/78fH7nSe0H+KS94+975nVPnjsVdirsVdirsVdirHPPHm3TfKmjNqeoTyAFhFb28SqZJZCCQq1&#xA;FBsCSTtkMmQRFlsx4zM0GC+U/wA+ND1bUYLDUVudMmuXWOGV2ilg5uaAO4WNlqxpXjTxplMNVEmj&#xA;s3T0koixu9cVSBuxb50/hmS4rHG/Mz8uVKg+adI+I0FL62PYnej7dO+HhKLCjr2t6T5g8ma7H5d1&#xA;G11SZrSa3DWVwkwSWaMonJoS3Hc1yvNtE+5sw7zHveG3X5RwLponS9mguTP9Wjjlh9QSP6nphxx4&#xA;cFf7QrWnc5p97p3N7W9L/wCcdEvY/IU8V0nEJqE4tyABzj4R1YEfaHqcwD7ZsdIfS63Vj1fB6jmU&#xA;4rsVdirsVdirsVdirsVdirxL871DeabUHobCOv8AyOlznO1pGOYEfzf0l7j2bgJ6WUTyMz90XnYi&#xA;8WJFa0NOvvQZrzn7gAfj9juxpO+RkLutvtob/i7VMoctSutLu9VtZ9OsyouruN4oeR4jkymgr75f&#xA;piBkiT3uF2jf5edfzSm3kX8nfLsWi2t15j0+WSeeEm4FxNLCYZxIy+msMfAkFaHkSfEZvs2pN7F4&#xA;PDpgeYW6V5Dh0/zE+jwTKtrdxJdxGFi6CSQpFxV3DsUBBPTvmw0GgwazilkB9I9zha/tjVdnxjDC&#xA;Yjjl1F+SL/MLyvL5TS2khulvEuASvNeFChXkCAf8vY1zNx+z+jyYpyEZCUB/Ov8AQ40/a3tHHmxw&#xA;MoSjM/za/Skueevr7Mfyl/5Tiz/4xzf8mmzYdl/34+P3Ok9oP8Ul7x973zOqfPHYq7FXYq7FXYq7&#xA;FWE/mn5M0zzJplobtHaezkY25WRo1pIvxBgpoa8FPTt7nMTV1QJ5W5Wl4rPDzp5drH5S6PeW0kWh&#xA;RUuawIpE7SMh9WsjsCxG8ZNKeA265royBHXidnKMgd64afQFvLRYoJGJn9NWevUmlD+ObgZBfD1q&#xA;3SmBq+lsKe0ni9CW0VDCgYS24txIZGeJyrGQ/ZCso2A+ea/V6zJHKIwB25+nbcH+Lyro5ulxYpQP&#xA;ENz14uW46eaZaJeW1noRvb2L0pJre3a6jROJ9V4zyXj+z8Rpv0zYacSyY48X1SiL+W7i6rhx5JcP&#xA;0xka+ezFLbUrKG/mY3E7zSgyfUnMbBELdVbgr07CpoMxT2VLxOEEV3/sc3+UgcPGY9a+Pv5PRtDO&#xA;mNpsTacoS2IoFAAII2IYDuMzRhGP0uullOTco/CxdirsVdirsVdirsVdirsVeJ/nb/ylVp/zAx/8&#xA;npc5vtj+9H9X9Je79mP8Xl/XP3RefZqXo3Yqlmua9Z6RCrTAyTSVEMC/aYj9QzM0einnNDYDmXW9&#xA;o9p49LEGW8jyA6sw8ifmdo2reWVtte9F5oJfRaGdQycTVoWPLkKBVpyPcfLOgn2ZGAiBLy3/AGPF&#xA;Q7RyZpzmIcgZenu68/0fJhU/5lW995iv77641nDHyjs2RF4y2ykcUKOj8acPhpQ0Pjl/+EaQ/wCD&#xA;+oS530+7Zpjj0evjWruJgNuE1fM+e/3o+51a581iPU7qe+W3kNYrO6mjnpGr1CB/SjcRnoBWtO+Y&#xA;+q9odThMsMeAjr6a+5zezfZHSaiMc8/EEr29XTpztE5yj6AzH8pf+U4s/wDjHN/yabNh2X/fj4/c&#xA;6T2g/wAUl7x973zOqfPHYq7FXYq7FXYq7FXl/wCb35oL5P1zy1p9zGp0nU5JW1abjylSGPiimP5N&#xA;JybatBQYywicSCmOUwkCGI+ZPzRFne6ZoH5cNb3Ov6zMY/WkiQRwLIeEbihKc3+2C1fg6ruMjj7O&#xA;8GR4tz+tlPtH8xEEWBv9mz0f8t/KPm3RtMZvNmrrqurS3DzvLHyYBWAonNwpPEg9FAA2HTKsmASy&#xA;CYZxzEQ4UJ5r8teXtOvvLcUHO1jvNUWG5T63OvqQ/VZyV3k6eqI+nemZNloZR/hfTrWykhsIaB3W&#xA;SSOV5JBIVBAUmRmI65TmEiAY8wbbsUogkS5EU+e28+6LD+as2nTWkqTpdNpDOHLIGScr9gLXeQcd&#xA;j75kcUv7yvXw1z2U5R4XgX6OPiut+VPpHSNOSxtPSVFQuxdlToCe2+5pTKIcdXM2WM+G/SKCNybB&#xA;2KuxV2KuxV2KuxV2KuxV4n+dv/KVWn/MDH/yelzm+2P70f1f0l7v2Y/xeX9c/dF59mpejdiqT6vo&#xA;dze6np97ayxxzW0gVvXBMfBiKttv8PXNlotVCEJY53wz7nSdqaHJknDNirjx9DyLzvX4bex1q+tr&#xA;G6+s2sczRxzqpQOlf5TvnW4jxQiS+e5iY5JAbc/7GXeSdM0660X1Lm2imkWd6PIgY9F7kZz3a+oy&#xA;QzVGRA4R1972Ps7o8OTTXOEZHiPMe5loAAAAoBsAOlM0JL1YFN4pZj+Uv/KcWf8Axjm/5NNmw7L/&#xA;AL8fH7nSe0H+KS94+975nVPnjsVdirsVdirsVcSACT0G5xV8y/8AOTVjJrDW3mS1kZrXTlWzkt6d&#xA;EdyfXr2rIwTiK9j45ZjkbroxmBV9Xn//ADj/AG8t3+bOgiOMyei800lRsqLC55GvgSMnI7MQN321&#xA;lDYx/U/IPlHVNTfU9Q05bm9do2eV3lIPpI0arw5cOPFyCtOLdwThtFIy9vtO8v6QvG3ma2tEWOC1&#xA;tIZLiTiooiIiBj0FN9h3OBL5Yf8ALnzi2pS+dmtJmnl10Xa2H1e4N7wDtcNIYuB+EsePXqPDLfEF&#xA;MODd9ZadqEN/ZQ3cSSxJMoYRTxvDKtezxuFZSMqZonFXYq7FXYq7FXYq7FXYq7FXif52/wDKVWn/&#xA;ADAx/wDJ6XOb7Y/vR/V/SXu/Zj/F5f1z90Xn2al6NwBOw64qvMMoUsUYKNyaGgyQiTyDCWSI3JDy&#xA;zWdGubvV9VnhsWkjVmkDrGSKcwOQIHfc52WlIhixiR3/AGPmmuj4mfNKAuO52943Z35QguP8PWqN&#xA;CyvEGVl49PjNK06bZznakCM8iOR/U9p2DmB0kASLF/eU2ZWU0YEH3zXO5BaxSzH8pf8AlOLP/jHN&#xA;/wAmmzYdl/34+P3Ok9oP8Ul7x973zOqfPHYq7FXYq7FXYq0wDKVPQih+nFXgv5z+WNXl0pvL+jWt&#xA;/qdxdmOVporYC2VFctweYyD46oD9mmSjKigxtI/InknzJ5E/M7StSubG41HTprGO3uLiyi9UQyPC&#xA;sLK9G29N1qT4dK5KU7CBF9LK6uKqajK2TeKuxV2KuxV2KuxV2KuxV2KuxV2KuxV2KvE/zt/5Sq0/&#xA;5gY/+T0uc32x/ej+r+kvd+zH+Ly/rn7ovPs1L0a5JHRuSEq3iMINIIB5rpbiWZDHMRIjbMjAEEe+&#xA;TjlkDYLVLTwkKIsIdbW0RWVIERW2ZVFAR7gZI6iZNktcdHiiKEQAV9ssdrX6tGkPL7XBQK/PBLPO&#xA;XM2nHo8UPpiB7lWSeaWnqOWA6DKzIlvjADkp4GTMfyl/5Tiz/wCMc3/Jps2HZf8Afj4/c6T2g/xS&#xA;XvH3vfM6p88dirsVdirsVdirsVdirsVdirsVdirsVdirsVdirsVdirsVdirsVdirsVecfmP+X+u+&#xA;YtcgvdPaAQx2yQt6rlW5LJIx2CttRxmn7Q0OTNMSjVV+t6bsXtfDpsRhO7Mr29w/UxX/AJUz5v8A&#xA;57T/AJGt/wA0Zg/yRm8nb/6JdN/S+X7Xf8qZ83/z2n/I1v8AmjH+SM3kv+iXTf0vl+13/KmfN/8A&#xA;Paf8jW/5ox/kjN5L/ol039L5ftd/ypnzf/Paf8jW/wCaMf5IzeS/6JdN/S+X7Xf8qZ83/wA9p/yN&#xA;b/mjH+SM3kv+iXTf0vl+13/KmfN/89p/yNb/AJox/kjN5L/ol039L5ftd/ypnzf/AD2n/I1v+aMf&#xA;5IzeS/6JdN/S+X7WQeRPy18xaH5lt9SvWtzbxLIrCN2ZquhUbFR3OZei7PyYsglKqdd2r23gz4DC&#xA;HFZrmPP3vUc3bybsVdirsVdirsVdirsVdirsVf/Z</xmpGImg:image>
               </rdf:li>
            </rdf:Alt>
         </xmp:Thumbnails>
      </rdf:Description>
      <rdf:Description rdf:about=""
            xmlns:xmpMM="http://ns.adobe.com/xap/1.0/mm/"
            xmlns:stRef="http://ns.adobe.com/xap/1.0/sType/ResourceRef#"
            xmlns:stEvt="http://ns.adobe.com/xap/1.0/sType/ResourceEvent#">
         <xmpMM:InstanceID>xmp.iid:ED6DD94CDEE0E711B9EAAD0F3B223CDD</xmpMM:InstanceID>
         <xmpMM:DocumentID>xmp.did:ED6DD94CDEE0E711B9EAAD0F3B223CDD</xmpMM:DocumentID>
         <xmpMM:OriginalDocumentID>uuid:5D20892493BFDB11914A8590D31508C8</xmpMM:OriginalDocumentID>
         <xmpMM:RenditionClass>proof:pdf</xmpMM:RenditionClass>
         <xmpMM:DerivedFrom rdf:parseType="Resource">
            <stRef:instanceID>xmp.iid:EC6DD94CDEE0E711B9EAAD0F3B223CDD</stRef:instanceID>
            <stRef:documentID>xmp.did:EC6DD94CDEE0E711B9EAAD0F3B223CDD</stRef:documentID>
            <stRef:originalDocumentID>uuid:5D20892493BFDB11914A8590D31508C8</stRef:originalDocumentID>
            <stRef:renditionClass>proof:pdf</stRef:renditionClass>
         </xmpMM:DerivedFrom>
         <xmpMM:History>
            <rdf:Seq>
               <rdf:li rdf:parseType="Resource">
                  <stEvt:action>saved</stEvt:action>
                  <stEvt:instanceID>xmp.iid:90D3775BC2D9E711AF33F4E19EB97FCF</stEvt:instanceID>
                  <stEvt:when>2017-12-05T15:44:03+02:00</stEvt:when>
                  <stEvt:softwareAgent>Adobe Illustrator CS6 (Windows)</stEvt:softwareAgent>
                  <stEvt:changed>/</stEvt:changed>
               </rdf:li>
               <rdf:li rdf:parseType="Resource">
                  <stEvt:action>saved</stEvt:action>
                  <stEvt:instanceID>xmp.iid:ED6DD94CDEE0E711B9EAAD0F3B223CDD</stEvt:instanceID>
                  <stEvt:when>2017-12-14T16:54:14+02:00</stEvt:when>
                  <stEvt:softwareAgent>Adobe Illustrator CS6 (Windows)</stEvt:softwareAgent>
                  <stEvt:changed>/</stEvt:changed>
               </rdf:li>
            </rdf:Seq>
         </xmpMM:History>
      </rdf:Description>
      <rdf:Description rdf:about=""
            xmlns:illustrator="http://ns.adobe.com/illustrator/1.0/">
         <illustrator:StartupProfile>Print</illustrator:StartupProfile>
      </rdf:Description>
      <rdf:Description rdf:about=""
            xmlns:xmpTPg="http://ns.adobe.com/xap/1.0/t/pg/"
            xmlns:stDim="http://ns.adobe.com/xap/1.0/sType/Dimensions#"
            xmlns:xmpG="http://ns.adobe.com/xap/1.0/g/">
         <xmpTPg:HasVisibleOverprint>False</xmpTPg:HasVisibleOverprint>
         <xmpTPg:HasVisibleTransparency>True</xmpTPg:HasVisibleTransparency>
         <xmpTPg:NPages>1</xmpTPg:NPages>
         <xmpTPg:MaxPageSize rdf:parseType="Resource">
            <stDim:w>260.000000</stDim:w>
            <stDim:h>207.000000</stDim:h>
            <stDim:unit>Pixels</stDim:unit>
         </xmpTPg:MaxPageSize>
         <xmpTPg:PlateNames>
            <rdf:Seq>
               <rdf:li>Cyan</rdf:li>
               <rdf:li>Magenta</rdf:li>
               <rdf:li>Yellow</rdf:li>
               <rdf:li>Black</rdf:li>
            </rdf:Seq>
         </xmpTPg:PlateNames>
         <xmpTPg:SwatchGroups>
            <rdf:Seq>
               <rdf:li rdf:parseType="Resource">
                  <xmpG:groupName>Default Swatch Group</xmpG:groupName>
                  <xmpG:groupType>0</xmpG:groupType>
               </rdf:li>
            </rdf:Seq>
         </xmpTPg:SwatchGroups>
      </rdf:Description>
      <rdf:Description rdf:about=""
            xmlns:pdf="http://ns.adobe.com/pdf/1.3/">
         <pdf:Producer>Adobe PDF library 10.01</pdf:Producer>
      </rdf:Description>
   </rdf:RDF>
</x:xmpmeta>
                                                                                                    
                                                                                                    
                                                                                                    
                                                                                                    
                                                                                                    
                                                                                                    
                                                                                                    
                                                                                                    
                                                                                                    
                                                                                                    
                                                                                                    
                                                                                                    
                                                                                                    
                                                                                                    
                                                                                                    
                                                                                                    
                                                                                                    
                                                                                                    
                                                                                                    
                                                                                                    
                           
<?xpacket end="w"?>
	</metadata>
<g id="Layer_2">
	<rect fill="#F05423" width="260" height="207"/>
</g>
<g>
	
		<radialGradient id="SVGID_1_" cx="-15.2075" cy="-48863.668" r="49.7194" gradientTransform="matrix(1.12 0 0 -0.1377 541.0322 -6578.1133)" gradientUnits="userSpaceOnUse">
		<stop  offset="0" style="stop-color:#000000"/>
		<stop  offset="0.0146" style="stop-color:#050505"/>
		<stop  offset="0.2607" style="stop-color:#5D5D5D"/>
		<stop  offset="0.4774" style="stop-color:#A2A2A2"/>
		<stop  offset="0.6568" style="stop-color:#D4D4D4"/>
		<stop  offset="0.7921" style="stop-color:#F3F3F3"/>
		<stop  offset="0.8676" style="stop-color:#FFFFFF"/>
	</radialGradient>
	<ellipse opacity="0.2" fill="url(#SVGID_1_)" enable-background="new    " cx="524" cy="150.414" rx="57.455" ry="5.922"/>
	
		<radialGradient id="SVGID_2_" cx="-15.2075" cy="-47832.7188" r="49.7213" gradientTransform="matrix(1.12 0 0 -0.1377 541.0322 -6578.1133)" gradientUnits="userSpaceOnUse">
		<stop  offset="0" style="stop-color:#000000"/>
		<stop  offset="0.0146" style="stop-color:#050505"/>
		<stop  offset="0.2607" style="stop-color:#5D5D5D"/>
		<stop  offset="0.4774" style="stop-color:#A2A2A2"/>
		<stop  offset="0.6568" style="stop-color:#D4D4D4"/>
		<stop  offset="0.7921" style="stop-color:#F3F3F3"/>
		<stop  offset="0.8676" style="stop-color:#FFFFFF"/>
	</radialGradient>
	<ellipse opacity="0.2" fill="url(#SVGID_2_)" enable-background="new    " cx="524" cy="8.452" rx="57.455" ry="5.92"/>
	<g>
		<path fill="#F2B88E" d="M501.896,114.961c-0.316-0.031-0.62-0.096-0.894-0.203c-1.453-0.568-1.944-2.791-1.803-4.145
			c0.178-1.68,0.735-3.445,1.905-4.705c1.011-1.084,3.011-2.333,4.418-1.41c0.727,0.475,0.968,1.27,0.932,2.109
			c-0.028,0.637-0.281,1.201-0.434,1.815c-0.14,0.57,0.08,1.048,0.087,1.603c0.003,0.471-0.095,0.938-0.288,1.385
			c-0.564,1.291,0.002,2.57-1.491,3.189C503.643,114.885,502.724,115.041,501.896,114.961z"/>
		<g>
			<g>
				
					<linearGradient id="SVGID_3_" gradientUnits="userSpaceOnUse" x1="812.0742" y1="-151.0347" x2="812.0742" y2="-145.5483" gradientTransform="matrix(1 0 0 -1 -310.96 -34.6602)">
					<stop  offset="0" style="stop-color:#323031"/>
					<stop  offset="0.3763" style="stop-color:#515153"/>
					<stop  offset="0.7736" style="stop-color:#6D6D70"/>
					<stop  offset="1" style="stop-color:#77787B"/>
				</linearGradient>
				<path fill="url(#SVGID_3_)" d="M497.261,116.375v-2.301c0-0.697,0.521-1.262,1.161-1.262h5.38c0.642,0,1.161,0.563,1.161,1.262
					v2.301h1.771v-2.301c0-1.756-1.315-3.186-2.932-3.186h-5.38c-1.616,0-2.93,1.43-2.93,3.186v2.301H497.261z"/>
				
					<linearGradient id="SVGID_4_" gradientUnits="userSpaceOnUse" x1="803.9453" y1="-152.6733" x2="803.9453" y2="-149.3101" gradientTransform="matrix(1 0 0 -1 -310.96 -34.6602)">
					<stop  offset="0" style="stop-color:#323031"/>
					<stop  offset="0.3763" style="stop-color:#515153"/>
					<stop  offset="0.7736" style="stop-color:#6D6D70"/>
					<stop  offset="1" style="stop-color:#77787B"/>
				</linearGradient>
				<ellipse fill="url(#SVGID_4_)" cx="492.984" cy="116.332" rx="1.548" ry="1.682"/>
				
					<linearGradient id="SVGID_5_" gradientUnits="userSpaceOnUse" x1="820.2012" y1="-152.6733" x2="820.2012" y2="-149.3101" gradientTransform="matrix(1 0 0 -1 -310.96 -34.6602)">
					<stop  offset="0" style="stop-color:#323031"/>
					<stop  offset="0.3763" style="stop-color:#515153"/>
					<stop  offset="0.7736" style="stop-color:#6D6D70"/>
					<stop  offset="1" style="stop-color:#77787B"/>
				</linearGradient>
				<ellipse fill="url(#SVGID_5_)" cx="509.24" cy="116.332" rx="1.547" ry="1.682"/>
				<g>
					
						<linearGradient id="SVGID_6_" gradientUnits="userSpaceOnUse" x1="812.0703" y1="-150.0317" x2="812.0703" y2="-174.1196" gradientTransform="matrix(1 0 0 -1 -310.96 -34.6602)">
						<stop  offset="0" style="stop-color:#BBBDBF"/>
						<stop  offset="0.4984" style="stop-color:#B9BBBD"/>
						<stop  offset="0.6778" style="stop-color:#B2B4B6"/>
						<stop  offset="0.8058" style="stop-color:#A7A9AB"/>
						<stop  offset="0.9085" style="stop-color:#96989A"/>
						<stop  offset="0.9961" style="stop-color:#818285"/>
						<stop  offset="1" style="stop-color:#808184"/>
					</linearGradient>
					<path fill="url(#SVGID_6_)" d="M515.473,134.008c0,2.998-2.258,5.451-5.016,5.451h-18.691c-2.757,0-5.015-2.453-5.015-5.451
						V120.82c0-2.998,2.258-5.449,5.015-5.449h18.691c2.758,0,5.016,2.451,5.016,5.449V134.008z"/>
				</g>
				<path fill="#8E9093" d="M503.66,111.609c0.942,0,1.778,0.346,2.28,0.867c-0.502-0.783-1.338-1.3-2.28-1.3h-5.096
					c-0.944,0-1.779,0.517-2.281,1.3c0.502-0.521,1.337-0.867,2.281-0.867H503.66z"/>
				<path fill="#DBDCDD" d="M492.177,116.467h17.87c2.13,0,3.947,1.295,4.566,3.07c-0.619-2.1-2.438-3.631-4.566-3.631h-17.87
					c-2.13,0-3.945,1.531-4.565,3.631C488.23,117.762,490.047,116.467,492.177,116.467z"/>
			</g>
		</g>
		<path fill="#453D3B" d="M499.702,148.318c-2.805,2.182,10.909,1.557,16.831,0.311c5.925-1.25,3.744-8.104,3.744-8.104h-5.929
			C514.35,140.525,502.507,146.137,499.702,148.318z"/>
		<path fill="#453D3B" d="M530.615,140.213c-2.183,7.482,1.562,8.416,1.562,8.416s6.543,1.871,14.025,1.555
			c7.48-0.309-10.598-9.971-10.598-9.971H530.615z"/>
		<path fill="#352E2B" d="M499.702,148.318c0.415-0.326,1.042-0.728,1.786-1.176c3.666,0.379,11.09-0.181,15.045-1.006
			c2.781-0.593,3.77-2.41,4.04-4.183c0.283,2.078,0.168,5.78-4.04,6.674C510.611,149.875,496.897,150.5,499.702,148.318z"/>
		<path fill="#352E2B" d="M532.177,146.137c0,0,6.543,1.869,14.025,1.559c0.285-0.014,0.519-0.049,0.729-0.079
			c1.431,1.405,1.679,2.469-0.729,2.567c-7.482,0.316-14.025-1.555-14.025-1.555s-2.729-0.699-2.15-5.586
			C530.44,145.697,532.177,146.137,532.177,146.137z"/>
		<path fill="#242D3D" d="M513.108,84.455c0,0-1.398,15.114-6.396,24.605l-7.349-1.838c0,0,3.562-10.252,3.556-23.882
			c0-1.526-0.282-5.43,1.96-6.641c2.242-1.212,6.913-3.979,6.913-3.979L513.108,84.455z"/>
		<path fill="#FFF9F0" d="M537.559,73.558c4.841,4.064,6.18,8.941-1.086,16.063c-7.266,7.123-12.395,7.979-12.395,7.979
			s-15.96-15.264-13.116-22.182C514.403,67.049,532.72,69.494,537.559,73.558z"/>
		
			<linearGradient id="SVGID_7_" gradientUnits="userSpaceOnUse" x1="-71.2158" y1="-126.6563" x2="-60.5371" y2="-126.6563" gradientTransform="matrix(-1 0 0 -1 458.125 -34.6602)">
			<stop  offset="0" style="stop-color:#5FCEFF"/>
			<stop  offset="1" style="stop-color:#0082DF"/>
		</linearGradient>
		<path fill="url(#SVGID_7_)" d="M525.475,79.546c-3.563-0.671-4.786,2.133-4.786,2.133l1.584,3.33l-3.61,9.694l4.506,9.847
			l6.173-9.394l-2.846-9.608l2.629-2.664C529.123,82.885,528.661,80.145,525.475,79.546z"/>
		<path fill="#242D3D" d="M539.344,104.135c0.167,4.615,0.284,9.232,0.429,13.85c0.215,6.912-0.925,16.285,1.33,22.882
			c-1.001,0.481-2.007,0.936-3.034,1.313c-3.933,1.449-7.998,0.029-12.015-0.672c1.235-11.912-1.557-24.072-1.728-35.967
			C524.287,102.752,539.199,100.124,539.344,104.135z"/>
		<path fill="#242D3D" d="M524.709,107.688c-0.933,6.209-0.504,12.813-0.563,19.076c-0.041,4.449,0.141,10.189,0.419,14.637
			c-1.403,0.58-5.698,1.3-6.745,1.291c-2.98-0.022-6.985-1.082-8.789-2.135c1.354-4.572,2.4-13.063,2.846-19.977
			c0.325-5.063-1.236-11.805,0.189-16.712C513.118,100.247,525.637,101.524,524.709,107.688z"/>
		<path fill="#212126" d="M525.669,121.742c-0.296-1.355-1.398-1.438-1.551,0c-0.15,1.438-7.26,0.15-5.559-5.408
			c1.7-5.559,5.331-7.41,9.15-6.314c3.819,1.097,1.854,10.06,0.416,11.156C526.69,122.271,525.934,122.953,525.669,121.742z"/>
		<path fill="#19191F" d="M539.784,116.504v4.883c0,0-5.797-0.885-14.063,1.289c0,0-0.161-1.02-0.269-1.449
			c-0.106-0.43-1.208-0.563-1.234,0.215c-0.025,0.779-0.054,1.181-0.054,1.181s-4.375-3.567-12.292-1.422l0.027-4.857l13.043-3.862
			L539.784,116.504z"/>
		<g>
			<path fill="#242D3D" d="M507.222,93.825c-1.229-6.625-4.697-12.611,0.467-18.094c1.088-1.155,2.491-2.102,4.085-2.865
				c-0.228,0.526-0.299,1.074-0.246,1.621c0.983,10.63,12.303,21.481,12.303,21.481s16.663-14.386,13.868-21.575
				c-0.232-0.601-0.524-1.151-0.881-1.654c3.849,1.642,7.541,4.172,8.521,7.695c1.118,4.015-1.748,12.604-2.394,18.305
				c-0.414,3.658-0.653,14.417,0.214,18.12c-2.553,1.154-13.736,3.002-16.362,1.56c-2.15-1.183-3.288-3.688-3.435-4.33
				c-0.067,6.813-16.279,3.854-16.16,3.291C508.008,113.568,508.408,100.213,507.222,93.825z"/>
		</g>
		<path fill="#19191F" d="M523.607,98.508c0,0,1.147,3.012-0.304,8.256C523.305,106.764,523.548,102.778,523.607,98.508z"/>
		<circle fill="#19191F" cx="524.704" cy="107.674" r="1.014"/>
		<circle fill="#19191F" cx="525.186" cy="97.741" r="1.014"/>
		<path fill="#19191F" d="M523.372,114.281l-0.282-5.766c0,0,0.185,6.819-0.839,8.479
			C522.251,116.994,523.126,116.813,523.372,114.281z"/>
		<path opacity="0.25" fill="#4A627D" enable-background="new    " d="M513.226,71.541c0,0-6.603,4.19-9.273,9.228l6.455,2.223
			c0,0-3.583,5.241-3.76,6.072c-0.091,0.435,5.555,1.451,9.658,3.845c3.75,2.188,7.126,4.705,7.126,4.705s0.656-0.787,0.22-1.707
			C523.212,94.987,511.788,84.728,513.226,71.541z"/>
		<path fill="#242D3D" d="M513.226,71.541c0,0-5.168,3.124-7.84,8.16l5.606,3.153c0,0-3.03,4.292-3.205,5.125
			c-0.093,0.435,4.679,2.12,8.782,4.514c3.751,2.189,6.861,5.121,6.861,5.121s0.656-0.787,0.22-1.707
			C523.212,94.987,511.788,84.728,513.226,71.541z"/>
		<path opacity="0.25" fill="#4A627D" enable-background="new    " d="M536.537,72.541c0,0,7.222,3.886,9.398,9.399l-7.206,1.565
			c0,0,2.911,6.485,3.007,7.372c0.059,0.546-5.866-0.474-12.148,2.759c-3.366,1.732-5.697,3.9-5.697,3.9s-0.579-0.885-0.056-1.807
			C524.359,94.805,536.537,86.79,536.537,72.541z"/>
		<path fill="#242D3D" d="M536.537,72.541c0,0,5.671,2.666,7.849,8.179l-6.694,2.507c0,0,2.88,5.513,2.975,6.398
			c0.058,0.547-5.002,0.367-11.285,3.6c-3.366,1.732-5.489,4.311-5.489,4.311s-0.578-0.885-0.056-1.807
			C524.359,94.805,536.537,86.79,536.537,72.541z"/>
		<path opacity="0.2" fill="#A09D98" enable-background="new    " d="M512.567,76.597c0,0,1.447,4.527,6.642,9.124l5.433-4.602
			l5.104,4.863c0,0,4.479-2.722,6.203-8.184s-13.563-4.968-17.329-2.996C514.854,76.776,512.567,76.597,512.567,76.597z"/>
		<path fill="#FFF9F0" d="M524.642,81.119l-5.121,3.217c0,0-10.13-5.255-6.295-12.795c3.448-6.781,20.643-6.234,23.58,1.271
			c2.531,6.467-6.677,11.731-6.677,11.731L524.642,81.119z"/>
		<path fill="#FFCB9E" d="M501.229,114.215c1.032-0.746,1.709-3.494,1.463-4.525c-0.291-1.213-1.366-2.002-2.498-1.334
			c-1.201,0.709-0.827,2.554-0.704,3.437c0.104,0.75,0.123,0.701-0.011,1.438c-0.077,0.424-0.637,0.865-0.393,1.316
			C499.469,115.25,500.684,114.609,501.229,114.215z"/>
		<path fill="#FFCB9E" d="M502.125,113.281c-1.545,1.313-0.806,2.313,0.938,2.17c0.898-0.074,3.779-0.572,2.548-2.109
			C504.922,112.482,502.899,112.625,502.125,113.281z"/>
		<path fill="#673B1D" d="M507.945,47.15c-0.378-6.223,0.312-8.507,0.008-11.021c-1.29-10.698,7.307-18.498,22.442-17.304
			c26.444,2.086,22.022,38.787,14.485,37.199c-5.573-1.173-11.05-2.754-16.572-4.129c-5.143-1.28-10.846-0.298-16.107,0.059
			C508.082,52.233,508.148,50.49,507.945,47.15z"/>
		<path fill="#673B1D" d="M518.441,16.325c0.552,1.26,0.934,1.837,1.44,2.515c-1.943,0.103-4.156,0.3-5.7,0.36
			c0.729,0.818,2.196,2.663,3.621,2.804c4.301,0.428,9.468,0.308,13.757-0.27c1.631-0.22,3.337-0.174,4.943-0.476
			c-0.544-1.518-3.049-2.039-4.41-2.246C529.437,18.608,523.74,18.22,518.441,16.325z"/>
		<path fill="#F2B88E" d="M517.93,73.465c1.047,1.042,2.762,2.069,4.534,2.611c1.26,0.386,3.473,1.869,3.864,1.877
			c0.158,0.003,0.888-0.635,2.079-1.248c1.743-0.898,4.212-2.086,5.171-3.966c1.404-2.75,2.659-8.195,0.003-10.333
			c-2.75-2.212-8.111-2.567-11.396-1.847c-3.425,0.752-5.7,4.008-5.938,7.361C516.063,70.518,516.479,72.024,517.93,73.465z"/>
		<path fill="#FFCB9E" d="M546.455,53.515c-2.317,11.77-12.907,20.216-23.656,18.864c-10.748-1.352-17.583-11.988-15.268-23.757
			c2.313-11.771,12.905-20.216,23.655-18.865C541.935,31.108,548.771,41.746,546.455,53.515z"/>
		<path fill="#FFCB9E" d="M547.734,58.753c-1.434,0.294-2.926,0.2-4.354-0.035c-0.024-0.041-0.051-0.082-0.078-0.124
			c-0.585-0.951,0.855-5.362,1.243-6.262c0.975-2.268,2.436-3.792,4.966-2.912C554.784,51.255,552.194,57.837,547.734,58.753z"/>
		<path opacity="0.6" fill="#D9AF96" enable-background="new    " d="M545.085,57.113c-2.42-1.022-0.389-4.771,1.358-5.423
			c1.433-0.535,5.12,0.245,3.522,2.385c-1.009-1.911-2.55-0.593-2.229,0.775c0.215,0.919,1.568,0.892,0.289,2.117
			C547.334,57.629,545.848,57.435,545.085,57.113z"/>
		<path fill="#2B2521" d="M512.414,37.966c-1.357-0.232-1.694-0.964-0.271-1.392c0.815-0.245,1.782-0.134,2.617-0.053
			c0.512,0.05,2.49-0.017,2.82,0.449C518.818,38.717,512.931,38.055,512.414,37.966z"/>
		<path fill="#673B1D" d="M535.11,42.336c1.352,0.257,1.924-0.311,0.738-1.209c-0.679-0.515-1.623-0.749-2.435-0.964
			c-0.496-0.133-2.326-0.887-2.8-0.565C528.846,40.8,534.596,42.24,535.11,42.336z"/>
		<path fill="#673B1D" d="M514.023,42.833c-1.354,0.257-1.925-0.311-0.74-1.209c0.679-0.515,1.624-0.749,2.435-0.965
			c0.497-0.132,2.326-0.887,2.8-0.565C520.287,41.296,514.538,42.736,514.023,42.833z"/>
		<path opacity="0.35" fill="#B55623" enable-background="new    " d="M527.854,52.125c0.743,0.601-0.42,3.112-3.434,3.543
			c-3.027,0.432-4.936-1.923-3.834-2.673c1.104-0.751,1.896-0.15,3.61-0.359C526.102,52.403,526.992,51.428,527.854,52.125z"/>
		<path fill="#673B1D" d="M512.432,40.102c3.263-0.688,4.863-1.7,7.979-2.845c-0.107,0.999-0.463,2.616-0.338,3.637
			c1.887-0.65,9.116-2.822,12.878-3.972c-0.353,0.857-0.379,1.895-0.644,2.824c1.981-0.875,4.233-3.267,6.545-3.093
			c1.39,0.105,1.505,0.974,1.753,2.207c0.363,1.809,0.896,3.342,1.48,5.078c1.393,4.125,0.683,8.524-1.06,10.138
			c0.926,0.244,2.08,0.243,2.605-0.016c0.679-0.884,1.915-3.489,2.002-5.611c0.146-3.532,1.575-6.857,1.521-10.458
			c-0.077-4.957-0.942-8.887-4.789-12.249c-3.315-2.896-5.75-4.688-9.979-5.871c-15.754-4.407-26.609,5.378-29,19.325
			c2.22-0.189,5.758-1.233,7.753-2.609C511.226,37.002,512.126,39.612,512.432,40.102z"/>
		<path fill="#754829" d="M510.631,27.376c-0.554,0.678-1.063,1.388-1.521,2.121c-1.246,1.989-2.239,4.254-3.027,6.46
			c2.006-1.408,5.229-2.099,7.647-2.196c0.106,1.295,0.593,2.498,0.683,3.828c2.343-1.421,4.79-2.674,7.612-2.787
			c0.3,0.915,0.281,2.004,0.348,2.98c1.211-0.599,9.479-3.052,12.326-3.644c-0.174,0.998-0.022,2.111-0.236,3.139
			c1.538-0.733,6.914-4.808,7.989-5.847c2.083-2.014,0.585-4.869-1.064-6.604c-1.523-1.604-3.634-2.857-5.71-3.572
			c-4.074-1.406-8.259-1.339-12.486-0.961C518.277,20.731,513.745,23.569,510.631,27.376z"/>
		<polygon fill="#242D3D" points="541.225,75.542 563.673,63.191 561.332,78.549 542.031,85.604 		"/>
		<g>
			
				<linearGradient id="SVGID_8_" gradientUnits="userSpaceOnUse" x1="2932.4834" y1="1229.3613" x2="2932.4834" y2="1215.6628" gradientTransform="matrix(0.1039 0.9946 0.9946 -0.1039 -953.705 -2720.0381)">
				<stop  offset="0" style="stop-color:#FFE0B3"/>
				<stop  offset="1" style="stop-color:#F7B188"/>
			</linearGradient>
			<path fill="url(#SVGID_8_)" d="M562.996,76.734c-1.972-0.808-3.599-2.754-2.25-6.427c-1.105-3.309-0.963-5.857,0.782-7.836
				c1.356-1.539,5.688-1.131,7.622-0.928c2.191,0.231,2.926,0.451,4.007,2.276c2.84,4.8-0.541,13.751-3.017,13.877
				C568.116,77.799,565.223,77.647,562.996,76.734z"/>
			
				<linearGradient id="SVGID_9_" gradientUnits="userSpaceOnUse" x1="797.0342" y1="-163.0986" x2="793.9382" y2="-179.0208" gradientTransform="matrix(0.9987 -0.0507 -0.0507 -0.9987 -238.0502 -68.8314)">
				<stop  offset="0" style="stop-color:#FFE0B3"/>
				<stop  offset="0.5091" style="stop-color:#FFD39C"/>
				<stop  offset="1" style="stop-color:#F6AE85"/>
			</linearGradient>
			<path fill="url(#SVGID_9_)" d="M561.744,69.903c-0.131-0.067-0.261-0.143-0.393-0.225c-1.742-1.106-1.471-3.498-1.074-5.182
				c0.463-1.965,1.797-3.945,2.792-5.671c0.535-0.93,0.192-3.535,0.38-4.578c0.229-1.292,0.186-2.32,1.554-2.793
				c2.566-0.888,4.291,1.47,4.448,3.637c0.145,1.995-0.428,4.014-0.086,7.089c0.19,1.725-1.423,3.936-2.414,5.74
				C565.788,70.034,563.764,70.95,561.744,69.903z"/>
			
				<linearGradient id="SVGID_10_" gradientUnits="userSpaceOnUse" x1="1158.2715" y1="-183.7163" x2="1156.7488" y2="-187.5235" gradientTransform="matrix(1.158 -0.0588 -0.0507 -0.9987 -781.1923 -41.2835)">
				<stop  offset="0" style="stop-color:#FFE0B3"/>
				<stop  offset="0.5091" style="stop-color:#FFD39C"/>
				<stop  offset="1" style="stop-color:#F6AE85"/>
			</linearGradient>
			<path fill="url(#SVGID_10_)" d="M572.117,74.078c-1.021-0.311-2.784-0.234-3.933-0.244c-1.245-0.01-2.89,0.014-3.7,0.844
				c-0.57,0.584-0.432,1.723,0.127,2.248c0.657,0.622,1.848,0.807,2.964,0.861c1.684,0.083,4.309,0.308,5.365-0.928
				C573.728,75.936,573.591,74.527,572.117,74.078z"/>
			
				<linearGradient id="SVGID_11_" gradientUnits="userSpaceOnUse" x1="1159.1172" y1="-179.6406" x2="1157.8835" y2="-184.39" gradientTransform="matrix(1.158 -0.0588 -0.0507 -0.9987 -781.1923 -41.2835)">
				<stop  offset="0" style="stop-color:#FFE0B3"/>
				<stop  offset="0.5091" style="stop-color:#FFD39C"/>
				<stop  offset="1" style="stop-color:#F6AE85"/>
			</linearGradient>
			<path fill="url(#SVGID_11_)" d="M573.728,70.139c-1.23-0.361-3.364-0.268-4.75-0.276c-1.507-0.009-3.491,0.022-4.475,0.992
				c-0.689,0.683-0.525,2.01,0.146,2.622c0.795,0.723,2.232,0.936,3.581,0.997c2.034,0.093,5.206,0.35,6.484-1.093
				C575.671,72.302,575.507,70.66,573.728,70.139z"/>
			
				<linearGradient id="SVGID_12_" gradientUnits="userSpaceOnUse" x1="1159.8076" y1="-175.8467" x2="1158.6301" y2="-180.4328" gradientTransform="matrix(1.158 -0.0588 -0.0507 -0.9987 -781.1923 -41.2835)">
				<stop  offset="0" style="stop-color:#FFE0B3"/>
				<stop  offset="0.5091" style="stop-color:#FFD39C"/>
				<stop  offset="1" style="stop-color:#F6AE85"/>
			</linearGradient>
			<path fill="url(#SVGID_12_)" d="M574.797,66.095c-1.365-0.39-3.729-0.286-5.264-0.294c-1.67-0.008-3.871,0.027-4.96,1.082
				c-0.767,0.741-0.584,2.181,0.159,2.844c0.881,0.783,2.474,1.012,3.968,1.078c2.254,0.099,5.769,0.373,7.187-1.194
				C576.945,68.439,576.767,66.658,574.797,66.095z"/>
			
				<linearGradient id="SVGID_13_" gradientUnits="userSpaceOnUse" x1="1159.4609" y1="-171.4316" x2="1158.2964" y2="-175.9676" gradientTransform="matrix(1.158 -0.0588 -0.0507 -0.9987 -781.1923 -41.2835)">
				<stop  offset="0" style="stop-color:#FFE0B3"/>
				<stop  offset="0.5091" style="stop-color:#FFD39C"/>
				<stop  offset="1" style="stop-color:#F6AE85"/>
			</linearGradient>
			<path fill="url(#SVGID_13_)" d="M573.995,61.689c-1.313-0.393-3.583-0.293-5.057-0.304c-1.604-0.012-3.717,0.02-4.761,1.072
				c-0.732,0.739-0.557,2.179,0.159,2.843c0.847,0.786,2.378,1.018,3.813,1.086c2.163,0.103,5.538,0.385,6.897-1.179
				C576.064,64.038,575.889,62.256,573.995,61.689z"/>
		</g>
		<path fill="#9E2626" d="M519.207,61.676c-0.444,0.155-0.164,0.206-0.046,0.409c2.954,3.534,10.902,3.027,14.163-1.485
			c-0.966-0.155-1.706-0.314-2.463,0.013C526.685,62.416,522.196,62.198,519.207,61.676z"/>
		<path fill="#DFF4F4" d="M533.299,45.468c-0.656-0.026-1.231,0.157-1.729,0.577c-0.498,0.419-0.761,0.917-0.786,1.52
			c-0.026,0.603,0.184,1.127,0.653,1.572c0.447,0.446,1.023,0.682,1.68,0.708c0.681,0.026,1.285-0.183,1.782-0.603
			c0.497-0.419,0.76-0.917,0.786-1.52c0.025-0.604-0.211-1.102-0.683-1.546C534.531,45.73,533.954,45.495,533.299,45.468
			L533.299,45.468z"/>
		<path fill="#CCEEED" d="M535.815,45.468c-0.236-0.209-0.445-0.366-0.684-0.498c-0.097-0.009-0.191-0.009-0.289-0.017l-0.088-0.207
			l-1.465-0.435l-1.939,0.598l-0.208,0.305h0.018c-0.029,0.007-0.061,0.01-0.09,0.018c-0.026,0.027-0.078,0.052-0.104,0.079
			c-0.341,0.289-0.604,0.629-0.786,1.022c-0.184,0.34-0.262,0.708-0.289,1.127c-0.024,0.839,0.263,1.573,0.918,2.176
			c0.628,0.603,1.416,0.944,2.387,0.969c0.942,0.027,1.756-0.262,2.438-0.838c0.708-0.551,1.074-1.258,1.101-2.098
			C536.759,46.805,536.47,46.071,535.815,45.468z M534.897,49.243c-0.497,0.419-1.103,0.629-1.782,0.603
			c-0.655-0.026-1.231-0.262-1.68-0.708c-0.471-0.445-0.681-0.97-0.653-1.572c0.025-0.603,0.288-1.101,0.786-1.52
			c0.498-0.42,1.073-0.603,1.729-0.577c0.655,0.026,1.232,0.262,1.703,0.708c0.472,0.445,0.708,0.943,0.683,1.546
			C535.657,48.326,535.396,48.824,534.897,49.243z"/>
		<g>
			<path fill="#AA7D5E" d="M533.312,50.818L533.312,50.818l-0.123-0.001c-0.991-0.027-1.842-0.373-2.525-1.028
				c-0.679-0.625-1.011-1.411-0.982-2.334c0.032-0.497,0.133-0.882,0.314-1.221c0.188-0.409,0.474-0.777,0.836-1.084
				c0.008-0.008,0.038-0.032,0.071-0.053c0.006-0.007,0.032-0.026,0.042-0.033c0.656-0.499,1.445-0.752,2.348-0.752l0.146,0.001l0,0
				c0.378,0,0.739,0.055,1.104,0.167c0.274,0.092,0.486,0.175,0.704,0.312c0.229,0.126,0.443,0.283,0.71,0.519
				c0.686,0.631,1.017,1.426,0.988,2.366c-0.028,0.91-0.428,1.669-1.184,2.257C535.069,50.519,534.243,50.818,533.312,50.818z
				 M533.291,44.734c-0.807,0-1.511,0.224-2.094,0.667c0.001,0.002-0.029,0.025-0.063,0.046c-0.35,0.293-0.595,0.612-0.765,0.976
				c-0.16,0.298-0.241,0.62-0.271,1.052c-0.022,0.799,0.254,1.458,0.852,2.007c0.607,0.584,1.364,0.89,2.248,0.914l0.111,0.001
				c0.829,0,1.563-0.266,2.185-0.791c0.659-0.512,1.002-1.164,1.024-1.942c0.026-0.823-0.252-1.491-0.849-2.04
				c-0.238-0.211-0.431-0.353-0.641-0.468c-0.191-0.12-0.377-0.192-0.619-0.273c-0.318-0.098-0.643-0.147-0.982-0.147
				L533.291,44.734z"/>
		</g>
		<g>
			<g>
				<circle fill="#0C0101" cx="533.386" cy="47.006" r="1.51"/>
				
					<linearGradient id="SVGID_14_" gradientUnits="userSpaceOnUse" x1="842.5537" y1="-81.666" x2="846.1367" y2="-81.666" gradientTransform="matrix(1 0 0 -1 -310.96 -34.6602)">
					<stop  offset="0" style="stop-color:#5FCEFF"/>
					<stop  offset="1" style="stop-color:#0082DF"/>
				</linearGradient>
				<path fill="url(#SVGID_14_)" d="M534.093,48.652c-0.908,0.39-1.963-0.031-2.354-0.939c-0.39-0.907,0.031-1.962,0.938-2.353
					c0.907-0.39,1.962,0.032,2.354,0.939C535.422,47.207,535,48.262,534.093,48.652z M532.901,45.876
					c-0.624,0.268-0.912,0.992-0.646,1.615c0.268,0.623,0.991,0.912,1.614,0.644c0.622-0.267,0.912-0.992,0.644-1.614
					C534.248,45.898,533.523,45.609,532.901,45.876z"/>
			</g>
			<circle fill="#FFFFFF" cx="532.124" cy="46.886" r="0.456"/>
			<circle fill="#FFFFFF" cx="534.522" cy="47.576" r="0.188"/>
		</g>
		<g>
			<path fill="#DFF4F4" d="M516.051,46.326c-0.655-0.026-1.231,0.157-1.729,0.577c-0.498,0.419-0.761,0.917-0.787,1.521
				s0.184,1.127,0.654,1.573c0.446,0.446,1.022,0.682,1.679,0.708c0.682,0.025,1.285-0.184,1.783-0.604
				c0.497-0.42,0.76-0.917,0.786-1.52c0.024-0.604-0.21-1.102-0.684-1.547C517.283,46.588,516.706,46.352,516.051,46.326
				L516.051,46.326z"/>
			<path fill="#CCEEED" d="M518.567,46.326c-0.236-0.209-0.445-0.366-0.683-0.498c-0.098-0.009-0.192-0.009-0.29-0.016l-0.088-0.207
				l-1.464-0.435l-1.94,0.597l-0.207,0.306l0.018-0.001c-0.03,0.007-0.061,0.01-0.09,0.018c-0.026,0.026-0.079,0.053-0.105,0.079
				c-0.341,0.289-0.604,0.629-0.786,1.022c-0.184,0.341-0.262,0.708-0.288,1.127c-0.024,0.838,0.263,1.572,0.917,2.176
				c0.628,0.603,1.416,0.943,2.387,0.969c0.942,0.026,1.756-0.262,2.438-0.838c0.708-0.55,1.074-1.258,1.102-2.097
				C519.512,47.663,519.223,46.929,518.567,46.326z M517.65,50.101c-0.498,0.419-1.103,0.629-1.783,0.604
				c-0.655-0.027-1.231-0.263-1.679-0.708c-0.472-0.445-0.682-0.97-0.654-1.573s0.289-1.101,0.787-1.521
				c0.497-0.419,1.073-0.603,1.729-0.577c0.655,0.026,1.232,0.263,1.703,0.708c0.473,0.446,0.708,0.943,0.683,1.547
				C518.41,49.183,518.147,49.681,517.65,50.101z"/>
			<g>
				<path fill="#AA7D5E" d="M516.064,51.675L516.064,51.675l-0.125-0.001c-0.991-0.026-1.842-0.373-2.524-1.028
					c-0.68-0.625-1.011-1.411-0.982-2.334c0.031-0.496,0.132-0.882,0.314-1.221c0.188-0.408,0.473-0.776,0.836-1.083
					c0.007-0.008,0.038-0.031,0.07-0.053c0.006-0.007,0.034-0.026,0.042-0.033c0.657-0.499,1.446-0.752,2.349-0.752l0.146,0.002
					h0.001c0.377,0,0.738,0.054,1.104,0.167c0.275,0.092,0.486,0.175,0.704,0.311c0.229,0.126,0.443,0.283,0.71,0.519
					c0.686,0.631,1.018,1.427,0.988,2.367c-0.028,0.909-0.426,1.668-1.183,2.256C517.821,51.376,516.996,51.675,516.064,51.675z
					 M516.044,45.591c-0.807,0-1.512,0.225-2.094,0.667c0.001,0.002-0.03,0.025-0.063,0.047c-0.351,0.292-0.596,0.612-0.765,0.976
					c-0.16,0.298-0.242,0.62-0.271,1.051c-0.022,0.8,0.256,1.458,0.852,2.007c0.609,0.584,1.365,0.891,2.248,0.914l0.113,0.002
					c0.827,0,1.563-0.266,2.184-0.791c0.659-0.512,1.002-1.164,1.025-1.942c0.024-0.823-0.252-1.491-0.849-2.041
					c-0.239-0.211-0.433-0.353-0.643-0.468c-0.19-0.12-0.377-0.192-0.618-0.273c-0.319-0.099-0.643-0.146-0.982-0.146
					L516.044,45.591z"/>
			</g>
			<g>
				<g>
					<circle fill="#0C0101" cx="516.139" cy="47.864" r="1.51"/>
					
						<linearGradient id="SVGID_15_" gradientUnits="userSpaceOnUse" x1="825.3076" y1="-82.5249" x2="828.8896" y2="-82.5249" gradientTransform="matrix(1 0 0 -1 -310.96 -34.6602)">
						<stop  offset="0" style="stop-color:#5FCEFF"/>
						<stop  offset="1" style="stop-color:#0082DF"/>
					</linearGradient>
					<path fill="url(#SVGID_15_)" d="M517.068,49.396c-0.847,0.512-1.949,0.243-2.461-0.602c-0.514-0.844-0.242-1.948,0.602-2.461
						c0.845-0.512,1.948-0.242,2.461,0.603C518.183,47.78,517.912,48.883,517.068,49.396z M515.501,46.813
						c-0.58,0.352-0.765,1.109-0.414,1.689c0.354,0.579,1.11,0.765,1.689,0.413s0.765-1.109,0.412-1.688
						C516.838,46.647,516.08,46.462,515.501,46.813z"/>
				</g>
				<circle fill="#FFFFFF" cx="514.872" cy="47.921" r="0.457"/>
				<circle fill="#FFFFFF" cx="517.343" cy="48.27" r="0.187"/>
			</g>
		</g>
	</g>
</g>
<g>
	<path fill="#453D3B" d="M-364.323,149.887c-2.645,2.057,10.284,1.469,15.867,0.293c5.585-1.18,3.528-7.639,3.528-7.639h-5.587
		C-350.515,142.541-361.681,147.83-364.323,149.887z"/>
	<path fill="#453D3B" d="M-335.18,142.244c-2.057,7.055,1.472,7.936,1.472,7.936s6.169,1.764,13.223,1.467
		c7.052-0.291-9.991-9.401-9.991-9.401L-335.18,142.244L-335.18,142.244z"/>
	<path fill="#352E2B" d="M-364.323,149.887c0.391-0.307,0.982-0.686,1.684-1.109c3.456,0.357,10.454-0.17,14.184-0.946
		c2.622-0.558,3.554-2.271,3.81-3.94c0.267,1.959,0.157,5.45-3.81,6.291C-354.039,151.355-366.968,151.943-364.323,149.887z"/>
	<path fill="#352E2B" d="M-333.708,147.83c0,0,6.169,1.762,13.223,1.469c0.269-0.014,0.489-0.045,0.688-0.076
		c1.348,1.328,1.582,2.328-0.688,2.424c-7.054,0.297-13.223-1.467-13.223-1.467s-2.573-0.658-2.028-5.266
		C-335.346,147.416-333.708,147.83-333.708,147.83z"/>
	
		<radialGradient id="SVGID_16_" cx="-791.9199" cy="-48863.7109" r="46.871" gradientTransform="matrix(1.12 0 0 -0.1377 541.0322 -6578.1133)" gradientUnits="userSpaceOnUse">
		<stop  offset="0" style="stop-color:#000000"/>
		<stop  offset="0.0146" style="stop-color:#050505"/>
		<stop  offset="0.2607" style="stop-color:#5D5D5D"/>
		<stop  offset="0.4774" style="stop-color:#A2A2A2"/>
		<stop  offset="0.6568" style="stop-color:#D4D4D4"/>
		<stop  offset="0.7921" style="stop-color:#F3F3F3"/>
		<stop  offset="0.8676" style="stop-color:#FFFFFF"/>
	</radialGradient>
	<ellipse opacity="0.2" fill="url(#SVGID_16_)" enable-background="new    " cx="-345.918" cy="150.42" rx="54.166" ry="5.582"/>
	<path fill="#FFCB9E" d="M-323.488,84.604c0,0,10.029,9.137,9.451,17.091c-0.731,10.045-10.178,11.28-10.178,11.28l-1.592-3.996
		c0,0,5.447-0.758,5.387-7.201c-0.044-4.816-7.984-12.059-7.984-12.059L-323.488,84.604z"/>
	<path fill="#A0BAD9" d="M-328.33,79.556c6.948,5.836-0.699,33.196-0.558,32.491l-22.533,0.205
		c-0.114-0.676-6.462-21.767-2.778-30.725C-351.011,73.771-332.814,75.789-328.33,79.556z"/>
	<path fill="#C72E2E" d="M-339.776,85.387c-3.304-0.622-4.437,1.976-4.437,1.976l2.207,3.346l-3.27,9.248l4.494,8.34l4.586-8.444
		l-2.637-8.903l2.436-2.469C-336.396,88.48-336.825,85.941-339.776,85.387z"/>
	<path fill="#242D3D" d="M-328.408,113.289c-0.084,4.279,0.332,22.811,2.31,28.922c-0.878,0.447-1.76,0.867-2.661,1.219
		c-3.445,1.344-7.012,0.027-10.531-0.623c1.084-11.037-0.896-18.389-1.046-29.412C-340.345,112.855-328.368,111.307-328.408,113.289
		z"/>
	<path fill="#242D3D" d="M-340.01,115.365c-0.817,5.756-0.9,7.975-0.953,13.779c-0.037,4.123,0.123,9.442,0.368,13.563
		c-1.231,0.539-4.995,1.203-5.914,1.197c-2.612-0.021-6.123-1.004-7.704-1.978c1.186-4.239,3.504-15.34,2.608-28.584
		C-351.663,112.473-339.561,112.213-340.01,115.365z"/>
	<path fill="#242D3D" d="M-339.627,124.49c-0.26-1.256-1.227-1.33-1.359,0c-0.133,1.332-6.365,0.141-4.873-5.01
		c1.492-5.152,4.674-6.871,8.022-5.854c3.348,1.019,1.624,9.322,0.364,10.338C-338.733,124.98-339.396,125.613-339.627,124.49z"/>
	<path fill="#A0BAD9" d="M-328.519,79.457c0,0,2.173,1.009,4.381,2.444c3.677,2.389,7.206,8.008,11.991,14.378
		c-1.924,2.117-8.627,4.346-11.785,3.895c-0.891-3.563-3.862-6.258-3.862-6.258L-328.519,79.457z"/>
	<path opacity="0.2" fill="#A09D98" enable-background="new    " d="M-351.738,82.654c0,0,1.342,4.195,6.154,8.455l5.035-4.263
		l4.73,4.505c0,0,4.15-2.521,5.748-7.583c1.598-5.061-12.57-4.604-16.06-2.776C-349.619,82.82-351.738,82.654-351.738,82.654z"/>
	<path fill="#A0BAD9" d="M-340.549,86.845l-4.747,2.98c0,0-9.386-4.871-5.833-11.857c3.197-6.284,19.13-5.776,21.852,1.177
		c2.346,5.993-6.188,10.871-6.188,10.871L-340.549,86.845z"/>
	<path fill="#F2B88E" d="M-333.068,82.181c-0.928,0.922-2.443,1.832-4.013,2.311c-1.116,0.341-3.072,1.654-3.419,1.66
		c-0.14,0.004-0.786-0.562-1.84-1.104c-1.542-0.795-3.727-1.846-4.576-3.508c-1.242-2.434-2.353-7.252-0.001-9.143
		c2.433-1.957,7.177-2.272,10.083-1.633c3.031,0.666,5.045,3.546,5.254,6.513C-331.418,79.574-331.785,80.906-333.068,82.181z"/>
	<path fill="#242D3D" d="M-351.524,114.719l23.104,0.324l0.03-4.076c0,0-11.683,2.111-23.431-0.113L-351.524,114.719z"/>
	<path fill="#352E2B" d="M-328.398,111.502c0,0-10.973,2.219-23.339-0.143l0.276,2.842c0,0,8.932,3.287,23.045,0.098
		L-328.398,111.502z"/>
	<path fill="#453D3B" d="M-343.732,115.578c0.021-1.09,0.059-2.176,0.121-3.238c2.363,0.133,4.566,0.129,6.525,0.057
		c-0.135,1.064-0.201,2.127-0.193,3.191C-339.709,115.742-341.875,115.709-343.732,115.578z"/>
	<path fill="#242D3D" d="M-329.959,118.178c0.389,0.463,1.18,0.859,1.616,1.273c-0.094-1.418-0.029-3.791-0.153-5.311
		c-0.092-1.148-1.578-3.188-2.564-1.816C-332.08,113.74-330.956,116.996-329.959,118.178z"/>
	<path fill="#673B1D" d="M-355.301,51.627c-0.645-1.162-0.377-12.118-1.717-10.933c-5.102,4.512-0.93,12.415-3.862,18.055
		c-0.384,0.735,2.694,0.676,2.954,0.606C-354.755,58.489-353.813,54.309-355.301,51.627z"/>
	<path fill="#673B1D" d="M-354.85,50.246c-2.246-0.911-4.87-1.613-2.152-11.219c2.961-10.458,16.539-15.391,27.024-11.965
		c25.395,8.298,16.945,37.579,9.505,35.339C-327.914,60.16-352.605,51.155-354.85,50.246z"/>
	<path fill="#FFCB9E" d="M-317.926,62.144c-2.395,12.162-13.336,20.889-24.443,19.493c-11.105-1.396-18.169-12.388-15.775-24.55
		c2.392-12.162,13.336-20.889,24.441-19.492C-322.598,38.991-315.533,49.983-317.926,62.144z"/>
	<path fill="#FFCB9E" d="M-316.604,67.557c-1.479,0.304-3.021,0.207-4.497-0.037c-0.025-0.042-0.053-0.084-0.08-0.127
		c-0.604-0.982,0.884-5.541,1.284-6.47c1.007-2.344,2.517-3.92,5.132-3.01C-309.319,59.808-311.995,66.61-316.604,67.557z"/>
	<path fill="#673B1D" d="M-325.473,34.417c7.202,4.085,10.326,16.799,8.784,24.043c-0.877,4.124-8.22,6.854-7.383,4.637
		c3.388-8.973,1.444-15.721-8.8-19.586c-8.168-3.083-18.258-3.287-20.996-1.875c-2.738,1.412,0.656-5.091,8.512-8.606
		C-337.5,29.515-330.996,31.284-325.473,34.417z"/>
	<path opacity="0.6" fill="#D9AF96" enable-background="new    " d="M-319.342,65.862c-2.501-1.056-0.4-4.93,1.404-5.604
		c1.48-0.553,5.291,0.253,3.641,2.465c-1.042-1.975-2.635-0.614-2.303,0.801c0.223,0.949,1.623,0.921,0.298,2.188
		C-317.017,66.396-318.553,66.195-319.342,65.862z"/>
	<path fill="#673B1D" d="M-358.949,40.021c6.866,6.621,21.592,1.332,29.07,7.213c0.116-1.085-0.131-2.207-0.51-3.166
		c0.23,0.585,3.901,2.312,4.65,2.29c2.001-0.06,3.25-2.187,3.954-3.706c2.138-4.607,1.974-9.329-2.003-12.375
		c-5.512-4.221-12.709-5.092-19.574-4.163C-355.365,27.742-362.186,36.898-358.949,40.021z"/>
	<path fill="#673B1D" d="M-313.756,32.524c-2.805,6.09-10.664,3.585-13.961,1.098c-1.559-1.177-2.967-6.802-0.211-5.866
		c3.74,1.271,7.787,2.621,11.156,1.121c-0.094,0.691-0.18,2.532-1.908,3.196C-317.826,32.977-315.807,33.308-313.756,32.524z"/>
	<path fill="#2B2521" d="M-351.66,48.735c-1.402-0.24-1.75-0.996-0.279-1.438c0.843-0.253,1.842-0.139,2.705-0.055
		c0.527,0.051,2.572-0.018,2.914,0.464C-345.043,49.511-351.127,48.826-351.66,48.735z"/>
	<path fill="#2B2521" d="M-327.598,52.618c1.398,0.266,1.988-0.321,0.765-1.25c-0.702-0.532-1.678-0.774-2.515-0.997
		c-0.514-0.137-2.404-0.917-2.894-0.584C-334.069,51.03-328.129,52.518-327.598,52.618z"/>
	<path fill="#754829" d="M-354.565,40.963c-6.156-2.487-2.099-7.613,1.175-9.908c4.996-3.502,11.828-4.142,17.921-3.611
		c4.898,0.427,12.944,2.611,14.56,8.022c1.1,3.686-2.725,5.473-5.784,6.055c-2.181,0.415-4.445,0.292-6.634-0.006
		c0.498,0.747,0.905,1.573,1.363,2.3C-339.195,42.424-347.678,43.747-354.565,40.963z"/>
	<path opacity="0.35" fill="#B55623" enable-background="new    " d="M-338.938,62.766c0.768,0.621-0.434,3.216-3.549,3.661
		c-3.127,0.447-5.099-1.987-3.961-2.762c1.14-0.777,1.959-0.155,3.73-0.372C-340.749,63.054-339.828,62.045-338.938,62.766z"/>
	<path fill="#9E2626" d="M-336.875,70.217c0.458,0.16,0.168,0.213,0.045,0.422c-3.051,3.652-11.266,3.127-14.633-1.535
		c0.998-0.161,1.762-0.325,2.545,0.014C-344.604,70.982-339.965,70.757-336.875,70.217z"/>
	<path fill="#DFF4F4" d="M-331.795,56.096c-0.678-0.026-1.273,0.163-1.787,0.597c-0.516,0.433-0.787,0.947-0.814,1.571
		c-0.026,0.623,0.191,1.165,0.678,1.624c0.461,0.461,1.057,0.705,1.734,0.732c0.703,0.027,1.327-0.189,1.842-0.623
		s0.784-0.948,0.813-1.571c0.025-0.624-0.217-1.138-0.705-1.598C-330.521,56.367-331.118,56.123-331.795,56.096L-331.795,56.096z"/>
	<path fill="#CCEEED" d="M-329.195,56.096c-0.244-0.216-0.461-0.378-0.704-0.514c-0.101-0.01-0.199-0.01-0.3-0.017l-0.09-0.214
		l-1.514-0.449l-2.006,0.617l-0.214,0.315l0.018-0.001c-0.03,0.008-0.063,0.011-0.093,0.019c-0.027,0.027-0.081,0.054-0.107,0.081
		c-0.354,0.298-0.625,0.65-0.813,1.056c-0.191,0.352-0.271,0.731-0.299,1.165c-0.026,0.867,0.271,1.625,0.947,2.248
		c0.65,0.623,1.464,0.975,2.466,1.001c0.975,0.027,1.814-0.271,2.52-0.866c0.73-0.569,1.109-1.3,1.136-2.167
		C-328.221,57.477-328.52,56.719-329.195,56.096z M-330.143,59.997c-0.515,0.433-1.139,0.649-1.842,0.623
		c-0.678-0.027-1.273-0.271-1.734-0.732c-0.486-0.459-0.704-1.001-0.678-1.624c0.027-0.624,0.299-1.138,0.814-1.571
		c0.514-0.434,1.109-0.623,1.787-0.597c0.677,0.027,1.273,0.271,1.76,0.732c0.488,0.46,0.73,0.975,0.705,1.598
		C-329.358,59.049-329.628,59.563-330.143,59.997z"/>
	<g>
		<path fill="#AA7D5E" d="M-331.781,61.624L-331.781,61.624l-0.128-0.001c-1.025-0.028-1.903-0.385-2.61-1.063
			c-0.701-0.645-1.044-1.458-1.016-2.412c0.033-0.513,0.137-0.911,0.324-1.262c0.197-0.422,0.49-0.802,0.865-1.12
			c0.008-0.009,0.039-0.033,0.072-0.055c0.008-0.007,0.035-0.027,0.045-0.034c0.678-0.516,1.494-0.777,2.426-0.777l0.149,0.001
			h0.001c0.389,0,0.764,0.057,1.141,0.172c0.285,0.095,0.502,0.181,0.728,0.322c0.236,0.13,0.458,0.292,0.733,0.536
			c0.709,0.652,1.051,1.474,1.021,2.445c-0.028,0.939-0.438,1.725-1.222,2.332C-329.967,61.314-330.819,61.624-331.781,61.624z
			 M-331.803,55.337c-0.834,0-1.563,0.231-2.164,0.688c0.002,0.002-0.03,0.027-0.064,0.049c-0.36,0.302-0.615,0.632-0.791,1.007
			c-0.164,0.309-0.248,0.641-0.277,1.087c-0.025,0.826,0.262,1.507,0.879,2.074c0.629,0.603,1.409,0.92,2.323,0.944l0.116,0.001
			c0.855,0,1.615-0.275,2.256-0.817c0.682-0.529,1.035-1.203,1.06-2.007c0.027-0.851-0.261-1.54-0.876-2.108
			c-0.247-0.219-0.445-0.364-0.663-0.484c-0.198-0.124-0.391-0.199-0.64-0.282c-0.33-0.101-0.662-0.151-1.016-0.151L-331.803,55.337
			z"/>
	</g>
	<g>
		<g>
			<circle fill="#0C0101" cx="-331.706" cy="57.686" r="1.56"/>
			<path fill="#673B1D" d="M-330.511,59.099c-0.78,0.659-1.95,0.561-2.609-0.219c-0.657-0.78-0.56-1.95,0.221-2.609
				c0.779-0.658,1.948-0.56,2.608,0.22C-329.633,57.271-329.732,58.44-330.511,59.099z M-332.524,56.715
				c-0.536,0.452-0.603,1.255-0.151,1.79c0.452,0.536,1.255,0.603,1.789,0.151c0.535-0.451,0.604-1.254,0.151-1.79
				C-331.187,56.331-331.99,56.263-332.524,56.715z"/>
		</g>
		<circle fill="#FFFFFF" cx="-332.989" cy="57.947" r="0.472"/>
		<circle fill="#FFFFFF" cx="-330.411" cy="57.906" r="0.193"/>
	</g>
	<path fill="#DFF4F4" d="M-349.93,53.5c-0.677-0.027-1.273,0.162-1.787,0.596c-0.516,0.433-0.786,0.947-0.813,1.571
		c-0.026,0.623,0.19,1.165,0.677,1.625c0.461,0.461,1.057,0.705,1.734,0.732c0.704,0.027,1.327-0.19,1.842-0.623
		c0.515-0.434,0.785-0.948,0.813-1.57c0.026-0.624-0.217-1.138-0.705-1.599C-348.656,53.771-349.252,53.527-349.93,53.5
		L-349.93,53.5z"/>
	<path fill="#CCEEED" d="M-347.33,53.5c-0.244-0.216-0.459-0.379-0.704-0.514c-0.101-0.009-0.199-0.01-0.3-0.017l-0.09-0.213
		l-1.514-0.45l-2.005,0.617l-0.214,0.316l0.018-0.001c-0.031,0.007-0.063,0.011-0.094,0.019c-0.027,0.027-0.08,0.054-0.107,0.081
		c-0.353,0.298-0.624,0.65-0.813,1.057c-0.19,0.352-0.271,0.731-0.299,1.165c-0.025,0.867,0.271,1.625,0.948,2.249
		c0.649,0.623,1.463,0.975,2.466,1.001c0.975,0.027,1.814-0.271,2.519-0.867c0.731-0.568,1.11-1.3,1.136-2.167
		C-346.354,54.881-346.653,54.123-347.33,53.5z M-348.277,57.4c-0.515,0.433-1.138,0.65-1.842,0.623
		c-0.678-0.027-1.273-0.271-1.734-0.732c-0.486-0.46-0.703-1.001-0.677-1.625c0.027-0.624,0.298-1.138,0.813-1.571
		c0.514-0.434,1.11-0.623,1.787-0.596c0.678,0.027,1.273,0.271,1.76,0.731c0.488,0.46,0.731,0.975,0.705,1.599
		C-347.492,56.453-347.763,56.967-348.277,57.4z"/>
	<g>
		<path fill="#AA7D5E" d="M-349.915,59.028L-349.915,59.028l-0.13-0.002c-1.023-0.027-1.902-0.384-2.608-1.063
			c-0.702-0.645-1.044-1.457-1.015-2.412c0.032-0.512,0.135-0.911,0.324-1.261c0.195-0.421,0.488-0.802,0.863-1.119
			c0.008-0.009,0.039-0.033,0.074-0.055c0.006-0.008,0.034-0.028,0.043-0.034c0.679-0.515,1.495-0.777,2.426-0.777l0.15,0.002l0,0
			c0.391,0,0.766,0.056,1.141,0.172c0.285,0.095,0.504,0.181,0.728,0.322c0.237,0.13,0.458,0.292,0.733,0.536
			c0.709,0.652,1.052,1.474,1.021,2.445c-0.029,0.939-0.439,1.724-1.221,2.332C-348.1,58.718-348.953,59.028-349.915,59.028z
			 M-349.938,52.741c-0.834,0-1.561,0.231-2.163,0.688c0.001,0.002-0.03,0.026-0.064,0.048c-0.36,0.302-0.615,0.632-0.79,1.008
			c-0.166,0.309-0.25,0.64-0.279,1.087c-0.024,0.826,0.264,1.507,0.879,2.074c0.63,0.604,1.41,0.92,2.324,0.944l0.116,0.002
			c0.855,0,1.614-0.275,2.255-0.817c0.682-0.53,1.035-1.203,1.061-2.007c0.027-0.851-0.261-1.541-0.877-2.108
			c-0.247-0.218-0.446-0.364-0.662-0.484c-0.198-0.124-0.391-0.199-0.641-0.281c-0.33-0.102-0.662-0.152-1.014-0.152
			L-349.938,52.741z"/>
	</g>
	<g>
		<g>
			<circle fill="#0C0101" cx="-349.84" cy="55.089" r="1.56"/>
			<path fill="#673B1D" d="M-348.639,56.498c-0.777,0.662-1.947,0.568-2.609-0.208s-0.568-1.947,0.208-2.609
				c0.776-0.661,1.947-0.568,2.608,0.208C-347.77,54.667-347.862,55.836-348.639,56.498z M-350.664,54.122
				c-0.532,0.455-0.597,1.258-0.143,1.791c0.455,0.534,1.258,0.598,1.791,0.143c0.533-0.454,0.598-1.257,0.143-1.791
				C-349.326,53.732-350.131,53.668-350.664,54.122z"/>
		</g>
		<circle fill="#FFFFFF" cx="-351.122" cy="55.356" r="0.471"/>
		<circle fill="#FFFFFF" cx="-348.544" cy="55.304" r="0.194"/>
	</g>
	<g>
		<path fill="#F2B88E" d="M-327.278,108.051c-1.605,0.402-3.673,0.934-4.439,2.105c-0.765,1.172,2.204,0.74,2.854,0.107
			C-328.213,109.633-327.278,108.051-327.278,108.051z"/>
		<g>
			<path fill="#FFCB9E" d="M-327.278,108.051c-1.423,0.527-4.522,2.873-3.953,5.348c0.569,2.476,1.768,3.427,2.476,3.24
				c0.707-0.184,0.928-1.635,0.928-1.635s0.573,1.814,1.807,1.74c1.143-0.068,1.037-1.498,1.037-1.498s1.106,1.824,1.817,1.564
				c1.099-0.404,0.589-2.502,0.483-3.332c-0.133-1.035,1.75-2.306,2.862-2.119c0.47-2.066-1.124-4.683-1.521-5.478
				C-323.025,106.418-325.777,107.496-327.278,108.051z"/>
			<g>
				<path opacity="0.35" fill="#AABDBD" enable-background="new    " d="M-328.359,115.002c-0.494-1.252-1.223-2.49-0.624-3.211
					c0.278-0.334,0.95-1.311,1.728-1.914c-0.302,0.457-0.799,1.25-1.243,1.889c-0.444,0.642,0.114,2.045,0.671,3.238
					c0,0-0.221,1.451-0.928,1.635C-328.381,116.395-328.098,115.66-328.359,115.002z"/>
				<path opacity="0.35" fill="#AABDBD" enable-background="new    " d="M-325.783,116.705L-325.783,116.705
					c0.493-0.219,0.478-0.861,0.299-1.314c-0.18-0.453-0.769-2.356-0.961-2.897c-0.193-0.539,0.615-1.507,1.473-2.099
					c-0.643,0.797-1.066,1.519-0.975,1.871c0.094,0.354,0.493,1.916,0.963,2.98C-324.984,115.246-324.895,116.465-325.783,116.705z"
					/>
			</g>
		</g>
	</g>
	<path fill="#FFCB9E" d="M-357.915,84.604c0,0-10.029,9.137-9.451,17.091c0.732,10.045,10.177,11.28,10.177,11.28l1.592-3.996
		c0,0-5.446-0.758-5.386-7.201c0.045-4.816,7.983-12.059,7.983-12.059L-357.915,84.604z"/>
	<g>
		<path fill="#F2B88E" d="M-354.125,108.051c1.605,0.402,3.674,0.934,4.439,2.105c0.765,1.171-2.205,0.74-2.855,0.107
			C-353.191,109.633-354.125,108.051-354.125,108.051z"/>
		<g>
			<path fill="#FFCB9E" d="M-354.125,108.051c1.424,0.527,4.522,2.873,3.953,5.348c-0.569,2.476-1.768,3.427-2.475,3.24
				c-0.709-0.184-0.93-1.635-0.93-1.635s-0.572,1.814-1.805,1.74c-1.145-0.068-1.039-1.498-1.039-1.498s-1.105,1.824-1.816,1.564
				c-1.099-0.404-0.588-2.502-0.482-3.332c0.133-1.035-1.751-2.306-2.864-2.119c-0.469-2.066,1.126-4.683,1.523-5.478
				C-358.379,106.418-355.625,107.496-354.125,108.051z"/>
			<g>
				<path opacity="0.35" fill="#AABDBD" enable-background="new    " d="M-353.045,115.002c0.496-1.252,1.224-2.49,0.625-3.211
					c-0.279-0.334-0.951-1.311-1.728-1.914c0.302,0.457,0.8,1.25,1.243,1.889c0.444,0.642-0.113,2.045-0.672,3.238
					c0,0,0.221,1.451,0.93,1.635C-353.023,116.395-353.305,115.66-353.045,115.002z"/>
				<path opacity="0.35" fill="#AABDBD" enable-background="new    " d="M-355.621,116.705L-355.621,116.705
					c-0.492-0.219-0.477-0.861-0.297-1.314c0.18-0.453,0.768-2.356,0.961-2.897c0.191-0.539-0.616-1.507-1.475-2.099
					c0.643,0.797,1.067,1.519,0.975,1.871c-0.094,0.354-0.491,1.916-0.963,2.98C-356.42,115.246-356.509,116.465-355.621,116.705z"
					/>
			</g>
		</g>
	</g>
	<path fill="#A0BAD9" d="M-351.29,78.303l5.792,7.632c0,0-7.693,8.535-12.922,13.408c-3.698-1.119-6.883-8.534-7.463-11.822
		c6.294-1.833,7.619-5.59,10.586-7.481C-352.993,78.571-351.29,78.303-351.29,78.303z"/>
	<g>
		<path fill="#FFFFFF" d="M-397.351,127.625c9.664,0,15.873,0.115,15.796,1.893c0,1.14-6.074,1.611-15.738,1.611
			c-9.665,0-13.132-0.773-13.132-1.912S-407.016,127.625-397.351,127.625z"/>
		<path fill="#FDFDFD" d="M-397.346,127.695c9.544,0,15.758,0.131,15.686,1.828c0,1.098-6.087,1.563-15.631,1.563
			c-9.545,0-12.97-0.724-12.97-1.844C-410.262,128.121-406.891,127.695-397.346,127.695z"/>
		<path fill="#FAFBFC" d="M-397.34,127.764c9.424,0,15.641,0.148,15.574,1.764c0,1.058-6.099,1.521-15.523,1.521
			c-9.425,0-12.809-0.672-12.809-1.776C-410.098,128.166-406.765,127.764-397.34,127.764z"/>
		<path fill="#F8F9FA" d="M-397.334,127.832c9.304,0,15.526,0.166,15.463,1.701c0,1.016-6.112,1.473-15.416,1.473
			c-9.305,0-12.646-0.621-12.646-1.711S-406.639,127.832-397.334,127.832z"/>
		<path fill="#F5F7F8" d="M-397.329,127.9c9.184,0,15.41,0.184,15.352,1.639c0,0.975-6.125,1.426-15.309,1.426
			c-9.185,0-12.484-0.57-12.484-1.643C-409.77,128.248-406.514,127.9-397.329,127.9z"/>
		<path fill="#F3F4F6" d="M-397.324,127.969c9.063,0,15.294,0.201,15.242,1.574c0,0.934-6.138,1.381-15.202,1.381
			c-9.064,0-12.322-0.52-12.322-1.576C-409.606,128.292-406.388,127.969-397.324,127.969z"/>
		<path fill="#F0F2F5" d="M-397.318,128.037c8.943,0,15.179,0.219,15.131,1.512c0,0.893-6.151,1.336-15.095,1.336
			c-8.944,0-12.16-0.471-12.16-1.512S-406.262,128.037-397.318,128.037z"/>
		<path fill="#EEF0F3" d="M-397.313,128.107c8.824,0,15.063,0.233,15.02,1.447c0,0.852-6.163,1.288-14.987,1.288
			c-8.824,0-11.998-0.42-11.998-1.442C-409.278,128.375-406.137,128.107-397.313,128.107z"/>
		<path fill="#EBEEF1" d="M-397.307,128.176c8.703,0,14.947,0.252,14.909,1.383c0,0.813-6.176,1.244-14.88,1.244
			c-8.704,0-11.836-0.369-11.836-1.377S-406.011,128.176-397.307,128.176z"/>
		<path fill="#E9ECEF" d="M-397.302,128.244c8.584,0,14.832,0.27,14.799,1.32c0,0.77-6.189,1.197-14.773,1.197
			c-8.583,0-11.674-0.318-11.674-1.312S-405.885,128.244-397.302,128.244z"/>
		<path fill="#E6EAEE" d="M-397.296,128.313c8.463,0,14.716,0.287,14.687,1.258c0,0.729-6.202,1.15-14.666,1.15
			c-8.463,0-11.512-0.268-11.512-1.242C-408.787,128.502-405.76,128.313-397.296,128.313z"/>
		<path fill="#E4E8EC" d="M-397.291,128.381c8.343,0,14.601,0.307,14.577,1.193c0,0.689-6.215,1.105-14.559,1.105
			s-11.35-0.218-11.35-1.177S-405.634,128.381-397.291,128.381z"/>
		<path fill="#E1E6EA" d="M-397.286,128.449c8.223,0,14.485,0.322,14.466,1.131c0,0.648-6.229,1.061-14.451,1.061
			c-8.224,0-11.188-0.168-11.188-1.111C-408.459,128.588-405.509,128.449-397.286,128.449z"/>
		<path fill="#DFE3E8" d="M-397.28,128.518c8.104,0,14.369,0.34,14.354,1.068c0,0.605-6.241,1.014-14.344,1.014
			c-8.104,0-11.026-0.117-11.026-1.043C-408.295,128.629-405.383,128.518-397.28,128.518z"/>
		<path fill="#DCE1E7" d="M-397.275,128.588c7.983,0,14.254,0.355,14.244,1.002c0,0.566-6.254,0.969-14.237,0.969
			s-10.864-0.067-10.864-0.977C-408.131,128.672-405.258,128.588-397.275,128.588z"/>
		<path fill="#DADFE5" d="M-397.269,128.656c7.863,0,14.137,0.375,14.133,0.939c0,0.524-6.267,0.922-14.129,0.922
			c-7.862,0-10.702-0.017-10.702-0.91C-407.967,128.715-405.132,128.656-397.269,128.656z"/>
		<path fill="#D7DDE3" d="M-397.264,128.725c7.743,0,14.022,0.394,14.022,0.877c0,0.482-6.279,0.875-14.022,0.875
			c-7.743,0-10.54,0.033-10.54-0.844S-405.006,128.725-397.264,128.725z"/>
	</g>
	<g>
		<path fill="#D7DDE3" d="M-405.071,129.193c1.948,0,3.526,0.152,3.526,0.34s-1.579,0.34-3.526,0.34
			c-1.947,0-2.931-0.166-2.931-0.354C-408.002,129.331-407.018,129.193-405.071,129.193z"/>
		<path fill="#D3D9E0" d="M-405.118,129.855c-1.886,0-2.858-0.158-2.858-0.34c0-0.183,0.972-0.316,2.858-0.316
			c1.886,0,3.416,0.148,3.416,0.328C-401.702,129.709-403.231,129.855-405.118,129.855z"/>
		<path fill="#CED5DC" d="M-405.166,129.838c-1.825,0-2.784-0.152-2.784-0.326c0-0.176,0.959-0.305,2.784-0.305
			s3.306,0.143,3.306,0.316C-401.86,129.695-403.34,129.838-405.166,129.838z"/>
		<path fill="#CAD1D9" d="M-405.213,129.822c-1.763,0-2.711-0.148-2.711-0.314c0-0.168,0.948-0.293,2.711-0.293
			c1.765,0,3.195,0.135,3.195,0.303S-403.448,129.822-405.213,129.822z"/>
		<path fill="#C5CDD5" d="M-405.26,129.805c-1.702,0-2.638-0.141-2.638-0.301c0-0.162,0.936-0.283,2.638-0.283
			c1.704,0,3.085,0.131,3.085,0.293C-402.175,129.674-403.557,129.805-405.26,129.805z"/>
		<path fill="#C1C9D2" d="M-405.307,129.787c-1.642,0-2.565-0.133-2.565-0.287s0.924-0.271,2.565-0.271s2.975,0.125,2.975,0.279
			S-403.666,129.787-405.307,129.787z"/>
		<path fill="#BCC5CE" d="M-405.354,129.771c-1.581,0-2.492-0.129-2.492-0.275c0-0.148,0.911-0.262,2.492-0.262
			s2.864,0.121,2.864,0.27C-402.491,129.65-403.774,129.771-405.354,129.771z"/>
		<path fill="#B8C1CB" d="M-405.402,129.754c-1.519,0-2.419-0.123-2.419-0.264s0.9-0.248,2.419-0.248
			c1.52,0,2.753,0.115,2.753,0.256S-403.882,129.754-405.402,129.754z"/>
		<path fill="#B4BDC7" d="M-405.449,129.736c-1.458,0-2.345-0.115-2.345-0.25s0.887-0.236,2.345-0.236s2.643,0.109,2.643,0.244
			C-402.806,129.627-403.991,129.736-405.449,129.736z"/>
		<path fill="#AFB8C4" d="M-405.497,129.721c-1.397,0-2.272-0.109-2.272-0.238c0-0.127,0.875-0.225,2.272-0.225
			s2.533,0.104,2.533,0.23C-402.964,129.613-404.099,129.721-405.497,129.721z"/>
		<path fill="#ABB4C0" d="M-405.544,129.703c-1.335,0-2.199-0.104-2.199-0.225s0.864-0.215,2.199-0.215
			c1.336,0,2.422,0.1,2.422,0.221C-403.122,129.604-404.208,129.703-405.544,129.703z"/>
		<path fill="#A6B0BD" d="M-405.591,129.686c-1.274,0-2.126-0.096-2.126-0.211s0.852-0.203,2.126-0.203
			c1.275,0,2.313,0.095,2.313,0.207C-403.279,129.594-404.316,129.686-405.591,129.686z"/>
		<path fill="#A2ACB9" d="M-405.638,129.67c-1.214,0-2.053-0.092-2.053-0.199s0.839-0.193,2.053-0.193
			c1.213,0,2.201,0.089,2.201,0.197C-403.437,129.582-404.425,129.67-405.638,129.67z"/>
		<path fill="#9DA8B6" d="M-405.686,129.652c-1.152,0-1.979-0.084-1.979-0.187s0.827-0.182,1.979-0.182
			c1.153,0,2.091,0.082,2.091,0.184C-403.595,129.57-404.533,129.652-405.686,129.652z"/>
		<path fill="#99A4B2" d="M-405.733,129.635c-1.091,0-1.907-0.078-1.907-0.172c0-0.096,0.815-0.17,1.907-0.17
			c1.092,0,1.98,0.076,1.98,0.17C-403.752,129.559-404.641,129.635-405.733,129.635z"/>
		<path fill="#94A0AF" d="M-405.781,129.619c-1.03,0-1.833-0.072-1.833-0.16c0-0.09,0.803-0.16,1.833-0.16
			c1.031,0,1.871,0.072,1.871,0.16S-404.75,129.619-405.781,129.619z"/>
		<ellipse fill="#909CAB" cx="-405.828" cy="129.454" rx="1.76" ry="0.147"/>
		<ellipse fill="#8A96A5" cx="-405.868" cy="129.459" rx="1.708" ry="0.143"/>
		<ellipse fill="#848F9F" cx="-405.907" cy="129.463" rx="1.654" ry="0.139"/>
		<ellipse fill="#7E8998" cx="-405.947" cy="129.468" rx="1.604" ry="0.134"/>
		<ellipse fill="#788292" cx="-405.986" cy="129.472" rx="1.549" ry="0.13"/>
		<ellipse fill="#717C8C" cx="-406.026" cy="129.477" rx="1.498" ry="0.125"/>
		<ellipse fill="#6B7586" cx="-406.066" cy="129.481" rx="1.445" ry="0.12"/>
		<ellipse fill="#656F80" cx="-406.105" cy="129.485" rx="1.393" ry="0.116"/>
		<ellipse fill="#5F687A" cx="-406.145" cy="129.49" rx="1.34" ry="0.111"/>
		<ellipse fill="#596273" cx="-406.185" cy="129.494" rx="1.288" ry="0.107"/>
		<ellipse fill="#535B6D" cx="-406.224" cy="129.499" rx="1.235" ry="0.103"/>
		<ellipse fill="#4D5567" cx="-406.264" cy="129.503" rx="1.184" ry="0.099"/>
		<ellipse fill="#474E61" cx="-406.304" cy="129.508" rx="1.131" ry="0.094"/>
		<ellipse fill="#40485B" cx="-406.343" cy="129.513" rx="1.078" ry="0.089"/>
		<ellipse fill="#3A4154" cx="-406.383" cy="129.517" rx="1.026" ry="0.085"/>
		<ellipse fill="#343B4E" cx="-406.422" cy="129.521" rx="0.973" ry="0.08"/>
		<ellipse fill="#2E3448" cx="-406.462" cy="129.525" rx="0.921" ry="0.076"/>
	</g>
	<g>
		<path fill="#D7DDE3" d="M-395.916,129.764c1.224,0,2.215,0.152,2.215,0.34c0,0.188-0.992,0.34-2.215,0.34
			s-1.841-0.166-1.841-0.354S-397.139,129.764-395.916,129.764z"/>
		<path fill="#D3D9E0" d="M-395.909,130.439c-1.195,0-1.813-0.16-1.813-0.342c0-0.181,0.618-0.314,1.813-0.314
			c1.195,0,2.164,0.146,2.164,0.328C-393.746,130.291-394.714,130.439-395.909,130.439z"/>
		<path fill="#CED5DC" d="M-395.903,130.436c-1.166,0-1.785-0.153-1.785-0.328c0-0.176,0.619-0.305,1.785-0.305
			c1.167,0,2.113,0.143,2.113,0.316C-393.79,130.292-394.736,130.436-395.903,130.436z"/>
		<path fill="#CAD1D9" d="M-395.897,130.43c-1.137,0-1.756-0.146-1.756-0.313c0-0.17,0.619-0.295,1.756-0.295
			c1.138,0,2.061,0.137,2.061,0.305S-394.759,130.43-395.897,130.43z"/>
		<path fill="#C5CDD5" d="M-395.891,130.426c-1.109,0-1.728-0.141-1.728-0.301c0-0.162,0.619-0.283,1.728-0.283
			s2.009,0.131,2.009,0.293C-393.881,130.295-394.781,130.426-395.891,130.426z"/>
		<path fill="#C1C9D2" d="M-395.884,130.422c-1.08,0-1.7-0.135-1.7-0.289s0.62-0.271,1.7-0.271c1.081,0,1.958,0.127,1.958,0.281
			S-394.803,130.422-395.884,130.422z"/>
		<path fill="#BCC5CE" d="M-395.878,130.418c-1.052,0-1.672-0.127-1.672-0.275c0-0.147,0.62-0.26,1.672-0.26
			c1.052,0,1.906,0.119,1.906,0.268C-393.972,130.297-394.826,130.418-395.878,130.418z"/>
		<path fill="#B8C1CB" d="M-395.872,130.414c-1.023,0-1.644-0.123-1.644-0.264c0-0.142,0.621-0.248,1.644-0.248
			s1.854,0.115,1.854,0.256S-394.848,130.414-395.872,130.414z"/>
		<path fill="#B4BDC7" d="M-395.866,130.41c-0.994,0-1.616-0.117-1.616-0.252s0.622-0.236,1.616-0.236
			c0.995,0,1.804,0.109,1.804,0.244S-394.871,130.41-395.866,130.41z"/>
		<path fill="#AFB8C4" d="M-395.859,130.404c-0.967,0-1.588-0.109-1.588-0.236c0-0.129,0.622-0.227,1.588-0.227
			c0.966,0,1.752,0.104,1.752,0.231S-394.893,130.404-395.859,130.404z"/>
		<path fill="#ABB4C0" d="M-395.853,130.4c-0.938,0-1.56-0.103-1.56-0.226c0-0.12,0.622-0.215,1.56-0.215s1.701,0.099,1.701,0.222
			C-394.152,130.303-394.915,130.4-395.853,130.4z"/>
		<path fill="#A6B0BD" d="M-395.847,130.396c-0.909,0-1.532-0.099-1.532-0.211c0-0.115,0.623-0.205,1.532-0.205
			c0.909,0,1.649,0.094,1.649,0.209C-394.198,130.303-394.938,130.396-395.847,130.396z"/>
		<path fill="#A2ACB9" d="M-395.84,130.393c-0.88,0-1.503-0.092-1.503-0.199c0-0.106,0.623-0.19,1.503-0.19
			c0.881,0,1.598,0.086,1.598,0.195C-394.243,130.305-394.959,130.393-395.84,130.393z"/>
		<path fill="#9DA8B6" d="M-395.834,130.389c-0.852,0-1.475-0.086-1.475-0.186c0-0.104,0.624-0.182,1.475-0.182
			c0.853,0,1.547,0.082,1.547,0.184S-394.982,130.389-395.834,130.389z"/>
		<path fill="#99A4B2" d="M-395.828,130.383c-0.823,0-1.447-0.078-1.447-0.172c0-0.096,0.624-0.17,1.447-0.17
			c0.823,0,1.495,0.076,1.495,0.172C-394.333,130.307-395.004,130.383-395.828,130.383z"/>
		<path fill="#94A0AF" d="M-395.822,130.379c-0.794,0-1.419-0.072-1.419-0.16s0.625-0.158,1.419-0.158
			c0.795,0,1.444,0.07,1.444,0.16C-394.378,130.309-395.026,130.379-395.822,130.379z"/>
		<ellipse fill="#909CAB" cx="-395.815" cy="130.228" rx="1.392" ry="0.147"/>
		<path fill="#8A96A5" d="M-395.82,130.373c0.745,0,1.353-0.063,1.353-0.143s-0.608-0.144-1.353-0.144
			c-0.744,0-1.351,0.063-1.351,0.144S-396.563,130.373-395.82,130.373z"/>
		<ellipse fill="#848F9F" cx="-395.824" cy="130.234" rx="1.313" ry="0.139"/>
		<path fill="#7E8998" d="M-395.829,130.371c0.701,0,1.272-0.061,1.272-0.133c0-0.076-0.572-0.135-1.272-0.135
			c-0.699,0-1.271,0.059-1.271,0.135C-397.099,130.311-396.528,130.371-395.829,130.371z"/>
		<path fill="#788292" d="M-395.833,130.371c0.678,0,1.231-0.059,1.231-0.131c0-0.07-0.553-0.129-1.231-0.129
			c-0.677,0-1.23,0.059-1.23,0.129C-397.063,130.313-396.51,130.371-395.833,130.371z"/>
		<ellipse fill="#717C8C" cx="-395.836" cy="130.244" rx="1.191" ry="0.125"/>
		<ellipse fill="#6B7586" cx="-395.841" cy="130.247" rx="1.151" ry="0.12"/>
		<ellipse fill="#656F80" cx="-395.845" cy="130.251" rx="1.111" ry="0.116"/>
		<ellipse fill="#5F687A" cx="-395.849" cy="130.254" rx="1.071" ry="0.111"/>
		<ellipse fill="#596273" cx="-395.854" cy="130.257" rx="1.031" ry="0.106"/>
		<ellipse fill="#535B6D" cx="-395.858" cy="130.261" rx="0.991" ry="0.103"/>
		<ellipse fill="#4D5567" cx="-395.862" cy="130.263" rx="0.951" ry="0.099"/>
		<ellipse fill="#474E61" cx="-395.866" cy="130.266" rx="0.911" ry="0.094"/>
		<ellipse fill="#40485B" cx="-395.871" cy="130.27" rx="0.87" ry="0.09"/>
		<ellipse fill="#3A4154" cx="-395.875" cy="130.272" rx="0.831" ry="0.085"/>
		<ellipse fill="#343B4E" cx="-395.879" cy="130.276" rx="0.79" ry="0.081"/>
		<ellipse fill="#2E3448" cx="-395.883" cy="130.279" rx="0.75" ry="0.076"/>
	</g>
	
		<linearGradient id="SVGID_17_" gradientUnits="userSpaceOnUse" x1="-84.9028" y1="-92.7026" x2="-84.9028" y2="-95.2722" gradientTransform="matrix(1 0 0 -1 -310.96 -34.6602)">
		<stop  offset="0" style="stop-color:#445052"/>
		<stop  offset="0.74" style="stop-color:#4A5557"/>
		<stop  offset="0.82" style="stop-color:#353F42"/>
		<stop  offset="1" style="stop-color:#1B1F1C"/>
	</linearGradient>
	<rect x="-396.575" y="57.299" fill="url(#SVGID_17_)" width="1.424" height="14.877"/>
	
		<linearGradient id="SVGID_18_" gradientUnits="userSpaceOnUse" x1="-79.0698" y1="-164.2539" x2="-79.0698" y2="-158.608" gradientTransform="matrix(1 0 0 -1 -310.96 -34.6602)">
		<stop  offset="0" style="stop-color:#364043"/>
		<stop  offset="1" style="stop-color:#1B1F1C"/>
	</linearGradient>
	<polygon fill="url(#SVGID_18_)" points="-394.919,122.852 -384.058,127.58 -384.062,127.586 -384.048,127.586 -384.048,129.611 
		-386.023,129.611 -386.023,128.279 -396.011,123.932 	"/>
	
		<linearGradient id="SVGID_19_" gradientUnits="userSpaceOnUse" x1="-90.7397" y1="-164.2539" x2="-90.7397" y2="-158.608" gradientTransform="matrix(1 0 0 -1 -310.96 -34.6602)">
		<stop  offset="0" style="stop-color:#364043"/>
		<stop  offset="1" style="stop-color:#1B1F1C"/>
	</linearGradient>
	<polygon fill="url(#SVGID_19_)" points="-396.821,122.852 -407.657,127.58 -407.652,127.586 -407.666,127.586 -407.666,129.611 
		-405.696,129.611 -405.696,128.279 -395.732,123.932 	"/>
	
		<linearGradient id="SVGID_20_" gradientUnits="userSpaceOnUse" x1="-84.9038" y1="-155.5151" x2="-84.9038" y2="-146.6644" gradientTransform="matrix(1 0 0 -1 -310.96 -34.6602)">
		<stop  offset="0" style="stop-color:#445052"/>
		<stop  offset="0.74" style="stop-color:#5D686B"/>
		<stop  offset="0.82" style="stop-color:#353F42"/>
		<stop  offset="1" style="stop-color:#1B1F1C"/>
	</linearGradient>
	<rect x="-396.856" y="72.176" fill="url(#SVGID_20_)" width="1.986" height="51.242"/>
	<rect x="-396.575" y="72.176" fill="#242D3D" width="1.424" height="51.242"/>
	
		<linearGradient id="SVGID_21_" gradientUnits="userSpaceOnUse" x1="-84.9028" y1="-98.4131" x2="-84.9028" y2="-97.0179" gradientTransform="matrix(1 0 0 -1 -310.96 -34.6602)">
		<stop  offset="0" style="stop-color:#C9CACF"/>
		<stop  offset="0.49" style="stop-color:#B0AEB1"/>
		<stop  offset="1" style="stop-color:#626565"/>
	</linearGradient>
	<rect x="-417.834" y="61.25" fill="url(#SVGID_21_)" width="43.943" height="36.687"/>
	
		<radialGradient id="SVGID_22_" cx="-84.9023" cy="-114.8521" r="25.4942" gradientTransform="matrix(1 0 0 -1 -310.96 -34.6602)" gradientUnits="userSpaceOnUse">
		<stop  offset="0" style="stop-color:#FFFFFF"/>
		<stop  offset="0.38" style="stop-color:#FAF9FB"/>
		<stop  offset="0.68" style="stop-color:#E5E4E9"/>
		<stop  offset="1" style="stop-color:#C9CACF"/>
	</radialGradient>
	<rect x="-417.421" y="63.463" fill="url(#SVGID_22_)" width="43.117" height="34.14"/>
	<rect x="-418.315" y="59.48" fill="#242D3D" width="44.904" height="3.001"/>
	<rect x="-418.315" y="97.434" fill="#242D3D" width="44.904" height="1.5"/>
	
		<linearGradient id="SVGID_23_" gradientUnits="userSpaceOnUse" x1="-84.9136" y1="-162.8779" x2="-84.9136" y2="-155.1391" gradientTransform="matrix(1 0 0 -1 -310.96 -34.6602)">
		<stop  offset="0" style="stop-color:#384345"/>
		<stop  offset="1" style="stop-color:#1B1F1C"/>
	</linearGradient>
	<rect x="-396.843" y="122.852" fill="url(#SVGID_23_)" width="1.94" height="5.703"/>
	
		<linearGradient id="SVGID_24_" gradientUnits="userSpaceOnUse" x1="-85.8833" y1="-163.8794" x2="-85.8833" y2="-130.2345" gradientTransform="matrix(1 0 0 -1 -310.96 -34.6602)">
		<stop  offset="0" style="stop-color:#3C4749"/>
		<stop  offset="1" style="stop-color:#FFFFFF"/>
	</linearGradient>
	<path fill="url(#SVGID_24_)" d="M-396.795,130.223c0,0.039-0.022,0.07-0.048,0.07c-0.026,0-0.048-0.031-0.048-0.07v-7.371
		c0-0.039,0.022-0.072,0.048-0.072c0.026,0,0.048,0.033,0.048,0.072V130.223z"/>
	
		<linearGradient id="SVGID_25_" gradientUnits="userSpaceOnUse" x1="-83.9272" y1="-163.8794" x2="-83.9272" y2="-130.2345" gradientTransform="matrix(1 0 0 -1 -310.96 -34.6602)">
		<stop  offset="0" style="stop-color:#3C4749"/>
		<stop  offset="1" style="stop-color:#FFFFFF"/>
	</linearGradient>
	<path fill="url(#SVGID_25_)" d="M-394.839,130.223c0,0.039-0.021,0.07-0.048,0.07c-0.026,0-0.048-0.031-0.048-0.07v-7.371
		c0-0.039,0.022-0.072,0.048-0.072c0.027,0,0.048,0.033,0.048,0.072V130.223z"/>
	<rect x="-396.892" y="128.555" fill="#242D3D" width="2.047" height="1.791"/>
	
		<linearGradient id="SVGID_26_" gradientUnits="userSpaceOnUse" x1="-91.2681" y1="-163.6172" x2="-91.2681" y2="-132.1805" gradientTransform="matrix(1 0 0 -1 -310.96 -34.6602)">
		<stop  offset="0" style="stop-color:#3C4749"/>
		<stop  offset="1" style="stop-color:#FFFFFF"/>
	</linearGradient>
	<path fill="url(#SVGID_26_)" d="M-407.565,129.539c0,0.039-0.022,0.072-0.048,0.072c-0.027,0-0.048-0.033-0.048-0.072v-1.961
		c0-0.035,0.016-0.064,0.037-0.07l10.769-4.727c0.025-0.012,0.051,0.012,0.06,0.049c0.007,0.039-0.008,0.078-0.033,0.09
		l-10.736,4.711L-407.565,129.539L-407.565,129.539z"/>
	
		<linearGradient id="SVGID_27_" gradientUnits="userSpaceOnUse" x1="-78.542" y1="-163.6172" x2="-78.542" y2="-132.1805" gradientTransform="matrix(1 0 0 -1 -310.96 -34.6602)">
		<stop  offset="0" style="stop-color:#3C4749"/>
		<stop  offset="1" style="stop-color:#FFFFFF"/>
	</linearGradient>
	<path fill="url(#SVGID_27_)" d="M-384.164,129.539c0,0.039,0.021,0.072,0.048,0.072c0.027,0,0.048-0.033,0.048-0.072v-1.961
		c0-0.035-0.015-0.064-0.037-0.07l-10.768-4.727c-0.026-0.012-0.052,0.012-0.06,0.049c-0.008,0.039,0.007,0.078,0.033,0.09
		l10.736,4.711V129.539z"/>
	
		<linearGradient id="SVGID_28_" gradientUnits="userSpaceOnUse" x1="-84.9355" y1="-162.7354" x2="-84.8935" y2="-163.5381" gradientTransform="matrix(1 0 0 -1 -310.96 -34.6602)">
		<stop  offset="0" style="stop-color:#3C4749"/>
		<stop  offset="1" style="stop-color:#FFFFFF"/>
	</linearGradient>
	<rect x="-396.892" y="128.555" fill="url(#SVGID_28_)" width="2.047" height="0.066"/>
	<rect x="-396.575" y="57.299" fill="#242D3D" width="1.424" height="0.172"/>
	<rect x="-398.591" y="79.914" fill="#F6A71B" width="5.6" height="10.255"/>
	<rect x="-408.234" y="84.842" fill="#FFD300" width="5.601" height="5.327"/>
	<rect x="-388.896" y="73.189" fill="#EA5F0A" width="5.6" height="16.979"/>
	<path fill="#EA5F0A" d="M-396.482,76.771c-2.509,3.409-7.239,4.459-10.99,2.293c-0.274-0.156-0.534-0.328-0.781-0.511
		c-0.158-0.114-0.216-0.311-0.149-0.492c0.066-0.182,0.238-0.293,0.431-0.282c2.771,0.183,5.541-1.014,7.283-3.323
		c0.074-0.102,0.102-0.218,0.076-0.344c-0.024-0.125-0.095-0.222-0.206-0.286l-1.104-0.637c-0.152-0.089-0.233-0.253-0.21-0.428
		c0.022-0.176,0.142-0.313,0.314-0.359l5.561-1.489c0.229-0.061,0.463,0.076,0.525,0.303l1.49,5.562
		c0.046,0.172-0.013,0.345-0.155,0.453c-0.14,0.106-0.321,0.118-0.475,0.03l-1.05-0.606
		C-396.112,76.543-396.352,76.593-396.482,76.771z"/>
</g>
<path fill="#453D3B" d="M107.602,156.84c-2.96,2.303,11.509,1.645,17.756,0.328c6.25-1.32,3.949-8.549,3.949-8.549h-6.253
	C123.054,148.619,110.56,154.539,107.602,156.84z"/>
<path fill="#453D3B" d="M140.215,148.288c-2.301,7.894,1.646,8.88,1.646,8.88s6.902,1.975,14.797,1.641
	c7.893-0.324-11.182-10.521-11.182-10.521H140.215L140.215,148.288z"/>
<path fill="#352E2B" d="M107.602,156.84c0.438-0.343,1.099-0.767,1.883-1.24c3.868,0.399,11.7-0.189,15.873-1.061
	c2.934-0.624,3.978-2.542,4.263-4.411c0.299,2.19,0.176,6.101-4.263,7.04C119.111,158.482,104.642,159.143,107.602,156.84z"/>
<path fill="#352E2B" d="M141.861,154.539c0,0,6.902,1.973,14.797,1.643c0.301-0.014,0.547-0.049,0.771-0.084
	c1.508,1.484,1.77,2.605-0.771,2.711c-7.895,0.334-14.797-1.641-14.797-1.641s-2.879-0.736-2.271-5.895
	C140.029,154.074,141.861,154.539,141.861,154.539z"/>
<path fill="#FFCB9E" d="M187.863,69.95c-1.227-1.374-3.576-1.214-5.426,0.084c-2.113,1.485-4.808,2.558-5.705,5.193
	c-0.779,2.285-0.375,4.887,2.207,5.584c3.428,0.925,9.631-4.711,9.744-8.096C188.727,71.469,188.404,70.558,187.863,69.95z"/>
<path fill="#242D3D" d="M141.303,82.409c0,0,12.186,15.935,25.242,15.667c16.973-0.347,18.189-18.711,18.189-18.711l-8.258-0.145
	c0,0-0.465,8.744-7.861,9.708C161.215,89.893,156.986,78,156.986,78l-7.389-3.654L141.303,82.409z"/>
<path fill="#A0BAD9" d="M121.129,75.138c-5.347,4.491-6.828,9.88,1.2,17.75c8.028,7.871,13.694,8.815,13.694,8.815
	s17.637-16.865,14.492-24.509C146.715,67.946,126.475,70.647,121.129,75.138z"/>
<path fill="#C72E2E" d="M134.48,81.755c3.938-0.741,5.289,2.357,5.289,2.357l-1.75,3.68l3.989,10.712l-4.979,10.879l-6.82-10.38
	l3.145-10.615l-2.905-2.944C130.45,85.443,130.961,82.416,134.48,81.755z"/>
<radialGradient id="SVGID_29_" cx="-364.8569" cy="-48921.3984" r="52.461" gradientTransform="matrix(1.12 0 0 -0.1377 541.0322 -6578.1133)" gradientUnits="userSpaceOnUse">
	<stop  offset="0" style="stop-color:#000000"/>
	<stop  offset="0.0146" style="stop-color:#050505"/>
	<stop  offset="0.2607" style="stop-color:#5D5D5D"/>
	<stop  offset="0.4774" style="stop-color:#A2A2A2"/>
	<stop  offset="0.6568" style="stop-color:#D4D4D4"/>
	<stop  offset="0.7921" style="stop-color:#F3F3F3"/>
	<stop  offset="0.8676" style="stop-color:#FFFFFF"/>
</radialGradient>
<ellipse opacity="0.2" fill="url(#SVGID_29_)" enable-background="new    " cx="132.393" cy="158.363" rx="60.615" ry="6.246"/>
<path fill="#242D3D" d="M119.158,108.924c-0.186,5.1-0.314,10.203-0.473,15.305c-0.238,7.635,1.021,17.992-1.472,25.283
	c1.106,0.53,2.218,1.031,3.355,1.45c4.342,1.603,8.836,0.033,13.273-0.741c-1.364-13.162,1.722-26.6,1.908-39.744
	C135.795,107.396,119.317,104.491,119.158,108.924z"/>
<path fill="#242D3D" d="M135.326,112.85c1.031,6.862,0.559,14.158,0.623,21.08c0.047,4.916-0.154,11.26-0.463,16.172
	c1.553,0.641,6.297,1.435,7.455,1.426c3.293-0.023,7.717-1.193,9.711-2.356c-1.496-5.055-2.654-14.435-3.146-22.073
	c-0.36-5.594,1.365-13.043-0.211-18.47C148.135,104.627,134.303,106.039,135.326,112.85z"/>
<path fill="#212126" d="M134.268,128.38c0.326-1.497,1.545-1.588,1.713,0c0.166,1.589,8.021,0.167,6.142-5.976
	c-1.879-6.141-5.892-8.189-10.11-6.978c-4.22,1.212-2.047,11.113-0.459,12.326C133.139,128.965,133.975,129.717,134.268,128.38z"/>
<path fill="#19191F" d="M118.67,122.592v5.396c0,0,6.405-0.979,15.539,1.424c0,0,0.178-1.127,0.297-1.602
	c0.119-0.476,1.334-0.623,1.363,0.236c0.031,0.86,0.061,1.307,0.061,1.307s4.834-3.945,13.58-1.572l-0.027-5.367l-14.412-4.271
	L118.67,122.592z"/>
<g>
	<path fill="#242D3D" d="M154.648,97.533c1.358-7.322,5.192-13.935-0.512-19.994c-1.203-1.276-2.755-2.322-4.517-3.165
		c0.252,0.581,0.328,1.185,0.272,1.791c-1.09,11.744-13.596,23.734-13.596,23.734s-18.411-15.895-15.323-23.839
		c0.259-0.663,0.581-1.271,0.974-1.827c-4.253,1.814-8.332,4.61-9.417,8.503c-1.235,4.437,1.932,13.927,2.645,20.226
		c0.458,4.042,0.722,15.935-0.235,20.022c2.819,1.275,15.177,3.318,18.081,1.724c2.375-1.306,3.633-4.075,3.793-4.784
		c0.076,7.527,17.987,4.26,17.856,3.637C153.781,119.35,153.338,104.591,154.648,97.533z"/>
</g>
<path fill="#19191F" d="M117.397,118.281c-0.554,0.46-1.317,0.785-1.918,1.18c0.177-1.932,0.583-4.469,1.046-6.227
	c0.351-1.326,2.521-3.41,3.392-1.594C120.816,113.518,118.815,117.104,117.397,118.281z"/>
<path fill="#19191F" d="M136.545,102.706c0,0-1.27,3.329,0.334,9.123C136.879,111.829,136.609,107.423,136.545,102.706z"/>
<g>
	<path fill="#F2B88E" d="M114.697,109.456c1.639,0.409,3.751,0.954,4.532,2.149c0.781,1.196-2.25,0.756-2.914,0.108
		C115.651,111.072,114.697,109.456,114.697,109.456z"/>
	<g>
		<path fill="#FFCB9E" d="M114.697,109.456c1.453,0.538,4.618,2.933,4.036,5.459c-0.581,2.526-1.805,3.499-2.527,3.31
			c-0.723-0.188-0.948-1.67-0.948-1.67s-0.585,1.854-1.844,1.777c-1.167-0.07-1.06-1.529-1.06-1.529s-1.129,1.862-1.854,1.596
			c-1.122-0.412-0.602-2.553-0.493-3.399c0.136-1.058-1.111-1.646-2.248-1.458c-0.479-2.109,0.473-5.484,0.879-6.298
			C110.355,107.789,113.165,108.891,114.697,109.456z"/>
		<g>
			<path opacity="0.35" fill="#AABDBD" enable-background="new    " d="M115.8,116.553c0.505-1.277,1.248-2.543,0.638-3.277
				c-0.285-0.342-0.971-1.338-1.765-1.955c0.308,0.468,0.816,1.275,1.271,1.931c0.453,0.651-0.117,2.086-0.687,3.304
				c0,0,0.226,1.483,0.948,1.672C115.822,117.975,115.534,117.225,115.8,116.553z"/>
			<path opacity="0.35" fill="#AABDBD" enable-background="new    " d="M113.169,118.293L113.169,118.293
				c-0.503-0.225-0.486-0.881-0.304-1.344c0.182-0.463,0.784-2.406,0.981-2.957c0.196-0.551-0.629-1.539-1.505-2.145
				c0.656,0.813,1.089,1.549,0.995,1.911c-0.096,0.361-0.502,1.955-0.983,3.043C112.354,116.803,112.263,118.047,113.169,118.293z"
				/>
		</g>
	</g>
</g>
<path fill="#242D3D" d="M121.057,74.684c0,0-8.81,4.625-10.445,5.438c-6.222,3.092-15.259,8.69-15.186,18.199
	c0.094,12.009,13.17,16.662,13.17,16.662l3.826-7.655c0,0-7.32-1.606-6.751-9.27c0.426-5.726,12.118-8.907,12.118-8.907
	L121.057,74.684z"/>
<circle fill="#19191F" cx="135.333" cy="112.834" r="1.12"/>
<circle fill="#19191F" cx="134.802" cy="101.857" r="1.12"/>
<path fill="#19191F" d="M136.805,120.137l0.312-6.371c0,0-0.201,7.537,0.928,9.369C138.043,123.135,137.076,122.932,136.805,120.137
	z"/>
<path opacity="0.25" fill="#4A627D" enable-background="new    " d="M148.016,72.909c0,0,7.297,4.631,10.248,10.196l-7.133,2.457
	c0,0,3.959,5.791,4.154,6.71c0.1,0.481-6.137,1.603-10.672,4.248c-4.143,2.417-7.873,5.199-7.873,5.199s-0.727-0.871-0.242-1.887
	C136.98,98.815,149.604,87.48,148.016,72.909z"/>
<path fill="#242D3D" d="M148.016,72.909c0,0,5.711,3.451,8.662,9.017l-6.193,3.484c0,0,3.349,4.744,3.541,5.663
	c0.103,0.48-5.17,2.342-9.705,4.987c-4.143,2.417-7.579,5.658-7.579,5.658s-0.728-0.871-0.242-1.887
	C136.98,98.815,149.604,87.48,148.016,72.909z"/>
<path opacity="0.25" fill="#4A627D" enable-background="new    " d="M122.258,74.014c0,0-7.98,4.293-10.387,10.385l7.964,1.729
	c0,0-3.218,7.166-3.322,8.146c-0.064,0.603,6.481-0.523,13.425,3.049c3.718,1.914,6.294,4.308,6.294,4.308s0.639-0.977,0.061-1.996
	C135.713,98.616,122.258,89.759,122.258,74.014z"/>
<path fill="#242D3D" d="M122.258,74.014c0,0-6.266,2.947-8.673,9.039l7.398,2.77c0,0-3.183,6.091-3.287,7.07
	c-0.064,0.605,5.527,0.405,12.47,3.977c3.718,1.914,6.066,4.761,6.066,4.761s0.639-0.977,0.061-1.996
	C135.713,98.616,122.258,89.759,122.258,74.014z"/>
<path opacity="0.2" fill="#A09D98" enable-background="new    " d="M148.744,78.496c0,0-1.602,5.003-7.34,10.081l-6.004-5.084
	l-5.639,5.374c0,0-4.949-3.008-6.854-9.042c-1.904-6.035,14.987-5.49,19.147-3.31C146.214,78.695,148.744,78.496,148.744,78.496z"/>
<path fill="#A0BAD9" d="M135.441,83.493l-5.662,3.555c0,0-11.191-5.807-6.954-14.138c3.811-7.492,22.808-6.888,26.054,1.405
	c2.797,7.145-7.379,12.962-7.379,12.962L135.441,83.493z"/>
<path fill="#F2B88E" d="M143.26,77.562c-1.105,1.1-2.912,2.183-4.783,2.755c-1.33,0.407-3.664,1.972-4.076,1.98
	c-0.168,0.003-0.938-0.67-2.194-1.317c-1.837-0.948-4.443-2.201-5.455-4.184c-1.481-2.901-2.806-8.646-0.003-10.901
	c2.901-2.334,8.559-2.708,12.021-1.948c3.615,0.794,6.017,4.228,6.267,7.766C145.229,74.452,144.789,76.041,143.26,77.562z"/>
<linearGradient id="SVGID_30_" gradientUnits="userSpaceOnUse" x1="467.9189" y1="-91.8564" x2="516.7783" y2="-91.8564" gradientTransform="matrix(1 0 0 -1 -310.96 -34.6602)">
	<stop  offset="0" style="stop-color:#CCCCCC"/>
	<stop  offset="0.5001" style="stop-color:#DBDBDB"/>
	<stop  offset="1" style="stop-color:#EEEEEE"/>
</linearGradient>
<path fill="url(#SVGID_30_)" d="M202.955,73.958c1.576,0,2.863-1.288,2.863-2.862V43.298c0-1.574-1.287-2.863-2.863-2.863h-43.133
	c-1.576,0-2.863,1.289-2.863,2.863v27.798c0,1.574,1.287,2.862,2.861,2.862H202.955z"/>
<path fill="#2B2521" d="M151.326,45.775c0.658-1.187,0.385-12.372,1.752-11.163c5.209,4.607,0.951,12.676,3.945,18.434
	c0.391,0.751-2.752,0.691-3.019,0.619C150.77,52.782,149.807,48.513,151.326,45.775z"/>
<path fill="#2B2521" d="M150.867,44.365c2.291-0.929,4.971-1.647,2.195-11.455c-3.023-10.677-16.888-15.714-27.592-12.216
	c-25.928,8.472-17.301,38.368-9.704,36.081C123.364,54.488,148.574,45.293,150.867,44.365z"/>
<path fill="#FFCB9E" d="M113.167,56.514c2.443,12.417,13.616,21.328,24.957,19.902c11.338-1.425,18.551-12.648,16.106-25.065
	c-2.442-12.417-13.614-21.328-24.956-19.902C117.935,32.874,110.723,44.097,113.167,56.514z"/>
<path fill="#FFCB9E" d="M111.816,62.04c1.51,0.31,3.086,0.211,4.592-0.037c0.027-0.043,0.054-0.086,0.082-0.131
	c0.616-1.003-0.902-5.657-1.311-6.606c-1.029-2.393-2.57-4.002-5.239-3.073C104.378,54.129,107.11,61.074,111.816,62.04z"/>
<path fill="#2B2521" d="M120.872,28.205c-7.354,4.171-10.543,17.152-8.97,24.548c0.896,4.21,8.393,6.999,7.538,4.734
	c-3.458-9.161-1.475-16.052,8.985-19.999c8.341-3.147,18.642-3.355,21.438-1.914c2.795,1.442-0.672-5.198-8.691-8.787
	C133.152,23.199,126.511,25.005,120.872,28.205z"/>
<path opacity="0.6" fill="#D9AF96" enable-background="new    " d="M114.611,60.31c2.554-1.079,0.409-5.034-1.434-5.722
	c-1.512-0.565-5.402,0.258-3.717,2.517c1.064-2.016,2.689-0.626,2.352,0.817c-0.228,0.97-1.656,0.94-0.305,2.233
	C112.238,60.854,113.806,60.649,114.611,60.31z"/>
<path fill="#2B2521" d="M155.051,33.925c-7.01,6.76-22.045,1.359-29.68,7.365c-0.119-1.108,0.133-2.253,0.52-3.232
	c-0.236,0.598-3.983,2.36-4.748,2.337c-2.043-0.061-3.317-2.232-4.037-3.783c-2.182-4.704-2.015-9.525,2.045-12.635
	c5.627-4.31,12.977-5.199,19.985-4.25C151.391,21.388,158.355,30.737,155.051,33.925z"/>
<path fill="#2B2521" d="M108.909,26.271c2.862,6.218,10.888,3.661,14.254,1.121c1.592-1.202,3.029-6.944,0.215-5.989
	c-3.818,1.298-7.951,2.675-11.392,1.145c0.098,0.706,0.186,2.586,1.95,3.263C113.064,26.733,111.001,27.072,108.909,26.271z"/>
<path fill="#2B2521" d="M149.078,40.109c1.432-0.245,1.787-1.017,0.285-1.468c-0.861-0.258-1.881-0.142-2.762-0.056
	c-0.539,0.052-2.627-0.018-2.976,0.474C142.322,40.902,148.533,40.202,149.078,40.109z"/>
<path fill="#2B2521" d="M124.51,44.074c-1.428,0.271-2.03-0.328-0.781-1.276c0.717-0.543,1.713-0.791,2.568-1.018
	c0.524-0.14,2.454-0.936,2.954-0.596C131.117,42.453,125.052,43.971,124.51,44.074z"/>
<path fill="#3B322D" d="M150.574,34.887c6.287-2.539,2.145-7.772-1.197-10.116c-5.104-3.576-12.078-4.229-18.299-3.687
	c-5.001,0.436-13.215,2.666-14.865,8.19c-1.123,3.764,2.78,5.588,5.904,6.182c2.228,0.423,4.54,0.298,6.774-0.006
	c-0.509,0.763-0.925,1.606-1.393,2.348C134.883,36.379,143.543,37.729,150.574,34.887z"/>
<path opacity="0.35" fill="#B55623" enable-background="new    " d="M136.09,54.435c-0.785,0.633,0.441,3.284,3.621,3.738
	c3.193,0.457,5.207-2.028,4.045-2.82c-1.164-0.793-2-0.159-3.809-0.379C137.938,54.729,136.998,53.7,136.09,54.435z"/>
<path fill="#232329" d="M202.199,73.369c1.518,0,2.762-1.242,2.762-2.761V43.786c0-1.519-1.244-2.762-2.762-2.762H160.58
	c-1.52,0-2.764,1.244-2.764,2.762v26.822c0,1.519,1.244,2.761,2.762,2.761H202.199z"/>
<linearGradient id="SVGID_31_" gradientUnits="userSpaceOnUse" x1="473.3799" y1="-91.8564" x2="511.7373" y2="-91.8564" gradientTransform="matrix(1 0 0 -1 -310.96 -34.6602)">
	<stop  offset="0" style="stop-color:#5FCEFF"/>
	<stop  offset="1" style="stop-color:#0082DF"/>
</linearGradient>
<path fill="url(#SVGID_31_)" d="M198.455,71.234c1.277,0,2.322-1.044,2.322-2.321V45.48c0-1.276-1.045-2.321-2.322-2.321h-33.713
	c-1.277,0-2.322,1.045-2.322,2.321v23.433c0,1.277,1.045,2.321,2.322,2.321H198.455z"/>
<g>
	<g>
		<path fill="#FFFFFF" d="M181.6,65.817c-4.967,0-9.006-4.039-9.006-9.003c0-4.965,4.039-9.004,9.006-9.004
			c4.963,0,9.002,4.04,9.002,9.004S186.563,65.817,181.6,65.817L181.6,65.817z M181.6,49.174c-4.213,0-7.641,3.427-7.641,7.639
			s3.428,7.638,7.641,7.638c4.211,0,7.64-3.426,7.64-7.638C189.238,52.601,185.811,49.174,181.6,49.174L181.6,49.174z"/>
	</g>
	<path fill="#FFFFFF" d="M181.6,65.589c-1.42,0-2.733-0.947-3.701-2.669c-0.92-1.639-1.426-3.808-1.426-6.106
		c0-2.3,0.506-4.469,1.426-6.107c0.968-1.722,2.281-2.669,3.701-2.669c1.418,0,2.732,0.948,3.699,2.669
		c0.92,1.639,1.426,3.808,1.426,6.107s-0.506,4.468-1.426,6.106C184.332,64.642,183.018,65.589,181.6,65.589L181.6,65.589z
		 M181.6,48.947c-1.076,0-2.108,0.783-2.908,2.206c-0.844,1.504-1.309,3.515-1.309,5.661s0.465,4.156,1.309,5.661
		c0.8,1.422,1.832,2.205,2.908,2.205c1.074,0,2.107-0.783,2.904-2.205c0.846-1.504,1.311-3.515,1.311-5.661
		s-0.465-4.157-1.311-5.661C183.707,49.73,182.674,48.947,181.6,48.947L181.6,48.947z"/>
	<path fill="#FFFFFF" d="M181.6,65.589c-0.705,0-1.18-0.866-1.541-2.808c-0.295-1.599-0.459-3.718-0.459-5.967
		c0-2.25,0.164-4.369,0.459-5.968c0.361-1.943,0.836-2.809,1.541-2.809c0.703,0,1.178,0.866,1.539,2.809
		c0.295,1.599,0.459,3.717,0.459,5.968c0,2.25-0.164,4.369-0.459,5.967C182.777,64.723,182.303,65.589,181.6,65.589L181.6,65.589z
		 M181.6,48.998c-0.127,0.162-0.43,0.699-0.701,2.331c-0.25,1.504-0.389,3.453-0.389,5.485c0,2.032,0.139,3.98,0.389,5.484
		c0.271,1.632,0.574,2.169,0.701,2.331c0.125-0.162,0.428-0.699,0.699-2.331c0.25-1.504,0.389-3.452,0.389-5.484
		c0-2.032-0.139-3.98-0.389-5.485C182.027,49.697,181.725,49.16,181.6,48.998L181.6,48.998z"/>
	<g>
		<path fill="#FFFFFF" d="M188.117,52.097H175.08c-0.25,0-0.455-0.204-0.455-0.455s0.205-0.455,0.455-0.455h13.037
			c0.252,0,0.455,0.204,0.455,0.455S188.369,52.097,188.117,52.097L188.117,52.097z"/>
		<path fill="#FFFFFF" d="M189.92,57.268h-16.643c-0.252,0-0.455-0.204-0.455-0.455c0-0.252,0.203-0.456,0.455-0.456h16.643
			c0.25,0,0.455,0.204,0.455,0.456C190.375,57.064,190.17,57.268,189.92,57.268L189.92,57.268z"/>
		<path fill="#FFFFFF" d="M188.117,62.439H175.08c-0.25,0-0.455-0.203-0.455-0.455c0-0.251,0.205-0.455,0.455-0.455h13.037
			c0.252,0,0.455,0.204,0.455,0.455C188.572,62.236,188.369,62.439,188.117,62.439L188.117,62.439z"/>
	</g>
</g>
<path fill="#FFCB9E" d="M176.949,70.073c1.973,0.849,2.848,4.04,2.301,5.971c-0.297,1.05-1.051,2.081-2.219,1.503
	c-1.441-0.712-0.893-3.045-1.549-4.151c-0.412-0.69-1.906-1.996-1.74-2.862C174.002,69.164,176.008,69.668,176.949,70.073z"/>
<g>
	
		<linearGradient id="SVGID_32_" gradientUnits="userSpaceOnUse" x1="280.3662" y1="3927.2881" x2="280.3662" y2="3924.9939" gradientTransform="matrix(-0.0062 1 1 0.0062 -3721.4626 -247.1201)">
		<stop  offset="0" style="stop-color:#171919"/>
		<stop  offset="1" style="stop-color:#727272"/>
	</linearGradient>
	<path fill="url(#SVGID_32_)" d="M201.746,57.591c0.006-0.821,0.078-1.073,0.34-1.171c0.059-0.023,0.148-0.057,0.822-0.051
		c0.658,0.005,0.752,0.038,0.799,0.053c0.273,0.093,0.297,0.383,0.311,0.575c0.017,0.183,0.019,0.398,0.017,0.546
		c-0.002,0.219-0.011,0.441-0.022,0.609c-0.021,0.238-0.044,0.507-0.298,0.607c-0.063,0.026-0.133,0.052-0.813,0.046
		c-0.428-0.003-0.688-0.016-0.777-0.037c-0.309-0.073-0.338-0.401-0.355-0.596C201.752,58.017,201.746,57.81,201.746,57.591
		L201.746,57.591z"/>
	
		<linearGradient id="SVGID_33_" gradientUnits="userSpaceOnUse" x1="280.3662" y1="3926.6797" x2="280.3662" y2="3925.5105" gradientTransform="matrix(-0.0062 1 1 0.0062 -3721.4626 -247.1201)">
		<stop  offset="0" style="stop-color:#C9C9C9"/>
		<stop  offset="1" style="stop-color:#969696"/>
	</linearGradient>
	<path fill="url(#SVGID_33_)" d="M202.324,58.263c-0.096-0.022-0.088-1.314,0.008-1.35s1.049-0.024,1.137,0.005
		s0.064,1.321-0.01,1.351C203.387,58.297,202.418,58.285,202.324,58.263z"/>
</g>
<path fill="#9E2626" d="M133.982,62.043c-0.467,0.164-0.172,0.217-0.047,0.431c3.114,3.729,11.502,3.193,14.94-1.567
	c-1.021-0.164-1.799-0.331-2.601,0.014C141.873,62.824,137.139,62.594,133.982,62.043z"/>
<path fill="#DFF4F4" d="M128.796,47.625c0.691-0.027,1.3,0.166,1.825,0.608c0.525,0.442,0.803,0.968,0.83,1.604
	c0.027,0.636-0.193,1.189-0.691,1.659c-0.47,0.471-1.079,0.719-1.77,0.748c-0.719,0.027-1.355-0.194-1.881-0.636
	c-0.525-0.443-0.802-0.968-0.83-1.604c-0.026-0.637,0.222-1.162,0.721-1.632C127.496,47.902,128.105,47.653,128.796,47.625
	L128.796,47.625z"/>
<path fill="#CCEEED" d="M125.174,49.948c0.026,0.885,0.414,1.632,1.16,2.212c0.72,0.608,1.577,0.913,2.571,0.885
	c1.023-0.027,1.854-0.387,2.518-1.022c0.691-0.637,0.994-1.411,0.968-2.295c-0.027-0.443-0.109-0.83-0.306-1.189
	c-0.19-0.415-0.469-0.774-0.828-1.079c-0.028-0.027-0.084-0.055-0.11-0.083c-0.031-0.008-0.064-0.011-0.097-0.019h0.021
	l-0.219-0.322l-2.048-0.63l-1.545,0.459l-0.092,0.219c-0.103,0.007-0.203,0.007-0.306,0.017c-0.25,0.138-0.471,0.304-0.72,0.525
	C125.451,48.261,125.146,49.035,125.174,49.948z M126.279,50.004c-0.026-0.637,0.222-1.162,0.721-1.632
	c0.496-0.47,1.105-0.719,1.797-0.747c0.691-0.027,1.3,0.166,1.825,0.608c0.524,0.442,0.803,0.968,0.83,1.604
	c0.026,0.636-0.193,1.189-0.69,1.659c-0.471,0.471-1.08,0.719-1.771,0.748c-0.719,0.027-1.355-0.194-1.881-0.636
	C126.583,51.165,126.307,50.64,126.279,50.004z"/>
<g>
	<path fill="#AA7D5E" d="M126.199,52.336c-0.798-0.621-1.218-1.421-1.247-2.381c-0.031-0.992,0.318-1.831,1.042-2.497
		c0.281-0.249,0.508-0.414,0.749-0.547c0.229-0.144,0.452-0.231,0.743-0.328c0.384-0.118,0.767-0.176,1.164-0.176h0.001l0.152-0.002
		c0.951,0,1.785,0.267,2.478,0.793c0.008,0.006,0.037,0.027,0.045,0.035c0.033,0.022,0.066,0.046,0.074,0.056
		c0.383,0.324,0.682,0.713,0.883,1.143c0.191,0.357,0.297,0.765,0.33,1.288c0.029,0.974-0.32,1.804-1.037,2.462
		c-0.721,0.692-1.617,1.057-2.664,1.084l-0.131,0.002l0,0C127.799,53.269,126.928,52.953,126.199,52.336z M128.658,46.852
		c-0.36,0-0.7,0.051-1.036,0.155c-0.255,0.084-0.451,0.161-0.653,0.288c-0.222,0.123-0.425,0.271-0.677,0.494
		c-0.629,0.58-0.923,1.284-0.895,2.152c0.024,0.821,0.386,1.509,1.081,2.05c0.654,0.553,1.43,0.833,2.304,0.833l0.119-0.001
		c0.933-0.025,1.73-0.348,2.373-0.964c0.629-0.578,0.922-1.274,0.896-2.117c-0.029-0.456-0.115-0.795-0.285-1.11
		c-0.178-0.383-0.438-0.721-0.807-1.029c-0.033-0.022-0.066-0.047-0.066-0.049c-0.614-0.467-1.357-0.703-2.208-0.703L128.658,46.852
		z"/>
</g>
<g>
	<g>
		<circle fill="#0C0101" cx="128.704" cy="49.248" r="1.593"/>
		<path fill="#673B1D" d="M127.26,48.028c0.673-0.796,1.867-0.896,2.663-0.225c0.795,0.673,0.897,1.867,0.225,2.663
			c-0.673,0.796-1.867,0.896-2.663,0.224C126.689,50.018,126.588,48.825,127.26,48.028z M127.713,48.411
			c-0.461,0.546-0.393,1.366,0.154,1.828c0.546,0.461,1.365,0.393,1.827-0.154c0.461-0.546,0.393-1.366-0.154-1.828
			C128.995,47.795,128.174,47.865,127.713,48.411z"/>
	</g>
	<circle fill="#FFFFFF" cx="130.015" cy="49.514" r="0.481"/>
	<circle fill="#FFFFFF" cx="127.382" cy="49.473" r="0.197"/>
</g>
<path fill="#DFF4F4" d="M147.311,44.974c0.691-0.027,1.301,0.166,1.826,0.609c0.525,0.442,0.803,0.967,0.83,1.604
	s-0.195,1.189-0.691,1.659c-0.471,0.47-1.077,0.719-1.771,0.747c-0.719,0.027-1.354-0.194-1.879-0.636s-0.803-0.968-0.83-1.603
	c-0.026-0.637,0.222-1.163,0.72-1.632C146.014,45.253,146.619,45.002,147.311,44.974L147.311,44.974z"/>
<path fill="#CCEEED" d="M143.689,47.297c0.026,0.885,0.414,1.632,1.16,2.212c0.719,0.608,1.575,0.913,2.571,0.885
	c1.022-0.027,1.854-0.386,2.519-1.022c0.69-0.636,0.994-1.41,0.967-2.295c-0.027-0.442-0.111-0.83-0.305-1.189
	c-0.193-0.415-0.47-0.775-0.83-1.079c-0.027-0.027-0.082-0.055-0.109-0.083c-0.031-0.008-0.064-0.011-0.096-0.019h0.02l-0.219-0.322
	l-2.049-0.63l-1.545,0.459l-0.092,0.218c-0.103,0.007-0.203,0.008-0.308,0.017c-0.248,0.138-0.469,0.304-0.719,0.525
	C143.965,45.61,143.66,46.385,143.689,47.297z M144.795,47.354c-0.027-0.637,0.221-1.163,0.719-1.632
	c0.498-0.469,1.105-0.719,1.797-0.747c0.691-0.027,1.301,0.166,1.826,0.609c0.525,0.442,0.803,0.967,0.83,1.604
	s-0.195,1.189-0.691,1.659c-0.471,0.47-1.077,0.719-1.771,0.747c-0.719,0.027-1.354-0.194-1.879-0.636
	C145.1,48.514,144.822,47.989,144.795,47.354z"/>
<g>
	<path fill="#AA7D5E" d="M144.715,49.685c-0.799-0.62-1.219-1.421-1.248-2.381c-0.031-0.991,0.318-1.831,1.043-2.497
		c0.281-0.248,0.506-0.414,0.748-0.547c0.23-0.144,0.453-0.231,0.742-0.328c0.385-0.118,0.768-0.176,1.166-0.176l0,0l0.152-0.002
		c0.951,0,1.785,0.267,2.479,0.793c0.008,0.006,0.037,0.027,0.043,0.034c0.035,0.022,0.068,0.047,0.076,0.056
		c0.383,0.324,0.682,0.713,0.881,1.144c0.193,0.357,0.299,0.765,0.332,1.288c0.029,0.975-0.32,1.804-1.037,2.462
		c-0.721,0.692-1.617,1.057-2.664,1.085l-0.131,0.001l0,0C146.314,50.618,145.443,50.303,144.715,49.685z M147.172,44.201
		c-0.359,0-0.699,0.051-1.035,0.155c-0.254,0.085-0.451,0.162-0.654,0.288c-0.221,0.122-0.424,0.271-0.676,0.494
		c-0.629,0.58-0.922,1.284-0.895,2.152c0.025,0.821,0.387,1.509,1.082,2.049c0.654,0.553,1.43,0.834,2.303,0.834l0.119-0.002
		c0.932-0.024,1.729-0.348,2.373-0.964c0.629-0.579,0.922-1.274,0.896-2.117c-0.029-0.456-0.115-0.795-0.285-1.11
		c-0.178-0.383-0.438-0.721-0.808-1.029c-0.034-0.023-0.065-0.047-0.065-0.05c-0.613-0.466-1.357-0.703-2.209-0.703L147.172,44.201z
		"/>
</g>
<g>
	<g>
		<circle fill="#0C0101" cx="147.219" cy="46.597" r="1.593"/>
		<path fill="#673B1D" d="M145.781,45.372c0.676-0.793,1.871-0.889,2.664-0.213c0.793,0.676,0.889,1.871,0.213,2.664
			c-0.676,0.793-1.871,0.888-2.664,0.212C145.201,47.359,145.105,46.165,145.781,45.372z M146.232,45.756
			c-0.465,0.544-0.398,1.364,0.146,1.828c0.543,0.464,1.363,0.398,1.828-0.146c0.463-0.544,0.397-1.364-0.146-1.828
			C147.516,45.146,146.695,45.212,146.232,45.756z"/>
	</g>
	<circle fill="#FFFFFF" cx="148.527" cy="46.869" r="0.481"/>
	<circle fill="#FFFFFF" cx="145.896" cy="46.817" r="0.198"/>
</g>
<g>
	<path fill="#666666" d="M30.5,8.232c9.143,0,16.581,7.438,16.581,16.582c0,9.142-7.438,16.582-16.581,16.582
		c-9.143,0-16.582-7.439-16.582-16.582C13.918,15.67,21.357,8.232,30.5,8.232 M30.5,6.389c-10.174,0-18.424,8.249-18.424,18.424
		s8.25,18.423,18.424,18.423s18.424-8.248,18.424-18.423S40.674,6.389,30.5,6.389L30.5,6.389z M30.5,6.389"/>
	<path fill="#666666" d="M37.861,22.814l-9.81-6.457c-1.693-1.113-3.078-0.367-3.078,1.66v13.588c0,2.025,1.387,2.775,3.083,1.666
		l9.801-6.414C39.553,25.747,39.555,23.928,37.861,22.814L37.861,22.814z M36.554,25.503l-8.711,5.7
		c-0.565,0.371-1.028,0.121-1.028-0.555V18.974c0-0.676,0.462-0.925,1.026-0.553l8.714,5.735
		C37.12,24.527,37.12,25.133,36.554,25.503L36.554,25.503z M36.554,25.503"/>
</g>
</svg>
