<?xml version="1.0" encoding="utf-8"?>
<!-- Generator: Adobe Illustrator 16.0.0, SVG Export Plug-In . SVG Version: 6.00 Build 0)  -->
<!DOCTYPE svg PUBLIC "-//W3C//DTD SVG 1.1//EN" "http://www.w3.org/Graphics/SVG/1.1/DTD/svg11.dtd" [
	<!ENTITY ns_extend "http://ns.adobe.com/Extensibility/1.0/">
	<!ENTITY ns_ai "http://ns.adobe.com/AdobeIllustrator/10.0/">
	<!ENTITY ns_graphs "http://ns.adobe.com/Graphs/1.0/">
	<!ENTITY ns_vars "http://ns.adobe.com/Variables/1.0/">
	<!ENTITY ns_imrep "http://ns.adobe.com/ImageReplacement/1.0/">
	<!ENTITY ns_sfw "http://ns.adobe.com/SaveForWeb/1.0/">
	<!ENTITY ns_custom "http://ns.adobe.com/GenericCustomNamespace/1.0/">
	<!ENTITY ns_adobe_xpath "http://ns.adobe.com/XPath/1.0/">
]>
<svg version="1.1" id="Layer_1" xmlns:x="&ns_extend;" xmlns:i="&ns_ai;" xmlns:graph="&ns_graphs;"
	 xmlns="http://www.w3.org/2000/svg" xmlns:xlink="http://www.w3.org/1999/xlink" x="0px" y="0px" width="260px" height="207px"
	 viewBox="0 0 260 207" enable-background="new 0 0 260 207" xml:space="preserve">
<metadata><?xpacket begin="﻿" id="W5M0MpCehiHzreSzNTczkc9d"?>
<x:xmpmeta xmlns:x="adobe:ns:meta/" x:xmptk="Adobe XMP Core 5.3-c011 66.145661, 2012/02/06-14:56:27        ">
   <rdf:RDF xmlns:rdf="http://www.w3.org/1999/02/22-rdf-syntax-ns#">
      <rdf:Description rdf:about=""
            xmlns:dc="http://purl.org/dc/elements/1.1/">
         <dc:format>image/svg+xml</dc:format>
         <dc:title>
            <rdf:Alt>
               <rdf:li xml:lang="x-default">Print</rdf:li>
            </rdf:Alt>
         </dc:title>
      </rdf:Description>
      <rdf:Description rdf:about=""
            xmlns:xmp="http://ns.adobe.com/xap/1.0/"
            xmlns:xmpGImg="http://ns.adobe.com/xap/1.0/g/img/">
         <xmp:MetadataDate>2017-12-14T16:51:43+02:00</xmp:MetadataDate>
         <xmp:ModifyDate>2017-12-14T16:51:43+02:00</xmp:ModifyDate>
         <xmp:CreateDate>2017-12-14T16:51:43+02:00</xmp:CreateDate>
         <xmp:CreatorTool>Adobe Illustrator CS6 (Windows)</xmp:CreatorTool>
         <xmp:Thumbnails>
            <rdf:Alt>
               <rdf:li rdf:parseType="Resource">
                  <xmpGImg:width>256</xmpGImg:width>
                  <xmpGImg:height>204</xmpGImg:height>
                  <xmpGImg:format>JPEG</xmpGImg:format>
                  <xmpGImg:image>/9j/4AAQSkZJRgABAgEASABIAAD/7QAsUGhvdG9zaG9wIDMuMAA4QklNA+0AAAAAABAASAAAAAEA&#xA;AQBIAAAAAQAB/+4ADkFkb2JlAGTAAAAAAf/bAIQABgQEBAUEBgUFBgkGBQYJCwgGBggLDAoKCwoK&#xA;DBAMDAwMDAwQDA4PEA8ODBMTFBQTExwbGxscHx8fHx8fHx8fHwEHBwcNDA0YEBAYGhURFRofHx8f&#xA;Hx8fHx8fHx8fHx8fHx8fHx8fHx8fHx8fHx8fHx8fHx8fHx8fHx8fHx8fHx8f/8AAEQgAzAEAAwER&#xA;AAIRAQMRAf/EAaIAAAAHAQEBAQEAAAAAAAAAAAQFAwIGAQAHCAkKCwEAAgIDAQEBAQEAAAAAAAAA&#xA;AQACAwQFBgcICQoLEAACAQMDAgQCBgcDBAIGAnMBAgMRBAAFIRIxQVEGE2EicYEUMpGhBxWxQiPB&#xA;UtHhMxZi8CRygvElQzRTkqKyY3PCNUQnk6OzNhdUZHTD0uIIJoMJChgZhJRFRqS0VtNVKBry4/PE&#xA;1OT0ZXWFlaW1xdXl9WZ2hpamtsbW5vY3R1dnd4eXp7fH1+f3OEhYaHiImKi4yNjo+Ck5SVlpeYmZ&#xA;qbnJ2en5KjpKWmp6ipqqusra6voRAAICAQIDBQUEBQYECAMDbQEAAhEDBCESMUEFURNhIgZxgZEy&#xA;obHwFMHR4SNCFVJicvEzJDRDghaSUyWiY7LCB3PSNeJEgxdUkwgJChgZJjZFGidkdFU38qOzwygp&#xA;0+PzhJSktMTU5PRldYWVpbXF1eX1RlZmdoaWprbG1ub2R1dnd4eXp7fH1+f3OEhYaHiImKi4yNjo&#xA;+DlJWWl5iZmpucnZ6fkqOkpaanqKmqq6ytrq+v/aAAwDAQACEQMRAD8ATzhX152KuxV2KuxV2Kux&#xA;V2KuxV2KuxV2KuxV2KuxV2KuxV2KuxV2KuxV2KuxV2KuxV2KuxV2KuxV2KuxV2KuxV2KrJJY4lq7&#xA;BRluHBPIaiLcbU6vFgjxZJcIUheV3SKRh402zKOgr6pwB97rx2xxbwxZZDv4W1vIi3Fw0beDimCe&#xA;gmBcamP6Jtnj7ZwmXDMSxy/pivtV8wXaguxS7FXYq7FXYq7FXYq7FXYq7FXYq7FXYq7FXYq7FXYq&#xA;7FXYq7FXYq7FXYq7FXYq7FXYqsmlWKMue3QeJy7T4TlmIhxdbqo4MRyHp9p6KUFuSfVm+KU70PRf&#xA;YZk6jVUPDx7QH2+bgaHs4k+Nn9WU/KPkB+P1qJPC7lFYFl6jMfJpskIiRHpLnYdfhyTMIyBlHp+O&#xA;fwXOiOvFwCD2OV48koG4mi3ZsMMseGY4gh4+VvKIiawv/dk9j4ZsMgGoxnIBWSP1eY73TYDLR5hh&#xA;JvDP6D/NP839X9qKzWO+dirsVVI4JpPsIW9wNvvwiJLEyA5q66ZdHqAvzP8ASuS8MtZzxXjSpP2p&#xA;FHyqcl4RYnUDub/RsY+1N9y/24fCY/mPJo2VqOsx+4Y+Ej8we5abexHWVvww+EF/MFaYrD/frfhj&#xA;4QX8wXenp/8Av1vwx8IL+YLYhsD/ALtb8MfCC/mCuFrZnpK34Y+EF/MHub+oQHpN94/tweEn8x5O&#xA;/RlfszA/MUweEn8x5LTpdx2ZW+k/0weEWQ1EVN7G6TrGSPbf9WRMCzGWJ6qBBBoRQ+GRZtYpdirs&#xA;VdirsVdirsVdirsVQ9yOU9uh6Fix/wBiK5n6Q8OLJLrQHzLpu0hx58GM8jKUv9KLRGYDuUHDbxyp&#xA;ISKOJGo42Izb6jVTxSjW8eCOx5PM6Ls7FnhMnaYyyqQ5hek0sUixTUYPskg/iMqngx5YHJj24ecf&#xA;1OTi1mbT5Y4c/q4/pmP0j8fFdfLW3Y91owPuDlfZ0qzAdJbN3bmO9NI9Y1IfAqymqg+IrmHKNEh2&#xA;mOXFEHvDeRZuxVF2+oyxIEKhlHTscsjkIaZ4QTaIGrRH7SMPlQ/0yfihqOnPe2b61b9ph8x/TD4g&#xA;Y+BJY0lq3SX8CP4YeMMfBl3KTxQN0mX78PGEeHLuUWsom/3cv/BDHiC+HLuUW0qM/wC71/4If1x4&#xA;gjgl3LRpEY/3eP8Agx/XHiC8Eu5UTTY1/wB3r/wQx4gvBLuVktYl/wB3L9+PEE+HLuVlFuvWYYOM&#xA;J8KXcqLc2i/7sr8gf6YPECfBku/SVsvQM30D+uDxQyGnksfVz+xH9LH+mA5WY0/eUDNM80hd+p8M&#xA;qJtvjERFBZgZOxV2KuxV2KuxV2KuxV2Koe7+AxTdo2+L5Nsc2Gh9Qnj/AJw294dL2v8Auzjz9Mct&#xA;/dLYogGoqOma8incggiwgYZJgZIok+PmxLN9kA5us+LGeGc5enhGw5l5XR6nODPFih6/EkeI/SAf&#xA;x/aiIbZUb1HJklP7Z/hmDn1hmOGI4Ydw/S7fSdmRxy8SZ8TL/OP6O5bemsYiH2pSAPl1Jyzs6NTO&#xA;Q/TAW09tzvEMMfryyA+F2SiAKCg7ZgE2bdxEACg7AydirsVdirsVdirsVWTTRQxtLKwSNRVmOwGG&#xA;MSTQYTnGAuRoBi19r19ctxt6RIjVSZCylh7g9j7jNpi0sRzeX1Xas5mo7UeYt0OvaxGKNJHL/rr/&#xA;AM08cMtHA+TGHbGePOj7x+qkVB5nuVP+kQK6+MRKkfQ1a/flUtCOhcrF25K/XH5JzZaha3sZeB6k&#xA;faQ7MvzGYWTFKBou70+qhmFxKJytyHYq7FXYq7FXYq7FXYq7FXYq7FXYq7FXYq0yqylWFQdiMlCZ&#xA;iQRzDXkxxnExkLiUMrS2vwuC8A+y43IHgc2UoQ1PqieHJ1HQ+50ePLl0PomDPB0kOcfKXl+PIKrd&#xA;W7CokX6TT9eYktHmBrhPydjDtTTSFjJH4mvvWveRD4U/eOeirv8AjluPQZDvL0R7y4+btnDH04/3&#xA;k+gjv9vJ0EL8zNN/eHZV7KPDHUaiPD4eP6Op7yui0eQ5Dnzf3h5DpEdyvmC7d2KuxV2KuxV2KuxV&#xA;2KsQ1bUGv7kgH/RYiREvZiOrH+GbfTYeAWeZeP7S1pzTofQOX60LmS652KuxVpbqWzmS5hbjIpoR&#xA;2Ze4PtkJwEhRbcGeWKQlHmzSzuo7u1juI/syCtPA9CPoOaWcDEkF7bBmGSAmORVsg3OxV2KuxV2K&#xA;uxV2KuxV2KuxV2KuxV2KuxV2KrGggY1Mak+NBl8dTkjykfm4k9BgmblCJPuC5URdlUL8hTK55JS+&#xA;okt2PDDGKhER9wpvINrsVdirsVdirsVdirsVQWtSyx6ZOYgWlYcECip+I07e2XYADMXycPXzlHDL&#xA;h5nb5sLYXkZeP0WUwqGkUqaqppu3h9oZuQQRYeLnCUTUhRTIaLrr6VNq6WMq6ZbhWku5BwjPNgi8&#xA;OVOfxMB8NcbCHaXo+tas3HS9PnvOxeNDwHzc/CPpOJICptp/5e+b73VJNOjtEEkKo003qKYI+ahg&#xA;GlXkpahBotTgMgmikHmTRNR0PWbjS9QKG5t+PJoyTGQ6h1KkhTSjeGEG0EJx5PuC1tPAT/dsGX5O&#xA;P+bc12ujuC9J2HluEo9x+/8AsZBmC712KuxV2KuxV2KuxV2KuxV2KuxV2KuxV2KuxV2KuxV2KuxV&#xA;2KuxV2KuxV2KuxV2Ks08h+WbeHS9V1ad2hm1P91HcxhTJHBGgX4OSuORkBP2T0GbPT2YAD8bvIdq&#xA;UM8j7vuCY+XNG8pG8vrYNNql+jCC+l1GUXTllKyhGUkou4Vx8I6e22dn02TGAZCgXT6fV4spIidw&#xA;y4CKCKgAjijHQCgCj2GYrlsM0rTPK9p5rkXTbebTruFI5rqC3ldYCtxyWP1ohWH7QoFU1rTbM/No&#xA;ckMfGar7XXYe0Mc8pxi7+wsM/PTQydb0m+gA9S/Q2rD/AC42HAn5iWn0Zi4zs50gxDyvbvbX2oW7&#xA;btCwjY+6sw/hmJruQd52EN5/D9LIs1z0bsVdirsVdirsVdirsVdirsVdirsVdirsVdirsVdirsVd&#xA;irsVdirsVdirsVdirsVev+XoI38s2MW6q9uu46gkVqPeu+bTAaAIeL144sswe8q6WEdrJPdhFeR3&#xA;M0ixRqhkk4iP1HpWr8BTag9szdRrZ5QBLo6zTaHHikTHq3a6i9zMI1t2WOh5u3bb5ZhguaY0qx6f&#xA;CkityZlTiEQ8aAICEqQAzca/DyJp2zJnqsko8JPpcSGkxxmZgeosQ886Dqmt+ZdAC2v+4jTJTc3l&#xA;2zIAzEqyxKleZr6dCePfK4N8m/N3l7RItGudSgs4bS8LoxlhUIZSz0bmBTkfiJqd8xtVEcPudr2R&#xA;lkMvCOUufwYDmuepZvffl7BB5WGqx3Lm8SBbiWJgPToQGZRtyBAOZUtOBC73dFi7XMtR4ZHpuvNh&#xA;GYrvXYq7FXYq7FXYq7FXYq7FXYq7FXYq7FXYq7FXYq7FXYq7FXYq7FXYq7FXYq9S8hail1oKQV/e&#xA;2hMTjvxJ5Ifu2+jM/TyuPueV7VwmGUnpLdNtZ1e30myN7cRTSQIQJDAhkZAf2yq78R3pmQBbr4QM&#xA;jQYnP+cnk9aLafWb6dto4YYSGLHoPj4ZPwi5I0c+tBlOgalf6jp63d7p76a8hJjtpH5ScOxcUXiT&#xA;/LkCKcfJERNA2hPNnmFNHsAyBJLuY0gifdaDdmYAg0H68py5eAeblaHR+POj9I5vONY8xanq3Bbp&#xA;1WGPdIIxxQHxpvU/PMLJllLm9JptHjw/SN1HR9Ml1PUoLKM0MrfE/wDKo3ZvoGRhGzTZqMwxQMj0&#xA;ey6jp7XWhT6dbOqmSAwRFyQB8PEVoD+rNiRcaeLw5eHKJy/nW8p8weT9X0OKOa7MUkEjcFkhYsOV&#xA;CQDyCnoD2zByYTHm9ZpO0ceckRux3pHlTnuxV2KuxV2KuxV2KuxV2KuxV2KuxV2KuxV2KuxV2Kux&#xA;V2KuxV2KuxV2Kpr5a1a+03VYWtF9Vp2WE21aepzYBVH+VyPw5bhMuL07uHrsMJ4zxmgOvc9jmjeC&#xA;X0ZgEloCUrXqK/Tm0nAxNF42ExIWOSksMKuXWNVc1qwABNeu+QZWhNZ1NtP0u4v44GuVt+PqBKUX&#xA;kaAsewrgnYiZVybtPiGTIIE1byPVdVvNUvHu7tuUjbBRsqqOiqPAZrJzMjZewwYI4o8MeTF9Z83a&#xA;XpvKMN9Yuht6MZ6H/KboP15sNJ2Xlzb/AEx7z+h1faHbuDT2L459w/Sen3q/5R+b9SvvPqxzj9zP&#xA;bTJFDGPgjI4ycj3Oyca++bbUdnY8OK4/VfN5ePa+bVZan9PQDk+hrcVjVmiep3LKTvv4A5q26XPm&#xA;xz8yjY/oOESpILkyj6tUtxqPt8hXj9n6fxyjUVwuz7F4/FNVw1u8xzCepdirsVdirsVdirsVdirs&#xA;VdirsVdirsVdirsVdirsVdirsVdirsVdiqA1vVo9LsGunQyGoSOMGnJm6CvbMrR6U58ggNnA7R10&#xA;dLiOQi+4ebGvJvnZl/MPQdS1iYRaba3sbSKNo41J48yD/LyqSd863BoceGJERv39XzvW9qZtTK5n&#xA;09AOQfZuo6Vaagg9WodR8Eq9QP4jMbLhjPmjFnlDkkh8p3f1jh6ymDr6lDX5cf7cxPyZvns5v56N&#xA;ct0v/Mu50jy3+WWvtOwCz2c1tHyPxSXFwhiiApvXk1dugFcz9PhEdg6/NmMjZfHU3mjXZrMWj3b+&#xA;mNiw2dh4M4+I5dHs7BGfGIi/s+TdPtnVSx+GZmvt+J5pVma6tlH5d32r6Z5ns9SsbYzxo3p3NQeH&#xA;pP8AC9W7EA1HvmB2hkxjGRI79HadlabLkyx4Iki9z0A6vo+w/MHy+Yx66zQsOuxNf+BJzlxqIl6n&#xA;L2RmvaixTzj5jTWb9TbNILGFQIo5P5v2moPHMbNk4jtydv2dozhh6q4ix/KnYuxV2KuxV2KuxV2K&#xA;uxV2KuxV2KuxV2KuxV2KuxV2KuxV2KuxV2KuxVi/5hkjRYCNj9ZX/k2+brsL++P9X9IeZ9qv8Wj/&#xA;AFx/uZPPWJIFevjnVvAPr/8AJT8wYdd/LdXuLhUv9Ah+raiX3KpEhMM1K7h4170qytmKcRMwB/EW&#xA;05BGBkdqCr+W/mTzBquqzi7vfWV0aZ4ZBsSCBSOlOFK9tvbN52vo8WLEDGNG6/t73nOxtbmy5iJS&#xA;sVdfq7njn/OSH5hpr/mOPy9Yy89O0RmFwyE8JLs/C/z9IfAD48u2afDChb0WSVl5LZ2pu763tV+H&#xA;15FjDdaciBX6MlmycEDLuFs9NhOXJGH84gfN6Np3kvQ7OjNEbmUftzfEP+BFF+/ORz9rZsnI8I8v&#xA;1voWl9n9Ni3I4z/S/VyTxEVFCoAqjYKBQAZrSSdy7uMQBQ5N4EuxV2KuxV2KuxV2KuxV2KuxV2Ku&#xA;xV2KuxV2KuxV2KuxV2KuxV2KuxV2KuxViH5jygWVnD3eVn/4Faf8bZvuwY+uR8vx9zyftZOscI98&#xA;ifkP2sE5mlDuPfOneGTXy75l1LQrmaSxmZIruP6vewA0EsJYMUP0qP8Aarl2ny+HkE6umjU4fFxy&#xA;hdcQZtqf5pzafY+j5cneG8uIikt6Kq0SSqVZU7+pQ/aH2e2+42PaOthkjwx3t0/ZfZuTFPjntVj3&#xA;/seaVHhU+JzUO/TzyXb/AFnzDbkgcYFaUgewoP8AhmGaztfJw4D57O79nsPHq4/0bP4+L07ONfSn&#xA;Yq7FXYq7FXYq7FXYq7FXYq7FXYq7FXYq7FXYq7FXYq7FXYq7FXYq7FXYq7FXYq8+/MO69TU4LcGo&#xA;gi5EeDSH+ijOp7Cx1jMu8/c8F7VZuLNGH82P3/2Bimbx5d2KrU3LN3JIJ+RIwBJXYUMt/LlAdRun&#xA;7rCFH0sD/DNF28f3cR5/oeq9lI/vpn+j+ln+cu927FXYq7FXYq7FXYq7FXYq7FXYq7FXYq7FXYq7&#xA;FXYq7FXYq7FXYq7FXYq7FXYq7J48cpyEYiyWrNmjjiZzNRCvrf5T+Vb/AEe21241aezvL4hWeiyw&#xA;8qEACMBW+EJT7edLosuXGPD4QeF8/wC0xiz5Dl4iBJ43rumx6bqs9jHL66wcR61KcqoCTTem5za6&#xA;bMckBIirv73Va3TjDlMAeKgN/eAUBmQ4i1AfiNagnYeGAJXYUMv/AC4/3tvP+MS/8SzQ9vfRH3vW&#xA;eyf95P8Aqj72e5zD3LsVdirsVdirsVdirsVdirsVdirsVdirsVdirsVdirsVdirsVdirsVdirsVT&#xA;DQ9MXUdRS3dzHFQvKw68V8Pc5laPTeNkEejru1Nd+WwmYFnkPey2Xyh5Zlj9N7WRl2qfWcE0+VM6&#xA;bDocWM3EbvB6ntfUZomM5XE9KHRO7RobS0W0gUi3QcUQkNxHtyBxGhxjlfzasnaGWZs1fueAfmb+&#xA;XWqaXJqXmJHg/Q6OhWMO7TKjssSAhlAJqR+1mfjIiKDg5DKZs+X2CnmTXsSitGPhtTJ8bDhWQXqc&#xA;aSfCexwCaTFUN7bj9on5A5LjCOEvQvy90uVLb9K+qDDdoyrDQ8hxelSf9ic5ntrVxmfDreJ5/B7f&#xA;2Z0EoR8YnaYqvcf2MxzRPWOxV2KuxV2KuxV2KuxV2KuxV2KuxV2KuxV2KuxV2KuxV2KuxV2KuxV2&#xA;KuxVPfJ3/HWP/GJv1jNp2P8A33+aXnvaX/Fh/WH6WbVzqHgXVxVgf503Aj8jSp/v+4hjH0Ev/wAa&#xA;ZKHNjLk+fCARQio8MvYI6+sLZNI0ycRKGkE6s1OvCT/m7MPDK8s493D9odhqcdafFL+dx/ZL9qAC&#xA;qOgA+jMynXvWPKqqvl6xCig9OtB7kk5w/aP9/P3vqHYwrSY/6qa5hO0dirsVdirsVdirsVdirsVd&#xA;irsVdirsVdirsVdirsVdirsVdirsVdirsVdiqbeWZ1h1LkxpWNgPnUH+GbTsg/vvgXn/AGliTpfd&#xA;IfpZX+kI/EZ1DwDv0hH4jFXmn54aoj6RptkGqZLhpqf8Yk4/8zcsxsJPHctYJzqAU+WdJYHdZLlT&#xA;9LKc1+D/ABnJ7o/pdxqqOiwnulP7wk2bB071Xym4fy7ZMOyFf+BYr/DOI7TFaiXv/Q+odiS4tJjP&#xA;l9xKb5gu1dirsVdirsVdirsVdirsVdirsVdirsVdirsVdirsVdirsVdirsVdirsVdirasykMpoR0&#xA;IyUZGJsbFhkxxnExkLBVxd3h6OxzPHamfv8AsDpz2BpP5v2n9bbXd6ql2ZlVRVmIoAPc4R2nqDyP&#xA;2MT2FogLI/2R/W89883dvq1xC0V0ZXgUpx41j3NSQ1evyGb3QZs1fvR+v5PKdrYNKJAYDy59R87+&#xA;7ZjNtpVzcXUNshX1J3WNKk05MaDoCczsmojGJkejq8OmlkmICrkaZfe+QdU/Q1vAJBztDNIxKOFI&#xA;k4mlaHpw8M0uLtWPiylwmpUPlf63qdR2DL8vGHHG4cR+dfqYWLGY9OND3rm98UPI+GXofkqS3XTV&#xA;sUn9W4Us/pFeJAO5Cip5D3zlu1sczk4+HZ772ez4hgGPiuQs0dvl3sjMcg6qR9BzU09FYW4EuxV2&#xA;KuxV2KuxV2KuxV2KuxV2KuxV2KuxV2KuxV2KuxV2KuxV2Ko+ztrJ0Bd6ueqE8cthGJcfJOYOwRq2&#xA;lso2iU/MV/XlogHHOSXe40X7KAfIYaYklSe4mHQYUMQ8yaFr+q3LN+kylp+xa8CFWnjQ/Efc5naf&#xA;VQxj6d+90+t7Py5pfX6e78c0jHkK939S+I8OMZP/ABsMyD2mOkftcKPYB6z+z9qYaP5Zg0u7S8Ik&#xA;ubmOvps9Aqk7VC+P05jZ9dLIK5Bz9J2Rjwy4ieKQZB+lL5gVaIlTsQehGYTtqYjP5GLOzWlw8KE1&#xA;WJ15Ae3Ko/Vm0h2mf4g89l7BBJMJV5EfpUovJXmOORXhu4kdCCjgsrAjuKLlp7RxkUQfscYdh5gb&#xA;Eo/b+p6Dpc+qJZQpfSCa6VaSyoKKx8eg7ZqchiZHh5PS4IzEAJm5dUesrt9oVyttVPSif7USn6Bg&#xA;4QyEz3qUtlY0qwEfvWmRMItkcs0rnWJZCsTc07HKJAXs5cCSN1PAydirsVdirsVdirsVdirsVdir&#xA;sVdirsVdirsVdirsVdiq5ZHX7LEfI0xtBAKoLu5H+7W+k1/XkuMsfDj3N/Xrr+evzA/ph8QsfBj3&#xA;N/XZ+/E/QMfEKPAi19ck7qh+jD4hR4EXfW2/kT7v7cfFK+BF31pv5E+4/wBcfFK+BF31t/5E+7+3&#xA;HxSvgRd9cl7Bfux8Qp8CLvrtx2IH+xH9MHiFPgxcb26P+7D9FB+rBxlPhR7ljXE7dZGP0nBxFkID&#xA;uU6k9cDJ2KuxV2KuxV2KuxV2KuxV2KuxV2KuxV2KuxV2KuxV2KuxV2KuxV2KuxV2KuxV2KuxV2Ku&#xA;xV2KuxV2KuxV2KuxV2KuxV2KuxV2KuxV2KuxV2KuxV2KuxV2KuxV2KuxV2KuxV2KuxV2KuxV2Kux&#xA;V2KuxV2KuxV2KuxV2KuxV2KuxV2KuxV2KuxV2KuxV2KuxV2KuxV2KuxV2KuxV2KuxV2KuxV2KuxV&#xA;2KuxV2KuxV2KuxV2KuxV2KuxV2KuxV2KuxV2KuxV2KuxV2KuxV2KuxV2KuxV2KuxV2KuxV2KuxV2&#xA;KuxV2KuxV2KuxV2KuxV2KuxV2KuxV2KuxV2KuxV2KuxV2Kv/2Q==</xmpGImg:image>
               </rdf:li>
            </rdf:Alt>
         </xmp:Thumbnails>
      </rdf:Description>
      <rdf:Description rdf:about=""
            xmlns:xmpMM="http://ns.adobe.com/xap/1.0/mm/"
            xmlns:stRef="http://ns.adobe.com/xap/1.0/sType/ResourceRef#"
            xmlns:stEvt="http://ns.adobe.com/xap/1.0/sType/ResourceEvent#">
         <xmpMM:InstanceID>xmp.iid:EB6DD94CDEE0E711B9EAAD0F3B223CDD</xmpMM:InstanceID>
         <xmpMM:DocumentID>xmp.did:EB6DD94CDEE0E711B9EAAD0F3B223CDD</xmpMM:DocumentID>
         <xmpMM:OriginalDocumentID>uuid:5D20892493BFDB11914A8590D31508C8</xmpMM:OriginalDocumentID>
         <xmpMM:RenditionClass>proof:pdf</xmpMM:RenditionClass>
         <xmpMM:DerivedFrom rdf:parseType="Resource">
            <stRef:instanceID>xmp.iid:90D3775BC2D9E711AF33F4E19EB97FCF</stRef:instanceID>
            <stRef:documentID>xmp.did:90D3775BC2D9E711AF33F4E19EB97FCF</stRef:documentID>
            <stRef:originalDocumentID>uuid:5D20892493BFDB11914A8590D31508C8</stRef:originalDocumentID>
            <stRef:renditionClass>proof:pdf</stRef:renditionClass>
         </xmpMM:DerivedFrom>
         <xmpMM:History>
            <rdf:Seq>
               <rdf:li rdf:parseType="Resource">
                  <stEvt:action>saved</stEvt:action>
                  <stEvt:instanceID>xmp.iid:90D3775BC2D9E711AF33F4E19EB97FCF</stEvt:instanceID>
                  <stEvt:when>2017-12-05T15:44:03+02:00</stEvt:when>
                  <stEvt:softwareAgent>Adobe Illustrator CS6 (Windows)</stEvt:softwareAgent>
                  <stEvt:changed>/</stEvt:changed>
               </rdf:li>
               <rdf:li rdf:parseType="Resource">
                  <stEvt:action>saved</stEvt:action>
                  <stEvt:instanceID>xmp.iid:EB6DD94CDEE0E711B9EAAD0F3B223CDD</stEvt:instanceID>
                  <stEvt:when>2017-12-14T16:51:43+02:00</stEvt:when>
                  <stEvt:softwareAgent>Adobe Illustrator CS6 (Windows)</stEvt:softwareAgent>
                  <stEvt:changed>/</stEvt:changed>
               </rdf:li>
            </rdf:Seq>
         </xmpMM:History>
      </rdf:Description>
      <rdf:Description rdf:about=""
            xmlns:illustrator="http://ns.adobe.com/illustrator/1.0/">
         <illustrator:StartupProfile>Print</illustrator:StartupProfile>
      </rdf:Description>
      <rdf:Description rdf:about=""
            xmlns:xmpTPg="http://ns.adobe.com/xap/1.0/t/pg/"
            xmlns:stDim="http://ns.adobe.com/xap/1.0/sType/Dimensions#"
            xmlns:xmpG="http://ns.adobe.com/xap/1.0/g/">
         <xmpTPg:HasVisibleOverprint>False</xmpTPg:HasVisibleOverprint>
         <xmpTPg:HasVisibleTransparency>True</xmpTPg:HasVisibleTransparency>
         <xmpTPg:NPages>1</xmpTPg:NPages>
         <xmpTPg:MaxPageSize rdf:parseType="Resource">
            <stDim:w>260.000000</stDim:w>
            <stDim:h>207.000000</stDim:h>
            <stDim:unit>Pixels</stDim:unit>
         </xmpTPg:MaxPageSize>
         <xmpTPg:PlateNames>
            <rdf:Seq>
               <rdf:li>Cyan</rdf:li>
               <rdf:li>Magenta</rdf:li>
               <rdf:li>Yellow</rdf:li>
               <rdf:li>Black</rdf:li>
            </rdf:Seq>
         </xmpTPg:PlateNames>
         <xmpTPg:SwatchGroups>
            <rdf:Seq>
               <rdf:li rdf:parseType="Resource">
                  <xmpG:groupName>Default Swatch Group</xmpG:groupName>
                  <xmpG:groupType>0</xmpG:groupType>
               </rdf:li>
            </rdf:Seq>
         </xmpTPg:SwatchGroups>
      </rdf:Description>
      <rdf:Description rdf:about=""
            xmlns:pdf="http://ns.adobe.com/pdf/1.3/">
         <pdf:Producer>Adobe PDF library 10.01</pdf:Producer>
      </rdf:Description>
   </rdf:RDF>
</x:xmpmeta>
                                                                                                    
                                                                                                    
                                                                                                    
                                                                                                    
                                                                                                    
                                                                                                    
                                                                                                    
                                                                                                    
                                                                                                    
                                                                                                    
                                                                                                    
                                                                                                    
                                                                                                    
                                                                                                    
                                                                                                    
                                                                                                    
                                                                                                    
                                                                                                    
                                                                                                    
                                                                                                    
                           
<?xpacket end="w"?>
	</metadata>
<g id="Layer_2">
	<rect fill="#F05423" width="260" height="207"/>
</g>
<g>
	
		<radialGradient id="SVGID_1_" cx="-365.2075" cy="-48987.2813" r="49.7269" gradientTransform="matrix(1.12 0 0 -0.1377 541.0322 -6578.1133)" gradientUnits="userSpaceOnUse">
		<stop  offset="0" style="stop-color:#000000"/>
		<stop  offset="0.0146" style="stop-color:#050505"/>
		<stop  offset="0.2607" style="stop-color:#5D5D5D"/>
		<stop  offset="0.4774" style="stop-color:#A2A2A2"/>
		<stop  offset="0.6568" style="stop-color:#D4D4D4"/>
		<stop  offset="0.7921" style="stop-color:#F3F3F3"/>
		<stop  offset="0.8676" style="stop-color:#FFFFFF"/>
	</radialGradient>
	<ellipse opacity="0.2" fill="url(#SVGID_1_)" enable-background="new    " cx="132" cy="167.436" rx="57.455" ry="5.922"/>
	
		<radialGradient id="SVGID_2_" cx="-365.2075" cy="-47956.3281" r="49.7213" gradientTransform="matrix(1.12 0 0 -0.1377 541.0322 -6578.1133)" gradientUnits="userSpaceOnUse">
		<stop  offset="0" style="stop-color:#000000"/>
		<stop  offset="0.0146" style="stop-color:#050505"/>
		<stop  offset="0.2607" style="stop-color:#5D5D5D"/>
		<stop  offset="0.4774" style="stop-color:#A2A2A2"/>
		<stop  offset="0.6568" style="stop-color:#D4D4D4"/>
		<stop  offset="0.7921" style="stop-color:#F3F3F3"/>
		<stop  offset="0.8676" style="stop-color:#FFFFFF"/>
	</radialGradient>
	<ellipse opacity="0.2" fill="url(#SVGID_2_)" enable-background="new    " cx="132" cy="25.473" rx="57.455" ry="5.92"/>
	<g>
		<path fill="#F2B88E" d="M109.896,131.982c-0.317-0.031-0.621-0.096-0.894-0.203c-1.453-0.568-1.944-2.791-1.803-4.146
			c0.178-1.68,0.736-3.444,1.906-4.704c1.01-1.084,3.01-2.334,4.417-1.41c0.727,0.475,0.968,1.27,0.932,2.108
			c-0.028,0.638-0.281,1.201-0.433,1.815c-0.14,0.57,0.08,1.048,0.086,1.603c0.003,0.472-0.094,0.938-0.288,1.386
			c-0.564,1.291,0.002,2.569-1.491,3.188C111.643,131.906,110.724,132.063,109.896,131.982z"/>
		<g>
			<g>
				
					<linearGradient id="SVGID_3_" gradientUnits="userSpaceOnUse" x1="420.0723" y1="-168.0562" x2="420.0723" y2="-162.5688" gradientTransform="matrix(1 0 0 -1 -310.96 -34.6602)">
					<stop  offset="0" style="stop-color:#323031"/>
					<stop  offset="0.3763" style="stop-color:#515153"/>
					<stop  offset="0.7736" style="stop-color:#6D6D70"/>
					<stop  offset="1" style="stop-color:#77787B"/>
				</linearGradient>
				<path fill="url(#SVGID_3_)" d="M105.261,133.396v-2.301c0-0.697,0.521-1.263,1.161-1.263h5.38c0.641,0,1.161,0.563,1.161,1.263
					v2.301h1.77v-2.301c0-1.757-1.315-3.187-2.931-3.187h-5.38c-1.616,0-2.93,1.43-2.93,3.187v2.301H105.261z"/>
				
					<linearGradient id="SVGID_4_" gradientUnits="userSpaceOnUse" x1="411.9443" y1="-169.6958" x2="411.9443" y2="-166.3315" gradientTransform="matrix(1 0 0 -1 -310.96 -34.6602)">
					<stop  offset="0" style="stop-color:#323031"/>
					<stop  offset="0.3763" style="stop-color:#515153"/>
					<stop  offset="0.7736" style="stop-color:#6D6D70"/>
					<stop  offset="1" style="stop-color:#77787B"/>
				</linearGradient>
				<ellipse fill="url(#SVGID_4_)" cx="100.984" cy="133.354" rx="1.548" ry="1.682"/>
				
					<linearGradient id="SVGID_5_" gradientUnits="userSpaceOnUse" x1="428.2002" y1="-169.6958" x2="428.2002" y2="-166.3315" gradientTransform="matrix(1 0 0 -1 -310.96 -34.6602)">
					<stop  offset="0" style="stop-color:#323031"/>
					<stop  offset="0.3763" style="stop-color:#515153"/>
					<stop  offset="0.7736" style="stop-color:#6D6D70"/>
					<stop  offset="1" style="stop-color:#77787B"/>
				</linearGradient>
				<ellipse fill="url(#SVGID_5_)" cx="117.24" cy="133.354" rx="1.547" ry="1.682"/>
				<g>
					
						<linearGradient id="SVGID_6_" gradientUnits="userSpaceOnUse" x1="420.0723" y1="-167.0532" x2="420.0723" y2="-191.1411" gradientTransform="matrix(1 0 0 -1 -310.96 -34.6602)">
						<stop  offset="0" style="stop-color:#BBBDBF"/>
						<stop  offset="0.4984" style="stop-color:#B9BBBD"/>
						<stop  offset="0.6778" style="stop-color:#B2B4B6"/>
						<stop  offset="0.8058" style="stop-color:#A7A9AB"/>
						<stop  offset="0.9085" style="stop-color:#96989A"/>
						<stop  offset="0.9961" style="stop-color:#818285"/>
						<stop  offset="1" style="stop-color:#808184"/>
					</linearGradient>
					<path fill="url(#SVGID_6_)" d="M123.473,151.029c0,2.998-2.258,5.451-5.016,5.451H99.766c-2.757,0-5.015-2.453-5.015-5.451
						v-13.188c0-2.998,2.258-5.448,5.015-5.448h18.691c2.758,0,5.016,2.45,5.016,5.448V151.029z"/>
				</g>
				<path fill="#8E9093" d="M111.66,128.631c0.943,0,1.778,0.346,2.28,0.867c-0.502-0.783-1.337-1.299-2.28-1.299h-5.096
					c-0.944,0-1.779,0.516-2.281,1.299c0.502-0.521,1.337-0.867,2.281-0.867H111.66z"/>
				<path fill="#DBDCDD" d="M100.177,133.488h17.87c2.13,0,3.947,1.295,4.566,3.07c-0.619-2.101-2.437-3.631-4.566-3.631h-17.87
					c-2.13,0-3.946,1.53-4.566,3.631C96.23,134.783,98.047,133.488,100.177,133.488z"/>
			</g>
		</g>
		<path fill="#453D3B" d="M107.702,165.34c-2.805,2.182,10.909,1.557,16.831,0.311c5.925-1.25,3.744-8.104,3.744-8.104h-5.928
			C122.35,157.547,110.507,163.158,107.702,165.34z"/>
		<path fill="#453D3B" d="M138.615,157.234c-2.182,7.481,1.562,8.416,1.562,8.416s6.544,1.871,14.025,1.555
			c7.481-0.309-10.599-9.971-10.599-9.971H138.615z"/>
		<path fill="#352E2B" d="M107.702,165.34c0.415-0.326,1.042-0.727,1.786-1.176c3.666,0.379,11.09-0.18,15.045-1.006
			c2.781-0.592,3.77-2.41,4.04-4.182c0.283,2.078,0.168,5.78-4.04,6.674C118.611,166.896,104.897,167.521,107.702,165.34z"/>
		<path fill="#352E2B" d="M140.177,163.158c0,0,6.544,1.869,14.025,1.559c0.284-0.014,0.519-0.049,0.729-0.08
			c1.43,1.406,1.678,2.469-0.729,2.568c-7.481,0.316-14.025-1.555-14.025-1.555s-2.729-0.699-2.151-5.586
			C138.439,162.719,140.177,163.158,140.177,163.158z"/>
		<path fill="#242D3D" d="M121.108,101.476c0,0-1.398,15.114-6.396,24.606l-7.349-1.838c0,0,3.562-10.254,3.556-23.882
			c0-1.526-0.282-5.43,1.96-6.641c2.242-1.212,6.913-3.979,6.913-3.979L121.108,101.476z"/>
		<path fill="#FFF9F0" d="M145.559,90.579c4.84,4.064,6.18,8.941-1.086,16.063c-7.266,7.123-12.395,7.979-12.395,7.979
			s-15.96-15.264-13.116-22.182C122.403,84.07,140.721,86.515,145.559,90.579z"/>
		
			<linearGradient id="SVGID_7_" gradientUnits="userSpaceOnUse" x1="320.7842" y1="-143.6777" x2="331.4629" y2="-143.6777" gradientTransform="matrix(-1 0 0 -1 458.125 -34.6602)">
			<stop  offset="0" style="stop-color:#5FCEFF"/>
			<stop  offset="1" style="stop-color:#0082DF"/>
		</linearGradient>
		<path fill="url(#SVGID_7_)" d="M133.475,96.567c-3.563-0.671-4.786,2.133-4.786,2.133l1.584,3.33l-3.611,9.695l4.506,9.848
			l6.173-9.396l-2.846-9.608l2.629-2.664C137.123,99.906,136.661,97.166,133.475,96.567z"/>
		<path fill="#242D3D" d="M147.344,121.156c0.168,4.615,0.284,9.232,0.428,13.85c0.215,6.912-0.924,16.285,1.332,22.881
			c-1.002,0.482-2.008,0.937-3.035,1.314c-3.933,1.449-7.998,0.029-12.014-0.672c1.234-11.912-1.558-24.072-1.729-35.967
			C132.287,119.773,147.199,117.145,147.344,121.156z"/>
		<path fill="#242D3D" d="M132.709,124.709c-0.934,6.209-0.504,12.813-0.563,19.076c-0.043,4.449,0.14,10.189,0.418,14.637
			c-1.403,0.58-5.698,1.299-6.746,1.291c-2.98-0.023-6.985-1.082-8.789-2.135c1.354-4.572,2.401-13.063,2.846-19.977
			c0.325-5.063-1.236-11.806,0.189-16.713C121.118,117.268,133.637,118.545,132.709,124.709z"/>
		<path fill="#212126" d="M133.669,138.764c-0.296-1.354-1.397-1.438-1.551,0c-0.15,1.438-7.26,0.15-5.558-5.408
			c1.7-5.559,5.331-7.41,9.15-6.313s1.853,10.06,0.416,11.156C134.689,139.293,133.934,139.975,133.669,138.764z"/>
		<path fill="#19191F" d="M147.784,133.525v4.883c0,0-5.798-0.885-14.063,1.289c0,0-0.16-1.021-0.269-1.449
			c-0.106-0.43-1.208-0.564-1.234,0.215s-0.054,1.18-0.054,1.18s-4.375-3.567-12.292-1.422l0.027-4.857l13.042-3.862
			L147.784,133.525z"/>
		<g>
			<path fill="#242D3D" d="M115.222,110.846c-1.229-6.625-4.698-12.611,0.466-18.094c1.088-1.155,2.492-2.102,4.085-2.865
				c-0.227,0.526-0.298,1.074-0.246,1.621c0.984,10.63,12.303,21.481,12.303,21.481s16.663-14.386,13.868-21.575
				c-0.232-0.601-0.524-1.151-0.882-1.654c3.85,1.642,7.541,4.172,8.522,7.695c1.118,4.015-1.748,12.604-2.394,18.305
				c-0.414,3.658-0.653,14.418,0.214,18.121c-2.552,1.154-13.736,3.002-16.362,1.559c-2.15-1.182-3.288-3.688-3.436-4.33
				c-0.066,6.813-16.278,3.854-16.159,3.291C116.008,130.59,116.408,117.234,115.222,110.846z"/>
		</g>
		<path fill="#19191F" d="M131.607,115.529c0,0,1.147,3.012-0.303,8.256C131.305,123.785,131.548,119.799,131.607,115.529z"/>
		<circle fill="#19191F" cx="132.704" cy="124.695" r="1.014"/>
		<circle fill="#19191F" cx="133.186" cy="114.762" r="1.014"/>
		<path fill="#19191F" d="M131.372,131.303l-0.282-5.766c0,0,0.184,6.82-0.839,8.479
			C130.251,134.016,131.126,133.834,131.372,131.303z"/>
		<path opacity="0.25" fill="#4A627D" enable-background="new    " d="M121.226,88.562c0,0-6.603,4.19-9.274,9.228l6.455,2.223
			c0,0-3.583,5.241-3.76,6.072c-0.09,0.435,5.555,1.451,9.659,3.845c3.75,2.188,7.125,4.705,7.125,4.705s0.656-0.787,0.219-1.707
			C131.212,112.008,119.788,101.749,121.226,88.562z"/>
		<path fill="#242D3D" d="M121.226,88.562c0,0-5.168,3.124-7.84,8.16l5.606,3.153c0,0-3.03,4.292-3.205,5.125
			c-0.093,0.436,4.679,2.12,8.782,4.514c3.751,2.189,6.863,5.121,6.863,5.121s0.655-0.787,0.219-1.707
			C131.212,112.008,119.788,101.749,121.226,88.562z"/>
		<path opacity="0.25" fill="#4A627D" enable-background="new    " d="M144.537,89.562c0,0,7.222,3.886,9.398,9.399l-7.207,1.565
			c0,0,2.912,6.486,3.008,7.373c0.059,0.545-5.866-0.475-12.148,2.759c-3.365,1.731-5.697,3.899-5.697,3.899
			s-0.578-0.885-0.056-1.807C132.359,111.826,144.537,103.811,144.537,89.562z"/>
		<path fill="#242D3D" d="M144.537,89.562c0,0,5.671,2.666,7.85,8.179l-6.695,2.507c0,0,2.879,5.514,2.975,6.398
			c0.059,0.547-5.002,0.367-11.285,3.6c-3.365,1.732-5.488,4.311-5.488,4.311s-0.58-0.885-0.057-1.807
			C132.359,111.826,144.537,103.811,144.537,89.562z"/>
		<path opacity="0.2" fill="#A09D98" enable-background="new    " d="M120.567,93.618c0,0,1.448,4.527,6.642,9.124l5.434-4.602
			l5.104,4.863c0,0,4.48-2.722,6.203-8.184c1.724-5.462-13.563-4.968-17.329-2.996C122.854,93.797,120.567,93.618,120.567,93.618z"
			/>
		<path fill="#FFF9F0" d="M132.643,98.14l-5.123,3.217c0,0-10.129-5.255-6.294-12.795c3.448-6.781,20.642-6.234,23.581,1.271
			c2.53,6.467-6.678,11.731-6.678,11.731L132.643,98.14z"/>
		<path fill="#FFCB9E" d="M109.229,131.236c1.033-0.746,1.709-3.494,1.463-4.525c-0.291-1.213-1.366-2.002-2.498-1.334
			c-1.201,0.709-0.827,2.553-0.704,3.436c0.104,0.75,0.123,0.701-0.011,1.439c-0.077,0.424-0.636,0.865-0.392,1.316
			C107.469,132.271,108.684,131.631,109.229,131.236z"/>
		<path fill="#FFCB9E" d="M110.125,130.303c-1.545,1.313-0.806,2.313,0.938,2.17c0.899-0.074,3.78-0.572,2.548-2.109
			C112.922,129.504,110.899,129.646,110.125,130.303z"/>
		<path fill="#673B1D" d="M115.945,64.171c-0.378-6.223,0.312-8.507,0.008-11.021c-1.29-10.698,7.307-18.498,22.443-17.304
			c26.443,2.086,22.021,38.787,14.484,37.199c-5.572-1.173-11.05-2.754-16.572-4.129c-5.143-1.28-10.846-0.298-16.107,0.059
			C116.082,69.254,116.148,67.511,115.945,64.171z"/>
		<path fill="#673B1D" d="M126.441,33.346c0.552,1.26,0.934,1.837,1.441,2.515c-1.944,0.103-4.156,0.3-5.7,0.36
			c0.728,0.818,2.196,2.663,3.621,2.804c4.301,0.428,9.468,0.308,13.757-0.27c1.631-0.22,3.336-0.174,4.942-0.476
			c-0.544-1.518-3.049-2.039-4.41-2.246C137.438,35.629,131.74,35.241,126.441,33.346z"/>
		<path fill="#F2B88E" d="M125.93,90.486c1.047,1.042,2.761,2.069,4.534,2.611c1.261,0.386,3.474,1.869,3.864,1.877
			c0.158,0.003,0.888-0.635,2.079-1.248c1.743-0.898,4.212-2.086,5.171-3.966c1.404-2.75,2.658-8.195,0.003-10.333
			c-2.75-2.212-8.11-2.567-11.396-1.847c-3.425,0.752-5.701,4.008-5.938,7.361C124.063,87.539,124.479,89.045,125.93,90.486z"/>
		<path fill="#FFCB9E" d="M154.455,70.536c-2.316,11.77-12.907,20.216-23.656,18.864c-10.748-1.352-17.583-11.988-15.268-23.757
			c2.314-11.771,12.905-20.216,23.654-18.865C149.936,48.129,156.771,58.767,154.455,70.536z"/>
		<path fill="#FFCB9E" d="M155.734,75.774c-1.434,0.294-2.926,0.2-4.354-0.035c-0.025-0.041-0.051-0.082-0.078-0.124
			c-0.585-0.951,0.855-5.362,1.243-6.262c0.976-2.268,2.437-3.792,4.966-2.912C162.784,68.276,160.193,74.858,155.734,75.774z"/>
		<path opacity="0.6" fill="#D9AF96" enable-background="new    " d="M153.085,74.134c-2.42-1.022-0.39-4.771,1.358-5.423
			c1.433-0.535,5.121,0.245,3.522,2.385c-1.009-1.911-2.55-0.593-2.229,0.775c0.216,0.919,1.57,0.892,0.289,2.117
			C155.334,74.65,153.848,74.456,153.085,74.134z"/>
		<path fill="#2B2521" d="M120.414,54.987c-1.357-0.232-1.694-0.964-0.27-1.392c0.815-0.245,1.782-0.134,2.617-0.053
			c0.511,0.05,2.49-0.017,2.82,0.449C126.818,55.738,120.931,55.076,120.414,54.987z"/>
		<path fill="#673B1D" d="M143.109,59.357c1.353,0.257,1.925-0.311,0.74-1.209c-0.68-0.515-1.623-0.749-2.436-0.964
			c-0.496-0.133-2.326-0.887-2.801-0.565C136.846,57.821,142.596,59.261,143.109,59.357z"/>
		<path fill="#673B1D" d="M122.023,59.854c-1.353,0.257-1.924-0.311-0.74-1.209c0.679-0.515,1.624-0.749,2.435-0.965
			c0.497-0.132,2.326-0.887,2.8-0.565C128.287,58.317,122.538,59.757,122.023,59.854z"/>
		<path opacity="0.35" fill="#B55623" enable-background="new    " d="M135.854,69.146c0.744,0.601-0.418,3.112-3.433,3.543
			c-3.027,0.432-4.936-1.923-3.834-2.673c1.103-0.751,1.896-0.15,3.61-0.359C134.102,69.424,134.992,68.449,135.854,69.146z"/>
		<path fill="#673B1D" d="M120.432,57.123c3.262-0.688,4.863-1.7,7.978-2.845c-0.107,0.999-0.463,2.616-0.338,3.637
			c1.887-0.65,9.116-2.822,12.878-3.972c-0.353,0.857-0.38,1.895-0.644,2.824c1.981-0.875,4.233-3.267,6.545-3.093
			c1.39,0.105,1.504,0.974,1.752,2.207c0.364,1.809,0.896,3.342,1.481,5.078c1.394,4.125,0.683,8.524-1.06,10.138
			c0.926,0.244,2.08,0.243,2.605-0.016c0.68-0.884,1.915-3.489,2.002-5.611c0.145-3.532,1.575-6.857,1.52-10.458
			c-0.076-4.957-0.941-8.887-4.788-12.249c-3.315-2.896-5.75-4.688-9.978-5.871c-15.755-4.407-26.611,5.378-29,19.325
			c2.219-0.189,5.758-1.233,7.753-2.609C119.226,54.023,120.126,56.633,120.432,57.123z"/>
		<path fill="#754829" d="M118.631,44.397c-0.554,0.678-1.063,1.388-1.522,2.121c-1.246,1.989-2.239,4.254-3.027,6.46
			c2.006-1.408,5.23-2.099,7.647-2.196c0.107,1.295,0.593,2.498,0.683,3.828c2.343-1.421,4.79-2.674,7.612-2.787
			c0.3,0.915,0.282,2.004,0.348,2.98c1.211-0.599,9.479-3.052,12.326-3.644c-0.175,0.998-0.022,2.111-0.236,3.139
			c1.538-0.733,6.914-4.808,7.989-5.847c2.083-2.014,0.585-4.869-1.064-6.604c-1.523-1.604-3.634-2.857-5.709-3.572
			c-4.074-1.406-8.26-1.339-12.486-0.961C126.277,37.752,121.745,40.59,118.631,44.397z"/>
		<polygon fill="#242D3D" points="149.225,92.563 171.673,80.212 169.332,95.57 150.031,102.625 		"/>
		<g>
			
				<linearGradient id="SVGID_8_" gradientUnits="userSpaceOnUse" x1="2908.6836" y1="837.7197" x2="2908.6836" y2="824.0216" gradientTransform="matrix(0.1039 0.9946 0.9946 -0.1039 -953.705 -2720.0381)">
				<stop  offset="0" style="stop-color:#FFE0B3"/>
				<stop  offset="1" style="stop-color:#F7B188"/>
			</linearGradient>
			<path fill="url(#SVGID_8_)" d="M170.996,93.755c-1.973-0.808-3.6-2.754-2.25-6.427c-1.105-3.309-0.963-5.857,0.781-7.836
				c1.357-1.539,5.688-1.131,7.623-0.928c2.191,0.231,2.926,0.451,4.007,2.276c2.84,4.8-0.541,13.751-3.017,13.877
				C176.116,94.82,173.223,94.668,170.996,93.755z"/>
			
				<linearGradient id="SVGID_9_" gradientUnits="userSpaceOnUse" x1="404.6699" y1="-160.2222" x2="401.5739" y2="-176.1444" gradientTransform="matrix(0.9987 -0.0507 -0.0507 -0.9987 -238.0502 -68.8314)">
				<stop  offset="0" style="stop-color:#FFE0B3"/>
				<stop  offset="0.5091" style="stop-color:#FFD39C"/>
				<stop  offset="1" style="stop-color:#F6AE85"/>
			</linearGradient>
			<path fill="url(#SVGID_9_)" d="M169.744,86.924c-0.131-0.067-0.262-0.143-0.393-0.225c-1.742-1.106-1.471-3.498-1.074-5.182
				c0.463-1.965,1.797-3.945,2.791-5.671c0.537-0.93,0.193-3.535,0.381-4.578c0.229-1.292,0.186-2.32,1.554-2.793
				c2.565-0.888,4.291,1.47,4.448,3.637c0.145,1.995-0.428,4.014-0.086,7.089c0.191,1.725-1.424,3.936-2.414,5.74
				C173.788,87.055,171.764,87.971,169.744,86.924z"/>
			
				<linearGradient id="SVGID_10_" gradientUnits="userSpaceOnUse" x1="819.8828" y1="-180.8379" x2="818.3602" y2="-184.6443" gradientTransform="matrix(1.158 -0.0588 -0.0507 -0.9987 -781.1923 -41.2835)">
				<stop  offset="0" style="stop-color:#FFE0B3"/>
				<stop  offset="0.5091" style="stop-color:#FFD39C"/>
				<stop  offset="1" style="stop-color:#F6AE85"/>
			</linearGradient>
			<path fill="url(#SVGID_10_)" d="M180.117,91.099c-1.02-0.311-2.784-0.234-3.932-0.244c-1.246-0.01-2.891,0.014-3.701,0.844
				c-0.57,0.584-0.432,1.723,0.127,2.248c0.658,0.622,1.848,0.807,2.964,0.861c1.684,0.083,4.309,0.308,5.364-0.928
				C181.729,92.957,181.591,91.548,180.117,91.099z"/>
			
				<linearGradient id="SVGID_11_" gradientUnits="userSpaceOnUse" x1="820.7285" y1="-176.7637" x2="819.4952" y2="-181.5118" gradientTransform="matrix(1.158 -0.0588 -0.0507 -0.9987 -781.1923 -41.2835)">
				<stop  offset="0" style="stop-color:#FFE0B3"/>
				<stop  offset="0.5091" style="stop-color:#FFD39C"/>
				<stop  offset="1" style="stop-color:#F6AE85"/>
			</linearGradient>
			<path fill="url(#SVGID_11_)" d="M181.729,87.16c-1.231-0.361-3.365-0.268-4.75-0.276c-1.508-0.009-3.492,0.022-4.476,0.992
				c-0.69,0.683-0.524,2.01,0.146,2.622c0.795,0.723,2.233,0.936,3.582,0.997c2.035,0.093,5.205,0.35,6.484-1.093
				C183.671,89.323,183.507,87.681,181.729,87.16z"/>
			
				<linearGradient id="SVGID_12_" gradientUnits="userSpaceOnUse" x1="821.4199" y1="-172.9678" x2="820.2425" y2="-177.5535" gradientTransform="matrix(1.158 -0.0588 -0.0507 -0.9987 -781.1923 -41.2835)">
				<stop  offset="0" style="stop-color:#FFE0B3"/>
				<stop  offset="0.5091" style="stop-color:#FFD39C"/>
				<stop  offset="1" style="stop-color:#F6AE85"/>
			</linearGradient>
			<path fill="url(#SVGID_12_)" d="M182.797,83.116c-1.365-0.39-3.729-0.286-5.264-0.294c-1.67-0.008-3.871,0.027-4.961,1.082
				c-0.766,0.741-0.584,2.181,0.16,2.844c0.881,0.783,2.474,1.012,3.968,1.078c2.254,0.099,5.769,0.373,7.187-1.194
				C184.945,85.46,184.768,83.679,182.797,83.116z"/>
			
				<linearGradient id="SVGID_13_" gradientUnits="userSpaceOnUse" x1="821.0732" y1="-168.5518" x2="819.9085" y2="-173.0881" gradientTransform="matrix(1.158 -0.0588 -0.0507 -0.9987 -781.1923 -41.2835)">
				<stop  offset="0" style="stop-color:#FFE0B3"/>
				<stop  offset="0.5091" style="stop-color:#FFD39C"/>
				<stop  offset="1" style="stop-color:#F6AE85"/>
			</linearGradient>
			<path fill="url(#SVGID_13_)" d="M181.995,78.71c-1.312-0.393-3.583-0.293-5.056-0.304c-1.604-0.012-3.717,0.02-4.762,1.072
				c-0.732,0.739-0.557,2.179,0.159,2.843c0.847,0.786,2.378,1.018,3.813,1.086c2.164,0.103,5.539,0.385,6.897-1.179
				C184.064,81.059,183.889,79.277,181.995,78.71z"/>
		</g>
		<path fill="#9E2626" d="M127.207,78.697c-0.444,0.155-0.164,0.206-0.046,0.409c2.954,3.534,10.903,3.027,14.163-1.485
			c-0.967-0.155-1.706-0.314-2.463,0.013C134.686,79.437,130.196,79.219,127.207,78.697z"/>
		<path fill="#DFF4F4" d="M141.299,62.489c-0.656-0.026-1.232,0.157-1.73,0.577c-0.498,0.419-0.76,0.917-0.785,1.52
			c-0.026,0.603,0.184,1.127,0.654,1.572c0.446,0.446,1.022,0.682,1.679,0.708c0.681,0.026,1.284-0.183,1.782-0.603
			c0.498-0.419,0.76-0.917,0.787-1.52c0.024-0.604-0.211-1.102-0.684-1.546C142.531,62.751,141.954,62.516,141.299,62.489
			L141.299,62.489z"/>
		<path fill="#CCEEED" d="M143.814,62.489c-0.235-0.209-0.444-0.366-0.683-0.498c-0.097-0.009-0.192-0.009-0.289-0.017l-0.088-0.207
			l-1.465-0.435l-1.938,0.598l-0.209,0.305h0.018c-0.029,0.007-0.061,0.01-0.09,0.018c-0.026,0.027-0.078,0.052-0.104,0.079
			c-0.341,0.289-0.604,0.629-0.786,1.022c-0.184,0.34-0.262,0.708-0.289,1.127c-0.024,0.839,0.262,1.573,0.918,2.176
			c0.629,0.603,1.416,0.944,2.387,0.969c0.943,0.027,1.756-0.262,2.438-0.838c0.708-0.551,1.074-1.258,1.1-2.098
			C144.759,63.826,144.471,63.092,143.814,62.489z M142.896,66.264c-0.496,0.419-1.102,0.629-1.781,0.603
			c-0.655-0.026-1.231-0.262-1.68-0.708c-0.471-0.445-0.681-0.97-0.653-1.572c0.026-0.603,0.288-1.101,0.786-1.52
			c0.498-0.42,1.074-0.603,1.729-0.577c0.655,0.026,1.231,0.262,1.703,0.708c0.472,0.445,0.708,0.943,0.683,1.546
			C143.657,65.347,143.396,65.845,142.896,66.264z"/>
		<g>
			<path fill="#AA7D5E" d="M141.313,67.839L141.313,67.839l-0.125-0.001c-0.99-0.027-1.84-0.373-2.524-1.028
				c-0.679-0.625-1.011-1.411-0.981-2.334c0.031-0.497,0.131-0.882,0.313-1.221c0.188-0.409,0.474-0.777,0.836-1.084
				c0.008-0.008,0.038-0.032,0.071-0.053c0.006-0.007,0.033-0.026,0.041-0.033c0.658-0.499,1.447-0.752,2.349-0.752l0.146,0.001
				h0.002c0.377,0,0.738,0.055,1.104,0.167c0.273,0.092,0.486,0.175,0.704,0.312c0.229,0.126,0.442,0.283,0.71,0.519
				c0.686,0.631,1.018,1.426,0.988,2.366c-0.028,0.91-0.428,1.669-1.184,2.257C143.068,67.54,142.243,67.839,141.313,67.839z
				 M141.291,61.755c-0.807,0-1.512,0.224-2.094,0.667c0.001,0.002-0.029,0.025-0.063,0.046c-0.35,0.293-0.595,0.612-0.765,0.976
				c-0.16,0.298-0.241,0.62-0.27,1.052c-0.023,0.799,0.254,1.458,0.851,2.007c0.608,0.584,1.364,0.89,2.248,0.914l0.112,0.001
				c0.828,0,1.563-0.266,2.184-0.791c0.658-0.512,1.002-1.164,1.025-1.942c0.025-0.823-0.252-1.491-0.85-2.04
				c-0.238-0.211-0.432-0.353-0.641-0.468c-0.191-0.12-0.377-0.192-0.619-0.273c-0.318-0.098-0.643-0.147-0.982-0.147
				L141.291,61.755z"/>
		</g>
		<g>
			<g>
				<circle fill="#0C0101" cx="141.387" cy="64.027" r="1.51"/>
				
					<linearGradient id="SVGID_14_" gradientUnits="userSpaceOnUse" x1="450.5537" y1="-98.687" x2="454.1367" y2="-98.687" gradientTransform="matrix(1 0 0 -1 -310.96 -34.6602)">
					<stop  offset="0" style="stop-color:#5FCEFF"/>
					<stop  offset="1" style="stop-color:#0082DF"/>
				</linearGradient>
				<path fill="url(#SVGID_14_)" d="M142.093,65.673c-0.907,0.39-1.963-0.031-2.354-0.939c-0.389-0.907,0.033-1.962,0.939-2.353
					c0.907-0.39,1.963,0.032,2.354,0.939C143.422,64.228,143,65.283,142.093,65.673z M140.9,62.897
					c-0.623,0.268-0.912,0.992-0.645,1.615c0.268,0.623,0.991,0.912,1.614,0.644c0.622-0.267,0.912-0.992,0.644-1.614
					C142.248,62.919,141.523,62.63,140.9,62.897z"/>
			</g>
			<circle fill="#FFFFFF" cx="140.124" cy="63.907" r="0.456"/>
			<circle fill="#FFFFFF" cx="142.521" cy="64.597" r="0.188"/>
		</g>
		<g>
			<path fill="#DFF4F4" d="M124.051,63.347c-0.655-0.026-1.232,0.157-1.729,0.577c-0.498,0.419-0.761,0.917-0.787,1.521
				c-0.026,0.604,0.184,1.127,0.654,1.573c0.447,0.446,1.023,0.682,1.679,0.708c0.682,0.025,1.285-0.184,1.783-0.604
				c0.497-0.42,0.76-0.917,0.786-1.52c0.025-0.604-0.21-1.102-0.683-1.547C125.283,63.609,124.706,63.373,124.051,63.347
				L124.051,63.347z"/>
			<path fill="#CCEEED" d="M126.567,63.347c-0.236-0.209-0.445-0.366-0.682-0.498c-0.098-0.009-0.193-0.009-0.29-0.016l-0.088-0.207
				l-1.464-0.435l-1.94,0.597l-0.208,0.306l0.018-0.001c-0.03,0.007-0.061,0.01-0.09,0.018c-0.026,0.026-0.079,0.053-0.105,0.079
				c-0.341,0.289-0.604,0.629-0.786,1.022c-0.184,0.341-0.262,0.708-0.288,1.127c-0.025,0.838,0.262,1.572,0.917,2.176
				c0.628,0.603,1.416,0.943,2.386,0.969c0.943,0.026,1.756-0.262,2.438-0.838c0.708-0.55,1.074-1.258,1.101-2.097
				C127.512,64.684,127.223,63.95,126.567,63.347z M125.65,67.122c-0.498,0.419-1.102,0.629-1.783,0.604
				c-0.655-0.027-1.231-0.263-1.679-0.708c-0.471-0.445-0.681-0.97-0.654-1.573c0.027-0.603,0.289-1.101,0.787-1.521
				c0.497-0.419,1.074-0.603,1.729-0.577c0.655,0.026,1.232,0.263,1.703,0.708c0.473,0.446,0.708,0.943,0.683,1.547
				C126.41,66.204,126.147,66.702,125.65,67.122z"/>
			<g>
				<path fill="#AA7D5E" d="M124.064,68.696L124.064,68.696l-0.125-0.001c-0.991-0.026-1.841-0.373-2.524-1.028
					c-0.68-0.625-1.011-1.411-0.982-2.334c0.031-0.496,0.131-0.882,0.314-1.221c0.188-0.408,0.473-0.776,0.836-1.083
					c0.007-0.008,0.038-0.031,0.07-0.053c0.006-0.007,0.034-0.026,0.042-0.033c0.657-0.499,1.447-0.752,2.349-0.752l0.145,0.002
					h0.001c0.377,0,0.739,0.054,1.104,0.167c0.275,0.092,0.486,0.175,0.704,0.311c0.229,0.126,0.443,0.283,0.71,0.519
					c0.686,0.631,1.018,1.427,0.988,2.367c-0.028,0.909-0.426,1.668-1.182,2.256C125.821,68.397,124.996,68.696,124.064,68.696z
					 M124.044,62.612c-0.807,0-1.512,0.225-2.094,0.667c0.001,0.002-0.03,0.025-0.063,0.047c-0.351,0.292-0.596,0.612-0.765,0.976
					c-0.16,0.298-0.242,0.62-0.271,1.051c-0.023,0.8,0.255,1.458,0.851,2.007c0.609,0.584,1.365,0.891,2.248,0.914l0.113,0.002
					c0.828,0,1.563-0.266,2.184-0.791c0.659-0.512,1.002-1.164,1.025-1.942c0.025-0.823-0.252-1.491-0.848-2.041
					c-0.239-0.211-0.433-0.353-0.643-0.468c-0.19-0.12-0.377-0.192-0.618-0.273c-0.319-0.099-0.643-0.146-0.982-0.146
					L124.044,62.612z"/>
			</g>
			<g>
				<g>
					<circle fill="#0C0101" cx="124.139" cy="64.885" r="1.51"/>
					
						<linearGradient id="SVGID_15_" gradientUnits="userSpaceOnUse" x1="433.3066" y1="-99.5459" x2="436.8896" y2="-99.5459" gradientTransform="matrix(1 0 0 -1 -310.96 -34.6602)">
						<stop  offset="0" style="stop-color:#5FCEFF"/>
						<stop  offset="1" style="stop-color:#0082DF"/>
					</linearGradient>
					<path fill="url(#SVGID_15_)" d="M125.068,66.417c-0.846,0.512-1.949,0.243-2.461-0.602c-0.513-0.844-0.242-1.948,0.602-2.461
						c0.845-0.512,1.948-0.242,2.461,0.603C126.183,64.801,125.912,65.904,125.068,66.417z M123.501,63.834
						c-0.58,0.352-0.765,1.109-0.414,1.689c0.353,0.579,1.11,0.765,1.689,0.413s0.765-1.109,0.412-1.688
						C124.838,63.668,124.08,63.483,123.501,63.834z"/>
				</g>
				<circle fill="#FFFFFF" cx="122.872" cy="64.942" r="0.457"/>
				<circle fill="#FFFFFF" cx="125.343" cy="65.291" r="0.187"/>
			</g>
		</g>
	</g>
</g>
<g>
	<path fill="#666666" d="M30.672,14.812c9.143,0,16.581,7.438,16.581,16.582c0,9.142-7.438,16.582-16.581,16.582
		c-9.143,0-16.582-7.439-16.582-16.582C14.09,22.25,21.529,14.812,30.672,14.812 M30.672,12.969
		c-10.174,0-18.424,8.249-18.424,18.424s8.25,18.423,18.424,18.423s18.424-8.248,18.424-18.423S40.846,12.969,30.672,12.969
		L30.672,12.969z M30.672,12.969"/>
	<path fill="#666666" d="M38.033,29.395l-9.81-6.457c-1.693-1.113-3.078-0.367-3.078,1.66v13.588c0,2.025,1.387,2.775,3.083,1.666
		l9.801-6.414C39.725,32.327,39.727,30.508,38.033,29.395L38.033,29.395z M36.726,32.083l-8.711,5.7
		c-0.565,0.371-1.028,0.121-1.028-0.555V25.554c0-0.676,0.462-0.925,1.026-0.553l8.714,5.735
		C37.292,31.107,37.292,31.713,36.726,32.083L36.726,32.083z M36.726,32.083"/>
</g>
</svg>
