<?xml version="1.0" encoding="utf-8"?>
<!-- Generator: Adobe Illustrator 16.0.0, SVG Export Plug-In . SVG Version: 6.00 Build 0)  -->
<!DOCTYPE svg PUBLIC "-//W3C//DTD SVG 1.1//EN" "http://www.w3.org/Graphics/SVG/1.1/DTD/svg11.dtd" [
	<!ENTITY ns_extend "http://ns.adobe.com/Extensibility/1.0/">
	<!ENTITY ns_ai "http://ns.adobe.com/AdobeIllustrator/10.0/">
	<!ENTITY ns_graphs "http://ns.adobe.com/Graphs/1.0/">
	<!ENTITY ns_vars "http://ns.adobe.com/Variables/1.0/">
	<!ENTITY ns_imrep "http://ns.adobe.com/ImageReplacement/1.0/">
	<!ENTITY ns_sfw "http://ns.adobe.com/SaveForWeb/1.0/">
	<!ENTITY ns_custom "http://ns.adobe.com/GenericCustomNamespace/1.0/">
	<!ENTITY ns_adobe_xpath "http://ns.adobe.com/XPath/1.0/">
]>
<svg version="1.1" id="Layer_1" xmlns:x="&ns_extend;" xmlns:i="&ns_ai;" xmlns:graph="&ns_graphs;"
	 xmlns="http://www.w3.org/2000/svg" xmlns:xlink="http://www.w3.org/1999/xlink" x="0px" y="0px" width="1681.334px"
	 height="891px" viewBox="0 0 1681.334 891" enable-background="new 0 0 1681.334 891" xml:space="preserve">
<metadata><?xpacket begin="﻿" id="W5M0MpCehiHzreSzNTczkc9d"?>
<x:xmpmeta xmlns:x="adobe:ns:meta/" x:xmptk="Adobe XMP Core 5.3-c011 66.145661, 2012/02/06-14:56:27        ">
   <rdf:RDF xmlns:rdf="http://www.w3.org/1999/02/22-rdf-syntax-ns#">
      <rdf:Description rdf:about=""
            xmlns:dc="http://purl.org/dc/elements/1.1/">
         <dc:format>image/svg+xml</dc:format>
         <dc:title>
            <rdf:Alt>
               <rdf:li xml:lang="x-default">Mix with business 9</rdf:li>
            </rdf:Alt>
         </dc:title>
      </rdf:Description>
      <rdf:Description rdf:about=""
            xmlns:xmp="http://ns.adobe.com/xap/1.0/"
            xmlns:xmpGImg="http://ns.adobe.com/xap/1.0/g/img/">
         <xmp:MetadataDate>2017-12-18T15:55:34+02:00</xmp:MetadataDate>
         <xmp:ModifyDate>2017-12-18T15:55:34+02:00</xmp:ModifyDate>
         <xmp:CreateDate>2017-12-18T15:55:33+02:00</xmp:CreateDate>
         <xmp:CreatorTool>Adobe Illustrator CS6 (Windows)</xmp:CreatorTool>
         <xmp:Thumbnails>
            <rdf:Alt>
               <rdf:li rdf:parseType="Resource">
                  <xmpGImg:width>256</xmpGImg:width>
                  <xmpGImg:height>136</xmpGImg:height>
                  <xmpGImg:format>JPEG</xmpGImg:format>
                  <xmpGImg:image>/9j/4AAQSkZJRgABAgEASABIAAD/7QAsUGhvdG9zaG9wIDMuMAA4QklNA+0AAAAAABAASAAAAAEA&#xA;AQBIAAAAAQAB/+4ADkFkb2JlAGTAAAAAAf/bAIQABgQEBAUEBgUFBgkGBQYJCwgGBggLDAoKCwoK&#xA;DBAMDAwMDAwQDA4PEA8ODBMTFBQTExwbGxscHx8fHx8fHx8fHwEHBwcNDA0YEBAYGhURFRofHx8f&#xA;Hx8fHx8fHx8fHx8fHx8fHx8fHx8fHx8fHx8fHx8fHx8fHx8fHx8fHx8fHx8f/8AAEQgAiAEAAwER&#xA;AAIRAQMRAf/EAaIAAAAHAQEBAQEAAAAAAAAAAAQFAwIGAQAHCAkKCwEAAgIDAQEBAQEAAAAAAAAA&#xA;AQACAwQFBgcICQoLEAACAQMDAgQCBgcDBAIGAnMBAgMRBAAFIRIxQVEGE2EicYEUMpGhBxWxQiPB&#xA;UtHhMxZi8CRygvElQzRTkqKyY3PCNUQnk6OzNhdUZHTD0uIIJoMJChgZhJRFRqS0VtNVKBry4/PE&#xA;1OT0ZXWFlaW1xdXl9WZ2hpamtsbW5vY3R1dnd4eXp7fH1+f3OEhYaHiImKi4yNjo+Ck5SVlpeYmZ&#xA;qbnJ2en5KjpKWmp6ipqqusra6voRAAICAQIDBQUEBQYECAMDbQEAAhEDBCESMUEFURNhIgZxgZEy&#xA;obHwFMHR4SNCFVJicvEzJDRDghaSUyWiY7LCB3PSNeJEgxdUkwgJChgZJjZFGidkdFU38qOzwygp&#xA;0+PzhJSktMTU5PRldYWVpbXF1eX1RlZmdoaWprbG1ub2R1dnd4eXp7fH1+f3OEhYaHiImKi4yNjo&#xA;+DlJWWl5iZmpucnZ6fkqOkpaanqKmqq6ytrq+v/aAAwDAQACEQMRAD8A9U4q7FXYq7FXYq7FXYq7&#xA;FXYq7FXYq7FXYq7FXYq7FXYq7FXYq7FXYq7FXYq7FXYq7FXYq7FXYq7FXYq7FXYq7FXYq7FXYq7F&#xA;XYq7FXYq7FXYq7FXYq7FXYq7FXYq7FXYq7FXYq7FXYq7FXYq7FXYq7FXYq7FXYq7FXYq7FXYq7FX&#xA;Yq7FXYq7FXYq7FXYq7FXYq7FXYq7FXYq7FXYq7FXYq7FXYq7FXYq7FXYq7FXYq7FXYq7FXYq7FXY&#xA;q7FXYq7FXYq7FXYq7FXYq7FXYq7FXYq7FXYq7FXYq7FXYq7FXYq7FXYq7FXYq7FXYq7FXYq7FXYq&#xA;7FXYq7FXYq7FXYq7FXYq7FXYq7FXYq7FXYq7FXYq7FXYq7FXYq7FXYq7FXYq7FXYq7FXYq7FXYq7&#xA;FXYq7FXYq7FXYq7FXYq7FXYq7FXYq7FXYq7FXYq7FXYq7FXYq7FXYq7FXYq7FXYq7FXYq7FXYq7F&#xA;XYq7FXYq7FXYq7FXYq7FXYq7FXYq7FXYq7FXYq7FXYq7FXYq7FXYq7FXYq7FXYq7FXYq7FXYq7FX&#xA;Yq7FXYq7FXYq7FXYq7FXYq7FXYq7FXYq7FXYq7FXYq7FXYq7FXYq7FXYq7FXYq7FXYq7FXYq7FXY&#xA;q7FXYq7FXYq7FXYq7FXYq7FXYq7FXYq7FXYq7FXYq7FXYq7FXYq7FXYqgbTXdFvL2axs76C5vLdQ&#xA;88EMiuyAmg58SeO/jiqOxV2KuxV2KuxV2KuxV2KuxV2KuxV2KuxV2KuxV2KuxV2KuxV2KuxV2Kux&#xA;V2KuxV2KuxV2KuxVjvmfzromjQXMT3DSX0MRke3tlE0sS/zyAkJGvgZCAffASrzFPL3mjz5O8upe&#xA;YLm18vyFWiZ5UhEkdPiRbQRW/L2kkC/JuuKsx8h/lt5Y8malcX9hqslxJcQ+g6TvFQDkr1HALv8A&#xA;DhVnH1+x/wCWmL/g1/riqsrK6hlIZTuGG4IxVvFXYq7FXYq7FXYq7FXYq7FXYq7FXYq7FXYq7FXY&#xA;q7FXYq7FXYq7FXYq7FXYq7FXYqxfzh5a8264rW+m+ZBolkwoywWhedtt6z+shA/1FX5nFWA6t+V9&#xA;vo+nsmqebNLsrZ9y1zpdsGdgKc/3kxMj++5yPCm3mtzeeWdDQ2Wg6ha63cSP/vTdaRAIySaU9W7m&#xA;fgo9owPfCQtsl03RvIDxLq/nHW9Lme3TkukaPHBCpPhIbZUeVvYdPGmVknoy2YZ53836XrU4g0bR&#xA;bPSNMiP7v0beFbiSmwaSVV5f7EH51ycY1zYkvq7y7p36M8v6Zp1KGztYYDTxjjCn8RkkJhirsVdi&#xA;rsVdirsVdirsVdirsVdirsVdirsVdirsVdirsVdirsVdirsVdirsVS/WPMOhaND62q38FklKj1pF&#xA;Qt/qqTyb6BirzfzD/wA5FeVLLlHo9tPqsw6SH/R4f+CcGT/hMVeZ69+eX5gayxgtbhdMhkPFYbFS&#xA;JDXp+8blJX/VIxVH+VfyV81eYpxqXmSeWwt5fiYzkyXktf8AJYnh8339sqllA5MhFkvnLSfyb8l2&#xA;S20+lrqGq8P3Vn60plavR5mDURT8vkMjEyKTQeH39zHdXktxFbx2kcjVS2h5emg7KvMs33nLwwTH&#xA;yZp36S826NYEVW4vIEk2r8HqDmaey1xV9n4q7FXYq7FXYq7FXYq7FXYq7FXYq7FXYq7FXYq7FXYq&#xA;7FXYq7FXYq7FUt1nzL5f0WL1NW1C3slpUCaRVZh/kpXk30DFXm/mH/nIzyvZ8o9FtJtUlFQsr/6P&#xA;D7GrAyH/AIAYq8x8w/nj5/1fkkV2ul27f7qsl9Nqf8ZWLSV+TDFWB3FxcXMzTXErzTOavLIxZifd&#xA;jUnFVy2d4yhlgkKkVBCMQQfoxVmflHzvH5SiE9v5ZhlvlHx6jcmQyVO3wVHGMb/s/TXISjfVkDSd&#xA;6v8A85B+aLywktrO0g0+aQcfrSFndR34BvhB98iMQXieXz3E9xM888jSzSsWklclmZjuSSdyctYq&#xA;eKvQ/wAh9N+ufmPZSleSWMM9y3h9gxKT/spRir6lxV2KuxV2KuxV2KuxV2KuxV2KuxV2KuxV2Kux&#xA;V2KuxV2KuxV2KuxV5t+feuaxo/ky2n0q8lsp57+OCWWBijmNoZmKhhuN0HTFXzJPPPPK008jSzOa&#xA;vI5LMT4knc4qp4qyHyp5E8zeaLj09KtSYAaS3knwQJ83PU/5K1PtkZSASBb3TyX+SXlrQvTutSA1&#xA;bUloQ0q/uEP+REa1+b19gMolkJZiLJfN/njy95TshNqUwEzA/VrKOhmkp/KvZf8AKO2RjElJNPnP&#xA;zz+ZfmDzbOVuH+q6YrVh06IngKdGkO3qN7n6AMyIwAaybYjk0OxV2KvbP+cZtN5ajreplf7mGG2R&#xA;u/71mdgP+RS4q98xV2KuxV2KuxV2KuxV2KuxV2KuxV2KuxV2KuxV2KuxV2KuxV2KuxVLPMHlrQ/M&#xA;NmllrNot5axyCZImZlAkVWUNVCp6OcVSD/lTn5af9WOL/kZN/wA14q4fk7+WoIP6Di2/4smP/G+K&#xA;smt9H062gS3tovQgjHGOKNnRFHgqqQBkOAJsqn1C2/y/+Rkn/NWPhheIse1H8rvImpXkl5qGli6u&#xA;pTWSaWadmP0mToOwyQFIQ3/KnPy0/wCrHF/yMm/5rwq7/lTn5af9WOL/AJGTf814q7/lTn5af9WO&#xA;L/kZN/zXirv+VOflp/1Y4v8AkZN/zXiqe+XvKvl/y7BLBotmtnFOweVVLtyYCgNXLHpiqa4q7FXY&#xA;q7FXYq7FXYq7FXYq7FXYq7FXYq7FXYq7FXYq7FXYq7FXYq7FXYq7FXYq7FXYq7FXYq7FXYq7FXYq&#xA;7FXYq7FXYq7FXYq7FXYq7FXYq7FXYq7FXYq7FXYq7FXYq7FXYq7FXYq7FXYq7FXYq7FXYq7FXYq7&#xA;FXYq7FXYq7FXYq7FXYq7FXYq7FXYq7FXYq//2Q==</xmpGImg:image>
               </rdf:li>
            </rdf:Alt>
         </xmp:Thumbnails>
      </rdf:Description>
      <rdf:Description rdf:about=""
            xmlns:xmpMM="http://ns.adobe.com/xap/1.0/mm/"
            xmlns:stRef="http://ns.adobe.com/xap/1.0/sType/ResourceRef#"
            xmlns:stEvt="http://ns.adobe.com/xap/1.0/sType/ResourceEvent#">
         <xmpMM:InstanceID>xmp.iid:5B4DD3EFEDE3E711B700E64C78EBC1E6</xmpMM:InstanceID>
         <xmpMM:DocumentID>xmp.did:5B4DD3EFEDE3E711B700E64C78EBC1E6</xmpMM:DocumentID>
         <xmpMM:OriginalDocumentID>uuid:5D20892493BFDB11914A8590D31508C8</xmpMM:OriginalDocumentID>
         <xmpMM:RenditionClass>proof:pdf</xmpMM:RenditionClass>
         <xmpMM:DerivedFrom rdf:parseType="Resource">
            <stRef:instanceID>xmp.iid:5A4DD3EFEDE3E711B700E64C78EBC1E6</stRef:instanceID>
            <stRef:documentID>xmp.did:5A4DD3EFEDE3E711B700E64C78EBC1E6</stRef:documentID>
            <stRef:originalDocumentID>uuid:5D20892493BFDB11914A8590D31508C8</stRef:originalDocumentID>
            <stRef:renditionClass>proof:pdf</stRef:renditionClass>
         </xmpMM:DerivedFrom>
         <xmpMM:History>
            <rdf:Seq>
               <rdf:li rdf:parseType="Resource">
                  <stEvt:action>saved</stEvt:action>
                  <stEvt:instanceID>xmp.iid:8A26D0D0C44EE411A070B747B3E36FA9</stEvt:instanceID>
                  <stEvt:when>2014-10-08T11:26:35+03:00</stEvt:when>
                  <stEvt:softwareAgent>Adobe Illustrator CS5.1</stEvt:softwareAgent>
                  <stEvt:changed>/</stEvt:changed>
               </rdf:li>
               <rdf:li rdf:parseType="Resource">
                  <stEvt:action>saved</stEvt:action>
                  <stEvt:instanceID>xmp.iid:5B4DD3EFEDE3E711B700E64C78EBC1E6</stEvt:instanceID>
                  <stEvt:when>2017-12-18T15:55:34+02:00</stEvt:when>
                  <stEvt:softwareAgent>Adobe Illustrator CS6 (Windows)</stEvt:softwareAgent>
                  <stEvt:changed>/</stEvt:changed>
               </rdf:li>
            </rdf:Seq>
         </xmpMM:History>
      </rdf:Description>
      <rdf:Description rdf:about=""
            xmlns:illustrator="http://ns.adobe.com/illustrator/1.0/">
         <illustrator:StartupProfile>Print</illustrator:StartupProfile>
      </rdf:Description>
      <rdf:Description rdf:about=""
            xmlns:xmpTPg="http://ns.adobe.com/xap/1.0/t/pg/"
            xmlns:stDim="http://ns.adobe.com/xap/1.0/sType/Dimensions#"
            xmlns:xmpG="http://ns.adobe.com/xap/1.0/g/">
         <xmpTPg:HasVisibleOverprint>False</xmpTPg:HasVisibleOverprint>
         <xmpTPg:HasVisibleTransparency>False</xmpTPg:HasVisibleTransparency>
         <xmpTPg:NPages>1</xmpTPg:NPages>
         <xmpTPg:MaxPageSize rdf:parseType="Resource">
            <stDim:w>1681.333984</stDim:w>
            <stDim:h>891.000000</stDim:h>
            <stDim:unit>Pixels</stDim:unit>
         </xmpTPg:MaxPageSize>
         <xmpTPg:PlateNames>
            <rdf:Seq>
               <rdf:li>Cyan</rdf:li>
               <rdf:li>Magenta</rdf:li>
               <rdf:li>Yellow</rdf:li>
               <rdf:li>Black</rdf:li>
            </rdf:Seq>
         </xmpTPg:PlateNames>
         <xmpTPg:SwatchGroups>
            <rdf:Seq>
               <rdf:li rdf:parseType="Resource">
                  <xmpG:groupName>Default Swatch Group</xmpG:groupName>
                  <xmpG:groupType>0</xmpG:groupType>
               </rdf:li>
            </rdf:Seq>
         </xmpTPg:SwatchGroups>
      </rdf:Description>
      <rdf:Description rdf:about=""
            xmlns:pdf="http://ns.adobe.com/pdf/1.3/">
         <pdf:Producer>Adobe PDF library 9.90</pdf:Producer>
      </rdf:Description>
   </rdf:RDF>
</x:xmpmeta>
                                                                                                    
                                                                                                    
                                                                                                    
                                                                                                    
                                                                                                    
                                                                                                    
                                                                                                    
                                                                                                    
                                                                                                    
                                                                                                    
                                                                                                    
                                                                                                    
                                                                                                    
                                                                                                    
                                                                                                    
                                                                                                    
                                                                                                    
                                                                                                    
                                                                                                    
                                                                                                    
                           
<?xpacket end="w"?>
	</metadata>
<g id="Background" display="none">
	<g display="inline">
		
			<radialGradient id="SVGID_1_" cx="1393.8906" cy="331.6909" r="400.0005" gradientTransform="matrix(2.1017 0 0 -1.1137 -1874.4858 706.3026)" gradientUnits="userSpaceOnUse">
			<stop  offset="0.364" style="stop-color:#FFFFFF"/>
			<stop  offset="0.4489" style="stop-color:#FFFBEC"/>
			<stop  offset="0.621" style="stop-color:#FFF0BB"/>
			<stop  offset="0.8457" style="stop-color:#FFE173"/>
		</radialGradient>
		<rect fill="url(#SVGID_1_)" width="1681.334" height="891"/>
	</g>
</g>
<g id="Layer_3">
	<g>
		<polygon fill="#515151" points="889.851,493.35 924.429,493.35 921.975,463.592 831.546,493.35 862.317,493.35 749.302,550.547 
			894.15,550.547 453.467,695.899 453.467,746.178 966.377,746.178 1005.993,523.929 839.947,523.929 		"/>
		<g>
			<polygon fill="#FCF5E1" points="854.306,591.039 742.461,652.746 818.714,652.746 905.873,591.039 			"/>
			<polygon fill="#FCF5E1" points="868.297,498.427 876.691,493.221 871.324,493.221 862.376,498.427 			"/>
			<polygon fill="#FCF5E1" points="853.487,503.165 840.265,510.858 847.346,510.858 859.754,503.165 			"/>
			<polygon fill="#FCF5E1" points="829.775,517.008 811.345,527.731 820.209,527.731 837.503,517.008 			"/>
			<path fill="#FCF5E1" d="M799.89,533.826l-9.314,5.42l40.743,0.639c3.801-2.049,7.55-4.188,11.346-6.243L799.89,533.826z"/>
			<polygon fill="#FCF5E1" points="869.942,533.424 856.333,540.355 906.915,539.822 920.229,533.155 			"/>
			<polygon fill="#FCF5E1" points="951.761,533.155 886.847,568.97 930.637,568.97 981.223,533.155 			"/>
			<polygon fill="#FCF5E1" points="575.225,746.178 684.617,746.178 774.163,682.782 690.13,682.782 			"/>
		</g>
	</g>
	<g id="Objects" display="none">
		<g display="inline">
			<g>
				<path fill="#D5ECF4" d="M965.42,298.447c0.241-0.842,0.409-1.711,0.409-2.63c0-5.253-4.211-9.508-9.439-9.613
					c-0.823-8.962-8.354-15.983-17.531-15.983c-3.935,0-7.555,1.305-10.484,3.484c-3.637-7.588-11.366-12.841-20.341-12.841
					c-12.464,0-22.567,10.105-22.567,22.569c0,2.71,0.501,5.295,1.377,7.703c-0.956-0.329-1.963-0.546-3.03-0.546
					c-5.167,0-9.356,4.189-9.356,9.357c0,5.168,4.189,9.356,9.356,9.356c5.029,0,77.757,0,80.367,0c3.041,0,5.506-2.465,5.506-5.505
					C969.685,301.188,967.86,299.011,965.42,298.447z"/>
				<path fill="#D5ECF4" d="M802.782,195.654c1.05,0,2.043,0.208,2.994,0.512c1.735-6.54,7.68-11.367,14.768-11.367
					c2.707,0,5.247,0.71,7.455,1.945c0.271-3.567,3.218-6.386,6.854-6.386c2.665,0,4.95,1.525,6.104,3.736
					c2.961-4.053,7.736-6.696,13.14-6.696c8.992,0,16.283,7.29,16.283,16.282c0,1.729-0.274,3.392-0.774,4.955
					c4.531,0.117,8.176,3.809,8.176,8.367c0,4.632-3.756,8.388-8.389,8.388c-4.175,0-63.469,0-66.607,0
					c-5.449,0-9.869-4.418-9.869-9.868S797.333,195.654,802.782,195.654z"/>
				<path fill="#D5ECF4" d="M884.697,390.119c-0.75,0-1.477,0.097-2.175,0.262c-2.668-4.456-7.529-7.449-13.102-7.449
					c-0.98,0-1.938,0.103-2.867,0.278c-2.31-9.687-10.998-16.9-21.392-16.9c-9.702,0-17.922,6.286-20.854,15.001
					c-1.364-0.4-2.807-0.626-4.304-0.626c-7.145,0-13.125,4.912-14.793,11.539c-3.885,0.992-6.771,4.485-6.771,8.678
					c0,4.962,4.022,8.984,8.984,8.984c1.552,0,75.937-0.896,77.271-0.896c5.21,0,9.434-4.226,9.434-9.436
					C894.131,394.343,889.907,390.119,884.697,390.119z"/>
			</g>
			<g>
				<polygon fill="#A97D14" points="810.287,458.647 778.788,490.758 778.788,129.776 810.287,154.647 				"/>
				<rect x="769.788" y="129.026" fill="#482F00" width="8.999" height="360.981"/>
				<polygon fill="#725209" points="955.778,110.526 881.192,110.526 846.642,110.526 775.787,110.526 757.788,110.526 
					757.788,130.026 757.788,490.008 775.787,490.008 775.787,130.026 846.642,130.026 881.192,130.026 955.778,130.026 
					955.778,490.008 973.777,490.008 973.777,130.026 973.777,110.526 				"/>
				<g>
					<path fill="#256662" d="M778.346,169.471c0,1.474-1.194,2.668-2.668,2.668l0,0c-1.475,0-2.668-1.194-2.668-2.668v-24.742
						c0-1.474,1.193-2.668,2.668-2.668l0,0c1.474,0,2.668,1.194,2.668,2.668V169.471z"/>
					<rect x="773.01" y="155.72" fill="#0D3F3E" width="5.336" height="2.759"/>
				</g>
				<g>
					<path fill="#256662" d="M778.346,473.769c0,1.475-1.194,2.669-2.668,2.669l0,0c-1.475,0-2.668-1.194-2.668-2.669v-24.741
						c0-1.475,1.193-2.668,2.668-2.668l0,0c1.474,0,2.668,1.193,2.668,2.668V473.769z"/>
					<rect x="773.01" y="460.018" fill="#0D3F3E" width="5.336" height="2.76"/>
				</g>
				<g>
					<path fill="#256662" d="M778.346,311.769c0,1.475-1.194,2.669-2.668,2.669l0,0c-1.475,0-2.668-1.194-2.668-2.669v-24.742
						c0-1.474,1.193-2.668,2.668-2.668l0,0c1.474,0,2.668,1.194,2.668,2.668V311.769z"/>
					<rect x="773.01" y="298.018" fill="#0D3F3E" width="5.336" height="2.76"/>
				</g>
				<path fill="#256662" d="M806.75,337.064c0,1.519-1.231,2.75-2.75,2.75l0,0c-1.519,0-2.75-1.231-2.75-2.75v-28.25
					c0-1.52,1.231-2.75,2.75-2.75l0,0c1.519,0,2.75,1.23,2.75,2.75V337.064z"/>
				<g>
					<g>
						<path fill="#194747" d="M806.692,311.689c-2.246,0-4.067,1.82-4.067,4.066s1.821,4.067,4.067,4.067h16.794l3.241-8.136
							h-20.035V311.689z"/>
					</g>
				</g>
				<path fill="#256662" d="M819.791,339.184c-0.498,1.436-2.066,2.193-3.501,1.694l0,0c-1.434-0.499-2.192-2.066-1.694-3.501
					l9.281-26.682c0.499-1.435,2.066-2.193,3.501-1.694l0,0c1.435,0.499,2.192,2.066,1.694,3.501L819.791,339.184z"/>
			</g>
			<g>
				
					<linearGradient id="SVGID_2_" gradientUnits="userSpaceOnUse" x1="1196.9678" y1="499.4922" x2="1191.1592" y2="630.0054" gradientTransform="matrix(1 0 0 -1 -310.96 649.3398)">
					<stop  offset="0.0545" style="stop-color:#FFF48E;stop-opacity:0"/>
					<stop  offset="1" style="stop-color:#FFF48E"/>
				</linearGradient>
				<polygon fill="url(#SVGID_2_)" points="880.732,16.499 880.732,152.499 891.399,149.832 				"/>
				
					<linearGradient id="SVGID_3_" gradientUnits="userSpaceOnUse" x1="1229.21" y1="510.9092" x2="1239.4308" y2="607.7056" gradientTransform="matrix(1 0 0 -1 -310.96 649.3398)">
					<stop  offset="0.0545" style="stop-color:#FFF48E;stop-opacity:0"/>
					<stop  offset="1" style="stop-color:#FFF48E"/>
				</linearGradient>
				<polygon fill="url(#SVGID_3_)" points="928.732,41.832 912.732,139.166 923.399,141.166 				"/>
				
					<linearGradient id="SVGID_4_" gradientUnits="userSpaceOnUse" x1="1246.9648" y1="515.4268" x2="1267.8778" y2="585.9117" gradientTransform="matrix(1 0 0 -1 -310.96 649.3398)">
					<stop  offset="0.0545" style="stop-color:#FFF48E;stop-opacity:0"/>
					<stop  offset="1" style="stop-color:#FFF48E"/>
				</linearGradient>
				<polygon fill="url(#SVGID_4_)" points="958.732,63.166 933.398,133.166 938.065,136.499 				"/>
				
					<linearGradient id="SVGID_5_" gradientUnits="userSpaceOnUse" x1="1265.001" y1="484.9395" x2="1383.8947" y2="522.8925" gradientTransform="matrix(1 0 0 -1 -310.96 649.3398)">
					<stop  offset="0.0545" style="stop-color:#FFF48E;stop-opacity:0"/>
					<stop  offset="1" style="stop-color:#FFF48E"/>
				</linearGradient>
				<polygon fill="url(#SVGID_5_)" points="953.399,159.166 954.065,169.832 1072.732,128.499 				"/>
				
					<linearGradient id="SVGID_6_" gradientUnits="userSpaceOnUse" x1="1263.0234" y1="503.9893" x2="1324.6018" y2="533.8102" gradientTransform="matrix(1 0 0 -1 -310.96 649.3398)">
					<stop  offset="0.0545" style="stop-color:#FFF48E;stop-opacity:0"/>
					<stop  offset="1" style="stop-color:#FFF48E"/>
				</linearGradient>
				<polygon fill="url(#SVGID_6_)" points="950.066,143.165 952.066,148.499 1012.066,114.499 				"/>
				
					<linearGradient id="SVGID_7_" gradientUnits="userSpaceOnUse" x1="1248.0264" y1="447.0723" x2="1403.7104" y2="441.2628" gradientTransform="matrix(1 0 0 -1 -310.96 649.3398)">
					<stop  offset="0.0545" style="stop-color:#FFF48E;stop-opacity:0"/>
					<stop  offset="1" style="stop-color:#FFF48E"/>
				</linearGradient>
				<polygon fill="url(#SVGID_7_)" points="938.065,199.165 937.398,208.499 1092.065,201.832 				"/>
				
					<linearGradient id="SVGID_8_" gradientUnits="userSpaceOnUse" x1="1332.3584" y1="467.1738" x2="1384.3574" y2="467.1738" gradientTransform="matrix(1 0 0 -1 -310.96 649.3398)">
					<stop  offset="0.0545" style="stop-color:#FFF48E;stop-opacity:0"/>
					<stop  offset="1" style="stop-color:#FFF48E"/>
				</linearGradient>
				<polygon fill="url(#SVGID_8_)" points="1021.398,178.499 1021.398,185.832 1073.397,185.166 				"/>
				
					<linearGradient id="SVGID_9_" gradientUnits="userSpaceOnUse" x1="1301.8262" y1="554.29" x2="1329.7089" y2="578.6875" gradientTransform="matrix(1 0 0 -1 -310.96 649.3398)">
					<stop  offset="0.0545" style="stop-color:#FFF48E;stop-opacity:0"/>
					<stop  offset="1" style="stop-color:#FFF48E"/>
				</linearGradient>
				<polygon fill="url(#SVGID_9_)" points="988.732,93.832 1018.732,69.832 992.732,96.499 				"/>
				
					<linearGradient id="SVGID_10_" gradientUnits="userSpaceOnUse" x1="1159.7559" y1="514.1445" x2="1108.2479" y2="604.7689" gradientTransform="matrix(1 0 0 -1 -310.96 649.3398)">
					<stop  offset="0.0545" style="stop-color:#FFF48E;stop-opacity:0"/>
					<stop  offset="1" style="stop-color:#FFF48E"/>
				</linearGradient>
				<polygon fill="url(#SVGID_10_)" points="842.732,133.165 801.399,43.165 850.732,133.165 				"/>
				
					<linearGradient id="SVGID_11_" gradientUnits="userSpaceOnUse" x1="1174.0615" y1="571.6777" x2="1151.9855" y2="616.6038" gradientTransform="matrix(1 0 0 -1 -310.96 649.3398)">
					<stop  offset="0.0545" style="stop-color:#FFF48E;stop-opacity:0"/>
					<stop  offset="1" style="stop-color:#FFF48E"/>
				</linearGradient>
				<polygon fill="url(#SVGID_11_)" points="858.065,73.832 844.065,32.499 864.065,74.499 				"/>
				
					<linearGradient id="SVGID_12_" gradientUnits="userSpaceOnUse" x1="1150.2324" y1="488.3867" x2="1070.0658" y2="602.6343" gradientTransform="matrix(1 0 0 -1 -310.96 649.3398)">
					<stop  offset="0.0545" style="stop-color:#FFF48E;stop-opacity:0"/>
					<stop  offset="1" style="stop-color:#FFF48E"/>
				</linearGradient>
				<path fill="url(#SVGID_12_)" d="M833.399,159.165l8-0.667c0,0-79.334-115.333-79.334-113.333S833.399,159.165,833.399,159.165z"
					/>
				
					<linearGradient id="SVGID_13_" gradientUnits="userSpaceOnUse" x1="1131.5596" y1="443.2979" x2="951.2563" y2="502.1089" gradientTransform="matrix(1 0 0 -1 -310.96 649.3398)">
					<stop  offset="0.0545" style="stop-color:#FFF48E;stop-opacity:0"/>
					<stop  offset="1" style="stop-color:#FFF48E"/>
				</linearGradient>
				<polygon fill="url(#SVGID_13_)" points="644.064,141.163 820.732,202.499 820.065,213.165 				"/>
				
					<linearGradient id="SVGID_14_" gradientUnits="userSpaceOnUse" x1="1068.1133" y1="540.5889" x2="1029.3861" y2="560.3399" gradientTransform="matrix(1 0 0 -1 -310.96 649.3398)">
					<stop  offset="0.0545" style="stop-color:#FFF48E;stop-opacity:0"/>
					<stop  offset="1" style="stop-color:#FFF48E"/>
				</linearGradient>
				<polygon fill="url(#SVGID_14_)" points="720.065,85.832 752.732,110.499 757.398,105.832 				"/>
				
					<linearGradient id="SVGID_15_" gradientUnits="userSpaceOnUse" x1="1117.374" y1="486.7852" x2="1017.8428" y2="525.1259" gradientTransform="matrix(1 0 0 -1 -310.96 649.3398)">
					<stop  offset="0.0545" style="stop-color:#FFF48E;stop-opacity:0"/>
					<stop  offset="1" style="stop-color:#FFF48E"/>
				</linearGradient>
				<polygon fill="url(#SVGID_15_)" points="710.064,123.163 806.065,158.497 804.731,165.83 				"/>
				
					<linearGradient id="SVGID_16_" gradientUnits="userSpaceOnUse" x1="1260.7012" y1="396.9751" x2="1350.9398" y2="384.1947" gradientTransform="matrix(1 0 0 -1 -310.96 649.3398)">
					<stop  offset="0.0545" style="stop-color:#FFF48E;stop-opacity:0"/>
					<stop  offset="1" style="stop-color:#FFF48E"/>
				</linearGradient>
				<polygon fill="url(#SVGID_16_)" points="952.731,249.829 951.397,258.496 1039.397,259.163 				"/>
				
					<linearGradient id="SVGID_17_" gradientUnits="userSpaceOnUse" x1="1263.4287" y1="362.4595" x2="1413.6938" y2="352.0029" gradientTransform="matrix(1 0 0 -1 -310.96 649.3398)">
					<stop  offset="0.0545" style="stop-color:#FFF48E;stop-opacity:0"/>
					<stop  offset="1" style="stop-color:#FFF48E"/>
				</linearGradient>
				<polygon fill="url(#SVGID_17_)" points="954.731,285.163 953.397,291.83 1103.397,292.497 				"/>
				
					<linearGradient id="SVGID_18_" gradientUnits="userSpaceOnUse" x1="1264.165" y1="306.8877" x2="1440.7662" y2="282.1016" gradientTransform="matrix(1 0 0 -1 -310.96 649.3398)">
					<stop  offset="0.0545" style="stop-color:#FFF48E;stop-opacity:0"/>
					<stop  offset="1" style="stop-color:#FFF48E"/>
				</linearGradient>
				<polygon fill="url(#SVGID_18_)" points="954.731,337.83 952.731,349.163 1130.063,360.497 				"/>
				
					<linearGradient id="SVGID_19_" gradientUnits="userSpaceOnUse" x1="1257.1924" y1="239.1953" x2="1401.2622" y2="202.403" gradientTransform="matrix(1 0 0 -1 -310.96 649.3398)">
					<stop  offset="0.0545" style="stop-color:#FFF48E;stop-opacity:0"/>
					<stop  offset="1" style="stop-color:#FFF48E"/>
				</linearGradient>
				<polygon fill="url(#SVGID_19_)" points="950.064,407.164 946.731,415.83 1092.063,441.83 				"/>
				
					<linearGradient id="SVGID_20_" gradientUnits="userSpaceOnUse" x1="1132.1445" y1="265.1284" x2="960.3372" y2="221.1868" gradientTransform="matrix(1 0 0 -1 -310.96 649.3398)">
					<stop  offset="0.0545" style="stop-color:#FFF48E;stop-opacity:0"/>
					<stop  offset="1" style="stop-color:#FFF48E"/>
				</linearGradient>
				<polygon fill="url(#SVGID_20_)" points="820.064,379.83 820.064,389.164 648.729,426.498 				"/>
				
					<linearGradient id="SVGID_21_" gradientUnits="userSpaceOnUse" x1="1115.7266" y1="301.6636" x2="956.9395" y2="290.0448" gradientTransform="matrix(1 0 0 -1 -310.96 649.3398)">
					<stop  offset="0.0545" style="stop-color:#FFF48E;stop-opacity:0"/>
					<stop  offset="1" style="stop-color:#FFF48E"/>
				</linearGradient>
				<polygon fill="url(#SVGID_21_)" points="802.662,344.811 804.231,351.83 646.231,355.163 				"/>
				
					<linearGradient id="SVGID_22_" gradientUnits="userSpaceOnUse" x1="1113.9082" y1="372.9722" x2="950.4748" y2="390.0128" gradientTransform="matrix(1 0 0 -1 -310.96 649.3398)">
					<stop  offset="0.0545" style="stop-color:#FFF48E;stop-opacity:0"/>
					<stop  offset="1" style="stop-color:#FFF48E"/>
				</linearGradient>
				<polygon fill="url(#SVGID_22_)" points="801.397,270.497 642.064,253.831 800.064,281.831 				"/>
				
					<linearGradient id="SVGID_23_" gradientUnits="userSpaceOnUse" x1="1100.9326" y1="418.9673" x2="980.875" y2="439.106" gradientTransform="matrix(1 0 0 -1 -310.96 649.3398)">
					<stop  offset="0.0545" style="stop-color:#FFF48E;stop-opacity:0"/>
					<stop  offset="1" style="stop-color:#FFF48E"/>
				</linearGradient>
				<polygon fill="url(#SVGID_23_)" points="788.729,227.164 788.729,233.164 670.729,209.831 				"/>
				
					<linearGradient id="SVGID_24_" gradientUnits="userSpaceOnUse" x1="1065.21" y1="343.8862" x2="997.8242" y2="341.9496" gradientTransform="matrix(1 0 0 -1 -310.96 649.3398)">
					<stop  offset="0.0545" style="stop-color:#FFF48E;stop-opacity:0"/>
					<stop  offset="1" style="stop-color:#FFF48E"/>
				</linearGradient>
				<polygon fill="url(#SVGID_24_)" points="684.729,303.831 753.397,301.164 752.064,309.831 				"/>
				
					<linearGradient id="SVGID_25_" gradientUnits="userSpaceOnUse" x1="1066.665" y1="203.71" x2="1005.4732" y2="191.3172" gradientTransform="matrix(1 0 0 -1 -310.96 649.3398)">
					<stop  offset="0.0545" style="stop-color:#FFF48E;stop-opacity:0"/>
					<stop  offset="1" style="stop-color:#FFF48E"/>
				</linearGradient>
				<polygon fill="url(#SVGID_25_)" points="692.064,454.498 754.064,440.498 752.064,451.83 				"/>
				
					<linearGradient id="SVGID_26_" gradientUnits="userSpaceOnUse" x1="1030.9902" y1="269.4634" x2="952.7603" y2="262.4923" gradientTransform="matrix(1 0 0 -1 -310.96 649.3398)">
					<stop  offset="0.0545" style="stop-color:#FFF48E;stop-opacity:0"/>
					<stop  offset="1" style="stop-color:#FFF48E"/>
				</linearGradient>
				<polygon fill="url(#SVGID_26_)" points="641.397,383.164 718.064,377.164 717.397,383.83 				"/>
				
					<linearGradient id="SVGID_27_" gradientUnits="userSpaceOnUse" x1="1328.9668" y1="266.8535" x2="1387.4482" y2="251.749" gradientTransform="matrix(1 0 0 -1 -310.96 649.3398)">
					<stop  offset="0.0545" style="stop-color:#FFF48E;stop-opacity:0"/>
					<stop  offset="1" style="stop-color:#FFF48E"/>
				</linearGradient>
				<polygon fill="url(#SVGID_27_)" points="1020.063,379.829 1019.396,387.162 1076.063,393.162 				"/>
				
					<linearGradient id="SVGID_28_" gradientUnits="userSpaceOnUse" x1="1335.8418" y1="338.3892" x2="1390.4482" y2="328.707" gradientTransform="matrix(1 0 0 -1 -310.96 649.3398)">
					<stop  offset="0.0545" style="stop-color:#FFF48E;stop-opacity:0"/>
					<stop  offset="1" style="stop-color:#FFF48E"/>
				</linearGradient>
				<polygon fill="url(#SVGID_28_)" points="1026.729,308.496 1025.396,314.496 1079.396,317.162 				"/>
				
					<linearGradient id="SVGID_29_" gradientUnits="userSpaceOnUse" x1="1018.7119" y1="456.915" x2="962.5556" y2="467.7593" gradientTransform="matrix(1 0 0 -1 -310.96 649.3398)">
					<stop  offset="0.0545" style="stop-color:#FFF48E;stop-opacity:0"/>
					<stop  offset="1" style="stop-color:#FFF48E"/>
				</linearGradient>
				<polygon fill="url(#SVGID_29_)" points="707.396,189.162 705.396,195.162 652.063,182.495 				"/>
			</g>
			<g>
				<path fill="#E0A87B" d="M516.417,395.375c0,0,1.5,5.375,2.125,8.125s1.852,4.48,3.267,6.998
					c1.417,2.521,3.557,4.176,3.305,5.034c-0.419,1.43-4.212,1.718-7.571-0.782c-5.375-4-5.75-5.5-8.125-5.75
					s-9.375-0.125-11.25,0.125s-3.25,0.25-3.25,0.25s3.5-13.25,11.5-14.625C506.417,394.75,515.667,391.75,516.417,395.375z"/>
				<path fill="#E0A87B" d="M770.917,348c0,0,11.25,4,11.5,2.75s1.5-4.5,1-11.75s-1.25-12.75-6.25-14.25s-8.75-0.25-12,0.5
					s-4.75,1.25-6.25,3s-3,9.75-5.5,13.5s-0.25,5.25,1.75,6s8.5,0,10.5-0.75S770.917,348,770.917,348z"/>
				<path fill="#EEBA8C" d="M766.167,350c0,0-3.75-1-7.75-6.75s-1-7.5-2-11.5s-1.5-4.5-2.25-5.25s3.5-2.75,6.75-0.25
					s2.75,5.25,4.5,9s2.75,2.5,5.25,4.5s5.5,5,6,7.75s-4,2.5-5,2.75S766.167,350,766.167,350z"/>
				<path fill="#194747" d="M622,675.666c0,0-5,11.667-2,23.667c0,0,3.333,5.999,11.667,3.333s9-5.333,9-5.333
					s0.334-6.001,3.667-4.667s6.667,2.334,13-3.666s14.666-13.667,11.333-18.667s-13.333,3.333-16.333,5.333s-16,2.001-18.667-0.666
					S622,675.666,622,675.666z"/>
				<path fill="#0D3F3E" d="M582.333,423.666c0,0-15.666,27.334,9.667,52.334c0,0,28.666,58.334,40.333,86
					c0,0-16.666,59.667-15.333,120c0,0,14,7.333,24.333-6c0,0-10.333-44.667,9.333-108.667c0,0,4.333-2.333,0.333-8.333
					c0,0-23.333-74.334-41.333-113.667L582.333,423.666z"/>
				<path fill="#194747" d="M486.334,596.666c0,0-16,3.333-21.333,10c0,0-0.667,1.668,2,6.334s6,11,6,11s5.333,1.667,4,6
					s6.333,17.666,19.667,26.333c0,0,5,3.666,4.667-3.667s-6.667-9.667-7.667-14s-3.333-20.666,1-29.333
					S490.667,592.999,486.334,596.666z"/>
				<path fill="#256662" d="M479.334,595c0,0-1.333,14.001,16,21.667c0,0,42.333-37.666,81.667-41c0,0,7.666,3.666,9.333-5.667
					c0,0,69-50.334,76-117l-60-18.333c0,0-8.667,19.334,10.333,47c0,0-4.667,26.334-34.333,77.667
					C578.333,559.334,524.667,557.332,479.334,595z"/>
				<path fill="#482F00" d="M441.333,481.667c0,0,2.667,10.001,22,14.334c0,0,25.667-0.668,50-8.334c0,0,18.333-26.667,26-54
					c0,0-5.667-10.666-20-13.666c0,0-32.333-4.334-54.667,0.666C464.667,420.667,448.333,447,441.333,481.667z"/>
				<path fill="#A97D14" d="M462.396,495.776c0.313,0.074,0.616,0.151,0.938,0.225c0,0,25.667-0.668,50-8.334
					c0,0,18.333-26.667,26-54c0,0-0.735-1.378-2.334-3.278c-2.854,0.022-15.316,0.138-18.885-0.174
					c-3.921-0.341-37.78,7.786-37.78,7.786C474.995,460.494,465.713,486.684,462.396,495.776z"/>
				<path fill="#A97D14" d="M449.727,490.794c8.667-21.158,25.769-64.842,25.769-64.842l-3.41-2.387
					c-12.974,26.903-22.331,54.883-25.543,64.957C447.446,489.273,448.498,490.039,449.727,490.794z"/>
				<path fill="#725209" d="M539.304,433.613c-0.431-0.774-6.198-10.729-19.971-13.612c0,0-32.333-4.334-54.667,0.666
					c0,0-0.063,0.101-0.176,0.29c5.178,3.802,12.15,9.854,15.843,17.044C480.334,438.001,516.88,431.553,539.304,433.613z"/>
				<path fill="#A97D14" d="M534.273,427.556c-1.198-1.093-2.622-2.219-4.294-3.276c-25.211-2.503-51.896,0.783-59.217,1.809
					c1.154,1.057,2.303,2.188,3.408,3.38C504.885,426.201,525.456,426.929,534.273,427.556z"/>
				<g>
					<g>
						<path fill="#482F00" d="M493.42,426.668c-0.222,0-0.447-0.025-0.672-0.076c-1.615-0.37-2.625-1.979-2.255-3.595l3.524-15.397
							l1.5-0.569c0.509-0.193,12.558-4.67,22.893,0.82l1.703,0.905l-0.866,14.342c-0.1,1.654-1.539,2.914-3.175,2.813
							c-1.654-0.101-2.914-1.521-2.814-3.175l0.626-10.369c-5.717-2.218-11.974-0.963-14.757-0.192l-2.784,12.162
							C496.023,425.727,494.787,426.668,493.42,426.668z"/>
					</g>
				</g>
				<path fill="#EEBA8C" d="M499.417,413.125c0,0,0.125-8.125,2.5-10.75s14.75-2.125,17.5-0.375s0.375,13.375-6.125,11.875
					S499.417,413.125,499.417,413.125z"/>
				<path fill="#FFFCE4" d="M504.667,389.25l-3.25,6.75c0,0,8.125,3.625,16.875,1.875l4.125-10l-15-4.375L504.667,389.25z"/>
				<path fill="#0D3F3E" d="M632.667,268c0,0-7.75-1.25-13.25,2.25s-31.5,22.5-82.75,30.5c0,0-20.25,38.5-34.25,82.5
					c0,0,3.25,12.5,27.5,6.75c0,0,14.25-25.5,22-66.75c0,0,34.75-1.25,82-41.25C633.917,282,640.417,271,632.667,268z"/>
				<path fill="#E0A87B" d="M686.417,236.25c-2.053-3.369-3.848-7.439-5.405-11.77c1.548-1.556,2.655-3.98,2.655-3.98l-0.75-2.5
					c-2.219-0.37-3.89-2.006-5.116-3.92c-3.534-13.304-5.04-25.954-4.884-26.58c0.25-1-5.25-1.75-6-1.25s-14.5,5.5-19.25,9.5
					s-4.5,8.5-4.25,13.75s5.25,16.5,11,30.25s4.25,21,4.25,21c2.5,6.25,10,0.75,10,0.75c-2.25-7.25-1.75-14-1.75-14
					c4-1,14.5-4.5,14.5-4.5C687.917,241,686.417,236.25,686.417,236.25z"/>
				<path fill="#482F00" d="M655.667,230.25c0,0-2,3.5-4-5.5s2.5-7,4.5-4.75s1,8.25,10.25,6.25S653.167,200,653.167,200
					s11.5-0.5,23.75-8.75c0,0,1.75-3.25-3.75-15.75c0,0-27,6.25-40,6s-5.5,15.25-5.5,15.25s-10.75,1.5-3.75,14.25
					s16.5,20.5,24.25,36C648.167,247,660.417,255.25,655.667,230.25z"/>
				<path fill="#0D3F3E" d="M641.167,266.5c0,0,10.5-10.5,22-8.75s15,6.75,25.5,16.75C688.667,274.5,650.917,273.25,641.167,266.5z"
					/>
				<path fill="#194747" d="M625.417,268.25c0,0,31-14,76,8.5c0,0-3.25,3.75-5.75,15.75s11,81.5-24,171c0,0-72,11.5-105-35.5
					C566.667,428,631.667,348.5,625.417,268.25z"/>
				<path fill="#FFFCE4" d="M763.917,353.75c0,0-0.25-2.5-1.5-5.5s15.5-6.25,21,0c0,0,3,3.25-1.5,8.5L763.917,353.75z"/>
				<path fill="#0D3F3E" d="M702.417,278.75c0,0-0.5-1.5-2.5-2.25s-15.5-3-12,32.25s28.75,93.25,33.75,106.75
					c0,0,38.25,4.25,62.25-57.25c0,0,1-7-9.5-8.75s-12.5,3.5-12.5,3.5s-6,9.75-27.5,28.75
					C734.417,381.75,706.167,304.25,702.417,278.75z"/>
			</g>
		</g>
	</g>
</g>
</svg>
