<?xml version="1.0" encoding="utf-8"?>
<!-- Generator: Adobe Illustrator 16.0.0, SVG Export Plug-In . SVG Version: 6.00 Build 0)  -->
<!DOCTYPE svg PUBLIC "-//W3C//DTD SVG 1.1//EN" "http://www.w3.org/Graphics/SVG/1.1/DTD/svg11.dtd" [
	<!ENTITY ns_extend "http://ns.adobe.com/Extensibility/1.0/">
	<!ENTITY ns_ai "http://ns.adobe.com/AdobeIllustrator/10.0/">
	<!ENTITY ns_graphs "http://ns.adobe.com/Graphs/1.0/">
	<!ENTITY ns_vars "http://ns.adobe.com/Variables/1.0/">
	<!ENTITY ns_imrep "http://ns.adobe.com/ImageReplacement/1.0/">
	<!ENTITY ns_sfw "http://ns.adobe.com/SaveForWeb/1.0/">
	<!ENTITY ns_custom "http://ns.adobe.com/GenericCustomNamespace/1.0/">
	<!ENTITY ns_adobe_xpath "http://ns.adobe.com/XPath/1.0/">
]>
<svg version="1.1" id="Layer_1" xmlns:x="&ns_extend;" xmlns:i="&ns_ai;" xmlns:graph="&ns_graphs;"
	 xmlns="http://www.w3.org/2000/svg" xmlns:xlink="http://www.w3.org/1999/xlink" x="0px" y="0px" width="800px" height="693.713px"
	 viewBox="0 0 800 693.713" enable-background="new 0 0 800 693.713" xml:space="preserve">
<metadata><?xpacket begin="﻿" id="W5M0MpCehiHzreSzNTczkc9d"?>
<x:xmpmeta xmlns:x="adobe:ns:meta/" x:xmptk="Adobe XMP Core 5.3-c011 66.145661, 2012/02/06-14:56:27        ">
   <rdf:RDF xmlns:rdf="http://www.w3.org/1999/02/22-rdf-syntax-ns#">
      <rdf:Description rdf:about=""
            xmlns:dc="http://purl.org/dc/elements/1.1/">
         <dc:format>image/svg+xml</dc:format>
         <dc:title>
            <rdf:Alt>
               <rdf:li xml:lang="x-default">19425-NS4XR6</rdf:li>
            </rdf:Alt>
         </dc:title>
      </rdf:Description>
      <rdf:Description rdf:about=""
            xmlns:xmp="http://ns.adobe.com/xap/1.0/"
            xmlns:xmpGImg="http://ns.adobe.com/xap/1.0/g/img/">
         <xmp:MetadataDate>2017-11-29T14:14:47+02:00</xmp:MetadataDate>
         <xmp:ModifyDate>2017-11-29T14:14:47+02:00</xmp:ModifyDate>
         <xmp:CreateDate>2017-11-29T14:14:46+02:00</xmp:CreateDate>
         <xmp:CreatorTool>Adobe Illustrator CS6 (Windows)</xmp:CreatorTool>
         <xmp:Thumbnails>
            <rdf:Alt>
               <rdf:li rdf:parseType="Resource">
                  <xmpGImg:width>256</xmpGImg:width>
                  <xmpGImg:height>224</xmpGImg:height>
                  <xmpGImg:format>JPEG</xmpGImg:format>
                  <xmpGImg:image>/9j/4AAQSkZJRgABAgEASABIAAD/7QAsUGhvdG9zaG9wIDMuMAA4QklNA+0AAAAAABAASAAAAAEA&#xA;AQBIAAAAAQAB/+4ADkFkb2JlAGTAAAAAAf/bAIQABgQEBAUEBgUFBgkGBQYJCwgGBggLDAoKCwoK&#xA;DBAMDAwMDAwQDA4PEA8ODBMTFBQTExwbGxscHx8fHx8fHx8fHwEHBwcNDA0YEBAYGhURFRofHx8f&#xA;Hx8fHx8fHx8fHx8fHx8fHx8fHx8fHx8fHx8fHx8fHx8fHx8fHx8fHx8fHx8f/8AAEQgA4AEAAwER&#xA;AAIRAQMRAf/EAaIAAAAHAQEBAQEAAAAAAAAAAAQFAwIGAQAHCAkKCwEAAgIDAQEBAQEAAAAAAAAA&#xA;AQACAwQFBgcICQoLEAACAQMDAgQCBgcDBAIGAnMBAgMRBAAFIRIxQVEGE2EicYEUMpGhBxWxQiPB&#xA;UtHhMxZi8CRygvElQzRTkqKyY3PCNUQnk6OzNhdUZHTD0uIIJoMJChgZhJRFRqS0VtNVKBry4/PE&#xA;1OT0ZXWFlaW1xdXl9WZ2hpamtsbW5vY3R1dnd4eXp7fH1+f3OEhYaHiImKi4yNjo+Ck5SVlpeYmZ&#xA;qbnJ2en5KjpKWmp6ipqqusra6voRAAICAQIDBQUEBQYECAMDbQEAAhEDBCESMUEFURNhIgZxgZEy&#xA;obHwFMHR4SNCFVJicvEzJDRDghaSUyWiY7LCB3PSNeJEgxdUkwgJChgZJjZFGidkdFU38qOzwygp&#xA;0+PzhJSktMTU5PRldYWVpbXF1eX1RlZmdoaWprbG1ub2R1dnd4eXp7fH1+f3OEhYaHiImKi4yNjo&#xA;+DlJWWl5iZmpucnZ6fkqOkpaanqKmqq6ytrq+v/aAAwDAQACEQMRAD8A7nirsVdirsVdirsVdirs&#xA;VdirsVdirsVdirBPzm/5RFP+YuL/AIi+ZWj+v4On7b/uP84fpeHZtHkleD7B+eSDXPmqYWD3/T/9&#xA;4Lb/AIxJ/wARGaGXMvo2L6B7gm2nfYf55FtCMwJdirsVdirsVdirsVdirsVdirsVdirsVdirsVdi&#xA;rsVdirsVdirsVdirsVdirsVdirBPzm/5RFP+YuL/AIi+ZWj+v4On7b/uP84fpeHZtHkleD7B+eSD&#xA;XPmqYWD3/T/94Lb/AIxJ/wARGaGXMvo2L6B7gm2nfYf55FtCMwJdirsVdirsVdirsVdirsVdirsV&#xA;dirsVdirsVdirsVdirsVdirsVdirsVdirsVdirBPzm/5RFP+YuL/AIi+ZWj+v4On7b/uP84fpYa3&#xA;5RX6+SR5mOoRcvqwvfqfA09ErzH73l9vj+zx67Vy/wDODxOCutOnPZcvB8Ti6XXl72DwfYPzzPDp&#xA;p81TCwe/6f8A7wW3/GJP+IjNDLmX0bF9A9wTbTvsP88i2hGYEuxV2KuxV2KuxV2KuxV2KuxV2Kux&#xA;V2KuxV2KuxV2KuxV2KuxV2KuxV2KuxV2KuxVjXn/AMtX3mLQl0+ykijmE6S8piyrxUMDuqua/F4Z&#xA;dgyCErLgdo6WWfHwxq76vPP8A+fv0b+i/wBMR/o6tfqf1if0utfsenSld81v+ifSXfBO/dH/AIpx&#xA;P9Des4eHjjw93FL/AIlZafk95meMkXNl1pu8vgP+Ksn/AKLtKP4cnyj/AMU0H2T1J/ix/OX/ABKp&#xA;J+T3maNC5ubKg60eX/qll2n9qdNlmIRjOz5D/imvJ7KamIsyh85f8S9ItYmitoYmoWjRVJHSoFMt&#xA;JsvQwjUQE2sY2SIsaUfcZFmETil2KuxV2KuxV2KuxV2KuxV2KuxV2KuxV2KuxV2KuxV2KuxV2Kux&#xA;V2KuxV2KuxV2KuAJNAKnwGKoKZU9RgFAoaUp4ZoNRjhxmgK9zv8ATR/di+a0Gmw2+WY5wwPQfJvo&#xA;LZRI4AU18RXMvRRxQnZAHcacPW4pSj6VhtLpKFoXp48SRm9dImMboy/BsB26U+jAlfirsVdirsVd&#xA;irsVdirsVdirsVdirsVdirsVdirsVdirsVdirsVdirsVdiraqzMFUFmPQDc4qmVroN3LRpSIVPju&#xA;33YqmcGh2EW7KZW8XO33CmKt6nPFp+nySRKsbkcIwoA+JunTw65TqMnBAlv02LjmAwnNG9A07qil&#xA;mNFHU4qqtBMqByp4EAhhuKHpuMslilEWRs1QzQkaB3RFheGJxG5/dHb5HMjS6jhNH6XG1mlExY+r&#xA;703oA1WUEjswr94Obd0iNXStOu4hIimJv2gh6H5GuBkgbrQbuKrRETKPDZvuxVLWVlYqwKsOoOxx&#xA;VrFXYq7FXYq7FXYq7FXYq7FXYq7FXYq7FXYq7FXYq7FXYq7FUdYaRcXVHP7uH+c9T8hirILWwtrV&#xA;aRJRu7ndj9OKojFXYqxvzc03O3X/AHTRiP8AW2rX6M1uvJsdztOzgKPex1mVVLMaKOpzXuzSqaaS&#xA;8mWJNlJpGpNKntX54xFmmRIiLKY6brM9owsr2MmIfAKj4lB8R3GZ2HUmHomNnX59IJ/vMZ3Te60e&#xA;YUkhFYn9+h8Mlm0Rv08mvDrxXr5shg07np8AJpMqAcj3+eZ+KJjEAutyyEpEjqjLW1S3Sg3Y/abJ&#xA;sFbFUPdWFtdLSVKt2cbMPpxVj9/pFxa1cfvIf5x1HzGKoHFXYq7FXYq7FXYq7FXYq7FXYq7FXYq7&#xA;FXYq7FXYq7FU60rRahZ7obdUiP62/piqeAACg2AxV2KuxV2KpX5jtvW01mAq0JDj5dD+BzF1kOKH&#xA;ucvRZOHJ72C6itbVj4EH8aZpnex5oO309rqINbMrzKP3kBNG27rXYimXQw8Y9PPua55xA+rl3oi1&#xA;vrmC5ihvYfWCsAomWrrv+yTvlkMsoyAmL9/NpyYIyiTA17uXxZwUurbenwHr3Q/wzdOgTiIsY0LA&#xA;AkCoHQbYErsVdirsVcQCKHcHFUj1XRaBp7UbdXiH61/piqS4q7FXYq7FXYq7FXYq7FXYq7FXYq7F&#xA;XYq7FXYqnOiaWGpdTD4R/dIe/wDlH+GKp7irsVdirsVdirUiLIjIwqrgqw9jtgIsUkGjbAJ7WKO5&#xA;ktrmpjVikhXrTpUV79xmhMRGVF6ITMo3FA6joF5YhLu1k+sWpNY7iKoZafzL1U5ZLBKPqjuO9jDU&#xA;xl6ZCpdxT3y3NJqtq/qhTcW7ABiB8QIrUe475sdLlOSPq5h1etwDHL0nY9GR6Ys49RJKhVoAp8Tm&#xA;U4IR2KXYq7FXYq7FXYqkWt6WFrdQj4T/AHqDt/lD+OKpNirsVdirsVdirsVdirsVdirsVdirsVdi&#xA;qL0uyN3chT/dJ8Uh9vD6cVZWAAAAKAbADFXYq7FXYq7FXYq7FUu1XRbe+XmP3dwB8Mg7+zZjZ9MJ&#xA;+9ytPqpY9ucUq0bT9Rgv2t54m+rMD6pP2DQfCVPjmNpceSE6I2crV5Mc8dg7pqmmGK6Qp/cg8q9C&#xA;Kb75snVpjirsVdirsVdirsVdiriAQQRUHYg4qxTVLI2lyVH90/xRn28PoxVCYq7FXYq7FXYq7FXY&#xA;q7FXYq7FXYq7FWUaPafV7NSR+8l+N/p6D7sVR2KuxV2KuxV2KuxV2KuxV2KuxV2KuxV2KuxV2Kux&#xA;V2KuxVA6xafWLNiB+8i+NPo6j7sVYvirsVdirsVdirsVdirsVdirsVdiqvYwevdxRHcM3xfIbn8M&#xA;VZfirsVdirsVdirsVdirsVdirsVdirsVdirsVdirsVdirsVdirsVYhfQehdyxDYK3w/I7j8MVUMV&#xA;dirsVdirsVdirsVdirsVdiqaeXo+V4zn9hDT5kgYqyLFXYq7FXYq7FXYq7FXYq7FXYq7FXYq7FXY&#xA;q7FXYq7FXYq7FXYqx3zDHxvFcftoK/MEjFUrxV2KuxV2KuxV2KuxV2KuxV2Kp15aG9wfDgPvriqe&#xA;Yq7FXYq7FXYq7FXYq7FVsckciB42DowqrKQQR7EYBIEWEyiQaPNRjv7aS+mskYm4gVHlWhoBJXjv&#xA;9GVxzRMzAfUP0tksMhATP0m/sVJriGABpXCKx4hmNBU9NzlkpACy1xiSaCphQ4EEVBqPEYq7FXYq&#xA;7FXYq7FXYq7FUj8yj4rc+IcfdTFUlxV2KuxV2KuxV2KuxV2KuxV2Kp15aPxXA8Qp+6uKp5irsVdi&#xA;rsVdirsVUL66+qWktz6TzCIcjHEAXI78QSK0G+V5snBEyomu7m2YcfHIRsC+/k6yvbW+tY7m2kEs&#xA;EoqrD9R9/EY4ssckRKJsFcuKWORjIVIJX5Zhnsxe6c6Fbe2mJs2an91J8QXx+A1GYuixSx8UCPSD&#xA;6fcd/scrXZY5eGYPqI9XvG1/FWg065h8w3V/8Jt7qKOMAE8g0ddyKZZjwEZpT6SA+y2vJnBwxh1i&#xA;T9tKeu2N1qF9p1qI62CSm4u5Ox9KnCP/AGTHK9XilknCNei7l8OQ+bbpMsccJzv11UfjzPyRusaj&#xA;Bp2ny3Uz8VUUXxLHYBR3OZOfPHFEykdnGwYJ5ZCMRuq2DhrKF/TaHkgYxyCjrUVow3ofHJY58UQa&#xA;q+9hkhwyIu67lSKZZQSleINA3Y/LJsF+KuxV2KuxV2KuxVI/Mp+K3HgGP30xVJcVdirsVdirsVdi&#xA;rsVdirsVdiqZeX5eN+U/34jfeCDhHJB5skwJdirsVdirsVacsqMVXkwBIUUFT4b4CdkgbpZZeYrG&#xA;e4FpcB7K+PS1uBwZj0+Bvsv/ALE5iYtdCUuGVwn3H9HQuZl0M4x441OHfH9PUfFBXt1pXlyW6uFS&#xA;RZLwhltVI9NnHV1H7Na/EcxdVnw6K59Z/wAPn3+Xm3YY5dXUDyh/F1ru8/JiWoeatYvJvUWX6uOi&#xA;rD8JA/1h8R+/OV1PbWoynaXCO4bfbzd3h7MwwHLiPmlcuraqr+ol3P6gHwkSuD371zGx6rLz45X7&#xA;y50dNiIoxjXuCtpnnzVYplhvXkav7Erbn/VkHX6c2+m7XzYuZ8SH2/P9duNq+wsU48UNvd+kMvtp&#xA;rXUp7bU+bXH1evoxSGqI/div848c6TD4Wp4cw3rkO4+7veZySy6cSxHa+Z7x7+5MJvM1jO31O2il&#xA;vLyv7y3t6ELv+3IaIo+Zw5NdAS4YAzl3Dp7zyC49BMx4pkQh3y6+4cynDzQwgKdj+yi7n6Bma4S+&#xA;NiyhipQn9k9cVXYq7FXYq7FXYqxvzBLyvwn++0X7yScJ5IHNLcCXYq7FXYq7FXYq7FXYq7FXYqvt&#xA;pzBdwTdlcA/Jtv15KPNjLkzMEMARuDuDkWTsVdirsVdiqE1HVbTT1Rrn1Aj1AaOKSQClPtcFanXK&#xA;M+ojirivfyJ+5vwaaWW+GtvMD70Pb6roOqkrFJHdPb0l9MoS6EHZgrCoIPfK8efDnNAiRG/u+bZk&#xA;0+bALIMQdvf8nnmvai+oapPcMSU5FIgeyKaL/XOC7R1JzZpSPK6HuD1WjwDFiEfn70vzCclSl+0P&#xA;llkOTZFDXNulxEY22PVW7g9iMthLhNtuOZibTfyNqcwuRBIf73lHID/OgqD/AAzedjZzj1HB/DP+&#xA;0fqdT7QaWJx8Q/h3HuLL/wBK6TpM6oXSB/t+ii7kHr8KA9c6XJqcGD0kiPkB+gPM49Nnz+oAy6WT&#xA;+kshs9VsLuNrmLkqA8PUkjeMt325hSRluHPHILjfxBH3tWfBLEalV+RB+5Ex3MUjcUJPvQgfeRlz&#xA;SqYq7FXYq7FXEhQSdgNycVYZczme7nm7M5A+S7fryUubGPJZkWTsVdirsVdirsVdirsVdirsVWyL&#xA;yjZR1I2Pv2xVk2g3wurJK/bUUI/z8Dk5jqwgeiZZBm7FXYq7FVC8v7KyjEl3PHbxk0DSMFBPWgr1&#xA;yvLmhjFyIiPNsxYZ5DUAZHyQ1jr2kX8zJaT+qyryZwjhAoNPtlQv45Vh1eLKagbPuP38m7No8uKN&#xA;zFD3j7uby67gNvdTQHcxOyV8aGlc84z4jjnKB/hNPY4sgnESHUIYXEBuDbeov1gIJDFX4uBJUNTw&#xA;qMj4UuHjr03V+fcnxI8XDfqq68mpftD5YYcm6KhFcQTGQRSLIYnMcnE14uACVNO++XTxyjXEKsWP&#xA;d3ohkjK6N0aPvTby3C0urw8RtHV3I7AD+tBmx7HxmWpjXTdwe1sgjp5X12Zdc6vptrP6NxL6UlBu&#xA;ysFp/r04/jnY5dbixy4ZGj7j9/J5XFosuSPFAWPePu5skt9QsJbZZYJ0nh+z6kZ5rUDoStaHLseW&#xA;MxcSCPJpyYpQNSBB81eOeGTZHDHwB3ybBfirsVdirsVS3Xr4Wtk9PtsKAf5+JycB1YTPRjMa8Y1U&#xA;9QNz798gzXYq7FXYq7FXYq7FXYq7FXYq7FXYqqaZeNZX9K/u5jVfDl3H05ZA3s1z23ZhHIkiB0NV&#xA;bcZAimYNrsCXYq7FVskMUtBIiuFNV5AGh8RXIyiDzDKMiORS/Ude0+ycW3xXN432LK3HqSn5qPsj&#xA;3bMbNrIYzw/VL+aNy5ODRzyDi+mH847BIvOOgrNCNUt09OcKPXgNAStOuxI5L3pmk7b7N8SPjQHq&#xA;/iH46h2PZet4D4Uj6eh/He8c8z6SG1vT7+6lZ7KaRbKSGMmIoJASjGRCGP70A75h9laytPkxQAGS&#xA;IM7Pquuex2+lv7Q015oZJH0E8NDar5bj+krX/lnSra3luJ7m8ZUQvcyNcyVkjQV4vv0oO1Mq0/au&#xA;achGMce5qI4I7E9R5uRPs7FGBlKU9ufqO4HQteStLu7TS42klMgvAs4gK/Ejyb/b+01Rx65PtvUx&#xA;zZzGMd4em++vL33yT2Pp5YsNyltL1V3X5+6ub1XRtLGmWTStGZLt15SKtC2wqEWtB/bm+7N0H5bE&#xA;ZEXkI3/UPxzdLr9Z+YyCINQB2/WU40C+06+dhz43SbNZyjjKu25KHr9GZuHV48uw2l1idj8nGzaP&#xA;Ji3O8ekhuPmnMcltCxiCCCpqBQKrHxFNsyIxA5OPKRPMq3Fa1oK+OFDeKuxV2KrZJEjQu5oq7nCB&#xA;aCaYfqd417f0r+7hNW8OXYfRk5mtmEN91PK2x2KuxV2KuxV2KuxV2KuxV2KuxV2Kqc8XqRlejDdT&#xA;4EYqmug6yaGGbZl2kX8OQ/jl31Dzab4T5MlBDAEGoO4IyludirsVdiqhb2NnbySyQQJHJOxeZ1UB&#xA;mYmpLHqcrhhhEkxABPNsnmnMASJIHJQ1a+isYVuWi9VywRR06gnrQ+GRz5vDjdWz0+DxJVdPMfMv&#xA;lu21m3u7eN/qcdweUQA5+kwYMpG6VowzmcGlGLUeLH6b+nyPMX+x6DNeTD4cudc/Mciw38wL9LNY&#xA;tCYT3F5epG0htoJJCIOdJX4xh6fZIp75PszsuePKcoowhdX/ADq9I/a1doa6JxeEb4pVdD+G9yyP&#xA;yNq2nX+srD9Wu4BBGZIzc2k8EdVoAOciKoO9Rv2w9ndlzhmE8vDQ3+oHf8bp1/aEZ4uDEJWf6JGz&#xA;0mF4pJFUOCKjlQ1oPozpxMHkXnZQkOYTh7XTJZ4ZnjieeA/uJPhLLtTY9chLDCUhIgWORZxzTjEx&#xA;BPCeYRLojrxYBgexyxrbAAAA2A6DFXYq7FXEhQSTQDck4qxrXtZNBDDuzbRr+HI/wy76R5tN8R8k&#xA;qgi9OML1Y7sfEnKW5UxV2KuxV2KuxV2KuxV2KuxV2KuxV2KuxVQnikDieE0mT8RhBpBFp1o2uhl4&#xA;N2+3H3HuuW0Je9qBMfcyGOWORA6Hkp75URTaDa7Al2KuxVLfME7Q6fyEKzAuAwdeSgb70zG1cuGH&#xA;K3K0cOKdXTy/UPK0l7fT3Z1vU7f13L+hbzpHEgJ2VEEeyjoM141Nfwx+Tszpb/in83nuqahL5F/M&#xA;EXcb3mu217aKl8ZSJp4vjNArqg+zxqFJHX5HNhCIz4aPDAg7dA66cjp89jimCN+pZz5e/MHQtduh&#xA;aW0d1BOV5BLmBowQP8r4l/HNfm0ssYskH3F2WDVRyGgCPeGW2U3pXCn9k/C3yOR02ThmF1ePjxkf&#xA;FPVJUgjYjcHN48+n0MnqRK/8wrgZL8Vdiq2SWONC7nio74QLQTTHtZ10KvBe/wBiPufdstoR97US&#xA;Ze5JYIpC5nmNZn/AZUTbaBSvgS7FXYq7FXYq7FXYq7FXYq7FXYq7FXYq7FXYqh5rduYmhPCUb1G1&#xA;cINIItG6brrxvwlPpS9CT9lvn4ZaJA7FpMTHkyW21OGQASfA3j+yfpyMsZHJnHIDzRgIIqOmVtjs&#xA;VS/XWvFsOVq/Bww5tUKeO/Qn3pmPqjLg9Lk6QRM/Uwi7WN7h2uRznJ+NyORO3iK5ppEk783ewoDb&#xA;klN+IRMBEvEU3FCN/pyLYFtrayTtt8Kjq/8ATFJKdx7Ovfcb5OH1BoyfSfcyLOheZTyy/wB5Y/lg&#xA;ZKxIAqemKoO51OGMER/G3j+yPpyyOMnm1yyAcmNalrryPwiPqy9AR9lfl45IyA2DARMuaCht25ma&#xA;Y85TvU70yom24CkRgS7FXYq7FXYq7FXYq7FXYq7FXYq7FXYq7FXYq7FXYqpTW8co+Ib9mHXFVKOW&#xA;+svsn1If5TuP7MnGZDXKAKZ2PmFBQczC3dW3XLOKJ5sOGQ5J1BrIZQXUMD+0hwHF3JGXvWambXUb&#xA;QQib0WDBwWBpsCKGnzzG1GmlONOVptVHHK2O6hpF7ap6kSrdxjqYWBYfNev3Zq8uiyR6W7fDrsc9&#xA;rpjN5c+vIDx4hRSh65hueAmGnf7yr8z+vCxlzRSEB1J6AjJY/qHva8n0n3J09/bL+1yPgBnSCBeX&#xA;MwmMWs8bROChQB9pzkhi72Jy9yV33mFDUczM3ZV2XDxRHJHDI80skmvr37R9OH+UbD+3K5TJZxgA&#xA;qw28cQ+Eb92PXINirirsVdirsVdirsVdirsVdirsVdirsVdirsVdirsVdirsVdirsVUZbWGTcrQ+&#xA;I2xVQFpcRHlBKR8iVOEFiYqi3+qRfaHMe61/FcmMhYHGF667INnhBPsSP1g5LxWPhMJ/MP8AMnyv&#xA;oM1vDf20y3dyDIkkKqwKKaENVk3rmLqdL4wuIHE5uk1ngmpEmPcx7T/z28lBEgEV60hJoBEnf5yD&#xA;MMdlZfJzpdr4f6X4+KPb86PK/E0tb2tNqxxdf+RuWw7Jygg3H7f1NU+2MRBFS+z9af6R5iuNa02H&#xA;ULRWjgn5cAyhW+Bihruw6r45sZyINOphEEWndpDNcIBLISUArXfrlZLaAjorWGPcLU+J3yLJWxV2&#xA;KuxV2KuxV2KuxV2KuxV2KuxV2KuxV2KuxV2KuxV2KuxV2KuxV2KuxV2KuxVogHqK4qwebynb+ZtW&#xA;mS5tbe6a3LhZLtFk4Jy+yvIMR8hnLxlqMmWUYTkKJ/iPesgOoQDeRfL+n6uttPo9h6iMPiW3iIII&#xA;qCPhGYup1GpxExOSdj+kV4Ikck3/AML+Wv8Aq02X/SPF/wA05g/yjqf9Un/ppfrR4ce4I+0tra1i&#xA;FvbRJBAn2Io1CIKkk0VaAVJrnQ9g58mTj45GXLmb71IA5I+yZhcKASAa1Hjsc6BQmeBLsVdirsVd&#xA;irsVdirsVdirsVdirsVdirsVdirsVdirsVdirsVdirsVdirsVdirsVdirCv0heWOpXEtpKYpC7gk&#xA;UII5dwQRnFzzTx5ZGJo2fvZVayK6uLrUknuHMkrtVnPypmLnySnZkbK0nWYKtr9o/Ifxzp/ZzlP/&#xA;ADf0sZImy/3pT6f1HOmQE0wJdirsVdirsVdirsVdirsVdirsVdirsVdirsVdirsVdirsVdirsVdi&#xA;rsVdirsVdirsVYDe/wC9tx/xkf8A4kc4bUf3kv6x+9m3Y/71xf62Y8+RVP8AMRDa/aPyH8c6f2c5&#xA;T/zf0sZImy/3pT6f1HOmQE0wJdirsVdirsVdirsVdirsVdirsVdiqM/RGpf74P3r/XFXfojUv98H&#xA;71/rirv0RqX++D96/wBcVd+iNS/3wfvX+uKu/RGpf74P3r/XFXfojUv98H71/rirv0RqX++D96/1&#xA;xV36I1L/AHwfvX+uKu/RGpf74P3r/XFXfojUv98H71/rirv0RqX++D96/wBcVd+iNS/3wfvX+uKu&#xA;/RGpf74P3r/XFXfojUv98H71/rirv0RqX++D96/1xVht35Q8yPdTOti5VnYqaruCT75yebs/OZyI&#xA;j1Pcyt1r5S8xxXEbvYSBVNSfhP6jlE+zc9fT9y2m36D1f/lkl/4E5i/yXqP5hQvi8v6yxJFo46da&#xA;L+sjOg7D0uTEJ8Yq6/Sgom10DWEnVmtmCitTVfD55vkJh+iNS/3wfvX+uBLv0RqX++D96/1xV36I&#xA;1L/fB+9f64q79Eal/vg/ev8AXFXfojUv98H71/rirv0RqX++D96/1xV36I1L/fB+9f64q79Eal/v&#xA;g/ev9cVd+iNS/wB8H71/rirv0RqX++D96/1xV36I1L/fB+9f64q79Eal/vg/ev8AXFX/2Q==</xmpGImg:image>
               </rdf:li>
            </rdf:Alt>
         </xmp:Thumbnails>
      </rdf:Description>
      <rdf:Description rdf:about=""
            xmlns:xmpMM="http://ns.adobe.com/xap/1.0/mm/"
            xmlns:stRef="http://ns.adobe.com/xap/1.0/sType/ResourceRef#"
            xmlns:stEvt="http://ns.adobe.com/xap/1.0/sType/ResourceEvent#">
         <xmpMM:InstanceID>xmp.iid:50287C55F7D4E7118D9AA44C00CD52E6</xmpMM:InstanceID>
         <xmpMM:DocumentID>xmp.did:50287C55F7D4E7118D9AA44C00CD52E6</xmpMM:DocumentID>
         <xmpMM:OriginalDocumentID>uuid:5D20892493BFDB11914A8590D31508C8</xmpMM:OriginalDocumentID>
         <xmpMM:RenditionClass>proof:pdf</xmpMM:RenditionClass>
         <xmpMM:DerivedFrom rdf:parseType="Resource">
            <stRef:instanceID>uuid:30e88221-f8d5-4825-aaeb-227656bf1477</stRef:instanceID>
            <stRef:documentID>xmp.did:2b6da3ab-1af3-fa4b-9cfd-e24263f524ce</stRef:documentID>
            <stRef:originalDocumentID>uuid:5D20892493BFDB11914A8590D31508C8</stRef:originalDocumentID>
            <stRef:renditionClass>proof:pdf</stRef:renditionClass>
         </xmpMM:DerivedFrom>
         <xmpMM:History>
            <rdf:Seq>
               <rdf:li rdf:parseType="Resource">
                  <stEvt:action>saved</stEvt:action>
                  <stEvt:instanceID>xmp.iid:3a32d959-35c8-42bd-aabc-36133b960f0c</stEvt:instanceID>
                  <stEvt:when>2015-04-09T16:10+07:00</stEvt:when>
                  <stEvt:softwareAgent>Adobe Illustrator CC 2014 (Macintosh)</stEvt:softwareAgent>
                  <stEvt:changed>/</stEvt:changed>
               </rdf:li>
               <rdf:li rdf:parseType="Resource">
                  <stEvt:action>saved</stEvt:action>
                  <stEvt:instanceID>xmp.iid:50287C55F7D4E7118D9AA44C00CD52E6</stEvt:instanceID>
                  <stEvt:when>2017-11-29T14:14:47+02:00</stEvt:when>
                  <stEvt:softwareAgent>Adobe Illustrator CS6 (Windows)</stEvt:softwareAgent>
                  <stEvt:changed>/</stEvt:changed>
               </rdf:li>
            </rdf:Seq>
         </xmpMM:History>
      </rdf:Description>
      <rdf:Description rdf:about=""
            xmlns:illustrator="http://ns.adobe.com/illustrator/1.0/">
         <illustrator:StartupProfile>Print</illustrator:StartupProfile>
      </rdf:Description>
      <rdf:Description rdf:about=""
            xmlns:xmpTPg="http://ns.adobe.com/xap/1.0/t/pg/"
            xmlns:stDim="http://ns.adobe.com/xap/1.0/sType/Dimensions#"
            xmlns:xmpG="http://ns.adobe.com/xap/1.0/g/">
         <xmpTPg:HasVisibleOverprint>False</xmpTPg:HasVisibleOverprint>
         <xmpTPg:HasVisibleTransparency>True</xmpTPg:HasVisibleTransparency>
         <xmpTPg:NPages>1</xmpTPg:NPages>
         <xmpTPg:MaxPageSize rdf:parseType="Resource">
            <stDim:w>800.000000</stDim:w>
            <stDim:h>693.712891</stDim:h>
            <stDim:unit>Pixels</stDim:unit>
         </xmpTPg:MaxPageSize>
         <xmpTPg:PlateNames>
            <rdf:Seq>
               <rdf:li>Cyan</rdf:li>
               <rdf:li>Magenta</rdf:li>
               <rdf:li>Yellow</rdf:li>
               <rdf:li>Black</rdf:li>
            </rdf:Seq>
         </xmpTPg:PlateNames>
         <xmpTPg:SwatchGroups>
            <rdf:Seq>
               <rdf:li rdf:parseType="Resource">
                  <xmpG:groupName>Default Swatch Group</xmpG:groupName>
                  <xmpG:groupType>0</xmpG:groupType>
               </rdf:li>
            </rdf:Seq>
         </xmpTPg:SwatchGroups>
      </rdf:Description>
      <rdf:Description rdf:about=""
            xmlns:pdf="http://ns.adobe.com/pdf/1.3/">
         <pdf:Producer>Adobe PDF library 11.00</pdf:Producer>
      </rdf:Description>
   </rdf:RDF>
</x:xmpmeta>
                                                                                                    
                                                                                                    
                                                                                                    
                                                                                                    
                                                                                                    
                                                                                                    
                                                                                                    
                                                                                                    
                                                                                                    
                                                                                                    
                                                                                                    
                                                                                                    
                                                                                                    
                                                                                                    
                                                                                                    
                                                                                                    
                                                                                                    
                                                                                                    
                                                                                                    
                                                                                                    
                           
<?xpacket end="w"?>
	</metadata>
<g id="Background">
	<rect y="-0.011" opacity="0.8" fill="#CCCCCC" enable-background="new    " width="800" height="694.3"/>
</g>
<g id="Objects">
	<g>
		<ellipse opacity="0.15" fill="#44575D" enable-background="new    " cx="400" cy="374.584" rx="262" ry="227.383"/>
		<ellipse fill="#D5E8F7" cx="400" cy="361.018" rx="262" ry="227.383"/>
		<ellipse fill="#FFFFFF" cx="400" cy="347.139" rx="262" ry="227.383"/>
	</g>
	<g opacity="0.15">
		<path fill="#44575D" d="M417.715,366.027c1.268,0,2.295-0.891,2.295-1.992v-19.913c0-1.101-1.027-1.991-2.295-1.991
			c-1.267,0-2.295,0.891-2.295,1.991v19.913C415.42,365.136,416.448,366.027,417.715,366.027z"/>
		<path fill="#44575D" d="M444.916,370.232c1.188,0.38,2.508-0.15,2.945-1.181l7.923-18.688c0.438-1.032-0.172-2.177-1.361-2.557
			c-1.188-0.378-2.508,0.15-2.945,1.182l-7.923,18.688C443.117,368.707,443.728,369.853,444.916,370.232z"/>
		<path fill="#44575D" d="M470.763,383.431l14.87-15.165c0.822-0.838,0.705-2.095-0.26-2.806c-0.965-0.713-2.413-0.612-3.234,0.226
			l-14.871,15.165c-0.82,0.838-0.704,2.094,0.262,2.807C468.494,384.37,469.941,384.269,470.763,383.431z"/>
		<path fill="#44575D" d="M483.122,401.859c0.622,0.959,2.021,1.298,3.125,0.758l19.989-9.776c1.104-0.54,1.495-1.754,0.873-2.712
			c-0.622-0.959-2.021-1.298-3.125-0.758l-19.99,9.776C482.891,399.687,482.5,400.901,483.122,401.859z"/>
		<path fill="#44575D" d="M517.636,419.641c-0.202-1.085-1.381-1.824-2.632-1.646l-22.649,3.184c-1.251,0.177-2.101,1.2-1.896,2.285
			c0.202,1.086,1.38,1.823,2.631,1.646l22.65-3.184C516.989,421.749,517.839,420.727,517.636,419.641z"/>
		<path fill="#44575D" d="M514.234,447.57l-22.523-3.799c-1.244-0.21-2.448,0.496-2.69,1.575c-0.24,1.078,0.57,2.124,1.815,2.334
			l22.523,3.799c1.243,0.209,2.447-0.495,2.688-1.575C516.291,448.825,515.479,447.78,514.234,447.57z"/>
		<path fill="#44575D" d="M501.429,475.617l-19.627-10.314c-1.084-0.57-2.495-0.27-3.15,0.67c-0.656,0.94-0.311,2.166,0.773,2.735
			l19.627,10.314c1.084,0.57,2.495,0.27,3.151-0.672C502.859,477.41,502.513,476.187,501.429,475.617z"/>
		<path fill="#44575D" d="M389.479,369.051c0.438,1.031,1.757,1.561,2.946,1.181c1.189-0.38,1.799-1.525,1.361-2.557l-7.922-18.688
			c-0.438-1.031-1.757-1.56-2.946-1.182c-1.188,0.381-1.798,1.525-1.361,2.557L389.479,369.051z"/>
		<path fill="#44575D" d="M366.579,383.431c0.822,0.838,2.27,0.939,3.234,0.226c0.965-0.712,1.082-1.969,0.26-2.807l-14.871-15.165
			c-0.821-0.837-2.27-0.938-3.234-0.226c-0.965,0.711-1.082,1.969-0.26,2.806L366.579,383.431z"/>
		<path fill="#44575D" d="M331.104,392.841l19.99,9.776c1.104,0.54,2.503,0.2,3.125-0.758c0.622-0.958,0.232-2.172-0.873-2.712
			l-19.989-9.776c-1.104-0.54-2.504-0.2-3.125,0.758C329.611,391.085,330,392.301,331.104,392.841z"/>
		<path fill="#44575D" d="M344.253,425.109c1.251,0.176,2.429-0.561,2.632-1.646c0.203-1.085-0.647-2.108-1.898-2.285l-22.65-3.184
			c-1.251-0.176-2.429,0.562-2.632,1.646c-0.202,1.086,0.647,2.108,1.898,2.285L344.253,425.109z"/>
		<path fill="#44575D" d="M348.32,445.347c-0.241-1.079-1.446-1.786-2.69-1.575l-22.523,3.799c-1.244,0.21-2.056,1.255-1.814,2.334
			c0.242,1.08,1.446,1.785,2.69,1.575l22.523-3.799C347.75,447.471,348.562,446.425,348.32,445.347z"/>
		<path fill="#44575D" d="M355.54,465.303l-19.627,10.314c-1.084,0.569-1.43,1.793-0.774,2.733c0.656,0.941,2.067,1.243,3.151,0.672
			l19.627-10.314c1.084-0.569,1.43-1.795,0.774-2.735C358.035,465.034,356.624,464.732,355.54,465.303z"/>
		<path fill="#44575D" d="M487.057,591.439h-7.506v-71.004l-9.007-22.148h-24.511v-1.744h1.201c0.813,0,1.479-0.578,1.479-1.284
			v-0.518c0-0.707-0.666-1.284-1.479-1.284h-1.535c1.786-11.61,11.314-26.011,24.509-41.732l0,0l0,0h-0.066
			c3.9-6.862,6.15-14.557,6.15-22.727c0-14.224-6.644-27.101-17.383-36.421c-10.74-9.321-25.577-15.087-41.968-15.087l0,0
			c-32.775,0-59.348,23.061-59.348,51.508c0,8.169,2.25,15.863,6.15,22.727h-0.066l0.431,0.656c0.778,1.322,1.627,2.603,2.529,3.856
			c10.235,11.674,18.398,22.498,22.422,31.627h-9.588v15.635h8.38v3.159h-1.202c-0.814,0-1.48,0.578-1.48,1.285v0.517
			c0,0.085,0.011,0.169,0.029,0.25h-5.728v15.634h8.507v4.561h-8.507v15.634h8.507v3.04h-8.507v15.634h8.507l36.028,18.458v9.771
			h-6.005v12.377h-8.521v89.896h42.835h40.765v-89.897h-6.025v-12.376H487.057z"/>
	</g>
	<g>
		<g>
			<polygon fill="#E8A27C" points="355.999,495.682 447.57,520.436 447.57,603.815 392.027,603.815 392.027,581.668 
				355.999,563.211 			"/>
			<g>
				<g>
					<path fill="#FFA52E" d="M444.311,428.998c0-28.446-26.57-51.508-59.349-51.508c-32.776,0-59.348,23.061-59.348,51.508
						c0,8.169,2.25,15.863,6.149,22.727h-0.066l0.431,0.656c0.778,1.322,1.627,2.603,2.53,3.856
						c12.413,14.157,21.794,27.072,24.418,37.22h54.642c1.787-11.61,11.316-26.011,24.509-41.732h-0.065
						C442.061,444.862,444.311,437.167,444.311,428.998z"/>
					<path fill="#FF9933" d="M413.718,493.457c1.786-11.61,11.316-26.011,24.509-41.732h-0.065
						c3.899-6.861,6.149-14.556,6.149-22.727c0-28.446-26.57-51.508-59.349-51.508v115.966L413.718,493.457L413.718,493.457z"/>
					<path fill="#FF5F2E" d="M431.268,425.347c-1.254,0-2.386-0.745-2.68-1.85c-7.052-26.368-28.134-30.549-29.027-30.716
						c-1.485-0.272-2.44-1.538-2.128-2.827c0.309-1.289,1.77-2.109,3.242-1.854c1.034,0.182,25.396,4.83,33.279,34.313
						c0.344,1.285-0.578,2.573-2.059,2.869C431.686,425.327,431.475,425.347,431.268,425.347z"/>
				</g>
				<g>
					<path fill="#335572" d="M376.674,496.228c-0.871,0-1.689-0.472-1.998-1.226l-15.069-46.767
						c-0.392-0.958,0.186-2.009,1.29-2.349c1.097-0.338,2.314,0.16,2.706,1.12l15.069,46.766c0.391,0.958-0.187,2.009-1.29,2.349
						C377.148,496.193,376.91,496.228,376.674,496.228z"/>
					<path fill="#335572" d="M393.236,496.228c-0.222,0-0.445-0.031-0.667-0.094c-1.111-0.32-1.714-1.359-1.345-2.325l13.772-46.767
						c0.365-0.964,1.57-1.48,2.679-1.168c1.111,0.319,1.714,1.359,1.347,2.325l-13.772,46.767
						C394.955,495.738,394.126,496.228,393.236,496.228z"/>
					<path fill="#335572" d="M411.18,461.88c-0.406,0-0.816-0.101-1.18-0.313l-10.911-6.36l-4.822,2.83
						c-0.64,0.374-1.461,0.416-2.147,0.119l-7.005-3.08l-6.166,3.038c-0.644,0.313-1.429,0.32-2.068,0.011l-6.244-2.977
						l-10.689,6.407c-0.965,0.571-2.284,0.367-2.95-0.469c-0.665-0.838-0.422-1.982,0.541-2.561l11.768-7.053
						c0.66-0.396,1.521-0.435,2.225-0.097l6.354,3.029l6.124-3.019c0.619-0.299,1.371-0.318,2.006-0.042l6.908,3.037l4.973-2.918
						c0.718-0.418,1.652-0.422,2.37-0.004l12.096,7.053c0.972,0.566,1.229,1.71,0.578,2.553
						C412.531,461.595,411.863,461.88,411.18,461.88z"/>
				</g>
				<g>
					<rect x="355.873" y="495" fill="#335572" width="58.18" height="26.504"/>
					<g>
						<path fill="#152E42" d="M415.254,496.543h-60.583c-0.814,0-1.48-0.578-1.48-1.284v-0.518c0-0.707,0.666-1.284,1.48-1.284
							h60.583c0.814,0,1.48,0.577,1.48,1.284v0.518C416.734,495.965,416.068,496.543,415.254,496.543z"/>
						<path fill="#152E42" d="M415.254,503.144h-60.583c-0.814,0-1.48-0.577-1.48-1.283v-0.519c0-0.705,0.666-1.283,1.48-1.283
							h60.583c0.814,0,1.48,0.578,1.48,1.283v0.519C416.734,502.566,416.068,503.144,415.254,503.144z"/>
						<path fill="#152E42" d="M415.254,509.744h-60.583c-0.814,0-1.48-0.577-1.48-1.284v-0.517c0-0.707,0.666-1.285,1.48-1.285
							h60.583c0.814,0,1.48,0.578,1.48,1.285v0.517C416.734,509.167,416.068,509.744,415.254,509.744z"/>
						<path fill="#152E42" d="M415.254,516.345h-60.583c-0.814,0-1.48-0.577-1.48-1.283v-0.518c0-0.706,0.666-1.284,1.48-1.284
							h60.583c0.814,0,1.48,0.578,1.48,1.284v0.518C416.734,515.768,416.068,516.345,415.254,516.345z"/>
						<path fill="#152E42" d="M415.254,522.946h-60.583c-0.814,0-1.48-0.578-1.48-1.284v-0.518c0-0.706,0.666-1.285,1.48-1.285
							h60.583c0.814,0,1.48,0.579,1.48,1.285v0.518C416.734,522.368,416.068,522.946,415.254,522.946z"/>
					</g>
				</g>
				<g>
					<g>
						<path fill="#FF862C" d="M385.734,366.026c-1.267,0-2.294-0.89-2.294-1.991v-19.913c0-1.101,1.028-1.991,2.294-1.991
							c1.267,0,2.294,0.891,2.294,1.991v19.913C388.028,365.136,387.001,366.026,385.734,366.026z"/>
						<path fill="#FF862C" d="M412.936,370.232c-1.188-0.38-1.799-1.525-1.36-2.557l7.922-18.688
							c0.438-1.031,1.757-1.56,2.946-1.182c1.188,0.38,1.799,1.525,1.36,2.557l-7.923,18.688
							C415.443,370.083,414.124,370.612,412.936,370.232z"/>
						<path fill="#FF862C" d="M435.547,383.657c-0.964-0.712-1.081-1.969-0.26-2.807l14.87-15.165
							c0.821-0.837,2.271-0.938,3.234-0.227c0.965,0.712,1.081,1.97,0.261,2.807l-14.87,15.165
							C437.96,384.269,436.512,384.37,435.547,383.657z"/>
						<path fill="#FF862C" d="M451.141,401.859c-0.621-0.958-0.23-2.172,0.873-2.712l19.989-9.776c1.104-0.54,2.504-0.2,3.126,0.758
							c0.621,0.958,0.231,2.172-0.873,2.712l-19.989,9.776C453.162,403.157,451.763,402.817,451.141,401.859z"/>
						<path fill="#FF862C" d="M458.476,423.462c-0.201-1.085,0.647-2.108,1.898-2.284l22.649-3.185
							c1.251-0.177,2.429,0.562,2.632,1.646c0.202,1.086-0.647,2.108-1.898,2.284l-22.648,3.186
							C459.856,425.285,458.679,424.548,458.476,423.462z"/>
						<path fill="#FF862C" d="M457.04,445.347c0.241-1.079,1.445-1.786,2.69-1.575l22.522,3.799c1.244,0.21,2.056,1.255,1.814,2.334
							c-0.242,1.08-1.446,1.785-2.69,1.575l-22.522-3.799C457.61,447.471,456.798,446.425,457.04,445.347z"/>
						<path fill="#FF862C" d="M446.67,465.974c0.656-0.939,2.066-1.241,3.151-0.67l19.626,10.314
							c1.085,0.569,1.431,1.794,0.773,2.734c-0.655,0.94-2.065,1.242-3.15,0.671l-19.626-10.314
							C446.359,468.139,446.014,466.914,446.67,465.974z"/>
						<path fill="#FF862C" d="M360.444,370.232c1.189-0.38,1.799-1.525,1.361-2.557l-7.923-18.688
							c-0.438-1.031-1.757-1.56-2.945-1.182c-1.189,0.38-1.799,1.525-1.361,2.557l7.923,18.688
							C357.937,370.083,359.256,370.612,360.444,370.232z"/>
						<path fill="#FF862C" d="M337.832,383.657c0.965-0.712,1.082-1.969,0.261-2.807l-14.871-15.165
							c-0.821-0.837-2.27-0.938-3.234-0.227c-0.964,0.712-1.082,1.97-0.26,2.807l14.871,15.165
							C335.419,384.269,336.868,384.37,337.832,383.657z"/>
						<path fill="#FF862C" d="M322.239,401.859c0.622-0.958,0.231-2.172-0.873-2.712l-19.99-9.776
							c-1.104-0.54-2.503-0.2-3.125,0.758c-0.622,0.958-0.231,2.172,0.873,2.712l19.99,9.776
							C320.217,403.157,321.617,402.817,322.239,401.859z"/>
						<path fill="#FF862C" d="M314.904,423.462c0.203-1.085-0.647-2.108-1.898-2.284l-22.649-3.185
							c-1.251-0.177-2.429,0.562-2.632,1.646c-0.203,1.086,0.646,2.108,1.898,2.284l22.649,3.186
							C313.523,425.285,314.701,424.548,314.904,423.462z"/>
						<path fill="#FF862C" d="M316.34,445.347c-0.242-1.079-1.446-1.786-2.69-1.575l-22.523,3.799
							c-1.244,0.21-2.056,1.255-1.814,2.334c0.242,1.08,1.446,1.785,2.69,1.575l22.523-3.799
							C315.77,447.471,316.581,446.425,316.34,445.347z"/>
						<path fill="#FF862C" d="M326.71,465.974c-0.656-0.939-2.067-1.241-3.151-0.67l-19.627,10.314
							c-1.084,0.569-1.43,1.794-0.774,2.734c0.656,0.94,2.067,1.242,3.151,0.671l19.626-10.314
							C327.02,468.139,327.366,466.914,326.71,465.974z"/>
					</g>
				</g>
			</g>
			<g>
				<path fill="#FBBD96" d="M376.515,503.498h-29.023c-9.492,0-8.992-15.634,0-15.634h29.023
					C386.667,487.88,387.854,503.499,376.515,503.498z"/>
				<path fill="#FBBD96" d="M376.515,524.344h-29.023c-8.633,0.222-9.399-15.446,0-15.634h29.023
					C387.833,508.71,387.98,524.344,376.515,524.344z"/>
				<path fill="#FBBD96" d="M376.515,544.537h-29.023c-9.492,0-8.326-15.634,0-15.634h29.023
					C387,529.104,388.833,544.537,376.515,544.537z"/>
				<path fill="#FBBD96" d="M376.515,563.211h-29.023c-9.134-0.839-8.187-15.014,0-15.634h29.023
					C389.729,547.039,387.98,563.211,376.515,563.211z"/>
				<path fill="#FBBD96" d="M447.57,603.815v-83.38l-9.007-22.148h-41.897c-13.167,0-5.392,15.484,5.118,17.227l18.015,2.315
					l8.256,15.636l-21.016,17.588v52.764L447.57,603.815L447.57,603.815z"/>
			</g>
		</g>
		<g>
			<rect x="386.022" y="591.439" fill="#152E42" width="69.054" height="12.376"/>
			<rect x="420.51" y="591.439" fill="#335572" width="34.566" height="12.376"/>
		</g>
		<g>
			<g>
				<rect x="377.503" y="603.815" fill="#A7B442" width="83.599" height="89.896"/>
				<rect x="420.338" y="603.815" fill="#C2D64A" width="40.764" height="89.896"/>
			</g>
			<ellipse fill="#E4F0DC" cx="398.157" cy="623.033" rx="8.882" ry="7.709"/>
		</g>
	</g>
	<polygon opacity="0.15" fill="#44575D" enable-background="new    " points="391.928,113.09 391.928,102.192 385.179,102.192 
		385.179,89.814 376.66,89.814 376.66,-0.08 419.494,-0.08 460.258,-0.08 460.258,89.814 454.232,89.814 454.232,102.192 
		448.846,102.192 448.846,112.269 448.872,115.706 471.288,130.604 488.025,152.818 473.34,165.517 452.788,147.201 
		434.038,142.321 434.006,142.354 440.538,155.773 455.524,165.925 450.434,178.349 426.918,164.228 433.395,175.361 
		453.695,185.968 449.571,200.824 420.538,188.752 414.539,181.901 416.538,191.79 439.502,208.246 434.881,224.464 
		407.451,208.688 404.385,202.713 405.907,214.473 422.278,228.099 416.58,244.992 390.475,224.623 370.105,162.639 	"/>
	<g>
		<g>
			<g>
				<path fill="#E8A27C" d="M381.502,191.79l22.964,16.457c11.284,7.193,8.034,21.079-4.621,16.219l-27.43-15.776l-30.216-58.88
					l32.825,9.946L381.502,191.79z"/>
				<path fill="#E8A27C" d="M398.357,175.361l20.302,10.606c9.02,5.753,5.427,17.972-4.124,14.856l-29.033-12.072l-37.722-43.074
					l34.665,2.326L398.357,175.361z"/>
				<path fill="#E8A27C" d="M420.488,165.925c7.512,5.036,2.012,15.016-5.092,12.424l-56.367-33.847l36.597-9.015l9.875,20.287
					L420.488,165.925z"/>
			</g>
			<path fill="#FBBD96" d="M452.989,152.818c6.011,9.03-6.239,18.577-14.686,12.699l-20.552-18.315l-18.75-4.88l-33.047,34.174
				l4.916,37.978l16.371,13.627c11.258,9.254,4.316,22.489-5.698,16.893l-26.106-20.369l-20.369-61.983l21.823-49.549v-10.898
				h56.917v10.077l0.025,3.437l22.417,14.899L452.989,152.818z"/>
		</g>
		<g>
			<g>
				<rect x="350.143" y="89.814" fill="#E9C451" width="69.054" height="12.376"/>
				<rect x="384.63" y="89.814" fill="#FFD859" width="34.565" height="12.376"/>
			</g>
			<g>
				<g>
					<rect x="341.624" y="-0.08" fill="#017783" width="83.598" height="89.896"/>
					<rect x="384.458" y="-0.08" fill="#018391" width="40.764" height="89.896"/>
				</g>
				<ellipse fill="#E4F0DC" cx="362.277" cy="70.598" rx="8.882" ry="7.708"/>
			</g>
		</g>
	</g>
	<rect x="241.954" y="239.918" fill="none" width="271.486" height="95.028"/>
</g>
</svg>
