<?xml version="1.0" encoding="utf-8"?>
<!-- Generator: Adobe Illustrator 16.0.0, SVG Export Plug-In . SVG Version: 6.00 Build 0)  -->
<!DOCTYPE svg PUBLIC "-//W3C//DTD SVG 1.1//EN" "http://www.w3.org/Graphics/SVG/1.1/DTD/svg11.dtd" [
	<!ENTITY ns_extend "http://ns.adobe.com/Extensibility/1.0/">
	<!ENTITY ns_ai "http://ns.adobe.com/AdobeIllustrator/10.0/">
	<!ENTITY ns_graphs "http://ns.adobe.com/Graphs/1.0/">
	<!ENTITY ns_vars "http://ns.adobe.com/Variables/1.0/">
	<!ENTITY ns_imrep "http://ns.adobe.com/ImageReplacement/1.0/">
	<!ENTITY ns_sfw "http://ns.adobe.com/SaveForWeb/1.0/">
	<!ENTITY ns_custom "http://ns.adobe.com/GenericCustomNamespace/1.0/">
	<!ENTITY ns_adobe_xpath "http://ns.adobe.com/XPath/1.0/">
]>
<svg version="1.1" id="Layer_1" xmlns:x="&ns_extend;" xmlns:i="&ns_ai;" xmlns:graph="&ns_graphs;"
	 xmlns="http://www.w3.org/2000/svg" xmlns:xlink="http://www.w3.org/1999/xlink" x="0px" y="0px" width="271px" height="364.879px"
	 viewBox="0 0 271 364.879" enable-background="new 0 0 271 364.879" xml:space="preserve">
<metadata><?xpacket begin="﻿" id="W5M0MpCehiHzreSzNTczkc9d"?>
<x:xmpmeta xmlns:x="adobe:ns:meta/" x:xmptk="Adobe XMP Core 5.3-c011 66.145661, 2012/02/06-14:56:27        ">
   <rdf:RDF xmlns:rdf="http://www.w3.org/1999/02/22-rdf-syntax-ns#">
      <rdf:Description rdf:about=""
            xmlns:dc="http://purl.org/dc/elements/1.1/">
         <dc:format>image/svg+xml</dc:format>
         <dc:title>
            <rdf:Alt>
               <rdf:li xml:lang="x-default">Print</rdf:li>
            </rdf:Alt>
         </dc:title>
      </rdf:Description>
      <rdf:Description rdf:about=""
            xmlns:xmp="http://ns.adobe.com/xap/1.0/"
            xmlns:xmpGImg="http://ns.adobe.com/xap/1.0/g/img/">
         <xmp:MetadataDate>2017-12-10T11:49:36+02:00</xmp:MetadataDate>
         <xmp:ModifyDate>2017-12-10T11:49:36+02:00</xmp:ModifyDate>
         <xmp:CreateDate>2017-12-10T11:49:35+02:00</xmp:CreateDate>
         <xmp:CreatorTool>Adobe Illustrator CS6 (Windows)</xmp:CreatorTool>
         <xmp:Thumbnails>
            <rdf:Alt>
               <rdf:li rdf:parseType="Resource">
                  <xmpGImg:width>192</xmpGImg:width>
                  <xmpGImg:height>256</xmpGImg:height>
                  <xmpGImg:format>JPEG</xmpGImg:format>
                  <xmpGImg:image>/9j/4AAQSkZJRgABAgEASABIAAD/7QAsUGhvdG9zaG9wIDMuMAA4QklNA+0AAAAAABAASAAAAAEA&#xA;AQBIAAAAAQAB/+4ADkFkb2JlAGTAAAAAAf/bAIQABgQEBAUEBgUFBgkGBQYJCwgGBggLDAoKCwoK&#xA;DBAMDAwMDAwQDA4PEA8ODBMTFBQTExwbGxscHx8fHx8fHx8fHwEHBwcNDA0YEBAYGhURFRofHx8f&#xA;Hx8fHx8fHx8fHx8fHx8fHx8fHx8fHx8fHx8fHx8fHx8fHx8fHx8fHx8fHx8f/8AAEQgBAADAAwER&#xA;AAIRAQMRAf/EAaIAAAAHAQEBAQEAAAAAAAAAAAQFAwIGAQAHCAkKCwEAAgIDAQEBAQEAAAAAAAAA&#xA;AQACAwQFBgcICQoLEAACAQMDAgQCBgcDBAIGAnMBAgMRBAAFIRIxQVEGE2EicYEUMpGhBxWxQiPB&#xA;UtHhMxZi8CRygvElQzRTkqKyY3PCNUQnk6OzNhdUZHTD0uIIJoMJChgZhJRFRqS0VtNVKBry4/PE&#xA;1OT0ZXWFlaW1xdXl9WZ2hpamtsbW5vY3R1dnd4eXp7fH1+f3OEhYaHiImKi4yNjo+Ck5SVlpeYmZ&#xA;qbnJ2en5KjpKWmp6ipqqusra6voRAAICAQIDBQUEBQYECAMDbQEAAhEDBCESMUEFURNhIgZxgZEy&#xA;obHwFMHR4SNCFVJicvEzJDRDghaSUyWiY7LCB3PSNeJEgxdUkwgJChgZJjZFGidkdFU38qOzwygp&#xA;0+PzhJSktMTU5PRldYWVpbXF1eX1RlZmdoaWprbG1ub2R1dnd4eXp7fH1+f3OEhYaHiImKi4yNjo&#xA;+DlJWWl5iZmpucnZ6fkqOkpaanqKmqq6ytrq+v/aAAwDAQACEQMRAD8A7Tm1eedirsVdirsVdirs&#xA;VdirsVdirsVdirsVdirsVdirsVdirsVdirsVdirsVR2if8dW3+Z/4icrzfSW/Tf3gQOWNDsVdirs&#xA;VdirsVdirsVdirsVdirsVdirsVdirsVdirsVdirsVdirsVdiqO0T/jq2/wAz/wAROV5vpLfpv7wI&#xA;HLGh2KuxV2KuxV2KuxV2KuxV2KuxV2KuxV2KuxV2KuxV2KuxV2KuxV2KuxVHaJ/x1bf5n/iJyvN9&#xA;Jb9N/eBA5Y0OxV2KuxV2KuxV2KuxV2KuxV2KuxV2KuxV2KuxV2KuxV2KuxV2KuxV2Ko7RP8Ajq2/&#xA;zP8AxE5Xm+kt+m/vAgcsaHYq7FXYq7FXYq7FXYq7FXYqpT3EMC8pGp4DufozD1vaGHTR4skq8up9&#xA;wcnTaTJmNQF/chUvrq4JFrBUD9pun8P15yOq9sSD+7gB/W/UP1u+xdgRA/eS+X4/QqGLWetI/wDV&#xA;zW/6LtTf8Py/a5P8jab+l81jXd9B/vTbniOrp0/jmw0vtjK6yQB/q7fYXHy9gQP93LfzRMFzDOKx&#xA;tUjqvcZ12i7Sw6kXjlfeOo+DodVosuA1MfHoq5nOK7FXYq7FXYq7FXYq7FUdon/HVt/mf+InK830&#xA;lv0394EDljQ7FXYq7FXYq7FXYq7FXYqh7y7W3i5dXbZFzVdr9qR0mLi5zP0j8dA5/Z2hOonXKI5l&#xA;I5JHkcu55Me+eYajUTzTM5m5F7rDhjjiIxFAMotPQ+rp6FPTp8NP4++auV3u0Su91XAh2KoC801W&#xA;/fW37u4XcU2DZlaXVzwzEomiOqZCM4mMxcSts7sToQw4yps656v2N2tHWY7O2SPMfpHkXju0tAdP&#xA;PbeB5H9CIzcOudirsVdirsVdirsVR2if8dW3+Z/4icrzfSW/Tf3gQOWNDsVdirsVdirsVdirsVdi&#xA;qQ385muWNfhX4V+QzyvtzWnUamR/hj6R8P1nd7zsvTDFgA6nc/FDZqHYqkU80RrE7Ie9DTAQDzQQ&#xA;CiY9Yv06uHHgwH8KHIHFFicYR9trsbELOnA/zruPu65XLD3NcsXcmasrKGUgqdwR0ylqSvUE+rXs&#xA;d0uySnjL883fYWvOn1EZdOR/qn9XNp1mDxsModRuPejM9eeEdirsVdirsVdirsVR2if8dW3+Z/4i&#xA;crzfSW/Tf3gQOWNDsVdirsVdirsVdirsVac8UYjegJyvNPhgSOgLPHHikB3ljWeMvpTWBXYq7FXY&#xA;qmmi3jJN9XY/A/2PZv7cpyx2tqyR2tH6yoNg5P7JUj7wP45Xi+prx824GLQxsepUE/SM9s0UzPDC&#xA;R5mMT9jwOpiI5ZAchI/evzJaXYq7FXYq7FXYqjtE/wCOrb/M/wDETleb6S36b+8CByxodirsVdir&#xA;sVdirsVdirsVY7cRelO8f8p2+XbPIO0NN4GeeP8Amn7On2PoukzeLijPvH29Uk82X2o2Hl+8vNOU&#xA;NdQKHXkKgKGHM070SuHs7FjyZ4wyfSfwPtZaicowJjzDDIPzP12Sz/SC6Skmn2vpx30wYr+9f+Xr&#xA;xBPsfc75vZ9g4RPg8SpysxHl+Pc4A18yOLh9I5qh/MfzMht45NFQTakFbSxzIDB2ovLxr/sfHpkf&#xA;5E05sjIax/Xt3fjzT+eyben6uTh+Y/mZ2uIo9GQzaarvqg5miqjUYqO1P9lj/ImnFE5DU/o27/x5&#xA;L+eybjh+nmnPkHzdq+u6hf3UsKxafbtH9VA+0rVJ4lv2jx65hdr9nYtNCEQbmbv8dG7S6iWUyv6X&#xA;pmsyVgSBd2mYAD2H9tM5/SYZZMgiOZNfNsEhAGR5RCsqhVCjoAAPoz23FjEIiI5AU+fTmZSJPVvJ&#xA;sXYq7FXYq7FXYqjtE/46tv8AM/8AETleb6S36b+8CByxodirsVdirsVdirsVdirsVS3V7aoE6jps&#xA;/wDA5xntV2fYGeI5bS/Qf0fJ6XsDWUTiPvH6QlMkaSI0bqGRwVZTuCDsQc4gEg2HqCLeMroeqQ6/&#xA;e+TYbtbezvJVesoqHSMGSOlB9rjTwqRndnV45YY6ox4pRHToTsXQ+FITOIGgU9PkTzvI9nNJf2vr&#xA;aQqJptKkERtUcjwHYDrXNcO19IBICEqyXxfH4uT+UzGjY9PJJvMml+ZPLsU11c30L3GvepHeRRA8&#xA;jVuTcaqBTehpTrTM/Q6jBqiIxieHDRiT+PxTj58eTECSd583pPkzQ/0P5ftbMrS4cercePqybkH/&#xA;AFdl+jOV7T1fj55S/h5D3D8W7XS4vDxgdWaQ1urxrg7xQ/BF7075uvZLs3imc0uUeXvP6h97pO29&#xA;VwYxiHOW59yNz0F5V2KuxV2KuxV2KuxVHaJ/x1bf5n/iJyvN9Jb9N/eBA5Y0OxV2KuxV2KuxV2Ku&#xA;xV2KtMqspVhVSKEZDJjjOJjIXE7FlCZjISHMMfurdoJmjPTqp8Rnk/aehlpcxxnl0PePx9r6BotU&#xA;M+ITHPr73nH5p2klpNpnmK1+G4tZViY+NCZI/oBDA/PNt7P5BMTwS+mQv9B/Q4/aEeExyDmGeWlz&#xA;HdWkNzH/AHc8ayp8nAYfrznMkDCRieYNOyjKwD3vPr+M+YPzQjtH+Kz0lA7L2+ABzt7yOqn2zpsJ&#xA;/LdnmQ+rJ+nb7hbrJjxdRXSP4+96RGjO6ov2mNBnN4MMssxCP1SNOwy5BCJlLkGRQQrDEsa9FHXx&#xA;Pjnruj0sdPijjjyiP7S+e6nPLNkM5dUw0/Srm9chfgQCpkYGn0eOW5MoijDglMplD5VNW9afb9ng&#xA;OvzrlJ1PcHKjoe8pZf6VdWkrqUZ4l3EwU8aH37ZdDKJBxcuCUD5d6DyxpdirsVdiqO0T/jq2/wAz&#xA;/wAROV5vpLfpv7wIHLGh2KuxV2KuxV2KuxV2KuxV2KoHVoOcAkA+KPr8jnMe1Gi8TB4g+rH9x/H3&#xA;u87C1PBl4Dyn97z78y4RJ5OvW6mJonH/ACNVf1NnJ9hSrVR87+4vS68XiKO8lzGXyppbk1pbonj9&#xA;j4P+Ncxu1I8OpmP6X3tulN44+5i3kEev508yXR6iSRRXqA8zGn/CZuO2PTpMMfIf7n9rh6PfLM/j&#xA;m9U0eHlI0p6JsvzOX+yej4sksp/g2HvP7PvcH2g1PDAYx/FufcP2/cm6mjA0Boa0PQ53ryYTUeZd&#xA;QAACxgDoOJ/rlH5eLl/nZ+Tv8Taj4R/8Cf64/l4r+dn5NN5k1BlKssZUihHE9D9OP5eKnWTPclWX&#xA;uI7FXYq7FUdon/HVt/mf+InK830lv0394EDljQ7FXYq7FXYq7FW1VmYKoLMdgBuTjagWmsHlu+li&#xA;WQlY+X7DVDAe4plEtREFy46OZF8mr/y/dWwVoq3CkHlxWhFPapwwzg89kZdJKPLdKsucViX5pa7q&#xA;ei+Tbq703kl0zJELoKrrArGpkcOGXjtw37sMo1URLGYkWJbH4uTox+8Bvlu+etQ8+ecNQs5bO816&#xA;KW2mAEkfo2y1AIPVUB6jNBh7J0+KQnGNSHmf1vQz1eSQonb4O0/z55w0+zis7PXooraEERx+jbNQ&#xA;Ek9WQnqcc3ZOnyyM5RuR8z+tYavJEUDt8EPpnmzzJplxc3FjrcUU143K4cxQOWNSf21am7Hplufs&#xA;/DljGMxYjy3P6Cxx6icCSDzeyfkh5u8w622qW+q3X6QSERyRXKRxRpGTUFD6SrVm6ivhmf2bpseG&#xA;JhjFRu3V9pzMyJSO/J6tmydW7FXYq7FXYq7FXYq7FUdon/HVt/mf+InK830lv0394EDljQ7FXYq7&#xA;FXYq7FVSC4mt5BLC3CQbBqA9fnglEEUWUJmJsIr9N6r/AMtB+5f6ZDwY9zb+Zyd7v03qv/LQfuX+&#xA;mPgx7l/M5O9BMxZix3LGp+ZyxoJtgH52gf4GkJWUlbiIho/7tTRt5/8Aiv8A4245TqPpcrR/W+c/&#xA;Vf8A35b/AOf05gu4d6r/AO/Lf/P6cVd6r/78t/8AP6cVeu/849ktqGrsSzfuoxyi/uPtHZ/8v+X2&#xA;5Zk6bmXX6/kHtuZbrXYq7FXYq7FXYq7FXYqjtE/46tv8z/xE5Xm+kt+m/vAgcsaHYq7FXYq7FXYq&#xA;7FXYq7FXYqlvmTQrTX9CvdHuyy297GY2dPtKeqsPdWAOCUbFM8czGQIfPGq/84/eabK6MUWoWU0J&#xA;3jkczRsRWm6iNwD/ALI5r8mIxLucOcTFoP8A5Ub5s/5a7D/kZN/1RyFN1qlv+Q/m6adIheWALsBX&#xA;1JjSvf8AucMYEmmE8giCS9w/LH8vIfJWjS2puBdX124lu51UqtVFFRASfhWp3PWuZ+LHwh0+oz+I&#xA;b6MxyxodirsVdirsVdirsVdiqO0T/jq2/wAz/wAROV5vpLfpv7wIHLGh2KuxV2KuxV2KuxV2KuxV&#xA;2KuxV2lWFnrWsvZXArBZKrygVDMz1IUMOi0FTTNHrNdepjgjttxE/oH6XfaLR8GDxpfxkgfDr8+S&#xA;YWfl/wApSzXlrNZ+neWzvWFpJQTFUmN1q+4ZR18a+GYh7QEZThP0zjZHmK6fp/U5uTTECMhvGVb+&#xA;fUJLNp1nZeWbbXYI+M0by/WFqT6kIkZeQ5E8SEXkKdfpzFj2rkwww5Zm+PaQ9/X4fpcjL2fDLllh&#xA;GxIHCe6VfcTt5fBEqysoZTVWFQR3BzsQbFh42USDR5hvFDsVdirsVdirsVdirsVR2if8dW3+Z/4i&#xA;crzfSW/Tf3gQOWNDsVdirqGle2KuxV2KuxV2KuxV2KuxVDaVd/o7zlE7GkWoQ8T7yQE1/wCSbnON&#xA;9oP3GpxajpyPu5H7CHreyz42hlD+LFP7Jf8AHgjb15vNXmNYNOf6tBpZP1jUkALgkf3KV2apoXB2&#xA;HzzXRB7SzHi2xAbDrX874/Z9+0xAaTBxTHEcnKP++Pd5dUq843Elnoll5bgkE11KFtUdRxDAEerJ&#xA;TegJ2zCnep1McUN4YvSPM9T+O5yNEY+JPUz2hG5fqCOgiWGCOFd1jUIK+CimenY4CMREdA+dZshy&#xA;TMzzkSfmvyTW7FXYq7FXYq7FWyrAVIIHvjaaLWKEdon/AB1bf5n/AIicrzfSW/Tf3gQOWNDsVdiq&#xA;aaNA1ys0IAalG4nvXY5j59iC5mljxAhFvaLCfTaIL7UGUcZPVyPDA2pA3Gm8nBhooP2geg+WXQzU&#xA;N3GyaezshprGeJeRAZR1K9stjlBaZ4ZR3Q+WNTsVdirsVQmo6NPqiwx2031a4hkWRJx1UfZen+xY&#xA;/Tms7W0Q1GLhPe7nsPXjTZSSOKMokEfaPtUNFkuPKmuXWgXUpWJg1xp9y2weJgSwJ8RQ/SD7Z5/2&#xA;ngy6TNx4zRqvgfx83s9TEavDHPEb8pDzQ+iWk2r3d15muFIgBMGmKR/utTxZx/n1rnQ+zGgGMcZ5&#xA;/p6n9Dq/aPN4OCOmjz2lP9X6fknWdk8O7FXYq7FW1UswUdWNB9OJNJAs0m8VjbxqAVDt3Zt8w5ZS&#xA;XPjhiAuSzgWXmqfF0A7V9hgOQkUkYog2ApayksUcSOvHmSwr12/28s0/Mlr1VgAJVmS4SO0T/jq2&#xA;/wAz/wAROV5vpLfpv7wIHLGh2KuxVHaNd/VtQjcmiP8AA/yb+3K80bi36bJwzDLLyD1oSAKuN0+e&#xA;a8F2842ErltLiIcnT4fEb/qydtBgQo9cLFIp0CTOo6BiBmfE2A6yYokLMLF2KuxVM9Ci53NfdR9F&#xA;an9WY+oOzl6SNlX89+T08yabGkbLFf27BreZunFiA6t7Eb/MZpdbpBmj/SD1fZXaJ00yTvA8x9yM&#xA;udJtrLRrextV4w20fooO9KdT7kipzO08RjAA5B1GvySzEzlzkxnNo6B2KuxV2Kr4A/rJwHJgQQPl&#xA;vglVbsoXYpP40eRgqCrHtmvdoBaYWdi8UvOSmw+EDffIkt0IUd2O67dfWNReh+CL92v0dfxzOwRq&#xA;Lq9VPin7kvy1x0don/HVt/mf+InK830lv0394EDljQ7FXYq7FWY6LffW7JeRrLH8Enjt0P05r80O&#xA;GTudNl44+YR5AIIO4OxGVOQlM+nzxgsAGUeHUDJiTjyxkJLdacxPOIlix+JT7965lY83QuBkwdQ0&#xA;ulPT4pAD4AV/phOfyUaY96HuLSWDdt1PRhlkMgk05MRivtrCSQgyApH1r3ORnlA5M8eAnnyTzRrW&#xA;OKc8K0ALGv3ZiZJmXNz9PjETsnWVOWo3ic7aQdwKj6N8IYzFhjkumQlagFCeh7fjmSMxddLTxSqS&#xA;No3ZG6qaHMoGxbhSjRp3pSEV4NTxoceILwnuX29tJO1F6Dqx6DBOYiyhjMjsmthpvGYBW5OwpU7A&#xA;DqcxcmWw5uHBRT+2s44KlSSxFCTmOS50YAKOr3ws7J3BpK3wxD/KPf6MnihxSa9Rl4I31YZmxdK7&#xA;FUdon/HVt/mf+InK830lv0394EDljQ7FXYq7FUXpd+9ldCTcxt8Mq+K/1GQyQ4g3YMvBK+jM45Ek&#xA;RZEPJGFVI7g5riKd0CCLC7AlJ76NY7lguwO9PnlgcaYorYLSabdB8P8AMdhiSiMCVSXSpuH7Ljuv&#xA;+3iJJlhKpp9oS5klX4R9kHx+WAlljh1KZUFa03yDe7FXYq0yqylWFQeoOKkJFdaWkd083pkr2Y7r&#xA;0y8ZTVOFPABK16Wtw4qqEjsen68hbMRJU2haJiGTgTudqVw3bHhpG6dDMswkKHgQRyO2RkW3GDaY&#xA;syopZiFVRUk9ABkG4mmHavqLXt0WH9ynwxD28fpzY4sfCPN02ozccvJA5Y0OxVHaJ/x1bf5n/iJy&#xA;vN9Jb9N/eBA5Y0OxV2KuxV2KptomsG0b0JjW3Y7H+Qnv8sozYuLcc3L02o4NjyZUGBAINQdwR3rm&#xA;C7a1N7eF2LOgYnucNsTEFeqqihVFFGwGBkA3irsVdirsVdirsVdirsVWvGj05qGoaivjigi1xIAJ&#xA;JoBuScUsY1zWfrBNtbn9wD8bj9sj+GZuHDW55ur1Wp4vSOSTZkOE7FXYqjtE/wCOrb/M/wDETleb&#xA;6S36b+8CByxodirsVdirsVdiqaaVrctnSKWslv4d1/1f6ZTlwiW45uVg1Jhsdwyi3uYLiMSQuHQ9&#xA;x2+Y7ZgyiRzdrCYkLCpgZOxV2KuxV2KuxV2KuxV2Kqc9xDbxmSZwiDucMYkmgxlMRFljGq65Ld1i&#xA;hrHb9/5m+ft7Zm4sIjuebq8+qM9hySrL3EdirsVdiqO0T/jq2/zP/ETleb6S36b+8CByxodirsVd&#xA;irsVdirsVVba6uLaT1IHKN3p0PzHfBKIPNnDIYmwU+svM8TALdpwb/fibr9I65iz0x6Ofj1o/iTm&#xA;C5t515QyLIP8k1+/MYxI5ubGYlyKpgZOxV2KuxV2KrJZ4YV5Susa+LED9eERJ5MZSA5lJ73zNAgK&#xA;2i+q387VCj6OpzIhpyebh5daB9O6QXV5c3UnOdy57DsPkMyowEeTr55JSNkqOSYOxV2KuxV2Ko7R&#xA;P+Orb/M/8ROV5vpLfpv7wIHLGh2KuxV2KuxV2KuxV2KuxVtHdGDIxVh0YGh/DEi0gkckdDrmpxUA&#xA;mLqOzgNX6Tv+OVnDE9G6OqyDqiV80X4+1HG30MP45WdNFtGun3BVHmuam9upPiGIH6sH5Yd7P8+e&#xA;5TfzTen7EUaj3DH+IwjTRYnXS7ghZtc1OWoMxQHsgC/iN8sGGI6NMtVkPVAs7u3J2LN4k1OWANJN&#xA;tYodirsVdirsVdirsVR2if8AHVt/mf8AiJyvN9Jb9N/eBA5Y0OxV2KuxV2KuxV2KuxV2KuxV2Kux&#xA;V2KuxV2KuxV2KuxV2KuxV2KuxV2Ko7RP+Orb/M/8ROV5vpLfpv7wIHLGh2KuxV2KuxV2KuxV2Kux&#xA;V2KuxV2KuxV2KuxV2KuxV2KuxV2KuxV2KuxVHaJ/x1bf5n/iJyvN9Jb9N/eBA5Y0OxV2KuxV2Kux&#xA;V2KuxV2KuxV2KuxV2KuxV2KuxV2KuxV2KuxV2KuxV2Ko7RP+Orb/ADP/ABE5Xm+kt+m/vAgcsaHY&#xA;q7FXYq7FXYq7FXYq7FXYq7FXYq7FXYq7FXYq7FXYq7FXYq7FXYq7FUdon/HVt/mf+InK830lv039&#xA;4EDljQ7FXYq7FXYq7FXYq7FXYq7FXYq7FXYq7FXYq7FXYq7FXYq7FXYq7FXYqjtE/wCOrb/M/wDE&#xA;Tleb6S36b+8CByxodirsVdirsVdirsVdirsVdirsVdirsVdirsVdirsVdirsVdirsVdirsVR2if8&#xA;dW3+Z/4icrzfSW/Tf3gQOWNDsVdirsVdirsVdirsVdirsVdirsVdirsVdirsVdirsVdirsVdirsV&#xA;diqO0T/jq2/zP/ETleb6S36b+8D/AP/Z</xmpGImg:image>
               </rdf:li>
            </rdf:Alt>
         </xmp:Thumbnails>
      </rdf:Description>
      <rdf:Description rdf:about=""
            xmlns:xmpMM="http://ns.adobe.com/xap/1.0/mm/"
            xmlns:stRef="http://ns.adobe.com/xap/1.0/sType/ResourceRef#"
            xmlns:stEvt="http://ns.adobe.com/xap/1.0/sType/ResourceEvent#">
         <xmpMM:InstanceID>xmp.iid:98EB94548FDDE711A460BE741C0639E1</xmpMM:InstanceID>
         <xmpMM:DocumentID>xmp.did:98EB94548FDDE711A460BE741C0639E1</xmpMM:DocumentID>
         <xmpMM:OriginalDocumentID>uuid:5D20892493BFDB11914A8590D31508C8</xmpMM:OriginalDocumentID>
         <xmpMM:RenditionClass>proof:pdf</xmpMM:RenditionClass>
         <xmpMM:DerivedFrom rdf:parseType="Resource">
            <stRef:instanceID>xmp.iid:B0E0692B72CFE711865FE310528B6CAB</stRef:instanceID>
            <stRef:documentID>xmp.did:B0E0692B72CFE711865FE310528B6CAB</stRef:documentID>
            <stRef:originalDocumentID>uuid:5D20892493BFDB11914A8590D31508C8</stRef:originalDocumentID>
            <stRef:renditionClass>proof:pdf</stRef:renditionClass>
         </xmpMM:DerivedFrom>
         <xmpMM:History>
            <rdf:Seq>
               <rdf:li rdf:parseType="Resource">
                  <stEvt:action>saved</stEvt:action>
                  <stEvt:instanceID>xmp.iid:B0E0692B72CFE711865FE310528B6CAB</stEvt:instanceID>
                  <stEvt:when>2017-11-22T12:59:12+02:00</stEvt:when>
                  <stEvt:softwareAgent>Adobe Illustrator CS6 (Windows)</stEvt:softwareAgent>
                  <stEvt:changed>/</stEvt:changed>
               </rdf:li>
               <rdf:li rdf:parseType="Resource">
                  <stEvt:action>saved</stEvt:action>
                  <stEvt:instanceID>xmp.iid:98EB94548FDDE711A460BE741C0639E1</stEvt:instanceID>
                  <stEvt:when>2017-12-10T11:49:36+02:00</stEvt:when>
                  <stEvt:softwareAgent>Adobe Illustrator CS6 (Windows)</stEvt:softwareAgent>
                  <stEvt:changed>/</stEvt:changed>
               </rdf:li>
            </rdf:Seq>
         </xmpMM:History>
      </rdf:Description>
      <rdf:Description rdf:about=""
            xmlns:illustrator="http://ns.adobe.com/illustrator/1.0/">
         <illustrator:StartupProfile>Print</illustrator:StartupProfile>
      </rdf:Description>
      <rdf:Description rdf:about=""
            xmlns:xmpTPg="http://ns.adobe.com/xap/1.0/t/pg/"
            xmlns:stDim="http://ns.adobe.com/xap/1.0/sType/Dimensions#"
            xmlns:xmpG="http://ns.adobe.com/xap/1.0/g/">
         <xmpTPg:HasVisibleOverprint>False</xmpTPg:HasVisibleOverprint>
         <xmpTPg:HasVisibleTransparency>False</xmpTPg:HasVisibleTransparency>
         <xmpTPg:NPages>1</xmpTPg:NPages>
         <xmpTPg:MaxPageSize rdf:parseType="Resource">
            <stDim:w>271.000000</stDim:w>
            <stDim:h>364.878906</stDim:h>
            <stDim:unit>Pixels</stDim:unit>
         </xmpTPg:MaxPageSize>
         <xmpTPg:PlateNames>
            <rdf:Seq>
               <rdf:li>Cyan</rdf:li>
               <rdf:li>Magenta</rdf:li>
               <rdf:li>Yellow</rdf:li>
               <rdf:li>Black</rdf:li>
            </rdf:Seq>
         </xmpTPg:PlateNames>
         <xmpTPg:SwatchGroups>
            <rdf:Seq>
               <rdf:li rdf:parseType="Resource">
                  <xmpG:groupName>Default Swatch Group</xmpG:groupName>
                  <xmpG:groupType>0</xmpG:groupType>
               </rdf:li>
            </rdf:Seq>
         </xmpTPg:SwatchGroups>
      </rdf:Description>
      <rdf:Description rdf:about=""
            xmlns:pdf="http://ns.adobe.com/pdf/1.3/">
         <pdf:Producer>Adobe PDF library 10.01</pdf:Producer>
      </rdf:Description>
   </rdf:RDF>
</x:xmpmeta>
                                                                                                    
                                                                                                    
                                                                                                    
                                                                                                    
                                                                                                    
                                                                                                    
                                                                                                    
                                                                                                    
                                                                                                    
                                                                                                    
                                                                                                    
                                                                                                    
                                                                                                    
                                                                                                    
                                                                                                    
                                                                                                    
                                                                                                    
                                                                                                    
                                                                                                    
                                                                                                    
                           
<?xpacket end="w"?>
	</metadata>
<rect fill="#A6DDF0" width="271" height="364.879"/>
<g>
	<g>
		<ellipse fill="#A6DDF0" cx="142.79" cy="174.947" rx="105.864" ry="103.443"/>
		<path fill="#D8EDEE" d="M227.764,236.654c-0.121-7.104-5.275-13.41-12.693-14.858c-7.289-1.422-14.404,2.312-17.403,8.618
			c-1.747-1.521-3.916-2.623-6.378-3.104c-5.375-1.052-10.641,1.153-13.668,5.223c-0.873-0.346-1.789-0.617-2.746-0.805
			c-8.318-1.623-16.41,3.648-18.07,11.776c-1.66,8.13,3.735,16.035,12.057,17.658c2.859,0.56,5.693,0.302,8.246-0.604
			c-0.012,0.057-0.025,0.11-0.039,0.17c-0.834,4.086,0.19,8.108,2.505,11.242C198.941,264.959,215.639,252.568,227.764,236.654z"/>
		<path fill="#D8EDEE" d="M71.534,242.741c6.087,3.151,13.636,0.885,16.862-5.06c3.225-5.949,0.906-13.326-5.18-16.479
			c-1.136-0.587-2.317-0.986-3.514-1.208c0.09-0.154,0.185-0.313,0.271-0.471c3.354-6.184,0.939-13.851-5.386-17.125
			c-3.675-1.902-7.859-1.9-11.385-0.358c-0.905-2.563-2.771-4.81-5.416-6.179c-4.046-2.096-8.806-1.563-12.228,0.986
			c-0.865-0.979-1.925-1.822-3.164-2.466c-1.229-0.636-2.525-1.021-3.828-1.173c3.396,18.627,11.896,35.527,24.034,49.273
			c1.973-0.342,3.841-1.188,5.385-2.482C68.964,241.089,70.15,242.025,71.534,242.741z M57.435,221.133
			c-0.003-0.359-0.026-0.719-0.064-1.076c0.191,0.321,0.402,0.627,0.625,0.93C57.806,221.031,57.619,221.08,57.435,221.133z"/>
		<polygon fill="#D8EDEE" points="137.952,176.483 124.179,252.68 166.859,250.162 150.62,175.685 		"/>
		<path fill="#D8EDEE" d="M174.458,245.375c1.229-3.313-0.288-6.945-3.414-8.518c0.851-0.934,1.536-2.03,1.999-3.273
			c1.956-5.262-0.824-11.078-6.208-12.988c-5.385-1.912-11.336,0.803-13.292,6.064c-0.219,0.588-0.374,1.181-0.479,1.773
			c-0.453-0.233-0.926-0.443-1.422-0.621c-5.744-2.039-12.096,0.856-14.182,6.472c-1.779,4.784,0.115,9.995,4.271,12.694
			c-1.265,1.021-2.275,2.375-2.875,3.988c-1.313,3.529-0.306,7.326,2.258,9.809c-0.336,0.555-0.629,1.146-0.86,1.771
			c-2.028,5.46,0.854,11.497,6.442,13.479c5.589,1.984,11.767-0.834,13.797-6.295c0.697-1.875,0.814-3.82,0.439-5.646
			c0.041,0.015,0.077,0.03,0.117,0.044c5.359,1.903,11.284-0.8,13.231-6.039c1.301-3.496,0.497-7.238-1.776-9.908
			C173.359,247.445,174.042,246.496,174.458,245.375z"/>
		<path fill="#D8EDEE" d="M234.924,197.2c-0.378,0.493-0.701,1.011-0.979,1.545c-0.356-0.351-0.742-0.683-1.16-0.988
			c-4.834-3.548-11.7-2.596-15.332,2.127c-3.098,4.029-2.842,9.496,0.295,13.222c-1.497,0.609-2.854,1.605-3.898,2.965
			c-2.283,2.973-2.451,6.852-0.759,9.921c-0.481,0.431-0.932,0.905-1.338,1.436c-3.532,4.599-2.584,11.123,2.119,14.576
			c2.305,1.69,5.084,2.331,7.733,2.002c12.719-13.848,21.666-31.063,25.273-50.112C242.693,192.279,237.76,193.512,234.924,197.2z"
			/>
		<path fill="#D8EDEE" d="M133.17,233.579c0.522-0.755,0.945-1.604,1.234-2.537c1.383-4.448-0.769-9.024-4.807-10.22
			c-3.653-1.086-7.599,0.973-9.339,4.67c-3.397-0.104-6.699,2.308-7.854,6.021c-0.938,3.021-0.203,6.103,1.654,8.094
			c-1.655,0.615-3.062,2.051-3.657,3.975c-0.964,3.1,0.536,6.289,3.35,7.124c0.248,0.073,0.499,0.12,0.749,0.153
			c-0.006,0.021-0.018,0.041-0.021,0.063c-1.037,3.335,0.579,6.768,3.604,7.665c3.028,0.899,6.321-1.078,7.358-4.413
			c0.188-0.604,0.286-1.21,0.307-1.804c0.079,0.024,0.152,0.052,0.229,0.075c4.841,1.437,10.11-1.729,11.769-7.063
			C139.262,240.503,137.23,235.497,133.17,233.579z"/>
		<path fill="#D8EDEE" d="M119.492,264.191c0.928,0.146,1.884,0.215,2.858,0.188c8.479-0.222,15.171-7.118,14.943-15.402
			c-0.229-8.287-7.286-14.824-15.768-14.604c-2.914,0.076-5.617,0.939-7.9,2.379c-0.001-0.061,0-0.115-0.001-0.173
			c-0.218-7.948-6.987-14.22-15.122-14.004c-5.434,0.141-10.098,3.141-12.532,7.481c-1.449-0.718-3.097-1.104-4.837-1.06
			c-5.146,0.136-9.285,4.005-9.785,8.882c-1.708-0.613-3.563-0.929-5.492-0.879c-2.341,0.061-4.538,0.652-6.479,1.648
			c12.145,15.158,28.521,26.92,47.394,33.593c0.191,0.003,0.384,0.01,0.58,0.004C112.831,272.105,117.463,268.813,119.492,264.191z"
			/>
		<path fill="#FFFFFF" d="M224.956,240.173c-1.043-0.827-2.209-1.541-3.492-2.104c-6.778-2.979-14.567-0.896-18.938,4.598
			c-1.354-1.864-3.215-3.413-5.504-4.419c-5-2.197-10.636-1.198-14.518,2.104c-0.771-0.527-1.604-0.994-2.492-1.387
			c-7.738-3.398-16.83-0.027-20.311,7.53c-3.48,7.56-0.031,16.442,7.707,19.845c2.658,1.169,5.479,1.538,8.175,1.212
			c-0.022,0.054-0.051,0.104-0.076,0.157c-0.903,1.967-1.317,4.025-1.295,6.05C194.374,267.643,211.95,255.796,224.956,240.173z"/>
		<path fill="#FFFFFF" d="M75.457,250.712c0.053-0.026,0.104-0.051,0.158-0.079c7.158-3.779,9.827-12.513,5.957-19.508
			c-2.582-4.671-7.427-7.383-12.493-7.544c0.001-1.588-0.391-3.2-1.217-4.694c-2.445-4.426-7.852-6.289-12.528-4.521
			c-0.213-1.768-0.76-3.524-1.677-5.186c-2.702-4.888-7.866-7.639-13.18-7.588c6.544,24.055,21.731,44.657,42.119,58.451
			c-0.306-1.2-0.77-2.381-1.396-3.52C79.813,254.02,77.802,252.052,75.457,250.712z"/>
		<polygon fill="#FFFFFF" points="139.648,190.902 128.966,244.195 162.072,242.436 149.477,190.344 		"/>
		<path fill="#FFFFFF" d="M160.936,271.698c0.041,0.013,0.078,0.03,0.117,0.043c5.359,1.903,11.284-0.8,13.231-6.038
			c1.301-3.498,0.498-7.24-1.776-9.909c0.852-0.739,1.532-1.688,1.95-2.81c1.229-3.313-0.288-6.947-3.414-8.521
			c0.851-0.931,1.536-2.028,1.998-3.272c1.957-5.262-0.821-11.075-6.207-12.987c-5.385-1.912-11.336,0.804-13.292,6.065
			c-0.219,0.588-0.375,1.181-0.479,1.771c-0.453-0.232-0.926-0.441-1.422-0.621c-5.744-2.039-12.096,0.857-14.182,6.473
			c-1.779,4.785,0.115,9.998,4.271,12.693c-1.264,1.021-2.273,2.374-2.875,3.99c-1.313,3.525-0.306,7.324,2.258,9.806
			c-0.336,0.558-0.629,1.146-0.86,1.773c-1.037,2.792-0.79,5.729,0.446,8.204c0.693,0.014,1.392,0.024,2.088,0.024
			c6.083,0,12.045-0.509,17.848-1.471C161.201,275.175,161.282,273.385,160.936,271.698z"/>
		<path fill="#FFFFFF" d="M242.984,202.766c-4.998,1.242-8.309,5.656-8.254,10.48c-1.56-0.441-3.254-0.498-4.939-0.079
			c-3.688,0.913-6.307,3.833-6.956,7.26c-0.649,0.042-1.31,0.138-1.963,0.3c-5.703,1.416-9.151,7.082-7.704,12.653
			c1.275,4.907,5.926,8.104,10.914,7.831c9.542-11.164,16.718-24.322,20.781-38.743
			C244.238,202.516,243.611,202.611,242.984,202.766z"/>
		<path fill="#FFFFFF" d="M135.505,238.912c0.209-0.889,0.29-1.83,0.218-2.801c-0.35-4.637-4.043-8.149-8.251-7.846
			c-3.808,0.271-6.729,3.58-6.991,7.643c-3.208,1.098-5.399,4.51-5.107,8.38c0.237,3.151,2.059,5.767,4.524,6.97
			c-1.315,1.155-2.101,2.988-1.948,4.994c0.243,3.23,2.817,5.68,5.749,5.469c0.259-0.02,0.511-0.063,0.756-0.121
			c0.001,0.021,0,0.043,0.001,0.065c0.262,3.478,3.031,6.11,6.188,5.883c3.154-0.228,5.5-3.229,5.238-6.706
			c-0.048-0.629-0.179-1.229-0.378-1.792c0.081-0.004,0.161-0.005,0.243-0.011c5.046-0.363,8.796-5.165,8.378-10.727
			C143.74,243.229,140,239.273,135.505,238.912z"/>
		<path fill="#FFFFFF" d="M128.652,276.833c8.479-0.222,15.171-7.119,14.944-15.405c-0.229-8.287-7.285-14.824-15.768-14.603
			c-2.914,0.077-5.619,0.94-7.901,2.379c0-0.058,0-0.115,0-0.173c-0.219-7.948-6.988-14.219-15.122-14.006
			c-5.435,0.142-10.099,3.141-12.533,7.483c-1.45-0.719-3.099-1.104-4.837-1.061c-5.146,0.135-9.286,4.005-9.786,8.881
			c-1.709-0.613-3.563-0.933-5.491-0.879c-0.857,0.021-1.694,0.116-2.507,0.274c15.086,14.092,34.431,23.861,55.956,27.295
			c0.063-0.127,0.127-0.252,0.185-0.381C126.721,276.79,127.676,276.857,128.652,276.833z"/>
		<path fill="#FFFFFF" d="M177.438,265.006c-2.914,0.076-5.619,0.939-7.901,2.379c-0.001-0.058,0-0.115-0.001-0.172
			c-0.219-7.949-6.988-14.218-15.122-14.006c-5.435,0.141-10.099,3.143-12.533,7.484c-1.448-0.719-3.097-1.105-4.837-1.062
			c-5.145,0.138-9.285,4.004-9.786,8.884c-1.708-0.613-3.562-0.932-5.491-0.882c-4.702,0.123-8.83,2.378-11.449,5.79
			c10.232,3.223,21.146,4.969,32.476,4.969c16.102,0,31.359-3.521,45.021-9.804C185.025,266.266,181.387,264.902,177.438,265.006z"
			/>
		<path fill="#FFFFFF" d="M210.057,124.1c-0.41,0.079-0.802,0.203-1.166,0.364c-0.021-0.225-0.05-0.451-0.096-0.677
			c-0.638-3.199-3.813-5.286-7.084-4.662c-1.802,0.344-3.257,1.438-4.1,2.884c-1.227-1.22-3.036-1.833-4.883-1.481
			c-2.242,0.427-3.889,2.156-4.272,4.227c-0.699-0.118-1.433-0.117-2.167,0.023c-2.403,0.459-4.188,2.266-4.691,4.461h34.75
			c0.004-0.351-0.025-0.708-0.1-1.066C215.691,125.377,212.919,123.554,210.057,124.1z M198.053,128.9
			c0.057-0.071,0.111-0.145,0.162-0.219c0.113,0.133,0.23,0.26,0.354,0.382C198.4,129.001,198.229,128.948,198.053,128.9z"/>
		<path fill="#FFFFFF" d="M98.505,146.516c-0.32,0.061-0.625,0.158-0.91,0.284c-0.015-0.175-0.038-0.352-0.073-0.528
			c-0.498-2.498-2.976-4.127-5.529-3.64c-1.407,0.269-2.543,1.122-3.2,2.252c-0.958-0.952-2.37-1.431-3.813-1.157
			c-1.752,0.334-3.036,1.684-3.338,3.3c-0.545-0.092-1.115-0.091-1.691,0.018c-1.877,0.358-3.271,1.77-3.662,3.483h27.128
			c0.004-0.274-0.021-0.552-0.077-0.832C102.903,147.513,100.738,146.089,98.505,146.516z M89.134,150.264
			c0.044-0.056,0.087-0.113,0.126-0.171c0.088,0.104,0.183,0.203,0.277,0.299C89.406,150.342,89.27,150.301,89.134,150.264z"/>
	</g>
	<g>
		<g>
			<path fill="#F15B2B" d="M146.924,212.92c4.193-10.271,13.666-23.242,13.516-29.07c-0.149-5.828-7.049-13.936-14.625-13.749
				c-7.572,0.188-14.047,8.526-13.895,14.456C132.075,190.484,146.924,212.92,146.924,212.92z"/>
			<path fill="#F7EB3C" d="M146.732,205.523c3.427-8.396,11.168-18.994,11.045-23.756c-0.123-4.764-5.76-11.389-11.95-11.236
				c-6.19,0.153-11.48,6.968-11.354,11.813C134.596,187.188,146.732,205.523,146.732,205.523z"/>
			<path fill="#FFFFFF" d="M146.521,197.445c2.642-6.469,8.604-14.635,8.514-18.305c-0.096-3.67-4.439-8.775-9.21-8.659
				c-4.771,0.118-8.849,5.37-8.75,9.103C137.172,183.316,146.521,197.445,146.521,197.445z"/>
		</g>
		<g>
			<path fill="#F15B2B" d="M134.413,201.121c4.252-6.066,12.332-13.137,13.104-16.939c0.771-3.804-2.498-10.047-7.44-11.003
				c-4.944-0.956-10.386,3.534-11.173,7.402C128.121,184.45,134.413,201.121,134.413,201.121z"/>
			<path fill="#F7EB3C" d="M135.391,196.295c3.475-4.96,10.08-10.736,10.708-13.845c0.629-3.109-2.041-8.21-6.082-8.992
				c-4.04-0.782-8.486,2.888-9.127,6.049C130.247,182.669,135.391,196.295,135.391,196.295z"/>
			<path fill="#FFFFFF" d="M136.458,191.023c2.679-3.823,7.769-8.274,8.253-10.668c0.484-2.396-1.57-6.327-4.688-6.929
				c-3.112-0.604-6.542,2.226-7.036,4.662C132.497,180.523,136.458,191.023,136.458,191.023z"/>
		</g>
		<g>
			<path fill="#F15B2B" d="M149.714,188.605c-0.022-4.672,1.584-11.219,0.58-13.479c-1.004-2.257-5.021-4.365-7.956-3.12
				c-2.938,1.245-4.121,5.514-3.1,7.811C140.262,182.118,149.714,188.605,149.714,188.605z"/>
			<path fill="#F7EB3C" d="M148.438,185.74c-0.018-3.818,1.295-9.168,0.476-11.014c-0.821-1.847-4.104-3.569-6.502-2.55
				c-2.396,1.017-3.364,4.505-2.531,6.384C140.714,180.438,148.438,185.74,148.438,185.74z"/>
			<path fill="#FFFFFF" d="M147.048,182.608c-0.014-2.942,0.999-7.064,0.366-8.487c-0.632-1.424-3.163-2.75-5.014-1.964
				c-1.849,0.784-2.594,3.472-1.949,4.919C141.096,178.522,147.048,182.608,147.048,182.608z"/>
		</g>
		<g>
			<path fill="#E8B02D" d="M183.412,89.121c-21.145,27.364-28.934,3.722-40.62,3.805c-6.121,0.044-10.57,24.646-40.622-3.805
				c-0.001-21.92,18.188-39.691,40.622-39.691C165.225,49.43,183.412,67.201,183.412,89.121z"/>
			<path fill="#E8B02D" d="M102.17,89.121c4.454,24.762,16.693,27.792,23.371,53.676c14.497,9.429,13.384,7.252,36.729,1.859
				c3.334-23.823,21.145-38.191,21.145-55.535C184.525,63.201,105.511,68.281,102.17,89.121z"/>
			<g>
				<path fill="none" stroke="#414042" stroke-width="4.8956" stroke-linecap="round" stroke-miterlimit="10" d="M124.433,96.664
					c0,0,7.698,17.271,10.024,23.678c2.326,6.407,2.395,21.705,2.395,21.705"/>
				<path fill="none" stroke="#414042" stroke-width="4.8956" stroke-linecap="round" stroke-miterlimit="10" d="M163.957,96.664
					c0,0-7.693,17.271-10.021,23.678c-2.328,6.407-2.396,21.705-2.396,21.705"/>
			</g>
			<path fill="#A6A8AC" d="M129.945,154.774v12.249c0,3.767,2.501,6.82,5.589,6.819h16.76c3.081,0,5.582-3.052,5.582-6.819
				l-0.001-12.249H129.945z"/>
			<path fill="#221F1F" d="M122.988,139.751v19.86c0,3.767,3.124,6.82,6.977,6.82h27.893c3.853,0,6.978-3.053,6.978-6.82v-19.86
				H122.988z"/>
			<g>
				<path fill="none" stroke="#414042" stroke-width="4.084" stroke-linecap="round" stroke-miterlimit="10" d="M136.089,102.973
					c0,2.871-1.814,5.197-4.052,5.197c-2.239,0-4.051-2.327-4.051-5.197c-0.001-2.866,1.813-5.192,4.051-5.193
					C134.274,97.779,136.089,100.108,136.089,102.973z"/>
				<path fill="none" stroke="#414042" stroke-width="4.084" stroke-linecap="round" stroke-miterlimit="10" d="M144.193,102.973
					c0,2.871-1.813,5.197-4.053,5.197c-2.236,0-4.053-2.326-4.053-5.197c0-2.865,1.814-5.192,4.053-5.192
					C142.382,97.78,144.193,100.107,144.193,102.973z"/>
				<path fill="none" stroke="#414042" stroke-width="4.084" stroke-linecap="round" stroke-miterlimit="10" d="M152.302,102.973
					c0,2.871-1.815,5.197-4.054,5.197c-2.24,0-4.055-2.326-4.057-5.197c0.002-2.866,1.814-5.192,4.057-5.192
					C150.486,97.78,152.302,100.108,152.302,102.973z"/>
				<path fill="none" stroke="#414042" stroke-width="4.084" stroke-linecap="round" stroke-miterlimit="10" d="M160.404,102.973
					c-0.002,2.871-1.813,5.197-4.051,5.197s-4.054-2.327-4.054-5.197c0-2.865,1.813-5.193,4.054-5.192
					C158.592,97.779,160.402,100.107,160.404,102.973z"/>
			</g>
			<path fill="#FDE03A" d="M129.945,56.72c10.024-7.228,27.909-1.081,34.534,3.623c9.207,6.535,16.004,20.968,14.942,30.3
				c-1.063,9.332-5.103,14.255-8.856,22.939c-1.336,3.088,4.565-9.412-2.606-26.263c-5.354-12.575-20.839-15.784-31.104-16.944
				C129.668,69.563,119.976,63.911,129.945,56.72z"/>
			<path fill="#414042" d="M166.249,145.737c0,0.543-0.429,0.98-0.955,0.98h-42.967c-0.526,0-0.954-0.438-0.954-0.98v-1.704
				c0-0.542,0.428-0.98,0.954-0.98h42.967c0.526,0,0.955,0.439,0.956,0.981L166.249,145.737z"/>
			<path fill="#414042" d="M166.25,151.598c-0.001,0.542-0.43,0.981-0.956,0.981h-42.967c-0.526,0-0.954-0.439-0.954-0.981v-1.703
				c0-0.542,0.428-0.981,0.954-0.981h42.967c0.526,0,0.955,0.438,0.955,0.98L166.25,151.598z"/>
			<path fill="#414042" d="M166.348,157.46c0,0.541-0.428,0.98-0.953,0.98h-42.97c-0.526,0-0.954-0.439-0.954-0.98v-1.703
				c0-0.543,0.428-0.983,0.954-0.983h42.97c0.525,0,0.953,0.44,0.953,0.983V157.46z"/>
		</g>
	</g>
</g>
</svg>
