<?xml version="1.0" encoding="utf-8"?>
<!-- Generator: Adobe Illustrator 16.0.0, SVG Export Plug-In . SVG Version: 6.00 Build 0)  -->
<!DOCTYPE svg PUBLIC "-//W3C//DTD SVG 1.1//EN" "http://www.w3.org/Graphics/SVG/1.1/DTD/svg11.dtd" [
	<!ENTITY ns_extend "http://ns.adobe.com/Extensibility/1.0/">
	<!ENTITY ns_ai "http://ns.adobe.com/AdobeIllustrator/10.0/">
	<!ENTITY ns_graphs "http://ns.adobe.com/Graphs/1.0/">
	<!ENTITY ns_vars "http://ns.adobe.com/Variables/1.0/">
	<!ENTITY ns_imrep "http://ns.adobe.com/ImageReplacement/1.0/">
	<!ENTITY ns_sfw "http://ns.adobe.com/SaveForWeb/1.0/">
	<!ENTITY ns_custom "http://ns.adobe.com/GenericCustomNamespace/1.0/">
	<!ENTITY ns_adobe_xpath "http://ns.adobe.com/XPath/1.0/">
]>
<svg version="1.1" id="Layer_1" xmlns:x="&ns_extend;" xmlns:i="&ns_ai;" xmlns:graph="&ns_graphs;"
	 xmlns="http://www.w3.org/2000/svg" xmlns:xlink="http://www.w3.org/1999/xlink" x="0px" y="0px" width="260px" height="207px"
	 viewBox="0 0 260 207" enable-background="new 0 0 260 207" xml:space="preserve">
<metadata><?xpacket begin="﻿" id="W5M0MpCehiHzreSzNTczkc9d"?>
<x:xmpmeta xmlns:x="adobe:ns:meta/" x:xmptk="Adobe XMP Core 5.3-c011 66.145661, 2012/02/06-14:56:27        ">
   <rdf:RDF xmlns:rdf="http://www.w3.org/1999/02/22-rdf-syntax-ns#">
      <rdf:Description rdf:about=""
            xmlns:dc="http://purl.org/dc/elements/1.1/">
         <dc:format>image/svg+xml</dc:format>
         <dc:title>
            <rdf:Alt>
               <rdf:li xml:lang="x-default">Print</rdf:li>
            </rdf:Alt>
         </dc:title>
      </rdf:Description>
      <rdf:Description rdf:about=""
            xmlns:xmp="http://ns.adobe.com/xap/1.0/"
            xmlns:xmpGImg="http://ns.adobe.com/xap/1.0/g/img/">
         <xmp:MetadataDate>2017-12-05T15:44:03+02:00</xmp:MetadataDate>
         <xmp:ModifyDate>2017-12-05T15:44:03+02:00</xmp:ModifyDate>
         <xmp:CreateDate>2017-12-05T15:44:03+02:00</xmp:CreateDate>
         <xmp:CreatorTool>Adobe Illustrator CS6 (Windows)</xmp:CreatorTool>
         <xmp:Thumbnails>
            <rdf:Alt>
               <rdf:li rdf:parseType="Resource">
                  <xmpGImg:width>256</xmpGImg:width>
                  <xmpGImg:height>204</xmpGImg:height>
                  <xmpGImg:format>JPEG</xmpGImg:format>
                  <xmpGImg:image>/9j/4AAQSkZJRgABAgEASABIAAD/7QAsUGhvdG9zaG9wIDMuMAA4QklNA+0AAAAAABAASAAAAAEA&#xA;AQBIAAAAAQAB/+4ADkFkb2JlAGTAAAAAAf/bAIQABgQEBAUEBgUFBgkGBQYJCwgGBggLDAoKCwoK&#xA;DBAMDAwMDAwQDA4PEA8ODBMTFBQTExwbGxscHx8fHx8fHx8fHwEHBwcNDA0YEBAYGhURFRofHx8f&#xA;Hx8fHx8fHx8fHx8fHx8fHx8fHx8fHx8fHx8fHx8fHx8fHx8fHx8fHx8fHx8f/8AAEQgAzAEAAwER&#xA;AAIRAQMRAf/EAaIAAAAHAQEBAQEAAAAAAAAAAAQFAwIGAQAHCAkKCwEAAgIDAQEBAQEAAAAAAAAA&#xA;AQACAwQFBgcICQoLEAACAQMDAgQCBgcDBAIGAnMBAgMRBAAFIRIxQVEGE2EicYEUMpGhBxWxQiPB&#xA;UtHhMxZi8CRygvElQzRTkqKyY3PCNUQnk6OzNhdUZHTD0uIIJoMJChgZhJRFRqS0VtNVKBry4/PE&#xA;1OT0ZXWFlaW1xdXl9WZ2hpamtsbW5vY3R1dnd4eXp7fH1+f3OEhYaHiImKi4yNjo+Ck5SVlpeYmZ&#xA;qbnJ2en5KjpKWmp6ipqqusra6voRAAICAQIDBQUEBQYECAMDbQEAAhEDBCESMUEFURNhIgZxgZEy&#xA;obHwFMHR4SNCFVJicvEzJDRDghaSUyWiY7LCB3PSNeJEgxdUkwgJChgZJjZFGidkdFU38qOzwygp&#xA;0+PzhJSktMTU5PRldYWVpbXF1eX1RlZmdoaWprbG1ub2R1dnd4eXp7fH1+f3OEhYaHiImKi4yNjo&#xA;+DlJWWl5iZmpucnZ6fkqOkpaanqKmqq6ytrq+v/aAAwDAQACEQMRAD8ATzhX152KuxV2KuxV2Kux&#xA;V2KuxV2KuxV2KuxV2KuxV2KuxV2KuxV2KuxV2KuxV2KuxV2KuxV2KuxV2KuxV2KuxV2KrJZUiXk5&#xA;oMtw4ZZJcMRZcfU6rHghxzND8clES3cm8cYRexfr9wzLOHBj2nIyl/R/W6yOq1mbfHCMId8+fyHJ&#xA;v/Tl3+B/bcHH/BZbeuPyKT/KEN/3c/LcH9S6K5V24MCkg/YP8Mqz6QwHEDxQ7x+lyNJ2lHLLw5A4&#xA;8v8ANP6O9WzEdk7FXYq7FXYq7FXYq7FXYq7FXYq7FXYq7FXYq7FXYq7FXYq7FXYq7FXYq7FXYq7F&#xA;XYq7FULCvrymdt0U0iHbbvmz1EvAgMUfqO8v1Og0eP8AN5TnnvCJqA938X4/QqXFz6LIoQuWrsOt&#xA;BlGl0niiRMhER73L7Q7S/LyjEQMzK+Xl96+KaOVeSGviO4ynNp54jUg5Wl1mLPHigb+8e8LbiASp&#xA;ts67o3cHLNLqTil3xPMNPaGhGeG22SO8ZdxdbSmWIMdmGzD3GDV4BjnQ+nmPcns3VnPhEpfWNpe8&#xA;KuYznuxV2KuxV2KuxV2KuxV2KuxV2KuxV2KuxVuhrSm56DFDWKXYq7FVa0tZrq4S3h4+o9ePN0jX&#xA;YV3dyqjp3OShAyNBry5BCJkeQ7gT9g3TbzVobabeKUSNLd4oAqpNHI3MwI0hKqzMAXqanY9tsydX&#xA;g4JeVDqO4OD2brBmhuSZXL+EjbiNdAOX7UjzEdk7FXYq7FXYq7FVspIicjrxP6stwC5x94cfVkjF&#xA;Mj+afuWWgAto6eGW64k5pX3uN2TEDS46/mqc3+9lv8m/Vl2D/Fsn+b97i6z/AB7B7p/7lq7SJP3o&#xA;b05exHf2pk9DkyT/AHZHHDz6fFq7WwYcQ8YS8PL0r+LyI6/i1aBpGhVpBRyNxmHqYRjkIibi7XQZ&#xA;cmTDGWQcMyN1O22muAOnOv0kb5kazfHjPXhcHszbNnA5cf2kbojMB3LsVdirsVdirsVdirsVdirs&#xA;VdirsVdiqNs9PuZ5vqa2zG5mVHhZiUCoaNzII3UqeuGREB6g4+TNEDi4vSLv9XzZEnlso8Mr6u4u&#xA;7cKIZERiI+G6hW5A0U9KZR+anYI6ct3US7Sx7x4Bwy5+d9+yR6lo9zYuLd4vXkuHU2tzGSQ43BQL&#xA;TdiSvuPpy3HMTFAep2eDUxyDiBqIG4/T9/4CWsrIxRwVZSQykUII6gjCRTlggiw1il2KorU797+7&#xA;+sugQ+nFFxBqKQxLED9PCuWZcnGb932CmjT4Bihwg3uT8yT+lC5W3uxV2KuxV2KuxVxAIoehwg1u&#xA;iQBFFDWjcOVu32oz8PupzYa6PHWaPKXPyLpOyMnh8Wml9WM7ecT1buYp2ljkipyWoNffbBo82MQl&#xA;DJdSrl5Mu09Lnllx5MNcUeLn57NxWwVvUkPqS/zHt8srz6wyHBAcMO79bdpOzIwl4mQ+Jl/nHp7h&#xA;0VZZFjjLt0GUYcRySERzLmarUxw4zOXIKVojLEWfZ5CXYfPMjXZBKfDH6Yih8HC7IwShiM5/XkkZ&#xA;H4q+YTtXYq7FXYq7FXYq7FXYq7FWyrLswIqARXwO4xQDbWKXYq2BUgVp74oZX5WjRItSdJBMyNHC&#xA;k4qKx1bcBgGAbiOoyjU/UBdh0faszwx2q9682TWqK9gVCDkQxPIfap3De2Ykju6cckh15Q+gTlus&#xA;EkbxHuGY8T+GX4zUw7DsqR8Wu8MPnSNJSscomXY+ooYAkip2YA7HbMyQo87eigSRuKU8DN2KuxV2&#xA;KuxV2KuxV2KuxV2KqU9uJKMDwkX7LjMrTak47BHFA8w6/XaAZ6kDwZI/TIfjcKYmuY9pYi/+XHvX&#xA;6MuOnwz3hPh8pfrcSOt1WHbLjM/6UN7+Df1tz9iCQn/KHEffj+RiPqyQryNp/lactseHIT5jhHz3&#xA;aWCSRxJcEGn2Yx0HzxnqYY4mOLrzl1XFoMuaYyakjblAfSPf3lE5r3dOxV2KuxV2KuxV2KuxV2Kq&#xA;lusDTotxI0UJP7yRF5so8QpZK/fkogXvyYZDIRPCLPy+3dOvNEOlobVra6lmm+rWy+m8IjX0xCKN&#xA;yEj7nb4afTmVqowFUSTQ6eXvdd2bPKeLiiAOKX8V78XL6R8/sSHMN2jsVdiqdaJqgs7iSVbZzYNG&#xA;kd6Fq9DsBJU7Al9wD8sjlx8YsDl+Ptdfq9P4keEkcVnh/V8v1smj1bTfRKx6pCsL7hXYo9O/wHfM&#xA;Twpc+E7OglpskZCBHqPJItd1iG5iSC0jebToJVNzMQVWSQg8Vr+yCqtSu/3ZkYcRHqIdzodH4V2a&#xA;ySG3l5/d+Cx5ypdiq8VJJVa1oPCuWl2oG263FLsVdirsVdirsVdirsVdirsVdirsVdirsVdirsVd&#xA;irsVdirsVdirsVdirsVVJp5pmVpWLlEWNSeyoOKj6AMMpE82EICPL3/NTwM3YqybTfI13d2CXT3C&#xA;wPKvOKIqWqD05GopX5HMaepANU6zN2nGE+EC6Y9c289rPLbTDjJGxWRe1RmRGViw7CEhICQUmugN&#xA;Qs5fRiPoLTgVPF+O/wAYrvXvmwxT/cyNDYxdRqcf+FYxZ3E/ht0b5GhHQE1I7ZgO5prFLsVVooBz&#xA;hNwXhgl39Xhy+EHiWUEryoR45IR5XsGuU9jw7yHS/wAUu+rlbZ5JIpQ9V9JuNI+Jry5E/RTIgxrz&#xA;Rx+oAEV171KWIR8PjV+ShvgNaV/ZOw3GEimUZX0pZgZuxV2KuxV2KuxV2KuxV2KuxV2KuxV2KuxV&#xA;2KuxV2KuxV2KuxV2KuxV2Ks30rzxp8OmxRXUcgngQJRACH4igINRTMOenJls6PP2bMzJjVFhl3qj&#xA;6jf3FxKnpSyOWMda0HbfvtmzyaXw4gxPFE9W/s3VCQOKQ4ckOY/SEJJ/vVD8m/VluL+4n7wjU/45&#xA;i90/uV8w3bOxVfCsTSosrmOIsBI4HIqpO5C1FaDtXCKvdjMkA0LLJ/LOnwJbNqMoEz8zHZq42ULu&#xA;X47itTtmNnmSeEcnTdp6qUfQNr5sllN3HCJWn5FgC0Tbgq3sdj75jCiap0tkbsT1/TEhuIZrG3Vh&#xA;qAMItwvLjNyH92B0LV2zN08yfTzLv9DquOB4zXBvfl5sdZSpKsKEbEHqDljtQbaxS7FXYq7FXYq7&#xA;FXYq7FXYq7FXYq7FXYq7FXYq7FXYq7FXYq7FXYq7FXYqozwc6Oh4yr9lv4ZlabUcHplvA8w6zX6H&#xA;xanA8OWPI/oKkkxkuYgw4uoYMvvTMqeDgwyo3E1TrsOsObVYxIcM4iQkPgjEVnYIoqzEADxJzVvR&#xA;k0zT/lXsf1P/AHqb65xr0Hp8vDxp75h/mt+Wzpv5WPFy9P2sPjYQXAMsSy+mSHietCRtQ8SD+OZs&#xA;SAb5u3kOKOxq+rLfLkpl0o2bArdWTszQkUb05KHlQ77NmLmgYysjZ57tWI4xIG+IJ5JdwtZCFQzO&#xA;aAKd+JHgeu+Y4ibt1t7Mc80yw1stPeYQuhaadyCfT5AcAeIJrtmVpo2b5B3XZmOUYSnV3072KZe7&#xA;x2KuxV2KuxV2KuxV2KuxV2KuxV2KuxV2KHYpdirsVdiqIgt3DQSS27ywzErGq1XmRsQrUbcEjtkg&#xA;K3I2apzBsAgSH2J3D5T1Q2vozT29vzYSGJ6GQMAQKsqkj7XSuY/5kVQ5Ovn2lhE73J5eXytL9T0u&#xA;6tJ1W8VIE9OkMsQ5RyGNaChHdiNyfnl0MkZ+TlYM8ZxuHq369LP6Esxct2KuxV2KqEij63EabkNU&#xA;/IZm45HwJjzDp9RjiNbilW5jL7kQrMrBlNGU1BHYjMJ25Fsu/wCVjH0fR+qf6Z6dfU5fu+VaVp19&#xA;6ZT+Q9HHe3FX6XnvyY/M+Fe3DxfC6phtzccau55SOa07knM3T6c5DQ2A5l2mt1kdPC+ZO0R3q1hP&#xA;PBK9808q6iSvpup2C78gxJr4Zbqs0JR4I/SPt8y4Wj7OlxeJmAMpdP5o6Afp/tT8+Z9YMkMT3cEQ&#xA;mCl7pIwxjDdeXFSajuAK5gDTQsWdnI/I4qJESSOnf7kjkuXkR1kCySPJ6jXDVMhNKU5E9D1yy6FO&#xA;eIUbHdVdFHA2OxV2KuxV2KuxV2KuxV2KuxVbJLHEheRgiDqzGg/HJRiZGhuwyZIwFyNBL38w6WrU&#xA;9Ut4kKafqzKGgyno6ufbmlBriv4FXh1fTZvsXC18G+E/8NTK56TLHnEuRh7U0+TlMfHb70Fr+pwp&#xA;aNbxOGll2PE1ovetPHMnQaaRnxEbB13bfaEI4jjiblLu6BGaReG7sI5WNZB8Mn+sv9euY+rw+HkI&#xA;6Ow7L1Xj4IyP1cj7x+LRmYzsHYq7FWR+VLa3GoXFxG/q/VoA0TFeJEkgAO2/2akfjlOpoUB1dT2l&#xA;lkMVEVZ+z9rLLCGGWFy6+pKSRQmhpSvwnxrmJMkF58BKtUhWfRr2GT/dKevGT+yyEVp8waZZA1IF&#xA;zOz8hjlHmwu79UyK8kIg5ohRQpQFQoAYA9eVK17nM+d3uKemxVVA8W5/s+CjkWx2KuxVQk/3qh+T&#xA;fqzMxf3E/eHU6n/HMXun9yvmG7ZCzSrFdcm/33QDxPLNjgwnJhofz/0PP6zVxwazjl/qWw7zxcl8&#xA;MLFvWl/vD9lf5RlefOAPDx/T183I0WjnKfj5v7w8h/NH61fMJ3DsVdirsVdirsVdirsVdirsVdir&#xA;sVWTTJDC8rmiICzfIZKEDIgDmWvLlGOBlLkBbC9Q1G4vZi8hog+xGOij+udLp9PHEKHN8812vyai&#xA;dy5dB3IXL3BdirsVZL5VJ+qzjsHBHzIzS9qD1D3PY+zZPhyH9L9D0658hQR+WE1pbtlf6slw8LKC&#xA;CWUNQEEU65RLSDw+K+jkw7WJ1BxcP8VWw3MJ3bsVTjQ9S+p3X1n6sRZCMQXrRhmHx9HJJIDEj+mR&#xA;y4zOOw5OBq8AyR4DL1E3G6+TM7Sd/SLWc8U8Dbo4Zdie9G3Bp2zBkO952WGcDRDHvMet2Vtb/o6O&#xA;ZXmuyFuLhfijjQGvGo6k96ZnaXSSy3Ifw9OrfgPgZIyyAgHkel+bGJf7wqJPUVTxR96FR0oDuBkz&#xA;zeohy5UswMnYq7FVCT/eqH5N+rMzF/cT94dTqf8AHMXun9ypLKkaFmO3YeOUYcMskqDm6rVQwQM5&#xA;n9qlDEzv68w+L9hfAZlZ8whHw8fLqe91uj0ksuT8xmHq/hj/ADR0+P49wjMB3bsVdirsVTubyvqU&#xA;egx6g1ldLL60omBicKsCRxush+HYEs3xdNsypaWYx8VS5np0obuth2jjOc4+OFcIrcfUSRXP3bJJ&#xA;mK7J2KuxV2KuxV2KtkEUqKV3GKFrMqqWY0VRUn2GECzSJSAFnkGJalrtzdh4kols23GnxEA13P8A&#xA;TN/ptDHHRO8nhe0O2cme4jbGfn8UszOdM7FXYqvhhmnlWKFGkkb7KKKk9+gwEgCyyjEyIA5lmOk2&#xA;P1KzWJv7xjyk/wBY9vozm9Xn8Sd9H0LszR/l8IifqO5972jzeRa+Qmh7+lbwj6GSv4DM/UbYa9zz&#xA;/Z3r1l+cj97yTNO9i7FXYqrrNam4R3t/3IVQ8UblSxC0Lcm50LH4jk7F8tmoxlwkA795H9nuUncv&#xA;bNbsFMTMHPwryqAQPipy79K4ceWUDYYZ9LDKCJiwRX48/NCRu0DiKQ1Q/wB2/wDA5mZcYzR44fV/&#xA;EP0uq02eWlmMOU3A/RL9B/H2InNe71PfLflhtXWSaSX0beM8KgVZmpWg+Vcoy5uBwNZrfBoAWSoe&#xA;YdAk0e5RDJ6sMoLRSUoduoI9q5LFl4w2aTVDNG6ohIbh1SeN22ADZtNNjM8UojmSHXdoZ44tTjnL&#xA;kIzaijeVxNKKAf3aeHvjmyRxR8OH+cV0mnnqJjPmG38Ee7zPn+O5E5gO8dirsVdirsVTCTVXfRYd&#xA;Pq/OO4lmZy2xWSONAv0emcuOW8Yj5k/c4kdMBmOTbeIHyMj+lL8pct2KuxV2KuxVWsmtlvIGulL2&#xA;wkUzquzFK/EB9GSjVi+TXlEjE8P1Vs9N83+V7G/8uQXGkxqDZR87YR9HgI5MPEn9oV3rXxzaajAJ&#xA;QBj0+55bs7XTx5zHIfqO/kfxt/Y8i1Qkadc0/wB9t+rMDTf3kfe9B2ia08/6pYRnTvm6J03T7rUb&#xA;+3sLRQ9zdSLFCpIUFmNAKnYYkpAtmtv+SPnuU0kit7ffrJMD/wAmw+Q8QM/DLIdK/wCcfbksratq&#xA;qIo+3FaIWJ+UknGn/AZE5WQxPSPLPkTyz5bjP6NtR9YYcZLuX95MwPUcj0B8FAGVykS2xiByee+a&#xA;vLg07zMtpEtLW8dXtgOgWRqFP9i23ypmkz4eHJQ5F7bQa3xMHEfqiN/gzD80rjhoEEIO81wtR/kq&#xA;rE/jTMzXn0AebpewYXmJ7o/qeV5qXrnYq7FXYq9J8s6Tpi6Jbv6EcrToHld1DEk9Rv2HSma7NOXE&#xA;Xm9Znn4p3Ip5/wCa7aK21q8s7eAtboylKN05IGIHyJpm80AjwxmZ8Mu6lzajLmx8EsJnH+ddfHkl&#xA;ltNIpEU4Kk/YY9/bL9Vp4yuePfvZ9m67JjIw6gGJP0k9fJlPlvzXHosM0VzE0lszepWOnNWoAdiQ&#xA;DUAd81J0pyyAHNyu1cI4Dk/mhQ8yeYP0zcROiGO3iUiJWpyq1CxNPkMceHw7HVydBp/DhfWW7H5l&#xA;VrmEMKijGnyzZYJmOGZHk4etxRnq8QkLFSRGYLunYq7FV8cLSLIwZR6S8yGYKSOQWign4j8XQdsI&#xA;FsJSqvNsw/BEyurvKSPSWpdSDQVFKfF2ph4eS8e5sVXXotkjkjkaORSkiEq6MCCCDQgg9CMBBBop&#xA;jIEWNwVuBk7FXYq7FXYq7FXYq9E/LTzLUHRLp9xV7Jj4dWj/AIj6c2Wiz/wH4PNdt6L/ACsf879b&#xA;H/zG8rHT7uWSBKWN+r+nTokjA8k/Go/syvPj8LIJDlduVoNT+ZwSxn6+Ej3iqt40RTY9c6B4ZnH5&#xA;eeT/ADHLqmjeYYbJpdKjv4leVGUsAsgVn4V5cVPU0yEpDkzhE83uXnTzXD5X0b9KTW73KetHCY0I&#xA;U/Gd2qQegB+Z2ymMbb5SoJ1BNHPBHNGaxyqHQ+KsKjAlB6/a3l3oWo2tk5jvJ7aaO2cHiRI8ZCHl&#xA;23PXEc1PJiGi6BrM/lnys+sI41XTrkfWBKeTiH1W4hjvX4UjynU4xKUSOhc7s/UnHCcT/FA/NQ/N&#xA;m5rJp1qOwklYfMqq/qOYXaEuQdx7Pw2nL3B59muejdirsVdiqPstd1exgMFrctHE2/CimhPhyBp9&#xA;GQljjI2Q4+TS45m5Cygnd3dndizsSWYmpJPUk5NvAAFBSliWVCrfQfDLcOaWOXEHG1ekhngYS/sQ&#xA;skrrE8Mv2qfA38wzY4sMZTjkhyvcdzoNRqp48M8Gb6+H0y/nD9f494tPsL8hmsyfUfe9Hp/7uPuH&#xA;3KUn+9UPyb9WZOL+4n7w6/U/45i90/uV8w3bOxVfFC0nPiVHBS55sq1A7DkRU+w3wgWwlKq82V6R&#xA;otu0Md/qEQuLm6AaG3oERV6KzKlAS3YZjZsxJ2dJrNaYHw8e1Jle6NprqIrqxjtww+Ca3HBl99tj&#xA;T3ymOQ9C4ePX5YG7v3sM1OxFhcTWkvJrlHBWUEcGjIqDSlamo75mwmJRvq9Fgy+IBIfTXxtBYXId&#xA;irsVdirsVdirsVXwzSwTJNCxSWNg8bjqGBqDhBo2GMoiQIPIvXLG5sfOflh4ZqLcUCzAdY5lHwuo&#xA;8D1H0jNxGQz46PN47LCeiz2OXTzHc+c/M+kXOka9eWFynCWKQ7dqN8QI9t9sz9OSYC+Y2dTroxGW&#xA;Rj9Mtx8d/s5M9/JnXfNd1q1toVvdlNEtBJc3EfpoxCVrwDlSw5yMO/jksgHNoxk8ntOs6Npus6dL&#xA;p2pQie0mpzjJKmqmoIZSCCCO2Ug03kWhtQ17TNICWpViyIoSGNeigUXc0HbCI25OHSyyCxySyLzs&#xA;ZruGGO04rJIqFmepoxA6AZLgco9n1EkllQ3ORiLLq5Gg8j/Mu69bzO8VdraKOKnuR6n/ABvmm1x/&#xA;eV3PZ9iQrTg/ziT+j9DFMw3buxV2KuxV2KuxV2Kqc0Kypxbr2Pgcv0+eWKVhw9dooajHwy+B7lkE&#xA;rBvRl2dR8J7MMu1GEEeJD6Tz8nD0GrlGXgZtskRsekg6T/eqH5N+rBi/uJ+8MtT/AI5i90/uRKRy&#xA;SNxRS7Hoqip/DMO3akgc2mVlYqwKsNiDsRioNr4xBwl9QsJOI9EKAQW5CvKp2HGvTvhFb2xlxWK5&#xA;df2M+tZFe3sJ0akbQxcXpWhQBWH0EZgEcw8nqomOWV96N1No2EYVuUhqSFrxodwae+Qg0SYn5oeY&#xA;6nN6AB+rWscV0SFNA1Aacu9WA23zN0wPCSHodBEDFES6y2/HwY5ljtXYq7FXYq7FXYq7FXYqm/lj&#xA;zBPoeppdJVoG+C5iH7SH+I6jLsGY45W4Wu0Yz4+E8+jI/wA1vJkXmfRYfMOjj1r62i5UQVM9v9ri&#xA;B15puQPmOtM6DDMHcci8HqMUokg84pn+Unk2Ty95fM95Hw1PUSss6EUaOMD93GfcAkt7mnbDOVlh&#xA;jjQZzkGaU635dttUKSFzDOg4iQDkCvWhG368IlTlafVHHtzCjpHk23tLhLhne5lQ1j+HioPjSrbj&#xA;55Lc8gyz9oGQr6QyWOxmbdqKPfrlsNPK99nWT1Eem7wTzPdfWvMWozggq1xIEI7qrcVP3DOa1UuL&#xA;LI+ZfQ+zsfBp4R/ohK8oc12KuxV2KuxV2KuxV2Kqc0KyrTow3Vh1By/T5zjPkeYcHXaKOeNHaQ+k&#xA;9QUOkkjXMaSCjoGBPjt1zOyY4jDKUD6ZV8HT4NRklqscMorJASB89ti9E/L0Wn1W6Ip9b5gN4+nQ&#xA;cfo5VzndVdjucrtbi4h/N/SgvzBFoL22MdPrJRvXp141HCv45PS3R7m7sri4Tf09P0sU+ti0dZqK&#xA;zKaqjqHVj4FWBBzY6bFKctnI1+qhhxky68gNiT5JroOtXunWyrNwu4LhifqVWDREUFVNPh5e1cGt&#xA;xY5ECHTr1Pv/AEOtw6HJmEp5iRM7+QHd+tN5vM1wvrx2enmC6twxmeZuTRcSFb4CF3BPf7swxpZW&#xA;QenNsx9m4xRlKxLlXX4sYnkWQrJV2mcFrh3INXLE1Htxp171y+hQp3MARttXT3KWBm7FXYq7FXYq&#xA;7FXYq7FXYqzr8svNyadfppd8a2VywFvIf91Ssdv9ix+47+ObPs3UiE+GXI8vIvO9vdnHLj8SH1R5&#xA;+Y/Y9kMMJ3Ma1+QzpfDj3B4XxJd5d6EH++1+4YPDj3BfEl3lsRxjooH0ZIRHcgyPe8v/ADW1PXbD&#xA;zj5RjtNamsLDUblIZ7aH4RWOePlIx/bDCUKVbbbvU5CZNhlAbF6lljW+YZ4/Tmkj/kYrv7GmcNIU&#xA;afXYSsArMDJ2KuxV2KuxV2KpkmjXLaRJfejNzWaNFHA8TGyOxbp/kjfLxhPBxUebhnVxGYQuNcJ6&#xA;9bApLcocx2KqEn+9UPyb9WZmL+4n7w6nUj/DMXun9ytJPPBG8kEjRSAbOhKn7xlWliJZIgixbd2r&#xA;/i0/ctmuTw9aZy7sASzGrMfmcYYDPIYx70z1UNPgE5dw+K3SYDfarbwyqytPIsatT4UDGld8ztTE&#xA;Y8REJRoCzvuXQ4NUZZTmzQmZ/wAPp9Mfx3vSb/yZo36PkW3jMU8aFkm5MSWAr8VTTfObjqJXu5eL&#xA;tHJxizY7nnjMWJZjUnck9Scz3oQKaxS7FXYq7FXYq7FXYq7FXYq7FW0dkdXU0ZSCp8CNxiDSCLFF&#xA;9L6beLe6da3i/ZuYklFP8tQ38c7fHPiiJd4fJ8+Lw8kofzSR8kTk2l2Kvnj/AJyG1aQec9Nghaja&#xA;fapKD/LJJIzfqRTlGU7t2MbPf9OvI77T7a9j/u7qJJk/1ZFDD9eXhqfOeuR+nrWoR/yXMy7+0hGc&#xA;VnFTkPMvq2kleKB/oj7kFlTkOxV2KuxV2KuxVNY/MF+mjvYi6uAxlRkpI3ERKjqU69PiG3TMgaiX&#xA;Bw2ef2ODLQwOYT4Y8j062DaVZjuc7FVCT/eqH5N+rMzF/cT94dTqf8cxe6f3N3ZAt3qeooMjook5&#xA;Y0z7XmI6ad9RSyCJnIllHQfu08B45dqM0YAwh1+o97iaDSTykZs3QeiPd5+/8d1C45HjkWSNiroQ&#xA;ysOoINQc1xDvSARRT2886axdWTWremnMcZJUBDMD170Fe9BlMdPEG3Bx9nY4y4t0gy9z3Yq7FXYq&#xA;7FXYq7FXYq7FXYq7FXYq94/LO++t+TrKpq9uXgb/AGDHj/whGdX2bPiwjy2fOe3sPBqpf0qP4+LK&#xA;cz3TOxV86/nL5J82Xnn363BaNd2+rNFDp5hq1GSMKUfpwPwlt9qd9jlGSJtuhIU9v8rWM+g+U9Ns&#xA;dUuIzLYW0cM89eMY4CgAZqbKNq5cBQazuXhnmeW3l8x6pNbyrPBLdTSRyoQysHctVWFQRvnHasfv&#xA;Zf1i+n9mm9Nj/qR+5LMx3OdirsVdirsVdirsVdirsVQ87qlxEzGgAauZ+mxmeKURzsOk1+aOLU45&#xA;yNREZtRo07iWUUQf3afxOHLkGGPBD6v4j+hjpsEtVPxsoqA+iP6T+PsROa93rsVdirsVdirsVdir&#xA;sVdirsVdirsVdirsVdiqZaf+aWueTbb6pY21vc2907SkTh6q4CqacGXqKZvOycpEZDzeO9p8IM4S&#xA;7wR8v7UxP57/AJiSqklvpGniN1DAssrVB3B2mXM6XaOMGiR9rqIdjaiURIRNHfohp/zi/NacUSKz&#xA;tq1oUjU0r/rySdMrPaePv+wt0ewNSf4ftH60suvO35q35Pr660CntAEhIHt6SKfxymXa0Ollysfs&#xA;1mPMxDFfMcWpmJLi/wBRn1CZ3oXnd33IJ6uzHHTa05pEVTDtHsgaXGJcXESa5UnWmAjTrYH/AH2p&#xA;+8VzTak/vJe8vXdnCtPD+qPuROUOa7FXYq7FXYq7FXYq7FXYqh50V7mEMKijGnyzP08zHDMjydJr&#xA;sMcmqxCQsVI/JEZgO7dirsVdirsVdirsVdirsVdirsVdirsVdirsVdiqR+akBtYH7hyPvH9mbTss&#xA;+ojyeb9pI/u4n+l+j9ib2albSBSKERqCPkozX5TcyfMu90saxRH9Efcq5W3uxVJ/NBH1CMHqZRT/&#xA;AIFs2PZn94fc8/7RkeAB/TH3FMrONorSCNvtJGqn5hQMws0uKZI6ku40uMwxRieYiB9itlbkOxV2&#xA;KuxV2KuxV2KuxV2KqEn+9UPyb9WZmL+4n7w6nU/45i90/uV8w3bOxV2KuxV2KuxV2KuxV2KuxV2K&#xA;uxV2KuxV2KuxVJvMfBhaRuwVHl+InoANifxzZdnWOIjnTz/b1EY4yNAz3R1lqdne3SWtqxlnkPGK&#xA;NVarHwXbc5jy0WWIunNxdr6acuES+e33p2nl3zA7cU0y7ZvAQSE/8RysafJ/Nl8i5J1uAc5w/wBM&#xA;Fz+WvMaCr6VeKOlWt5R+tcJ02Ufwy+RQNfgPLJD/AEw/WxjzXBcWN1Ypf28sC8jKUkQqzKpHQNTM&#xA;/Q4ZiMtqJFC3Rds6vEZ4t+KINmqPcq6frdpeymJAySUqFam4HhQ5iZ9FPGLO4dnou18WolwixLzT&#xA;DMR2rsVdirsVdirsVXxQzTNwiRpG/lQFj9wwgE8mMpCIsmkfF5a8xTUMWl3bg03EEhG/vxplo02U&#xA;8oy+RcaWvwR5zh/pgiU8lebHJA0q4FP5kK/rplg0WY/wlqPaumH+Uj80JceU/McWq2dnJYSrdXCy&#xA;NDEQKsEFWI37ZlY9JlGKUTE2adZn7RwHU45iY4YiVn3ox/JHm1BU6VcEdPhXl+quYp0OYfwl2Q7W&#xA;0p/ykUPL5W8yxV9TSrsAdW9CQjf3ApkDpco/hl8i2x7Q055ZIf6YICe0urc0uIZIT4SKV/WMqlAj&#xA;mKcmGSMvpIKlkWbsVdirsVdirsVdirsVdirsVdirsVTHQNTstN1Bbm8sI9ShCkfV5TRakj4hswqK&#xA;dwRl2nyxhK5R4h3OJrME8sOGEzjPeE/816p5A82Wdpb31te6U1mXaH6ksHp1kCg8wacvsClAM3Me&#xA;08NVwmPup5bL7Pakm+OM/eTf6WL2fkXyVFfRXK+abmFIZFkVfqLCUcSD8MiysA23Xjlg7Qwd5+Ti&#xA;y7C1Q/hB+Ie3D8zPJJAP6Rp7ejP/ANU8yP5TwfzvsP6nH/kHWfzP9lH9bv8AlZnkn/q5f8kbj/qn&#xA;j/KeD+d9h/Uj+QdZ/M/2Uf1sf8z65+UnmED9Lx/XXiXjFMsU8cgHWiuoRqV7E0yEu0sB6/YWyPYG&#xA;r/m18QxrRh+Ufl3WE1bTbXUJ7qEMIUcq0a81KMaOyk/CxG9cpPaeAdCXJh7O6o8zGPxP6AoebfNm&#xA;iaxF6djosVnJyDG82EpA7UQKPvJzWavV48gqMAPN6Hs3s3NgNzymQ/m9Pt/YxXMB3LsVdirsVRGn&#xA;3aWd7DcvBHdLE3I28w5RuPBhk8c+GQNX72rPjM4GIJjfUc3pem/m/pEUSxy6S9so6rbMjL9CkR5u&#xA;8fa8AKMa934DyWf2ZyyNjIJf1r/am0X5t+U3FWFzF7PGD/xFmzJHa+E9/wAnCl7N6kfzT8f2Ilfz&#xA;R8mEgG8cV7mGXb7lyf8AKmDv+wtR9n9X/NHzH60FdecPy9udasdXk1Nxc2CSxwqIZ+BEwAbkPSrs&#xA;Btvh/lLBf1fYf1Mf5C1n8z/ZR/Wjn/M/yWpoL1mHiIZafiowHtTB3/YUj2f1f837R+tDyfmx5RSv&#xA;F55N6fDEfv8AiK5A9rYR3/Jtj7Oao/zR8UuvPzj0QxlYNOuJ6j7MxjjB+dDJlM+2MfSJP4+LlYvZ&#xA;jNfqnEe6z+p5z5i1qHWNQN3FYw2C8ePpQCgO5PJjsC2/WgzS6jMMkrERH3PVaHSnBj4TKU/M/o8k&#xA;ryhzHYq7FXYq7FXYq7FXYq7FXYq7FXYq7FXYq7FXYq7FXYq7FXYq7FXYq7FXYq7FXYq7FXYq7FXY&#xA;q7FXYq7FXYq7FXYq7FXYq7FXYq7FXYq7FXYq7FXYq7FXYq7FXYq7FXYq7FXYq7FXYq7FXYq7FXYq&#xA;7FXYq7FXYq7FXYq7FXYq7FXYq//Z</xmpGImg:image>
               </rdf:li>
            </rdf:Alt>
         </xmp:Thumbnails>
      </rdf:Description>
      <rdf:Description rdf:about=""
            xmlns:xmpMM="http://ns.adobe.com/xap/1.0/mm/"
            xmlns:stRef="http://ns.adobe.com/xap/1.0/sType/ResourceRef#"
            xmlns:stEvt="http://ns.adobe.com/xap/1.0/sType/ResourceEvent#">
         <xmpMM:InstanceID>xmp.iid:90D3775BC2D9E711AF33F4E19EB97FCF</xmpMM:InstanceID>
         <xmpMM:DocumentID>xmp.did:90D3775BC2D9E711AF33F4E19EB97FCF</xmpMM:DocumentID>
         <xmpMM:OriginalDocumentID>uuid:5D20892493BFDB11914A8590D31508C8</xmpMM:OriginalDocumentID>
         <xmpMM:RenditionClass>proof:pdf</xmpMM:RenditionClass>
         <xmpMM:DerivedFrom rdf:parseType="Resource">
            <stRef:instanceID>uuid:1e9fe3cf-bac1-48ac-8341-771a4bda1c27</stRef:instanceID>
            <stRef:documentID>xmp.did:0980117407206811822A897E387FE54C</stRef:documentID>
            <stRef:originalDocumentID>uuid:5D20892493BFDB11914A8590D31508C8</stRef:originalDocumentID>
            <stRef:renditionClass>proof:pdf</stRef:renditionClass>
         </xmpMM:DerivedFrom>
         <xmpMM:History>
            <rdf:Seq>
               <rdf:li rdf:parseType="Resource">
                  <stEvt:action>saved</stEvt:action>
                  <stEvt:instanceID>xmp.iid:90D3775BC2D9E711AF33F4E19EB97FCF</stEvt:instanceID>
                  <stEvt:when>2017-12-05T15:44:03+02:00</stEvt:when>
                  <stEvt:softwareAgent>Adobe Illustrator CS6 (Windows)</stEvt:softwareAgent>
                  <stEvt:changed>/</stEvt:changed>
               </rdf:li>
            </rdf:Seq>
         </xmpMM:History>
      </rdf:Description>
      <rdf:Description rdf:about=""
            xmlns:illustrator="http://ns.adobe.com/illustrator/1.0/">
         <illustrator:StartupProfile>Print</illustrator:StartupProfile>
      </rdf:Description>
      <rdf:Description rdf:about=""
            xmlns:xmpTPg="http://ns.adobe.com/xap/1.0/t/pg/"
            xmlns:stDim="http://ns.adobe.com/xap/1.0/sType/Dimensions#"
            xmlns:xmpG="http://ns.adobe.com/xap/1.0/g/">
         <xmpTPg:HasVisibleOverprint>False</xmpTPg:HasVisibleOverprint>
         <xmpTPg:HasVisibleTransparency>False</xmpTPg:HasVisibleTransparency>
         <xmpTPg:NPages>1</xmpTPg:NPages>
         <xmpTPg:MaxPageSize rdf:parseType="Resource">
            <stDim:w>260.000000</stDim:w>
            <stDim:h>207.000000</stDim:h>
            <stDim:unit>Pixels</stDim:unit>
         </xmpTPg:MaxPageSize>
         <xmpTPg:PlateNames>
            <rdf:Seq>
               <rdf:li>Cyan</rdf:li>
               <rdf:li>Magenta</rdf:li>
               <rdf:li>Yellow</rdf:li>
               <rdf:li>Black</rdf:li>
            </rdf:Seq>
         </xmpTPg:PlateNames>
         <xmpTPg:SwatchGroups>
            <rdf:Seq>
               <rdf:li rdf:parseType="Resource">
                  <xmpG:groupName>Default Swatch Group</xmpG:groupName>
                  <xmpG:groupType>0</xmpG:groupType>
               </rdf:li>
            </rdf:Seq>
         </xmpTPg:SwatchGroups>
      </rdf:Description>
      <rdf:Description rdf:about=""
            xmlns:pdf="http://ns.adobe.com/pdf/1.3/">
         <pdf:Producer>Adobe PDF library 10.01</pdf:Producer>
      </rdf:Description>
   </rdf:RDF>
</x:xmpmeta>
                                                                                                    
                                                                                                    
                                                                                                    
                                                                                                    
                                                                                                    
                                                                                                    
                                                                                                    
                                                                                                    
                                                                                                    
                                                                                                    
                                                                                                    
                                                                                                    
                                                                                                    
                                                                                                    
                                                                                                    
                                                                                                    
                                                                                                    
                                                                                                    
                                                                                                    
                                                                                                    
                           
<?xpacket end="w"?>
	</metadata>
<g id="Layer_2">
	<rect fill="#F05423" width="260" height="207"/>
</g>
<g id="Layer_1_1_">
	<g>
		<ellipse fill="#F3F3F3" cx="74.472" cy="189.477" rx="28.709" ry="3.389"/>
		<g>
			<g>
				<g>
					<g>
						<g>
							<g>
								<path fill="#F5F6F6" d="M89.183,138.924l-4.576-0.904c0,0,0.548-1.929,1.332-5.619l4.415,0.992
									C89.991,135.158,89.602,136.995,89.183,138.924z"/>
							</g>
							<g>
								<path fill="#FCDBBF" d="M85.939,132.398c1.319-6.194,3.645-23.68,4.827-39.025c0,0,0.198-1.303,0.734-1.174
									c0.715,0.171,0.565,1.13,0.483,1.49c0.092-0.327,0.382-1.151,0.964-0.984c0.589,0.168,0.448,1.021,0.374,1.334l0.006,0.003
									c0.115-0.321,0.5-1.207,1.194-0.997c0.522,0.159,0.509,0.691,0.423,1.074c-0.015,0.055-0.03,0.109-0.04,0.163
									c0.014-0.05,0.027-0.104,0.04-0.163c0.117-0.37,0.39-0.758,0.823-0.673c0.48,0.123,0.258,1.41,0.258,1.41
									c-0.372,2.162-1.421,17.973-5.672,38.537L85.939,132.398z"/>
							</g>
							<g>
								<g>
									<path fill="#E6E6E5" d="M85.939,132.398c0.441-2.068,0.995-5.405,1.58-9.498c0.722,1.916,2.054,5.598,3.093,9.229
										c-0.086,0.421-0.169,0.842-0.258,1.264c-0.363,1.767-0.752,3.604-1.171,5.531l-4.576-0.904
										C84.607,138.02,85.155,136.091,85.939,132.398z"/>
								</g>
							</g>
						</g>
						<g>
							<g>
								<g>
									<g>
										<path fill="#FCDBBF" d="M88.905,134.25c0,0-1.535-51.359-37.641-32.374c0,0-6.085,12.858-4.373,37.088
											C75.622,142.512,88.905,134.25,88.905,134.25z"/>
									</g>
									<g>
										<path fill="#584A3A" d="M80.339,80.843c0,0,19.925,29.071-24.794,30.601l0.075,9.233c0,0-4.169-3.545-4.819,0.858
											c-0.649,4.4,4.689,2.347,4.689,2.347s-3.724,11.646-8.444,15.104c0,0-17.042-38.228-0.196-39.271
											c0,0-0.006-6.837,8.917-11.101C68.497,82.533,76.684,97.406,80.339,80.843z"/>
									</g>
								</g>
								<g>
									<path fill="#584A3A" d="M52.483,165.529l1.395,11.365l-0.876,12.528c0,0,14.953,4.271,11.184-1.964
										c-3.48-5.759-8.912-0.975-8.912-0.975l2.135-10.135l0.353-7.783c0,0,15.142,0.986,28.188-3.008l0.765,9.084l-1.973,13.09
										c0,0,13.842,4.912,10.009-1.892c-2.125-3.772-7.345-1.405-7.345-1.405l2.772-9.813l0.418-13.329L52.483,165.529z"/>
								</g>
								<g>
									<g>
										<g>
											<path fill="#F5F6F6" d="M88.905,134.25l1.69,27.046c0,0-15.604,4.872-38.112,4.233l-5.593-26.564
												C46.891,138.965,72.917,141.411,88.905,134.25z"/>
										</g>
									</g>
								</g>
								<g>
									<g>
										<g>
											<polygon fill="#E6E6E5" points="79.863,139.305 80.76,140.781 79.804,142.684 81.925,158.717 78.026,162.617 
												74.222,159.066 77.67,143.051 76.25,141.245 76.829,139.93 											"/>
										</g>
									</g>
								</g>
								<g>
									<polygon fill="#584A3A" points="79.863,139.305 80.76,140.781 79.804,142.684 82.815,158.367 78.915,162.266 
										75.109,158.714 77.67,143.051 76.25,141.245 76.829,139.93 									"/>
								</g>
								<g>
									<g>
										<path fill="#EA7D86" d="M80.068,125.552c0,0-7.794,0.695-12.357,2.888c0,0,0.31,6.737,7.566,5.271
											C82.461,132.262,80.068,125.552,80.068,125.552z"/>
									</g>
								</g>
							</g>
						</g>
						<g>
							<path fill="#F5F6F6" d="M48.104,144.964l3.694-2.996c0,0-1.315-1.456-3.596-4.372l-3.51,3
								C45.771,141.993,46.905,143.443,48.104,144.964z"/>
						</g>
						<g>
							<path fill="#FCDBBF" d="M48.202,137.596c-3.828-4.895-13.013-18.445-20.64-31.563c0,0-0.735-1.067-1.157-0.696
								c-0.563,0.496-0.021,1.277,0.207,1.563c-0.221-0.248-0.833-0.844-1.281-0.416c-0.453,0.431,0.039,1.123,0.238,1.365
								l-0.005,0.008c-0.24-0.232-0.962-0.836-1.491-0.316c-0.398,0.393-0.159,0.861,0.082,1.161
								c0.038,0.04,0.073,0.083,0.105,0.124c-0.034-0.036-0.07-0.078-0.105-0.124c-0.262-0.274-0.671-0.49-1.022-0.206
								c-0.377,0.338,0.374,1.379,0.374,1.379c1.258,1.75,8.587,14.422,21.186,30.723L48.202,137.596z"/>
						</g>
					</g>
				</g>
			</g>
			<g>
				<path fill="#584A3A" d="M63.403,118.057c0.788-0.162,1.666,1.021,1.962,2.639c0.296,1.617-0.104,3.06-0.893,3.22
					c-0.788,0.161-1.665-1.021-1.96-2.64C62.216,119.658,62.616,118.215,63.403,118.057z"/>
				<path fill="#584A3A" d="M81.218,114.42c0.787-0.16,1.666,1.021,1.96,2.639c0.296,1.619-0.104,3.062-0.892,3.221
					c-0.788,0.162-1.665-1.021-1.96-2.639C80.029,116.021,80.429,114.581,81.218,114.42z"/>
			</g>
		</g>
	</g>
	<g>
		<g>
			<ellipse fill="#F3F3F3" cx="175.461" cy="189.126" rx="30.909" ry="3.649"/>
		</g>
		<g>
			<path fill="#736759" d="M175.461,190.152c-0.538,0-0.973-0.459-0.973-1.027V37.887c0-0.566,0.435-1.026,0.973-1.026
				c0.535,0,0.973,0.46,0.973,1.026v151.238C176.434,189.693,175.996,190.152,175.461,190.152z"/>
		</g>
		<g>
			<path fill="#736759" d="M175.461,75.395c-0.251,0-0.498-0.101-0.688-0.302l-15.836-16.742c-0.379-0.401-0.379-1.05,0-1.451
				c0.379-0.402,0.994-0.402,1.373,0l15.836,16.743c0.379,0.399,0.379,1.05,0,1.451C175.957,75.293,175.71,75.395,175.461,75.395z"
				/>
		</g>
		<g>
			<path fill="#736759" d="M175.585,108.393c-0.249,0-0.497-0.103-0.687-0.302c-0.381-0.401-0.381-1.053,0-1.452l39.125-41.365
				c0.379-0.401,0.994-0.401,1.373,0c0.381,0.401,0.381,1.052,0,1.453l-39.123,41.364
				C176.081,108.29,175.833,108.393,175.585,108.393z"/>
		</g>
		<g>
			<path fill="#736759" d="M190.945,92.147c-0.533,0-0.967-0.458-0.967-1.026v-18.11c0-0.567,0.434-1.026,0.967-1.026
				c0.539,0,0.975,0.459,0.975,1.026v18.11C191.92,91.689,191.484,92.147,190.945,92.147z"/>
		</g>
		<g>
			<path fill="#736759" d="M175.461,139.273c-0.251,0-0.498-0.102-0.688-0.303l-47.88-50.619c-0.379-0.399-0.379-1.05,0-1.451
				c0.379-0.402,0.995-0.402,1.374,0l47.879,50.621c0.379,0.398,0.379,1.051,0,1.449
				C175.957,139.173,175.71,139.273,175.461,139.273z"/>
		</g>
		<g>
			<path fill="#736759" d="M161.966,125.008c-0.536,0-0.973-0.458-0.973-1.025v-18.144c0-0.565,0.437-1.024,0.973-1.024
				c0.537,0,0.972,0.459,0.972,1.024v18.144C162.938,124.55,162.503,125.008,161.966,125.008z"/>
		</g>
		<g>
			<path fill="#736759" d="M149.645,111.982h-13.946c-0.535,0-0.97-0.459-0.97-1.026s0.435-1.026,0.97-1.026h13.946
				c0.539,0,0.973,0.459,0.973,1.026S150.184,111.982,149.645,111.982z"/>
		</g>
		<g>
			<path fill="#736759" d="M175.637,165.551c-0.246,0-0.494-0.099-0.686-0.298c-0.381-0.403-0.381-1.054,0-1.455l37.783-39.942
				c0.381-0.401,0.994-0.401,1.373,0c0.379,0.398,0.379,1.051,0,1.451l-37.781,39.946
				C176.134,165.452,175.887,165.551,175.637,165.551z"/>
		</g>
		<g>
			<path fill="#736759" d="M186.361,154.214c-0.536,0-0.973-0.457-0.973-1.024v-19.002c0-0.567,0.437-1.028,0.973-1.028
				c0.537,0,0.971,0.461,0.971,1.028v19.002C187.332,153.757,186.898,154.214,186.361,154.214z"/>
		</g>
		<g>
			<path fill="#736759" d="M206.37,145.445h-11.714c-0.536,0-0.971-0.459-0.971-1.027c0-0.564,0.435-1.025,0.971-1.025h11.714
				c0.534,0,0.97,0.461,0.97,1.025C207.34,144.986,206.904,145.445,206.37,145.445z"/>
		</g>
		<g>
			<g>
				<g>
					<ellipse fill="#FFC74C" cx="212.986" cy="124.583" rx="9.088" ry="9.604"/>
				</g>
			</g>
			<g>
				<g>
					<ellipse fill="#DBAA3E" cx="212.986" cy="124.582" rx="7.396" ry="7.818"/>
				</g>
			</g>
			<g>
				<g>
					<g>
						<path fill="#FFC74C" d="M210.751,128.048c-0.371-0.347-0.556-0.897-0.556-1.653v-0.324h2.035v0.229
							c0,0.358,0.064,0.605,0.189,0.742c0.129,0.134,0.301,0.203,0.51,0.203c0.219,0,0.385-0.077,0.504-0.229
							c0.117-0.151,0.176-0.336,0.176-0.55c0-0.271-0.084-0.485-0.242-0.646c-0.162-0.161-0.366-0.299-0.611-0.413
							c-0.244-0.114-0.51-0.231-0.798-0.349c-0.285-0.115-0.549-0.266-0.795-0.451c-0.246-0.188-0.449-0.433-0.612-0.734
							c-0.162-0.303-0.242-0.697-0.242-1.186c0-1.488,0.688-2.354,2.066-2.592v-0.693h1.041v0.693
							c0.755,0.079,1.302,0.319,1.641,0.723c0.34,0.402,0.51,1.014,0.51,1.834h-1.965v-0.18c0-0.238-0.054-0.447-0.147-0.627
							c-0.103-0.18-0.252-0.271-0.455-0.271c-0.228,0-0.394,0.079-0.497,0.233c-0.104,0.155-0.156,0.324-0.156,0.508
							c0,0.279,0.084,0.498,0.252,0.658c0.172,0.157,0.385,0.297,0.643,0.412c0.255,0.115,0.531,0.227,0.822,0.336
							c0.295,0.104,0.567,0.256,0.826,0.446c0.258,0.19,0.469,0.442,0.639,0.753c0.172,0.311,0.255,0.725,0.255,1.242
							c0,0.813-0.199,1.414-0.599,1.805c-0.398,0.393-0.988,0.631-1.767,0.719v1.076h-1.041v-1.076
							C211.66,128.607,211.12,128.396,210.751,128.048z"/>
					</g>
				</g>
			</g>
			<g>
				<g>
					<path fill="#E8F0EC" d="M201.838,132.006c-0.186-0.305-0.098-0.71,0.191-0.9l0,0c0.291-0.193,0.673-0.103,0.854,0.201l0,0
						c0.181,0.309,0.097,0.713-0.19,0.906l0,0c-0.252,0.165-0.571,0.119-0.771-0.092l0,0
						C201.891,132.087,201.859,132.05,201.838,132.006z M205.786,135.48c0.183-0.308,0.565-0.399,0.856-0.205l0,0
						c0.289,0.192,0.379,0.596,0.193,0.9l0,0c-0.182,0.307-0.563,0.4-0.854,0.206l0,0l0,0l0,0c-0.039-0.024-0.076-0.056-0.106-0.089
						l0,0C205.677,136.081,205.634,135.744,205.786,135.48z M199.896,126.157c0,0,0,0,0.002,0.003l0,0
						c-0.041-0.36,0.203-0.686,0.545-0.725l0,0c0.342-0.041,0.646,0.217,0.685,0.574l0,0c0.039,0.36-0.207,0.686-0.545,0.727l0,0
						c-0.194,0.022-0.381-0.051-0.51-0.188l0,0C199.979,126.448,199.913,126.313,199.896,126.157z M210.973,137.701
						c0.036-0.361,0.344-0.621,0.686-0.577l0,0c0.337,0.037,0.583,0.364,0.546,0.724l0,0c-0.04,0.358-0.343,0.617-0.685,0.577l0,0
						c0,0,0,0-0.004,0.001l0,0c-0.144-0.018-0.27-0.087-0.367-0.188l0,0C211.02,138.102,210.947,137.907,210.973,137.701z
						 M200.54,120.002c0.112-0.342,0.467-0.521,0.789-0.404l0,0c0.325,0.116,0.496,0.492,0.384,0.834l0,0
						c-0.113,0.342-0.466,0.522-0.789,0.404l0,0c-0.092-0.036-0.172-0.087-0.234-0.156l0,0
						C200.525,120.508,200.461,120.248,200.54,120.002z M216.551,137.329c-0.109-0.341,0.059-0.718,0.385-0.835l0,0
						c0.321-0.118,0.676,0.063,0.789,0.402l0,0c0.112,0.344-0.06,0.713-0.382,0.838l0,0l0,0l0,0
						c-0.233,0.084-0.481,0.018-0.646-0.157l0,0C216.637,137.508,216.584,137.427,216.551,137.329z M203.652,114.75
						c0.244-0.256,0.637-0.258,0.877-0.001l0,0c0.242,0.256,0.244,0.671,0.002,0.926l0,0c-0.24,0.257-0.635,0.257-0.877,0.002l0,0
						C203.412,115.422,203.412,115.006,203.652,114.75z M221.427,133.506c0.005-0.004,0.009-0.007,0.015-0.012l0,0
						c0.004-0.008,0.011-0.014,0.02-0.021l0,0c0.239-0.256,0.632-0.256,0.874-0.004l0,0c0.244,0.258,0.244,0.674,0.004,0.926l0,0
						c-0.006,0.008-0.013,0.014-0.019,0.021l0,0c-0.006,0.005-0.012,0.009-0.016,0.016l0,0c0,0,0,0,0,0.002l0,0
						c-0.242,0.256-0.633,0.254-0.878,0l0,0C221.188,134.178,221.188,133.764,221.427,133.506z M208.23,112.275
						c-0.114-0.342,0.056-0.717,0.381-0.836l0,0c0.322-0.119,0.676,0.062,0.789,0.4l0,0c0.113,0.344-0.055,0.717-0.379,0.835l0,0
						c-0.234,0.087-0.484,0.019-0.646-0.153l0,0C208.313,112.457,208.266,112.371,208.23,112.275z M224.27,128.713L224.27,128.713
						c0.11-0.341,0.465-0.523,0.787-0.406l0,0c0.324,0.118,0.496,0.491,0.387,0.832l0,0l0,0l0,0
						c-0.114,0.344-0.467,0.525-0.789,0.407l0,0c-0.094-0.032-0.174-0.088-0.236-0.153l0,0
						C224.254,129.219,224.189,128.956,224.27,128.713z M213.751,111.314c0.036-0.359,0.345-0.619,0.683-0.578l0,0
						c0.34,0.039,0.586,0.363,0.549,0.724l0,0c-0.037,0.358-0.344,0.619-0.686,0.58l0,0c-0.145-0.019-0.271-0.088-0.367-0.188l0,0
						C213.797,111.714,213.729,111.521,213.751,111.314z M224.843,123.131L224.843,123.131c-0.036-0.359,0.206-0.686,0.552-0.727
						l0,0c0.336-0.041,0.644,0.219,0.681,0.576l0,0c0.043,0.36-0.203,0.685-0.543,0.726l0,0c-0.193,0.024-0.382-0.05-0.507-0.187
						l0,0C224.926,123.419,224.861,123.285,224.843,123.131z M219.117,112.975c0.181-0.307,0.563-0.396,0.854-0.207l0,0
						c0.293,0.192,0.381,0.596,0.196,0.903l0,0c-0.181,0.308-0.563,0.397-0.853,0.208l0,0c-0.041-0.027-0.08-0.061-0.111-0.093l0,0
						C219.004,113.573,218.961,113.238,219.117,112.975z M223.077,117.838L223.077,117.838c-0.181-0.307-0.095-0.71,0.194-0.904l0,0
						c0.289-0.192,0.668-0.103,0.855,0.203l0,0l0,0l0,0c0.182,0.305,0.096,0.711-0.191,0.904l0,0
						c-0.25,0.166-0.569,0.122-0.771-0.091l0,0C223.13,117.917,223.104,117.88,223.077,117.838z"/>
				</g>
			</g>
		</g>
		<g>
			<g>
				<g>
					<ellipse fill="#FFC74C" cx="127.582" cy="87.626" rx="9.084" ry="9.605"/>
				</g>
			</g>
			<g>
				<g>
					<ellipse fill="#DBAA3E" cx="127.582" cy="87.626" rx="7.395" ry="7.819"/>
				</g>
			</g>
			<g>
				<g>
					<g>
						<path fill="#FFC74C" d="M125.343,91.092c-0.37-0.347-0.554-0.898-0.554-1.655v-0.322h2.034v0.227
							c0,0.359,0.064,0.605,0.192,0.741c0.129,0.136,0.297,0.205,0.51,0.205c0.218,0,0.385-0.077,0.503-0.229
							c0.115-0.151,0.173-0.334,0.173-0.549c0-0.271-0.082-0.486-0.243-0.646c-0.161-0.159-0.365-0.296-0.611-0.412
							c-0.244-0.117-0.51-0.231-0.796-0.347c-0.286-0.116-0.551-0.268-0.797-0.454c-0.246-0.188-0.449-0.432-0.61-0.736
							c-0.163-0.302-0.244-0.696-0.244-1.182c0-1.491,0.691-2.354,2.069-2.594v-0.694h1.04v0.694c0.755,0.079,1.3,0.32,1.639,0.722
							c0.339,0.403,0.51,1.014,0.51,1.834h-1.968v-0.179c0-0.239-0.049-0.448-0.146-0.627c-0.098-0.179-0.249-0.269-0.453-0.269
							c-0.226,0-0.392,0.077-0.498,0.232c-0.106,0.156-0.158,0.324-0.158,0.508c0,0.278,0.085,0.498,0.255,0.656
							c0.169,0.162,0.381,0.298,0.639,0.413c0.256,0.116,0.531,0.227,0.824,0.335c0.295,0.106,0.571,0.257,0.826,0.448
							c0.256,0.191,0.47,0.443,0.638,0.752c0.169,0.312,0.255,0.726,0.255,1.244c0,0.812-0.201,1.415-0.6,1.805
							c-0.399,0.39-0.987,0.629-1.764,0.716v1.077h-1.04V91.73C126.255,91.651,125.712,91.439,125.343,91.092z"/>
					</g>
				</g>
			</g>
			<g>
				<g>
					<path fill="#E8F0EC" d="M134.604,99.414c-0.291,0.195-0.672,0.103-0.854-0.204l0,0c-0.186-0.306-0.1-0.712,0.189-0.902l0,0
						c0.291-0.194,0.674-0.101,0.856,0.203l0,0c0.157,0.265,0.113,0.602-0.086,0.813l0,0
						C134.68,99.358,134.643,99.39,134.604,99.414z M137.889,95.237c-0.289-0.191-0.377-0.597-0.193-0.904l0,0
						c0.182-0.306,0.563-0.399,0.854-0.206l0,0c0.288,0.191,0.376,0.596,0.193,0.904l0,0l0,0l0,0
						c-0.025,0.042-0.054,0.079-0.084,0.114l0,0C138.457,95.358,138.139,95.403,137.889,95.237z M129.07,101.467
						C129.07,101.467,129.07,101.467,129.07,101.467L129.07,101.467c-0.339,0.041-0.646-0.219-0.684-0.577l0,0
						c-0.04-0.36,0.206-0.686,0.545-0.725l0,0c0.34-0.041,0.648,0.218,0.685,0.577l0,0c0.023,0.206-0.05,0.403-0.178,0.54l0,0
						C129.345,101.38,129.216,101.448,129.07,101.467z M139.988,89.756c-0.34-0.039-0.586-0.363-0.547-0.723l0,0
						c0.037-0.359,0.346-0.616,0.686-0.579l0,0c0.34,0.041,0.586,0.363,0.545,0.725l0,0c0,0,0,0,0.002,0.001l0,0
						c-0.015,0.152-0.083,0.287-0.178,0.389l0,0C140.367,89.707,140.186,89.781,139.988,89.756z M123.248,100.785
						c-0.322-0.118-0.496-0.494-0.382-0.834l0,0c0.11-0.344,0.467-0.524,0.788-0.406l0,0c0.324,0.12,0.496,0.494,0.383,0.835l0,0
						c-0.034,0.097-0.084,0.181-0.147,0.248l0,0C123.727,100.799,123.479,100.87,123.248,100.785z M139.639,83.858
						c-0.322,0.118-0.678-0.063-0.789-0.403l0,0c-0.113-0.342,0.057-0.716,0.381-0.837l0,0c0.321-0.118,0.676,0.063,0.791,0.405l0,0
						l0,0l0,0c0.078,0.244,0.015,0.507-0.147,0.679l0,0C139.807,83.769,139.73,83.824,139.639,83.858z M118.282,97.495
						c-0.243-0.257-0.244-0.672-0.003-0.928l0,0c0.241-0.256,0.636-0.257,0.875-0.001l0,0c0.243,0.255,0.244,0.671,0.003,0.926l0,0
						C118.916,97.748,118.521,97.75,118.282,97.495z M136.021,78.703c-0.006-0.005-0.008-0.008-0.014-0.014l0,0
						c-0.006-0.004-0.012-0.011-0.02-0.018l0,0c-0.241-0.255-0.243-0.671-0.004-0.927l0,0c0.242-0.257,0.636-0.258,0.877-0.004l0,0
						c0.006,0.007,0.013,0.012,0.019,0.019l0,0c0.006,0.005,0.011,0.01,0.017,0.017l0,0c0,0,0,0,0-0.002l0,0
						c0.244,0.257,0.242,0.672,0,0.928l0,0C136.654,78.958,136.264,78.958,136.021,78.703z M115.941,92.655
						c-0.326,0.119-0.679-0.06-0.791-0.4l0,0c-0.114-0.344,0.055-0.717,0.378-0.836l0,0c0.325-0.121,0.678,0.059,0.79,0.399l0,0
						c0.082,0.248,0.019,0.511-0.146,0.683l0,0C116.109,92.569,116.032,92.62,115.941,92.655z M131.486,75.7L131.486,75.7
						c-0.322-0.119-0.494-0.492-0.383-0.834l0,0c0.11-0.343,0.463-0.523,0.789-0.406l0,0l0,0l0,0
						c0.32,0.119,0.492,0.492,0.381,0.834l0,0c-0.03,0.097-0.08,0.183-0.145,0.25l0,0C131.966,75.714,131.719,75.783,131.486,75.7z
						 M115.032,86.819c-0.341-0.038-0.585-0.363-0.548-0.721l0,0c0.037-0.361,0.343-0.62,0.685-0.581l0,0
						c0.339,0.039,0.585,0.363,0.548,0.722l0,0c-0.017,0.156-0.08,0.292-0.178,0.393l0,0
						C115.41,86.768,115.226,86.842,115.032,86.819z M126.208,75.092L126.208,75.092c-0.341,0.042-0.647-0.218-0.687-0.578l0,0
						c-0.04-0.36,0.206-0.686,0.545-0.725l0,0c0.34-0.042,0.648,0.214,0.687,0.576l0,0c0.023,0.206-0.048,0.402-0.177,0.538l0,0
						C126.479,75.004,126.355,75.072,126.208,75.092z M116.601,81.145c-0.289-0.192-0.377-0.597-0.196-0.902l0,0
						c0.183-0.308,0.564-0.4,0.855-0.208l0,0c0.288,0.192,0.377,0.597,0.194,0.902l0,0c-0.026,0.043-0.055,0.083-0.087,0.119l0,0
						C117.167,81.266,116.852,81.311,116.601,81.145z M121.202,76.958L121.202,76.958c-0.291,0.191-0.672,0.102-0.856-0.204l0,0
						c-0.183-0.304-0.097-0.71,0.192-0.905l0,0l0,0l0,0c0.289-0.192,0.672-0.101,0.856,0.204l0,0c0.156,0.264,0.115,0.6-0.086,0.814
						l0,0C121.277,76.901,121.24,76.933,121.202,76.958z"/>
				</g>
			</g>
		</g>
		<g>
			<g>
				<g>
					<ellipse fill="#FFC74C" cx="214.712" cy="66.002" rx="9.087" ry="9.605"/>
				</g>
			</g>
			<g>
				<g>
					<ellipse fill="#DBAA3E" cx="214.712" cy="66.001" rx="7.396" ry="7.818"/>
				</g>
			</g>
			<g>
				<g>
					<g>
						<path fill="#FFC74C" d="M212.475,69.468c-0.371-0.347-0.554-0.898-0.554-1.655v-0.322h2.032v0.227
							c0,0.359,0.064,0.605,0.193,0.741c0.129,0.135,0.299,0.202,0.511,0.202c0.218,0,0.386-0.074,0.499-0.226
							c0.117-0.15,0.176-0.335,0.176-0.55c0-0.27-0.08-0.485-0.239-0.645c-0.163-0.159-0.368-0.296-0.61-0.412
							c-0.246-0.117-0.514-0.232-0.799-0.348c-0.285-0.114-0.553-0.267-0.795-0.453c-0.246-0.187-0.451-0.432-0.613-0.734
							c-0.16-0.304-0.243-0.698-0.243-1.183c0-1.491,0.69-2.355,2.069-2.595v-0.692h1.041v0.692
							c0.752,0.081,1.299,0.321,1.639,0.724c0.342,0.404,0.51,1.014,0.51,1.834h-1.969v-0.179c0-0.239-0.049-0.449-0.146-0.627
							c-0.099-0.179-0.249-0.269-0.45-0.269c-0.229,0-0.395,0.078-0.498,0.232c-0.107,0.156-0.16,0.326-0.16,0.508
							c0,0.278,0.086,0.499,0.255,0.658c0.17,0.159,0.384,0.297,0.639,0.413c0.259,0.116,0.532,0.228,0.826,0.335
							c0.295,0.106,0.571,0.257,0.826,0.448c0.255,0.19,0.469,0.442,0.639,0.753c0.168,0.311,0.255,0.725,0.255,1.243
							c0,0.812-0.199,1.415-0.6,1.805c-0.398,0.392-0.987,0.629-1.766,0.717v1.076h-1.037V70.11
							C213.387,70.028,212.842,69.814,212.475,69.468z"/>
					</g>
				</g>
			</g>
			<g>
				<g>
					<path fill="#E8F0EC" d="M203.561,73.427c-0.183-0.307-0.096-0.711,0.193-0.902l0,0c0.289-0.195,0.672-0.103,0.855,0.203l0,0
						c0.182,0.305,0.094,0.71-0.194,0.904l0,0c-0.248,0.166-0.569,0.121-0.771-0.092l0,0
						C203.613,73.506,203.584,73.47,203.561,73.427z M207.514,76.899c0.18-0.305,0.563-0.398,0.855-0.206l0,0
						c0.288,0.194,0.374,0.598,0.193,0.904l0,0c-0.182,0.305-0.564,0.398-0.856,0.206l0,0l0,0l0,0
						c-0.041-0.027-0.074-0.055-0.108-0.09l0,0C207.398,77.502,207.355,77.165,207.514,76.899z M201.62,67.578
						C201.62,67.578,201.62,67.578,201.62,67.578L201.62,67.578c-0.038-0.36,0.207-0.684,0.547-0.724l0,0
						c0.339-0.042,0.647,0.218,0.687,0.576l0,0c0.037,0.36-0.209,0.684-0.547,0.725l0,0c-0.195,0.024-0.382-0.051-0.511-0.187l0,0
						C201.701,67.869,201.637,67.732,201.62,67.578z M212.697,79.12c0.037-0.359,0.341-0.619,0.683-0.576l0,0
						c0.341,0.038,0.582,0.364,0.55,0.724l0,0c-0.039,0.357-0.348,0.617-0.688,0.575l0,0c0,0,0,0,0,0.001l0,0
						c-0.146-0.017-0.273-0.087-0.369-0.188l0,0C212.743,79.521,212.674,79.327,212.697,79.12z M202.268,61.422
						c0.111-0.341,0.463-0.524,0.787-0.406l0,0c0.324,0.118,0.495,0.494,0.383,0.835l0,0c-0.112,0.34-0.465,0.523-0.789,0.404l0,0
						c-0.092-0.036-0.17-0.088-0.234-0.156l0,0C202.252,61.928,202.186,61.666,202.268,61.422z M218.275,78.75
						c-0.113-0.342,0.059-0.717,0.382-0.835l0,0c0.325-0.119,0.678,0.061,0.788,0.404l0,0c0.113,0.341-0.059,0.712-0.381,0.833l0,0
						l0,0l0,0c-0.229,0.086-0.479,0.018-0.645-0.154l0,0C218.357,78.928,218.309,78.846,218.275,78.75z M205.379,56.17
						c0.239-0.255,0.633-0.258,0.878-0.001l0,0c0.239,0.254,0.239,0.67,0,0.925l0,0c-0.241,0.256-0.636,0.257-0.876,0.003l0,0
						C205.137,56.84,205.137,56.425,205.379,56.17z M223.15,74.925c0.007-0.004,0.01-0.007,0.014-0.012l0,0
						c0.006-0.007,0.013-0.013,0.018-0.021l0,0c0.243-0.254,0.635-0.256,0.877-0.003l0,0c0.244,0.257,0.244,0.672,0.002,0.927l0,0
						c-0.006,0.007-0.012,0.012-0.019,0.019l0,0c-0.003,0.005-0.009,0.009-0.013,0.017l0,0l0,0l0,0
						c-0.242,0.257-0.635,0.256-0.879,0l0,0C222.909,75.596,222.909,75.182,223.15,74.925z M209.956,53.696
						c-0.113-0.343,0.056-0.717,0.377-0.836l0,0c0.326-0.12,0.681,0.059,0.789,0.401l0,0c0.114,0.341-0.056,0.717-0.377,0.836l0,0
						c-0.233,0.085-0.481,0.018-0.646-0.155l0,0C210.039,53.876,209.986,53.792,209.956,53.696z M225.995,70.133L225.995,70.133
						c0.108-0.343,0.463-0.524,0.784-0.405l0,0c0.326,0.117,0.498,0.488,0.385,0.832l0,0l0,0l0,0
						c-0.109,0.342-0.463,0.523-0.785,0.405l0,0c-0.093-0.032-0.176-0.086-0.24-0.154l0,0
						C225.979,70.639,225.915,70.376,225.995,70.133z M215.477,52.735c0.033-0.36,0.34-0.62,0.683-0.58l0,0
						c0.337,0.04,0.587,0.363,0.546,0.724l0,0c-0.033,0.359-0.341,0.619-0.682,0.58l0,0c-0.147-0.018-0.275-0.086-0.371-0.188l0,0
						C215.521,53.135,215.452,52.941,215.477,52.735z M226.568,64.551L226.568,64.551c-0.039-0.36,0.205-0.685,0.547-0.726l0,0
						c0.341-0.042,0.646,0.218,0.685,0.575l0,0c0.04,0.36-0.202,0.685-0.544,0.726l0,0c-0.195,0.025-0.38-0.05-0.509-0.187l0,0
						C226.65,64.838,226.584,64.705,226.568,64.551z M220.843,54.394c0.181-0.306,0.563-0.398,0.851-0.206l0,0
						c0.293,0.191,0.382,0.596,0.201,0.903l0,0c-0.187,0.306-0.565,0.397-0.854,0.207l0,0c-0.043-0.028-0.079-0.058-0.108-0.093l0,0
						C220.729,54.994,220.688,54.657,220.843,54.394z M224.805,59.257L224.805,59.257c-0.183-0.306-0.1-0.71,0.188-0.905l0,0
						c0.289-0.192,0.673-0.103,0.856,0.205l0,0l0,0l0,0c0.185,0.304,0.099,0.71-0.192,0.905l0,0
						c-0.25,0.166-0.568,0.121-0.769-0.092l0,0C224.855,59.336,224.825,59.298,224.805,59.257z"/>
				</g>
			</g>
		</g>
		<g>
			<g>
				<g>
					<g>
						<ellipse fill="#FFC74C" cx="175.462" cy="37.888" rx="9.086" ry="9.605"/>
					</g>
				</g>
				<g>
					<g>
						<ellipse fill="#DBAA3E" cx="175.462" cy="37.889" rx="7.396" ry="7.818"/>
					</g>
				</g>
				<g>
					<g>
						<g>
							<path fill="#FFC74C" d="M173.225,41.354c-0.369-0.347-0.555-0.898-0.555-1.655v-0.322h2.035v0.227
								c0,0.358,0.063,0.605,0.191,0.74c0.129,0.137,0.297,0.204,0.51,0.204c0.218,0,0.386-0.075,0.502-0.229
								c0.117-0.15,0.175-0.333,0.175-0.549c0-0.27-0.079-0.485-0.242-0.646c-0.161-0.158-0.366-0.295-0.608-0.413
								c-0.248-0.114-0.512-0.23-0.799-0.346c-0.287-0.115-0.553-0.268-0.797-0.455c-0.246-0.187-0.447-0.432-0.609-0.736
								c-0.162-0.301-0.244-0.696-0.244-1.182c0-1.492,0.691-2.355,2.07-2.595v-0.694h1.039V33.4
								c0.754,0.081,1.301,0.321,1.64,0.724s0.509,1.014,0.509,1.834h-1.967v-0.179c0-0.24-0.051-0.448-0.146-0.628
								c-0.101-0.179-0.25-0.269-0.455-0.269c-0.226,0-0.392,0.077-0.496,0.234c-0.104,0.154-0.158,0.323-0.158,0.507
								c0,0.278,0.086,0.498,0.255,0.657c0.171,0.161,0.384,0.298,0.64,0.413c0.256,0.116,0.532,0.228,0.826,0.334
								c0.292,0.108,0.568,0.257,0.825,0.448c0.255,0.192,0.468,0.442,0.636,0.753c0.171,0.313,0.257,0.725,0.257,1.243
								c0,0.814-0.2,1.415-0.6,1.807c-0.399,0.388-0.988,0.628-1.765,0.715v1.076h-1.039v-1.076
								C174.137,41.914,173.594,41.701,173.225,41.354z"/>
						</g>
					</g>
				</g>
			</g>
			<g>
				<g>
					<path fill="#E8F0EC" d="M172.545,51.473c-0.336-0.078-0.545-0.429-0.47-0.781l0,0c0.075-0.354,0.407-0.574,0.741-0.495l0,0
						c0.334,0.081,0.543,0.432,0.468,0.783l0,0c-0.066,0.304-0.322,0.513-0.604,0.513l0,0
						C172.633,51.49,172.588,51.486,172.545,51.473z M177.66,50.975c-0.077-0.351,0.134-0.704,0.467-0.784l0,0
						c0.335-0.081,0.666,0.14,0.741,0.494l0,0c0.077,0.353-0.132,0.704-0.466,0.785l0,0l0,0l0,0
						c-0.047,0.01-0.092,0.016-0.137,0.016l0,0C177.982,51.486,177.725,51.279,177.66,50.975z M167.257,48.79c0,0,0,0,0.003,0l0,0
						c-0.267-0.226-0.312-0.639-0.098-0.921l0,0c0.211-0.284,0.604-0.33,0.87-0.103l0,0c0.266,0.225,0.31,0.637,0.099,0.92l0,0
						c-0.123,0.163-0.304,0.247-0.486,0.247l0,0C167.512,48.932,167.373,48.885,167.257,48.79z M182.811,48.671
						c-0.215-0.282-0.172-0.695,0.1-0.92l0,0c0.265-0.227,0.654-0.178,0.872,0.103l0,0c0.211,0.283,0.168,0.695-0.101,0.92l0,0
						c0,0,0,0,0,0.001l0,0c-0.113,0.097-0.25,0.143-0.388,0.143l0,0C183.113,48.917,182.932,48.834,182.811,48.671z M163.598,43.954
						c-0.148-0.326-0.021-0.719,0.287-0.876l0,0c0.309-0.16,0.682-0.022,0.828,0.304l0,0c0.148,0.324,0.021,0.718-0.287,0.874l0,0
						c-0.089,0.045-0.181,0.067-0.271,0.067l0,0C163.927,44.322,163.705,44.186,163.598,43.954z M186.51,44.237
						c-0.309-0.158-0.438-0.55-0.292-0.877l0,0c0.15-0.324,0.521-0.462,0.83-0.305l0,0c0.31,0.157,0.435,0.547,0.291,0.875l0,0l0,0
						l0,0c-0.108,0.233-0.33,0.371-0.562,0.371l0,0C186.688,44.301,186.596,44.28,186.51,44.237z M162.286,37.914
						c0-0.362,0.276-0.656,0.618-0.656l0,0c0.342,0,0.619,0.292,0.619,0.652l0,0c0,0.362-0.276,0.657-0.616,0.657l0,0
						C162.564,38.567,162.286,38.274,162.286,37.914z M187.4,37.887c0-0.006,0-0.01,0-0.018l0,0
						c-0.004-0.008-0.004-0.016-0.004-0.027l0,0c0-0.36,0.277-0.656,0.617-0.658l0,0c0.344,0,0.621,0.293,0.621,0.654l0,0
						c0,0.008,0,0.017,0,0.025l0,0c0,0.009,0,0.016,0,0.024l0,0c0,0,0,0,0.004,0l0,0c0,0.363-0.279,0.655-0.619,0.655l0,0
						C187.677,38.543,187.4,38.251,187.4,37.887z M163.868,32.741c-0.312-0.158-0.438-0.547-0.292-0.873l0,0
						c0.148-0.327,0.52-0.465,0.826-0.308l0,0c0.311,0.157,0.438,0.549,0.293,0.873l0,0c-0.107,0.237-0.329,0.374-0.562,0.374l0,0
						C164.045,32.808,163.955,32.785,163.868,32.741z M186.201,32.375L186.201,32.375c-0.15-0.325-0.02-0.718,0.285-0.875l0,0
						c0.311-0.16,0.678-0.024,0.828,0.301l0,0l0,0l0,0c0.149,0.324,0.023,0.718-0.285,0.876l0,0
						c-0.086,0.045-0.18,0.068-0.271,0.068l0,0C186.529,32.745,186.309,32.607,186.201,32.375z M167.129,27.937
						c-0.216-0.283-0.171-0.695,0.094-0.92l0,0c0.269-0.227,0.658-0.181,0.873,0.1l0,0c0.215,0.283,0.172,0.695-0.096,0.923l0,0
						c-0.115,0.095-0.253,0.144-0.389,0.144l0,0C167.432,28.183,167.25,28.099,167.129,27.937z M182.875,27.998L182.875,27.998
						c-0.27-0.225-0.313-0.638-0.1-0.921l0,0c0.211-0.284,0.603-0.331,0.869-0.104l0,0c0.271,0.225,0.313,0.635,0.103,0.92l0,0
						c-0.122,0.163-0.304,0.249-0.485,0.249l0,0C183.126,28.14,182.99,28.095,182.875,27.998z M172.034,25.097
						c-0.078-0.351,0.131-0.704,0.463-0.784l0,0c0.336-0.082,0.667,0.139,0.745,0.491l0,0c0.074,0.352-0.133,0.705-0.467,0.785l0,0
						c-0.047,0.011-0.096,0.018-0.143,0.018l0,0C172.354,25.606,172.1,25.4,172.034,25.097z M178.087,25.576L178.087,25.576
						c-0.333-0.081-0.544-0.429-0.469-0.784l0,0c0.075-0.351,0.405-0.574,0.739-0.496l0,0l0,0l0,0
						c0.334,0.079,0.545,0.43,0.47,0.784l0,0c-0.065,0.304-0.319,0.511-0.604,0.511l0,0
						C178.178,25.59,178.132,25.586,178.087,25.576z"/>
				</g>
			</g>
		</g>
		<g>
			<ellipse fill="#FFC74C" cx="161.966" cy="105.839" rx="4.41" ry="4.663"/>
		</g>
		<g>
			<path fill="#FFC74C" d="M190.945,68.347c2.438,0,4.414,2.088,4.414,4.664c0,2.575-1.976,4.664-4.414,4.664
				c-2.434,0-4.407-2.089-4.407-4.664C186.538,70.436,188.512,68.347,190.945,68.347z"/>
		</g>
		<g>
			<ellipse fill="#FFC74C" cx="186.361" cy="134.186" rx="4.41" ry="4.664"/>
		</g>
		<g>
			<ellipse fill="#FFC74C" cx="206.37" cy="144.714" rx="4.409" ry="4.664"/>
		</g>
		<g>
			<ellipse fill="#FFC74C" cx="159.623" cy="57.625" rx="4.412" ry="4.664"/>
		</g>
		<g>
			<ellipse fill="#FFC74C" cx="135.697" cy="110.956" rx="4.412" ry="4.664"/>
		</g>
		<g>
			<g>
				<g>
					<path fill="#E8F0EC" d="M231.277,102.244c-0.268,0-0.484-0.229-0.484-0.513V92.73c0-0.283,0.219-0.514,0.484-0.514
						c0.271,0,0.488,0.231,0.488,0.514v9.001C231.768,102.015,231.549,102.244,231.277,102.244z"/>
				</g>
			</g>
			<g>
				<g>
					<path fill="#E8F0EC" d="M234.105,97.744h-5.655c-0.267,0-0.484-0.229-0.484-0.513s0.218-0.514,0.484-0.514h5.655
						c0.271,0,0.485,0.23,0.485,0.514C234.592,97.516,234.376,97.744,234.105,97.744z"/>
				</g>
			</g>
		</g>
		<g>
			<g>
				<g>
					<path fill="#E8F0EC" d="M150.548,151.29c-0.269,0-0.485-0.228-0.485-0.511v-9.002c0-0.283,0.217-0.514,0.485-0.514
						s0.485,0.229,0.485,0.514v9.002C151.033,151.063,150.816,151.29,150.548,151.29z"/>
				</g>
			</g>
			<g>
				<g>
					<path fill="#E8F0EC" d="M153.377,146.79h-5.656c-0.27,0-0.486-0.228-0.486-0.511c0-0.285,0.218-0.518,0.486-0.518h5.656
						c0.268,0,0.482,0.231,0.482,0.518C153.859,146.563,153.645,146.79,153.377,146.79z"/>
				</g>
			</g>
		</g>
		<g>
			<g>
				<g>
					<path fill="#E8F0EC" d="M131.777,50.378c-0.269,0-0.485-0.229-0.485-0.513v-9.002c0-0.284,0.218-0.514,0.485-0.514
						c0.269,0,0.484,0.23,0.484,0.514v9.002C132.262,50.149,132.047,50.378,131.777,50.378z"/>
				</g>
			</g>
			<g>
				<g>
					<path fill="#E8F0EC" d="M134.605,45.878h-5.655c-0.269,0-0.486-0.23-0.486-0.514c0-0.284,0.218-0.513,0.486-0.513h5.655
						c0.269,0,0.484,0.229,0.484,0.513C135.09,45.648,134.874,45.878,134.605,45.878z"/>
				</g>
			</g>
		</g>
		<g>
			<g>
				<g>
					<path fill="#E8F0EC" d="M212.568,28.054c-0.271,0-0.487-0.229-0.487-0.514v-9c0-0.284,0.218-0.513,0.487-0.513
						c0.269,0,0.486,0.229,0.486,0.513v9C213.055,27.826,212.837,28.054,212.568,28.054z"/>
				</g>
			</g>
			<g>
				<g>
					<path fill="#E8F0EC" d="M215.395,23.554h-5.656c-0.266,0-0.484-0.229-0.484-0.513s0.219-0.513,0.484-0.513h5.656
						c0.271,0,0.487,0.229,0.487,0.513C215.882,23.324,215.664,23.554,215.395,23.554z"/>
				</g>
			</g>
		</g>
	</g>
</g>
<g>
	<path fill="#666666" d="M33.964,12.751c9.143,0,16.582,7.438,16.582,16.582c0,9.143-7.439,16.581-16.582,16.581
		c-9.143,0-16.582-7.438-16.582-16.581C17.382,20.189,24.821,12.751,33.964,12.751 M33.964,10.908
		c-10.174,0-18.424,8.249-18.424,18.424c0,10.175,8.25,18.423,18.424,18.423s18.424-8.249,18.424-18.423
		C52.388,19.157,44.138,10.908,33.964,10.908L33.964,10.908z M33.964,10.908"/>
	<path fill="#666666" d="M41.325,27.333l-9.81-6.457c-1.693-1.113-3.078-0.367-3.078,1.66v13.588c0,2.026,1.387,2.776,3.083,1.667
		l9.801-6.414C43.017,30.266,43.019,28.447,41.325,27.333L41.325,27.333z M40.018,30.022l-8.711,5.701
		c-0.565,0.371-1.028,0.121-1.028-0.555V23.493c0-0.676,0.462-0.925,1.026-0.553l8.715,5.735
		C40.584,29.046,40.583,29.652,40.018,30.022L40.018,30.022z M40.018,30.022"/>
</g>
</svg>
