<?xml version="1.0" encoding="utf-8"?>
<!-- Generator: Adobe Illustrator 16.0.0, SVG Export Plug-In . SVG Version: 6.00 Build 0)  -->
<!DOCTYPE svg PUBLIC "-//W3C//DTD SVG 1.1//EN" "http://www.w3.org/Graphics/SVG/1.1/DTD/svg11.dtd" [
	<!ENTITY ns_extend "http://ns.adobe.com/Extensibility/1.0/">
	<!ENTITY ns_ai "http://ns.adobe.com/AdobeIllustrator/10.0/">
	<!ENTITY ns_graphs "http://ns.adobe.com/Graphs/1.0/">
	<!ENTITY ns_vars "http://ns.adobe.com/Variables/1.0/">
	<!ENTITY ns_imrep "http://ns.adobe.com/ImageReplacement/1.0/">
	<!ENTITY ns_sfw "http://ns.adobe.com/SaveForWeb/1.0/">
	<!ENTITY ns_custom "http://ns.adobe.com/GenericCustomNamespace/1.0/">
	<!ENTITY ns_adobe_xpath "http://ns.adobe.com/XPath/1.0/">
]>
<svg version="1.1" id="Layer_1" xmlns:x="&ns_extend;" xmlns:i="&ns_ai;" xmlns:graph="&ns_graphs;"
	 xmlns="http://www.w3.org/2000/svg" xmlns:xlink="http://www.w3.org/1999/xlink" x="0px" y="0px" width="1333.68px"
	 height="765.308px" viewBox="0 0 1333.68 765.308" enable-background="new 0 0 1333.68 765.308" xml:space="preserve">
<metadata><?xpacket begin="﻿" id="W5M0MpCehiHzreSzNTczkc9d"?>
<x:xmpmeta xmlns:x="adobe:ns:meta/" x:xmptk="Adobe XMP Core 5.3-c011 66.145661, 2012/02/06-14:56:27        ">
   <rdf:RDF xmlns:rdf="http://www.w3.org/1999/02/22-rdf-syntax-ns#">
      <rdf:Description rdf:about=""
            xmlns:dc="http://purl.org/dc/elements/1.1/">
         <dc:format>image/svg+xml</dc:format>
         <dc:title>
            <rdf:Alt>
               <rdf:li xml:lang="x-default">Web</rdf:li>
            </rdf:Alt>
         </dc:title>
      </rdf:Description>
      <rdf:Description rdf:about=""
            xmlns:xmp="http://ns.adobe.com/xap/1.0/"
            xmlns:xmpGImg="http://ns.adobe.com/xap/1.0/g/img/">
         <xmp:CreatorTool>Adobe Illustrator CS6 (Windows)</xmp:CreatorTool>
         <xmp:CreateDate>2017-11-22T11:28:25+02:00</xmp:CreateDate>
         <xmp:ModifyDate>2017-11-22T11:28:25+02:00</xmp:ModifyDate>
         <xmp:MetadataDate>2017-11-22T11:28:25+02:00</xmp:MetadataDate>
         <xmp:Thumbnails>
            <rdf:Alt>
               <rdf:li rdf:parseType="Resource">
                  <xmpGImg:width>256</xmpGImg:width>
                  <xmpGImg:height>124</xmpGImg:height>
                  <xmpGImg:format>JPEG</xmpGImg:format>
                  <xmpGImg:image>/9j/4AAQSkZJRgABAgEASABIAAD/7QAsUGhvdG9zaG9wIDMuMAA4QklNA+0AAAAAABAASAAAAAEA&#xA;AQBIAAAAAQAB/+4ADkFkb2JlAGTAAAAAAf/bAIQABgQEBAUEBgUFBgkGBQYJCwgGBggLDAoKCwoK&#xA;DBAMDAwMDAwQDA4PEA8ODBMTFBQTExwbGxscHx8fHx8fHx8fHwEHBwcNDA0YEBAYGhURFRofHx8f&#xA;Hx8fHx8fHx8fHx8fHx8fHx8fHx8fHx8fHx8fHx8fHx8fHx8fHx8fHx8fHx8f/8AAEQgAfAEAAwER&#xA;AAIRAQMRAf/EAaIAAAAHAQEBAQEAAAAAAAAAAAQFAwIGAQAHCAkKCwEAAgIDAQEBAQEAAAAAAAAA&#xA;AQACAwQFBgcICQoLEAACAQMDAgQCBgcDBAIGAnMBAgMRBAAFIRIxQVEGE2EicYEUMpGhBxWxQiPB&#xA;UtHhMxZi8CRygvElQzRTkqKyY3PCNUQnk6OzNhdUZHTD0uIIJoMJChgZhJRFRqS0VtNVKBry4/PE&#xA;1OT0ZXWFlaW1xdXl9WZ2hpamtsbW5vY3R1dnd4eXp7fH1+f3OEhYaHiImKi4yNjo+Ck5SVlpeYmZ&#xA;qbnJ2en5KjpKWmp6ipqqusra6voRAAICAQIDBQUEBQYECAMDbQEAAhEDBCESMUEFURNhIgZxgZEy&#xA;obHwFMHR4SNCFVJicvEzJDRDghaSUyWiY7LCB3PSNeJEgxdUkwgJChgZJjZFGidkdFU38qOzwygp&#xA;0+PzhJSktMTU5PRldYWVpbXF1eX1RlZmdoaWprbG1ub2R1dnd4eXp7fH1+f3OEhYaHiImKi4yNjo&#xA;+DlJWWl5iZmpucnZ6fkqOkpaanqKmqq6ytrq+v/aAAwDAQACEQMRAD8A9U4q7FXYq7FXYq7FXYq7&#xA;FXYq7FXYq4kAVJoPHFXYqoWN0Lu0iuAvASry41rTFANq+KXYq7FXYq7FXYqhtRm9GylkrSgAr8yB&#xA;/HFB5InFLsVdirsVdirsVdirsVdirsVdirsVdirsVdirsVdirsVdirsVdirsVSnzTcPDpLhQD6rC&#xA;Nq+BqdvuwhhM7JJ/jLVP99Qf8C//ADVhph4hTvytcPNpKBgB6TGNaeAod/vwFnA7JtgZuxV2KuxV&#xA;2KtMyqpZiAoFSTsABiqR+ZdRtW0x4oLmJpGZaorBmIBB2odumEMJnZM7XUbOZIwLmKSVgKqjCtaf&#xA;y1JwMgUVil2KuxV2KuxV2KuxV2KuxV2KuxV2KuqK07+GKuxV2KsSuPN18lywWKPihZOJ5b7jc7+2&#xA;SpqOQonSvNF3d38VtJDGqyEgstaigJ7k+GAhMZ2U5vdVsLLa4mCMeiDdvuG+CmZkAh4fMmkTSrGs&#xA;1GboWUqPpJ2w0jjDHfOGoX9v5o0qGC5lihk9L1I0dlVqykHkAaHbCOTXkJ4gtm81atI6srLGFNeK&#xA;rsfY1rjS8ZV77VLjUPL7SThQ6XCqOIIBHEnuT440plYSDCwZJpGrrpmio7RGX1J3WgNKUUGvQ4CG&#xA;yMqCsfO0I3+qtTv8Y6U+WCk+IlN/+ZKGQrZLxiKijulXDEb0+Km3yw8LA5e5Sh/MmVHiEyCSMFRK&#xA;VT4yo+0d2UVOPCvisl0vzloeoqSkjQFeqzgKfvBZfxwENgyAo39OaTzC/Wo9wTy5Cm1P640niC6/&#xA;mjm0e6liYPG8EhVh0I4HAk8nmt9Bcz2c0FrcfVLmVGSG6KiT03YUD8DQNxO9MkTs0R57pZ+WA812&#xA;nmO60nzHexahNaTQva3UQUco5ULEEAJ9nbqPpIpgjZjxVsW2YAnQe0O6Ihd2CooqzMaAD3JwM1Cy&#xA;1CzvUZ7aUSKpo2xBB9wQDigG1DzBfXGn6DqV/bBDcWlrPPCJaiMvHGzrzI341G9MUsc/LXzJrWtW&#xA;t+dTvtO1P6vKiwX2lV9Ehkq0bfHJ8aEVO/RhkISscqZSjTMsmxdirsVdirsVdirsVQmpanbafAJp&#xA;6kE8VVRUk0rTFBNMSn8z38l+l0gVREGWOKhI4sf2t6k7Dp4ZKmozNsn0nW7bUlYRqySoKvG29Pke&#xA;+AhsjK0bczpbwSTyV4RqWam5oMDIl5vO4eaRx0ZiR8ia5NxiraZdrZ38NyylljJJUddwR/HFINFV&#xA;1rUIr++NxGrIpVVo1K7fLEJkbKU37FbOUqaELsRiwKQy3l3NIsss8kkifYd2ZmFDUUJO2FhaZaJJ&#xA;I/rc2LU40qSfHEsopu2vabFpElmzkzmcPQKaAKtDU/PBTLiFUhLe+tpzxjardeJBBpigFKLq/vhN&#xA;LELiQRLIxWPkeINabLWmFiSWrS7uDcIrSuVJoQSTigFB4UOxVH2V21taySKoYl1Wh+RP8MDIFcut&#xA;XIdiyhlPRelMaXienWEnPyash25WbsR4VQnIdXJH0sIvXuW06a90mD64UACQg78iwUgDq3Gtdu2W&#xA;Y+EyqRppkDw2N2IeS7m903z+gu6m4cyfWAwK1bgZehAp8QHbNpqBGWGxyH9jiYSRk3ZHqXm/VL65&#xA;eZuMaNsIl5UC9gd981VOSZkq+lajcTROeRjIIB4EgHAkFNrKG/1H1rJNRns0eMtJJGakqCFI+LpX&#xA;lmPqIGY4QeG+oc3SZBCXEQJV0Kb+WdHstG1OSDSStvptz8R06GJIoElCDlIgUChbjv8A7WRhikJm&#xA;XESD0bZ5oygI8IBHVleXuO7FXYq7FXYq7FWMal5vkWQx2cVOBId5RWpG1AAf45Kmo5O5C61rEepa&#xA;VEwQxyRygSL1FSrdD9GICJSsJDhYK9pf3dmzNbSGNmFGIANR9IOKQaTy58w2OqeXJPTnU3KFVli5&#xA;DnVWFWptUHxG2CmZkCGK3lwbe3aULyIoAOnU0wtRKVHWruvRB9B/rhpjxKltrL+ofrFOFNuI71+e&#xA;NKJIq9u7V7SVVlUsV2AOKSUhwsE20L/d/wDsP44Cziltx/vRL/rt+vFiUXo5AuySaAIak/MYlMUL&#xA;dEG6mINQXYgj5nFBbtf96Y/9YYqFHCh2Kohf94X/AOMq/wDEWwJ6IfChNbTWrtZ1RrmWO1EPpNFz&#xA;bhQRcKcRtQtgpmJPEvP0kmoebp7R3b0bGDZQdhSL1jse7FgK5lYIcRA73EyndfpGoap5Kv4b+3nt&#xA;L4qJEjgW6juY1LckLFYWBG1SDmeNHKQ4eIgf1f2sBlEDdX8f2In/AJWlrH/LJb/8P/zVkf5K/pfZ&#xA;+1P5sd32/sRNp+cOvWyssdnakMankJP4OMf5K/pfZ+1I1g/m/b+xlHl38zta1PTryZY4ory2K/uo&#xA;39FDG5A5O8hfiFIJY9hmu1ejljyRjxemXWurstJnjKEpcNyj0vomfl7z55oudRv7SeVY59OYI9xb&#xA;SiWNmavwqadqb75j6jTnGIESJ4+hFFyIZIz4wQPR1iSR8HoVl551a8snikVI5loDOmxIINdjWh9x&#xA;jTijISGR6Rrsf6GM88pnmgBMqjd6FqCtfngIbIy2dpfmkXt6ts8Hp+pXgwPLcb77DtiQsZ2U3nv7&#xA;GBwk08cbn9lmAOBkSFUSxGP1A6mOledRxoO9cUoafV9NgVHkuECS1MbL8QPE0NCtcaQZB48us3tS&#xA;XIkYsWZiNzXttllOJxL316/MRiUqkZYOQFrUgEDrXxxpeItPrVwykKqqT+1ufuxpeJTXVrxUZS1S&#xA;ejECoxpeJBYWLsVdirsVdirsVXK7r9liK9aGmKtE13PXFWsVdiq6Nyjhx1U1FcVW4q7FXYq7FW1I&#xA;BBIDAHcGtD91MCQu0nSNIuPNGmzz2UMs0s8UEjyRoxaOv2W+H49tqtU02yMQY72XJOUTocMR8Gba&#xA;tonlXTLS6vrnTLH0IQTxFrbg1JoqgsqrUk03IGT8ef8AOPzT4Ue4IPyefInmOwe4tNOsQ0bfGkln&#xA;EGANQDT06jdW+0AfalCQM8z/ABH5p8KPcPknEvk/y+JQV0ywMZoRS0h6f8Bh8ef84/NHhR7gx/zL&#xA;5V1L17G18v6NpwilkVr+/ZEgWOIHeIokZd+Q67U+eRnIz+onZnA8B9IG+yV/mHpF7pOraVPpOnWy&#xA;6Ncfubg2/C3cTD1GLGPigYBCDWvamP1SskksMkuGHCAKKDWVlt3RWpyYcgO4ocLitRzzRV9ORk5f&#xA;a4kivzphVH2GrtAjeozs4PJH5GvYUwUkSVk15XcmdWBP7QPI/TXGk8S86/HG3GIPwYUcg8fw740v&#xA;E5tbtvhADkfqxpeJI8LB2KuxV2KuxV2KuxV2KuxV2KuxV2KuxV2KuxV2KuxV2KuxV2Ko7Qf+Uh0n&#xA;/mLi/XkZcmzF9TIfzT+sjyhfpA1J5ZIVhdV5lGEyvz47VK8aj3yFXs5+KHFKkF+XGqJf+afMF3dJ&#xA;I8N1DZ/ViYzEIxAJFdN3NatJyH0+ArXjgYii3anHW9vQJ5wrAQwu0dBxIFf45Y4rpphFG0jiipuS&#xA;dh95bFWMfmcQdN0Y0oTcGo8D6D9clFqy/SwTJuK7FXYq7FXYq7FXYq7FXYq7FXYq7FXYq7FXYq7F&#xA;XYq7FXYq7FXYq7FXYq7FXYq7FUx0PTNXvL+OXS3giuLEi69W6DtCojP7QjIY18AcjJtxDdkI8wee&#xA;E1Bo5o7C5jioQbaKWBJA6nfnM8v2Se1D7EZjZjMEGIvvdhh4CCJGu5ZqOvecYVM9rbW/qICxVuVy&#xA;JNtowg9Jh/wQHicgJZTIWKHvtmY4hE0eI+6v1o76956/5bdB/wCkW+/6q5kuKkvmHytP5taC181T&#xA;2V5Z26u0Nlpn1u2JkdkAkkDO3PiFKr4cj17VZjIC4tuIAmip3WgeYz5ftrf67Z3mkaDURiNZ/rgU&#xA;KY1Esjko3BTvsOmXQvq4+YWDSQZY4jsVdirsVdirsVZb+i9P/wB8LlduXwDud+i9P/3wuNrwDud+&#xA;i9P/AN8Lja8A7nfovT/98Lja8A7nfovT/wDfC42vAO536L0//fC42vAO536L0/8A3wuNrwDud+i9&#xA;P/3wuNrwDud+i9P/AN8Lja8A7nfovT/98Lja8A7nfovT/wDfC42vAO536L0//fC42vAO536L0/8A&#xA;3wuNrwDud+i9P/3wuNrwDud+i9P/AN8Lja8A7nfovT/98Lja8A7nfovT/wDfC42vAO536L0//fC4&#xA;2vAO536L0/8A3wuNrwDud+i9O/3wuNrwDuZXovl+KLR3SDjbyXnF3cLy+AfZHUdv14shEDkv/wAL&#xA;nel18v3fvX+bAySfVITZXZtw4k4qpLceO538TihCeu/gMVROk6Dp8E1xqd2sn1+4YqCHajQKQYSq&#xA;1Kr8ND9+WTlcRHoiFxN9UR5X0KG01rUWtoWXT72LndLIzSK87u3L7R6letPbDOfFEX0YxjRSvUPL&#xA;9jZ3klu0CniaofFT0OV2nwx3If8ARen/AO+FxtHAO536L0//AHwuNrwDud+i9P8A98Lja8A7nfov&#xA;T/8AfC42vAO536L0/wD3wuNrwDuRWBm7FXYq7FXYq7FXYq7FXYq7FXYq7FXYq7FXYq7FXYq7FXYq&#xA;tkjWReLdMVQa6dcxoI4NTv4YkFI4kupgiqOiqA2wHYYq42Wp9tY1D/pLn/5qxVRk0i7kYs+pXjse&#xA;rNczE/icVW/oS4/5b7v/AKSZf64qxHWtL1u58/6fpw1C+/R7WRkmk9eYqGHqKBy5dqLthtiQbRX5&#xA;ZQa7N5fke91LUYZxcyKV+sToSFC0NOQxKxumZQWSxsXeaW4lY8mlnkaRyaACrMSdgAMDJEYq7FXY&#xA;q7FXYq7FXYq7FXYq7FXYq7FXYq7FXYq7FXYq7FXYq7FXYq7FXYq7FXYq7FXYq7FXYqgYtGsI9QbU&#xA;OLvdkMqySSSScFcgssYdiEU8RstBth4tqYiAu29O0ax05n+qCREckmIyyNGCzF2KxsxVSS3YYmVr&#xA;GAHJG4GTsVdirsVdirsVQf6Z0v8A5aUxV36Z0v8A5aUxV36Z0v8A5aUxV36Z0v8A5aUxV36Z0v8A&#xA;5aUxV36Z0v8A5aUxV36Z0v8A5aUxV36Z0v8A5aUxV36Z0v8A5aUxV36Z0v8A5aUxV36Z0v8A5aUx&#xA;V36Z0v8A5aUxV36Z0v8A5aUxV36Z0v8A5aUxV36Z0v8A5aUxV36Z0v8A5aUxV36Z0v8A5aUxV36Z&#xA;0v8A5aUxV36Z0v8A5aUxV36Z0v8A5aUxV36Z0v8A5aUxV36Z0v8A5aUxV36Z0v8A5aUxV36Z0v8A&#xA;5aUxV36Z0v8A5aUxV36Z0v8A5aUxV36Z0v8A5aUxV36Z0v8A5aUxV36Z0v8A5aUxV36Z0v8A5aUx&#xA;V36Z0v8A5aUxV36Z0v8A5aUxVg+KuxV2KuxV2KuxV2KuxV2KuxV2KuxV2KuxV2KuxV2KuxV2KuxV&#xA;2KuxV2KuxV2KuxV2KuxV2KuxV2KuxVLPrOvf8sf/AAj/ANcVd9Z17/lj/wCEf+uKu+s69/yx/wDC&#xA;P/XFXfWde/5Y/wDhH/rirvrOvf8ALH/wj/1xV31nXv8Alj/4R/64q76zr3/LH/wj/wBcVd9Z17/l&#xA;j/4R/wCuKu+s69/yx/8ACP8A1xV31nXv+WP/AIR/64q76zr3/LH/AMI/9cVd9Z17/lj/AOEf+uKu&#xA;+s69/wAsf/CP/XFXfWde/wCWP/hH/rirvrOvf8sf/CP/AFxV31nXv+WP/hH/AK4q76zr3/LH/wAI&#xA;/wDXFXfWde/5Y/8AhH/rirvrOvf8sf8Awj/1xV31nXv+WP8A4R/64q76zr3/ACx/8I/9cVd9Z17/&#xA;AJY/+Ef+uKu+s69/yx/8I/8AXFXfWde/5Y/+Ef8ArirvrOvf8sf/AAj/ANcVd9Z17/lj/wCEf+uK&#xA;u+s69/yx/wDCP/XFXfWde/5Y/wDhH/rirvrOvf8ALH/wj/1xV31nXv8Alj/4R/64q76zr3/LH/wj&#xA;/wBcVd9Z17/lj/4R/wCuKsmxV2KuxV2KuxV2KuxV2KuxV2KuxV2KuxV2KuxV2KuxV2KuxV2KuxV2&#xA;KuxV2KuxV2KuxV2KuxV2KuxV2Kp7/wA6N/2tP+nfFXf86N/2tP8Ap3xV3/Ojf9rT/p3xV3/Ojf8A&#xA;a0/6d8Vd/wA6N/2tP+nfFXf86N/2tP8Ap3xV3/Ojf9rT/p3xV3/Ojf8Aa0/6d8Vd/wA6N/2tP+nf&#xA;FXf86N/2tP8Ap3xV3/Ojf9rT/p3xV3/Ojf8Aa0/6d8Vd/wA6N/2tP+nfFXf86N/2tP8Ap3xV3/Oj&#xA;f9rT/p3xV3/Ojf8Aa0/6d8Vd/wA6N/2tP+nfFXf86N/2tP8Ap3xV3/Ojf9rT/p3xV3/Ojf8Aa0/6&#xA;d8Vd/wA6N/2tP+nfFXf86N/2tP8Ap3xV3/Ojf9rT/p3xV3/Ojf8Aa0/6d8Vd/wA6N/2tP+nfFXf8&#xA;6N/2tP8Ap3xV3/Ojf9rT/p3xV3/Ojf8Aa0/6d8Vd/wA6N/2tP+nfFXf86N/2tP8Ap3xV3/Ojf9rT&#xA;/p3xV3/Ojf8Aa0/6d8Vf/9k=</xmpGImg:image>
               </rdf:li>
            </rdf:Alt>
         </xmp:Thumbnails>
      </rdf:Description>
      <rdf:Description rdf:about=""
            xmlns:xmpMM="http://ns.adobe.com/xap/1.0/mm/"
            xmlns:stRef="http://ns.adobe.com/xap/1.0/sType/ResourceRef#"
            xmlns:stEvt="http://ns.adobe.com/xap/1.0/sType/ResourceEvent#">
         <xmpMM:RenditionClass>proof:pdf</xmpMM:RenditionClass>
         <xmpMM:OriginalDocumentID>uuid:65E6390686CF11DBA6E2D887CEACB407</xmpMM:OriginalDocumentID>
         <xmpMM:DocumentID>xmp.did:E84C24F466CFE7118503E497C490E6E6</xmpMM:DocumentID>
         <xmpMM:InstanceID>xmp.iid:E84C24F466CFE7118503E497C490E6E6</xmpMM:InstanceID>
         <xmpMM:DerivedFrom rdf:parseType="Resource">
            <stRef:instanceID>xmp.iid:E74C24F466CFE7118503E497C490E6E6</stRef:instanceID>
            <stRef:documentID>xmp.did:E74C24F466CFE7118503E497C490E6E6</stRef:documentID>
            <stRef:originalDocumentID>uuid:65E6390686CF11DBA6E2D887CEACB407</stRef:originalDocumentID>
            <stRef:renditionClass>proof:pdf</stRef:renditionClass>
         </xmpMM:DerivedFrom>
         <xmpMM:History>
            <rdf:Seq>
               <rdf:li rdf:parseType="Resource">
                  <stEvt:action>saved</stEvt:action>
                  <stEvt:instanceID>xmp.iid:ecdb8501-062b-b741-864a-a106713b896b</stEvt:instanceID>
                  <stEvt:when>2017-09-25T17:48:48+02:00</stEvt:when>
                  <stEvt:softwareAgent>Adobe Illustrator CC 2015 (Windows)</stEvt:softwareAgent>
                  <stEvt:changed>/</stEvt:changed>
               </rdf:li>
               <rdf:li rdf:parseType="Resource">
                  <stEvt:action>saved</stEvt:action>
                  <stEvt:instanceID>xmp.iid:d3340ad1-9e4e-9d40-95d2-969e40369dfc</stEvt:instanceID>
                  <stEvt:when>2017-09-25T17:49:23+02:00</stEvt:when>
                  <stEvt:softwareAgent>Adobe Illustrator CC 2015 (Windows)</stEvt:softwareAgent>
                  <stEvt:changed>/</stEvt:changed>
               </rdf:li>
               <rdf:li rdf:parseType="Resource">
                  <stEvt:action>converted</stEvt:action>
                  <stEvt:parameters>from application/postscript to application/vnd.adobe.illustrator</stEvt:parameters>
               </rdf:li>
               <rdf:li rdf:parseType="Resource">
                  <stEvt:action>saved</stEvt:action>
                  <stEvt:instanceID>xmp.iid:41f31ef3-25ef-b343-ad4f-1ffe923fc6d3</stEvt:instanceID>
                  <stEvt:when>2017-09-28T20:30:35+02:00</stEvt:when>
                  <stEvt:softwareAgent>Adobe Illustrator CC 2015 (Windows)</stEvt:softwareAgent>
                  <stEvt:changed>/</stEvt:changed>
               </rdf:li>
               <rdf:li rdf:parseType="Resource">
                  <stEvt:action>converted</stEvt:action>
                  <stEvt:parameters>from application/postscript to application/vnd.adobe.illustrator</stEvt:parameters>
               </rdf:li>
               <rdf:li rdf:parseType="Resource">
                  <stEvt:action>saved</stEvt:action>
                  <stEvt:instanceID>xmp.iid:E74C24F466CFE7118503E497C490E6E6</stEvt:instanceID>
                  <stEvt:when>2017-11-22T11:24:34+02:00</stEvt:when>
                  <stEvt:softwareAgent>Adobe Illustrator CS6 (Windows)</stEvt:softwareAgent>
                  <stEvt:changed>/</stEvt:changed>
               </rdf:li>
               <rdf:li rdf:parseType="Resource">
                  <stEvt:action>saved</stEvt:action>
                  <stEvt:instanceID>xmp.iid:E84C24F466CFE7118503E497C490E6E6</stEvt:instanceID>
                  <stEvt:when>2017-11-22T11:28:25+02:00</stEvt:when>
                  <stEvt:softwareAgent>Adobe Illustrator CS6 (Windows)</stEvt:softwareAgent>
                  <stEvt:changed>/</stEvt:changed>
               </rdf:li>
            </rdf:Seq>
         </xmpMM:History>
      </rdf:Description>
      <rdf:Description rdf:about=""
            xmlns:illustrator="http://ns.adobe.com/illustrator/1.0/">
         <illustrator:StartupProfile>Web</illustrator:StartupProfile>
      </rdf:Description>
      <rdf:Description rdf:about=""
            xmlns:xmpTPg="http://ns.adobe.com/xap/1.0/t/pg/"
            xmlns:stDim="http://ns.adobe.com/xap/1.0/sType/Dimensions#"
            xmlns:xmpG="http://ns.adobe.com/xap/1.0/g/">
         <xmpTPg:NPages>1</xmpTPg:NPages>
         <xmpTPg:HasVisibleTransparency>True</xmpTPg:HasVisibleTransparency>
         <xmpTPg:HasVisibleOverprint>False</xmpTPg:HasVisibleOverprint>
         <xmpTPg:MaxPageSize rdf:parseType="Resource">
            <stDim:w>1333.679688</stDim:w>
            <stDim:h>765.308105</stDim:h>
            <stDim:unit>Pixels</stDim:unit>
         </xmpTPg:MaxPageSize>
         <xmpTPg:PlateNames>
            <rdf:Seq>
               <rdf:li>Cyan</rdf:li>
               <rdf:li>Magenta</rdf:li>
               <rdf:li>Yellow</rdf:li>
               <rdf:li>Black</rdf:li>
            </rdf:Seq>
         </xmpTPg:PlateNames>
         <xmpTPg:SwatchGroups>
            <rdf:Seq>
               <rdf:li rdf:parseType="Resource">
                  <xmpG:groupName>Default Swatch Group</xmpG:groupName>
                  <xmpG:groupType>0</xmpG:groupType>
               </rdf:li>
            </rdf:Seq>
         </xmpTPg:SwatchGroups>
      </rdf:Description>
      <rdf:Description rdf:about=""
            xmlns:pdf="http://ns.adobe.com/pdf/1.3/">
         <pdf:Producer>Adobe PDF library 10.01</pdf:Producer>
      </rdf:Description>
   </rdf:RDF>
</x:xmpmeta>
                                                                                                    
                                                                                                    
                                                                                                    
                                                                                                    
                                                                                                    
                                                                                                    
                                                                                                    
                                                                                                    
                                                                                                    
                                                                                                    
                                                                                                    
                                                                                                    
                                                                                                    
                                                                                                    
                                                                                                    
                                                                                                    
                                                                                                    
                                                                                                    
                                                                                                    
                                                                                                    
                           
<?xpacket end="w"?>
	</metadata>
<g id="Layer_4">
</g>
<g id="Layer_1_1_">
	<path fill="#B8C8C8" d="M1335.113,324.222v67.784H0v-73.568h1.765v37.601h4.253v-37.271h6.537l8.717-7.952h6.03l0.067-3.742
		l13.151,0.024v3.718h4.745l8.851,8.102l6.848,0.034v39.152h3.271v-3.904h3.268v-73.755h9.159v-3.326l13.082-5.784v-4.917h9.677
		v-6.518l5.984,0.013l-0.021-10.658h4.317l-0.023,10.667l5.942,0.013l-0.089,6.483h9.536v4.772l15.698,6.941v2.458h7.522v21.115
		h21.586v12.727h8.505v17.354h18.644v-38.033h6.008v-15.475h8.961v-51.492l7.61,0.048v-1.577h11.263l0.085-9.167l3.421,0.037
		l-0.043,9.13h40.518v1.914l7.792,0.047v45.13l6.214,2.748h16.424v-26.898l22.894-10.123h37.942v7.809h9.159v29.358h11.122v-12.437
		h25.509v15.329h6.542v-53.075h4.27v-2.14h15.977v-5.199h15.61v5.199h15.977v2.14h4.748v61.318h12.102V183.114h5.962l-0.01-17.408
		l7.172-0.074l0.174,17.482h42.114l0.067-35.92l7.188,0.068l0.077,35.853h6.246v133.342h9.811v-84.149h4.678v-3.054h6.414v3.054
		h6.414v-0.893h4.991v0.893h5.701v-0.893h7.126v0.893h7.84v-2.244h5.343v2.244h2.497v-0.893h4.988v0.893h6.684l0.283,77.726v6.361
		l1.503-0.011l8.495-0.063v-91.989h22.556v-5.134l10.271-0.019v5.153h7.61v-0.81h7.609v0.81h7.61v-0.81h3.805v0.81h4.657v86.623
		l7.573,0.029l14.071,10.229l1.906,1.386v-79.176h4.088v-3.312h3.995v1.616h2.662v1.696h22.633v-1.05h6.659v1.05h5.324v-7.616
		l2.663-0.017v7.633h19.97v-1.535h3.108v1.535h2.161v81.744h30.116V205.551l34.197-3.468l1.039-13.885
		c-3.423-0.729-5.762-2.102-5.762-3.696c0-1.711,2.681-3.178,6.524-3.853l2.817-27.792l2.967-28.291l1.396,28.295l2.43,27.832
		c3.725,0.692,6.315,2.131,6.315,3.809c0,1.579-2.297,2.94-5.664,3.675l1.421,14.018l31.313,3.067v117.12h23.23v-69.83l21.084,0.001
		l0.098-7.535l7.133,0.01l0.072-5.529l12.826-0.029v5.577l5.082,0.008v7.499l41.332,0.002l-0.017,4.539h11.698v18.866h3.832
		l21.092,8.336v26.951h15.6v-2.187h19.063l0.089,2.187h21.343v-7.271h9.484v-5.599h12.104v5.599h3.92v21.838h10.795v9.584h10.467
		l0.097-19.168h11.449v-5.207h22.566v8.244h6.773l-0.099,16.774l19.669,0.037v-2.892H1222v-2.846h9.461l-0.044-3.462l17.467,0.008
		l-0.021,3.454h10.146v2.846h14.594v3.325h16.478v-7.376h12.753v5.354h10.467v-10.269H1335.113L1335.113,324.222z"/>
	<polygon fill="#92AAAA" points="1327.37,361.636 1327.37,357.586 1316.154,357.586 1316.154,363.154 1306.008,363.154 
		1306.008,360.623 1288.918,360.623 1288.918,355.764 1268.357,355.764 1268.357,360.623 1266.488,360.623 1266.488,362.851 
		1246.996,362.851 1246.996,361.636 1239.252,361.636 1239.252,359.813 1231.508,359.813 1231.508,353.638 1211.748,353.638 
		1211.748,357.485 1201.869,357.485 1201.869,363.66 1192.522,363.66 1192.522,355.157 1183.177,355.157 1183.177,339.056 
		1157.19,339.061 1151.474,339.061 1141.471,333.088 1122.896,333.088 1115.767,339.907 1109.212,342.073 1109.212,368.52 
		1103.338,368.52 1103.338,310.413 1095.327,310.413 1095.327,307.886 1084.112,303.558 1084.112,299.885 1053.138,299.885 
		1053.138,303.45 1039.519,308.643 1039.519,310.514 1032.844,310.514 1032.844,326.306 1013.885,326.306 1013.885,335.822 
		1006.675,335.822 1006.675,348.779 990.387,348.779 990.387,320.333 985.046,320.333 985.046,308.793 977.303,308.793 
		977.303,270.23 972.186,270.257 964.225,264.936 932.174,264.961 927.445,264.966 920.111,270.53 915.354,270.554 915.354,309.988 
		910.026,312.033 895.594,312.033 895.594,286.248 875.663,278.627 842.456,278.627 842.456,284.498 834.179,284.498 
		834.179,325.091 826.216,325.091 826.327,297.019 818.424,297.008 818.424,295.971 805.073,295.949 805.073,297.151 
		802.403,297.151 802.403,314.361 796.795,314.361 796.795,268.908 784.513,268.908 784.513,267.997 773.898,267.997 
		773.965,262.759 757.543,262.733 757.543,267.997 748.731,267.997 748.731,268.908 736.181,268.908 736.181,334.303 
		728.459,334.303 728.171,237.527 718.825,237.527 718.825,235.199 690.788,235.199 690.788,237.563 664.62,237.586 664.62,235.401 
		634.979,235.401 634.979,237.527 625.634,237.527 625.633,347.947 618.195,347.965 617.943,257.469 602.403,257.469 
		602.403,256.055 583.711,256.054 583.711,257.368 569.292,257.368 569.292,256.153 554.606,256.153 554.606,257.368 
		548.198,257.368 548.198,330.052 540.975,330.052 527.637,335.1 527.637,282.675 513.485,282.675 513.485,279.639 477.971,279.639 
		477.971,282.675 463.552,282.675 463.552,337.036 437.116,337.036 437.116,254.348 412.372,254.398 412.283,213.434 
		393.325,213.434 393.233,254.058 368.225,254.132 368.225,327.824 332.176,327.824 332.176,319.321 318.024,319.321 
		318.024,306.971 311.349,306.971 311.349,305.655 306.809,305.655 306.809,306.971 289.72,306.971 289.72,305.857 268.091,305.857 
		268.091,306.971 257.733,306.971 239.252,313.999 239.252,333.392 190.387,333.392 190.387,328.027 182.11,328.027 182.11,323.775 
		171.429,323.775 171.429,328.027 167.958,328.027 167.958,344.325 158.611,344.325 158.611,351.513 149.533,351.513 
		149.533,346.653 139.386,346.653 139.386,342.806 119.626,342.806 119.626,348.981 111.883,348.981 111.883,350.804 
		104.139,350.804 104.139,352.019 84.913,352.019 84.913,349.792 82.777,349.792 82.777,345.034 62.217,345.034 62.217,349.792 
		45.127,349.792 45.127,352.322 34.98,352.322 34.98,346.754 24.032,346.754 24.032,350.804 14.687,350.804 14.687,343.124 
		0.015,343.103 0.137,377.225 0,377.225 0,575.966 1335.113,575.966 1335.113,392.003 1335.113,377.231 1335.113,361.636 	"/>
	<rect y="683.783" fill="#A7A7A7" width="1335.113" height="81.525"/>
	<rect y="563.146" fill="#999999" width="1335.113" height="120.637"/>
	<rect y="466.958" fill="#CCCCCC" width="1335.113" height="149.771"/>
	<rect y="683.783" fill="#757575" width="1335.113" height="17.293"/>
</g>
<g id="Layer_2">
</g>
<g id="Layer_3">
	<g>
		
			<linearGradient id="SVGID_1_" gradientUnits="userSpaceOnUse" x1="1282.5508" y1="410.3501" x2="1282.5508" y2="-32.4468" gradientTransform="matrix(1 0 0 -1 -310.96 523.6475)">
			<stop  offset="0" style="stop-color:#B8FFFF"/>
			<stop  offset="0.2688" style="stop-color:#E7FFFF"/>
			<stop  offset="0.5551" style="stop-color:#F2FFFF"/>
			<stop  offset="1" style="stop-color:#FFFFFF"/>
		</linearGradient>
		<rect x="753.43" y="134.906" display="none" fill="url(#SVGID_1_)" width="436.325" height="442.796"/>
		<ellipse opacity="0.08" enable-background="new    " cx="969.683" cy="506.104" rx="150.664" ry="17.966"/>
		<path fill="#595959" d="M1093.834,510.835H842.783c-2.788,0-5.732-1.426-6.029-5.582v-3.818l27.479-51.529
			c1.478-3.021,4.512-4.93,7.835-4.93h192.116c3.587,0,11.49,7.164,13.093,10.418l22.671,46.902v1.684
			C1100.003,508.867,1096.893,510.835,1093.834,510.835z"/>
		<path fill="#FFFDFE" d="M1093.857,505.441H842.804c-2.786,0-7.375-2.48-5.651-5.531l27.104-55.4
			c1.478-3.018,4.513-4.928,7.833-4.928h192.118c3.586,0,6.861,2.055,8.465,5.311l26.829,54.482
			C1101.381,502.847,1096.914,505.441,1093.857,505.441z"/>
		<rect x="865.14" y="308.011" fill="#595959" width="205.593" height="131.838"/>
		<rect x="869.069" y="312.815" fill="#FFFDFE" width="197.658" height="119.012"/>
		<path fill="#C9C9C9" d="M1004.721,503.042h-73.975c-0.821,0-1.447-0.744-1.318-1.566l3.119-19.773
			c0.169-1.066,1.076-1.852,2.141-1.852h66.722c0.945,0,1.748,0.705,1.884,1.654l2.859,19.885
			C1006.265,502.267,1005.592,503.042,1004.721,503.042z"/>
		<g>
			<path fill="#C9C9C9" d="M883.244,451.427h-8.027c-1.119,0-1.892-0.336-1.725-0.75l0.489-1.219
				c0.163-0.406,1.191-0.736,2.299-0.736h7.934c1.106,0,1.889,0.33,1.746,0.736l-0.426,1.219
				C885.388,451.091,884.364,451.427,883.244,451.427z"/>
			<path fill="#C9C9C9" d="M896.78,451.427h-8.026c-1.119,0-1.912-0.336-1.77-0.75l0.418-1.219c0.14-0.406,1.148-0.736,2.256-0.736
				h7.934c1.105,0,1.907,0.33,1.789,0.736l-0.355,1.219C898.906,451.091,897.901,451.427,896.78,451.427z"/>
			<path fill="#C9C9C9" d="M910.316,451.427h-8.026c-1.119,0-1.931-0.336-1.813-0.75l0.348-1.219
				c0.117-0.406,1.107-0.736,2.214-0.736h7.934c1.106,0,1.927,0.33,1.831,0.736l-0.284,1.219
				C912.422,451.091,911.436,451.427,910.316,451.427z"/>
			<path fill="#C9C9C9" d="M923.854,451.427h-8.027c-1.119,0-1.95-0.336-1.856-0.75l0.278-1.219c0.092-0.406,1.064-0.736,2.17-0.736
				h7.934c1.107,0,1.946,0.33,1.875,0.736l-0.215,1.219C925.938,451.091,924.973,451.427,923.854,451.427z"/>
			<path fill="#C9C9C9" d="M937.389,451.427h-8.024c-1.12,0-1.971-0.336-1.9-0.75l0.206-1.219c0.068-0.406,1.023-0.736,2.129-0.736
				h7.933c1.106,0,1.966,0.33,1.918,0.736l-0.144,1.219C939.456,451.091,938.508,451.427,937.389,451.427z"/>
			<path fill="#C9C9C9" d="M950.926,451.427H942.9c-1.12,0-1.991-0.336-1.944-0.75l0.136-1.219c0.045-0.406,0.979-0.736,2.085-0.736
				h7.935c1.105,0,1.982,0.33,1.958,0.736l-0.072,1.219C952.972,451.091,952.045,451.427,950.926,451.427z"/>
			<path fill="#C9C9C9" d="M964.461,451.427h-8.026c-1.117,0-2.008-0.336-1.985-0.75l0.064-1.219
				c0.021-0.406,0.937-0.736,2.042-0.736h7.934c1.106,0,2.002,0.33,2.001,0.736l-0.001,1.219
				C966.488,451.091,965.581,451.427,964.461,451.427z"/>
			<path fill="#C9C9C9" d="M977.998,451.427h-8.027c-1.119,0-2.027-0.336-2.028-0.75l-0.006-1.219
				c-0.003-0.406,0.893-0.736,1.998-0.736h7.936c1.105,0,2.021,0.33,2.045,0.736l0.068,1.219
				C980.005,451.091,979.117,451.427,977.998,451.427z"/>
			<path fill="#C9C9C9" d="M991.533,451.427h-8.025c-1.118,0-2.048-0.336-2.074-0.75l-0.075-1.219
				c-0.025-0.406,0.85-0.736,1.956-0.736h7.935c1.105,0,2.041,0.33,2.087,0.736l0.138,1.219
				C993.521,451.091,992.653,451.427,991.533,451.427z"/>
			<path fill="#C9C9C9" d="M1005.07,451.427h-8.026c-1.118,0-2.066-0.336-2.117-0.75l-0.146-1.219
				c-0.049-0.406,0.808-0.736,1.915-0.736h7.934c1.107,0,2.061,0.33,2.129,0.736l0.21,1.219
				C1007.039,451.091,1006.19,451.427,1005.07,451.427z"/>
			<path fill="#C9C9C9" d="M1018.606,451.427h-8.026c-1.12,0-2.087-0.336-2.161-0.75l-0.217-1.219
				c-0.073-0.406,0.764-0.736,1.871-0.736h7.934c1.107,0,2.079,0.33,2.172,0.736l0.28,1.219
				C1020.557,451.091,1019.727,451.427,1018.606,451.427z"/>
			<path fill="#C9C9C9" d="M1032.143,451.427h-8.026c-1.12,0-2.105-0.336-2.203-0.75l-0.289-1.219
				c-0.095-0.406,0.723-0.736,1.829-0.736h7.934c1.107,0,2.1,0.33,2.216,0.736l0.352,1.219
				C1034.073,451.091,1033.263,451.427,1032.143,451.427z"/>
			<path fill="#C9C9C9" d="M1045.679,451.427h-8.025c-1.12,0-2.126-0.336-2.249-0.75l-0.357-1.219
				c-0.121-0.406,0.68-0.736,1.786-0.736h7.933c1.107,0,2.118,0.33,2.259,0.736l0.423,1.219
				C1047.59,451.091,1046.798,451.427,1045.679,451.427z"/>
			<path fill="#C9C9C9" d="M1059.215,451.427h-8.026c-1.119,0-2.145-0.336-2.291-0.75l-0.429-1.219
				c-0.144-0.406,0.638-0.736,1.744-0.736h7.933c1.106,0,2.138,0.33,2.303,0.736l0.492,1.219
				C1061.106,451.091,1060.335,451.427,1059.215,451.427z"/>
			<path fill="#C9C9C9" d="M882.505,455.984h-10.243c-0.255,0-0.43-0.08-0.393-0.176l1.52-3.803
				c0.037-0.092,0.271-0.168,0.522-0.168h10.063c0.25,0,0.428,0.076,0.395,0.168l-1.341,3.803
				C882.993,455.906,882.76,455.984,882.505,455.984z"/>
			<path fill="#C9C9C9" d="M901.414,460.972h-10.457c-0.261,0-0.446-0.082-0.416-0.182l1.247-3.963
				c0.029-0.096,0.263-0.174,0.518-0.174h10.271c0.255,0,0.441,0.078,0.417,0.174l-1.062,3.963
				C901.907,460.89,901.674,460.972,901.414,460.972z"/>
			<path fill="#C9C9C9" d="M903.124,466.173h-10.681c-0.269,0-0.457-0.084-0.426-0.189l1.247-4.133
				c0.031-0.1,0.269-0.182,0.528-0.182h10.486c0.262,0,0.453,0.082,0.428,0.182l-1.053,4.133
				C903.626,466.089,903.388,466.173,903.124,466.173z"/>
			<path fill="#C9C9C9" d="M909.137,471.603h-10.916c-0.271,0-0.467-0.09-0.438-0.199l1.176-4.313
				c0.028-0.105,0.269-0.189,0.535-0.189h10.713c0.267,0,0.463,0.084,0.439,0.189l-0.974,4.313
				C909.649,471.513,909.408,471.603,909.137,471.603z"/>
			<path fill="#C9C9C9" d="M874.7,477.914h-11.123c-0.295,0-0.496-0.1-0.447-0.221l2.045-5.121c0.046-0.117,0.32-0.211,0.609-0.211
				h10.886c0.288,0,0.49,0.096,0.45,0.211l-1.807,5.121C875.272,477.814,874.997,477.914,874.7,477.914z"/>
			<path fill="#C9C9C9" d="M889.556,477.914h-11.124c-0.295,0-0.501-0.1-0.46-0.221l1.753-5.121c0.04-0.117,0.308-0.211,0.597-0.211
				h10.886c0.289,0,0.497,0.096,0.462,0.211l-1.512,5.121C890.122,477.814,889.851,477.914,889.556,477.914z"/>
			<path fill="#C9C9C9" d="M903.963,477.914h-11.125c-0.295,0-0.506-0.1-0.472-0.221l1.469-5.121
				c0.034-0.117,0.296-0.211,0.586-0.211h10.885c0.29,0,0.502,0.096,0.475,0.211l-1.229,5.121
				C904.522,477.814,904.259,477.914,903.963,477.914z"/>
			<path fill="#C9C9C9" d="M922.119,477.914h-14.678c-0.339,0-0.584-0.113-0.554-0.252l1.169-5.059
				c0.031-0.135,0.324-0.242,0.655-0.242h14.363c0.331,0,0.58,0.107,0.558,0.242l-0.857,5.059
				C922.75,477.8,922.458,477.914,922.119,477.914z"/>
			<path fill="#C9C9C9" d="M1012.415,477.914h-14.678c-0.337,0-0.625-0.113-0.643-0.252l-0.586-5.059
				c-0.016-0.135,0.24-0.242,0.569-0.242h14.365c0.331,0,0.616,0.107,0.641,0.242l0.897,5.059
				C1013.007,477.8,1012.753,477.914,1012.415,477.914z"/>
			<path fill="#C9C9C9" d="M1027.276,477.914h-10.969c-0.293,0-0.55-0.098-0.571-0.221l-0.964-5.123
				c-0.022-0.115,0.193-0.209,0.479-0.209h10.733c0.287,0,0.543,0.094,0.569,0.209l1.2,5.123
				C1027.785,477.816,1027.569,477.914,1027.276,477.914z"/>
			<path fill="#C9C9C9" d="M994.077,477.914h-67.729c-0.711,0-1.249-0.238-1.201-0.531l0.726-4.512
				c0.044-0.283,0.646-0.51,1.34-0.51h66.282c0.693,0,1.283,0.227,1.313,0.51l0.494,4.512
				C995.335,477.675,994.787,477.914,994.077,477.914z"/>
			<path fill="#C9C9C9" d="M923.31,471.603h-10.914c-0.271,0-0.473-0.09-0.448-0.199l0.935-4.313
				c0.022-0.105,0.258-0.189,0.525-0.189h10.712c0.268,0,0.468,0.084,0.45,0.189l-0.732,4.313
				C923.817,471.513,923.583,471.603,923.31,471.603z"/>
			<path fill="#C9C9C9" d="M937.484,471.603H926.57c-0.271,0-0.479-0.09-0.46-0.199l0.693-4.313
				c0.017-0.105,0.246-0.189,0.514-0.189h10.712c0.267,0,0.473,0.084,0.461,0.189l-0.491,4.313
				C937.987,471.513,937.755,471.603,937.484,471.603z"/>
			<path fill="#C9C9C9" d="M951.657,471.603h-10.915c-0.271,0-0.482-0.09-0.472-0.199l0.453-4.313
				c0.012-0.105,0.236-0.189,0.503-0.189h10.712c0.268,0,0.479,0.084,0.473,0.189l-0.25,4.313
				C952.155,471.513,951.929,471.603,951.657,471.603z"/>
			<path fill="#C9C9C9" d="M965.831,471.603h-10.914c-0.271,0-0.489-0.09-0.483-0.199l0.212-4.313
				c0.006-0.105,0.228-0.189,0.492-0.189h10.711c0.269,0,0.484,0.084,0.484,0.189l-0.01,4.313
				C966.323,471.513,966.104,471.603,965.831,471.603z"/>
			<path fill="#C9C9C9" d="M980.005,471.603H969.09c-0.271,0-0.492-0.09-0.492-0.199l-0.029-4.313c0-0.105,0.215-0.189,0.481-0.189
				h10.711c0.27,0,0.488,0.084,0.494,0.189l0.232,4.313C980.493,471.513,980.276,471.603,980.005,471.603z"/>
			<path fill="#C9C9C9" d="M994.181,471.603h-10.917c-0.271,0-0.497-0.09-0.504-0.199l-0.271-4.313
				c-0.006-0.105,0.204-0.189,0.471-0.189h10.712c0.269,0,0.492,0.084,0.504,0.189l0.474,4.313
				C994.661,471.513,994.451,471.603,994.181,471.603z"/>
			<path fill="#C9C9C9" d="M1008.353,471.603h-10.914c-0.272,0-0.502-0.09-0.517-0.199l-0.511-4.313
				c-0.013-0.105,0.194-0.189,0.46-0.189h10.714c0.266,0,0.497,0.084,0.514,0.189l0.714,4.313
				C1008.83,471.513,1008.625,471.603,1008.353,471.603z"/>
			<path fill="#C9C9C9" d="M1022.526,471.603h-10.915c-0.271,0-0.507-0.09-0.526-0.199l-0.753-4.313
				c-0.018-0.105,0.184-0.189,0.451-0.189h10.711c0.268,0,0.503,0.084,0.526,0.189l0.954,4.313
				C1022.998,471.513,1022.798,471.603,1022.526,471.603z"/>
			<path fill="#C9C9C9" d="M1040.416,478h-8.505c-1.083,0-2.048-0.361-2.154-0.805l-0.314-1.295
				c-0.106-0.438,0.675-0.793,1.746-0.793h8.41c1.069,0,2.04,0.355,2.167,0.793l0.375,1.295
				C1042.268,477.638,1041.496,478,1040.416,478z"/>
			<path fill="#C9C9C9" d="M1054.992,478h-8.507c-1.081,0-2.066-0.361-2.198-0.805l-0.387-1.295
				c-0.132-0.438,0.631-0.793,1.698-0.793h8.412c1.07,0,2.061,0.355,2.212,0.793l0.447,1.295
				C1056.825,477.638,1056.073,478,1054.992,478z"/>
			<path fill="#C9C9C9" d="M1053.894,474.761h-8.399c-1.067,0-2.039-0.352-2.169-0.787l-0.375-1.262
				c-0.128-0.428,0.625-0.773,1.681-0.773h8.31c1.056,0,2.032,0.346,2.181,0.773l0.437,1.262
				C1055.706,474.41,1054.962,474.761,1053.894,474.761z"/>
			<path fill="#C9C9C9" d="M1069.567,478h-8.508c-1.082,0-2.086-0.361-2.243-0.805l-0.459-1.295
				c-0.156-0.438,0.585-0.793,1.654-0.793h8.412c1.069,0,2.08,0.355,2.255,0.793l0.522,1.295
				C1071.38,477.638,1070.647,478,1069.567,478z"/>
			<path fill="#C9C9C9" d="M917.122,466.173h-10.681c-0.267,0-0.459-0.084-0.436-0.189l1.016-4.133
				c0.022-0.1,0.256-0.182,0.518-0.182h10.486c0.261,0,0.457,0.082,0.436,0.182l-0.82,4.133
				C917.621,466.089,917.389,466.173,917.122,466.173z"/>
			<path fill="#C9C9C9" d="M931.121,466.173H920.44c-0.267,0-0.466-0.084-0.446-0.189l0.78-4.133c0.019-0.1,0.248-0.182,0.508-0.182
				h10.488c0.261,0,0.461,0.082,0.445,0.182l-0.585,4.133C931.615,466.089,931.388,466.173,931.121,466.173z"/>
			<path fill="#C9C9C9" d="M945.119,466.173h-10.681c-0.267,0-0.47-0.084-0.456-0.189l0.548-4.133
				c0.012-0.1,0.235-0.182,0.498-0.182h10.484c0.263,0,0.467,0.082,0.458,0.182l-0.354,4.133
				C945.609,466.089,945.386,466.173,945.119,466.173z"/>
			<path fill="#C9C9C9" d="M959.033,466.173h-10.681c-0.267,0-0.476-0.084-0.467-0.189l0.315-4.133
				c0.008-0.1,0.227-0.182,0.487-0.182h10.485c0.263,0,0.472,0.082,0.47,0.182l-0.123,4.133
				C959.517,466.089,959.299,466.173,959.033,466.173z"/>
			<path fill="#C9C9C9" d="M973.031,466.173h-10.681c-0.267,0-0.479-0.084-0.479-0.189l0.083-4.133
				c0.002-0.1,0.215-0.182,0.477-0.182h10.486c0.263,0,0.478,0.082,0.479,0.182l0.11,4.133
				C973.511,466.089,973.297,466.173,973.031,466.173z"/>
			<path fill="#C9C9C9" d="M986.431,466.173H975.75c-0.266,0-0.484-0.084-0.488-0.189l-0.14-4.133
				c-0.003-0.1,0.205-0.182,0.466-0.182h10.488c0.261,0,0.479,0.082,0.487,0.182l0.334,4.133
				C986.905,466.089,986.698,466.173,986.431,466.173z"/>
			<path fill="#C9C9C9" d="M1000.301,466.173h-10.68c-0.267,0-0.489-0.084-0.499-0.189l-0.372-4.133
				c-0.008-0.1,0.197-0.182,0.457-0.182h10.487c0.262,0,0.485,0.082,0.499,0.182l0.563,4.133
				C1000.771,466.089,1000.567,466.173,1000.301,466.173z"/>
			<path fill="#C9C9C9" d="M1014.171,466.173h-10.68c-0.267,0-0.494-0.084-0.51-0.189l-0.602-4.133
				c-0.015-0.1,0.187-0.182,0.447-0.182h10.487c0.261,0,0.488,0.082,0.509,0.182l0.793,4.133
				C1014.636,466.089,1014.438,466.173,1014.171,466.173z"/>
			<path fill="#C9C9C9" d="M1027.956,466.173h-10.681c-0.267,0-0.499-0.084-0.52-0.189l-0.832-4.133
				c-0.021-0.1,0.175-0.182,0.437-0.182h10.487c0.262,0,0.492,0.082,0.519,0.182l1.023,4.133
				C1028.417,466.089,1028.223,466.173,1027.956,466.173z"/>
			<path fill="#C9C9C9" d="M1041.742,466.173h-10.682c-0.267,0-0.504-0.084-0.531-0.189l-1.061-4.133
				c-0.024-0.1,0.165-0.182,0.427-0.182h10.488c0.26,0,0.498,0.082,0.528,0.182l1.254,4.133
				C1042.196,466.089,1042.007,466.173,1041.742,466.173z"/>
			<path fill="#C9C9C9" d="M1036.562,471.603h-10.914c-0.271,0-0.514-0.09-0.538-0.199l-0.991-4.313
				c-0.024-0.105,0.172-0.189,0.438-0.189h10.712c0.268,0,0.507,0.084,0.536,0.189l1.193,4.313
				C1037.029,471.513,1036.833,471.603,1036.562,471.603z"/>
			<path fill="#C9C9C9" d="M1066.163,466.173h-20.624c-0.365,0-0.698-0.117-0.744-0.26l-1.254-3.994
				c-0.043-0.139,0.211-0.25,0.569-0.25h20.25c0.358,0,0.695,0.111,0.752,0.25l1.606,3.994
				C1066.777,466.056,1066.527,466.173,1066.163,466.173z"/>
			<path fill="#C9C9C9" d="M1068.231,471.603h-28.264c-0.429,0-0.817-0.141-0.868-0.313l-1.166-4.086
				c-0.047-0.168,0.257-0.303,0.68-0.303h27.737c0.422,0,0.819,0.135,0.888,0.303l1.646,4.086
				C1068.954,471.462,1068.661,471.603,1068.231,471.603z"/>
			<path fill="#C9C9C9" d="M889.242,466.173h-20.847c-0.368,0-0.618-0.117-0.56-0.262l1.593-3.99
				c0.058-0.139,0.394-0.252,0.754-0.252h20.469c0.358,0,0.617,0.113,0.573,0.252l-1.236,3.99
				C889.942,466.056,889.609,466.173,889.242,466.173z"/>
			<path fill="#C9C9C9" d="M894.788,471.603h-28.675c-0.433,0-0.729-0.143-0.658-0.316l1.634-4.082
				c0.068-0.168,0.467-0.305,0.894-0.305h28.142c0.425,0,0.732,0.137,0.685,0.305l-1.146,4.082
				C895.612,471.46,895.22,471.603,894.788,471.603z"/>
			<path fill="#C9C9C9" d="M915.049,460.972h-10.457c-0.261,0-0.451-0.082-0.425-0.182l1.024-3.963
				c0.024-0.096,0.252-0.174,0.508-0.174h10.271c0.255,0,0.445,0.078,0.425,0.174l-0.837,3.963
				C915.539,460.89,915.309,460.972,915.049,460.972z"/>
			<path fill="#C9C9C9" d="M928.601,460.972h-10.455c-0.262,0-0.457-0.082-0.436-0.182l0.802-3.963
				c0.02-0.096,0.242-0.174,0.499-0.174h10.271c0.257,0,0.451,0.078,0.436,0.174l-0.616,3.963
				C929.085,460.89,928.861,460.972,928.601,460.972z"/>
			<path fill="#C9C9C9" d="M942.236,460.972H931.78c-0.26,0-0.46-0.082-0.445-0.182l0.579-3.963c0.015-0.096,0.233-0.174,0.49-0.174
				h10.271c0.256,0,0.456,0.078,0.446,0.174l-0.395,3.963C942.717,460.89,942.498,460.972,942.236,460.972z"/>
			<path fill="#C9C9C9" d="M955.872,460.972h-10.457c-0.261,0-0.464-0.082-0.456-0.182l0.358-3.963
				c0.007-0.096,0.223-0.174,0.479-0.174h10.271c0.255,0,0.459,0.078,0.457,0.174l-0.173,3.963
				C956.348,460.89,956.133,460.972,955.872,460.972z"/>
			<path fill="#C9C9C9" d="M969.424,460.972h-10.458c-0.26,0-0.468-0.082-0.464-0.182l0.137-3.963
				c0.002-0.096,0.214-0.174,0.469-0.174h10.271c0.256,0,0.464,0.078,0.466,0.174l0.05,3.963
				C969.894,460.89,969.684,460.972,969.424,460.972z"/>
			<path fill="#C9C9C9" d="M982.669,460.972h-10.458c-0.261,0-0.473-0.082-0.475-0.182l-0.08-3.963
				c-0.001-0.096,0.204-0.174,0.46-0.174h10.271c0.256,0,0.469,0.078,0.477,0.174l0.266,3.963
				C983.134,460.89,982.928,460.972,982.669,460.972z"/>
			<path fill="#C9C9C9" d="M996.415,460.972h-10.457c-0.26,0-0.479-0.082-0.485-0.182l-0.304-3.963
				c-0.007-0.096,0.194-0.174,0.451-0.174h10.271c0.258,0,0.474,0.078,0.485,0.174l0.489,3.963
				C996.878,460.89,996.676,460.972,996.415,460.972z"/>
			<path fill="#C9C9C9" d="M1009.996,460.972h-10.458c-0.261,0-0.483-0.082-0.496-0.182l-0.524-3.963
				c-0.013-0.096,0.186-0.174,0.44-0.174h10.271c0.255,0,0.478,0.078,0.495,0.174l0.71,3.963
				C1010.452,460.89,1010.256,460.972,1009.996,460.972z"/>
			<path fill="#C9C9C9" d="M1023.352,460.972h-10.456c-0.262,0-0.487-0.082-0.508-0.182l-0.742-3.963
				c-0.018-0.096,0.176-0.174,0.431-0.174h10.271c0.255,0,0.48,0.078,0.504,0.174l0.93,3.963
				C1023.803,460.89,1023.611,460.972,1023.352,460.972z"/>
			<path fill="#C9C9C9" d="M1037.266,460.972h-10.458c-0.26,0-0.491-0.082-0.516-0.182l-0.969-3.963
				c-0.024-0.096,0.164-0.174,0.42-0.174h10.271c0.255,0,0.486,0.078,0.515,0.174l1.154,3.963
				C1037.714,460.89,1037.526,460.972,1037.266,460.972z"/>
			<path fill="#C9C9C9" d="M1050.566,460.972h-10.458c-0.262,0-0.496-0.082-0.527-0.182l-1.186-3.963
				c-0.028-0.096,0.154-0.174,0.41-0.174h10.271c0.257,0,0.489,0.078,0.522,0.174l1.373,3.963
				C1051.01,460.89,1050.828,460.972,1050.566,460.972z"/>
			<path fill="#C9C9C9" d="M1064.258,460.972h-10.457c-0.26,0-0.5-0.082-0.536-0.182l-1.41-3.963
				c-0.033-0.096,0.145-0.174,0.401-0.174h10.271c0.254,0,0.495,0.078,0.532,0.174l1.597,3.963
				C1064.697,460.89,1064.518,460.972,1064.258,460.972z"/>
			<path fill="#C9C9C9" d="M896.053,455.984H885.81c-0.255,0-0.436-0.08-0.401-0.176l1.303-3.803
				c0.032-0.092,0.261-0.168,0.511-0.168h10.064c0.252,0,0.432,0.076,0.404,0.168l-1.124,3.803
				C896.537,455.906,896.307,455.984,896.053,455.984z"/>
			<path fill="#C9C9C9" d="M909.189,455.984h-10.243c-0.255,0-0.438-0.08-0.411-0.176l1.092-3.803
				c0.027-0.092,0.251-0.168,0.502-0.168h10.064c0.249,0,0.435,0.076,0.413,0.168l-0.914,3.803
				C909.669,455.906,909.444,455.984,909.189,455.984z"/>
			<path fill="#C9C9C9" d="M922.655,455.984h-10.244c-0.254,0-0.443-0.08-0.421-0.176l0.877-3.803
				c0.021-0.092,0.242-0.168,0.492-0.168h10.064c0.25,0,0.44,0.076,0.423,0.168l-0.699,3.803
				C923.13,455.906,922.908,455.984,922.655,455.984z"/>
			<path fill="#C9C9C9" d="M935.784,455.984H925.54c-0.254,0-0.447-0.08-0.43-0.176l0.667-3.803
				c0.017-0.092,0.232-0.168,0.482-0.168h10.064c0.251,0,0.442,0.076,0.432,0.168l-0.49,3.803
				C936.255,455.906,936.039,455.984,935.784,455.984z"/>
			<path fill="#C9C9C9" d="M949.324,455.984h-10.242c-0.255,0-0.452-0.08-0.442-0.176l0.452-3.803
				c0.011-0.092,0.225-0.168,0.475-0.168h10.063c0.25,0,0.449,0.076,0.442,0.168l-0.272,3.803
				C949.793,455.906,949.58,455.984,949.324,455.984z"/>
			<path fill="#C9C9C9" d="M962.338,455.984h-10.242c-0.256,0-0.458-0.08-0.45-0.176l0.243-3.803
				c0.005-0.092,0.214-0.168,0.464-0.168h10.064c0.25,0,0.452,0.076,0.452,0.168l-0.066,3.803
				C962.802,455.906,962.594,455.984,962.338,455.984z"/>
			<path fill="#C9C9C9" d="M975.858,455.984h-10.243c-0.256,0-0.461-0.08-0.461-0.176l0.028-3.803c0-0.092,0.204-0.168,0.454-0.168
				h10.064c0.25,0,0.457,0.076,0.461,0.168l0.149,3.803C976.316,455.906,976.113,455.984,975.858,455.984z"/>
			<path fill="#C9C9C9" d="M988.995,455.984h-10.243c-0.255,0-0.466-0.08-0.47-0.176l-0.185-3.803
				c-0.004-0.092,0.196-0.168,0.448-0.168h10.063c0.251,0,0.461,0.076,0.47,0.168l0.359,3.803
				C989.448,455.906,989.249,455.984,988.995,455.984z"/>
			<path fill="#C9C9C9" d="M1002.487,455.984h-10.244c-0.254,0-0.47-0.08-0.48-0.176l-0.396-3.803
				c-0.009-0.092,0.186-0.168,0.437-0.168h10.064c0.25,0,0.465,0.076,0.479,0.168l0.576,3.803
				C1002.937,455.906,1002.742,455.984,1002.487,455.984z"/>
			<path fill="#C9C9C9" d="M1015.952,455.984h-10.243c-0.254,0-0.475-0.08-0.49-0.176l-0.611-3.803
				c-0.016-0.092,0.175-0.168,0.426-0.168h10.063c0.25,0,0.471,0.076,0.489,0.168l0.791,3.803
				C1016.398,455.906,1016.208,455.984,1015.952,455.984z"/>
			<path fill="#C9C9C9" d="M1029.28,455.984h-10.243c-0.255,0-0.479-0.08-0.5-0.176l-0.826-3.803
				c-0.02-0.092,0.167-0.168,0.418-0.168h10.063c0.25,0,0.475,0.076,0.499,0.168l1.004,3.803
				C1029.722,455.906,1029.536,455.984,1029.28,455.984z"/>
			<path fill="#C9C9C9" d="M1042.089,455.984h-10.242c-0.256,0-0.482-0.08-0.51-0.176l-1.031-3.803
				c-0.024-0.092,0.158-0.168,0.408-0.168h10.064c0.252,0,0.478,0.076,0.508,0.168l1.208,3.803
				C1042.525,455.906,1042.345,455.984,1042.089,455.984z"/>
			<path fill="#C9C9C9" d="M1061.287,455.984h-15.319c-0.708,0-1.354-0.219-1.44-0.484l-1.043-3.193
				c-0.084-0.26,0.409-0.469,1.106-0.469h15.053c0.696,0,1.347,0.209,1.448,0.469l1.284,3.193
				C1062.483,455.767,1061.997,455.984,1061.287,455.984z"/>
			<path fill="#C9C9C9" d="M886.758,460.972h-15.641c-0.722,0-1.22-0.227-1.108-0.504l1.329-3.328
				c0.108-0.27,0.771-0.486,1.482-0.486h15.36c0.712,0,1.218,0.217,1.129,0.486l-1.078,3.328
				C888.142,460.746,887.482,460.972,886.758,460.972z"/>
		</g>
		<g opacity="0.4">
			<rect x="879.271" y="335.791" fill="#999999" width="88.452" height="2.487"/>
			<rect x="969.737" y="335.791" fill="#999999" width="85.939" height="2.487"/>
			<rect x="878.912" y="341.089" fill="#999999" width="27.073" height="16.815"/>
			<rect x="908.979" y="341.089" fill="#999999" width="27.071" height="16.815"/>
			<rect x="939.047" y="341.089" opacity="0.61" fill="#999999" enable-background="new    " width="27.073" height="16.815"/>
			<rect x="1028.606" y="340.914" opacity="0.61" fill="#999999" enable-background="new    " width="27.071" height="16.817"/>
			<rect x="968.563" y="341.089" fill="#999999" width="27.071" height="16.815"/>
			<rect x="998.63" y="341.089" fill="#999999" width="27.073" height="16.815"/>
			<rect x="879.271" y="361.962" fill="#999999" width="36.758" height="1.54"/>
			<rect x="879.271" y="365.633" fill="#999999" width="88.024" height="1.382"/>
			<rect x="879.271" y="368.791" fill="#999999" width="88.024" height="1.382"/>
			<rect x="879.271" y="371.949" fill="#999999" width="88.024" height="1.382"/>
			<rect x="973.109" y="361.331" fill="#999999" width="31.157" height="1.539"/>
			<rect x="973.109" y="365.633" fill="#999999" width="82.567" height="1.382"/>
			<rect x="973.109" y="368.791" fill="#999999" width="82.567" height="1.382"/>
			<rect x="973.109" y="374.093" fill="#999999" width="82.567" height="1.382"/>
			<rect x="973.109" y="379.45" opacity="0.61" fill="#999999" enable-background="new    " width="74.611" height="1.381"/>
			<rect x="973.109" y="383.16" opacity="0.61" fill="#999999" enable-background="new    " width="74.611" height="1.383"/>
			<rect x="973.109" y="386.871" opacity="0.61" fill="#999999" enable-background="new    " width="74.611" height="1.381"/>
			<rect x="973.109" y="390.582" opacity="0.61" fill="#999999" enable-background="new    " width="74.611" height="1.383"/>
			<rect x="973.109" y="394.292" opacity="0.61" fill="#999999" enable-background="new    " width="74.611" height="1.381"/>
			<rect x="879.271" y="376.528" fill="#999999" width="88.024" height="1.382"/>
			<rect x="879.271" y="379.45" fill="#999999" width="88.024" height="1.381"/>
			<rect x="879.481" y="402.462" fill="#999999" width="88.022" height="1.381"/>
			<rect x="879.485" y="407.144" fill="#999999" width="88.023" height="1.381"/>
			<rect x="879.489" y="411.826" fill="#999999" width="88.024" height="1.381"/>
			<rect x="879.497" y="415.125" opacity="0.61" fill="#999999" enable-background="new    " width="176.181" height="1.381"/>
			<rect x="879.497" y="418.332" opacity="0.61" fill="#999999" enable-background="new    " width="176.181" height="1.381"/>
			<rect x="879.497" y="421.734" opacity="0.61" fill="#999999" enable-background="new    " width="176.181" height="1.381"/>
			<rect x="879.485" y="383.16" fill="#999999" width="88.023" height="1.383"/>
			<rect x="879.678" y="386.476" fill="#999999" width="26.977" height="1.381"/>
			<rect x="879.678" y="388.923" fill="#999999" width="26.977" height="1.381"/>
			<rect x="879.678" y="392.871" fill="#999999" width="27.482" height="6.75"/>
			<rect x="911.881" y="392.871" fill="#999999" width="27.48" height="6.75"/>
			<rect x="973.109" y="398.578" fill="#999999" width="27.481" height="10.783"/>
			<rect x="1003.575" y="398.578" opacity="0.61" fill="#999999" enable-background="new    " width="27.479" height="10.783"/>
			<rect x="1033.981" y="398.578" fill="#999999" width="13.739" height="10.783"/>
		</g>
		<path fill="#3F4D50" d="M1056.204,502.826c0,0-3.506-2.238-4.852-2.238h-13.569h-0.012h-13.569c-1.344,0-4.85,2.238-4.85,2.238
			c0,1.363-0.461,2.721,0.882,2.721h17.537h0.012h17.537C1056.664,505.546,1056.204,504.187,1056.204,502.826z"/>
		<path fill="#DBB89C" d="M1048.083,458.207l-4.167-3.621c-3.479-1.639-3.403-4.184-3.403-4.184h-3.578h-0.056h-3.578
			c0,0,0.104,2.523-3.377,4.16l-2.916,3.633l10.093-0.154L1048.083,458.207z"/>
		<path fill="#EED3B6" d="M1054.94,537.296c0,0-0.26,4.857,0.845,7.406l-8.763-0.891c0,0,1.377-2.643-0.007-6.516H1054.94z"/>
		<path fill="#EED3B6" d="M1019.655,536.64c0,0,0.26,4.859-0.844,7.404l8.762-0.889c0,0-1.376-2.643,0.006-6.516H1019.655z"/>
		<path fill="#174652" d="M1020.386,543.511c-0.621-0.051-1.158-0.217-1.521-0.447c-0.261,0.25-0.579,0.543-0.942,0.863
			c-0.016,0.016-0.029,0.029-0.051,0.043c-0.244,0.217-0.514,0.445-0.803,0.688c-0.011,0.01-0.021,0.014-0.028,0.023
			c-0.109,0.092-0.222,0.182-0.338,0.275c-0.024,0.016-0.05,0.039-0.074,0.059c-0.25,0.201-0.514,0.406-0.788,0.607
			c-0.059,0.043-0.117,0.086-0.175,0.129c-0.104,0.076-0.211,0.152-0.318,0.229c-0.078,0.057-0.155,0.113-0.239,0.172
			c-0.225,0.156-0.454,0.32-0.694,0.467c-0.111,0.084-0.233,0.158-0.35,0.232c-0.914,0.588-1.902,1.131-2.939,1.578
			c-0.179,0.08-0.359,0.158-0.548,0.23c-3.626,1.41-3.947,3.463-3.835,4.512c0.045,0.426,0.162,0.688,0.162,0.688
			s1.467,0.768,3.382,0.809c7.019,0.154,17.967-3.68,17.967-3.68s0.785-0.949,0.521-3.139c-0.014-0.104-0.025-0.205-0.041-0.313
			c-0.022-0.148-1.027-4.291-1.417-5.467c-0.903,0.314-2.341,0.77-4.941,1.305c-0.233,0.049-0.445,0.084-0.639,0.111
			c-0.13,0.016-0.257,0.027-0.373,0.041c-0.231,0.02-0.438,0.021-0.618,0.008h-0.019l-0.073-0.002
			c-0.009-0.004-0.014-0.004-0.024-0.004L1020.386,543.511z"/>
		<path fill="#FFFFFF" d="M1010.162,553.318c-1.592-0.033-2.904-0.539-3.427-0.77c-0.021,0.227-0.016,0.445,0.005,0.623
			c0.045,0.426,0.162,0.688,0.162,0.688s1.475,0.768,3.393,0.809c7.016,0.152,17.967-3.68,17.967-3.68s0.351-0.432,0.501-1.369
			C1025.913,550.556,1016.538,553.457,1010.162,553.318z"/>
		<path fill="#FFFFFF" d="M1020.757,545.433c-0.072,0.232-0.393,0.346-0.71,0.24l-3.149-1.018c0.287-0.24,0.557-0.469,0.802-0.686
			l2.614,0.848C1020.632,544.921,1020.833,545.195,1020.757,545.433z"/>
		<path fill="#FFFFFF" d="M1019.284,546.322c-0.072,0.238-0.394,0.35-0.708,0.246l-2.909-0.945c0.274-0.201,0.539-0.406,0.788-0.607
			c0.025-0.02,0.049-0.043,0.075-0.059l2.312,0.754C1019.162,545.814,1019.36,546.087,1019.284,546.322z"/>
		<path fill="#FFFFFF" d="M1017.756,547.287c-0.072,0.238-0.388,0.352-0.708,0.246l-2.807-0.914
			c0.237-0.146,0.468-0.311,0.691-0.467c0.084-0.059,0.162-0.115,0.239-0.172l2.151,0.695
			C1017.64,546.781,1017.838,547.052,1017.756,547.287z"/>
		<path fill="#174652" d="M1054.249,544.169c0.622-0.051,1.16-0.219,1.521-0.449c0.261,0.25,0.579,0.541,0.942,0.863
			c0.015,0.016,0.028,0.029,0.05,0.045c0.245,0.215,0.515,0.445,0.804,0.686c0.009,0.008,0.019,0.014,0.028,0.023
			c0.108,0.09,0.221,0.182,0.338,0.277c0.023,0.014,0.05,0.039,0.072,0.057c0.25,0.201,0.516,0.406,0.789,0.607
			c0.057,0.043,0.117,0.086,0.176,0.129c0.103,0.076,0.21,0.152,0.317,0.229c0.079,0.059,0.156,0.113,0.24,0.172
			c0.224,0.158,0.455,0.32,0.692,0.467c0.113,0.082,0.235,0.156,0.353,0.232c0.914,0.586,1.901,1.129,2.938,1.576
			c0.181,0.082,0.359,0.16,0.55,0.23c3.625,1.41,3.946,3.463,3.834,4.514c-0.046,0.426-0.162,0.688-0.162,0.688
			s-1.467,0.768-3.381,0.807c-7.02,0.154-17.969-3.68-17.969-3.68s-0.785-0.949-0.52-3.137c0.012-0.104,0.024-0.207,0.042-0.314
			c0.021-0.148,1.025-4.289,1.416-5.469c0.903,0.316,2.342,0.771,4.94,1.307c0.233,0.049,0.446,0.084,0.641,0.109
			c0.13,0.018,0.256,0.029,0.373,0.043c0.23,0.02,0.438,0.021,0.617,0.01l0.019-0.002h0.073c0.009-0.008,0.015-0.008,0.023-0.008
			L1054.249,544.169z"/>
		<path fill="#FFFFFF" d="M1064.474,553.974c1.592-0.033,2.902-0.539,3.426-0.768c0.019,0.225,0.015,0.443-0.004,0.621
			c-0.046,0.426-0.163,0.688-0.163,0.688s-1.474,0.768-3.394,0.809c-7.014,0.152-17.967-3.682-17.967-3.682s-0.35-0.428-0.501-1.365
			C1048.723,551.212,1058.097,554.113,1064.474,553.974z"/>
		<path fill="#FFFFFF" d="M1053.879,546.089c0.071,0.234,0.392,0.344,0.709,0.242l3.151-1.02c-0.288-0.238-0.559-0.469-0.803-0.684
			l-2.614,0.846C1054.004,545.578,1053.802,545.849,1053.879,546.089z"/>
		<path fill="#FFFFFF" d="M1055.353,546.976c0.07,0.24,0.391,0.352,0.707,0.248l2.908-0.945c-0.272-0.201-0.539-0.406-0.788-0.607
			c-0.022-0.02-0.049-0.043-0.072-0.057l-2.313,0.752C1055.473,546.47,1055.275,546.744,1055.353,546.976z"/>
		<path fill="#FFFFFF" d="M1056.878,547.943c0.073,0.238,0.388,0.352,0.709,0.246l2.809-0.914c-0.24-0.146-0.471-0.311-0.694-0.467
			c-0.084-0.059-0.162-0.113-0.24-0.172l-2.149,0.695C1056.995,547.437,1056.798,547.708,1056.878,547.943z"/>
		<polygon fill="#FCFDFF" points="1046.265,457.572 1036.515,485.46 1026.774,457.599 1036.528,457.242 		"/>
		<polygon opacity="0.11" fill="#060606" enable-background="new    " points="1037.968,457.296 1043.883,463.431 1046.016,454.74 
			1043.01,454.017 		"/>
		<g>
			<g>
				<g>
					<path fill="#F1715B" d="M1038.454,459.273c-0.051,0.1-0.266,0.174-0.484,0.174h-1.449c-0.219,0-0.435-0.074-0.483-0.174
						l-0.829-1.639c-0.162-0.316,0.059-0.615,0.518-0.615h3.041c0.458,0,0.679,0.299,0.518,0.615L1038.454,459.273z"/>
				</g>
				<g>
					<polygon fill="#F1715B" points="1041.037,495.39 1033.445,495.39 1035.198,470.849 1036.029,459.24 1038.454,459.24 
						1039.312,471.248 					"/>
				</g>
			</g>
		</g>
		<path fill="#5B73A2" d="M1064.992,475.527l-2.208-7.629c-2.522-10.219-15.251-12.883-15.251-12.883l-2.793,5.213l-7.545,24.48
			l-7.548-24.48l-2.791-5.213c0,0-12.729,2.664-15.252,12.883l-2.207,7.629c-0.994,3.434-1.168,7.057-0.522,10.576
			c0.006,0.037,0.013,0.076,0.021,0.113c0.266,1.459,0.892,2.824,1.819,3.969l4.589,5.652l4.726-4l-3.977-5.639
			c0,0,0.021-2.932,0.603-4.563l5.652-7.475l-0.566,17.459l-1.594,7.291c0,0-0.223,1.916,1.185,2.371l15.833,0.191v0.002h0.029
			h0.027v-0.002l15.834-0.191c1.405-0.457,1.185-2.371,1.185-2.371l-1.593-7.291l-0.566-17.459l5.652,7.475
			c0.583,1.633,0.603,4.563,0.603,4.563l-3.978,5.639l4.727,4l4.588-5.652c0.93-1.145,1.556-2.51,1.818-3.969
			c0.008-0.037,0.016-0.076,0.021-0.113C1066.16,482.583,1065.986,478.96,1064.992,475.527z"/>
		<polygon fill="#FCFDFF" points="1037.968,456.9 1043.883,463.035 1046.085,454.654 1042.451,453.621 		"/>
		<path fill="#D8D8D8" d="M1047.739,465.828h-3.385l1.146,1.82l-7.546,17.035l6.123-27.338l0.707-3.063c0,0,2.819,0.684,3.783,1.082
			L1047.739,465.828z"/>
		<polygon opacity="0.11" fill="#060606" enable-background="new    " points="1035.95,457.296 1030.035,463.431 1027.902,454.74 
			1030.908,454.017 		"/>
		<polygon fill="#FCFDFF" points="1035.95,456.9 1030.035,463.035 1027.831,454.654 1031.468,453.621 		"/>
		<path fill="#D8D8D8" d="M1026.18,465.828h3.387l-1.148,1.82l7.546,17.035l-6.125-27.338l-0.706-3.063c0,0-2.817,0.684-3.782,1.082
			L1026.18,465.828z"/>
		<path fill="#3F4D50" d="M1028.042,535.906l-9.684-1.08c0,0-0.78-12.75-0.589-14.057c0.721-4.902,0.534-12.992,1.636-16.385
			s5.206-4.65,5.206-4.65s5.137-3.537,8.099-1.475c0.821,0.574,3.908,2.057-1.583,26.01
			C1029.687,530.55,1028.042,535.906,1028.042,535.906z"/>
		<path fill="#3F4D50" d="M1046.112,535.781l9.729-0.721c0,0,1.417-12.707,1.29-14.02c-0.475-4.926,0.116-13.002-0.815-16.43
			c-0.933-3.432-4.969-4.842-4.969-4.842s-4.958-3.725-8.018-1.771c-0.85,0.541-4.008,1.908,0.283,26.043
			C1044.739,530.371,1046.112,535.781,1046.112,535.781z"/>
		<path fill="#354042" d="M1028.425,538.81h-10.24c-0.425,0-0.771-0.354-0.771-0.781v-2.922c0-0.432,0.346-0.783,0.771-0.783h10.24
			c0.424,0,0.771,0.352,0.771,0.783v2.922C1029.195,538.457,1028.849,538.81,1028.425,538.81z"/>
		<path fill="#354042" d="M1046.129,538.81h10.239c0.423,0,0.771-0.354,0.771-0.781v-2.922c0-0.432-0.348-0.783-0.771-0.783h-10.239
			c-0.424,0-0.771,0.352-0.771,0.783v2.922C1045.358,538.457,1045.705,538.81,1046.129,538.81z"/>
		<path fill="#DBB89C" d="M1025.964,435.019c0.055,1.605-0.27,3.006-1.086,3.033c-0.817,0.029-1.41-1.252-1.464-2.857
			c-0.055-1.605,0.572-2.932,1.39-2.959C1025.62,432.207,1025.909,433.414,1025.964,435.019z"/>
		<path fill="#EDD2B6" d="M1047.243,434.697c-0.054,1.605,0.269,3.004,1.086,3.033c0.816,0.029,1.41-1.254,1.465-2.857
			c0.054-1.605-0.573-2.932-1.392-2.959C1047.586,431.884,1047.298,433.091,1047.243,434.697z"/>
		<ellipse fill="#EED3B6" cx="1036.782" cy="435.368" rx="11.107" ry="16.011"/>
		<path fill="#303030" d="M1026.256,440.49c0,0-2.541-9.604,2.901-14.414c0,0,4.056,3.314,8.99,2.15c0,0,1.632-0.354,3.599-1.605
			c0,0,3.853-1.658,5.12,2.172c1.348,4.082,0.662,8.232,0.745,10.715c0,0,2.186-6.621,2.267-7.941c0,0,0.678-4.801-0.55-7.627
			c0,0-0.901-3.029-4.341-4.582c0,0-1.177-3.934-9.299-3.271c0,0-5.997-0.854-7.416,3.465c0,0-5.069,1.129-4.595,10.074
			C1023.677,429.625,1023.225,436.376,1026.256,440.49z"/>
		<path fill="#F4F4F4" d="M1057.803,500.597h-42.127c-1.149,0-2.082-0.945-2.082-2.113V473.15c0-1.166,0.933-2.113,2.082-2.113
			h42.127c1.15,0,2.083,0.947,2.083,2.113v25.334C1059.886,499.65,1058.953,500.597,1057.803,500.597z"/>
		<g>
			<g>
				<path fill="#DDDDDD" d="M1013.965,499.669c0.373,0.574,1.013,0.963,1.741,0.963h42.125c1.152,0,2.063-0.965,2.063-2.133v-25.332
					c0-0.518-0.173-0.988-0.478-1.357L1013.965,499.669z"/>
			</g>
		</g>
		<path fill="#C1C1C1" d="M1059.404,500.509h-45.283c-0.414,0-0.751,0.34-0.751,0.762v1.145c0,0.42,0.337,0.762,0.751,0.762h45.283
			c0.415,0,0.752-0.342,0.752-0.762v-1.145C1060.156,500.849,1059.818,500.509,1059.404,500.509z"/>
		<path fill="#EFD4B7" d="M872.187,239.308c0.194-0.356,0.443-0.873,0.75-1.617c0.439-1.069,0.512-2.257,0.206-3.372
			c-0.357-1.303-0.901-3.083-1.512-4.327c0,0-0.611-3.398,0.548-6.877c0,0,7.448-9.412,16.313-2.096c0,0,8.617,6.872,1.933,17.605
			l-0.741,0.761l4.29-0.391l1.353,3.141l-9.314,9.116l-2.534-5.887c0,0-4.986,2.58-5.982,1.138c0,0-0.562-0.622-0.111-1.585
			c0,0-0.012-0.165-0.042-0.432c-0.207-0.22-0.399-0.458-0.57-0.712c-0.639-0.945-1.61-2.354-1.867-2.554
			c-0.257-0.199-0.673-0.376-1.533-0.638C872.755,240.396,871.875,239.876,872.187,239.308z"/>
		<path fill="#303030" d="M872.206,229.629c-0.224,0.464-0.856,0.516-1.148,0.091c-0.486-0.708-1.588-2.785-0.348-7.693
			c0.325-1.286,1.848-2.862,3.413-3.505c1.481-0.609,3.826-1.316,6.146-0.961c0.444,0.068,0.876,0.197,1.295,0.362
			c0.482,0.192,1.537,0.495,3.159,0.372c1.572-0.117,3.15,0.126,4.598,0.761c2.184,0.956,4.331,3.078,5.315,5.851
			c0,0,1.686,5.381,0.932,7.317c-0.019,0.049-0.032,0.1-0.035,0.153c-0.046,0.783-2.565,5.008-0.232,9.508
			c0.077,0.147-0.06,0.327-0.195,0.422c-0.572,0.407-2.209,1.308-4.092,0.036c0,0-1.056-0.63-1.945-2.711
			c-0.493-1.151-0.68-2.41-0.598-3.663c0.06-0.888-0.062-2.164-0.946-3.255c-0.011-0.012-0.021-0.024-0.03-0.035
			c-0.211-0.217-2.288-2.289-3.208-0.453c-0.01,0.021-0.022,0.041-0.036,0.06c-0.127,0.178-0.833,1.123-1.823,1.604
			c-0.701,0.341-1.545,0.099-1.982-0.553c-0.392-0.586-1.953-2.623-2.193-3.426c-0.055-0.185-0.026-0.545-0.051-0.97
			c-0.143-2.458-3.242-3.42-4.711-1.46C873.077,228.027,872.644,228.729,872.206,229.629z"/>
		<path fill="#CCA992" d="M846.238,333.381c0,0-0.367,5.164-1.871,7.703l9.371,0.252c0,0-1.104-2.977,0.868-6.878L846.238,333.381z"
			/>
		<path fill="#AF6861" d="M846.115,337.873c-0.649-0.138-1.195-0.387-1.546-0.682c-0.31,0.229-0.686,0.494-1.11,0.784
			c-0.017,0.014-0.034,0.026-0.058,0.04c-0.287,0.194-0.603,0.4-0.938,0.614c-0.012,0.009-0.021,0.012-0.034,0.022
			c-0.127,0.081-0.257,0.161-0.394,0.246c-0.028,0.013-0.058,0.033-0.085,0.051c-0.291,0.178-0.596,0.358-0.912,0.534
			c-0.067,0.036-0.135,0.074-0.203,0.111c-0.118,0.067-0.242,0.134-0.366,0.199c-0.089,0.05-0.18,0.101-0.275,0.149
			c-0.259,0.136-0.521,0.275-0.792,0.398c-0.131,0.072-0.27,0.134-0.402,0.199c-1.042,0.494-2.159,0.935-3.313,1.264
			c-0.2,0.062-0.4,0.12-0.607,0.168c-4.015,0.997-4.625,3.119-4.647,4.243c-0.007,0.457,0.08,0.749,0.08,0.749
			s1.447,1.008,3.464,1.313c7.392,1.117,19.459-1.439,19.459-1.439s0.953-0.896,0.963-3.244c0-0.11,0-0.221-0.003-0.337
			c-0.003-0.159-0.517-4.669-0.773-5.965c-0.996,0.21-2.573,0.495-5.389,0.706c-0.253,0.02-0.482,0.028-0.69,0.03
			c-0.14,0-0.275-0.004-0.397-0.007c-0.247-0.01-0.467-0.038-0.655-0.075l-0.021-0.003l-0.077-0.012
			c-0.008-0.007-0.013-0.007-0.023-0.009L846.115,337.873z"/>
		<path fill="#FFFDFE" d="M834.023,346.836c-1.677-0.252-2.994-0.964-3.516-1.277c-0.051,0.235-0.075,0.468-0.078,0.657
			c-0.007,0.457,0.08,0.749,0.08,0.749s1.456,1.01,3.476,1.314c7.388,1.113,19.458-1.443,19.458-1.443s0.425-0.405,0.711-1.375
			C851.019,346.063,840.738,347.85,834.023,346.836z"/>
		<path fill="#FFFDFE" d="M846.251,339.951c-0.106,0.236-0.459,0.311-0.78,0.158l-3.192-1.503c0.337-0.215,0.651-0.421,0.938-0.614
			l2.648,1.249C846.188,339.394,846.365,339.71,846.251,339.951z"/>
		<path fill="#FFFDFE" d="M844.58,340.688c-0.107,0.243-0.46,0.316-0.782,0.164l-2.945-1.394c0.316-0.174,0.623-0.355,0.913-0.534
			c0.028-0.017,0.058-0.038,0.085-0.05l2.342,1.11C844.518,340.137,844.691,340.453,844.58,340.688z"/>
		<path fill="#FFFDFE" d="M842.839,341.5c-0.107,0.242-0.457,0.318-0.782,0.164l-2.842-1.347c0.271-0.123,0.535-0.264,0.793-0.398
			c0.095-0.05,0.186-0.099,0.274-0.149l2.178,1.026C842.783,340.95,842.956,341.266,842.839,341.5z"/>
		<path fill="#12373F" d="M849.363,336.649l-4.188-0.383c0,0,1.881-42.816,11.102-42.006c6.205,0.547,0.47,19.96,0.47,19.96
			L849.363,336.649z"/>
		<path fill="#F4F4F4" d="M852.862,288.436h31.764c0.428,0,0.774,0.352,0.774,0.786v2.417c0,0.434-0.347,0.786-0.774,0.786h-31.764
			c-0.43,0-0.775-0.352-0.775-0.786v-2.417C852.087,288.788,852.433,288.436,852.862,288.436z"/>
		<path fill="#F4F4F4" d="M837.289,262.516l17.277,27.498c0.175,0.278,0.094,0.648-0.181,0.825l-0.507,0.328
			c-0.275,0.177-0.639,0.096-0.813-0.183l-17.278-27.497c-0.174-0.278-0.094-0.648,0.18-0.826l0.507-0.328
			C836.749,262.156,837.112,262.237,837.289,262.516z"/>
		<path fill="#DBB89C" d="M851.318,334.813c0,0-0.367,5.164-1.87,7.704l9.369,0.252c0,0-1.104-2.978,0.867-6.878L851.318,334.813z"
			/>
		<path fill="#9D574C" d="M851.195,339.305c-0.649-0.138-1.196-0.387-1.547-0.681c-0.31,0.228-0.686,0.495-1.109,0.784
			c-0.017,0.013-0.034,0.025-0.057,0.04c-0.288,0.192-0.604,0.399-0.939,0.614c-0.011,0.009-0.023,0.012-0.035,0.021
			c-0.125,0.082-0.257,0.162-0.393,0.247c-0.027,0.012-0.059,0.033-0.085,0.052c-0.29,0.177-0.597,0.359-0.913,0.533
			c-0.067,0.038-0.134,0.075-0.202,0.113c-0.119,0.065-0.242,0.133-0.366,0.198c-0.09,0.051-0.18,0.101-0.275,0.149
			c-0.258,0.136-0.521,0.276-0.794,0.399c-0.129,0.069-0.268,0.134-0.401,0.197c-1.042,0.495-2.158,0.936-3.312,1.266
			c-0.199,0.06-0.4,0.12-0.609,0.168c-4.015,0.997-4.625,3.119-4.646,4.243c-0.01,0.458,0.079,0.749,0.079,0.749
			s1.447,1.008,3.464,1.312c7.391,1.118,19.459-1.438,19.459-1.438s0.953-0.897,0.963-3.244c0-0.11,0-0.222-0.003-0.337
			c-0.003-0.159-0.517-4.668-0.772-5.966c-0.995,0.211-2.575,0.495-5.391,0.706c-0.253,0.02-0.481,0.028-0.689,0.029
			c-0.14,0-0.274-0.003-0.397-0.007c-0.249-0.008-0.467-0.036-0.653-0.074l-0.021-0.003l-0.077-0.011
			c-0.008-0.007-0.014-0.007-0.024-0.009L851.195,339.305z"/>
		<path fill="#FFFDFE" d="M839.104,348.268c-1.677-0.252-2.994-0.964-3.517-1.277c-0.05,0.234-0.075,0.467-0.077,0.657
			c-0.01,0.458,0.079,0.749,0.079,0.749s1.456,1.01,3.477,1.313c7.388,1.114,19.458-1.443,19.458-1.443s0.426-0.404,0.709-1.375
			C856.099,347.495,845.818,349.281,839.104,348.268z"/>
		<path fill="#FFFDFE" d="M851.333,341.383c-0.106,0.237-0.459,0.313-0.78,0.159l-3.193-1.503c0.336-0.214,0.65-0.42,0.938-0.614
			l2.647,1.249C851.267,340.825,851.445,341.142,851.333,341.383z"/>
		<path fill="#FFFDFE" d="M849.66,342.121c-0.106,0.242-0.461,0.316-0.78,0.163l-2.947-1.394c0.316-0.175,0.622-0.354,0.912-0.533
			c0.029-0.019,0.059-0.039,0.086-0.052l2.342,1.11C849.599,341.569,849.771,341.885,849.66,342.121z"/>
		<path fill="#FFFDFE" d="M847.919,342.932c-0.107,0.243-0.456,0.318-0.78,0.164l-2.844-1.347c0.273-0.123,0.536-0.263,0.794-0.398
			c0.096-0.049,0.187-0.098,0.275-0.148l2.178,1.027C847.863,342.382,848.036,342.697,847.919,342.932z"/>
		<path fill="#174652" d="M852.387,302.71c0.787-5.298,1.896-9.87,6.69-10.096c6.835-0.322,11-0.273,18.626-0.143
			c0.754,0.013,6.126,0.43,8.142-0.443c11.133,5.426,17.635,7.169,21.042,7.697c-0.112,0.726-0.243,1.438-0.396,2.125
			c-0.648,2.895-5.063,6.167-8.049,6.347c-5.083,0.305-11.533,0-16.577,0c-5.922,0.025-13.292,0-16.822-0.144
			c0,1.163-0.001,2.039,0.001,2.917c0.011,8.078-2.682,26.042-2.827,26.879c-6.456,0.358-8.079-0.482-13.417-0.626
			c-0.86-0.022,0.753-12.813,0.846-13.461C850.68,316.601,851.009,310.109,852.387,302.71z"/>
		<path fill="#547DB5" d="M884.724,250.352c0.517-0.636,0.517-0.636,3.954-4.027c2.595-2.29,4.205-3.776,6.148-5.432
			c1.811,3.317,1.31,2.569,2.938,5.873c3.074,6.935,3.646,7.948,5.222,13.461c2.677,9.366,4.815,18.627,4.633,28.378
			c-0.039,2.095-0.09,4.368-0.246,6.635c-0.104,1.518-0.258,3.029-0.486,4.485c-3.408-0.527-9.909-2.271-21.042-7.697
			c0.186-0.08,0.345-0.17,0.466-0.273l-2.328-23.7c-0.696,0.893-1.608,1.954-2.57,3.06l-3.647-5.199
			C881.11,261.412,880.732,255.268,884.724,250.352z"/>
		<g>
			<polygon fill="#EFD4B7" points="865.074,280.747 862.565,283.355 859.008,279.892 861.651,277.063 			"/>
			<path fill="#EFD4B7" d="M859.555,279.336l3.032,3.917c0,0-0.547,3.67-1.349,4.529c0,0-1.321,2.717-3.583,2.956
				c0,0-2.075,0.41-1.822-0.714c0,0-2.683-0.2-1.75-2.021c0,0-2.893-0.234-1.412-2.581c0,0-2.031-0.62-0.196-2.233
				c0,0,0.438-0.359,1.07-1.768c0,0,0.793-1.587,2.78-1.388C856.326,280.033,857.688,280.535,859.555,279.336z"/>
		</g>
		<path fill="#547DB5" d="M859.163,278.791l16.176-12.062c0,0,3.834-3.272,4.914-5.134c2.03-3.499,1.572-2.379,1.612-3.303
			l5.326,2.944c-0.291,2.419-0.628,5.018-0.718,6.911c-0.166,3.521-3.531,5.648-3.531,5.648l-18.635,12.671L859.163,278.791z"/>
		<path fill="#FFFFFF" d="M861.358,277.206l5.017,7.098c0.346,0.489,0.235,1.177-0.248,1.529l-1.58,1.15
			c-0.482,0.352-1.161,0.239-1.507-0.251l-5.02-7.097c-0.345-0.49-0.233-1.179,0.248-1.53l1.581-1.15
			C860.332,276.603,861.011,276.716,861.358,277.206z"/>
		<rect x="869.044" y="312.797" fill="#164B91" width="197.581" height="22.994"/>
		<path fill="#C59A85" d="M1081.819,310.096c0,0-0.009-0.66-0.563-1.586l0.033-0.07c0,0-0.054-0.042-0.154-0.119
			c-0.616-0.938-1.838-2.228-3.933-3.592c-1.979-1.526-4.108-2.626-4.608-2.986c-3.099-2.241-10.229-6.379-10.229-6.379h-26.01
			c0,0-6.152,4.139-9.252,6.379c-0.499,0.36-2.632,1.46-4.606,2.986c-2.095,1.364-3.316,2.654-3.936,3.592
			c-0.098,0.077-0.151,0.119-0.151,0.119l0.033,0.07c-0.556,0.926-0.563,1.586-0.563,1.586c-0.975,2.616,3.266,10.756,3.266,10.756
			l11.188,25.962c6.79,1.046,7.273-1.558,7.273-1.558c-0.171-1.481-1.793-10.893-1.793-10.893
			c-2.312-9.725-6.096-14.899-7.938-17.553c-0.431-0.618-0.168-1.48,0.529-1.748c1.325-0.507,2.715-1.052,4.075-1.61
			c4.75-1.948,8.327-3.753,11.019-5.393l8.749,0.028c-0.003,0.037,0.035,0.06,0.11,0.066c2.673,1.613,6.204,3.386,10.861,5.297
			c1.428,0.585,2.885,1.156,4.268,1.682c0.602,0.229,0.835,0.967,0.479,1.509c-1.681,2.571-5.151,7.635-7.51,17.555
			c0,0-1.884,9.451-2.057,10.933c0,0,0.178,2.729,6.969,1.683l11.186-25.962C1078.554,320.853,1082.793,312.712,1081.819,310.096z"
			/>
		<path fill="#DDB99D" d="M1061.632,258.499l-5.249-1.966c-3.929-1.312-3.083-3.606-3.083-3.606h-4.04h-0.063h-4.04
			c0,0,0.845,2.294-3.083,3.606l-5.249,1.968l12.402,1.514L1061.632,258.499z"/>
		<path fill="#FFFDFE" d="M1042.093,256.062c0.008,0,0.018-0.001,0.025-0.001l2.296,12.025l0.016,0.083l1.857,9.728l0.652,15.733
			h4.029l0.928-15.148l1.962-10.275l2.296-12.041c-0.483-0.263-1.145-0.537-1.769-0.636c0,0,0.445,3.25-4.589,3.381
			c-5.652,0.146-5.727-3.381-5.727-3.381c-0.696,0.073-1.355,0.342-2.005,0.532C1042.074,256.062,1042.082,256.061,1042.093,256.062
			L1042.093,256.062L1042.093,256.062z"/>
		<path fill="#E06B26" d="M1073.024,279.606l-3.289-12.66c-2.109-8.548-13.683-10.874-13.683-10.874l-6.968,36.33l-6.741-36.426
			c0,0-11.798,2.423-13.909,10.971l-3.287,12.66c0,0-0.68,2.586-0.137,6.135c0.23,1.492,0.82,2.904,1.715,4.111l2.674,3.612
			l5.66-1.254l-3.433-5.942c0,0,0.015-2.451,0.504-3.816l2.925-7.172l1.142,11.464l0.5,8.66h12.366h0.041h12.366l0.5-8.66
			l1.141-11.464l2.926,7.172c0.488,1.365,0.503,3.816,0.503,3.816l-3.432,5.942l5.66,1.254l2.675-3.612
			c0.894-1.207,1.485-2.619,1.713-4.111C1073.703,282.192,1073.024,279.606,1073.024,279.606z"/>
		<ellipse fill="#EFD4B7" cx="1049.507" cy="240.087" rx="10.264" ry="14.868"/>
		<path fill="#303030" d="M1038.236,237.213c-0.178-2.105-0.35-5.313,0.759-8.518c0.702-2.032,1.648-4.479,3.607-5.31
			c2.427-1.031,0.738,0.646,5.8-0.368c2.163-0.434,4.175-1.534,7.676-0.524c0,0,3.442,1.067,4.46,8.998
			c0.002,0.011,0.003,0.022,0.006,0.034c0.04,0.217,0.452,2.576,0.291,5.512c-0.027,0.512-0.519,2.983-0.926,3.286
			c-0.629,0.47-0.636-0.092-0.694-0.119c-0.21-0.096,0.274-3.006,0.242-3.236c-0.18-1.329-1.108-5.529-3.245-6.578
			c-0.013-0.006-1.341-0.458-3.54,0.628c-4.248,2.095-6.239,0.256-6.791,0.096c-0.036-0.011-0.682-0.395-0.715-0.411
			c-0.417-0.204-2.853-1.225-4.066,1.054c-0.014,0.024-0.027,0.049-0.042,0.071c-0.16,0.23-1.244,1.808-1.639,5.401
			c-0.025,0.214,0.468,2.803,0.413,3.063c-0.001,0.004-0.624,0.314-0.724-0.092C1039.083,240.095,1038.33,238.329,1038.236,237.213z
			"/>
		<path fill="#303030" d="M1059.184,240.095c0.032,0.411-0.438,2.551-0.964,3.744c-0.13,0.294-0.249,0.567-0.363,0.82
			c-0.714,1.596-2.618,2.59-4.133,1.748c-0.753-0.418-1.193-0.891-3.208-1.159l-1.011,0.013l-1.011-0.013
			c-2.016,0.268-2.453,0.74-3.208,1.159c-1.515,0.843-3.418-0.151-4.133-1.748c-0.113-0.252-0.233-0.525-0.363-0.82
			c-0.526-1.193-0.997-3.333-0.964-3.744h-0.742c0.091,1.385,0.259,2.794,0.548,4.056c0,0,1.445,10.254,9.457,10.806
			c0,0,0.142,0.017,0.39,0.019l0,0c0.007,0,0.013,0,0.02,0l0,0c0.002,0,0.005,0,0.007,0s0.006,0,0.008,0l0,0c0.006,0,0.012,0,0.02,0
			l0,0c0.248-0.002,0.39-0.019,0.39-0.019c8.011-0.552,9.456-10.806,9.456-10.806c0.29-1.262,0.458-2.671,0.549-4.056H1059.184z"/>
		<path fill="#EED3B6" d="M1068.212,345.537c0,0-0.237,4.462,0.775,6.802l-8.048-0.816c0,0,1.264-2.429-0.007-5.984
			L1068.212,345.537L1068.212,345.537z"/>
		<path fill="#EED3B6" d="M1031.68,344.813c0,0,0.237,4.463-0.775,6.803l8.049-0.817c0,0-1.265-2.428,0.006-5.983h-7.279V344.813z"
			/>
		<path fill="#223D44" d="M1032.351,351.125c-0.57-0.046-1.064-0.199-1.397-0.412c-0.24,0.229-0.534,0.498-0.867,0.793
			c-0.013,0.013-0.026,0.026-0.044,0.04c-0.225,0.197-0.473,0.409-0.739,0.629c-0.009,0.008-0.018,0.014-0.025,0.021
			c-0.1,0.084-0.202,0.167-0.311,0.255c-0.021,0.014-0.046,0.035-0.067,0.053c-0.229,0.185-0.473,0.374-0.725,0.559
			c-0.054,0.038-0.106,0.079-0.162,0.118c-0.094,0.07-0.192,0.142-0.292,0.21c-0.071,0.054-0.144,0.105-0.221,0.158
			c-0.207,0.145-0.417,0.293-0.637,0.428c-0.104,0.076-0.216,0.146-0.322,0.216c-0.839,0.538-1.748,1.039-2.7,1.447
			c-0.165,0.073-0.331,0.146-0.504,0.211c-3.33,1.296-3.625,3.181-3.522,4.146c0.042,0.393,0.147,0.632,0.147,0.632
			s1.349,0.705,3.108,0.742c6.446,0.142,16.505-3.379,16.505-3.379s0.72-0.874,0.476-2.883c-0.011-0.095-0.022-0.189-0.037-0.288
			c-0.021-0.137-0.943-3.94-1.302-5.022c-0.829,0.29-2.15,0.708-4.539,1.198c-0.213,0.045-0.409,0.079-0.587,0.102
			c-0.12,0.017-0.235,0.026-0.342,0.038c-0.213,0.021-0.404,0.021-0.568,0.008h-0.018l-0.066-0.001
			c-0.008-0.005-0.013-0.005-0.021-0.005L1032.351,351.125z"/>
		<path fill="#34495C" d="M1022.959,360.133c-1.463-0.031-2.668-0.495-3.148-0.706c-0.018,0.207-0.015,0.408,0.003,0.571
			c0.043,0.393,0.148,0.632,0.148,0.632s1.354,0.705,3.117,0.743c6.443,0.14,16.505-3.381,16.505-3.381s0.322-0.395,0.46-1.256
			C1037.427,357.596,1028.813,360.26,1022.959,360.133z"/>
		<path fill="#223D44" d="M1067.577,351.85c0.571-0.047,1.063-0.199,1.397-0.412c0.238,0.229,0.532,0.497,0.865,0.793
			c0.013,0.014,0.027,0.025,0.046,0.039c0.226,0.198,0.471,0.409,0.738,0.63c0.009,0.008,0.018,0.013,0.026,0.021
			c0.1,0.084,0.204,0.167,0.312,0.255c0.022,0.015,0.044,0.035,0.067,0.054c0.229,0.185,0.472,0.373,0.724,0.558
			c0.053,0.04,0.107,0.08,0.161,0.118c0.095,0.07,0.194,0.141,0.293,0.211c0.071,0.053,0.143,0.104,0.219,0.157
			c0.206,0.146,0.418,0.294,0.638,0.429c0.104,0.075,0.216,0.145,0.322,0.215c0.839,0.538,1.747,1.038,2.7,1.448
			c0.164,0.073,0.33,0.146,0.503,0.211c3.33,1.297,3.625,3.181,3.522,4.145c-0.041,0.395-0.148,0.633-0.148,0.633
			s-1.348,0.704-3.106,0.741c-6.447,0.143-16.506-3.379-16.506-3.379s-0.72-0.873-0.478-2.883c0.012-0.095,0.024-0.189,0.04-0.29
			c0.02-0.135,0.941-3.94,1.3-5.021c0.83,0.29,2.151,0.707,4.54,1.198c0.214,0.044,0.408,0.078,0.587,0.103
			c0.12,0.016,0.235,0.026,0.341,0.039c0.213,0.019,0.404,0.02,0.568,0.008h0.02l0.064-0.001c0.009-0.004,0.014-0.005,0.021-0.005
			L1067.577,351.85z"/>
		<path fill="#34495C" d="M1076.97,360.857c1.462-0.032,2.666-0.496,3.146-0.707c0.017,0.207,0.014,0.407-0.005,0.57
			c-0.041,0.394-0.148,0.633-0.148,0.633s-1.354,0.704-3.116,0.742c-6.444,0.14-16.506-3.382-16.506-3.382s-0.319-0.394-0.459-1.256
			C1062.501,358.32,1071.112,360.984,1076.97,360.857z"/>
		<path fill="#AB6865" d="M1039.734,346.806h-9.407c-0.389,0-0.708-0.323-0.708-0.719v-2.683c0-0.396,0.319-0.72,0.708-0.72h9.407
			c0.389,0,0.708,0.323,0.708,0.72v2.683C1040.442,346.482,1040.123,346.806,1039.734,346.806z"/>
		<path fill="#AB6865" d="M1060.12,346.927h9.405c0.389,0,0.708-0.324,0.708-0.719v-2.684c0-0.396-0.319-0.72-0.708-0.72h-9.405
			c-0.391,0-0.708,0.324-0.708,0.72v2.684C1059.411,346.603,1059.729,346.927,1060.12,346.927z"/>
		<path fill="#F4F4F4" d="M1069.928,297.07h-40.657c-1.111,0-2.013-0.914-2.013-2.042v-24.45c0-1.127,0.901-2.042,2.013-2.042
			h40.657c1.111,0,2.013,0.914,2.013,2.042v24.45C1071.938,296.156,1071.039,297.07,1069.928,297.07z"/>
		<g>
			<g>
				<path fill="#DDDDDD" d="M1027.619,296.174c0.358,0.555,0.976,0.929,1.68,0.929h40.659c1.11,0,1.99-0.931,1.99-2.058v-24.451
					c0-0.5-0.166-0.953-0.461-1.308L1027.619,296.174z"/>
			</g>
		</g>
		<path fill="#C1C1C1" d="M1071.474,296.983h-43.706c-0.398,0-0.725,0.33-0.725,0.735v1.104c0,0.406,0.326,0.735,0.725,0.735h43.706
			c0.4,0,0.727-0.329,0.727-0.735v-1.104C1072.199,297.313,1071.874,296.983,1071.474,296.983z"/>
		<path fill="#324F61" d="M899.351,441.787l4.742-0.193l4.629-0.209l-1.929,0.408c0,0-2.624,0.43-5.112,0.627l-4.729,0.32
			c0,0-2.66,0.223-3.114,1.711c0,0-0.381,0.971-0.171,1.973c0.173,0.859,0.701,1.42,0.701,1.42c0.83,1.236,3.574,0.523,3.574,0.523
			l4.546-1.361c2.4-0.688,5.009-1.207,5.009-1.207l1.951-0.293l-4.417,1.43l-4.515,1.482c-1.879,0.801-6.309,1.455-6.309,1.455
			c-3.719,0.58-4.633-1.16-4.633-1.16c-0.189-0.316-0.452-0.871-0.539-1.463c-0.212-1.209-0.245-1.508-0.079-1.99
			c0,0,0.625-1.922,3.977-2.627C892.936,442.634,897.315,441.693,899.351,441.787z"/>
		<path fill="#ECC19C" d="M896.952,442.74l4.729-0.32c2.488-0.197,5.117-0.627,5.117-0.627l2.802-0.594l0.794,4.164l-2.891,0.438
			c0,0-2.611,0.518-5.012,1.205l-4.548,1.361c0,0-2.744,0.715-3.574-0.523c0,0-0.528-0.561-0.702-1.418
			c-0.21-1.002,0.171-1.973,0.171-1.973C894.292,442.962,896.952,442.74,896.952,442.74z"/>
		<path fill="#324F61" d="M948.347,441.685l-4.742-0.193l-4.63-0.209l1.931,0.41c0,0,2.623,0.43,5.11,0.625l4.73,0.32
			c0,0,2.66,0.225,3.113,1.711c0,0,0.382,0.973,0.171,1.975c-0.173,0.857-0.701,1.418-0.701,1.418
			c-0.828,1.238-3.573,0.523-3.573,0.523l-4.546-1.359c-2.401-0.689-5.009-1.207-5.009-1.207l-1.951-0.293l4.415,1.43l4.516,1.482
			c1.878,0.803,6.31,1.457,6.31,1.457c3.718,0.578,4.633-1.16,4.633-1.16c0.188-0.316,0.451-0.871,0.539-1.465
			c0.212-1.207,0.244-1.506,0.077-1.988c0,0-0.625-1.922-3.977-2.627C954.763,442.533,950.383,441.591,948.347,441.685z"/>
		<path fill="#ECC19C" d="M950.746,442.638l-4.73-0.32c-2.487-0.197-5.117-0.627-5.117-0.627l-2.802-0.594l-0.792,4.164l2.89,0.438
			c0,0,2.61,0.518,5.012,1.207l4.548,1.359c0,0,2.745,0.713,3.573-0.523c0,0,0.527-0.561,0.702-1.418
			c0.21-1.002-0.172-1.975-0.172-1.975C953.406,442.863,950.746,442.638,950.746,442.638z"/>
		<rect x="911.873" y="371.71" fill="#303030" width="22.111" height="29.889"/>
		<ellipse fill="#EED3B7" cx="923.475" cy="378.608" rx="9.708" ry="12.775"/>
		<path fill="#303030" d="M939.134,402.751c0,0-2.431-6.76-2.647-11.113c0,0,0.348-14.606,0.405-18.198c0,0-0.034-5.463-2.883-9.4
			c0,0-1.709-2.763-4.308-2.636c0,0-1.674-2.985-4.771-3.334c0,0-0.537-0.07-1.518-0.07s-1.519,0.07-1.519,0.07
			c-3.097,0.349-5.154,1.884-5.154,1.884c-2.495,1.593-4.101,3.938-4.101,3.938c-2.849,3.938-2.708,9.549-2.708,9.549
			c0.06,3.592,0.407,18.198,0.407,18.198c-0.218,4.354-2.649,11.113-2.649,11.113l-1.992,13.75
			c2.74,2.699,10.004,0.221,10.004,0.221c2.839-0.887,3.575-1.822,3.575-1.822c-1.495-5.367-3.289-19.406-3.289-19.406
			c-0.48-6.107,0.039-8.283,0.039-8.283c-1.915-2.131-2.308-5.882-2.308-5.882c-0.498-6.937,1.562-9.618,1.562-9.618
			c2.911,1.035,5.637,1.229,8.134,1.145c2.497,0.084,5.311-0.14,8.223-1.176c0,0,1.971,2.713,1.473,9.649
			c0,0-0.393,3.751-2.308,5.882c0,0,0.521,2.176,0.039,8.283c0,0-1.793,14.039-3.289,19.406c0,0,0.79,0.881,3.576,1.822
			c0,0,7.263,2.479,10.004-0.221L939.134,402.751z"/>
		<polygon fill="#DCB99D" points="920.936,398.05 915.237,398.302 914.241,401.921 922.541,407.916 930.312,404.863 
			932.436,398.302 		"/>
		<path fill="#EED3B7" d="M905.749,404.861c0.142-0.807,1.628-1.084,3.321-0.619c1.689,0.463,2.945,1.494,2.804,2.301
			c-0.01,0.061-0.031,0.117-0.056,0.17c0,0-4.333,4.354-0.271,14.125c3.978,9.564,6.215,7.291,6.215,7.291l-6.029,1.02
			c0,0-5.069-5.424-6.04-8.41c-1.83-5.629,0.055-15.635,0.055-15.635C905.738,405.023,905.734,404.941,905.749,404.861z"/>
		<path fill="#EED3B7" d="M941.823,404.861c-0.144-0.807-1.63-1.084-3.322-0.619c-1.69,0.463-2.946,1.494-2.804,2.301
			c0.011,0.061,0.03,0.117,0.056,0.17c0,0,4.333,4.354,0.271,14.125c-3.979,9.564-6.217,7.291-6.217,7.291l6.03,1.02
			c0,0,5.07-5.424,6.041-8.41c1.83-5.629-0.056-15.635-0.056-15.635C941.834,405.023,941.837,404.941,941.823,404.861z"/>
		<path fill="#965B7B" d="M935.867,428.197c0-2.48,0.335-4.961,0.712-6.965c1.495-1.143,2.495-3.213,2.495-5.578
			c0-1.576-0.446-3.023-1.184-4.15c0.009-1.127,0.021-1.83,0.025-2.545l4.761-1.143l-0.672-3.33
			c-0.291-1.402-1.958-2.869-3.592-3.486l-1.599-0.758c-0.022-0.012-0.044-0.025-0.069-0.037c-0.229-0.125-0.555-0.277-0.961-0.455
			c-0.844-0.369-2.029-0.854-3.348-1.447c-1.255,0.879-3.899,6.729-8.604,7.387c-4.704-0.658-7.342-6.508-8.596-7.387
			c-1.319,0.592-2.497,1.078-3.342,1.447c-0.404,0.178-0.731,0.33-0.96,0.455c-0.025,0.012-0.047,0.025-0.068,0.037l-1.802,0.854
			c-0.354,0.168-0.673,0.393-0.949,0.656c-1.25,0.738-2.338,1.885-2.567,2.99l-0.674,3.332l4.891,1.172
			c0.007,0.623,0.016,1.281,0.021,2.258c-0.736,1.127-1.183,2.574-1.183,4.15c0,2.424,1.05,4.537,2.604,5.658
			c0.37,1.992,0.696,4.443,0.696,6.893c0,6.855,0.127,5.82-0.021,6.164c-0.724,1.502,2.096,0.502,1.3,4.104l20.518,0.447
			c-0.796-3.602,3.546-2.492,2.822-3.994C936.378,434.58,935.867,435.052,935.867,428.197z"/>
		<path fill="#E8E5D1" d="M924.114,361.779c-0.188,0.002-0.371-0.005-0.566-0.011v-0.001c0,0-0.009,0-0.015,0s-0.015,0-0.015,0
			v0.001c-0.166,0.006-0.369,0.013-0.557,0.011c-1.535-0.025-8.859,0.566-10.703,10.89h0.661c0,0,1.319-6.78,7.736-8.53
			c0.505-0.138,2.514-0.261,2.865-0.245c1.317,0.06,1.993,0.015,2.902,0.35c6.261,2.31,7.388,8.427,7.388,8.427h0.707
			C931.81,362.177,925.649,361.754,924.114,361.779z"/>
		<path fill="#DCB99D" d="M926.984,390.523c0,0-1.694,0.859-3.533,0.859c-1.736,0-3.202-0.693-3.202-0.693s2.52,5.813-5.012,7.613
			l8.619,3.705l8.579-3.705C925.685,397.757,926.984,390.523,926.984,390.523z"/>
		<path fill="#D1AD93" d="M920.569,391.855l7.943,4.785c0,0-2.105-1.832-1.528-6.117c0,0-3.319,1.828-6.734,0.17
			C920.25,390.693,920.459,391.179,920.569,391.855z"/>
		<path fill="#D1864D" d="M901.128,438.548l6.352,1.393c1.836,0.193,9.165,1.5,12.127,2.346c13.521,3.863,23.703,3.986,23.703,3.986
			l1.115-4.105c0,0-13.707-4.822-19.438-6.225c-5.071-1.242-14.821-6.342-23.302-6.58
			C897.739,429.251,894.711,435.279,901.128,438.548z"/>
		<path fill="#C47B49" d="M947.175,438.589l-6.354,1.379c-1.836,0.189-9.167,1.48-12.131,2.32
			c-13.53,3.836-23.714,3.936-23.714,3.936l-1.106-4.105c0,0,13.717-4.793,19.451-6.186c5.075-1.23,14.835-6.309,23.313-6.529
			C950.582,429.298,953.597,435.332,947.175,438.589z"/>
		<path fill="#F4F4F4" d="M937.58,435.257h-27.515c-0.752,0-1.361-0.617-1.361-1.381V417.33c0-0.762,0.609-1.381,1.361-1.381h27.515
			c0.752,0,1.36,0.619,1.36,1.381v16.547C938.94,434.64,938.332,435.257,937.58,435.257z"/>
		<g>
			<g>
				<path fill="#DDDDDD" d="M908.946,434.652c0.245,0.375,0.662,0.627,1.138,0.627h27.515c0.752,0,1.348-0.629,1.348-1.393v-16.547
					c0-0.338-0.112-0.645-0.313-0.885L908.946,434.652z"/>
			</g>
		</g>
		<path fill="#C1C1C1" d="M938.625,435.199h-29.577c-0.271,0-0.491,0.223-0.491,0.498v0.748c0,0.273,0.22,0.498,0.491,0.498h29.577
			c0.271,0,0.49-0.225,0.49-0.498v-0.748C939.115,435.421,938.896,435.199,938.625,435.199z"/>
		<ellipse fill="#FFFDFE" cx="1045.099" cy="324.067" rx="5.92" ry="6.008"/>
		<ellipse fill="#E25E55" cx="1047.517" cy="321.655" rx="3.544" ry="3.597"/>
		<ellipse fill="#FFFDFE" cx="896.455" cy="324.067" rx="3.034" ry="3.078"/>
		<ellipse fill="#FFFDFE" cx="880.087" cy="324.067" rx="3.034" ry="3.078"/>
		<ellipse fill="#FFFDFE" cx="888.271" cy="324.067" rx="3.034" ry="3.078"/>
	</g>
</g>
</svg>
