<?xml version="1.0" encoding="utf-8"?>
<!-- Generator: Adobe Illustrator 16.0.0, SVG Export Plug-In . SVG Version: 6.00 Build 0)  -->
<!DOCTYPE svg PUBLIC "-//W3C//DTD SVG 1.1//EN" "http://www.w3.org/Graphics/SVG/1.1/DTD/svg11.dtd" [
	<!ENTITY ns_extend "http://ns.adobe.com/Extensibility/1.0/">
	<!ENTITY ns_ai "http://ns.adobe.com/AdobeIllustrator/10.0/">
	<!ENTITY ns_graphs "http://ns.adobe.com/Graphs/1.0/">
	<!ENTITY ns_vars "http://ns.adobe.com/Variables/1.0/">
	<!ENTITY ns_imrep "http://ns.adobe.com/ImageReplacement/1.0/">
	<!ENTITY ns_sfw "http://ns.adobe.com/SaveForWeb/1.0/">
	<!ENTITY ns_custom "http://ns.adobe.com/GenericCustomNamespace/1.0/">
	<!ENTITY ns_adobe_xpath "http://ns.adobe.com/XPath/1.0/">
]>
<svg version="1.1" id="Layer_1" xmlns:x="&ns_extend;" xmlns:i="&ns_ai;" xmlns:graph="&ns_graphs;"
	 xmlns="http://www.w3.org/2000/svg" xmlns:xlink="http://www.w3.org/1999/xlink" x="0px" y="0px" width="1367px" height="640.61px"
	 viewBox="0 0 1367 640.61" enable-background="new 0 0 1367 640.61" xml:space="preserve">
<metadata><?xpacket begin="﻿" id="W5M0MpCehiHzreSzNTczkc9d"?>
<x:xmpmeta xmlns:x="adobe:ns:meta/" x:xmptk="Adobe XMP Core 5.3-c011 66.145661, 2012/02/06-14:56:27        ">
   <rdf:RDF xmlns:rdf="http://www.w3.org/1999/02/22-rdf-syntax-ns#">
      <rdf:Description rdf:about=""
            xmlns:dc="http://purl.org/dc/elements/1.1/">
         <dc:format>image/svg+xml</dc:format>
         <dc:title>
            <rdf:Alt>
               <rdf:li xml:lang="x-default">Web</rdf:li>
            </rdf:Alt>
         </dc:title>
      </rdf:Description>
      <rdf:Description rdf:about=""
            xmlns:xmp="http://ns.adobe.com/xap/1.0/"
            xmlns:xmpGImg="http://ns.adobe.com/xap/1.0/g/img/">
         <xmp:CreatorTool>Adobe Illustrator CS6 (Windows)</xmp:CreatorTool>
         <xmp:CreateDate>2017-11-21T17:50:45+02:00</xmp:CreateDate>
         <xmp:ModifyDate>2017-11-21T17:50:45+02:00</xmp:ModifyDate>
         <xmp:MetadataDate>2017-11-21T17:50:45+02:00</xmp:MetadataDate>
         <xmp:Thumbnails>
            <rdf:Alt>
               <rdf:li rdf:parseType="Resource">
                  <xmpGImg:width>256</xmpGImg:width>
                  <xmpGImg:height>120</xmpGImg:height>
                  <xmpGImg:format>JPEG</xmpGImg:format>
                  <xmpGImg:image>/9j/4AAQSkZJRgABAgEASABIAAD/7QAsUGhvdG9zaG9wIDMuMAA4QklNA+0AAAAAABAASAAAAAEA&#xA;AQBIAAAAAQAB/+4ADkFkb2JlAGTAAAAAAf/bAIQABgQEBAUEBgUFBgkGBQYJCwgGBggLDAoKCwoK&#xA;DBAMDAwMDAwQDA4PEA8ODBMTFBQTExwbGxscHx8fHx8fHx8fHwEHBwcNDA0YEBAYGhURFRofHx8f&#xA;Hx8fHx8fHx8fHx8fHx8fHx8fHx8fHx8fHx8fHx8fHx8fHx8fHx8fHx8fHx8f/8AAEQgAeAEAAwER&#xA;AAIRAQMRAf/EAaIAAAAHAQEBAQEAAAAAAAAAAAQFAwIGAQAHCAkKCwEAAgIDAQEBAQEAAAAAAAAA&#xA;AQACAwQFBgcICQoLEAACAQMDAgQCBgcDBAIGAnMBAgMRBAAFIRIxQVEGE2EicYEUMpGhBxWxQiPB&#xA;UtHhMxZi8CRygvElQzRTkqKyY3PCNUQnk6OzNhdUZHTD0uIIJoMJChgZhJRFRqS0VtNVKBry4/PE&#xA;1OT0ZXWFlaW1xdXl9WZ2hpamtsbW5vY3R1dnd4eXp7fH1+f3OEhYaHiImKi4yNjo+Ck5SVlpeYmZ&#xA;qbnJ2en5KjpKWmp6ipqqusra6voRAAICAQIDBQUEBQYECAMDbQEAAhEDBCESMUEFURNhIgZxgZEy&#xA;obHwFMHR4SNCFVJicvEzJDRDghaSUyWiY7LCB3PSNeJEgxdUkwgJChgZJjZFGidkdFU38qOzwygp&#xA;0+PzhJSktMTU5PRldYWVpbXF1eX1RlZmdoaWprbG1ub2R1dnd4eXp7fH1+f3OEhYaHiImKi4yNjo&#xA;+DlJWWl5iZmpucnZ6fkqOkpaanqKmqq6ytrq+v/aAAwDAQACEQMRAD8A7LirsVdirsVdirsVdirs&#xA;VdirsVdirsVdirsVdirsVdirsVdirsVdirsVdirsVdirsVdirsVdirsVdiqvZf72Qf8AGRP+JDFV&#xA;DFXYq7FXYq7FXYq7FXYq7FXYq7FXYq7FXYq7FXYq7FXYq7FXYq7FXYq7FXYq7FXYq7FXYq7FXYq7&#xA;FVey/wB7IP8AjIn/ABIYqoYq7FXYq7FXYq7FXYq7FXYq7FXYq7FXYq7FXYq7FXYq7FXYq7FXYq7F&#xA;XYq7FXYq0zKqlmIVR1J2GKrrVWug5twZPTpzAG+/t1P0Yq1irsVV7U2Xxi6EhqP3Zjps3vXtiqww&#xA;SegJtjGajr3B+zvSppQ7Yqikht4r61EM/rkuhchSACWGwr1xVA4q7FXYq7FXYq7FXYq7FXYq7FXY&#xA;q7FXYq7FXYq7FXYq7FXYq7FXYq7FXYq7FXYql+sStbW813OjfVba3muiFoC6wRtI4UnblRKCuCRo&#xA;EpjGyA838ufnPfy+YLK3n061tbSedYfXhM4mQSMFVnLyOjBa1YBBXtTMOGrJlRGznT0gEbB3ez6p&#xA;FNSG4mhME0wIljNPtLT4tvGuZrgIDFVWBYmekhoKbb8anwrQ0xVfdhI2FurFxEzVY7bk9APoxVqy&#xA;/wB7IP8AjIn/ABIYqoYq7FXYq7FXYq7FXYq7FXYq7FXYq7FXYq7FXYq7FXYq7FXYq7FXYq7FXYq7&#xA;FXYqj7eOxv7CXTL1Q8UqyRlGJUPHMpSROQoRVSR174kWKSDRthmh/kH5e0rX4tVku7m7gs5FntbK&#xA;ZUVVdDyUzSADmFNDQKo8ajbMeGliDbkT1UiKZnqd3FLPGifHFF1I/aJ+1T7qZkOMtF5bghERokr8&#xA;UsZ4uf1intiqQ+bPM76e0NpZsPrBPq/WpEHMrT4QKjcVPU9xiqTxeebeBOWqBYk7zhgo+kOf44CQ&#xA;OaREnktP5t+S7W+tljuZLtjKlRBGxpVh1L8B9xyk6mAbxpplleXuO7FXYq7FXYq7FXYq7FXYq7FX&#xA;Yq7FXYq7FXYq7FXYq7FXYq7FXYq7FWF/m9qM9l5LnEVALuWO3latHEbEs3Ad2PGlD2whEuTNNI9D&#xA;UbOK6s5VaykjV4p/iKlWFV7E7jxwJSD8wNX1Py1pTahBGpngAZY5gWjcNJGhqAVP2XPfCESNBjWi&#xA;/nboF1SPV7OXTpTsZoT68PzKnjIv0csPCwE3o2nMmp2MN7ZTrPYzrygnBIVhUjYMAex7ZFsXz21x&#xA;FT4AwJpyDxgD3PJlwE0LSBZpBrNP8QkRFINAVYuD+C5rMnaX80OdDQ95eX/m9ql/pWrWF4rRtb30&#xA;DxiOTkP3sDDkVKspoEkTv1rjHVzmLbBpoA08hudWhd+U1wZpD3qXY/TvlZBPNvBA5N2F5dS6hapb&#xA;WjuzSoE5fDUlhTCIoMtn1pm3dM7FXYq7FXYq7FXYq7FXYq7FXYq7FXYq7FXYq7FXYq7FVG4vLO2X&#xA;lczxwr4yOqDw7kYqhhr+htZTX6X9vJZW7CO4uY5FeON2oArspIUnkOvjitqtnqul3v8AvHeQXP8A&#xA;xhkR/wDiJONLaMSN3biilmPRVFT+GKpbrGi22qtYfWCQthdpeIo/aeJWCg+1Xrg3Tsmfkby5P5XO&#xA;oWkEyz+WbhvrenrUcrWRqetAa7lGY8kp03rud0k2oApgn5x+ddD1fRL7SbK4W5vLQK84i+JIwbiI&#xA;cS42LbbgdO+TAYTOzwnJNL6d/J12/wALaKhNU+qEhTuATdSVO/jTIHm3R5M61CGSSzMcUQdjTZRR&#xA;gpTiTsN/tV3HyqaZRngZRIDfhnwytiz2Fyql+NYqkI/TkBU1AO/QVzSy0kwLLtBqYE0Hhv8AzkBe&#xA;XZ1jTtGmRVghhF0oIHPnKWTc9QOKDb7+1MqOA44AnmWkZhOZrkHn8cUcYoihR7CmV25ICO0aRY9X&#xA;sZG+ylxEzfIODhjzRLkX1Jm5dI7FXYq7FXYq7FXYq7FXYq7FXYq7FXYq7FXYq7FXYq+ffPuu6tqn&#xA;5mv5f1SSZdNDvBbWCSPGlTA31eSiFeTPI6vv/q9NsLF5/wDmLpNnpfm27s7EL9WRYgnFi4LiJUm+&#xA;Ilif3yv3wq9T8rwXC/kJe2b209rc2179amWaGSISQs60kRmUK4A60O3HftiOankwdW6Mp3G6sMta&#xA;2QaP+YHnTRz/ALj9YuI1/kdvVTb/ACJQ6/hgMQmyntp+c3mqNibqO2uwTViyGNvo4FVH/A5HgCeI&#xA;oLzR+aXmjWrVrK2l/RlhKtLiG3ZuUviHk2PH/JH01wiKmTGNEimjh1MEqYWtDXrUsHUjamAo6Jfi&#xA;wfTf5NFJPK+jsu/G1pXw43U4P4jIHm3R5PR4kUmMEDam1AaVCjuD/DAyYLd3FwJqLK4XihUciAPh&#xA;BG2KvCfz1Lv5w09nJYtZQ1Y71/eyZi6vkHK0n1Fhea92avYf73W//GVP+JDEc0Hk+qc3To3Yq7FX&#xA;Yq7FXYq7FXYq7FXYq7FXYq7FXYq7FXYq7FWN+bfy78p+a2jk1iz53MI4x3UTGOULWvEsv2l9mrTt&#xA;iqh5Z/K7yT5cnW607T1N4u6XU7GaRf8AU51CfNQDitMrxVJJ/wAmPIfmKGV0gk0nUVJJnsGEatUf&#xA;CWhYNEd+vFQT44eIhBiHlX5kflTfeR7WO9k1i0v7aZgkELK9vdu37XGIeqhVR1bmMmJWwMaefDUI&#xA;P2w0fzG33iuStirJPDJ9h1b2B3wqmulf7zal/wAwrf8AEhkZJ6JPgYPpf8kWCeUdIYmgaGVQa06X&#xA;lyfEZA826HJ6SkscZQuyrUrTkaCtE9v8/fIksqYq2jLPIn+kKkjon7srvsg98HGLrqy4TV9Hg/8A&#xA;zkJZGz826YhfmfqUTVAp/u6Ue/8ALlGr+kORpPqLz/Nc7NXsSBe25JoBIlT/ALIYjmg8n1Tm6dG7&#xA;FXYq7FXYq7FXYq7FXYq7FXYq7FXYq7FXYq7FXYq7FXYq7FVM67Lp0k6WAW61VbSW5h04MPVlSOg2&#xA;XrTmVWvicVfMPm3zXrPmTVptV1mcvOfhVDskSA7Rov7Kj+075YBTUTaJ8p/lf5o84Ok5DaVoNa/X&#xA;ZlIeYdawx7Fh4E0X3J2yJLIRew2f5Mfl/b6elpJYPcuo+K7lml9Zm/mJRkH0AU9sFsqDH/Mf5deW&#xA;fLumXtzplzdPPJFIktrK6vEi+m0iEHircqx++3Wm1SCxI2eU5JqfS/5P211b+T9FeRHQpFLyiI4t&#xA;RrqdlahZNqEffkC3Q5Ms1iW4aCqJIigAPy4/ZoOWyMQBUDNZ2hxVtydho6vfmkasylSpIK/ZI7U8&#xA;M1QySBBvk7AwFVXN89/nV5pudd86XUf1UiPSQNPWZa1drdm9ViP+MruBTsBm3yZuKIB5uDiw8JsM&#xA;PTU7U0DsY37qwIzH4S5fEFdbi3f7Min5EZGk2H1pm6dG7FXYq7FXYq7FXYq7FXYq7FXYq7FXYq7F&#xA;XYq7FXYq7FXYq8e8w/mH518x32p6f5GWO2stNZopdSfi0k8q1+CHkCicyKLtU9aqK0KLeS+U/NXn&#xA;rTvPMWo6e0955jkkNvLBcB5HmqaPDKrENT4d+nGldqYUPpb/AAV5f1a8tte1jQ7a31or6l1bxyGa&#xA;D1jQ8nFER2Xx49fGgOC00yXpgS7FUs17QLbWrdLS4YxRMXWaVAPUCPE6EKSD+0wxQRaS6R5c0DQn&#xA;X9F6UEuo34m5nUXNxuKKwZiEBr/vsL8W3QMclaBEBXu4hdRKLp3JIFLh1BZCVJDrL1Vt+Qf/AGdP&#xA;7tcDJM9Esdas7c2upRKsKf7yseKsYv8AdY9IGRkAWn94/Ota4JRB5qCRyTERoDWnetO2Yx0eIm6b&#xA;xqcgHNgmr/kDc37P9S1CMX83K7eW7ST1G5sfheRH4blq/wB1X3zEnC8vhjnw8V/GnKhnqHEe+nn3&#xA;mH8nPPukBjc6Q17br/u+0pcqR48V/eAf6yjBLDOPRtjnhLqwS40e2DsjxNFIpoy7qQfkchxFs4QX&#xA;1zm4dK7FXYq7FXYq7FXYq7FXYq7FXYq7FXYq7FXYq7FXYq7FXYq+bNK/Lv8ANDyx5ont9ItWmilL&#xA;IJyOVtLHvwd2JRVZeoqQ3boaEsXs3kfyBb+XzPqd9IL/AMyX/wAV/qTVPX/dcVfsoPvbv2ACWW4p&#xA;dirsVdiqD1GwFynJURpQD9sVDChHHqB379fskhScVV9L0+CzRbycLJdSBXita+pHCwJb1HJ+3JU1&#xA;Fe/xHfiFKq7u7sXclmY1LHck4FW4qmmj6mttcUn3jkVVElalaE/hmDhxS8fJIjY8IH6W+ch4cQPN&#xA;Pb/UYbS29Wocv/dKD9r+zM1oYXd6Xpes30barZwXpkkUN68aPsSBQcgaYDAHmGUZkcivyTF2KuxV&#xA;2KuxV2KuxV2KuxV2KuxV2KuxV2KuxV2KuxV2KuxV2KuxV2KuxV2KuxV2KuxV2KuxVoIqlioALGrE&#xA;DqaAVP0DFV5dmABJIUUUE9B12xVVsv8AeyD/AIyJ/wASGKqGKuxV2KuxV2KuxV2KuxV2KuxV2Kux&#xA;V2KuxV2KuxV2KuxV2KuxV2KuxV2KuxV2KuxV2KuxV2KuxV2Kq9l/vZB/xkT/AIkMVXfo3Uf+WWb/&#xA;AJFt/TFXfo3Uf+WWb/kW39MVd+jdR/5ZZv8AkW39MVd+jdR/5ZZv+Rbf0xV36N1H/llm/wCRbf0x&#xA;V36N1H/llm/5Ft/TFXfo3Uf+WWb/AJFt/TFXfo3Uf+WWb/kW39MVd+jdR/5ZZv8AkW39MVd+jdR/&#xA;5ZZv+Rbf0xV36N1H/llm/wCRbf0xV36N1H/llm/5Ft/TFXfo3Uf+WWb/AJFt/TFXfo3Uf+WWb/kW&#xA;39MVd+jdR/5ZZv8AkW39MVd+jdR/5ZZv+Rbf0xV36N1H/llm/wCRbf0xV36N1H/llm/5Ft/TFXfo&#xA;3Uf+WWb/AJFt/TFXfo3Uf+WWb/kW39MVd+jdR/5ZZv8AkW39MVd+jdR/5ZZv+Rbf0xV36N1H/llm&#xA;/wCRbf0xV36N1H/llm/5Ft/TFXfo3Uf+WWb/AJFt/TFXfo3Uf+WWb/kW39MVd+jdR/5ZZv8AkW39&#xA;MVd+jdR/5ZZv+Rbf0xV36N1H/llm/wCRbf0xV36N1H/llm/5Ft/TFXfo3Uf+WWb/AJFt/TFVWz0+&#xA;/W7gZraUKJFJJRgAAR7Yq//Z</xmpGImg:image>
               </rdf:li>
            </rdf:Alt>
         </xmp:Thumbnails>
      </rdf:Description>
      <rdf:Description rdf:about=""
            xmlns:xmpMM="http://ns.adobe.com/xap/1.0/mm/"
            xmlns:stRef="http://ns.adobe.com/xap/1.0/sType/ResourceRef#"
            xmlns:stEvt="http://ns.adobe.com/xap/1.0/sType/ResourceEvent#">
         <xmpMM:RenditionClass>proof:pdf</xmpMM:RenditionClass>
         <xmpMM:OriginalDocumentID>uuid:65E6390686CF11DBA6E2D887CEACB407</xmpMM:OriginalDocumentID>
         <xmpMM:DocumentID>xmp.did:0A679B81D2CEE71189F3FF599ED98DE6</xmpMM:DocumentID>
         <xmpMM:InstanceID>xmp.iid:0A679B81D2CEE71189F3FF599ED98DE6</xmpMM:InstanceID>
         <xmpMM:DerivedFrom rdf:parseType="Resource">
            <stRef:instanceID>xmp.iid:09679B81D2CEE71189F3FF599ED98DE6</stRef:instanceID>
            <stRef:documentID>xmp.did:09679B81D2CEE71189F3FF599ED98DE6</stRef:documentID>
            <stRef:originalDocumentID>uuid:65E6390686CF11DBA6E2D887CEACB407</stRef:originalDocumentID>
            <stRef:renditionClass>proof:pdf</stRef:renditionClass>
         </xmpMM:DerivedFrom>
         <xmpMM:History>
            <rdf:Seq>
               <rdf:li rdf:parseType="Resource">
                  <stEvt:action>saved</stEvt:action>
                  <stEvt:instanceID>xmp.iid:e18583ae-1c07-024d-a070-c6fd986b657b</stEvt:instanceID>
                  <stEvt:when>2017-07-31T13:57:23+02:00</stEvt:when>
                  <stEvt:softwareAgent>Adobe Illustrator CC 2015 (Windows)</stEvt:softwareAgent>
                  <stEvt:changed>/</stEvt:changed>
               </rdf:li>
               <rdf:li rdf:parseType="Resource">
                  <stEvt:action>saved</stEvt:action>
                  <stEvt:instanceID>xmp.iid:d9e4b3f0-15a0-d64c-a8eb-2d3a700e0dbc</stEvt:instanceID>
                  <stEvt:when>2017-08-01T13:53:54+02:00</stEvt:when>
                  <stEvt:softwareAgent>Adobe Illustrator CC 2015 (Windows)</stEvt:softwareAgent>
                  <stEvt:changed>/</stEvt:changed>
               </rdf:li>
               <rdf:li rdf:parseType="Resource">
                  <stEvt:action>converted</stEvt:action>
                  <stEvt:parameters>from application/postscript to application/vnd.adobe.illustrator</stEvt:parameters>
               </rdf:li>
               <rdf:li rdf:parseType="Resource">
                  <stEvt:action>saved</stEvt:action>
                  <stEvt:instanceID>xmp.iid:6627f576-777e-b94c-924a-59073f9fc3b6</stEvt:instanceID>
                  <stEvt:when>2017-08-01T17:14:40+02:00</stEvt:when>
                  <stEvt:softwareAgent>Adobe Illustrator CC 2015 (Windows)</stEvt:softwareAgent>
                  <stEvt:changed>/</stEvt:changed>
               </rdf:li>
               <rdf:li rdf:parseType="Resource">
                  <stEvt:action>converted</stEvt:action>
                  <stEvt:parameters>from application/postscript to application/vnd.adobe.illustrator</stEvt:parameters>
               </rdf:li>
               <rdf:li rdf:parseType="Resource">
                  <stEvt:action>saved</stEvt:action>
                  <stEvt:instanceID>xmp.iid:ed0f7529-24c3-b441-905b-d7c5eb99e325</stEvt:instanceID>
                  <stEvt:when>2017-08-04T13:02:10+02:00</stEvt:when>
                  <stEvt:softwareAgent>Adobe Illustrator CC 2015 (Windows)</stEvt:softwareAgent>
                  <stEvt:changed>/</stEvt:changed>
               </rdf:li>
               <rdf:li rdf:parseType="Resource">
                  <stEvt:action>converted</stEvt:action>
                  <stEvt:parameters>from application/postscript to application/vnd.adobe.illustrator</stEvt:parameters>
               </rdf:li>
               <rdf:li rdf:parseType="Resource">
                  <stEvt:action>saved</stEvt:action>
                  <stEvt:instanceID>xmp.iid:07679B81D2CEE71189F3FF599ED98DE6</stEvt:instanceID>
                  <stEvt:when>2017-11-21T17:41:57+02:00</stEvt:when>
                  <stEvt:softwareAgent>Adobe Illustrator CS6 (Windows)</stEvt:softwareAgent>
                  <stEvt:changed>/</stEvt:changed>
               </rdf:li>
               <rdf:li rdf:parseType="Resource">
                  <stEvt:action>saved</stEvt:action>
                  <stEvt:instanceID>xmp.iid:0A679B81D2CEE71189F3FF599ED98DE6</stEvt:instanceID>
                  <stEvt:when>2017-11-21T17:50:45+02:00</stEvt:when>
                  <stEvt:softwareAgent>Adobe Illustrator CS6 (Windows)</stEvt:softwareAgent>
                  <stEvt:changed>/</stEvt:changed>
               </rdf:li>
            </rdf:Seq>
         </xmpMM:History>
      </rdf:Description>
      <rdf:Description rdf:about=""
            xmlns:illustrator="http://ns.adobe.com/illustrator/1.0/">
         <illustrator:StartupProfile>Web</illustrator:StartupProfile>
      </rdf:Description>
      <rdf:Description rdf:about=""
            xmlns:xmpTPg="http://ns.adobe.com/xap/1.0/t/pg/"
            xmlns:stDim="http://ns.adobe.com/xap/1.0/sType/Dimensions#"
            xmlns:xmpG="http://ns.adobe.com/xap/1.0/g/">
         <xmpTPg:NPages>1</xmpTPg:NPages>
         <xmpTPg:HasVisibleTransparency>True</xmpTPg:HasVisibleTransparency>
         <xmpTPg:HasVisibleOverprint>False</xmpTPg:HasVisibleOverprint>
         <xmpTPg:MaxPageSize rdf:parseType="Resource">
            <stDim:w>1367.000000</stDim:w>
            <stDim:h>640.609863</stDim:h>
            <stDim:unit>Pixels</stDim:unit>
         </xmpTPg:MaxPageSize>
         <xmpTPg:PlateNames>
            <rdf:Seq>
               <rdf:li>Cyan</rdf:li>
               <rdf:li>Magenta</rdf:li>
               <rdf:li>Yellow</rdf:li>
               <rdf:li>Black</rdf:li>
            </rdf:Seq>
         </xmpTPg:PlateNames>
         <xmpTPg:SwatchGroups>
            <rdf:Seq>
               <rdf:li rdf:parseType="Resource">
                  <xmpG:groupName>Default Swatch Group</xmpG:groupName>
                  <xmpG:groupType>0</xmpG:groupType>
               </rdf:li>
            </rdf:Seq>
         </xmpTPg:SwatchGroups>
      </rdf:Description>
      <rdf:Description rdf:about=""
            xmlns:pdf="http://ns.adobe.com/pdf/1.3/">
         <pdf:Producer>Adobe PDF library 10.01</pdf:Producer>
      </rdf:Description>
   </rdf:RDF>
</x:xmpmeta>
                                                                                                    
                                                                                                    
                                                                                                    
                                                                                                    
                                                                                                    
                                                                                                    
                                                                                                    
                                                                                                    
                                                                                                    
                                                                                                    
                                                                                                    
                                                                                                    
                                                                                                    
                                                                                                    
                                                                                                    
                                                                                                    
                                                                                                    
                                                                                                    
                                                                                                    
                                                                                                    
                           
<?xpacket end="w"?>
	</metadata>
<g id="Layer_1_1_">
	<g id="XMLID_1_">
		<g>
			<rect x="-6.51" y="-0.005" fill="#CCCCCC" width="1373.51" height="640.61"/>
		</g>
		<g>
		</g>
	</g>
</g>
<g id="Layer_5">
	<polygon fill="#FFFFFF" points="1220.332,186.074 1219.751,187.643 1238.106,194.861 1238.687,193.293 	"/>
	<polygon fill="#CECECE" points="1238.158,194.882 1238.739,193.314 1237.764,192.93 1237.183,194.498 	"/>
	<path fill="#FFFFFF" d="M1238.828,191.693l-1.645,4.441c-0.043,0.118,0.014,0.249,0.127,0.293l5.127,2.018
		c0.115,0.044,0.242-0.015,0.286-0.132l1.645-4.44c0.044-0.118-0.015-0.249-0.128-0.294l-5.127-2.016
		C1238.999,191.517,1238.872,191.576,1238.828,191.693z"/>
	<g>
		<path fill="#FFFFFF" d="M1244.114,192.807l-2.245,6.062c-0.24,0.647,0.079,1.379,0.708,1.627l10.316,4.058
			c0.63,0.248,1.34-0.08,1.579-0.728l2.244-6.061c0.24-0.647-0.079-1.38-0.707-1.627l-10.317-4.058
			C1245.063,191.833,1244.354,192.16,1244.114,192.807z"/>
		<path fill="#E0E0E0" d="M1245.237,191.757c0.18-0.002,0.36,0.029,0.539,0.099l10.316,4.058c0.362,0.142,0.65,0.422,0.81,0.789
			c0.159,0.367,0.172,0.774,0.032,1.147l-2.244,6.061c-0.138,0.373-0.409,0.668-0.766,0.833c-0.355,0.164-0.751,0.176-1.114,0.034
			l-10.316-4.058c-0.751-0.295-1.128-1.164-0.843-1.936l2.243-6.063C1244.115,192.131,1244.659,191.765,1245.237,191.757z
			 M1253.342,204.396c0.134-0.001,0.267-0.032,0.394-0.09c0.242-0.111,0.428-0.312,0.521-0.565l2.245-6.062
			c0.094-0.253,0.086-0.53-0.021-0.78c-0.109-0.25-0.305-0.441-0.551-0.538l-10.316-4.058c-0.512-0.201-1.085,0.063-1.278,0.589
			l-2.245,6.061c-0.193,0.526,0.063,1.117,0.573,1.317l10.317,4.058C1253.095,204.375,1253.219,204.398,1253.342,204.396z"/>
	</g>
	<path fill="#EDEDED" d="M1333.199,254.227l14.809-39.998c1.086-2.932-0.343-6.217-3.19-7.338l-76.472-30.075
		c-2.848-1.121-6.038,0.349-7.123,3.281l-14.809,39.997c-1.085,2.932,0.343,6.217,3.192,7.338l76.469,30.075
		C1328.925,258.628,1332.113,257.159,1333.199,254.227z"/>
	<polygon fill="#939393" points="1322.006,254.272 1339.679,206.54 1272.119,179.969 1254.447,227.702 	"/>
	<path fill="#9E9E9E" d="M1256.944,209l4.925-13.302c0.153-0.414-0.048-0.878-0.451-1.036l0,0c-0.403-0.158-0.853,0.049-1.006,0.463
		l-4.926,13.303c-0.153,0.414,0.049,0.877,0.45,1.037l0,0C1256.34,209.621,1256.791,209.415,1256.944,209z"/>
	<path opacity="0.08" fill="#020202" enable-background="new    " d="M1249.59,227.446l76.469,30.075
		c2.85,1.121,6.042-0.369,7.126-3.301l2.017-5.444l-80.054-52.271l-8.729,23.59C1245.334,223.029,1246.74,226.326,1249.59,227.446z"
		/>
	<polygon fill="#E0E0E0" points="1250.967,199.944 1251.55,198.368 1245.984,196.179 1245.4,197.756 	"/>
	<path fill="#FFFFFF" d="M1303.25,147.973c-1.766,3.322-4.459,5.984-7.106,8.366c-1.43,1.288-2.952,2.593-4.609,3.74
		c-0.081,2.11-0.508,4.312-1.272,6.535c-1.276,3.712-3.357,7.119-5.225,9.96c-1.703,2.592-3.767,5.494-6.723,7.12
		c-2.916,1.604-6.684,1.921-10.61,0.894c-2.115-0.554-4.234-1.541-6.283-2.495c-1.291-0.602-2.51-1.169-3.723-1.633
		c-5.276-2.021-10.73-4.111-16.371-4.887c-4.36-0.601-10.707-0.612-16.181,2.746c-2.822,1.731-5.08,4.127-7.313,6.746l3.598,1.44
		l-0.589,1.565l-4.143-1.658c-0.136,0.163-0.272,0.328-0.41,0.492c-2.138,2.562-4.348,5.21-6.98,7.336
		c-1.339,1.082-3.398,2.519-5.817,2.525c-2.665,0.006-5.204-1.855-6.174-4.525c-0.907-2.494-0.391-5.505,1.314-7.673
		c1.585-2.015,4.129-3.264,6.801-3.337c2.625-0.074,5.13,0.928,7.34,1.812l3.442,1.378c2.385-2.82,4.917-5.594,8.096-7.543
		c5.876-3.604,12.613-3.603,17.23-2.967c5.821,0.802,11.363,2.925,16.724,4.979c1.264,0.483,2.565,1.09,3.825,1.677
		c1.985,0.924,4.037,1.88,6.014,2.397c3.53,0.925,6.885,0.66,9.439-0.747c2.628-1.446,4.476-4.043,6.142-6.58
		c1.901-2.893,3.827-6.056,5.039-9.581c0.57-1.658,0.938-3.297,1.1-4.883c-0.43,0.249-0.866,0.486-1.313,0.708
		c-2.245,1.109-5.698,2.27-9.396,1.494c-3.434-0.72-6.339-3.163-7.403-6.223c-0.972-2.794-0.414-6.078,1.42-8.364
		c2.445-3.046,6.99-4.089,10.81-2.478c3.376,1.423,6.102,4.821,7.112,8.867c0.232,0.926,0.382,1.889,0.452,2.877
		c1.257-0.938,2.44-1.962,3.566-2.976c2.534-2.281,5.104-4.816,6.75-7.909c1.765-3.322,2.161-6.885,1.086-9.776
		c-0.169-0.455-0.375-0.896-0.593-1.365c-0.338-0.729-0.688-1.484-0.906-2.313c-0.367-1.4-0.3-3.311,0.988-4.475l1.076,1.261
		c-0.729,0.657-0.72,1.907-0.49,2.777c0.178,0.682,0.48,1.335,0.803,2.026c0.222,0.479,0.451,0.972,0.645,1.49
		c1.019,2.74,0.918,5.964-0.244,9.101C1303.926,146.592,1303.613,147.288,1303.25,147.973z M1273.245,156.583
		c0.876,2.519,3.307,4.538,6.193,5.144c3.254,0.683,6.346-0.364,8.365-1.364c0.729-0.359,1.432-0.766,2.114-1.206
		c-0.013-1.24-0.16-2.434-0.443-3.566c-0.886-3.542-3.243-6.505-6.152-7.732c-3.124-1.317-6.965-0.46-8.936,1.995
		c-0.456,0.568-0.813,1.212-1.066,1.898C1272.751,153.287,1272.704,155.029,1273.245,156.583z M1198.842,191.651
		c0.727,1.994,2.677,3.438,4.644,3.434c1.458-0.003,2.988-0.692,4.815-2.167c2.507-2.024,4.663-4.61,6.75-7.11
		c0.013-0.014,0.023-0.029,0.035-0.043l-2.904-1.162c-2.065-0.826-4.406-1.763-6.704-1.698c-2.204,0.062-4.289,1.078-5.58,2.718
		c-0.422,0.536-0.751,1.134-0.985,1.764C1198.399,188.774,1198.354,190.312,1198.842,191.651z"/>
	<path fill="#FFFFFF" d="M1290.099,109.398c5.008,1.037,8.58,2.684,11.242,5.184c3.307,3.105,4.831,7.676,3.893,11.534
		c0.345-0.278,0.691-0.548,1.036-0.81c6.563-4.995,14.22-8.714,22.139-10.753l0.396,1.627c-7.714,1.987-15.171,5.61-21.565,10.476
		c-2.123,1.617-4.386,3.528-4.36,5.775l-1.624,0.112c-0.225-1.85,0.507-3.064,1.215-4.237c0.404-0.667,0.82-1.358,1.075-2.2
		c1.172-3.863-0.813-7.948-3.3-10.284c-2.436-2.287-5.76-3.805-10.465-4.778L1290.099,109.398z"/>
	<path fill="#777777" d="M1341.996,120.584c-3.646,1.553-6.857,2.18-7.172,1.399c-0.314-0.781,2.387-2.674,6.034-4.228
		c3.646-1.553,6.857-2.18,7.171-1.399C1348.344,117.137,1345.643,119.029,1341.996,120.584z"/>
	<path fill="#FFFFFF" d="M1347.143,117.438c1.479-0.502,2.334-3.208,0.79-4.259c-2.087-1.419-4.337-2.47-4.838-2.677l2.741-1.168
		c0.751-0.321,1.073-1.248,0.746-2.061l-0.064-0.158c-0.327-0.812-1.183-1.215-1.935-0.894l-19.341,8.241l1.253,3.113l8.025-3.42
		c-0.18,0.638-1.116,4.009-1.401,4.893c-0.383,1.188,0.157,2.102,0.157,2.102c0.192,0.333,0.421,0.578,0.656,0.759
		c0.61,0.472,1.469,0.693,2.081,0.271C1337.963,120.839,1345.5,117.997,1347.143,117.438z"/>
	<path fill="#BFBFBF" d="M1318.626,120.129l-0.703-1.747c-0.155-0.385,0.022-0.827,0.396-0.987l9.045-3.854l1.265,3.142
		l-9.045,3.854C1319.211,120.697,1318.781,120.514,1318.626,120.129z"/>
	<path fill="#777777" d="M1272.217,114.088c3.689,1.451,6.916,1.987,7.208,1.198c0.292-0.79-2.461-2.606-6.148-4.058
		c-3.688-1.452-6.917-1.988-7.208-1.198C1265.775,110.819,1268.528,112.636,1272.217,114.088z"/>
	<path fill="#FFFFFF" d="M1266.984,111.087c-1.49-0.46-2.423-3.142-0.908-4.235c2.047-1.476,4.266-2.59,4.761-2.812l-2.771-1.09
		c-0.762-0.299-1.108-1.217-0.804-2.038l0.06-0.16c0.304-0.822,1.148-1.248,1.91-0.948l19.563,7.697l-1.165,3.147l-8.119-3.195
		c0.197,0.633,1.229,3.977,1.538,4.852c0.416,1.177-0.098,2.106-0.098,2.106c-0.185,0.338-0.406,0.589-0.635,0.777
		c-0.599,0.488-1.448,0.734-2.073,0.329C1276.256,114.229,1268.643,111.599,1266.984,111.087z"/>
	<path fill="#BFBFBF" d="M1295.565,112.979l0.652-1.765c0.146-0.39-0.046-0.826-0.424-0.976l-9.149-3.6l-1.177,3.176l9.149,3.6
		C1294.997,113.564,1295.421,113.369,1295.565,112.979z"/>
</g>
<g id="Layer_6">
	<g>
		<path fill="#E6E7E9" d="M1085.205,169.087c-0.032-2.299,0.101-4.564,0.381-6.779c2.87-22.589,21.475-40.157,44.243-40.475
			c0.658-0.01,1.307,0,1.957,0.017c24.115,0.714,43.629,20.896,43.979,45.971c0.36,25.752-19.623,46.905-44.632,47.254
			C1106.133,215.425,1085.565,194.839,1085.205,169.087z"/>
		<path fill="#FFFFFF" d="M1131.151,216.412c25.685-0.359,46.28-22.162,45.912-48.609c-0.36-25.779-20.229-46.553-45.244-47.29
			c-0.485-0.012-0.972-0.022-1.454-0.016l1.343,1.354l1.387,1.398c22.982,1.38,41.039,20.718,41.373,44.59
			c0.35,24.968-19.097,45.561-43.354,45.899c-24.248,0.339-44.262-19.701-44.61-44.669c-0.024-1.809,0.053-3.646,0.245-5.45
			l-1.177-1.177l-1.15-1.152c-0.048,0.277-0.079,0.554-0.118,0.839c-0.296,2.313-0.428,4.658-0.396,6.976
			C1084.277,195.553,1105.468,216.771,1131.151,216.412z"/>
	</g>
	<path fill="#9E9E9E" d="M1084.421,161.29c3.323-22.996,22.7-40.478,45.391-40.795c0.189-0.002,0.371-0.005,0.555,0.002l1.343,1.354
		l1.387,1.398c-0.441-0.03-0.892-0.051-1.342-0.063c-0.632-0.017-1.264-0.026-1.905-0.017
		c-21.693,0.303-40.162,17.201-42.978,39.316c-0.046,0.375-0.093,0.759-0.122,1.133l-1.177-1.177L1084.421,161.29z"/>
	<path fill="#B8B9BB" d="M1086.748,163.619c0.029-0.374,0.076-0.759,0.122-1.133c2.814-22.116,21.283-39.014,42.978-39.316
		c0.642-0.009,1.272,0,1.905,0.017c0.45,0.012,0.9,0.032,1.342,0.063l40.43,40.869l-64.06,22.188L1086.748,163.619z"/>
	<path fill="#FEFCFE" d="M1172.089,164.133l-15.716,0.22c-0.024,0-0.043,0.022-0.043,0.047l0.092,6.582
		c0.005,0.347,0.284,0.626,0.621,0.622l15.061-0.211c1.963-0.027,3.545-1.703,3.517-3.724l0,0
		C1175.592,165.698,1174.003,164.106,1172.089,164.133z"/>
	
		<ellipse transform="matrix(0.014 0.9999 -0.9999 0.014 1283.1273 -964.2395)" fill="#FEFCFE" cx="1130.482" cy="168.491" rx="27.933" ry="27.128"/>
	<path fill="#42210B" d="M1108.103,168.767c-0.178-12.733,9.699-23.192,22.057-23.365c7.018-0.098,13.321,3.138,17.496,8.284
		c3.197,3.912,5.136,8.948,5.213,14.455c0.178,12.734-9.698,23.192-22.065,23.365c-8.704,0.122-16.322-4.896-20.122-12.33
		C1109.079,176.061,1108.156,172.527,1108.103,168.767z"/>
	<path fill="#6B3E1F" d="M1108.103,168.767c-0.178-12.733,9.699-23.192,22.057-23.365c7.018-0.098,13.321,3.138,17.496,8.284
		c1.602,3.115,2.524,6.649,2.578,10.41c0.178,12.725-9.7,23.193-22.057,23.365c-7.018,0.098-13.322-3.139-17.496-8.285
		C1109.079,176.061,1108.156,172.527,1108.103,168.767z"/>
</g>
<g id="Layer_7">
	<path fill="#FEFCFE" d="M1042.132,416.633l54.815-50.459l82.12,94.576l-54.813,50.457c-3.294,3.031-8.353,2.738-11.298-0.656
		l-4.434-5.104l-0.184-0.211l-4.197-4.832l-0.182-0.211l-4.015-4.623l-0.184-0.211l-4.015-4.623l-0.182-0.211l-4.016-4.623
		l-0.183-0.211l-49.864-57.426c-0.361-0.416-0.672-0.855-0.936-1.318c-0.049-0.082-0.095-0.166-0.139-0.25
		C1038.701,423.417,1039.313,419.227,1042.132,416.633z"/>
	<path fill="#1B1F21" d="M1169.99,461.073c-0.766-0.881-0.836-2.1-0.16-2.723c0.676-0.621,1.843-0.412,2.606,0.469
		c0.766,0.879,0.836,2.098,0.16,2.721C1171.922,462.161,1170.754,461.952,1169.99,461.073z"/>
	<path fill="#1B1F21" d="M1161.372,451.147c-0.766-0.883-0.836-2.1-0.161-2.723c0.676-0.623,1.843-0.412,2.608,0.467
		c0.765,0.881,0.836,2.1,0.16,2.721C1163.303,452.235,1162.136,452.026,1161.372,451.147z"/>
	<path fill="#1B1F21" d="M1153.26,441.487c-0.765-0.881-0.836-2.1-0.16-2.721c0.677-0.623,1.844-0.414,2.607,0.467
		s0.836,2.098,0.161,2.721C1155.192,442.575,1154.024,442.366,1153.26,441.487z"/>
	<path fill="#1B1F21" d="M1144.283,431.889c-0.765-0.881-0.836-2.1-0.16-2.721c0.676-0.623,1.843-0.414,2.606,0.467
		c0.765,0.881,0.837,2.1,0.16,2.721C1146.215,432.979,1145.048,432.77,1144.283,431.889z"/>
	<path fill="#1B1F21" d="M1136.019,422.372c-0.764-0.881-0.836-2.098-0.159-2.721c0.675-0.623,1.843-0.414,2.606,0.467
		c0.765,0.881,0.836,2.098,0.16,2.721C1137.95,423.459,1136.783,423.25,1136.019,422.372z"/>
	<path fill="#1B1F21" d="M1127.754,412.852c-0.765-0.881-0.836-2.098-0.16-2.721c0.677-0.621,1.843-0.412,2.608,0.467
		c0.764,0.881,0.836,2.1,0.16,2.721C1129.687,413.942,1128.519,413.733,1127.754,412.852z"/>
	<path fill="#1B1F21" d="M1119.489,403.334c-0.766-0.881-0.836-2.098-0.161-2.721c0.677-0.621,1.844-0.412,2.608,0.467
		c0.765,0.881,0.837,2.098,0.159,2.721C1121.421,404.422,1120.253,404.213,1119.489,403.334z"/>
	<path fill="#1B1F21" d="M1110.494,392.975c-0.765-0.881-0.836-2.098-0.16-2.719c0.676-0.623,1.843-0.414,2.607,0.467
		c0.764,0.881,0.836,2.098,0.159,2.721C1112.425,394.067,1111.259,393.856,1110.494,392.975z"/>
	<path fill="#1B1F21" d="M1102.047,383.247c-0.764-0.879-0.836-2.098-0.161-2.719c0.676-0.623,1.844-0.414,2.608,0.467
		c0.765,0.879,0.836,2.098,0.16,2.719C1103.978,384.336,1102.812,384.127,1102.047,383.247z"/>
	<path fill="#475059" d="M1170.813,461.069l8.412-7.744c0.162-0.15,0.412-0.135,0.556,0.031l0,0c0.145,0.168,0.13,0.424-0.03,0.572
		l-8.413,7.744c-0.162,0.148-0.412,0.133-0.556-0.033l0,0C1170.638,461.475,1170.652,461.217,1170.813,461.069z"/>
	<path fill="#475059" d="M1169.521,459.42l8.413-7.744c0.161-0.148,0.412-0.133,0.557,0.033l0,0c0.144,0.166,0.13,0.424-0.031,0.572
		l-8.413,7.744c-0.162,0.146-0.412,0.133-0.556-0.033l0,0C1169.345,459.827,1169.358,459.569,1169.521,459.42z"/>
	<path fill="#475059" d="M1162.251,451.168l8.414-7.744c0.161-0.148,0.411-0.133,0.555,0.033l0,0
		c0.146,0.166,0.131,0.422-0.031,0.572l-8.412,7.744c-0.162,0.148-0.412,0.133-0.557-0.033l0,0
		C1162.077,451.575,1162.09,451.319,1162.251,451.168z"/>
	<path fill="#475059" d="M1160.923,449.641l8.413-7.744c0.162-0.148,0.412-0.135,0.555,0.031l0,0
		c0.146,0.168,0.13,0.424-0.029,0.572l-8.413,7.746c-0.162,0.146-0.412,0.133-0.557-0.033l0,0
		C1160.749,450.047,1160.762,449.79,1160.923,449.641z"/>
	<path fill="#475059" d="M1154.14,441.495l8.414-7.744c0.161-0.148,0.411-0.135,0.556,0.031l0,0c0.145,0.168,0.13,0.424-0.03,0.572
		l-8.414,7.744c-0.161,0.148-0.411,0.135-0.556-0.031l0,0C1153.964,441.901,1153.979,441.643,1154.14,441.495z"/>
	<path fill="#475059" d="M1152.816,439.971l8.413-7.744c0.161-0.148,0.411-0.135,0.556,0.031l0,0
		c0.145,0.168,0.13,0.424-0.031,0.572l-8.414,7.744c-0.161,0.148-0.411,0.135-0.555-0.031l0,0
		C1152.642,440.375,1152.655,440.12,1152.816,439.971z"/>
	<path fill="#475059" d="M1145.17,431.907l8.413-7.746c0.161-0.148,0.411-0.133,0.555,0.033l0,0c0.146,0.166,0.131,0.422-0.029,0.57
		l-8.414,7.744c-0.161,0.15-0.411,0.135-0.557-0.031l0,0C1144.995,432.313,1145.009,432.053,1145.17,431.907z"/>
	<path fill="#475059" d="M1143.847,430.381l8.413-7.744c0.162-0.146,0.412-0.133,0.557,0.033l0,0c0.144,0.166,0.13,0.422-0.031,0.57
		l-8.413,7.746c-0.161,0.146-0.411,0.133-0.556-0.033l0,0C1143.671,430.788,1143.687,430.532,1143.847,430.381z"/>
	<path fill="#475059" d="M1136.9,422.389l8.413-7.742c0.161-0.148,0.41-0.135,0.556,0.031l0,0c0.144,0.166,0.131,0.424-0.031,0.572
		l-8.414,7.744c-0.161,0.146-0.411,0.133-0.555-0.033l0,0C1136.726,422.795,1136.739,422.538,1136.9,422.389z"/>
	<path fill="#475059" d="M1135.578,420.866l8.412-7.744c0.162-0.148,0.412-0.135,0.556,0.033l0,0
		c0.146,0.166,0.131,0.422-0.031,0.57l-8.412,7.744c-0.161,0.148-0.411,0.135-0.556-0.031l0,0
		C1135.402,421.272,1135.417,421.014,1135.578,420.866z"/>
	<path fill="#475059" d="M1128.623,412.868l8.413-7.746c0.161-0.148,0.412-0.133,0.556,0.033l0,0c0.145,0.166,0.13,0.422-0.032,0.57
		l-8.412,7.746c-0.161,0.148-0.412,0.135-0.556-0.033l0,0C1128.448,413.272,1128.462,413.016,1128.623,412.868z"/>
	<path fill="#475059" d="M1127.3,411.342l8.414-7.744c0.161-0.146,0.411-0.133,0.557,0.033l0,0c0.144,0.166,0.13,0.424-0.032,0.572
		l-8.413,7.744c-0.162,0.148-0.412,0.135-0.557-0.031l0,0C1127.125,411.749,1127.139,411.493,1127.3,411.342z"/>
	<path fill="#475059" d="M1120.367,403.35l8.414-7.742c0.161-0.148,0.411-0.135,0.556,0.031l0,0c0.145,0.166,0.13,0.424-0.031,0.572
		l-8.413,7.744c-0.161,0.148-0.411,0.133-0.556-0.033l0,0C1120.192,403.756,1120.206,403.5,1120.367,403.35z"/>
	<path fill="#475059" d="M1119.044,401.829l8.413-7.744c0.162-0.148,0.412-0.135,0.556,0.031l0,0
		c0.145,0.166,0.129,0.424-0.031,0.572l-8.413,7.744c-0.161,0.148-0.411,0.135-0.556-0.031l0,0
		C1118.869,402.235,1118.883,401.977,1119.044,401.829z"/>
	<path fill="#475059" d="M1111.373,392.995l8.413-7.746c0.162-0.148,0.411-0.133,0.556,0.033l0,0c0.145,0.166,0.13,0.424-0.03,0.572
		l-8.413,7.744c-0.161,0.148-0.411,0.135-0.556-0.031l0,0C1111.197,393.399,1111.212,393.141,1111.373,392.995z"/>
	<path fill="#475059" d="M1110.05,391.469l8.413-7.744c0.162-0.148,0.412-0.133,0.556,0.033l0,0
		c0.146,0.166,0.131,0.424-0.029,0.572l-8.414,7.744c-0.161,0.146-0.411,0.133-0.555-0.033l0,0
		C1109.875,391.875,1109.889,391.618,1110.05,391.469z"/>
	<path fill="#475059" d="M1102.938,383.256l8.412-7.744c0.161-0.148,0.411-0.135,0.557,0.033l0,0c0.144,0.166,0.13,0.422-0.03,0.572
		l-8.414,7.744c-0.161,0.148-0.411,0.133-0.556-0.033l0,0C1102.763,383.663,1102.776,383.405,1102.938,383.256z"/>
	<path fill="#475059" d="M1101.614,381.733l8.413-7.744c0.161-0.148,0.411-0.135,0.556,0.031l0,0c0.145,0.166,0.13,0.424-0.03,0.572
		l-8.414,7.744c-0.161,0.148-0.411,0.135-0.556-0.033l0,0C1101.438,382.139,1101.454,381.881,1101.614,381.733z"/>
	<polygon fill="#1B1F21" points="1103.96,500.194 1164.679,444.301 1164.861,444.51 1104.143,500.403 	"/>
	<polygon fill="#1B1F21" points="1108.339,505.237 1169.058,449.346 1169.241,449.555 1108.522,505.448 	"/>
	<polygon fill="#1B1F21" points="1112.172,509.651 1172.891,453.758 1173.073,453.969 1112.354,509.862 	"/>
	<polygon fill="#1B1F21" points="1099.763,495.36 1160.481,439.467 1160.664,439.678 1099.945,495.569 	"/>
	<polygon fill="#1B1F21" points="1095.566,490.526 1156.284,434.633 1156.466,434.844 1095.748,490.737 	"/>
	<polygon fill="#1B1F21" points="1091.368,485.692 1152.087,429.799 1152.271,430.01 1091.551,485.903 	"/>
	<polygon fill="#1B1F21" points="1087.111,480.913 1147.89,424.965 1148.072,425.176 1087.293,481.124 	"/>
	<polygon fill="#1B1F21" points="1082.914,476.079 1143.692,420.131 1143.875,420.342 1083.096,476.29 	"/>
	<polygon fill="#1B1F21" points="1078.897,471.456 1139.677,415.508 1139.86,415.717 1079.081,471.667 	"/>
	<polygon fill="#1B1F21" points="1074.519,466.411 1135.297,410.463 1135.479,410.674 1074.701,466.622 	"/>
	<polygon fill="#1B1F21" points="1070.504,461.788 1131.283,405.84 1131.465,406.049 1070.687,461.999 	"/>
	<polygon fill="#1B1F21" points="1066.489,457.165 1127.268,401.217 1127.451,401.426 1066.672,457.374 	"/>
	<polygon fill="#1B1F21" points="1062.109,452.12 1122.888,396.172 1123.07,396.383 1062.292,452.331 	"/>
	<polygon fill="#1B1F21" points="1057.547,446.866 1118.326,390.918 1118.508,391.129 1057.729,447.077 	"/>
	<polygon fill="#1B1F21" points="1053.167,441.823 1113.946,385.875 1114.128,386.084 1053.35,442.032 	"/>
	<polygon fill="#1B1F21" points="1048.97,436.989 1109.748,381.042 1109.931,381.25 1049.152,437.198 	"/>
	<polygon fill="#1B1F21" points="1044.59,431.944 1105.369,375.997 1105.552,376.208 1044.772,432.155 	"/>
	<path fill="#1B1F21" d="M1040.431,426.698l60.559-55.746l0.183,0.211l-60.602,55.785
		C1040.521,426.866,1040.475,426.782,1040.431,426.698z"/>
</g>
<g id="Layer_4">
	<polygon fill="#F9F9F7" points="1300.139,521.778 1244.245,470.61 1303.367,402.122 1359.26,453.288 	"/>
	<polygon fill="#F9F9F7" points="938.668,296.269 968.939,366.68 887.538,403.731 857.268,333.319 	"/>
	<path fill="#F4BA2E" d="M1260.095,509.665l8.216-52.613c0.052-0.324-0.319-0.652-0.827-0.736l-4.894-0.814
		c-0.506-0.084-0.958,0.107-1.009,0.432l-8.216,52.613c-0.009,0.045-0.007,0.09,0.003,0.135l6.681,1.113
		C1260.073,509.752,1260.088,509.709,1260.095,509.665z"/>
	<path fill="#FFDB92" d="M1264.578,455.831l-1.988-0.33c-0.506-0.084-0.958,0.107-1.009,0.432l-8.216,52.613
		c-0.009,0.045-0.006,0.09,0.003,0.135l1.989,0.332c-0.007-0.035-0.011-0.068-0.007-0.102c0-0.012,0.002-0.023,0.003-0.035
		l8.216-52.613C1263.62,455.94,1264.071,455.747,1264.578,455.831z"/>
	<path fill="#FFCC5A" d="M1257.725,509.27l8.216-52.613c0.051-0.322-0.055-0.609-0.231-0.639l-1.726-0.285
		c-0.179-0.031-0.364,0.207-0.414,0.529l-8.216,52.613c-0.001,0.012-0.005,0.023-0.003,0.035c-0.007,0.033-0.008,0.064-0.011,0.1
		l2.356,0.393C1257.707,509.358,1257.718,509.315,1257.725,509.27z"/>
	<path fill="#EDEDED" d="M1253.367,508.68c0,0,1.186,11.857,1.565,11.936c0.379,0.076,5.12-10.822,5.12-10.822L1253.367,508.68z"/>
	<path fill="#2D3538" d="M1254.234,516.516c0,0,0.479,4.189,0.679,4.189c0.251,0,1.929-3.74,1.929-3.74L1254.234,516.516z"/>
	<path fill="#CECFD1" d="M1051.411,330.493c3.393,1.646,7.475,0.141,9.073-3.352l20.008-43.718c1.597-3.492,0.13-7.697-3.263-9.345
		l-58.939-28.64c-3.392-1.648-7.474-0.141-9.072,3.351l-20.007,43.719c-1.598,3.491-0.13,7.696,3.262,9.345L1051.411,330.493z"/>
	<path opacity="0.15" fill="#231F20" enable-background="new    " d="M1056.349,263.932l24.786,17.672
		c-0.04,0.663-0.649,1.851-0.956,2.507l-9.594,20.515c0,0-17.999,26.259-18.068,26.349l-23.647-12.101l-37.063-24.763l0.461-1.226
		l57.875-31.916L1056.349,263.932z"/>
	<path fill="#F6F4F4" d="M1041.2,331.385c3.033,2.271,7.317,1.576,9.521-1.545l27.598-39.086c2.203-3.122,1.524-7.535-1.509-9.806
		l-52.708-39.479c-3.032-2.272-7.317-1.577-9.521,1.545L986.984,282.1c-2.205,3.122-1.526,7.534,1.507,9.806L1041.2,331.385z"/>
	<path opacity="0.2" fill="#231F20" enable-background="new    " d="M1010.139,250.862l12.668,8.195c0,0,1.488,1.414,2.811-0.287
		c1.319-1.702,5.686-12.012,5.686-12.012L1010.139,250.862z"/>
	<path fill="#DEDEDE" d="M1009.457,250.367l11.254,8.17c0,0,1.489,1.414,2.81-0.288c1.321-1.702,7.836-11.452,7.836-11.452
		L1009.457,250.367z"/>
	<path opacity="0.15" fill="#231F20" enable-background="new    " d="M1041.51,269.004c0.421,0.318,0.513,0.927,0.205,1.359
		l-21.188,30.042c-0.309,0.433-0.898,0.527-1.319,0.21l0,0c-0.421-0.317-0.513-0.925-0.206-1.358l21.189-30.042
		C1040.499,268.782,1041.089,268.688,1041.51,269.004L1041.51,269.004z"/>
	<path opacity="0.15" fill="#231F20" enable-background="new    " d="M1038.444,280.105c0.421,0.317,0.513,0.926,0.205,1.359
		l-15.044,21.179c-0.308,0.435-0.897,0.527-1.319,0.21l0,0c-0.421-0.316-0.513-0.926-0.205-1.358l15.044-21.179
		C1037.432,279.882,1038.022,279.788,1038.444,280.105L1038.444,280.105z"/>
	<path opacity="0.15" fill="#231F20" enable-background="new    " d="M1048.004,273.725c0.422,0.317,0.513,0.926,0.206,1.359
		l-21.188,30.042c-0.309,0.434-0.898,0.528-1.32,0.211l0,0c-0.421-0.318-0.512-0.926-0.205-1.36l21.189-30.042
		C1046.992,273.501,1047.583,273.408,1048.004,273.725L1048.004,273.725z"/>
	<path opacity="0.15" fill="#231F20" enable-background="new    " d="M1043.451,288.119c0.422,0.318,0.513,0.927,0.205,1.36
		l-12.995,18.292c-0.307,0.434-0.897,0.528-1.32,0.211l0,0c-0.421-0.317-0.513-0.927-0.205-1.359l12.994-18.293
		C1042.438,287.897,1043.03,287.802,1043.451,288.119L1043.451,288.119z"/>
	<path opacity="0.15" fill="#231F20" enable-background="new    " d="M1049.326,287.14c0.421,0.317,0.513,0.926,0.205,1.36
		l-15.454,21.756c-0.309,0.434-0.898,0.527-1.32,0.209l0,0c-0.42-0.316-0.512-0.925-0.204-1.358l15.453-21.756
		C1048.313,286.917,1048.905,286.822,1049.326,287.14L1049.326,287.14z"/>
	<path opacity="0.15" fill="#231F20" enable-background="new    " d="M1058.748,281.534c0.421,0.317,0.512,0.926,0.204,1.359
		l-21.189,30.042c-0.307,0.434-0.896,0.528-1.318,0.21l0,0c-0.421-0.316-0.512-0.925-0.205-1.358l21.188-30.042
		C1057.735,281.311,1058.327,281.217,1058.748,281.534L1058.748,281.534z"/>
	<path opacity="0.15" fill="#231F20" enable-background="new    " d="M1062.092,283.965c0.421,0.317,0.513,0.926,0.205,1.36
		l-21.188,30.041c-0.309,0.434-0.899,0.526-1.32,0.21l0,0c-0.421-0.317-0.513-0.925-0.206-1.359l21.189-30.042
		C1061.08,283.742,1061.67,283.647,1062.092,283.965L1062.092,283.965z"/>
	<path fill="#2D3538" d="M975.387,271.188l9.824-52.318c0.06-0.322-0.3-0.664-0.803-0.765l-4.868-0.973
		c-0.503-0.101-0.961,0.078-1.021,0.399l-9.822,52.318c-0.009,0.044-0.01,0.09-0.001,0.136l6.644,1.328
		C975.363,271.274,975.378,271.232,975.387,271.188z"/>
	<path fill="#475059" d="M981.517,217.527l-1.977-0.396c-0.503-0.101-0.961,0.078-1.021,0.399l-9.822,52.318
		c-0.009,0.044-0.01,0.09-0.001,0.136l1.978,0.396c-0.006-0.035-0.007-0.068-0.004-0.103c0-0.011,0.002-0.023,0.005-0.033
		l9.824-52.319C980.556,217.604,981.014,217.426,981.517,217.527z"/>
	<path fill="#3A4349" d="M973.029,270.717l9.822-52.32c0.062-0.322-0.034-0.61-0.211-0.646l-1.716-0.344
		c-0.177-0.035-0.37,0.196-0.43,0.518l-9.824,52.319c-0.002,0.01-0.004,0.022-0.005,0.033c-0.006,0.033-0.009,0.066-0.013,0.1
		l2.343,0.468C973.009,270.805,973.021,270.761,973.029,270.717z"/>
	<path fill="#6B3E1F" d="M968.691,269.985c0,0,0.821,11.891,1.199,11.979c0.378,0.089,5.449-10.65,5.449-10.65L968.691,269.985z"/>
	<path fill="#F6F4F4" d="M969.318,277.844c0,0,0.35,4.204,0.551,4.21c0.251,0.009,2.043-3.675,2.043-3.675L969.318,277.844z"/>
	<path fill="#252B2D" d="M1005.229,277.544l-30.434-43.135c-0.188-0.266-0.675-0.228-1.091,0.083l-4.009,2.998
		c-0.415,0.31-0.602,0.777-0.414,1.042l30.433,43.134c0.026,0.038,0.058,0.068,0.097,0.093l5.474-4.092
		C1005.275,277.621,1005.256,277.581,1005.229,277.544z"/>
	<path fill="#414A51" d="M971.326,236.272l-1.629,1.218c-0.415,0.31-0.602,0.777-0.414,1.042l30.433,43.134
		c0.026,0.038,0.059,0.068,0.097,0.093l1.63-1.218c-0.029-0.019-0.055-0.042-0.076-0.067c-0.008-0.007-0.015-0.017-0.021-0.026
		l-30.434-43.134C970.725,237.049,970.911,236.582,971.326,236.272z"/>
	<path fill="#323B3F" d="M1003.288,278.997l-30.434-43.135c-0.188-0.265-0.457-0.391-0.604-0.282l-1.414,1.057
		c-0.145,0.109-0.113,0.412,0.074,0.677l30.434,43.134c0.006,0.009,0.013,0.019,0.021,0.026c0.02,0.028,0.041,0.053,0.062,0.078
		l1.931-1.443C1003.337,279.071,1003.314,279.033,1003.288,278.997z"/>
	<path fill="#8E6040" d="M999.811,281.761c0,0,9,7.505,9.321,7.281c0.321-0.223-3.843-11.376-3.843-11.376L999.811,281.761z"/>
	<path fill="#323B3F" d="M1005.816,286.658c0,0,3.222,2.607,3.363,2.461c0.178-0.182-1.215-4.047-1.215-4.047L1005.816,286.658z"/>
</g>
<g id="Layer_2">
	<path fill="#3A4349" d="M888.967,418.698c0.868-2.98,34.062-36.443,65.734-65.049c32.836-29.658,115.708-77.497,115.708-77.497
		c57.324-24.554,150.577-37.201,150.577-37.201l59.243,0.471l0.301,103.405l-153.682-1.547
		c-24.777,17.113-89.265,35.434-106.785,42.789c-2.863,1.201-4.483,1.871-4.483,1.871c-8.606,7.811-19.803,8.42-25.893,12.025
		c-8.278,4.904-16.349,8.432-23.318,15.154c-6.636,6.398-16.802,10.061-24.04,14.844c-10.701,7.072-17.974,14.15-22.185,16.207
		c-1.396,0.682-2.18,1.039-2.18,1.039C888.097,444.778,888.967,418.698,888.967,418.698z"/>
	<path fill="#1B1F21" d="M920.146,444.168c29.545-31.418,135.773-128.259,135.773-128.259l1.76,41.14
		c-2.863,1.201-44.204,30.715-44.204,30.715c-11.188,6.268-27.972,16.082-34.169,19.898c-12.013,7.395-31.972,19.408-40.522,24.785
		S920.146,444.168,920.146,444.168z"/>
	<path fill="#475059" d="M844.771,294.298l33.279,5.483c0,0,83.346,19.563,115.764,22.854c0,0,78.55,9.053,105.764,11.09
		c0,0,150.785,5.016,172.772,6.402l13.777,64.043l-58.19,30.941c0,0-65.477-10.666-132.565-23.037
		c-53.338-9.836-107.697-20.754-130.983-28.25l-60.804-19.859c-6.553-2.139-34.982-12.434-42.333-16.879
		c-4.734-2.861-10.391-2.271-16.57-11.283c0,0-12.081-6.828-19.949-19.725c0,0-6.449,1.754-6.787-2.766
		C817.607,308.794,829.122,294.517,844.771,294.298z"/>
	<path fill="#1B1F21" d="M812.771,482.409c-0.363-25.967,25.455-37.463,38.791-41.664c5.883-1.854,11.497-4.502,16.677-7.916
		l16.389-10.807c0,0,1.582,24.791,28.18,26.963l-45.238,40.076l-9.961,8.824c-7.276,6.756-19.301,13.219-28.66,10.213
		c-4.396-1.41-8.655-4.016-11.698-8.623v-0.002C814.602,495.471,812.875,489.958,812.771,482.409z"/>
	<path fill="#512D10" d="M1304.748,232.452c0,0-31.336-5.745-32.617,1.718c-14.396,83.879,1.195,205.325,1.195,205.325l40.595-3.777
		L1304.748,232.452z"/>
	<path fill="#2D3538" d="M844.681,335.805c72.242,38.234,253.25,65.941,253.25,65.941l-2.56,10.328
		c-53.338-9.836-107.697-20.754-130.983-28.25l-60.804-19.859c-6.553-2.139-34.347-11.072-42.004-14.93
		C854.716,345.581,846.346,339.301,844.681,335.805z"/>
	<path fill="#EAEAEA" d="M1255.935,253.002l2.338,167.17c0.067,4.891-3.728,8.91-8.478,8.977l-108.261,1.512
		c-4.75,0.066-8.655-3.844-8.725-8.734l-2.337-167.171c-0.067-4.892,3.728-8.91,8.477-8.976l108.261-1.513
		C1251.96,244.2,1255.866,248.111,1255.935,253.002z"/>
	<path fill="#B2B2B2" d="M1202.72,260.152l2.169,155.163c0.026,1.85-1.409,3.367-3.204,3.393l-57.855,0.809
		c-1.794,0.025-3.271-1.453-3.297-3.303l-2.169-155.162c-0.026-1.848,1.409-3.366,3.204-3.392l57.854-0.809
		C1201.218,256.827,1202.694,258.305,1202.72,260.152z"/>
	<path fill="#BFBFBF" d="M1251.381,308.637l0.778,55.692c0.018,1.27-0.967,2.313-2.2,2.33l-38.049,0.533
		c-1.233,0.016-2.247-0.998-2.265-2.268l-0.778-55.692c-0.019-1.271,0.967-2.313,2.2-2.329l38.049-0.532
		C1250.349,306.353,1251.363,307.368,1251.381,308.637z"/>
	<g>
		<path fill="#FFFFFF" d="M1149.586,408.022l0.094,6.67c0.014,0.932-0.71,1.695-1.612,1.709l-2.688,0.037
			c-0.904,0.012-1.646-0.732-1.66-1.662l-0.093-6.67c-0.013-0.932,0.709-1.695,1.613-1.709l2.687-0.037
			C1148.83,406.346,1149.573,407.09,1149.586,408.022z"/>
		<path fill="#FFFFFF" d="M1149.429,396.77l0.094,6.672c0.013,0.93-0.709,1.693-1.612,1.707l-2.688,0.037
			c-0.902,0.012-1.646-0.73-1.66-1.662l-0.093-6.672c-0.014-0.93,0.709-1.693,1.613-1.707l2.687-0.037
			C1148.672,395.094,1149.416,395.838,1149.429,396.77z"/>
		<path fill="#FFFFFF" d="M1149.272,385.518l0.093,6.672c0.013,0.93-0.709,1.695-1.613,1.709l-2.687,0.037
			c-0.903,0.014-1.646-0.732-1.66-1.662l-0.094-6.67c-0.013-0.932,0.709-1.695,1.612-1.709l2.688-0.037
			C1148.515,383.844,1149.259,384.588,1149.272,385.518z"/>
		<path fill="#FFFFFF" d="M1149.114,374.268l0.094,6.672c0.013,0.93-0.71,1.693-1.613,1.707l-2.687,0.037
			c-0.904,0.014-1.647-0.73-1.66-1.662l-0.094-6.672c-0.014-0.93,0.709-1.693,1.612-1.707l2.688-0.037
			C1148.358,372.592,1149.103,373.336,1149.114,374.268z"/>
		<path fill="#FFFFFF" d="M1148.957,363.016l0.093,6.67c0.014,0.932-0.709,1.695-1.613,1.707l-2.687,0.039
			c-0.903,0.014-1.647-0.73-1.66-1.662l-0.093-6.67c-0.013-0.932,0.709-1.695,1.613-1.709l2.687-0.037
			C1148.201,361.34,1148.944,362.084,1148.957,363.016z"/>
		<path fill="#FFFFFF" d="M1148.8,351.764l0.094,6.672c0.013,0.932-0.709,1.695-1.613,1.707l-2.688,0.037
			c-0.902,0.014-1.646-0.73-1.66-1.662l-0.093-6.67c-0.013-0.932,0.709-1.693,1.612-1.707l2.688-0.037
			C1148.043,350.09,1148.787,350.834,1148.8,351.764z"/>
		<path fill="#FFFFFF" d="M1148.643,340.514l0.094,6.67c0.014,0.932-0.709,1.695-1.612,1.709l-2.688,0.037
			c-0.903,0.014-1.646-0.73-1.66-1.662l-0.093-6.67c-0.013-0.932,0.709-1.695,1.613-1.709l2.687-0.037
			C1147.886,338.838,1148.629,339.583,1148.643,340.514z"/>
		<path fill="#FFFFFF" d="M1148.485,329.262l0.093,6.672c0.013,0.93-0.709,1.693-1.613,1.707l-2.687,0.037
			c-0.904,0.014-1.647-0.729-1.66-1.662l-0.094-6.672c-0.013-0.93,0.709-1.693,1.613-1.707l2.688-0.037
			C1147.729,327.588,1148.472,328.333,1148.485,329.262z"/>
		<path fill="#FFFFFF" d="M1148.328,318.011l0.094,6.671c0.013,0.932-0.709,1.695-1.613,1.707l-2.687,0.037
			c-0.903,0.014-1.647-0.73-1.66-1.662l-0.094-6.67c-0.014-0.931,0.71-1.694,1.613-1.708l2.687-0.038
			C1147.572,316.337,1148.315,317.081,1148.328,318.011z"/>
		<path fill="#FFFFFF" d="M1148.171,306.761l0.093,6.67c0.014,0.932-0.709,1.695-1.611,1.708l-2.688,0.038
			c-0.904,0.013-1.646-0.73-1.66-1.663l-0.094-6.67c-0.013-0.931,0.709-1.694,1.613-1.708l2.687-0.038
			C1147.414,305.086,1148.157,305.83,1148.171,306.761z"/>
		<path fill="#FFFFFF" d="M1148.014,295.509l0.094,6.671c0.014,0.932-0.709,1.695-1.612,1.708l-2.688,0.037
			c-0.903,0.013-1.646-0.73-1.66-1.662l-0.093-6.671c-0.013-0.93,0.709-1.695,1.613-1.708l2.687-0.038
			C1147.257,293.835,1148,294.579,1148.014,295.509z"/>
		<path fill="#FFFFFF" d="M1147.856,284.258l0.093,6.672c0.013,0.93-0.709,1.694-1.612,1.707l-2.688,0.038
			c-0.903,0.013-1.646-0.731-1.659-1.662l-0.095-6.672c-0.013-0.93,0.709-1.694,1.613-1.707l2.688-0.038
			C1147.1,282.584,1147.843,283.328,1147.856,284.258z"/>
		<path fill="#FFFFFF" d="M1147.699,273.006l0.093,6.672c0.013,0.93-0.709,1.695-1.612,1.708l-2.687,0.037
			c-0.904,0.013-1.647-0.731-1.66-1.661l-0.093-6.672c-0.014-0.93,0.709-1.695,1.612-1.708l2.688-0.038
			C1146.942,271.332,1147.687,272.076,1147.699,273.006z"/>
		<path fill="#FFFFFF" d="M1147.542,261.756l0.093,6.671c0.013,0.93-0.709,1.695-1.612,1.707l-2.687,0.038
			c-0.904,0.012-1.647-0.731-1.66-1.662l-0.093-6.671c-0.013-0.93,0.709-1.695,1.613-1.708l2.687-0.038
			C1146.785,260.081,1147.528,260.825,1147.542,261.756z"/>
		<path fill="#FFFFFF" d="M1159.312,407.157l0.116,8.35c0.002,0.209-0.159,0.379-0.36,0.383l-8.11,0.113
			c-0.202,0.002-0.368-0.164-0.371-0.373l-0.116-8.35c-0.003-0.209,0.158-0.379,0.36-0.381l8.109-0.113
			C1159.142,406.784,1159.308,406.95,1159.312,407.157z"/>
		<path fill="#FFFFFF" d="M1169.317,390.502l0.116,8.35c0.003,0.207-0.157,0.379-0.359,0.381l-8.109,0.113
			c-0.202,0.004-0.368-0.164-0.371-0.371l-0.116-8.35c-0.004-0.209,0.157-0.379,0.359-0.383l8.109-0.113
			C1169.147,390.127,1169.313,390.293,1169.317,390.502z"/>
		<path fill="#FFFFFF" d="M1179.522,387.926l0.116,8.352c0.003,0.209-0.159,0.379-0.36,0.383l-8.108,0.113
			c-0.203,0.002-0.369-0.164-0.371-0.373l-0.117-8.35c-0.003-0.209,0.158-0.379,0.36-0.383l8.109-0.113
			C1179.353,387.553,1179.519,387.719,1179.522,387.926z"/>
		<path fill="#FFFFFF" d="M1189.68,382.116l0.117,8.352c0.003,0.207-0.158,0.377-0.36,0.381l-8.108,0.113
			c-0.202,0.002-0.368-0.164-0.371-0.371l-0.117-8.35c-0.003-0.209,0.158-0.379,0.36-0.383l8.109-0.113
			C1189.511,381.743,1189.677,381.909,1189.68,382.116z"/>
		<path fill="#FFFFFF" d="M1201.386,406.59l0.116,8.307c0.003,0.221-0.168,0.4-0.382,0.404l-9.192,0.127
			c-0.214,0.004-0.391-0.172-0.394-0.393l-0.116-8.305c-0.003-0.223,0.168-0.402,0.383-0.406l9.191-0.127
			C1201.206,406.194,1201.383,406.372,1201.386,406.59z"/>
		<path fill="#FFFFFF" d="M1201.231,395.502l0.115,8.303c0.003,0.223-0.168,0.402-0.382,0.406l-9.19,0.129
			c-0.215,0.002-0.392-0.174-0.395-0.395l-0.116-8.305c-0.002-0.221,0.168-0.402,0.384-0.404l9.19-0.129
			C1201.051,395.104,1201.228,395.282,1201.231,395.502z"/>
		<path fill="#FFFFFF" d="M1201.08,384.749l0.116,8.303c0.003,0.223-0.168,0.402-0.384,0.406l-9.19,0.127
			c-0.214,0.004-0.392-0.174-0.395-0.395l-0.117-8.305c-0.003-0.221,0.168-0.4,0.384-0.404l9.19-0.129
			C1200.901,384.35,1201.078,384.526,1201.08,384.749z"/>
		<path fill="#FFFFFF" d="M1200.891,371.194l0.153,10.957c0.004,0.252-0.192,0.459-0.438,0.463l-9.082,0.127
			c-0.244,0.004-0.445-0.199-0.449-0.451l-0.153-10.957c-0.004-0.252,0.192-0.459,0.438-0.463l9.082-0.127
			C1200.687,370.741,1200.887,370.942,1200.891,371.194z"/>
		<path fill="#FFFFFF" d="M1199.948,303.788l0.152,10.957c0.004,0.252-0.191,0.459-0.437,0.462l-9.081,0.127
			c-0.245,0.003-0.446-0.198-0.45-0.45l-0.153-10.957c-0.003-0.252,0.192-0.459,0.438-0.463l9.081-0.126
			C1199.743,303.333,1199.945,303.535,1199.948,303.788z"/>
		<path fill="#FFFFFF" d="M1199.793,292.694l0.114,8.187c0.003,0.219-0.167,0.399-0.38,0.402l-9.197,0.128
			c-0.212,0.002-0.388-0.172-0.392-0.392l-0.113-8.187c-0.004-0.219,0.167-0.399,0.38-0.402l9.196-0.128
			C1199.616,292.3,1199.791,292.475,1199.793,292.694z"/>
		<path fill="#FFFFFF" d="M1200.14,317.477l0.707,50.561c0.009,0.529-0.403,0.965-0.918,0.973l-8.104,0.113
			c-0.516,0.008-0.938-0.416-0.945-0.947l-0.707-50.559c-0.007-0.53,0.404-0.966,0.918-0.974l8.104-0.113
			C1199.709,316.523,1200.132,316.947,1200.14,317.477z"/>
		<path fill="#FFFFFF" d="M1189.528,371.272l0.116,8.35c0.002,0.209-0.159,0.379-0.36,0.383l-8.109,0.113
			c-0.202,0.002-0.368-0.164-0.371-0.371l-0.117-8.35c-0.003-0.211,0.159-0.381,0.36-0.383l8.11-0.113
			C1189.359,370.899,1189.525,371.065,1189.528,371.272z"/>
		<path fill="#FFFFFF" d="M1189.377,360.428l0.117,8.352c0.003,0.207-0.159,0.379-0.36,0.381l-8.109,0.113
			c-0.201,0.002-0.367-0.164-0.37-0.371l-0.117-8.352c-0.003-0.209,0.158-0.379,0.36-0.381l8.108-0.113
			C1189.208,360.055,1189.374,360.221,1189.377,360.428z"/>
		<path fill="#FFFFFF" d="M1189.226,349.584l0.117,8.35c0.002,0.209-0.159,0.381-0.361,0.383l-8.108,0.113
			c-0.202,0.002-0.368-0.164-0.371-0.373l-0.117-8.35c-0.003-0.207,0.159-0.379,0.361-0.381l8.108-0.113
			C1189.056,349.209,1189.222,349.377,1189.226,349.584z"/>
		<path fill="#FFFFFF" d="M1189.074,338.741l0.116,8.35c0.004,0.209-0.157,0.379-0.359,0.383l-8.109,0.113
			c-0.202,0.004-0.368-0.164-0.371-0.371l-0.116-8.352c-0.003-0.207,0.157-0.377,0.359-0.381l8.109-0.113
			C1188.904,338.366,1189.071,338.532,1189.074,338.741z"/>
		<path fill="#FFFFFF" d="M1188.922,327.897l0.117,8.35c0.003,0.207-0.159,0.379-0.36,0.381l-8.109,0.115
			c-0.202,0.002-0.368-0.164-0.371-0.373l-0.117-8.352c-0.003-0.207,0.159-0.379,0.36-0.381l8.109-0.113
			C1188.753,327.522,1188.919,327.688,1188.922,327.897z"/>
		<path fill="#FFFFFF" d="M1188.771,317.053l0.117,8.352c0.003,0.207-0.159,0.379-0.359,0.381l-8.11,0.113
			c-0.202,0.004-0.368-0.164-0.371-0.371l-0.117-8.352c-0.003-0.208,0.158-0.379,0.36-0.382l8.109-0.113
			C1188.601,316.678,1188.768,316.845,1188.771,317.053z"/>
		<path fill="#FFFFFF" d="M1188.619,306.208l0.117,8.351c0.002,0.208-0.159,0.38-0.361,0.383l-8.109,0.112
			c-0.202,0.003-0.368-0.164-0.37-0.372l-0.116-8.35c-0.003-0.208,0.157-0.379,0.359-0.382l8.109-0.113
			C1188.45,305.834,1188.616,306,1188.619,306.208z"/>
		<path fill="#FFFFFF" d="M1188.467,295.365l0.117,8.35c0.003,0.208-0.158,0.379-0.36,0.382l-8.108,0.113
			c-0.202,0.003-0.368-0.163-0.371-0.371l-0.117-8.351c-0.003-0.208,0.158-0.379,0.36-0.382l8.108-0.113
			C1188.298,294.991,1188.465,295.157,1188.467,295.365z"/>
		<path fill="#FFFFFF" d="M1199.808,282.901l0.09,6.348c0.011,0.808-0.615,1.47-1.399,1.481l-2.297,0.032
			c-0.784,0.011-1.429-0.634-1.44-1.441l-0.088-6.348c-0.012-0.807,0.614-1.47,1.399-1.481l2.297-0.032
			C1199.152,281.449,1199.797,282.094,1199.808,282.901z"/>
		<path fill="#FFFFFF" d="M1199.656,272.024l0.088,6.348c0.012,0.808-0.614,1.47-1.398,1.481l-2.297,0.032
			c-0.784,0.011-1.428-0.633-1.438-1.441l-0.088-6.349c-0.012-0.807,0.614-1.47,1.397-1.481l2.297-0.032
			C1199,270.571,1199.646,271.217,1199.656,272.024z"/>
		<path fill="#FFFFFF" d="M1193.899,272.104l0.089,6.348c0.012,0.808-0.615,1.47-1.399,1.481l-2.296,0.032
			c-0.784,0.011-1.429-0.634-1.44-1.441l-0.088-6.348c-0.012-0.807,0.615-1.47,1.398-1.481l2.297-0.032
			C1193.244,270.652,1193.888,271.297,1193.899,272.104z"/>
		<path fill="#FFFFFF" d="M1199.504,261.146l0.089,6.348c0.012,0.807-0.615,1.47-1.397,1.481l-2.297,0.032
			c-0.784,0.011-1.429-0.634-1.439-1.441l-0.089-6.349c-0.011-0.806,0.615-1.47,1.398-1.48l2.297-0.033
			C1198.848,259.693,1199.493,260.339,1199.504,261.146z"/>
		<path fill="#FFFFFF" d="M1179.369,376.983l0.117,8.35c0.003,0.209-0.158,0.379-0.361,0.381l-8.109,0.115
			c-0.202,0.002-0.368-0.164-0.37-0.373l-0.116-8.35c-0.003-0.207,0.157-0.381,0.359-0.383l8.109-0.111
			C1179.2,376.608,1179.366,376.776,1179.369,376.983z"/>
		<path fill="#FFFFFF" d="M1179.216,366.038l0.117,8.352c0.003,0.207-0.159,0.379-0.361,0.383l-8.108,0.111
			c-0.202,0.002-0.368-0.164-0.371-0.371l-0.117-8.352c-0.003-0.207,0.158-0.377,0.36-0.381l8.108-0.113
			C1179.047,365.665,1179.213,365.831,1179.216,366.038z"/>
		<path fill="#FFFFFF" d="M1179.063,355.094l0.116,8.35c0.002,0.209-0.159,0.379-0.36,0.383l-8.109,0.113
			c-0.202,0.002-0.368-0.164-0.371-0.373l-0.117-8.35c-0.003-0.209,0.159-0.379,0.361-0.383l8.109-0.113
			C1178.894,354.719,1179.06,354.885,1179.063,355.094z"/>
		<path fill="#FFFFFF" d="M1178.911,344.215l0.117,8.352c0.003,0.207-0.158,0.379-0.361,0.381l-8.109,0.113
			c-0.203,0.002-0.369-0.164-0.371-0.371l-0.116-8.352c-0.002-0.207,0.157-0.379,0.36-0.381l8.109-0.113
			C1178.742,343.842,1178.908,344.008,1178.911,344.215z"/>
		<path fill="#FFFFFF" d="M1178.758,333.272l0.117,8.352c0.003,0.207-0.159,0.377-0.361,0.381l-8.108,0.113
			c-0.202,0.002-0.368-0.164-0.371-0.371l-0.117-8.352c-0.002-0.207,0.158-0.379,0.361-0.381l8.108-0.113
			C1178.589,332.899,1178.755,333.065,1178.758,333.272z"/>
		<path fill="#FFFFFF" d="M1178.611,322.795l0.115,8.352c0.003,0.207-0.157,0.379-0.359,0.381l-8.109,0.113
			c-0.202,0.002-0.368-0.164-0.371-0.373l-0.116-8.35c-0.003-0.207,0.158-0.379,0.36-0.381l8.109-0.115
			C1178.442,322.422,1178.608,322.588,1178.611,322.795z"/>
		<path fill="#FFFFFF" d="M1178.459,311.953l0.117,8.351c0.003,0.208-0.158,0.378-0.361,0.381l-8.108,0.114
			c-0.202,0.002-0.368-0.164-0.371-0.372l-0.117-8.351c-0.003-0.208,0.159-0.38,0.359-0.382l8.109-0.113
			C1178.291,311.578,1178.457,311.745,1178.459,311.953z"/>
		<path fill="#FFFFFF" d="M1178.308,301.108l0.117,8.351c0.003,0.208-0.158,0.378-0.361,0.381l-8.108,0.114
			c-0.202,0.003-0.368-0.164-0.371-0.372l-0.117-8.351c-0.003-0.208,0.159-0.38,0.361-0.383l8.108-0.112
			C1178.139,300.734,1178.305,300.899,1178.308,301.108z"/>
		<path fill="#FFFFFF" d="M1178.157,290.332l0.117,8.351c0.003,0.208-0.158,0.378-0.361,0.382l-8.109,0.112
			c-0.202,0.002-0.368-0.163-0.371-0.371l-0.116-8.351c-0.003-0.208,0.157-0.379,0.359-0.382l8.109-0.113
			C1177.988,289.957,1178.154,290.123,1178.157,290.332z"/>
		<path fill="#FFFFFF" d="M1178.006,279.555l0.117,8.35c0.002,0.208-0.158,0.379-0.361,0.382l-8.108,0.114
			c-0.202,0.003-0.368-0.164-0.371-0.372l-0.117-8.35c-0.003-0.208,0.159-0.379,0.36-0.382l8.108-0.113
			C1177.838,279.18,1178.004,279.346,1178.006,279.555z"/>
		<path fill="#FFFFFF" d="M1188.317,284.627l0.116,8.35c0.003,0.208-0.159,0.378-0.359,0.381l-8.11,0.114
			c-0.202,0.003-0.368-0.164-0.371-0.372l-0.117-8.35c-0.003-0.208,0.158-0.379,0.36-0.382l8.109-0.113
			C1188.147,284.252,1188.313,284.418,1188.317,284.627z"/>
		<path fill="#FFFFFF" d="M1177.74,260.462l0.225,16.124c0.004,0.286-0.218,0.52-0.495,0.524l-7.837,0.109
			c-0.276,0.004-0.505-0.224-0.509-0.51l-0.225-16.124c-0.005-0.286,0.218-0.521,0.493-0.524l7.839-0.109
			C1177.508,259.947,1177.736,260.176,1177.74,260.462z"/>
		<path fill="#FFFFFF" d="M1187.979,260.397l0.303,21.622c0.004,0.33-0.251,0.6-0.571,0.604l-7.683,0.107
			c-0.32,0.004-0.583-0.259-0.588-0.588l-0.302-21.622c-0.005-0.329,0.251-0.6,0.571-0.604l7.683-0.108
			C1187.711,259.805,1187.974,260.068,1187.979,260.397z"/>
		<path fill="#FFFFFF" d="M1179.673,398.78l0.229,16.297c0.004,0.287-0.219,0.523-0.498,0.527l-7.831,0.109
			c-0.279,0.004-0.509-0.227-0.513-0.514l-0.228-16.297c-0.004-0.287,0.218-0.523,0.498-0.527l7.831-0.109
			C1179.44,398.264,1179.669,398.493,1179.673,398.78z"/>
		<path fill="#FFFFFF" d="M1189.833,393.094l0.307,21.938c0.004,0.332-0.252,0.604-0.574,0.607l-7.676,0.107
			c-0.321,0.006-0.586-0.26-0.591-0.592l-0.307-21.938c-0.004-0.332,0.252-0.604,0.575-0.609l7.675-0.107
			C1189.563,392.499,1189.829,392.762,1189.833,393.094z"/>
		<path fill="#FFFFFF" d="M1169.165,379.614l0.117,8.35c0.003,0.209-0.158,0.379-0.36,0.383l-8.108,0.113
			c-0.202,0.002-0.368-0.164-0.371-0.373l-0.117-8.35c-0.003-0.209,0.158-0.379,0.359-0.381l8.109-0.115
			C1168.996,379.239,1169.162,379.407,1169.165,379.614z"/>
		<path fill="#FFFFFF" d="M1169.014,368.792l0.117,8.352c0.003,0.207-0.158,0.379-0.36,0.381l-8.108,0.113
			c-0.202,0.002-0.368-0.164-0.371-0.371l-0.116-8.352c-0.003-0.207,0.158-0.379,0.359-0.381l8.109-0.113
			C1168.845,368.417,1169.011,368.584,1169.014,368.792z"/>
		<path fill="#FFFFFF" d="M1168.861,357.903l0.116,8.352c0.004,0.207-0.157,0.377-0.359,0.381l-8.11,0.113
			c-0.202,0.004-0.368-0.164-0.371-0.371l-0.116-8.352c-0.004-0.207,0.157-0.379,0.359-0.381l8.11-0.113
			C1168.693,357.53,1168.859,357.696,1168.861,357.903z"/>
		<path fill="#FFFFFF" d="M1168.71,347.014l0.116,8.352c0.003,0.209-0.158,0.379-0.36,0.381l-8.109,0.115
			c-0.202,0.002-0.367-0.164-0.37-0.371l-0.117-8.352c-0.002-0.209,0.158-0.379,0.36-0.383l8.109-0.111
			C1168.541,346.639,1168.707,346.807,1168.71,347.014z"/>
		<path fill="#FFFFFF" d="M1168.559,336.194l0.116,8.35c0.003,0.207-0.158,0.379-0.359,0.381l-8.109,0.113
			c-0.202,0.002-0.368-0.164-0.371-0.371l-0.116-8.35c-0.003-0.209,0.158-0.379,0.36-0.383l8.109-0.113
			C1168.39,335.819,1168.555,335.985,1168.559,336.194z"/>
		<path fill="#FFFFFF" d="M1168.41,325.618l0.117,8.35c0.003,0.207-0.158,0.379-0.36,0.381l-8.109,0.113
			c-0.201,0.004-0.367-0.164-0.371-0.371l-0.115-8.352c-0.003-0.207,0.158-0.379,0.358-0.381l8.11-0.113
			C1168.241,325.243,1168.407,325.409,1168.41,325.618z"/>
		<path fill="#FFFFFF" d="M1168.257,314.639l0.117,8.352c0.003,0.207-0.158,0.377-0.36,0.381l-8.108,0.113
			c-0.202,0.002-0.368-0.164-0.371-0.371l-0.117-8.352c-0.003-0.208,0.158-0.379,0.36-0.382l8.108-0.113
			C1168.088,314.265,1168.254,314.431,1168.257,314.639z"/>
		<path fill="#FFFFFF" d="M1168.104,303.795l0.116,8.352c0.003,0.208-0.157,0.378-0.359,0.381l-8.109,0.112
			c-0.202,0.003-0.367-0.163-0.37-0.37l-0.117-8.352c-0.002-0.208,0.158-0.379,0.36-0.382l8.109-0.113
			C1167.937,303.421,1168.103,303.587,1168.104,303.795z"/>
		<path fill="#FFFFFF" d="M1167.956,293.129l0.117,8.352c0.003,0.208-0.159,0.379-0.361,0.382l-8.109,0.112
			c-0.201,0.003-0.367-0.164-0.37-0.372l-0.117-8.351c-0.002-0.208,0.158-0.379,0.36-0.382l8.109-0.113
			C1167.787,292.755,1167.953,292.921,1167.956,293.129z"/>
		<path fill="#FFFFFF" d="M1167.801,282.018l0.116,8.351c0.003,0.208-0.157,0.379-0.359,0.382l-8.109,0.113
			c-0.202,0.003-0.367-0.164-0.37-0.372l-0.117-8.35c-0.003-0.208,0.158-0.379,0.36-0.382l8.108-0.113
			C1167.632,281.644,1167.798,281.81,1167.801,282.018z"/>
		<path fill="#FFFFFF" d="M1167.652,271.397l0.116,8.351c0.004,0.208-0.158,0.379-0.359,0.382l-8.11,0.113
			c-0.202,0.003-0.367-0.164-0.37-0.372l-0.117-8.35c-0.003-0.208,0.158-0.379,0.36-0.382l8.109-0.113
			C1167.483,271.023,1167.649,271.189,1167.652,271.397z"/>
		<path fill="#FFFFFF" d="M1167.5,260.464l0.116,8.351c0.003,0.208-0.158,0.379-0.36,0.381l-8.108,0.113
			c-0.203,0.003-0.368-0.164-0.371-0.371l-0.117-8.351c-0.003-0.208,0.158-0.379,0.359-0.382l8.109-0.113
			C1167.331,260.09,1167.497,260.256,1167.5,260.464z"/>
		<path fill="#FFFFFF" d="M1159.156,396.112l0.116,8.352c0.004,0.207-0.157,0.377-0.359,0.381l-8.109,0.113
			c-0.203,0.004-0.369-0.164-0.371-0.371l-0.116-8.352c-0.002-0.207,0.157-0.379,0.359-0.381l8.11-0.113
			C1158.987,395.737,1159.153,395.903,1159.156,396.112z"/>
		<path fill="#FFFFFF" d="M1159.006,385.403l0.117,8.35c0.003,0.207-0.158,0.379-0.36,0.381l-8.108,0.113
			c-0.203,0.004-0.369-0.162-0.371-0.371l-0.117-8.35c-0.003-0.209,0.159-0.379,0.36-0.383l8.109-0.113
			C1158.837,385.028,1159.003,385.194,1159.006,385.403z"/>
		<path fill="#FFFFFF" d="M1158.853,374.424l0.117,8.35c0.003,0.209-0.158,0.379-0.359,0.383l-8.109,0.111
			c-0.203,0.004-0.369-0.162-0.371-0.371l-0.117-8.35c-0.002-0.209,0.158-0.379,0.36-0.383l8.11-0.113
			C1158.684,374.049,1158.85,374.215,1158.853,374.424z"/>
		<path fill="#FFFFFF" d="M1158.703,363.719l0.117,8.352c0.003,0.207-0.159,0.379-0.36,0.381l-8.11,0.115
			c-0.202,0.002-0.368-0.164-0.37-0.373l-0.117-8.35c-0.003-0.209,0.158-0.379,0.359-0.383l8.109-0.113
			C1158.535,363.344,1158.7,363.51,1158.703,363.719z"/>
		<path fill="#FFFFFF" d="M1158.549,352.68l0.117,8.352c0.002,0.207-0.159,0.379-0.36,0.381l-8.109,0.113
			c-0.202,0.004-0.368-0.162-0.371-0.371l-0.116-8.352c-0.003-0.207,0.158-0.377,0.36-0.381l8.108-0.113
			C1158.38,352.307,1158.546,352.471,1158.549,352.68z"/>
		<path fill="#FFFFFF" d="M1158.401,342.071l0.116,8.352c0.003,0.207-0.159,0.379-0.359,0.381l-8.11,0.113
			c-0.203,0.004-0.368-0.164-0.371-0.371l-0.117-8.35c-0.002-0.209,0.158-0.379,0.36-0.381l8.11-0.113
			C1158.232,341.696,1158.397,341.862,1158.401,342.071z"/>
		<path fill="#FFFFFF" d="M1158.247,331.047l0.117,8.352c0.003,0.209-0.158,0.379-0.36,0.381l-8.109,0.115
			c-0.202,0.002-0.368-0.164-0.37-0.373l-0.117-8.352c-0.002-0.207,0.158-0.379,0.359-0.381l8.11-0.113
			C1158.078,330.672,1158.244,330.84,1158.247,331.047z"/>
		<path fill="#FFFFFF" d="M1158.097,320.338l0.117,8.35c0.003,0.209-0.158,0.379-0.359,0.383l-8.109,0.111
			c-0.202,0.004-0.368-0.162-0.371-0.371l-0.117-8.35c-0.003-0.208,0.158-0.379,0.36-0.382l8.108-0.113
			C1157.928,319.964,1158.094,320.13,1158.097,320.338z"/>
		<path fill="#FFFFFF" d="M1157.943,309.338l0.115,8.351c0.003,0.208-0.157,0.379-0.359,0.382l-8.109,0.112
			c-0.202,0.003-0.368-0.164-0.371-0.372l-0.116-8.35c-0.003-0.208,0.158-0.379,0.36-0.382l8.109-0.113
			C1157.774,308.964,1157.94,309.129,1157.943,309.338z"/>
		<path fill="#FFFFFF" d="M1157.79,298.361l0.116,8.35c0.003,0.208-0.158,0.379-0.36,0.382l-8.109,0.113
			c-0.202,0.002-0.368-0.164-0.371-0.372l-0.117-8.35c-0.002-0.208,0.159-0.379,0.359-0.382l8.11-0.113
			C1157.621,297.986,1157.787,298.152,1157.79,298.361z"/>
		<path fill="#FFFFFF" d="M1157.638,287.494l0.117,8.351c0.003,0.208-0.158,0.379-0.36,0.382l-8.108,0.113
			c-0.202,0.003-0.368-0.164-0.371-0.372l-0.117-8.351c-0.002-0.208,0.158-0.378,0.361-0.381l8.108-0.114
			C1157.469,287.12,1157.635,287.286,1157.638,287.494z"/>
		<path fill="#FFFFFF" d="M1157.491,277.052l0.117,8.35c0.003,0.208-0.158,0.379-0.361,0.382l-8.109,0.113
			c-0.202,0.002-0.368-0.164-0.371-0.371l-0.116-8.351c-0.003-0.208,0.159-0.378,0.359-0.381l8.11-0.113
			C1157.323,276.678,1157.489,276.843,1157.491,277.052z"/>
		<path fill="#FFFFFF" d="M1157.272,261.399l0.176,12.49c0.008,0.577-0.44,1.052-1.001,1.06l-6.81,0.095
			c-0.561,0.008-1.021-0.454-1.03-1.032l-0.175-12.489c-0.008-0.578,0.44-1.052,1.002-1.06l6.81-0.095
			C1156.804,260.36,1157.265,260.822,1157.272,261.399z"/>
		<path fill="#FFFFFF" d="M1169.481,402.206l0.174,12.49c0.008,0.578-0.439,1.053-1.001,1.061l-6.81,0.094
			c-0.561,0.008-1.021-0.453-1.029-1.031l-0.176-12.488c-0.008-0.578,0.44-1.053,1.001-1.061l6.81-0.096
			C1169.012,401.167,1169.473,401.627,1169.481,402.206z"/>
	</g>
	<path fill="#848484" d="M1133.249,266.287l2.021,144.584c0.007,0.494-0.377,0.9-0.857,0.908l-2.037,0.027
		c-0.48,0.008-0.875-0.389-0.882-0.883l-2.021-144.585c-0.007-0.494,0.376-0.901,0.857-0.908l2.037-0.028
		C1132.847,265.396,1133.242,265.792,1133.249,266.287z"/>
	<path fill="#EAEAEA" d="M1129.258,251.045l2.449,175.168c0.022,1.609-0.926,3.133-2.312,3.707l-68.899,28.492
		c-0.705,0.293-1.404-0.164-1.415-0.922l-3.29-235.288c-0.012-0.875,0.776-1.425,1.599-1.115l69.314,26.121
		C1128.185,247.767,1129.234,249.345,1129.258,251.045z"/>
	<path fill="#848484" d="M1055.678,220.639l3.422,238.012c0,0-1.596-1.246-2.329-2.049s-1.878-2.848-1.878-2.848l-3.181-227.511
		c0,0,1.393-2.339,1.798-2.89C1053.914,222.805,1055.678,220.639,1055.678,220.639z"/>
	<polygon fill="#3F4D50" points="1121.742,251.483 1124.173,425.368 1063.024,448.979 1059.959,229.721 	"/>
	<path fill="#BFBFBF" d="M1133.249,266.28l2.021,144.602c0.007,0.49-0.373,0.893-0.848,0.898l-0.537,0.008l-2.046-146.376
		l0.532-0.008C1132.85,265.396,1133.242,265.79,1133.249,266.28z"/>
	<path fill="#6B3E1F" d="M1368.073,203.499l3.781,270.531l-28.218-3.924l-36.896-14.533c-0.006-0.439-7.491-12.531-14.271-34.914
		c-6.186-20.426-11.785-49.424-10.574-85.959c0,0-2.936-37.946,17.141-107.494L1368.073,203.499z"/>
	<path opacity="0.26" fill="#020202" enable-background="new    " d="M1266.709,264.689l-2.292,0.647c0,0,0.292,6.625-2.37,9.407
		c0,0-21.5,23.695-25.377,27.281c0,0-7.488,1.874-6.563-6.198c0,0-0.358-1.454,1.259-3.569l8.037-9.49l-37.051,11.861
		c-1.196,0.383-2.475,0.451-3.693,0.152c-1.598-0.39-3.43-1.457-4.154-4.197c0,0-0.437-1.482,0.538-3.389
		c0.839-1.639,2.336-2.202,4.052-2.76l28.962-10.635l-33.074,9.928c-1.837,0.582-5.23,1.325-6.841,0.245
		c-1.375-0.923-2.551-3.023-2.572-5.234c0,0,0.227-3.837,4.67-5.7l31.634-10.64l-26.183,7.183c-2.106,0.625-7.183,1.857-8.752-0.309
		c-0.42-0.58-0.672-1.442-0.839-2.277c0,0-1.36-2.861,2.419-5.454c0.653-0.449,2.631-1.243,3.381-1.487l28.426-10.048l-19.508,5.501
		c-2.025,0.636-4.478,0.672-5.79-1.041c-0.436-0.567-0.77-1.246-0.888-2.05c0,0-1.104-4.374,4.172-6.211l34.806-9.922l7.975-1.812
		c2.119-0.481,4.296-0.651,6.458-0.462c1.512,0.131,3.178,0.446,4.715,1.107c0,0,3.1,1.187,3.394,2.02l2.952-1.006L1266.709,264.689
		z"/>
	<path fill="#EDBE85" d="M1266.515,263.477l-2.293,0.646c0,0,0.292,6.625-2.369,9.408c0,0-21.5,23.696-25.377,27.281
		c0,0-7.489,1.874-6.563-6.198c0,0-0.359-1.454,1.259-3.57l8.037-9.489l-37.051,11.861c-1.197,0.383-2.475,0.451-3.694,0.152
		c-1.598-0.392-3.429-1.457-4.153-4.198c0,0-0.438-1.482,0.538-3.389c0.839-1.639,2.335-2.202,4.052-2.76l28.962-10.635
		l-33.074,9.928c-1.836,0.582-5.232,1.326-6.842,0.244c-1.374-0.922-2.549-3.022-2.572-5.233c0,0,0.228-3.836,4.671-5.699
		l31.634-10.64l-26.184,7.183c-2.104,0.625-7.182,1.857-8.751-0.309c-0.421-0.58-0.671-1.442-0.839-2.277
		c0,0-1.36-2.861,2.419-5.454c0.654-0.449,2.632-1.243,3.381-1.487l28.425-10.048l-19.508,5.501
		c-2.025,0.636-4.478,0.672-5.789-1.041c-0.435-0.567-0.77-1.246-0.889-2.05c0,0-1.104-4.375,4.172-6.211l34.805-9.923l7.977-1.811
		c2.118-0.481,4.295-0.651,6.458-0.463c1.511,0.132,3.177,0.447,4.714,1.107c0,0,3.099,1.187,3.394,2.021l2.951-1.007
		L1266.515,263.477z"/>
	<polygon fill="#FFFFFF" points="1258.771,230.492 1254.876,231.776 1266.24,268.236 1270.135,266.951 	"/>
	<path fill="#6B3E1F" d="M1257.999,230.421l5.032-1.379c0,0,42.596-13.028,78.178-22.721c11.553-3.146,21.404-5.633,26.822-6.771
		l0.669,48.779c-17.813,1.049-74.867,14.268-74.867,14.268l-23.635,6.548l-2.684-8.402L1257.999,230.421z"/>
	<path fill="#FFFFFF" d="M1272.81,230.958c-0.571-0.684-0.5-1.715,0.166-2.304c0.661-0.589,1.664-0.514,2.236,0.17
		c0.573,0.683,0.5,1.714-0.164,2.304C1274.386,231.717,1273.383,231.641,1272.81,230.958z"/>
	<path fill="#FFFFFF" d="M1277.729,229.392c-0.573-0.684-0.5-1.715,0.162-2.304c0.663-0.589,1.665-0.513,2.238,0.169
		c0.573,0.684,0.5,1.716-0.164,2.305C1279.304,230.151,1278.302,230.075,1277.729,229.392z"/>
	<path fill="#FFFFFF" d="M1282.732,227.926c-0.572-0.683-0.499-1.715,0.163-2.304c0.663-0.589,1.666-0.513,2.238,0.17
		c0.573,0.684,0.5,1.716-0.164,2.305C1284.307,228.687,1283.306,228.61,1282.732,227.926z"/>
	<path fill="#FFF2E6" d="M1204.451,290.084l-1.849-6.115c-0.158-0.523-0.702-0.81-1.207-0.637l-3.227,1.106
		c0,0-2.509,1.038-1.904,4.515c0,0,0.613,2.894,3.394,3.392c0,0,1.126,0.116,3.122-0.71l1.043-0.328
		C1204.326,291.149,1204.607,290.601,1204.451,290.084z"/>
	<path fill="#FFF2E6" d="M1195.518,279.379l-1.77-5.854c-0.151-0.5-0.671-0.775-1.154-0.61l-3.088,1.06c0,0-2.402,0.992-1.822,4.32
		c0,0,0.586,2.77,3.246,3.246c0,0,1.078,0.111,2.989-0.679l0.998-0.313C1195.397,280.398,1195.667,279.873,1195.518,279.379z"/>
	<path fill="#FFF2E6" d="M1194.291,266.225l-1.301-5.105c-0.111-0.436-0.549-0.692-0.97-0.57l-2.696,0.788
		c0,0-2.104,0.756-1.73,3.643c0,0,0.399,2.405,2.668,2.921c0,0,0.923,0.138,2.597-0.464l0.869-0.23
		C1194.147,267.097,1194.4,266.656,1194.291,266.225z"/>
	<path fill="#FFF2E6" d="M1202.159,251.531l-1.272-4.993c-0.107-0.426-0.536-0.678-0.947-0.558l-2.638,0.771
		c0,0-2.057,0.74-1.691,3.562c0,0,0.391,2.353,2.609,2.857c0,0,0.903,0.136,2.54-0.454l0.852-0.224
		C1202.021,252.383,1202.267,251.953,1202.159,251.531z"/>
	<path fill="#FFF2E6" d="M1238.66,296.346l-2.851-2.572c-0.244-0.219-0.652-0.126-0.906,0.208l-1.624,2.138
		c0,0-1.212,1.762,0.141,3.435c0,0,1.191,1.339,3.003,0.313c0,0,0.71-0.464,1.674-1.865l0.533-0.674
		C1238.888,297.004,1238.9,296.563,1238.66,296.346z"/>
	<path opacity="0.26" fill="#020202" enable-background="new    " d="M1251.037,412.018l-2.188-0.553c0,0,0.101-6.279-2.493-8.844
		c0,0-20.982-21.865-24.75-25.156c0,0-7.139-1.576-6.049,6.041c0,0-0.301,1.387,1.286,3.346l7.861,8.771l-35.394-10.248
		c-1.144-0.332-2.354-0.361-3.502-0.047c-1.5,0.414-3.207,1.471-3.82,4.084c0,0-0.374,1.414,0.6,3.195
		c0.837,1.529,2.27,2.021,3.909,2.506l27.702,9.301l-31.577-8.523c-1.753-0.502-4.988-1.115-6.483-0.051
		c-1.276,0.91-2.334,2.932-2.297,5.023c0,0,0.316,3.627,4.573,5.271l30.231,9.236l-24.98-6.107c-2.01-0.537-6.849-1.566-8.277,0.523
		c-0.383,0.561-0.597,1.383-0.733,2.18c0,0-1.213,2.744,2.434,5.1c0.632,0.406,2.525,1.107,3.241,1.316l27.178,8.76l-18.614-4.689
		c-1.935-0.549-4.257-0.52-5.454,1.137c-0.396,0.549-0.695,1.201-0.786,1.965c0,0-0.93,4.17,4.114,5.771l33.215,8.473l7.601,1.502
		c2.018,0.4,4.084,0.502,6.126,0.268c1.427-0.164,2.996-0.508,4.435-1.172c0,0,2.903-1.205,3.159-2.004l2.821,0.875
		L1251.037,412.018z"/>
	<path fill="#EDBE85" d="M1250.072,412.592l-2.188-0.551c0,0,0.102-6.279-2.492-8.844c0,0-20.982-21.865-24.748-25.156
		c0,0-7.141-1.576-6.05,6.041c0,0-0.301,1.385,1.287,3.346l7.86,8.771l-35.393-10.248c-1.144-0.332-2.354-0.361-3.502-0.047
		c-1.502,0.412-3.207,1.471-3.821,4.084c0,0-0.374,1.414,0.599,3.193c0.837,1.529,2.271,2.023,3.909,2.506l27.702,9.301
		l-31.578-8.523c-1.754-0.5-4.988-1.115-6.483-0.049c-1.275,0.91-2.334,2.928-2.297,5.021c0,0,0.316,3.627,4.573,5.273l30.23,9.236
		l-24.979-6.109c-2.01-0.535-6.849-1.566-8.277,0.525c-0.383,0.559-0.598,1.383-0.733,2.178c0,0-1.213,2.744,2.435,5.1
		c0.631,0.408,2.524,1.107,3.24,1.318l27.179,8.76l-18.615-4.691c-1.935-0.549-4.257-0.518-5.454,1.139
		c-0.396,0.547-0.695,1.199-0.787,1.965c0,0-0.929,4.17,4.114,5.77l33.216,8.473l7.599,1.504c2.02,0.4,4.085,0.502,6.126,0.266
		c1.427-0.164,2.996-0.506,4.435-1.172c0,0,2.902-1.205,3.159-2.002l2.821,0.875L1250.072,412.592z"/>
	<polygon fill="#FFFFFF" points="1244.841,444.711 1240.886,443.631 1250.378,406.627 1254.333,407.706 	"/>
	<path fill="#6B3E1F" d="M1254.634,407.303l8.371,2.063l28.604,7.047l0.001,0.074c1.438,0.314,2.9,0.633,4.387,0.953
		c25.638,5.531,57.4,11.619,75.236,12.17l0.724,50.793c-5.447-0.986-15.653-3.037-27.26-5.992
		c-21.548-5.488-48.312-14.506-68.636-20.174l-32.483-8.002L1254.634,407.303z"/>
	<path fill="#FFFFFF" d="M1256.535,440.924c-0.554,0.699-0.451,1.729,0.228,2.299c0.681,0.57,1.681,0.467,2.232-0.232
		c0.554-0.699,0.452-1.729-0.229-2.299C1258.087,440.122,1257.089,440.225,1256.535,440.924z"/>
	<path fill="#FFFFFF" d="M1261.496,442.352c-0.554,0.699-0.452,1.729,0.228,2.299c0.681,0.57,1.68,0.467,2.232-0.232
		c0.554-0.699,0.451-1.729-0.229-2.297C1263.049,441.549,1262.05,441.653,1261.496,442.352z"/>
	<path fill="#FFFFFF" d="M1266.539,443.678c-0.554,0.697-0.452,1.729,0.228,2.297c0.681,0.572,1.68,0.467,2.232-0.232
		c0.553-0.697,0.451-1.729-0.229-2.297C1268.091,442.874,1267.092,442.977,1266.539,443.678z"/>
	<path fill="#FFF2E6" d="M1190.608,389.045l-1.588,5.84c-0.137,0.498-0.644,0.785-1.125,0.635l-3.084-0.963
		c0,0-2.403-0.916-1.923-4.223c0,0,0.503-2.756,3.121-3.301c0,0,1.063-0.141,2.977,0.588l0.995,0.283
		C1190.461,388.042,1190.742,388.551,1190.608,389.045z"/>
	<path fill="#FFF2E6" d="M1182.434,399.418l-1.521,5.588c-0.13,0.479-0.615,0.752-1.076,0.609l-2.952-0.922
		c0,0-2.301-0.877-1.84-4.043c0,0,0.481-2.637,2.988-3.158c0,0,1.017-0.133,2.848,0.563l0.953,0.271
		C1182.292,398.456,1182.563,398.946,1182.434,399.418z"/>
	<path fill="#FFF2E6" d="M1181.62,411.905l-1.096,4.867c-0.094,0.416-0.5,0.67-0.902,0.564l-2.574-0.674c0,0-2.011-0.66-1.734-3.402
		c0,0,0.314-2.289,2.449-2.836c0,0,0.87-0.156,2.471,0.371l0.83,0.193C1181.462,411.083,1181.713,411.495,1181.62,411.905z"/>
	<path fill="#FFF2E6" d="M1189.459,425.608l-1.072,4.76c-0.092,0.406-0.489,0.656-0.882,0.555l-2.517-0.66
		c0,0-1.968-0.646-1.697-3.328c0,0,0.307-2.238,2.396-2.773c0,0,0.852-0.152,2.416,0.361l0.813,0.189
		C1189.305,424.803,1189.55,425.206,1189.459,425.608z"/>
	<path fill="#FFF2E6" d="M1222.83,382.211l-2.631,2.512c-0.226,0.213-0.614,0.137-0.863-0.174l-1.594-1.98
		c0,0-1.195-1.637,0.042-3.256c0,0,1.093-1.299,2.836-0.377c0,0,0.683,0.422,1.634,1.723l0.523,0.625
		C1223.029,381.583,1223.052,381.999,1222.83,382.211z"/>
	<path fill="#42210B" d="M1254.634,407.303c1.732,0.598,4.619,1.293,8.371,2.063l28.604,7.047l0.001,0.074
		c1.438,0.314,2.9,0.633,4.387,0.953c25.638,5.531,57.4,11.619,75.236,12.17l0.232,16.664l-85.861-20.572
		c0,0-8.413-2.334-19.159-3.855c-10.698-1.518-18.197,7.943-18.197,7.943L1254.634,407.303z"/>
	<path fill="#42210B" d="M1264.647,251.763c0,0,4.817,3.434,11.644,4.19c6.825,0.757,14.883-1.249,14.883-1.249l77.339-19.738
		l0.188,13.363c-17.813,1.049-74.867,14.268-74.867,14.268l-23.635,6.548L1264.647,251.763z"/>
	<path fill="#E2E2E2" d="M920.146,444.168l-6.071,6.277c-2.43,2.51-6.141,3.162-9.24,1.611c-6.481-3.234-17.173-9.932-22.713-20.885
		c-1.965-3.885-0.816-8.668,2.673-11.17l5.979-4.283C890.771,415.721,895.495,433.499,920.146,444.168z"/>
	<path fill="#1B1F21" d="M734.572,327.645c0.165-3.189,1.033-6.16,2.285-8.851c0.036-0.082,0.072-0.161,0.108-0.237
		c4.312-9.061,17.133-13.609,26.904-14.408l4.048-0.429l1.034-0.108l67.377-7.133c-16.741,21.377-0.321,39.595-0.321,39.595
		l-18.89,4.828c-5.969,1.525-11.699,3.902-17.048,7.025c-12.131,7.084-37.986,18.488-56.074,0.377
		c-0.435-0.436-0.854-0.869-1.252-1.303c-3.457-3.736-5.649-7.369-6.887-10.838C734.795,333.19,734.432,330.34,734.572,327.645z"/>
	<path fill="#E2E2E2" d="M844.772,294.299l-8.605,0.227c-3.442,0.091-6.451,2.418-7.488,5.799
		c-2.167,7.069-4.785,19.665-0.854,31.332c1.394,4.139,5.561,6.564,9.724,5.674l7.244-1.307
		C844.792,336.024,835.707,320.327,844.772,294.299z"/>
	<path fill="#E2E2E2" d="M844.363,456.928c0,0,4.014,5.564,8.786,10.822c3.324,3.664,9.892,9.758,9.892,9.758
		c0.622,0.686,0.75,1.615,0.284,2.063l-0.424,0.406c-0.467,0.449-1.278,0.16-1.979-0.432c0,0-4.338-3.662-9.88-9.77
		c-5.936-6.539-8.797-10.811-8.797-10.811c-0.633-0.965-0.75-1.615-0.285-2.063l0.424-0.408
		C842.85,456.047,843.741,456.243,844.363,456.928z"/>
	<path fill="#E2E2E2" d="M838.933,461.979c0,0,4.016,5.564,8.786,10.822c3.326,3.664,9.893,9.758,9.893,9.758
		c0.623,0.686,0.75,1.613,0.284,2.063l-0.425,0.408c-0.466,0.447-1.276,0.158-1.979-0.432c0,0-4.339-3.664-9.88-9.77
		c-5.937-6.541-8.797-10.813-8.797-10.813c-0.634-0.965-0.75-1.613-0.285-2.063l0.424-0.408
		C837.421,461.098,838.311,461.293,838.933,461.979z"/>
	<path fill="#E2E2E2" d="M833.307,466.79c0,0,4.016,5.564,8.786,10.822c3.325,3.664,9.893,9.758,9.893,9.758
		c0.623,0.686,0.751,1.613,0.286,2.063l-0.425,0.406c-0.467,0.449-1.277,0.16-1.979-0.432c0,0-4.338-3.662-9.88-9.77
		c-5.936-6.541-8.798-10.813-8.798-10.813c-0.634-0.963-0.75-1.613-0.284-2.063l0.423-0.406
		C831.793,465.909,832.684,466.102,833.307,466.79z"/>
	<path fill="#E2E2E2" d="M777.725,312.834c0,0,0.135,6.929,1.059,14.059c0.644,4.971,2.56,13.854,2.56,13.854
		c0.12,0.932-0.298,1.762-0.931,1.85l-0.575,0.078c-0.632,0.086-1.131-0.635-1.369-1.535c0,0-1.47-5.574-2.543-13.855
		c-1.15-8.869-1.075-14.057-1.075-14.057c0.028-1.164,0.298-1.762,0.931-1.849l0.574-0.079
		C776.987,311.213,777.604,311.904,777.725,312.834z"/>
	<path fill="#E2E2E2" d="M770.454,313.7c0,0,0.134,6.928,1.059,14.058c0.645,4.971,2.56,13.855,2.56,13.855
		c0.121,0.93-0.298,1.762-0.932,1.848l-0.574,0.078c-0.634,0.088-1.131-0.635-1.369-1.535c0,0-1.472-5.572-2.544-13.854
		c-1.15-8.871-1.075-14.057-1.075-14.057c0.028-1.164,0.298-1.762,0.931-1.849l0.576-0.079
		C769.717,312.08,770.333,312.771,770.454,313.7z"/>
	<path fill="#E2E2E2" d="M763.158,314.252c0,0,0.134,6.928,1.059,14.059c0.645,4.969,2.561,13.854,2.561,13.854
		c0.12,0.932-0.3,1.762-0.932,1.85l-0.575,0.078c-0.633,0.086-1.131-0.635-1.369-1.533c0,0-1.472-5.574-2.543-13.855
		c-1.151-8.871-1.076-14.056-1.076-14.056c0.027-1.164,0.298-1.764,0.931-1.851l0.575-0.079
		C762.422,312.631,763.038,313.321,763.158,314.252z"/>
	<path fill="#31373A" d="M817.248,499.475L817.248,499.475c16.076,7.551,50.319-10.412,50.319-10.412l-9.961,8.824
		c-7.276,6.754-19.301,13.217-28.66,10.213C824.549,506.69,820.29,504.083,817.248,499.475z"/>
	<path fill="#31373A" d="M768.951,303.61l-1.034,0.108C768.257,303.674,768.603,303.638,768.951,303.61z"/>
	<path fill="#31373A" d="M734.572,327.645c0.235-4.059,1.463-7.026,2.285-8.851c0.036-0.082,0.072-0.161,0.108-0.237
		c4.312-9.061,17.133-13.609,26.904-14.408l4.048-0.429c-22.069,2.923-24.843,42.447-25.175,43.281
		c-3.457-3.736-5.649-7.369-6.887-10.838C734.795,333.19,734.432,330.34,734.572,327.645z"/>
</g>
<g id="Layer_3">
</g>
</svg>
