<?xml version="1.0" encoding="utf-8"?>
<!-- Generator: Adobe Illustrator 16.0.0, SVG Export Plug-In . SVG Version: 6.00 Build 0)  -->
<!DOCTYPE svg PUBLIC "-//W3C//DTD SVG 1.1//EN" "http://www.w3.org/Graphics/SVG/1.1/DTD/svg11.dtd" [
	<!ENTITY ns_extend "http://ns.adobe.com/Extensibility/1.0/">
	<!ENTITY ns_ai "http://ns.adobe.com/AdobeIllustrator/10.0/">
	<!ENTITY ns_graphs "http://ns.adobe.com/Graphs/1.0/">
	<!ENTITY ns_vars "http://ns.adobe.com/Variables/1.0/">
	<!ENTITY ns_imrep "http://ns.adobe.com/ImageReplacement/1.0/">
	<!ENTITY ns_sfw "http://ns.adobe.com/SaveForWeb/1.0/">
	<!ENTITY ns_custom "http://ns.adobe.com/GenericCustomNamespace/1.0/">
	<!ENTITY ns_adobe_xpath "http://ns.adobe.com/XPath/1.0/">
]>
<svg version="1.1" id="Layer_1" xmlns:x="&ns_extend;" xmlns:i="&ns_ai;" xmlns:graph="&ns_graphs;"
	 xmlns="http://www.w3.org/2000/svg" xmlns:xlink="http://www.w3.org/1999/xlink" x="0px" y="0px" width="1366.904px"
	 height="640.96px" viewBox="0 0 1366.904 640.96" enable-background="new 0 0 1366.904 640.96" xml:space="preserve">
<metadata><?xpacket begin="﻿" id="W5M0MpCehiHzreSzNTczkc9d"?>
<x:xmpmeta xmlns:x="adobe:ns:meta/" x:xmptk="Adobe XMP Core 5.3-c011 66.145661, 2012/02/06-14:56:27        ">
   <rdf:RDF xmlns:rdf="http://www.w3.org/1999/02/22-rdf-syntax-ns#">
      <rdf:Description rdf:about=""
            xmlns:dc="http://purl.org/dc/elements/1.1/">
         <dc:format>image/svg+xml</dc:format>
         <dc:title>
            <rdf:Alt>
               <rdf:li xml:lang="x-default">Print</rdf:li>
            </rdf:Alt>
         </dc:title>
      </rdf:Description>
      <rdf:Description rdf:about=""
            xmlns:xmp="http://ns.adobe.com/xap/1.0/"
            xmlns:xmpGImg="http://ns.adobe.com/xap/1.0/g/img/">
         <xmp:MetadataDate>2017-11-22T10:44:07+02:00</xmp:MetadataDate>
         <xmp:ModifyDate>2017-11-22T10:44:07+02:00</xmp:ModifyDate>
         <xmp:CreateDate>2017-11-22T10:44:07+02:00</xmp:CreateDate>
         <xmp:CreatorTool>Adobe Illustrator CS6 (Windows)</xmp:CreatorTool>
         <xmp:Thumbnails>
            <rdf:Alt>
               <rdf:li rdf:parseType="Resource">
                  <xmpGImg:width>256</xmpGImg:width>
                  <xmpGImg:height>120</xmpGImg:height>
                  <xmpGImg:format>JPEG</xmpGImg:format>
                  <xmpGImg:image>/9j/4AAQSkZJRgABAgEASABIAAD/7QAsUGhvdG9zaG9wIDMuMAA4QklNA+0AAAAAABAASAAAAAEA&#xA;AQBIAAAAAQAB/+4ADkFkb2JlAGTAAAAAAf/bAIQABgQEBAUEBgUFBgkGBQYJCwgGBggLDAoKCwoK&#xA;DBAMDAwMDAwQDA4PEA8ODBMTFBQTExwbGxscHx8fHx8fHx8fHwEHBwcNDA0YEBAYGhURFRofHx8f&#xA;Hx8fHx8fHx8fHx8fHx8fHx8fHx8fHx8fHx8fHx8fHx8fHx8fHx8fHx8fHx8f/8AAEQgAeAEAAwER&#xA;AAIRAQMRAf/EAaIAAAAHAQEBAQEAAAAAAAAAAAQFAwIGAQAHCAkKCwEAAgIDAQEBAQEAAAAAAAAA&#xA;AQACAwQFBgcICQoLEAACAQMDAgQCBgcDBAIGAnMBAgMRBAAFIRIxQVEGE2EicYEUMpGhBxWxQiPB&#xA;UtHhMxZi8CRygvElQzRTkqKyY3PCNUQnk6OzNhdUZHTD0uIIJoMJChgZhJRFRqS0VtNVKBry4/PE&#xA;1OT0ZXWFlaW1xdXl9WZ2hpamtsbW5vY3R1dnd4eXp7fH1+f3OEhYaHiImKi4yNjo+Ck5SVlpeYmZ&#xA;qbnJ2en5KjpKWmp6ipqqusra6voRAAICAQIDBQUEBQYECAMDbQEAAhEDBCESMUEFURNhIgZxgZEy&#xA;obHwFMHR4SNCFVJicvEzJDRDghaSUyWiY7LCB3PSNeJEgxdUkwgJChgZJjZFGidkdFU38qOzwygp&#xA;0+PzhJSktMTU5PRldYWVpbXF1eX1RlZmdoaWprbG1ub2R1dnd4eXp7fH1+f3OEhYaHiImKi4yNjo&#xA;+DlJWWl5iZmpucnZ6fkqOkpaanqKmqq6ytrq+v/aAAwDAQACEQMRAD8A7LirsVdirsVdirsVdirs&#xA;VdirsVdirsVdirsVdirsVdirsVdirsVdirsVdirsVdirsVdirsVdirsVdirsVdirsVdirsVdirsV&#xA;dirsVdirsVdirsVdirsVdirsVdirsVdirsVdirsVdirsVdirsVdirsVdirsVdirsVdirsVdirsVd&#xA;irsVdirsVdirsVdirsVdirsVdirsVdirsVdirRhaZliVirOQqkGm52GEBBNLJVvLR/TuoyQP92KN&#xA;/mVH61xpQV6OjqGRgynoRuMCW8VdirsVdirsVdirsVdirsVdirsVdirsVdirsVdirsVdirsVdirs&#xA;VdirsVdirsVdirsVdirsVVbT/e23/wCMif8AEslFjPkkttqurabDSYDU9LHVtyUG3+yQ/hXvmqkM&#xA;+l+ocUPx8neYM2i7RF4zwZe7r+1MLZdN1MGXS5/TuTu9uxAav07P+vM3BqoZOR37nA1Wgy4D6ht3&#xA;hpppYGKXaGMjq4B4/TXdfpy+nDtWBBFQag9DgS7FXYq7FXYq7FXYq7FXYq7FXYq7FXYq7FXYq7FX&#xA;Yq7FXYq7FXYq7FXYq7FXYq7FXYq7FVW0/wB7bf8A4yJ/xLJRYz5MXhmlhcPExRh3GbQgHm8BDJKB&#xA;uJopXqGr2aakY3j+rSLHGwng2qzxhyWUnj1am3Hx3zm9XooGZ4fSX2nsKWbJooZJS4+K+fka5/Dr&#xA;fvDILDzXMsSpqSC+tOi3aH41rXqaVHjRh9GUR1WXDtkFx72Op7Jx5D+79E/5v4+8bJrDaQXMZuNH&#xA;nEidWg7jxqn09VzZYs0MguJee1GmyYTUxX3Ka3NG9OZTFJ0Ffsk+zf1yymm1bAl2KuxV2KuxV2Ku&#xA;xV2KuxV2KuxV2KuxV2KuxV2KuxV2KuxV2KuxV2KuxV2KrJpooY2kldY41FWZiAB8yclGBlyaM+ph&#xA;iFyNNxSpLEkqGqSKGU+IIqMBFGmzHMTiJDkRataEC9t6/wC/E/4lhimfJJ3EE61nHxHpOlORrQAs&#xA;BRWrue3zOXQzEOq1XZmPLuPTL8dHnvnmDU7PzBAkcQ+qTJGZryRXCBI7YH4QByPJ14A9AeuVnSZM&#xA;pMoi93p9F7Rafs/Bg0+SQEiCSegHEe7e+vLkmvlm5ubLR9ekQjly040NGVkf1mAI3BBByzQ4BKZh&#xA;MdNwfiy9ptcDjx5sMtuI8JHugjtLv4rm6iWzdrDUpHVIgpJid2IAoeqkn6PlmPrewTC54TVdHF7P&#xA;9qBMDHqY8QPX9YZMNfKv9T8xWhjkOwukA+L5/suM1eLXyiayD4u2zdkwyDj08vh+NwiLmD6pbJeW&#xA;sy3Fi4JShqCqmh413BHh0zaRkJCxyLopwlCRjIUQq4odirsVdirsVdirsVdirsVdirsVdirsVdir&#xA;sVdirsVdirsVdirsVdirsVY3czyvq95bpbXFxOYzHBLHIqRwCRGVjR0dQzVpXrStN8z4kCAJLyea&#xA;Mp6icYxlKXTfaNjzH46JuZH07SIyymRreKNGCb7gBSR7DrmJ9Uve9JhiceKIPOMQFvly+l8wWxki&#xA;tmWsjRxq37aqAee+wFTTrjkjwmmeDJ4gtXuLM8mG6yAmpPUHcVPj1+fuMiCzMKeafml5pjtPMOmW&#xA;USo8MUMCXfIEMjc+XGleOykH3y/FrZYrA3Bddq+x8eolCciROJ2/ayPyxpdrqXlHULuJTZSahJbs&#xA;IyWkRRFJKkY6chWpYmp+QwaPMIS4iHZdq5MmoiIEj0+Vd3d7ghNK0y9sfMelC4jojXcHpyr8SMPU&#xA;X7LDb6OubrJmjPFIxPR5rHhlDLESHVnFyySNLDOizQFjWNxUde3cH5Z5ac8ozI5i+T6PjFAEGjXN&#xA;fqEMEPleCOBSkSifipPIj4yTv886nREHFEh0ermZZpE83Ze1OxV2KuxV2KuxV2KuxV2KuxV2KuxV&#xA;2KuxV2KuxV2KuxV2KuxV2KuxV2KoBdQRLloJqwScm4+rQI4rRSj9NwRsema46mUJkS7+v6C7qOgh&#xA;lxiUOdC6766j9KB8z6ZqWpW8UdhMsMqElo5agEMBRqUb7PXpmV4gnyLPs/KNJMnJGweRG/4tkflr&#xA;SdShsbeDmJpY4RHJKejbddzt0yv8ze0Bxfc67PESnKf0AnYLbiJ4pTHJTnvsCNwNjluLPGew59zj&#xA;zxmPueLeZ/q13c61fzxJMZbkxW3qxMeQgpGhhlB+0teXEbHbl2GRkdy3xGweoaJA1loMWk0rIsEC&#xA;zSb7PEtDsdtz7e++ZUdhThTFm0Xp3NdStl6I00dQfskhvhG/cAcv5vlkgaa5C1Wf+/k/1m/XnC5f&#xA;rPvL1GP6R7lfU/8AlGoflP8A8SOdb2f/AHEPc6HU/wB7JbmS1uxV2KuxV2KuxV2KuxV2KuxV2Kux&#xA;V2KuxV2KuxV2KuxV2KuxV2KuxV2KrJoIZozHKgdD1VhUZGcBIURYZ48koHiiaKVmF7aZrexuEmKA&#xA;OdPlcF1WpPwGvJQT/t5g5NDOI4ocu4/oLuMPakJ+nMN/5w/30fx7kRYazM9y1nCZbaUxM8quBVaF&#xA;RTfZq8tjTMbFh45Ebwl1/H6WWshHHATiRKJO346e5dfyxadp93fGrSQxPI0jnkzFVJAJPy6ZssWC&#xA;GMbD49XTyySmd3lmjWwnvNF09XBNzcJNcMshZJBDWeRJEbow3Wq/D4cjvggNw3TNAvXHjV9z1HRh&#xA;sR9OZLiNW7SBi6uRJG1FkGx2of14bQRbb/ESX2Y7l1BIPzXqPor8hml1XZIlcsZo9zn4NcY7S3Ct&#xA;qop5bhFQdpt1II3YnqM2WjxmGKMZcw4eaYlkkRyW5cxdirsVdirsVdirsVdirsVdirsVdirsVdir&#xA;sVdirsVdirsVdirsVdirsVS/XrTVLvTZIdMuxZ3bfZlIqCO616rX+YbjLcMoxlchYYTiSNjTCpLL&#xA;WZdOh0SLywsGv27+p/iZZ3jWhNS7SCpdiANqmn8ozZ+ND6uK4/zacPwpcq372a2C31jpdvHqNwLy&#xA;7X4ZrlU4AkkkfCP5Rt79c14iMk/T6Q52OJqiVPTtQ07zBpsxERks2doWWQUDhab08DXBqdOcUuEs&#xA;ro+5YfLdmfMCauAihLcwCBYwKsWH7wsDvRBxpTMet7TxbUma20pPGOQqnetCR8if41yYFtUpCIsq&#xA;whtreIAniCa13qT1NBuSfH9Qy0wAFyLinUSJ9IWKwYbih8DStK7VpXMWGSMvpNuXGVhSuIPUhkjW&#xA;i+oKE/PauWWmlbAl2KuxV2KuxV2KuxV2KuxV2KuxV2KuxV2KuxV2KuxV2KuxV2KuxV2KuxV2Komw&#xA;sZLycRIyp3LMaf7eKpve+VYVtSyzjkB+89WgRv6YQa5KxmRDaWrJaW6sYVPpWyUjU0/ZHYYykTud&#xA;yzxRiZAE8I7+5ja65byw3U2o6jNpmo2+9vZekQhJGwYbk1NOoPtlHE9ZDs7HEAQhHJjlzle/w/Z8&#xA;U50O/v721Mt3bG3II9JmHEuP5uB+JfpyyJLz3aGDDjnw45cQ+749UVdy20EEstzKIkIo8rtTr0FT&#xA;89hjljxxMT1FOu4ABXJgq+aLt726tPLMUmp3s7Ay3TjjHGBULu2wpy6t8uOYei0AwcRsyMv0NOOH&#xA;Ddb2yHQLHUdNJk1rUVudQvK8YU2Tah4ryNX4+NB1zYRxmXJOo1sMMQJnc3XeWSXNreWtvHc3EYW3&#xA;lUMsgIIAIrv9G+T8MHkd3F/PSjUpxqB5H9ajFLHLGksbB45AGRxuCpFQRlZFOwhMSiJDkV2Bk7FX&#xA;Yq7FXYq7FXYq7FXYq7FXYq7FXYq7FXYq7FXYq7FXYq7FXYq7FW1ZlIKkgjoRiqvPfXU6qsshZUFF&#xA;BOKofFVOS2tpJY5ZIkeWLeKRlBZa/wApO4wUzjkkAQCQDzVMLBiV75HvNV1me51rU3uNNLVtbCBT&#xA;CFU1+B25MelKlacuu3TDbAws7smsbCysLZbaygS3gT7McahR89u/vgZoHXfLlnq6oZWaG4iBEM6H&#xA;dQdyCOhGXYs8ocmnPpsWaPDkjxD8cmPHyV5i1GX6vrWsMdJiI4QWxYSS9/3jt03+f0ZbPVfzRX46&#xA;OLpux9Ni3lxZe6MvpHvreXxO3mzO3gjt4I4IgRFCixxgkkhVFBuak7eOYjsZGza/FDsVdirsVdir&#xA;sVdirsVdirsVdirsVdirsVdirsVdirsVdirsVdirsVdirsVdirsVdirsVdirsVdirsVdirsVdirs&#xA;VdirsVdirsVdirsVdirsVdirsVdirsVdirsVdirsVdirsVdirsVdirsVdirsVdirsVdirsVdirsV&#xA;dirsVdirsVdirsVdirsVdirsVdirsVdirsVdirsVdirsVdirsVdirsVdirsVdirsVdirsVdirsVd&#xA;irsVdirsVf/Z</xmpGImg:image>
               </rdf:li>
            </rdf:Alt>
         </xmp:Thumbnails>
      </rdf:Description>
      <rdf:Description rdf:about=""
            xmlns:xmpMM="http://ns.adobe.com/xap/1.0/mm/"
            xmlns:stRef="http://ns.adobe.com/xap/1.0/sType/ResourceRef#"
            xmlns:stEvt="http://ns.adobe.com/xap/1.0/sType/ResourceEvent#">
         <xmpMM:InstanceID>xmp.iid:693CDFE260CFE711824ACAD90C616EB3</xmpMM:InstanceID>
         <xmpMM:DocumentID>xmp.did:693CDFE260CFE711824ACAD90C616EB3</xmpMM:DocumentID>
         <xmpMM:OriginalDocumentID>uuid:5D20892493BFDB11914A8590D31508C8</xmpMM:OriginalDocumentID>
         <xmpMM:RenditionClass>proof:pdf</xmpMM:RenditionClass>
         <xmpMM:DerivedFrom rdf:parseType="Resource">
            <stRef:instanceID>xmp.iid:683CDFE260CFE711824ACAD90C616EB3</stRef:instanceID>
            <stRef:documentID>xmp.did:683CDFE260CFE711824ACAD90C616EB3</stRef:documentID>
            <stRef:originalDocumentID>uuid:5D20892493BFDB11914A8590D31508C8</stRef:originalDocumentID>
            <stRef:renditionClass>proof:pdf</stRef:renditionClass>
         </xmpMM:DerivedFrom>
         <xmpMM:History>
            <rdf:Seq>
               <rdf:li rdf:parseType="Resource">
                  <stEvt:action>saved</stEvt:action>
                  <stEvt:instanceID>xmp.iid:b91d89af-f558-4d76-8a36-89129de87577</stEvt:instanceID>
                  <stEvt:when>2016-04-11T09:16:23+10:00</stEvt:when>
                  <stEvt:softwareAgent>Adobe Illustrator CC 2015 (Macintosh)</stEvt:softwareAgent>
                  <stEvt:changed>/</stEvt:changed>
               </rdf:li>
               <rdf:li rdf:parseType="Resource">
                  <stEvt:action>saved</stEvt:action>
                  <stEvt:instanceID>xmp.iid:693CDFE260CFE711824ACAD90C616EB3</stEvt:instanceID>
                  <stEvt:when>2017-11-22T10:44:07+02:00</stEvt:when>
                  <stEvt:softwareAgent>Adobe Illustrator CS6 (Windows)</stEvt:softwareAgent>
                  <stEvt:changed>/</stEvt:changed>
               </rdf:li>
            </rdf:Seq>
         </xmpMM:History>
      </rdf:Description>
      <rdf:Description rdf:about=""
            xmlns:illustrator="http://ns.adobe.com/illustrator/1.0/">
         <illustrator:StartupProfile>Print</illustrator:StartupProfile>
      </rdf:Description>
      <rdf:Description rdf:about=""
            xmlns:xmpTPg="http://ns.adobe.com/xap/1.0/t/pg/"
            xmlns:stDim="http://ns.adobe.com/xap/1.0/sType/Dimensions#"
            xmlns:xmpG="http://ns.adobe.com/xap/1.0/g/">
         <xmpTPg:HasVisibleOverprint>False</xmpTPg:HasVisibleOverprint>
         <xmpTPg:HasVisibleTransparency>True</xmpTPg:HasVisibleTransparency>
         <xmpTPg:NPages>1</xmpTPg:NPages>
         <xmpTPg:MaxPageSize rdf:parseType="Resource">
            <stDim:w>1366.904297</stDim:w>
            <stDim:h>640.960449</stDim:h>
            <stDim:unit>Pixels</stDim:unit>
         </xmpTPg:MaxPageSize>
         <xmpTPg:PlateNames>
            <rdf:Seq>
               <rdf:li>Cyan</rdf:li>
               <rdf:li>Magenta</rdf:li>
               <rdf:li>Yellow</rdf:li>
               <rdf:li>Black</rdf:li>
            </rdf:Seq>
         </xmpTPg:PlateNames>
         <xmpTPg:SwatchGroups>
            <rdf:Seq>
               <rdf:li rdf:parseType="Resource">
                  <xmpG:groupName>Default Swatch Group</xmpG:groupName>
                  <xmpG:groupType>0</xmpG:groupType>
               </rdf:li>
            </rdf:Seq>
         </xmpTPg:SwatchGroups>
      </rdf:Description>
      <rdf:Description rdf:about=""
            xmlns:pdf="http://ns.adobe.com/pdf/1.3/">
         <pdf:Producer>Adobe PDF library 10.01</pdf:Producer>
      </rdf:Description>
   </rdf:RDF>
</x:xmpmeta>
                                                                                                    
                                                                                                    
                                                                                                    
                                                                                                    
                                                                                                    
                                                                                                    
                                                                                                    
                                                                                                    
                                                                                                    
                                                                                                    
                                                                                                    
                                                                                                    
                                                                                                    
                                                                                                    
                                                                                                    
                                                                                                    
                                                                                                    
                                                                                                    
                                                                                                    
                                                                                                    
                           
<?xpacket end="w"?>
	</metadata>
<g id="BACKGROUND">
	<g id="XMLID_1_">
		<g>
			<rect x="0.002" fill="#CCCCCC" width="1366.9" height="640.96"/>
		</g>
		<g>
		</g>
	</g>
</g>
<g id="OBJECTS">
	<g>
		<g>
			<g>
				<polyline fill="#747678" points="1032.392,406.464 986.975,431.498 986.975,436.033 1032.392,411.019 1032.392,406.464 				"/>
				<polyline fill="#8B9092" points="984.756,430.281 984.764,434.785 986.975,436.033 986.975,431.498 984.756,430.281 				"/>
				<polyline fill="#ADAFB0" points="1030.171,405.24 1030.171,405.24 984.756,430.281 986.975,431.498 1032.392,406.464 
					1030.171,405.24 				"/>
			</g>
			<g>
				<polyline fill="#747678" points="1024.131,401.869 978.714,426.904 978.714,431.437 1024.131,406.423 1024.131,401.869 				"/>
				<polyline fill="#8B9092" points="976.494,425.685 976.504,430.191 978.714,431.437 978.714,426.904 976.494,425.685 				"/>
				<polyline fill="#ADAFB0" points="1021.91,400.644 1021.91,400.644 976.494,425.685 976.494,425.685 978.714,426.904 
					1024.131,401.869 1021.91,400.644 				"/>
			</g>
			<g>
				<polyline fill="#747678" points="1015.946,397.38 970.532,422.416 970.532,426.951 1015.946,401.937 1015.946,397.38 				"/>
				<polyline fill="#8B9092" points="968.31,421.199 968.319,425.703 970.532,426.951 970.532,422.416 968.31,421.199 				"/>
				<polyline fill="#ADAFB0" points="1013.726,396.158 968.31,421.199 970.532,422.416 1015.946,397.38 1013.726,396.158 				"/>
			</g>
			<path fill="#A0A7AD" d="M1095.771,407.97L845.228,269.836c-5.746-3.169-9.287-9.025-9.287-15.363v-151.95
				c0-6.824,7.732-11.092,13.927-7.686L1100.4,232.651c5.757,3.167,9.307,9.028,9.307,15.372v152.27
				C1109.707,407.119,1101.965,411.386,1095.771,407.97"/>
			<path fill="#A0A7AD" d="M936.962,326.642l0.076,22.963c0.021,5.449-3.021,10.494-7.962,13.219l-20.914,11.525l57.808,31.865
				l20.976-11.512c4.945-2.711,7.992-7.742,7.992-13.188v-23.057L936.962,326.642"/>
			<polygon fill="#A0A7AD" points="1099.302,410.806 1104.76,408.13 1100.058,401.867 			"/>
			<polygon fill="#A0A7AD" points="840.464,94.911 834.898,97.641 837.675,97.618 			"/>
			<path fill="#CACACC" d="M1089.907,410.867L839.362,272.731c-5.747-3.168-9.289-9.025-9.289-15.362v-151.95
				c0-6.824,7.733-11.092,13.928-7.686l250.536,137.813c5.755,3.167,9.304,9.028,9.304,15.372v152.267
				C1103.841,410.013,1096.1,414.281,1089.907,410.867"/>
			<polyline fill="#E5F4F7" points="842.461,110.814 842.461,256.186 1090.434,392.888 1090.434,246.968 842.461,110.814 			"/>
			<polyline fill="#F37C54" points="854.902,131.05 854.892,149.256 1073.678,269.855 1073.693,251.683 854.902,131.05 			"/>
			<polyline fill="#5CD2D2" points="854.965,158.423 854.947,213.095 900.29,238.033 900.341,183.458 854.965,158.423 			"/>
			<polyline fill="#CF3A52" points="908.523,192.506 908.451,247.013 953.938,272.166 953.953,217.536 908.523,192.506 			"/>
			<path fill="#E3516E" d="M918.459,243.046L918.459,243.046l4.08,2.251v-0.004L918.459,243.046 M908.523,192.506l-0.072,54.507
				l9.992,5.525l0.016-9.491l-0.191-0.105l-1.086,0.48l-0.23-0.459l0.663-0.38l4.111-2.286l0.822,0.453l2.925,1.613l0,0l0.552,0.305
				l0.684,0.377l5.45,3.007l2.737,1.509v0.001l0.002,0.001l3.391,3.391c0.26,0.258,0.607,0.393,0.961,0.393
				c0.229,0,0.456-0.055,0.662-0.169l3.193-1.754l4.176,2.25l-7.457,4.126c-0.207,0.115-0.438,0.172-0.666,0.172
				c-0.299,0-0.595-0.097-0.836-0.285l-3.424-2.658l0,0l3.424,2.658c0.241,0.188,0.537,0.285,0.837,0.285
				c0.228,0,0.458-0.057,0.665-0.171l7.457-4.126v2.632l-7.463,4.123c-0.205,0.114-0.436,0.17-0.664,0.17
				c-0.296,0-0.59-0.095-0.832-0.28l-3.424-2.631v5.949l19.041,10.528l0.016-54.629L908.523,192.506"/>
			<polyline fill="#4F9CD0" points="970.439,222.056 970.423,276.729 1015.879,301.728 1016.041,247.169 970.439,222.056 			"/>
			<polyline fill="#F2C06B" points="1028.279,253.946 1028.274,349.55 1073.696,374.591 1073.88,279.058 1028.279,253.946 			"/>
			<polyline fill="#8F959B" points="990.808,356.228 990.808,360.761 994.896,358.484 990.808,356.228 			"/>
			<polyline fill="#B5B5B7" points="990.808,356.185 990.808,356.228 994.896,358.484 994.938,358.458 990.808,356.185 			"/>
			<path fill="#A0A7AD" d="M964.913,333.818c0,2.258-1.92,3.035-4.286,1.732c-2.365-1.301-4.284-4.189-4.284-6.449
				s1.919-3.035,4.284-1.734C962.993,328.669,964.913,331.556,964.913,333.818z"/>
			<polyline fill="#F37C54" points="854.858,131.041 856.987,129.865 1075.766,250.545 1075.725,268.773 1073.7,269.897 
				1073.69,251.679 854.858,131.041 			"/>
			<polyline fill="#C76746" points="1075.766,250.545 1073.69,251.679 1073.7,269.897 1075.725,268.72 1075.766,250.545 			"/>
			<polygon fill="#A0A7AD" points="845.098,112.261 845.098,257.639 842.461,256.186 842.461,110.814 			"/>
			<polyline fill="#A0A7AD" points="845.101,254.764 1090.434,389.988 1090.434,392.884 842.461,256.208 845.101,254.764 			"/>
			<polyline fill="#5CD2D2" points="854.85,158.351 857.005,157.188 902.416,182.24 902.443,236.832 900.29,238.033 
				900.341,183.458 854.85,158.351 			"/>
			<polyline fill="#4BAEAF" points="902.416,182.24 900.341,183.458 900.29,238.023 902.443,236.832 902.416,182.24 			"/>
			<polyline fill="#9FE5E5" points="857.005,157.188 854.85,158.351 900.341,183.458 902.416,182.24 857.005,157.188 			"/>
			<polyline fill="#20AAE0" points="908.523,192.506 914.789,189.051 960.181,214.104 960.141,268.763 953.938,272.166 
				953.953,217.536 908.523,192.506 			"/>
			<polyline fill="#CF3A52" points="908.523,192.506 914.789,189.051 960.181,214.104 953.953,217.536 908.523,192.506 			"/>
			<polyline fill="#F6678A" points="914.789,189.051 908.523,192.506 953.953,217.536 960.181,214.104 914.789,189.051 			"/>
			<polygon fill="#CF3A52" points="960.181,214.104 960.141,268.763 953.938,272.166 953.953,217.536 			"/>
			<polyline fill="#4F9CD0" points="970.439,222.056 972.594,220.893 1018.004,245.945 1018.032,300.537 1015.879,301.728 
				1016.041,247.168 970.439,222.056 			"/>
			<polyline fill="#4181AD" points="1018.004,245.945 1016.041,247.168 1015.879,301.728 1018.032,300.537 1018.004,245.945 			"/>
			<polyline fill="#97C5E4" points="972.594,220.893 970.439,222.056 1016.041,247.168 1018.004,245.945 972.594,220.893 			"/>
			<polyline fill="#F2C06B" points="1028.274,253.944 1030.427,252.78 1075.838,277.833 1075.854,373.406 1073.701,374.595 
				1073.656,278.935 1028.274,253.944 			"/>
			<polyline fill="#E5F4F7" points="1075.838,277.833 1075.838,277.833 1075.854,373.406 1075.854,373.402 1075.838,277.833 			"/>
			<polyline fill="#D1D3D4" points="1075.838,277.833 1075.838,277.833 1075.854,373.406 1075.854,373.402 1075.838,277.833 			"/>
			<polyline fill="#C69F59" points="1075.838,277.833 1073.656,278.935 1073.701,374.593 1075.854,373.402 1075.838,277.833 			"/>
			<polyline fill="#F8B29B" points="856.986,129.865 854.858,131.041 1073.69,251.679 1075.766,250.545 856.986,129.865 			"/>
			<polyline fill="#F8DAA9" points="1030.427,252.78 1028.274,253.944 1073.656,278.935 1075.838,277.833 1030.427,252.78 			"/>
			<polyline fill="#E5F4F7" points="854.848,222.089 854.847,226.643 900.268,251.679 900.268,247.127 854.848,222.089 			"/>
			<polyline fill="#909193" points="854.848,222.089 854.847,226.643 900.268,251.679 900.268,247.127 854.848,222.089 			"/>
			<polyline fill="#E5F4F7" points="902.473,245.901 900.268,247.127 900.268,251.679 902.429,250.471 902.473,245.901 			"/>
			<polyline fill="#758082" points="902.473,245.901 900.268,247.127 900.268,251.679 902.429,250.471 902.473,245.901 			"/>
			<polyline fill="#E5F4F7" points="857.054,220.864 854.848,222.089 900.268,247.127 902.473,245.901 857.054,220.864 			"/>
			<polyline fill="#ADB5B6" points="857.054,220.864 854.848,222.089 900.268,247.127 902.473,245.901 857.054,220.864 			"/>
			<polyline fill="#E5F4F7" points="854.848,231.197 854.847,235.75 900.268,260.786 900.268,256.235 854.848,231.197 			"/>
			<polyline fill="#909193" points="854.848,231.197 854.847,235.75 900.268,260.786 900.268,256.235 854.848,231.197 			"/>
			<polyline fill="#E5F4F7" points="902.473,255.009 900.268,256.235 900.268,260.786 902.429,259.579 902.473,255.009 			"/>
			<polyline fill="#758082" points="902.473,255.009 900.268,256.235 900.268,260.786 902.429,259.579 902.473,255.009 			"/>
			<polyline fill="#E5F4F7" points="857.054,229.971 854.848,231.197 900.268,256.235 902.473,255.009 857.054,229.971 			"/>
			<polyline fill="#ADB5B6" points="857.054,229.971 854.848,231.197 900.268,256.235 902.473,255.009 857.054,229.971 			"/>
			<polyline fill="#E5F4F7" points="854.848,240.296 854.847,244.85 900.268,269.885 900.268,265.333 854.848,240.296 			"/>
			<polyline fill="#909193" points="854.848,240.296 854.847,244.85 900.268,269.885 900.268,265.333 854.848,240.296 			"/>
			<polyline fill="#E5F4F7" points="902.473,264.108 900.268,265.333 900.268,269.885 902.429,268.679 902.473,264.108 			"/>
			<polyline fill="#758082" points="902.473,264.108 900.268,265.333 900.268,269.885 902.429,268.679 902.473,264.108 			"/>
			<polyline fill="#E5F4F7" points="857.054,239.07 854.848,240.296 900.268,265.333 902.473,264.108 857.054,239.07 			"/>
			<polyline fill="#ADB5B6" points="857.054,239.07 854.848,240.296 900.268,265.333 902.473,264.108 857.054,239.07 			"/>
			<polyline fill="#E5F4F7" points="854.848,249.401 854.847,253.955 900.268,278.991 900.268,274.438 854.848,249.401 			"/>
			<polyline fill="#909193" points="854.848,249.401 854.847,253.955 900.268,278.991 900.268,274.438 854.848,249.401 			"/>
			<polyline fill="#E5F4F7" points="902.473,273.213 900.268,274.438 900.268,278.991 902.429,277.784 902.473,273.213 			"/>
			<polyline fill="#758082" points="902.473,273.213 900.268,274.438 900.268,278.991 902.429,277.784 902.473,273.213 			"/>
			<polyline fill="#E5F4F7" points="857.054,248.175 854.848,249.401 900.268,274.438 902.473,273.213 857.054,248.175 			"/>
			<polyline fill="#ADB5B6" points="857.054,248.175 854.848,249.401 900.268,274.438 902.473,273.213 857.054,248.175 			"/>
			<path fill="#E5F4F7" d="M934.896,266.22v4.553l10.613,5.849l1.604-0.901l4.146,2.301l-0.364,1.568l7.175,3.954v-4.551
				L934.896,266.22 M912.648,253.956l-0.001,4.553l5.781,3.188l0.008-4.55L912.648,253.956"/>
			<path fill="#909193" d="M934.896,266.22v4.553l10.613,5.849l1.604-0.901l4.146,2.301l-0.364,1.568l7.175,3.954v-4.551
				L934.896,266.22 M912.648,253.956l-0.001,4.553l5.781,3.188l0.008-4.55L912.648,253.956"/>
			<polyline fill="#E5F4F7" points="960.273,277.768 958.067,278.993 958.067,283.544 960.229,282.338 960.273,277.768 			"/>
			<polyline fill="#758082" points="960.273,277.768 958.067,278.993 958.067,283.544 960.229,282.338 960.273,277.768 			"/>
			<path fill="#E5F4F7" d="M934.896,263.779v2.441l23.172,12.773l2.206-1.226L934.896,263.779 M914.854,252.731l-2.205,1.225
				l5.789,3.19l0.003-2.438L914.854,252.731"/>
			<path fill="#ADB5B6" d="M934.896,263.779v2.441l23.172,12.773l2.206-1.226L934.896,263.779 M914.854,252.731l-2.205,1.225
				l5.789,3.19l0.003-2.438L914.854,252.731"/>
			<path fill="#E5F4F7" d="M949.956,283.628l-0.94,4.036l9.053,4.989v-4.552L949.956,283.628 M930.807,273.073v4.096l-6.471-3.561
				l-0.094,0.399l21.617,11.915l0.938-4.034L930.807,273.073 M912.648,263.063l-0.001,4.554l4.289,2.364l0.938-4.036
				L912.648,263.063"/>
			<path fill="#909193" d="M949.956,283.628l-0.94,4.036l9.053,4.989v-4.552L949.956,283.628 M930.807,273.073v4.096l-6.471-3.561
				l-0.094,0.399l21.617,11.915l0.938-4.034L930.807,273.073 M912.648,263.063l-0.001,4.554l4.289,2.364l0.938-4.036
				L912.648,263.063"/>
			<polyline fill="#E5F4F7" points="960.273,286.875 958.067,288.101 958.067,292.652 960.229,291.446 960.273,286.875 			"/>
			<polyline fill="#758082" points="960.273,286.875 958.067,288.101 958.067,292.652 960.229,291.446 960.273,286.875 			"/>
			<path fill="#E5F4F7" d="M950.458,281.465l-0.502,2.163l8.111,4.473l2.206-1.225L950.458,281.465 M930.807,272.626v0.447
				l15.992,8.815l0.365-1.564l-4.147-2.303l0.595-0.332l-8.714-4.803v1.99l-0.002-0.002l0,0L930.807,272.626 M914.854,261.838
				l-2.205,1.226l5.228,2.882l0.373-1.602l0.179-0.1v-0.436L914.854,261.838"/>
			<path fill="#ADB5B6" d="M950.458,281.465l-0.502,2.163l8.111,4.473l2.206-1.225L950.458,281.465 M930.807,272.626v0.447
				l15.992,8.815l0.365-1.564l-4.147-2.303l0.595-0.332l-8.714-4.803v1.99l-0.002-0.002l0,0L930.807,272.626 M914.854,261.838
				l-2.205,1.226l5.228,2.882l0.373-1.602l0.179-0.1v-0.436L914.854,261.838"/>
			<path fill="#E5F4F7" d="M944.064,293.624l-0.371,0.205l0.286,0.157L944.064,293.624 M948.079,291.692l-0.939,4.036l10.929,6.024
				v-4.551L948.079,291.692 M912.648,272.163l-0.001,4.553l2.412,1.33l0.938-4.037L912.648,272.163"/>
			<path fill="#909193" d="M944.064,293.624l-0.371,0.205l0.286,0.157L944.064,293.624 M948.079,291.692l-0.939,4.036l10.929,6.024
				v-4.551L948.079,291.692 M912.648,272.163l-0.001,4.553l2.412,1.33l0.938-4.037L912.648,272.163"/>
			<polyline fill="#E5F4F7" points="960.273,295.975 958.067,297.201 958.067,301.752 960.229,300.545 960.273,295.975 			"/>
			<polyline fill="#758082" points="960.273,295.975 958.067,297.201 958.067,301.752 960.229,300.545 960.273,295.975 			"/>
			<path fill="#E5F4F7" d="M948.582,289.53l-0.503,2.162l9.988,5.508l2.205-1.226L948.582,289.53 M923.809,275.874l-0.132,0.564
				l0.01,0.005l0.006-0.002l21.609,11.874l0.122-0.526L923.809,275.874 M914.854,270.937l-2.205,1.226L916,274.01l0.505-2.163
				L914.854,270.937"/>
			<path fill="#ADB5B6" d="M948.582,289.53l-0.503,2.162l9.988,5.508l2.205-1.226L948.582,289.53 M923.809,275.874l-0.132,0.564
				l0.01,0.005l0.006-0.002l21.609,11.874l0.122-0.526L923.809,275.874 M914.854,270.937l-2.205,1.226L916,274.01l0.505-2.163
				L914.854,270.937"/>
			<path fill="#E5F4F7" d="M946.202,299.763l-0.94,4.035l12.807,7.06v-4.552L946.202,299.763 M921.428,286.107l-0.938,4.036
				l21.608,11.911l0.941-4.032L921.428,286.107 M912.648,281.268l-0.001,4.553l0.532,0.293l0.94-4.036L912.648,281.268"/>
			<path fill="#909193" d="M946.202,299.763l-0.94,4.035l12.807,7.06v-4.552L946.202,299.763 M921.428,286.107l-0.938,4.036
				l21.608,11.911l0.941-4.032L921.428,286.107 M912.648,281.268l-0.001,4.553l0.532,0.293l0.94-4.036L912.648,281.268"/>
			<polyline fill="#E5F4F7" points="960.273,305.079 958.067,306.306 958.067,310.857 960.229,309.65 960.273,305.079 			"/>
			<polyline fill="#758082" points="960.273,305.079 958.067,306.306 958.067,310.857 960.229,309.65 960.273,305.079 			"/>
			<path fill="#E5F4F7" d="M946.704,297.6l-0.502,2.164l11.865,6.542l2.205-1.227L946.704,297.6 M921.809,284.471l-0.381,1.636
				l21.612,11.915l0.504-2.164l-1.765-0.973l-0.538,0.297l-0.002-0.595l0.002,0.595L921.809,284.471 M914.556,280.208l-1.906,1.06
				l1.473,0.811L914.556,280.208"/>
			<path fill="#ADB5B6" d="M946.704,297.6l-0.502,2.164l11.865,6.542l2.205-1.227L946.704,297.6 M921.809,284.471l-0.381,1.636
				l21.612,11.915l0.504-2.164l-1.765-0.973l-0.538,0.297l-0.002-0.595l0.002,0.595L921.809,284.471 M914.556,280.208l-1.906,1.06
				l1.473,0.811L914.556,280.208"/>
			<polyline fill="#E5F4F7" points="970.47,285.851 970.467,290.404 1015.889,315.44 1015.889,310.889 970.47,285.851 			"/>
			<polyline fill="#909193" points="970.47,285.851 970.467,290.404 1015.889,315.44 1015.889,310.889 970.47,285.851 			"/>
			<polyline fill="#E5F4F7" points="1018.094,309.663 1015.889,310.889 1015.889,315.44 1018.048,314.233 1018.094,309.663 			"/>
			<polyline fill="#758082" points="1018.094,309.663 1015.889,310.889 1015.889,315.44 1018.048,314.233 1018.094,309.663 			"/>
			<polyline fill="#E5F4F7" points="972.673,284.625 970.47,285.851 1015.889,310.889 1018.094,309.663 972.673,284.625 			"/>
			<polyline fill="#ADB5B6" points="972.673,284.625 970.47,285.851 1015.889,310.889 1018.094,309.663 972.673,284.625 			"/>
			<polyline fill="#E5F4F7" points="970.47,294.958 970.467,299.512 1015.889,324.548 1015.889,319.996 970.47,294.958 			"/>
			<polyline fill="#909193" points="970.47,294.958 970.467,299.512 1015.889,324.548 1015.889,319.996 970.47,294.958 			"/>
			<polyline fill="#E5F4F7" points="1018.094,318.77 1015.889,319.996 1015.889,324.548 1018.048,323.341 1018.094,318.77 			"/>
			<polyline fill="#758082" points="1018.094,318.77 1015.889,319.996 1015.889,324.548 1018.048,323.341 1018.094,318.77 			"/>
			<polyline fill="#E5F4F7" points="972.673,293.732 970.47,294.958 1015.889,319.996 1018.094,318.77 972.673,293.732 			"/>
			<polyline fill="#ADB5B6" points="972.673,293.732 970.47,294.958 1015.889,319.996 1018.094,318.77 972.673,293.732 			"/>
			<polyline fill="#E5F4F7" points="970.47,304.058 970.467,308.611 1015.889,333.646 1015.889,329.093 970.47,304.058 			"/>
			<polyline fill="#909193" points="970.47,304.058 970.467,308.611 1015.889,333.646 1015.889,329.093 970.47,304.058 			"/>
			<polyline fill="#E5F4F7" points="1018.094,327.869 1015.889,329.093 1015.889,333.646 1018.048,332.441 1018.094,327.869 			"/>
			<polyline fill="#758082" points="1018.094,327.869 1015.889,329.093 1015.889,333.646 1018.048,332.441 1018.094,327.869 			"/>
			<polyline fill="#E5F4F7" points="972.673,302.832 970.47,304.058 1015.889,329.093 1018.094,327.869 972.673,302.832 			"/>
			<polyline fill="#ADB5B6" points="972.673,302.832 970.47,304.058 1015.889,329.093 1018.094,327.869 972.673,302.832 			"/>
			<polyline fill="#E5F4F7" points="970.47,313.162 970.467,317.716 1015.889,342.751 1015.889,338.201 970.47,313.162 			"/>
			<polyline fill="#909193" points="970.47,313.162 970.467,317.716 1015.889,342.751 1015.889,338.201 970.47,313.162 			"/>
			<polyline fill="#E5F4F7" points="1018.094,336.974 1015.889,338.201 1015.889,342.751 1018.048,341.544 1018.094,336.974 			"/>
			<polyline fill="#758082" points="1018.094,336.974 1015.889,338.201 1015.889,342.751 1018.048,341.544 1018.094,336.974 			"/>
			<polyline fill="#E5F4F7" points="972.673,311.938 970.47,313.162 1015.889,338.201 1018.094,336.974 972.673,311.938 			"/>
			<polyline fill="#ADB5B6" points="972.673,311.938 970.47,313.162 1015.889,338.201 1018.094,336.974 972.673,311.938 			"/>
			<path fill="#CACACC" d="M932.831,324.365l0.083,24.43c0.015,4.543-2.519,8.746-6.638,11.016l-18.114,9.984l57.806,31.865
				l18.181-9.967c4.117-2.26,6.659-6.451,6.659-10.988v-24.525L932.831,324.365"/>
			<polyline fill="#A0A7AD" points="908.159,369.796 908.159,374.349 912.292,372.072 908.159,369.796 			"/>
			<polyline fill="#E4E4E5" points="932.838,326.835 932.844,328.806 932.845,328.808 932.84,326.837 932.838,326.835 			"/>
			<path fill="#B5B5B7" d="M939.611,328.087l-0.563,2.414l-1.56,0.867l53.313,29.395v-4.58L939.611,328.087 M933.735,324.861
				l0.012,2.477l-0.907-0.5l0.005,1.971l2.674,1.475l0.919-3.938l-0.446-0.246l-2.243,1.238L933.735,324.861"/>
			<polyline fill="#EB4517" points="832.274,383.88 731.542,328.392 731.542,310.165 832.274,365.654 832.274,383.88 			"/>
			<polyline fill="#F37C54" points="832.274,383.88 731.542,328.392 731.542,310.165 832.274,365.654 832.274,383.88 			"/>
			<polyline fill="#FFFFFF" points="734.053,317.954 733.065,317.41 733.065,311.005 734.053,311.548 734.053,317.954 			"/>
			<polyline fill="#FFFFFF" points="736.531,319.321 735.546,318.776 735.546,312.371 736.531,312.915 736.531,319.321 			"/>
			<polyline fill="#FFFFFF" points="739.014,320.686 738.026,320.142 738.026,313.737 739.014,314.281 739.014,320.686 			"/>
			<polyline fill="#FFFFFF" points="741.494,322.052 740.505,321.507 740.505,315.103 741.494,315.647 741.494,322.052 			"/>
			<polyline fill="#FFFFFF" points="746.455,324.787 745.465,324.242 745.465,317.835 746.455,318.38 746.455,324.787 			"/>
			<polyline fill="#FFFFFF" points="748.933,326.152 747.946,325.607 747.946,319.202 748.933,319.747 748.933,326.152 			"/>
			<polyline fill="#FFFFFF" points="751.415,327.517 750.427,326.972 750.427,320.568 751.415,321.113 751.415,327.517 			"/>
			<polyline fill="#FFFFFF" points="753.896,328.884 752.906,328.339 752.906,321.935 753.896,322.478 753.896,328.884 			"/>
			<polyline fill="#FFFFFF" points="758.854,331.617 757.868,331.072 757.868,324.667 758.854,325.21 758.854,331.617 			"/>
			<polyline fill="#FFFFFF" points="761.336,332.982 760.347,332.437 760.347,326.033 761.336,326.578 761.336,332.982 			"/>
			<polyline fill="#FFFFFF" points="763.814,334.349 762.828,333.804 762.828,327.4 763.814,327.943 763.814,334.349 			"/>
			<polyline fill="#FFFFFF" points="766.296,335.714 765.309,335.171 765.309,328.765 766.296,329.31 766.296,335.714 			"/>
			<polyline fill="#FFFFFF" points="771.257,338.449 770.269,337.904 770.269,331.498 771.257,332.042 771.257,338.449 			"/>
			<polyline fill="#FFFFFF" points="773.736,339.814 772.748,339.269 772.748,332.865 773.736,333.41 773.736,339.814 			"/>
			<polyline fill="#FFFFFF" points="776.217,341.181 775.229,340.636 775.229,334.23 776.217,334.775 776.217,341.181 			"/>
			<polyline fill="#FFFFFF" points="778.695,342.546 777.71,342.001 777.71,335.597 778.695,336.14 778.695,342.546 			"/>
			<polyline fill="#FFFFFF" points="783.658,345.279 782.669,344.736 782.669,338.33 783.658,338.875 783.658,345.279 			"/>
			<polyline fill="#FFFFFF" points="786.138,346.646 785.148,346.101 785.148,339.695 786.138,340.24 786.138,346.646 			"/>
			<polyline fill="#FFFFFF" points="788.617,348.011 787.63,347.466 787.63,341.06 788.617,341.605 788.617,348.011 			"/>
			<polyline fill="#FFFFFF" points="791.099,349.376 790.11,348.833 790.11,342.427 791.099,342.972 791.099,349.376 			"/>
			<polyline fill="#FFFFFF" points="796.059,352.111 795.071,351.566 795.071,345.16 796.059,345.705 796.059,352.111 			"/>
			<polyline fill="#FFFFFF" points="798.539,353.476 797.55,352.931 797.55,346.527 798.539,347.07 798.539,353.476 			"/>
			<polyline fill="#FFFFFF" points="801.019,354.841 800.031,354.298 800.031,347.894 801.019,348.437 801.019,354.841 			"/>
			<polyline fill="#FFFFFF" points="803.499,356.208 802.512,355.666 802.512,349.259 803.499,349.802 803.499,356.208 			"/>
			<polyline fill="#FFFFFF" points="808.459,358.943 807.474,358.398 807.474,351.992 808.459,352.535 808.459,358.943 			"/>
			<polyline fill="#FFFFFF" points="810.939,360.306 809.953,359.763 809.953,353.357 810.939,353.902 810.939,360.306 			"/>
			<polyline fill="#FFFFFF" points="813.421,361.673 812.431,361.128 812.431,354.724 813.421,355.267 813.421,361.673 			"/>
			<polyline fill="#FFFFFF" points="815.9,363.041 814.914,362.496 814.914,356.089 815.9,356.634 815.9,363.041 			"/>
			<polyline fill="#FFFFFF" points="820.861,365.773 819.874,365.228 819.874,358.822 820.861,359.367 820.861,365.773 			"/>
			<polyline fill="#FFFFFF" points="823.341,367.138 822.354,366.593 822.354,360.187 823.341,360.734 823.341,367.138 			"/>
			<polyline fill="#FFFFFF" points="825.823,368.503 824.833,367.962 824.833,361.554 825.823,362.099 825.823,368.503 			"/>
			<polyline fill="#FFFFFF" points="828.301,369.871 827.314,369.328 827.314,362.921 828.301,363.464 828.301,369.871 			"/>
			<polyline fill="#FFFFFF" points="743.974,326.126 742.987,325.583 742.987,316.47 743.974,317.014 743.974,326.126 			"/>
			<polyline fill="#FFFFFF" points="756.375,332.958 755.387,332.414 755.387,323.3 756.375,323.843 756.375,332.958 			"/>
			<polyline fill="#FFFFFF" points="768.775,339.789 767.788,339.246 767.788,330.132 768.775,330.675 768.775,339.789 			"/>
			<polyline fill="#FFFFFF" points="781.178,346.621 780.189,346.076 780.189,336.962 781.178,337.507 781.178,346.621 			"/>
			<polyline fill="#FFFFFF" points="793.579,353.453 792.591,352.908 792.591,343.794 793.579,344.337 793.579,353.453 			"/>
			<polyline fill="#FFFFFF" points="805.979,360.283 804.992,359.738 804.992,350.625 805.979,351.169 805.979,360.283 			"/>
			<polyline fill="#FFFFFF" points="818.381,367.115 817.396,366.57 817.396,357.457 818.381,358 818.381,367.115 			"/>
			<polyline fill="#FFFFFF" points="830.782,373.945 829.796,373.4 829.796,364.287 830.782,364.832 830.782,373.945 			"/>
			<polyline fill="#F37C54" points="836.546,363.552 836.546,381.716 832.274,383.88 832.274,365.654 836.546,363.552 			"/>
			<polyline fill="#C76746" points="836.546,363.552 832.274,365.654 832.274,383.88 836.546,381.716 836.546,363.552 			"/>
			<polyline fill="#F37C54" points="731.542,310.165 735.798,307.801 836.546,363.552 832.274,365.654 731.542,310.165 			"/>
			<polyline fill="#F8B29B" points="735.798,307.801 731.542,310.165 832.274,365.654 836.546,363.552 735.798,307.801 			"/>
			<path fill="#C59E78" d="M1091.85,439.914c0,1.139-0.39,1.963-1.051,2.438l-0.481,0.258l-0.021,0.014
				c-0.95,0.377-2.267,0.207-3.725-0.6c-1.301-0.73-2.499-1.848-3.422-3.107l-0.007-0.004c-1.128-1.553-1.84-3.32-1.84-4.848
				c0-1.166,0.409-2.006,1.104-2.475l0.041-0.023l0.222-0.121l0.016-0.012c0.963-0.473,2.349-0.334,3.888,0.523
				c1.319,0.734,2.541,1.869,3.461,3.156l0.031,0.043C1091.161,436.681,1091.85,438.417,1091.85,439.914"/>
			<path fill="#485654" d="M1090.063,435.156l-0.341,0.125l-0.034,0.016l-2.864,1.584l-3.675,2.035l-45.201,24.996l-35.869,19.855
				l-0.006,0.006l-0.521,0.285l-6.969-3.994l0.176-0.1l87.646-48.377l0.041-0.023l0.222-0.119l0.015-0.012
				c0.963-0.473,2.35-0.334,3.889,0.523c1.319,0.732,2.541,1.867,3.461,3.154L1090.063,435.156"/>
			<path fill="#6E8583" d="M1083.93,431.166c-0.467,0-0.886,0.092-1.245,0.268l-0.016,0.012l-0.222,0.121l-0.041,0.023
				l-87.603,48.352c0.333-0.141,0.711-0.215,1.126-0.215c0.772,0,1.673,0.256,2.634,0.789c1.354,0.752,2.585,1.932,3.517,3.254
				l35.868-19.855l45.194-25.002l3.682-2.031l2.864-1.584l0.034-0.014l0.31-0.17c-0.92-1.287-2.142-2.422-3.461-3.154
				C1085.609,431.421,1084.704,431.166,1083.93,431.166"/>
			<path fill="#485654" d="M1091.85,439.914c0,1.139-0.39,1.963-1.051,2.438l-0.481,0.258l-0.021,0.014l-87.803,48.396l-0.08,0.049
				v-0.018l-0.328-7.271v-0.004l35.863-19.861l45.194-25.002l3.682-2.031l2.898-1.598l0.31-0.17l0.03,0.043
				C1091.161,436.681,1091.85,438.417,1091.85,439.914"/>
			<path fill="#485654" d="M989.053,490.019l1.017-1.99l0.046-0.086l3.491-6.816l0.128-0.25h0.003
				c0.803-1.344,2.66-1.563,4.827-0.361c1.354,0.752,2.589,1.934,3.519,3.26h0.001v0.002c1.056,1.502,1.724,3.189,1.724,4.66
				c0,1.859-1.063,2.889-2.642,2.877v0.006l-8.658-0.17h-0.083l-0.209-0.01l-2.477-0.051c-0.223-0.006-0.417-0.092-0.553-0.227
				l-0.089-0.115l-0.067-0.113C988.948,490.441,988.948,490.226,989.053,490.019"/>
			<path fill="#5B6E6C" d="M1001.307,491.31c-0.03,0-0.063,0.002-0.092,0.002c-0.017,0-0.034,0-0.05-0.002v0.002
				c0.007,0,0.018,0,0.028,0C1001.231,491.312,1001.269,491.312,1001.307,491.31 M1002.452,491.039l-0.039,0.018
				c-0.217,0.102-0.456,0.178-0.716,0.219C1001.972,491.232,1002.223,491.152,1002.452,491.039 M1003.188,485.736
				c0.037,0.086,0.07,0.174,0.101,0.256l0.051,0.121c0.166,0.443,0.292,0.879,0.368,1.301c0.028,0.158,0.053,0.313,0.066,0.463
				v0.029c0.021,0.18,0.028,0.355,0.028,0.527l0,0l0,0c0,0.768-0.179,1.396-0.501,1.865c0.324-0.469,0.505-1.098,0.505-1.863
				C1003.807,487.582,1003.583,486.656,1003.188,485.736 M1002.083,483.775v0.004l0.061,0.088c0.105,0.148,0.202,0.299,0.293,0.449
				l0.036,0.049c0.112,0.186,0.226,0.379,0.321,0.563c0.105,0.193,0.203,0.387,0.293,0.58l0.004,0.01
				c-0.271-0.596-0.611-1.182-1.006-1.742H1002.083 M995.931,479.726c-0.973,0-1.747,0.4-2.193,1.148h-0.003l-0.128,0.25
				l-3.491,6.816l-0.046,0.086l-1.017,1.99c-0.055,0.111-0.082,0.223-0.082,0.332c0,0.098,0.021,0.193,0.06,0.283l0.067,0.113l0,0
				l1.45-0.783l1.884-1.008l0.232-0.129l2.519-1.35l6.37-3.42l0.523-0.283h0.007v-0.002h-0.001c-0.93-1.324-2.164-2.506-3.519-3.258
				C997.604,479.982,996.703,479.726,995.931,479.726"/>
			<path fill="#485654" d="M989.098,490.748l0.089,0.113c0.128,0.145,0.33,0.229,0.553,0.234l0.637,0.016l2.021,0.043h0.028v-0.006
				h0.083l8.658,0.17v-0.008c0.462,0.008,0.891-0.086,1.248-0.256l0.082-0.037c0.813-0.428,1.308-1.313,1.308-2.584
				c0-0.172-0.007-0.35-0.028-0.527v-0.029c-0.015-0.148-0.038-0.305-0.066-0.463c-0.076-0.422-0.202-0.857-0.368-1.301
				l-0.051-0.121c-0.052-0.148-0.12-0.307-0.188-0.457l-0.015-0.027c-0.09-0.191-0.188-0.385-0.293-0.578
				c-0.097-0.186-0.209-0.379-0.321-0.564l-0.035-0.049c-0.092-0.148-0.188-0.301-0.294-0.449l-0.061-0.086v-0.006h-0.007
				l-0.523,0.283l-6.37,3.42l-2.519,1.35l-0.232,0.129l-1.884,1.008L989.098,490.748"/>
			<path fill="#3B4846" d="M1002.083,483.773L1002.083,483.773h-0.007l-0.523,0.285l-6.37,3.418l-2.519,1.352l-0.232,0.127
				l-1.884,1.008l-1.45,0.785l0,0l0.089,0.113c0.128,0.145,0.33,0.229,0.553,0.234l0.637,0.016l2.021,0.043h0.028v-0.006h0.083
				l8.658,0.17v-0.006v-0.002l0,0c0.016,0.002,0.033,0.002,0.05,0.002c0.443,0,0.854-0.094,1.198-0.258l0.082-0.037
				c0.813-0.428,1.308-1.313,1.308-2.584c0-0.172-0.007-0.35-0.028-0.527v-0.029c-0.015-0.148-0.038-0.305-0.066-0.463
				c-0.076-0.422-0.202-0.857-0.368-1.301l-0.051-0.121c-0.052-0.148-0.12-0.307-0.188-0.457l-0.015-0.027
				c-0.09-0.191-0.188-0.385-0.293-0.578c-0.097-0.186-0.209-0.379-0.321-0.564l-0.035-0.049c-0.092-0.148-0.188-0.301-0.294-0.449
				l-0.061-0.086L1002.083,483.773"/>
			<path fill="#262729" d="M989.029,490.634l0.061,0.113h0.008l0.089,0.113c0.127,0.145,0.33,0.229,0.553,0.234l0.637,0.016
				l2.02,0.043h0.03v-0.006l0.007-2.193v-0.041l-2.362-0.887l-1.017,1.992C988.948,490.226,988.948,490.441,989.029,490.634z"/>
			<path fill="#262729" d="M989.981,488.478c0,0.85,0.722,1.938,1.611,2.432c0.892,0.496,1.611,0.207,1.611-0.643
				s-0.721-1.939-1.611-2.436C990.703,487.337,989.981,487.626,989.981,488.478z"/>
			<polyline fill="#7F56C5" points="842.434,424.664 842.434,411.005 854.821,417.835 854.821,431.492 842.434,424.664 			"/>
			<polyline fill="#C2A9E3" points="842.434,411.005 842.434,424.664 854.821,431.492 854.821,417.835 842.434,411.005 			"/>
			<polyline fill="#7F56C5" points="842.434,411.005 854.821,404.177 867.208,411.005 854.821,417.835 842.434,411.005 			"/>
			<polyline opacity="0.8" fill="#E8DBF3" enable-background="new    " points="854.821,404.177 842.434,411.005 854.821,417.835 
				867.208,411.005 854.821,404.177 			"/>
			<polygon fill="#00A19B" points="854.821,417.835 867.208,411.005 867.208,424.664 854.821,431.492 			"/>
			<polygon fill="#7F56C5" points="854.821,417.835 867.208,411.005 867.208,424.664 854.821,431.492 			"/>
			<polygon fill="#7C98AB" points="801.238,292.62 801.238,278.962 813.627,285.791 813.627,299.447 			"/>
			<polygon fill="#A7BAC9" points="801.238,278.962 813.627,272.133 826.013,278.962 813.627,285.791 			"/>
			<polygon fill="#00A19B" points="813.627,285.791 826.013,278.962 826.013,292.62 813.627,299.447 			"/>
			<polygon fill="#5D7E95" points="813.627,285.791 826.013,278.962 826.013,292.62 813.627,299.447 			"/>
			<polyline fill="#CF3A52" points="792.944,320.021 792.944,306.363 805.33,313.192 805.33,326.849 792.944,320.021 			"/>
			<polyline fill="#E3516E" points="792.944,306.363 792.944,320.021 805.33,326.849 805.33,313.192 792.944,306.363 			"/>
			<polyline fill="#CF3A52" points="792.944,306.363 805.33,299.535 817.719,306.363 805.33,313.192 792.944,306.363 			"/>
			<polyline fill="#F6678A" points="805.33,299.535 792.944,306.363 805.33,313.192 817.719,306.363 805.33,299.535 			"/>
			<polygon fill="#CF3A52" points="805.33,313.192 817.719,306.363 817.719,320.021 805.33,326.849 			"/>
			<polyline fill="#5CD2D2" points="772.358,244.773 739.394,263.019 739.407,299.447 772.358,281.209 772.358,244.773 			"/>
			<polyline fill="#21ADAD" points="772.358,244.773 739.394,263.019 739.407,299.447 772.358,281.209 772.358,244.773 			"/>
			<path fill="#FFFFFF" d="M765.632,273.439c0-2.081-1.768-2.797-3.948-1.599c-2.179,1.198-3.944,3.856-3.944,5.938
				s1.767,2.797,3.944,1.599C763.864,278.178,765.632,275.52,765.632,273.439z"/>
			<path fill="#FFFFFF" d="M765.632,258.729c0-2.081-1.768-2.798-3.948-1.6c-2.179,1.198-3.944,3.857-3.944,5.938
				c0,2.082,1.767,2.797,3.944,1.6C763.864,263.469,765.632,260.811,765.632,258.729z"/>
			<path fill="#FFFFFF" d="M752.88,273.094c0-2.082-1.769-2.797-3.948-1.6c-2.179,1.198-3.944,3.856-3.944,5.938
				c0,2.08,1.767,2.797,3.944,1.598C751.111,277.833,752.88,275.174,752.88,273.094z"/>
			<polygon fill="#FFFFFF" points="749.747,273.942 748.5,276.594 760.871,276.928 762.116,274.277 			"/>
			<polygon fill="#FFFFFF" points="760.871,260.472 748.5,274.405 749.747,275.689 762.116,261.756 			"/>
			<polygon fill="#FFFFFF" points="792.93,461.039 826.004,442.851 858.994,461.039 825.965,479.242 			"/>
			<polygon fill="#E6E7E8" points="792.93,461.039 792.93,465.591 825.983,483.812 858.994,465.591 858.994,461.039 
				825.965,479.242 			"/>
			<polygon fill="#D3D1D3" points="825.965,479.242 825.983,483.812 858.994,465.591 858.994,461.039 			"/>
			<polyline fill="#5CD2D2" points="739.407,299.447 735.162,297.072 735.162,260.8 739.394,263.019 739.407,299.447 			"/>
			<polyline fill="#8B9092" points="976.494,425.685 976.504,430.191 976.494,425.685 976.494,425.685 			"/>
			<g>
				<polyline fill="#A4DAE7" points="1021.91,400.644 976.494,425.685 976.504,430.191 978.714,431.437 1024.131,406.423 
					1024.131,401.869 1021.91,400.644 				"/>
				<polyline fill="#D3ECF3" points="976.494,425.685 976.504,430.191 978.714,431.437 978.714,426.904 976.494,425.685 				"/>
				<polyline fill="#D3ECF3" points="1021.91,400.644 1021.91,400.644 976.494,425.685 976.494,425.685 978.714,426.904 
					1024.131,401.869 1021.91,400.644 				"/>
			</g>
			<g>
				<polyline fill="#A4DAE7" points="1013.726,396.158 968.31,421.199 968.319,425.703 970.532,426.951 1015.946,401.937 
					1015.946,397.38 1013.726,396.158 				"/>
				<polyline fill="#D3ECF3" points="968.31,421.199 968.319,425.703 970.532,426.951 970.532,422.416 968.31,421.199 				"/>
				<polyline fill="#D3ECF3" points="1013.726,396.158 968.31,421.199 970.532,422.416 1015.946,397.38 1013.726,396.158 				"/>
			</g>
			<polyline fill="#747678" points="1032.392,406.464 1032.392,406.464 1032.392,411.019 986.975,436.033 1032.392,411.019 
				1032.392,406.464 			"/>
			<g>
				<polyline fill="#A4DAE7" points="1030.171,405.24 984.755,430.281 984.764,434.785 986.975,436.033 1032.392,411.019 
					1032.392,406.464 1030.171,405.24 				"/>
				<polyline fill="#D3ECF3" points="984.756,430.281 984.764,434.785 986.975,436.033 986.975,431.498 984.756,430.281 				"/>
				<polyline fill="#D3ECF3" points="1030.171,405.24 1030.171,405.24 984.756,430.281 986.975,431.498 1032.392,406.464 
					1030.171,405.24 				"/>
			</g>
			<path fill="#C8858F" d="M1091.873,439.914c0,1.123-0.38,1.934-1.022,2.408l-0.014,0.014l-0.498,0.271l-0.021,0.012l-5.527,3.049
				c0.658-0.475,1.043-1.293,1.043-2.422c0-1.494-0.689-3.23-1.791-4.758l-0.026-0.043c-0.923-1.287-2.144-2.422-3.465-3.156
				c-1.531-0.855-2.912-0.996-3.875-0.525l6.204-3.396c0.95-0.385,2.263-0.215,3.71,0.592c1.327,0.732,2.54,1.867,3.463,3.154
				l0.033,0.043C1091.182,436.683,1091.873,438.419,1091.873,439.914z"/>
			<polygon fill="#A7BAC9" points="1084.777,445.681 1084.793,445.667 1084.469,445.847 			"/>
			<polygon fill="#A7BAC9" points="1076.65,434.775 1076.428,434.896 1076.387,434.919 1076.679,434.761 1076.664,434.765 			"/>
			<polygon fill="#A7BAC9" points="1084.277,445.953 1084.469,445.847 1084.297,445.937 			"/>
			<polygon fill="#C8858F" points="1081.596,432.046 1082.36,431.626 1082.272,431.697 1081.757,431.982 			"/>
			<polygon fill="#C8858F" points="1089.724,442.937 1090.554,442.478 1089.711,442.949 			"/>
			<polygon fill="#A7BAC9" points="1089.694,442.964 1089.709,442.951 1089.383,443.13 			"/>
			<polygon fill="#A7BAC9" points="1081.565,432.06 1081.343,432.179 1081.304,432.203 1081.595,432.044 1081.581,432.048 			"/>
			<polygon fill="#A7BAC9" points="1089.193,443.236 1089.383,443.13 1089.212,443.222 			"/>
			<polyline fill="#CF3A52" points="891.648,451.765 924.722,433.578 957.713,451.765 924.684,469.968 891.648,451.765 			"/>
			<polyline fill="#F6678A" points="924.722,433.578 891.648,451.765 924.684,469.968 957.713,451.765 924.722,433.578 			"/>
			<polyline fill="#CF3A52" points="891.648,451.765 891.648,456.318 924.703,474.541 957.713,456.318 957.713,451.765 
				924.684,469.968 891.648,451.765 			"/>
			<polygon fill="#FFFFFF" points="933.879,447.181 931.449,451.908 937.21,456.31 928.217,455.785 923.422,459.722 
				920.295,454.669 911.568,452.701 918.629,450.103 918.034,444.951 925.521,448.398 			"/>
			<polyline fill="#E3516E" points="891.648,451.765 891.648,456.318 924.703,474.541 924.684,469.968 891.648,451.765 			"/>
			<polyline fill="#446CA9" points="755.586,398.482 788.66,380.296 821.651,398.482 788.622,416.685 755.586,398.482 			"/>
			<polyline opacity="0.5" fill="#446CA9" enable-background="new    " points="788.66,380.296 755.586,398.482 788.622,416.685 
				821.651,398.482 788.66,380.296 			"/>
			<polyline fill="#1E428A" points="755.586,398.482 755.586,403.035 788.641,421.257 821.651,403.035 821.651,398.482 
				788.622,416.685 755.586,398.482 			"/>
			<path fill="#FFFFFF" d="M787.287,390.843l13.861,7.643c0.887,0.486,0.887,1.707,0,2.193l-9.733,5.365
				c-0.409,0.227-0.917,0.227-1.326,0l-7.415-4.078l-6.461-3.555c-0.885-0.488-0.886-1.707-0.001-2.195l9.747-5.373
				C786.371,390.617,786.877,390.617,787.287,390.843z"/>
			<polygon fill="#FFFFFF" points="782.494,406.412 786.619,404.136 782.674,401.966 			"/>
			<polyline opacity="0.25" fill="#959BC4" enable-background="new    " points="755.586,398.482 755.586,403.035 788.641,421.257 
				788.622,416.685 755.586,398.482 			"/>
			<polyline fill="#E7E9EA" points="912.292,372.074 908.159,374.349 965.97,406.216 908.162,374.349 912.293,372.074 
				912.292,372.074 			"/>
			<polyline fill="#AFB6BB" points="912.293,372.074 908.162,374.349 965.97,406.216 965.968,401.662 912.293,372.074 			"/>
			<polyline fill="#AFB6BB" points="908.159,369.796 908.159,374.349 912.292,372.074 908.159,369.796 			"/>
			<polyline fill="#543E36" points="918.249,264.344 922.345,262.042 926.493,264.344 914.282,316.821 910.166,319.111 
				922.397,266.645 918.249,264.344 			"/>
			<polyline fill="#72594B" points="916.462,276.971 916.462,281.524 941.241,295.182 941.218,290.617 916.462,276.971 			"/>
			<polyline fill="#543E36" points="916.462,276.971 920.546,274.719 945.369,288.352 945.369,292.905 941.241,295.182 
				941.218,290.617 916.462,276.971 			"/>
			<polyline fill="#FFFFFE" points="923.691,276.442 923.687,276.444 945.302,288.315 923.691,276.442 			"/>
			<polyline fill="#D2CFCB" points="923.691,276.442 923.687,276.444 945.302,288.315 923.691,276.442 			"/>
			<polyline fill="#B19380" points="919.591,278.697 919.588,278.698 941.218,290.617 919.591,278.697 			"/>
			<polyline fill="#A08171" points="923.687,276.444 919.591,278.697 941.218,290.617 941.241,295.182 944.064,293.624 
				945.302,288.315 923.687,276.444 			"/>
			<polyline fill="#72594B" points="912.7,293.035 912.7,297.587 937.479,311.245 937.46,306.681 912.7,293.035 			"/>
			<polyline fill="#543E36" points="912.7,293.035 916.786,290.782 941.607,304.416 941.607,308.968 937.479,311.245 
				937.46,306.681 912.7,293.035 			"/>
			<polyline fill="#FFFFFE" points="919.939,292.508 919.938,292.513 941.555,304.386 941.555,304.386 919.939,292.508 			"/>
			<polyline fill="#FFFFFF" points="919.939,292.508 919.938,292.513 941.555,304.386 941.555,304.386 919.939,292.508 			"/>
			<polyline fill="#A08171" points="919.936,292.506 919.933,292.51 919.938,292.513 919.939,292.508 919.936,292.506 			"/>
			<polyline fill="#A08171" points="919.933,292.51 915.848,294.751 937.46,306.681 937.479,311.245 940.322,309.677 
				941.555,304.386 919.938,292.513 919.933,292.51 			"/>
			<polyline fill="#543E36" points="943.017,278.021 947.112,275.721 951.258,278.022 939.05,330.5 934.935,332.791 
				947.164,280.325 943.017,278.021 			"/>
			<polyline fill="#72594B" points="906.034,316.817 910.166,319.111 922.397,266.645 918.249,264.344 906.034,316.817 			"/>
			<polyline fill="#A08171" points="918.428,264.247 918.254,264.344 918.428,264.438 918.428,264.247 			"/>
			<polyline fill="#A08171" points="947.112,275.721 943.61,277.69 943.017,278.021 947.164,280.325 951.258,278.022 
				947.112,275.721 			"/>
			<polyline fill="#543E36" points="910.755,296.499 914.85,294.198 918.998,296.5 897.422,389.281 893.305,391.57 914.902,298.801 
				910.755,296.499 			"/>
			<polyline fill="#72594B" points="908.967,309.127 908.967,313.679 933.747,327.337 933.724,322.773 908.967,309.127 			"/>
			<polyline fill="#72594B" points="904.585,343.111 902.554,346.548 927.335,360.207 927.312,355.642 904.585,343.111 			"/>
			<polyline fill="#72594B" points="900.827,359.267 898.428,362.515 923.207,376.173 923.187,371.609 900.827,359.267 			"/>
			<polyline fill="#72594B" points="908.353,326.912 907.434,330.966 929.986,343.4 929.965,338.835 908.353,326.912 			"/>
			<polyline fill="#72594B" points="897.066,375.369 894.289,378.41 919.069,392.066 919.046,387.501 897.066,375.369 			"/>
			<polyline fill="#543E36" points="897.066,375.369 901.131,373.099 923.196,385.238 923.196,389.789 919.069,392.066 
				919.046,387.501 897.066,375.369 			"/>
			<polyline fill="#543E36" points="908.967,309.127 913.053,306.875 937.872,320.508 937.872,325.06 933.747,327.337 
				933.724,322.773 908.967,309.127 			"/>
			<polyline fill="#543E36" points="908.353,326.912 912.438,324.658 934.112,336.572 934.112,341.123 929.986,343.4 
				929.965,338.835 908.353,326.912 			"/>
			<polyline fill="#543E36" points="904.585,343.111 908.691,340.853 931.461,353.376 931.461,357.929 927.335,360.207 
				927.312,355.642 904.585,343.111 			"/>
			<polyline fill="#543E36" points="900.827,359.267 904.919,357.023 927.335,369.341 927.335,373.896 923.207,376.173 
				923.187,371.609 900.827,359.267 			"/>
			<polyline fill="#A08171" points="916.186,308.595 912.077,310.84 933.724,322.773 933.747,327.337 937.872,325.06 
				937.872,320.508 916.186,308.595 			"/>
			<polyline fill="#A08171" points="912.438,324.658 908.353,326.912 929.965,338.835 929.986,343.4 934.112,341.123 
				934.112,336.572 932.87,335.886 912.438,324.658 			"/>
			<polyline fill="#A08171" points="908.691,340.853 908.681,340.861 904.585,343.111 927.312,355.642 927.335,360.207 
				931.461,357.929 931.461,354.599 931.461,353.376 908.691,340.853 			"/>
			<polyline fill="#A08171" points="904.919,357.023 900.827,359.267 923.187,371.609 923.207,376.173 927.335,373.896 
				927.335,369.341 918.146,364.292 904.919,357.023 			"/>
			<polyline fill="#A08171" points="901.131,373.099 897.066,375.369 919.046,387.501 919.069,392.066 923.196,389.789 
				923.196,385.238 901.131,373.099 			"/>
			<polygon fill="#543E36" points="935.522,310.178 939.617,307.876 943.764,310.179 922.188,402.958 918.072,405.248 
				939.67,312.479 			"/>
			<polygon fill="#72594B" points="889.17,389.275 893.324,391.57 917.338,288.307 910.755,296.499 			"/>
			<polygon fill="#72594B" points="913.433,293.421 913.433,297.973 938.213,311.63 938.191,307.066 			"/>
			<polygon fill="#72594B" points="913.94,402.955 918.072,405.248 943.402,296.329 935.522,310.178 			"/>
			<polygon fill="#543E36" points="915.228,309.108 916.186,308.595 916.373,307.835 913.049,306.776 912.825,307.742 			"/>
			<polygon fill="#72594B" points="930.801,330.496 934.935,332.791 947.164,280.325 943.017,278.021 			"/>
			<polyline fill="#008FBE" points="916.95,242.963 917.613,242.583 921.726,240.297 922.548,240.75 926.707,243.045 
				922.548,245.299 918.459,243.046 918.459,243.047 918.268,242.942 917.182,243.422 916.95,242.963 			"/>
			<path fill="#008FBE" d="M926.023,242.668l0.684,0.377l0,0L926.023,242.668 M921.726,240.297l-4.111,2.286l-0.663,0.38l0.23,0.459
				l1.086-0.48l0.191,0.105v-0.001l4.08,2.247l0.007-4.539l2.926,1.612l0.001-0.003l-2.925-1.613L921.726,240.297"/>
			<polyline fill="#00C1DE" points="930.807,249.855 930.807,277.169 918.417,270.352 918.459,243.047 930.807,249.855 			"/>
			<polyline fill="#00C1DE" points="934.896,247.562 934.896,274.875 922.506,268.058 922.546,240.754 934.896,247.562 			"/>
			<polygon fill="#55565A" points="930.807,277.169 930.807,304.483 924.432,300.983 924.432,273.668 			"/>
			<polygon fill="#55565A" points="924.432,273.668 924.432,300.983 918.417,297.637 918.417,270.322 			"/>
			<polyline fill="#008FBE" points="934.896,247.564 934.896,274.877 930.809,272.622 930.809,249.858 934.896,247.564 			"/>
			<polygon fill="#008FBE" points="930.783,272.628 930.809,272.641 934.896,274.877 930.809,277.171 			"/>
			<polygon fill="#342E1F" points="923.298,300.354 925.564,301.614 925.564,274.3 923.298,273.04 			"/>
			<path fill="#00C1DE" d="M930.807,249.855l7.515,5.833c0.426,0.332,1.023,0.377,1.502,0.113l7.457-4.126v2.632l-7.463,4.123
				c-0.474,0.262-1.07,0.218-1.496-0.11l-7.513-5.773L930.807,249.855"/>
			<polyline fill="#008FBE" points="926.707,243.045 934.896,247.564 930.809,249.858 922.548,245.299 926.707,243.045 			"/>
			<path fill="#008FBE" d="M943.104,249.425l4.176,2.25l-7.457,4.126c-0.479,0.265-1.076,0.219-1.502-0.113l-7.515-5.833
				l4.091-2.291l3.391,3.391c0.424,0.422,1.094,0.515,1.623,0.223L943.104,249.425"/>
			<polyline fill="#008FBE" points="925.473,242.363 925.472,242.367 926.705,243.047 926.707,243.045 926.023,242.668 
				925.473,242.363 			"/>
			<polyline fill="#6FD1E6" points="925.472,242.367 922.548,245.299 926.705,243.047 925.472,242.367 			"/>
			<polyline fill="#FFFFFE" points="925.472,242.367 922.548,245.299 926.705,243.047 925.472,242.367 			"/>
			<polyline fill="#008FBE" points="926.707,243.045 926.705,243.047 922.548,245.299 930.809,249.858 930.81,249.858 
				930.807,249.855 934.896,247.564 926.707,243.045 			"/>
			<path fill="#008FBE" d="M934.896,247.564L934.896,247.564l-4.09,2.291l7.515,5.833c0.24,0.188,0.536,0.285,0.836,0.285
				c0.229,0,0.459-0.057,0.666-0.172l7.457-4.126l-4.177-2.25l-3.192,1.754c-0.206,0.114-0.436,0.169-0.662,0.169
				c-0.354,0-0.701-0.134-0.961-0.393L934.896,247.564"/>
			<polygon fill="#F0D0B4" points="945.292,248.267 943.152,249.411 947.297,251.694 949.466,250.517 			"/>
			<polygon fill="#F0D0B4" points="947.298,251.696 949.466,250.517 949.466,253.149 947.298,254.324 			"/>
			<polygon fill="#F0D0B4" points="918.422,270.353 916.302,269.218 916.302,267.181 918.417,268.292 			"/>
			<polygon fill="#342E1F" points="933.837,299.416 937.984,297.157 933.837,294.818 			"/>
			<path fill="#342E1F" d="M935.828,297.153l-5.021,2.779v4.552l8.237-4.564v-0.999
				C939.044,297.347,937.256,296.363,935.828,297.153z"/>
			<polygon fill="#342E1F" points="934.896,274.875 934.896,302.23 930.807,304.483 930.807,277.169 			"/>
			<path fill="#222222" d="M934.089,235.666l-6.602-3.604l-5.061,2.673c-0.836,0.443-1.358,1.283-1.367,2.198L921,244.43
				l6.838,3.788l3.921-2.153c1.44-0.791,2.329-2.257,2.329-3.845L934.089,235.666L934.089,235.666z"/>
			<path fill="#F0D0B4" d="M934.089,237.202l-3.489,1.943c-0.814,0.455-1.316,1.288-1.316,2.189v6.105l2.485-1.372
				c1.438-0.792,2.32-2.256,2.32-3.84V237.202z"/>
			<path fill="#222222" d="M928.773,231.333l6.592,3.631v0.11c0,0.875-0.485,1.684-1.276,2.127v-1.536l-6.602-3.604L928.773,231.333
				z"/>
			<path fill="#00C1DE" d="M916.302,267.2l2.157,1.154v-25.307l-0.16-0.089c-0.885-0.494-1.997,0.116-1.997,1.094V267.2z"/>
			<polyline fill="#5CD2D2" points="735.162,260.8 768.34,242.586 772.358,244.773 739.394,263.019 735.162,260.8 			"/>
			<polyline fill="#9FE5E5" points="768.34,242.586 735.162,260.8 739.394,263.019 772.358,244.773 768.34,242.586 			"/>
			<polygon fill="#CF3A52" points="838.341,294.924 850.729,288.095 863.115,294.924 850.729,301.753 			"/>
			<polygon fill="#FFFFFF" points="838.341,294.924 850.729,288.095 863.115,294.924 850.729,301.753 			"/>
			<polygon fill="#D3D1D3" points="850.729,301.753 863.115,294.924 863.115,308.582 850.729,315.41 			"/>
			<polygon fill="#E6E7E8" points="838.341,308.582 838.341,294.924 850.729,301.753 850.729,315.41 			"/>
			<polyline fill="#77BC1F" points="1020.041,440.501 1020.041,426.845 1032.43,433.673 1032.43,447.33 1020.041,440.501 			"/>
			<polyline opacity="0.5" fill="#BDE087" enable-background="new    " points="1020.041,426.845 1020.041,440.501 1032.43,447.33 
				1032.43,433.673 1020.041,426.845 			"/>
			<polyline fill="#A4D55D" points="1020.041,426.845 1032.43,420.015 1044.815,426.845 1032.43,433.673 1020.041,426.845 			"/>
			<polyline fill="#BDE087" points="1032.43,420.015 1020.041,426.845 1032.43,433.673 1044.815,426.845 1032.43,420.015 			"/>
			<polygon fill="#00A19B" points="1032.428,433.673 1044.815,426.845 1044.815,440.501 1032.428,447.33 			"/>
			<polygon fill="#77BC1F" points="1032.428,433.673 1044.815,426.845 1044.815,440.501 1032.428,447.33 			"/>
			<polygon fill="#77BC1F" points="1032.428,433.673 1044.815,426.845 1044.815,440.501 1032.428,447.33 			"/>
			<polyline fill="#FD5373" points="1090.168,474.712 1123.242,456.525 1156.232,474.712 1123.203,492.917 1090.168,474.712 			"/>
			<polyline fill="#CF0A2C" points="1090.168,474.712 1090.168,479.265 1123.223,497.486 1156.232,479.265 1156.232,474.712 
				1123.203,492.917 1090.168,474.712 			"/>
			<polyline fill="#F2C06B" points="813.682,338.042 846.756,319.856 879.746,338.042 846.717,356.246 813.682,338.042 			"/>
			<polyline fill="#F8DAA9" points="846.756,319.856 813.682,338.042 846.717,356.246 879.746,338.042 846.756,319.856 			"/>
			<polyline fill="#F2C06B" points="813.682,338.042 813.682,342.593 846.738,360.818 879.746,342.593 879.746,338.042 
				846.717,356.246 813.682,338.042 			"/>
			<path fill="#FFFFFF" d="M845.542,337.478l-11.521,1.748c0.05-0.035,0.108-0.078,0.176-0.115l14.515-8.594
				c0.064-0.037,0.136-0.07,0.199-0.104l-2.536,6.572C846.285,337.224,845.953,337.419,845.542,337.478z"/>
			<path fill="#FFFFFF" d="M850.909,330.691l7.563,4.184c0.707,0.393,0.642,1.094-0.148,1.561l-13.993,8.283
				c-0.79,0.465-2.014,0.527-2.722,0.137l-7.563-4.184c-0.152-0.086-0.277-0.188-0.349-0.301l11.62-1.689
				c0.608-0.09,1.17-0.279,1.607-0.541c0.438-0.258,0.754-0.584,0.89-0.938l2.559-6.701
				C850.573,330.539,850.756,330.607,850.909,330.691z"/>
			<polyline fill="#C69F59" points="879.746,338.042 879.746,338.042 846.717,356.246 846.738,360.818 879.746,342.593 
				879.746,338.042 			"/>
			<polyline fill="#F3F4F4" points="1090.146,477.095 1090.146,479.265 1123.198,497.486 1123.198,497.474 1090.168,479.265 
				1090.168,477.107 1090.146,477.095 			"/>
			<polyline fill="#E4615B" points="1090.168,477.107 1090.168,479.265 1123.198,497.474 1123.183,492.96 1121.066,494.128 
				1121.043,494.117 1121.043,494.128 1090.168,477.107 			"/>
			<polyline fill="#446CA9" points="1088.01,471.353 1121.085,453.166 1154.075,471.353 1121.047,489.558 1088.01,471.353 			"/>
			<polyline fill="#768EBE" points="1092.204,469.046 1088.01,471.353 1121.047,489.558 1154.075,471.353 1154.037,471.333 
				1125.214,487.244 1092.204,469.046 			"/>
			<polyline fill="#1E428A" points="1088.01,471.353 1088.01,475.906 1121.066,494.128 1154.075,475.906 1154.075,471.353 
				1121.047,489.558 1088.01,471.353 			"/>
			<polyline fill="#1CCFC9" points="1092.157,464.47 1125.231,446.283 1158.223,464.47 1125.194,482.673 1092.157,464.47 			"/>
			<polyline fill="#8AE1DB" points="1125.231,446.283 1092.157,464.47 1125.194,482.673 1158.223,464.47 1125.231,446.283 			"/>
			<polyline fill="#00A19B" points="1092.157,464.47 1092.157,469.021 1125.214,487.244 1158.223,469.021 1158.223,464.47 
				1125.194,482.673 1092.157,464.47 			"/>
			<path fill="#FFFFFF" d="M1137.592,466.542c-0.094-1.014-0.903-1.967-2.129-2.691c-1.225-0.723-2.86-1.221-4.639-1.313
				l-1.896-0.098l-0.102-1.086c-0.096-1.014-0.906-1.967-2.131-2.691c-1.224-0.723-2.86-1.221-4.64-1.314
				c-3.544-0.174-6.266,1.33-6.073,3.359l0.104,1.094l0.086,0.922l0.127,1.344l0.481,5.102l8.885,0.443l2.35,0.113l1.608,0.08
				l1.892,0.098C1135.066,470.085,1137.785,468.582,1137.592,466.542z"/>
			<polyline fill="#00C4BC" points="1092.157,464.47 1092.157,469.021 1125.214,487.244 1125.194,482.673 1092.157,464.47 			"/>
			<polyline fill="#F3F4F4" points="1087.986,471.353 1087.986,475.906 1090.146,477.095 1090.146,477.082 1088.01,475.906 
				1088.01,471.367 1087.986,471.353 			"/>
			<polyline fill="#EDEEEE" points="1090.146,477.082 1090.146,477.095 1090.168,477.107 1090.168,477.095 1090.146,477.082 			"/>
			<polyline fill="#F18B81" points="1090.168,477.095 1090.168,477.107 1121.043,494.128 1121.043,494.117 1090.168,477.095 			"/>
			<polyline fill="#FFFFFF" points="1090.168,477.095 1090.168,477.107 1121.043,494.128 1121.043,494.117 1090.168,477.095 			"/>
			<polyline fill="#5E6CA6" points="1088.01,471.367 1088.01,475.906 1090.146,477.082 1090.168,477.095 1121.043,494.117 
				1121.025,489.558 1088.01,471.367 			"/>
		</g>
		<polygon fill="#72594B" points="934.935,332.791 930.801,330.496 943.017,278.021 947.164,280.325 		"/>
	</g>
</g>
</svg>
