<?xml version="1.0" encoding="utf-8"?>
<!-- Generator: Adobe Illustrator 16.0.0, SVG Export Plug-In . SVG Version: 6.00 Build 0)  -->
<!DOCTYPE svg PUBLIC "-//W3C//DTD SVG 1.1//EN" "http://www.w3.org/Graphics/SVG/1.1/DTD/svg11.dtd" [
	<!ENTITY ns_extend "http://ns.adobe.com/Extensibility/1.0/">
	<!ENTITY ns_ai "http://ns.adobe.com/AdobeIllustrator/10.0/">
	<!ENTITY ns_graphs "http://ns.adobe.com/Graphs/1.0/">
	<!ENTITY ns_vars "http://ns.adobe.com/Variables/1.0/">
	<!ENTITY ns_imrep "http://ns.adobe.com/ImageReplacement/1.0/">
	<!ENTITY ns_sfw "http://ns.adobe.com/SaveForWeb/1.0/">
	<!ENTITY ns_custom "http://ns.adobe.com/GenericCustomNamespace/1.0/">
	<!ENTITY ns_adobe_xpath "http://ns.adobe.com/XPath/1.0/">
]>
<svg version="1.1" id="Layer_1" xmlns:x="&ns_extend;" xmlns:i="&ns_ai;" xmlns:graph="&ns_graphs;"
	 xmlns="http://www.w3.org/2000/svg" xmlns:xlink="http://www.w3.org/1999/xlink" x="0px" y="0px" width="269px" height="358.088px"
	 viewBox="0 0 269 358.088" enable-background="new 0 0 269 358.088" xml:space="preserve">
<metadata><?xpacket begin="﻿" id="W5M0MpCehiHzreSzNTczkc9d"?>
<x:xmpmeta xmlns:x="adobe:ns:meta/" x:xmptk="Adobe XMP Core 5.3-c011 66.145661, 2012/02/06-14:56:27        ">
   <rdf:RDF xmlns:rdf="http://www.w3.org/1999/02/22-rdf-syntax-ns#">
      <rdf:Description rdf:about=""
            xmlns:dc="http://purl.org/dc/elements/1.1/">
         <dc:format>image/svg+xml</dc:format>
         <dc:title>
            <rdf:Alt>
               <rdf:li xml:lang="x-default">10</rdf:li>
            </rdf:Alt>
         </dc:title>
      </rdf:Description>
      <rdf:Description rdf:about=""
            xmlns:xmp="http://ns.adobe.com/xap/1.0/"
            xmlns:xmpGImg="http://ns.adobe.com/xap/1.0/g/img/">
         <xmp:MetadataDate>2017-11-22T11:10:19+02:00</xmp:MetadataDate>
         <xmp:ModifyDate>2017-11-22T11:10:19+02:00</xmp:ModifyDate>
         <xmp:CreateDate>2017-11-22T11:10:19+02:00</xmp:CreateDate>
         <xmp:CreatorTool>Adobe Illustrator CS6 (Windows)</xmp:CreatorTool>
         <xmp:Thumbnails>
            <rdf:Alt>
               <rdf:li rdf:parseType="Resource">
                  <xmpGImg:width>192</xmpGImg:width>
                  <xmpGImg:height>256</xmpGImg:height>
                  <xmpGImg:format>JPEG</xmpGImg:format>
                  <xmpGImg:image>/9j/4AAQSkZJRgABAgEASABIAAD/7QAsUGhvdG9zaG9wIDMuMAA4QklNA+0AAAAAABAASAAAAAEA&#xA;AQBIAAAAAQAB/+4ADkFkb2JlAGTAAAAAAf/bAIQABgQEBAUEBgUFBgkGBQYJCwgGBggLDAoKCwoK&#xA;DBAMDAwMDAwQDA4PEA8ODBMTFBQTExwbGxscHx8fHx8fHx8fHwEHBwcNDA0YEBAYGhURFRofHx8f&#xA;Hx8fHx8fHx8fHx8fHx8fHx8fHx8fHx8fHx8fHx8fHx8fHx8fHx8fHx8fHx8f/8AAEQgBAADAAwER&#xA;AAIRAQMRAf/EAaIAAAAHAQEBAQEAAAAAAAAAAAQFAwIGAQAHCAkKCwEAAgIDAQEBAQEAAAAAAAAA&#xA;AQACAwQFBgcICQoLEAACAQMDAgQCBgcDBAIGAnMBAgMRBAAFIRIxQVEGE2EicYEUMpGhBxWxQiPB&#xA;UtHhMxZi8CRygvElQzRTkqKyY3PCNUQnk6OzNhdUZHTD0uIIJoMJChgZhJRFRqS0VtNVKBry4/PE&#xA;1OT0ZXWFlaW1xdXl9WZ2hpamtsbW5vY3R1dnd4eXp7fH1+f3OEhYaHiImKi4yNjo+Ck5SVlpeYmZ&#xA;qbnJ2en5KjpKWmp6ipqqusra6voRAAICAQIDBQUEBQYECAMDbQEAAhEDBCESMUEFURNhIgZxgZEy&#xA;obHwFMHR4SNCFVJicvEzJDRDghaSUyWiY7LCB3PSNeJEgxdUkwgJChgZJjZFGidkdFU38qOzwygp&#xA;0+PzhJSktMTU5PRldYWVpbXF1eX1RlZmdoaWprbG1ub2R1dnd4eXp7fH1+f3OEhYaHiImKi4yNjo&#xA;+DlJWWl5iZmpucnZ6fkqOkpaanqKmqq6ytrq+v/aAAwDAQACEQMRAD8A6rmzeZdirsVdirsVdirs&#xA;VdirsVdirsVdirsVdirsVdirsVdirsVdirsVdirsVdirsVdirsVdirsVdirsVdirsVdirsVdirsV&#xA;dirsVdirsVdirsVdirsVdirsVdirsVdirsVdirsVdirsVdirsVdirsVdirsVdirsVdirsVdirsVd&#xA;irsVdirsVdirsVdirsVdirsVdirsVdirsVdirsVdirsVdirsVdirsVdirsVdirsVdirsVdirsVdi&#xA;rsVVrW1nup1ggUvI5oAP1nIkgCyzhAyNBPW8lXoh5CeMy0/u6Gn/AAX9mU/mA5p7PlXMWkE8EsEz&#xA;wzKUkQ0ZT2OXg24MomJo81PCxdirsVdirsVdirsVdirsVdirsVdirsVdirsVdirsVdirsVTzy3oM&#xA;eomSa4JFvGeIVdizdevtlGXJw7BzdJphk3PJPP8AB+k+sX/ecKbRctq/Olfxynx5OZ+Rx3e6N0/R&#xA;LCwleW2UhnAU8jWgrXavjkJZDLm3YtPGBsI/IN6X6poljqKH1V4TfszL9oU8fEZZDIYtGbTxyc+b&#xA;G9d8spYWoubeRnjUgSq9KiuwIoBtXMjHm4jRdfqdHwR4gWP5e4DsVdirsVdirsVdirsVdirsVdir&#xA;sVdirsVdirsVdiqtaW7XN1FbqaGVwgPhU0rkZGhbOEeKQHe9HsrG2srdYLdOCDc+JPiT45gSkSbL&#xA;0GPGICgr5Fm7FXYq4kAEnoNzirG/Mmpn6jLDyFJTxjWm5AIP4ZkYobuv1eb0kd7D8y3UuxV2KoHW&#xA;9b03RNNm1HUZlgtYRuzd2P2VUdSScjKQAss4QMjQeEecvzw16/MFvoMxsIFiQ3UyKBJJMVBcKW5F&#xA;UU7DucxZ5yeTtsOhiN5bsy/KrWfOEvlHVfMetX8s1hpvpz+jeRkGazJkSWW2m4jm8bQv8NWrxK/C&#xA;SCRDMQd059FGQ9IovUYpY5Y0ljYPHIAyONwVIqCMzHTELsKHYq7FXYq7FXYq7FXYq7FXYqr2U/1e&#xA;7im6BGBb5dD+GRkLDPHLhkCzqHVHMQNBICPhevUZhGDuo5tkwgk9SJX7kb/PvkCG+JsWvwMlOW5i&#xA;iNHNDSoGEC2MpAc0C+oM1uYyPjIoW7UyfDu0nLtTDdauzPeFBskNUAPiD8RzLxxoOo1E+KVdyX5Y&#xA;0OxV2KsF/MzXdEtZ9G0PXbD69pOvSPBdOJTC1uqSQn6whAarx86gHYio75jag7B2XZ0dyUp0f8qv&#xA;yr1vU7tY0vI5XmleG0h9YQQxV+GNrjg8LSLT4gshAPw70zAlIu+hiiefN5/+a3mDzFbXdn5Vkknt&#xA;bDRYnhgiEa2yTCRpALj041QcpIJBHJ1DEMe9MsBtpnGjT2P8p7+S9/L3RpZSTJHE0Br1pDI0af8A&#xA;CKM2GI3EPPauNZCy3LHGdirsVdirsVdirsVdirsVdirsVRumX7WtwvJj6B2dd6CventkJxsN2HLw&#xA;nyZha3rxL8FHjbceG/cHMQxt2sMlKjajMXDAAAbceowcDI5TaX6rqyQgSzfE7bJGv9vbLIQtozZ6&#xA;3KTP5jmMbBIQrn7L1qAPlTLRicQ6o1ySgkkkk1J6nLnFaxQ7FXYqwP8AM3ypqGtah5avLOBrk6be&#xA;8p4UFSYmaN3PUU+GH79u+YuqG1uz7Ll6yO/9D1dWhdJeBkDwOsbq6BVblGsnKNurKK8SfHMAxoAv&#xA;QwyEzIrkwj8x/wArdF862QvC0ttq0CT21nPIvDeN/h5r8XOJjujChoTkj6WuP7y7FEJho+k2+j6X&#xA;a6Zbqqx2cSQgqKcjGoXkfEmnXNpD6Q8rnvjlfeUZk2l2KuxV2KuxVNdM8t6hfxesnGKE/Zdyfip4&#xA;AA5VPKIuVh0k5i+QXt5V1cXQgCKQRX1gf3dPn1+imDxo1aTosnFSpc+UNVhj5oUnp1RCeX0VArgG&#xA;eJZT0MwLG6WXWn31rQ3EDxA9GYbff0y0SB5ONPFKPMUhsk1uxV2Kou11O8thxjesf8jbj+z6MhKA&#xA;LbDNKPJu51a9uAVZ+KHqqbD+uIgAmeeUkIzMxqxJJ6k7nJNRLWFDsVdirsVdiq6N2Rwy9RkZxEhR&#xA;bcWU45CQ5hOoYJ54y8Cq9KVBbjsfnmnMDdPYjLEgG9io6jzt0KE0k2Gx6d8u0+O5b9HC7Q1HBiuJ&#xA;onklWbR5drFDsVdiq+ON5JFjQcnchVUdydhgJSASaDJU8kS8Yy90AxI9RQpoB34mu/3Zj/mPJ2I7&#xA;PPeyqKJIokijHFEAVVHYAUGYxNuzAAFBdgS7FVk0MU0TRSqHjcUZT0Iwg0iUQRReeaxp/wBQ1CW3&#xA;G6A8oye6ncf0zPxy4hboM+LgmQgcm0uxV2Kt4q1irsVdirsVdirsVWT3EFvGZZ5EhiXq8jBVH0nA&#xA;SBzbMWKeQ8MAZHuAtV8u+Y9P1H6wmm3IultiqySwElAXqQocfC3ToDt36jNbqTEm4l6rR6TUYYcO&#xA;aBiP4b5/LmPilXmXzpomj6glrq0slozryhdoZWjcbV4uqsppXfw75ZgywhHfmw1HYus1cuLFESjH&#xA;pxRv5EhE6bqum6nB9Y0+5juouhaNg1D4MOoPsczYzEtwXntXos2nlw5YmEvP9Heisk4rsVdiqN0a&#xA;WOHVLWSQ0RZBUnoK7VyGQXEt2CQEwT3vR8170DsVdirsVdirDvOwX6/Af2vS3+XI0zL0/J1PaH1D&#xA;3MczIde7FXYq7FXYq7FXYq7FUl85a5Nofl641KGJZZITGqq5ZUHqSLHVyvxUHKu2V5JULcrSY4zn&#xA;R7nlT/nb5nYj0rKzQd+Qnb/maMxvHLtPymPuS+9833HmSWVdXsbdpDBL6E8RnVo3SMuvENJIlCV3&#xA;HHKch4ubv+xNdk0+WGOBqEpixQ3s9Tz+19C/lx5Ykg8iaCbGNWiubKG5kZSo/ezoJJOVT15MRlPA&#xA;W3tHVcWonxcxIj5Mb/5yA0yCz8jQPeugu5L2JbKNfibkFcua7UAStfowSjQdh7OZDLU+nlwm3g/l&#xA;/wAwaloWopfWMhVlIEsRPwSJ3Rx3H6sjjyGBsPY9pdm4tZiOPKLHQ9Qe8PozStSt9T0221C2P7m5&#xA;jWRAeoqN1PuDsc3UJCQsPg2t0k9Pmlin9UDX7fjzRWScVXs7Oe8uUt4RWRzQV6AdyflkZSAFlnjx&#xA;mZoMwsfKGnQCtxW5cjetVUH2A/icxZZyeTtsehgOe6e5Q5rsVdirsVdirCfOSsNWUk1BhUqPAVYU&#xA;+/MzB9Lp9f8A3nwSHL3BdirsVdirsVdirsVdiqVebPLt35h8uXulWrIk04j4vKSqApIr7lQx/Z8M&#xA;x9RMCNF2PZuGU52OQeDa15Q1XRdXm0u5j9WeFPVLwq7I0fDmzoWVCVUVq1KbHMMG3bziYmip6TDx&#xA;voP8puHj9v4f44WWGXDMHuIev/kb+b2m6Vol15d8x3q2dvYxvcaXey7jhUs8FOrMrHlGoqTUqOgy&#xA;qEtnsPaHsaUsoy4hfEdx59/60V+ZXlfWPzAtbbX4L0osVqsmmaW8fEBJUEjhiGf97IQPbYDtXISN&#xA;sOyNZj0UjjlHmalL8dA+fuY5UyPDs9x4guntv5NX7T+WJbVjU2dwyoPBJAHH/DFs2Ojlca7nyb27&#xA;03BrIzH8cB8xt91M9zMeJZP5IiQz3Up+2iqq/JiSf+I5jag7B2XZ0dyWW5iu0dirsVdirsVaVlYV&#xA;U1HiMVthPnGVX1cKvWKJUb51LfqbMzAPS6bXyvJ7gkWXuE7FXYq7FXYq7FXYq7FV2najDHb6pc3E&#xA;ix22nylJTQkqsdvHcMxp/kzdAO2a3VSJnXc9Z2fgjjwRn/PBl8pSj/vfteb3HnvQX8/S6uvrSaa9&#xA;ibRnRSrkg+pSjH7LkcD02P3wiKCMsxI2GAWMXC6hf+V1P3EZINTHXTi5VhupI+kZhvtUSJAF7Dof&#xA;55afa+XRb31nJ+lLWERW/pgGGUooVCxqCn+UKfLwyQ3eT1fs/I5uKMvRI794/W8keaGVruWdKzTq&#xA;WiZdgshkVyaeHEMPpwxl3vSZMRqPD/Dz8xR/TRejfkhfBb3VLEneWKOdR/xjYq3/ACcGZeiO5Dw/&#xA;t/gvFiy90jH/AEwv/evW82L5emvl7UPql2QW4LKAOX+UOlfbKssbDlaXLwy97Kn1C4YU2HjQdcxu&#xA;EOzOUphb3CTqSoII6g5WRTfGdquBk7FVk0gjiZ/5Rt88ICJGgkNxqIsojI0hXwUHdj7DLxG3Bll4&#xA;BdsRubiS4nknkNXkYs305lAUKdVORkbKlhYuxV2KuxV2KuxV2KuxV5D5y17XdO866lpdvdvFpurG&#xA;39e2ABVw0CRdwSteNDx6jrmrzmsr6n2TpsWXsYSIucI5N/8AOkWOJB7YXkkRHDQg06Yqxe/FL+5A&#xA;7SuP+GOYkub7DoJXgxnvhH7ghZKcf1YYc27LyRl7pGp6dFaS3sDRQ30Sz2kp3V0YA7Ed99x1+8ZZ&#xA;kxkbuHo+0MWUyjGQJhLhPkWT/lPctD51tYx0uI5o2+QjMn/GmT0p/eB0/tljEuzpn+aYn/ZAfpe8&#xA;ZtnxZ2KplpepXUdzFEzmSNyE4sSaVIAI+WVzgKcjDlkCAymC4khYlO/UHocxiLdlGRCoL6b1hITW&#xA;m3HtTBwhl4hu0auoWxWpYqfAg/wyHCW4ZQg7u89b4EFIx49Tk4xpqnktjPmRlLW6V+IBiR7GlP1Z&#xA;kYnXas8kly5w3Yq7FXYq7FXYq7FXYq7FXkn5z6XfxapY63boxhEQheVAaxyRuXQkjpy57fLMDV4z&#xA;Yk+l+xGuxnBPTy3N3R6ggA/dv70R+Wfl/UdWS41HXoQ1iyhLSJ4liLsTVpAUCNQDYdjU+GTwY73P&#xA;J1ftPk0unMcenAGS7lRJod29jfn3ivNHfmXodlpPl1b7SoRbTJOiyuKtWNgwpRyw+1x6YNTARjYa&#xA;PZOMNVqjjzjijwEjpuCO6ulvHXdndnc1ZiSxPcnc5rX2CEBGIjEUBsoyijV8ctgdnHzDd9IHy9o+&#xA;seVLPTbuIS2f1aEQsKB0IjAV0amzAf50za8AlEAviB7RzabWzywNT45X3H1bg+X45sb8qflNHomv&#xA;Jqk2oG5S2Lm1gEfHdgVBdqnoD0A6/dlWPT8Mrd32t7XHVac4Yw4eKuI39z0HMp4t2Kro3aN1dTRk&#xA;IZT7jfAUg0bZZZ39vdRhkYB6fHGTuD/n3zGlEh2kMokELea3BBMiR0lFf3pU1oPb3yUcZLVk1Aia&#xA;G6YRyJIgeNgyNuGGVkOQCCLDpZY4o2kkYKi7knEC0SkALLFL+7a7uWlOy9EU9lHTMqMaDrMs+I2h&#xA;sk1uxV2KuxV2KuxV2KuxV2KuxVVt7ee4lEUCGSRuiqKnASBzZRgZGgkn5reVtXXyDqUskKqE9Bt5&#xA;EFD68Y8ffMXPMSiQOb0vs2TpdbDLk9MBxX15xPd508BtfLWrXUnpwojP14iRCaDv8JOa6cOAXIgD&#xA;3h9IPtXoboSlL/Mn+kBCalpclk4juZoUerKV51IK7EGg2yyGPa7G/m42T2q0kuQn/pC+jPKzc/LG&#xA;kMW5crK2PLxrEu+bWH0h8l7RyRnqMko/SZyI91lM8m4bsVdirsVdirsVVYbq4h/upGTuQDsfmMBA&#xA;LOMyORdNcTzGssjPTpyJNK+GIACJTJ5lSwsXYq7FXYq7FXYq7FXYqjtK0m51Kf04dlXeSQ9FB/j7&#xA;ZCcxEN2HBLIaDMLPyvpNugDxevJ3eTf/AIXpmJLNIu2ho8celsb876/5M0ALbXNs0t/IvJILaisq&#xA;nYM7E8QD22PyyzEJy67ONqzghsRv5MX0P839J05XjOkSjkxLTCZWcjsCCiUp88tyYDLq42n10MYr&#xA;hU/zD/M/y75i8kahpUFvdpc3Ho0Uoh2jnSQkcWauyeGVflCdjycmXakQLiPV5vKNDS0tJReWTmQl&#xA;Sh5/PcEUUgimQzdl48keEk/j4OP/ACtl7o/j4pF5xtNO4i5l/wB6JpmYxgkk86sxVRvSuTGihCIA&#xA;vZMO0ssjvT0vyd550mDy1p1vJDcO1tAkLqOI3jHEDkSfDwzJjHbZxcmQcRMmRw/mF5TYcZ9Pvov8&#xA;uOSKQ/OjCPBwT8mQy4eol9idQvZ3liuoadN9ZsWYoXpxeNxvwkT9k/gcAlvR5plj24om4/jmtybU&#xA;7FXYq7FXYq7FXYq7FXYq7FXYq7FXYquVWdgqirMQFA7k4EgW9G0nTo9Pskt1pz6ysP2nPU5gTnxG&#xA;3oMGIQjSMyDa+cvzK+s/431X6xXn6i8K/wAnBeFP9jTNlg+gPNa2/FlbBtS0ea6mE0F49u9KFacl&#xA;270BQ/jlhjbTHJW1JZLZeZ7P4o5TdIO8bHl/yLk2+4nI8JbBkgeYQ8PmJ7e9El0nCVhxkRgYWfwL&#xA;Kw3I7GmDjI5r4MTuC1q+qWtypMUXpcmEk0j0qSq8R9AGCUrZ4sXCbVNEm1xozHYRL9XY8vrE4IjF&#xA;e6ftP9G3vhjbHKY/FktvHPFGTcT+s/Vn4qij5AdB8ycscZ61+Q0T3+n69I6FtLmeGCNz9mSRA5kK&#xA;/wCqHXf+mYeonuK6O67Pwnhlxcimd9aPaXk1s/WJitfEdj9Iy6MrFuFkhwyI7kPkmt2KuxV2KuxV&#xA;2KuxV2KuxV2KuxV2Kpp5atxNrNuCKqhMh/2IqPxplWU1EuTpI3kD0DMF3rsVYF+Z3kG08xJFdW85&#xA;stZiUpFPTlE6DfhKnfc7MNx79MuxZDH3OFq9PGfPm8U1jyv550ZmF3or3cK1/wBKsSZkIHfiAXUf&#xA;6wGZYzguqnopBh1z53ii1FNNWzkN47rFwkIQK7kABtie++2A5xdMhoJcBkTsE3urC6vYGgupYxC4&#xA;oyJHVv8AgpCw/wCFy8hwASCpWPlnRbOhjtxI43Dy/HQ+IB+Ff9iBgEQGcpk80TPqlpE4iVjNOxok&#xA;MQ5uSe1BiZAJjikWUeWfyq8y+Y5Y59cD6RpBIItP+PmUeBB+x/sh/se+Y2TN3OwwaPqX0XpOk6dp&#xA;GnQadp0C21lbKEhhQbAfrJJ3JO5OYZNu6jEAUEj8y+Xru5uWvbUB6qA8XRiV2qPHbMjDlAFF1+r0&#xA;spHiixNlZWKsCrA0IOxBzJdWQ1hQ7FXYq7FXYq7FXYq7FXYq7FXYqnflAgawAepjcD57HKc/0uZo&#xA;f7z4M5zCd07FUBqsMjhHQFgtQ1PfJRa8gSwgg0IofA5JpfGHmGG91785dQt7P47m61uSG3Pai3BR&#xA;Sa9gq1OQB3b5C4EeT2Cz/KD8wZ6G6v7KzXuF5Sv93Dj/AMNmYc7pxoVvnD8nL3TPJ2q6nHrE+oal&#xA;ZQG4ihEYjhKxkNICgZyx9MNShG+VyzFyMejgDulP/OLd99a1PzAlyFkuFitpLeQqOSKGkVwppsG5&#xA;LXftlPGTzcuWKMeQfRUUcrOoQHkTsRhQAU/ytyXYqx/zRoaXELXsC0uIxWQD9tR/EZfhyUaLg6zT&#xA;8Q4hzYXmY6d2KuxV2KuxV2KuxV2KuxV2KuxVkHlDT5pb766DxhgqP9ZmFOP0A1yjPKhTn6HETLi6&#xA;BmmYbt3Yq7FUiu1YXMobryJ+gnJhxpc3zn+Tv5fasfzi13U9RtpFj0ae69KR1IEk9wzBCtftAxMz&#xA;1+XjkRzbZHag+ikhlcMVUngKtk2oAqTojoyOoZGBVlYVBB2IIOKGCflF+Sz+TfMmvaj9ZSbSL9Uj&#xA;02EchMihy5ElRT4dlBBNfbIcm/6hu9diiSJAiCijtgZAUuxS7FXYq8712yFnqk0KikZPOP8A1W3p&#xA;9HTM/HK4ug1OPgmQl+WNDsVdirsVdirsVdirsVdirsVZ/wCWljTSoo160Dt78xXMHL9TvdIAIAJr&#xA;lTkuxV2KrHghdg7IGYdCRiggKUVjbxS+ogNewJ2FcNoEACiMDJTNvAW5GNS3jQY2jhCpil2KuxV2&#xA;KuxViPneIC5tZe7oyk/6pB/42zK052Lqu0I7gsZzJdc7FXYq7FXYq7FXYq7FXYq7FWXaLdyfUoZF&#xA;+FlHD2IXb+GYuSO7tdPM8ILIbZ5HhV3pVt9vDMcufAkjdVwMnYq7FXYq7FXYq7FXYq7FXYq7FUn8&#xA;06cLvTWkUfvbasiH/J/bH3b5bhlRcTWYuKF9QwPM50jsVdirsVdirsVdirsVdirsVZjZxrHawovQ&#xA;INx326/TmJI7u2gKiE9s2DW0ZHYU+7bKJc3NgdlbAzdirsVdirsVdirsVdirsVWTyiKJnPYbfPth&#xA;AtjI0FyOroGXowqMCQbalCGJw+yFSG+RGELLlu8tzZPNOxV2KuxV2KuxV2KuxV2KuxVk+j3sc9qk&#xA;VQJYlCsneg2BGY2SNF2WDIDGuoTa3u5IKgbqeqnKjG3KhMhNkJKKTsSASMqckN4pdiqEmuxDd0bd&#xA;CoDU7GpP8cmI2GqU6krC6tytfUWnz3+7I8JZ8Y70JNqB9ZTHui9e3LJiLVLLvsrjULYrUkg/y03y&#xA;PCWfihCvqDmZXUURf2fGvjkhHZrOXdEPqUQWqAsx7HamAQZnKEDNcSzNVz06AdBkwKaJSJbgupod&#xA;kNV/lPTARaYzIaur6Ro2MhCxqCzAeA3wiKzyEjdgmZrpHYq7FXYq7FXYq7FXYq7FXYqmvl3/AHtf&#xA;/jEf+JLlWXk5Wl+r4Mhyhzk6tpBJAjDwofmMpI3cyBsKmBk07qilmNANycUE0ksshkkZz+0cuAcS&#xA;Rs2swsXYq7FXYq7FXYq7FUr12+WOD6sh/eSfap2X+3LMcd7cbU5KFd7HcyHAdirsVdirsVdirsVd&#xA;irsVdiqN0i5EF8hY0R/gY/Pp+NMhMWG7BPhkynMZ2atb3MkLVXdT1U98BFsozIRo1KDjUhgfDK+A&#xA;t3ihCXN28232U/l/rkxGmqcyUDd3cVrCZZa8agADqSfCtMnGNtM5iIsr4Z4Z4xJE4dD3H8cSKTGQ&#xA;IsL2YKCzEBRuSdgMCVsUscqB42DIa0YdNjTEikAgiwuxS7FKUT+YBFcSRrEJI1NFYNTcdex75aMV&#xA;hxJamiRVqE3mOZkIiiEbH9onlT5CgwjEwlqjWwSl3d3LuSzMaknqTlrik2twodirsVdirsVdirsV&#xA;dirsVdirsVZBpOrrIq29w1JRsjn9r2J8f15ROHUOfgz3seabZU5TsULJpooYzJKwRF6k4gWiUgBZ&#xA;YxqWoNeTVpxiTaNe/wAz7nMmEaddly8Z8kNHLJG3KNyjdKqSD+GSIagSOTclxcSgCWV3A6BmJ/Xi&#xA;AAkzJ5lE6bqclmxFOcLbsnv4jIzhbZizGHuTtNb01lBMhQn9kq1R9wIynwy5g1EO9A6hrodDFagq&#xA;Ds0p2NP8kfxyccfe05dTYqKS5c4bsVdirsVdirsVdirsVdirsVdirsVdirsVdiqNttXvoAFD80HR&#xA;X3H39fxyBgC3QzyirnzDfEEBIx7gN/E5Hwgz/NS8kDcXVxcNymkLkdAeg+QG2TEQGmUzLmo5Jg7F&#xA;XYq7FXYq7FXYq7FXYq7FXYq7FXYq7FXYq7FXYq7FXYq7FXYq7FXYq7FXYq7FXYq7FXYq7FXYq7FX&#xA;Yq7FXYq7FXYq7FXYq7FXYq7FXYq7FXYq7FXYq7FXYq7FXYq7FXYq7FXYq7FXYq7FXYq7FXYq7FX/&#xA;2Q==</xmpGImg:image>
               </rdf:li>
            </rdf:Alt>
         </xmp:Thumbnails>
      </rdf:Description>
      <rdf:Description rdf:about=""
            xmlns:xmpMM="http://ns.adobe.com/xap/1.0/mm/"
            xmlns:stRef="http://ns.adobe.com/xap/1.0/sType/ResourceRef#"
            xmlns:stEvt="http://ns.adobe.com/xap/1.0/sType/ResourceEvent#">
         <xmpMM:InstanceID>xmp.iid:6E3CDFE260CFE711824ACAD90C616EB3</xmpMM:InstanceID>
         <xmpMM:DocumentID>xmp.did:6E3CDFE260CFE711824ACAD90C616EB3</xmpMM:DocumentID>
         <xmpMM:OriginalDocumentID>uuid:5D20892493BFDB11914A8590D31508C8</xmpMM:OriginalDocumentID>
         <xmpMM:RenditionClass>proof:pdf</xmpMM:RenditionClass>
         <xmpMM:DerivedFrom rdf:parseType="Resource">
            <stRef:instanceID>uuid:92b55b4e-ae7d-406b-9f63-4e703a08cde8</stRef:instanceID>
            <stRef:documentID>xmp.did:e7b07a02-937c-1249-81b7-3432bca05ab0</stRef:documentID>
            <stRef:originalDocumentID>uuid:5D20892493BFDB11914A8590D31508C8</stRef:originalDocumentID>
            <stRef:renditionClass>proof:pdf</stRef:renditionClass>
         </xmpMM:DerivedFrom>
         <xmpMM:History>
            <rdf:Seq>
               <rdf:li rdf:parseType="Resource">
                  <stEvt:action>saved</stEvt:action>
                  <stEvt:instanceID>xmp.iid:CA06D2C2D851E3119BC6DF72AD833A37</stEvt:instanceID>
                  <stEvt:when>2013-11-20T12:41:57+01:00</stEvt:when>
                  <stEvt:softwareAgent>Adobe Illustrator CS6 (Windows)</stEvt:softwareAgent>
                  <stEvt:changed>/</stEvt:changed>
               </rdf:li>
               <rdf:li rdf:parseType="Resource">
                  <stEvt:action>saved</stEvt:action>
                  <stEvt:instanceID>xmp.iid:6E3CDFE260CFE711824ACAD90C616EB3</stEvt:instanceID>
                  <stEvt:when>2017-11-22T11:10:19+02:00</stEvt:when>
                  <stEvt:softwareAgent>Adobe Illustrator CS6 (Windows)</stEvt:softwareAgent>
                  <stEvt:changed>/</stEvt:changed>
               </rdf:li>
            </rdf:Seq>
         </xmpMM:History>
      </rdf:Description>
      <rdf:Description rdf:about=""
            xmlns:illustrator="http://ns.adobe.com/illustrator/1.0/">
         <illustrator:StartupProfile>Print</illustrator:StartupProfile>
      </rdf:Description>
      <rdf:Description rdf:about=""
            xmlns:xmpTPg="http://ns.adobe.com/xap/1.0/t/pg/"
            xmlns:stDim="http://ns.adobe.com/xap/1.0/sType/Dimensions#"
            xmlns:xmpG="http://ns.adobe.com/xap/1.0/g/">
         <xmpTPg:HasVisibleOverprint>False</xmpTPg:HasVisibleOverprint>
         <xmpTPg:HasVisibleTransparency>True</xmpTPg:HasVisibleTransparency>
         <xmpTPg:NPages>1</xmpTPg:NPages>
         <xmpTPg:MaxPageSize rdf:parseType="Resource">
            <stDim:w>269.000000</stDim:w>
            <stDim:h>358.088379</stDim:h>
            <stDim:unit>Pixels</stDim:unit>
         </xmpTPg:MaxPageSize>
         <xmpTPg:PlateNames>
            <rdf:Seq>
               <rdf:li>Cyan</rdf:li>
               <rdf:li>Magenta</rdf:li>
               <rdf:li>Yellow</rdf:li>
               <rdf:li>Black</rdf:li>
            </rdf:Seq>
         </xmpTPg:PlateNames>
         <xmpTPg:SwatchGroups>
            <rdf:Seq>
               <rdf:li rdf:parseType="Resource">
                  <xmpG:groupName>Default Swatch Group</xmpG:groupName>
                  <xmpG:groupType>0</xmpG:groupType>
               </rdf:li>
            </rdf:Seq>
         </xmpTPg:SwatchGroups>
      </rdf:Description>
      <rdf:Description rdf:about=""
            xmlns:pdf="http://ns.adobe.com/pdf/1.3/">
         <pdf:Producer>Adobe PDF library 11.00</pdf:Producer>
      </rdf:Description>
   </rdf:RDF>
</x:xmpmeta>
                                                                                                    
                                                                                                    
                                                                                                    
                                                                                                    
                                                                                                    
                                                                                                    
                                                                                                    
                                                                                                    
                                                                                                    
                                                                                                    
                                                                                                    
                                                                                                    
                                                                                                    
                                                                                                    
                                                                                                    
                                                                                                    
                                                                                                    
                                                                                                    
                                                                                                    
                                                                                                    
                           
<?xpacket end="w"?>
	</metadata>
<g>
	<defs>
		<rect id="SVGID_1_" width="269" height="358.088"/>
	</defs>
	<clipPath id="SVGID_2_">
		<use xlink:href="#SVGID_1_"  overflow="visible"/>
	</clipPath>
	<rect clip-path="url(#SVGID_2_)" fill="#A6D1DC" width="269" height="358.088"/>
	<g display="none" clip-path="url(#SVGID_2_)">
		<defs>
			<rect id="SVGID_3_" width="269.001" height="358.088"/>
		</defs>
		<clipPath id="SVGID_4_" display="inline">
			<use xlink:href="#SVGID_3_"  overflow="visible"/>
		</clipPath>
		<path display="inline" clip-path="url(#SVGID_4_)" fill="#4C4C4C" d="M96.176,346.578v-0.115
			c-0.117,0.179-0.232,0.324-0.347,0.436c-0.114,0.112-0.237,0.198-0.371,0.255c-0.133,0.059-0.278,0.087-0.436,0.087
			c-0.209,0-0.402-0.059-0.58-0.176c-0.178-0.118-0.332-0.286-0.461-0.504c-0.131-0.219-0.229-0.475-0.295-0.77
			c-0.067-0.294-0.101-0.614-0.101-0.956c0-0.726,0.133-1.292,0.399-1.697c0.266-0.404,0.616-0.607,1.051-0.607
			c0.251,0,0.463,0.058,0.635,0.172c0.173,0.115,0.341,0.292,0.505,0.529v-1.713c0-0.238,0.035-0.418,0.107-0.54
			c0.071-0.122,0.173-0.183,0.305-0.183c0.132,0,0.233,0.056,0.305,0.167c0.071,0.113,0.107,0.277,0.107,0.496v5.119
			c0,0.221-0.038,0.387-0.115,0.497c-0.077,0.11-0.176,0.166-0.297,0.166c-0.12,0-0.218-0.057-0.296-0.172
			C96.214,346.954,96.176,346.791,96.176,346.578 M94.46,344.873c0,0.315,0.037,0.583,0.11,0.804s0.174,0.388,0.302,0.499
			c0.128,0.112,0.267,0.169,0.418,0.169c0.153,0,0.293-0.053,0.42-0.16c0.126-0.106,0.228-0.269,0.303-0.488
			c0.076-0.22,0.113-0.495,0.113-0.823c0-0.309-0.038-0.574-0.113-0.797c-0.076-0.222-0.178-0.392-0.307-0.51
			c-0.128-0.117-0.27-0.175-0.423-0.175c-0.16,0-0.302,0.06-0.428,0.18c-0.126,0.12-0.223,0.293-0.292,0.519
			S94.46,344.576,94.46,344.873"/>
		<path display="inline" clip-path="url(#SVGID_4_)" fill="#4C4C4C" d="M100.02,345.167h-1.705c0.002,0.264,0.042,0.496,0.12,0.697
			c0.078,0.201,0.181,0.353,0.31,0.455s0.271,0.152,0.426,0.152c0.104,0,0.2-0.016,0.286-0.048c0.086-0.034,0.17-0.084,0.251-0.154
			c0.081-0.069,0.155-0.144,0.223-0.223c0.068-0.081,0.156-0.188,0.265-0.324c0.044-0.051,0.108-0.077,0.192-0.077
			c0.089,0,0.161,0.034,0.216,0.099c0.056,0.065,0.084,0.157,0.084,0.276c0,0.105-0.031,0.227-0.093,0.368
			c-0.063,0.14-0.155,0.275-0.28,0.404c-0.125,0.129-0.281,0.235-0.47,0.321c-0.188,0.085-0.405,0.127-0.65,0.127
			c-0.56,0-0.995-0.213-1.306-0.638c-0.312-0.425-0.467-1.002-0.467-1.73c0-0.343,0.039-0.661,0.115-0.954s0.188-0.545,0.335-0.755
			c0.147-0.21,0.328-0.37,0.543-0.482c0.215-0.112,0.454-0.167,0.715-0.167c0.34,0,0.632,0.095,0.876,0.287
			c0.244,0.191,0.426,0.438,0.547,0.742s0.183,0.612,0.183,0.927c0,0.292-0.063,0.481-0.188,0.568
			C100.425,345.124,100.248,345.167,100.02,345.167 M98.315,344.508h1.581c-0.021-0.396-0.102-0.694-0.241-0.891
			c-0.14-0.197-0.323-0.296-0.551-0.296c-0.217,0-0.396,0.1-0.535,0.299C98.429,343.821,98.345,344.117,98.315,344.508"/>
		<path display="inline" clip-path="url(#SVGID_4_)" fill="#4C4C4C" d="M103.993,345.723c0,0.32-0.058,0.595-0.176,0.823
			c-0.117,0.228-0.29,0.401-0.519,0.519c-0.229,0.117-0.507,0.176-0.835,0.176c-0.313,0-0.582-0.064-0.805-0.191
			c-0.224-0.127-0.389-0.287-0.495-0.478c-0.107-0.192-0.16-0.384-0.16-0.577c0-0.127,0.034-0.236,0.102-0.327
			c0.068-0.09,0.154-0.136,0.259-0.136c0.092,0,0.162,0.03,0.21,0.089c0.049,0.06,0.096,0.144,0.141,0.251
			c0.089,0.207,0.197,0.361,0.321,0.463c0.125,0.102,0.294,0.153,0.509,0.153c0.175,0,0.318-0.053,0.43-0.155
			c0.112-0.104,0.167-0.222,0.167-0.356c0-0.204-0.058-0.352-0.174-0.446c-0.116-0.093-0.307-0.183-0.573-0.268
			c-0.3-0.099-0.544-0.204-0.733-0.313c-0.188-0.108-0.339-0.253-0.452-0.431c-0.113-0.179-0.169-0.398-0.169-0.659
			c0-0.232,0.052-0.453,0.156-0.66c0.105-0.206,0.258-0.371,0.462-0.495c0.203-0.124,0.448-0.186,0.735-0.186
			c0.226,0,0.429,0.031,0.608,0.094c0.18,0.062,0.331,0.146,0.451,0.25c0.121,0.104,0.212,0.221,0.274,0.349
			c0.063,0.127,0.094,0.252,0.094,0.375c0,0.133-0.034,0.242-0.1,0.327c-0.067,0.084-0.163,0.128-0.287,0.128
			c-0.089,0-0.165-0.034-0.228-0.104c-0.063-0.067-0.135-0.169-0.215-0.305c-0.066-0.113-0.144-0.204-0.233-0.272
			c-0.089-0.068-0.211-0.102-0.364-0.102c-0.158,0-0.289,0.044-0.393,0.134c-0.104,0.089-0.156,0.199-0.156,0.333
			c0,0.123,0.038,0.222,0.115,0.3c0.077,0.078,0.18,0.143,0.31,0.194c0.13,0.05,0.308,0.112,0.537,0.187
			c0.27,0.088,0.491,0.193,0.662,0.314s0.301,0.266,0.39,0.432C103.949,345.322,103.993,345.511,103.993,345.723"/>
		<path display="inline" clip-path="url(#SVGID_4_)" fill="#4C4C4C" d="M104.884,341.983c-0.121,0-0.225-0.05-0.311-0.149
			c-0.086-0.099-0.129-0.24-0.129-0.421c0-0.165,0.044-0.299,0.132-0.406c0.088-0.107,0.191-0.16,0.308-0.16
			c0.113,0,0.213,0.048,0.3,0.145c0.088,0.097,0.131,0.236,0.131,0.421c0,0.179-0.042,0.318-0.128,0.419
			C105.102,341.932,105.001,341.983,104.884,341.983 M105.315,343.181v3.354c0,0.233-0.042,0.409-0.125,0.528
			c-0.083,0.119-0.188,0.178-0.316,0.178c-0.127,0-0.231-0.061-0.311-0.183c-0.08-0.122-0.12-0.296-0.12-0.523v-3.32
			c0-0.229,0.04-0.402,0.12-0.519c0.08-0.116,0.184-0.174,0.311-0.174c0.128,0,0.233,0.059,0.316,0.174
			C105.273,342.813,105.315,342.975,105.315,343.181"/>
		<path display="inline" clip-path="url(#SVGID_4_)" fill="#4C4C4C" d="M109.134,343.373v3.371c0,0.386-0.031,0.717-0.093,0.996
			c-0.062,0.277-0.161,0.507-0.297,0.688s-0.315,0.316-0.535,0.403c-0.221,0.088-0.495,0.132-0.823,0.132
			c-0.3,0-0.568-0.057-0.805-0.168c-0.236-0.112-0.417-0.257-0.546-0.434c-0.127-0.177-0.191-0.359-0.191-0.546
			c0-0.141,0.036-0.257,0.109-0.346c0.072-0.089,0.16-0.134,0.261-0.134c0.128,0,0.24,0.075,0.336,0.225
			c0.046,0.076,0.095,0.154,0.145,0.232c0.05,0.079,0.106,0.145,0.166,0.2c0.061,0.055,0.134,0.096,0.219,0.123
			c0.085,0.026,0.183,0.04,0.294,0.04c0.226,0,0.401-0.042,0.525-0.125c0.125-0.083,0.212-0.201,0.262-0.351
			c0.05-0.149,0.079-0.311,0.087-0.482c0.009-0.172,0.015-0.447,0.02-0.828c-0.135,0.25-0.289,0.44-0.465,0.571
			c-0.175,0.13-0.384,0.195-0.627,0.195c-0.292,0-0.546-0.099-0.765-0.298s-0.386-0.476-0.503-0.833
			c-0.117-0.358-0.175-0.769-0.175-1.237c0-0.349,0.035-0.664,0.106-0.944c0.072-0.281,0.173-0.517,0.305-0.71
			s0.284-0.338,0.457-0.436c0.172-0.098,0.362-0.147,0.568-0.147c0.247,0,0.461,0.063,0.643,0.189
			c0.18,0.127,0.349,0.324,0.504,0.594v-0.158c0-0.202,0.037-0.357,0.112-0.468c0.075-0.109,0.17-0.166,0.288-0.166
			c0.168,0,0.28,0.073,0.335,0.219C109.106,342.887,109.134,343.098,109.134,343.373 M106.608,344.844
			c0,0.47,0.077,0.826,0.231,1.067c0.154,0.242,0.354,0.361,0.599,0.361c0.145,0,0.281-0.052,0.41-0.155
			c0.129-0.104,0.234-0.26,0.315-0.468c0.081-0.209,0.121-0.461,0.121-0.759c0-0.473-0.078-0.841-0.235-1.105
			c-0.156-0.264-0.362-0.395-0.618-0.395c-0.25,0-0.449,0.126-0.599,0.378C106.683,344.02,106.608,344.379,106.608,344.844"/>
		<path display="inline" clip-path="url(#SVGID_4_)" fill="#4C4C4C" d="M110.52,343.164v0.141c0.153-0.269,0.321-0.467,0.503-0.593
			c0.182-0.125,0.391-0.189,0.627-0.189c0.23,0,0.436,0.067,0.617,0.2c0.181,0.134,0.316,0.322,0.405,0.565
			c0.058,0.142,0.095,0.296,0.112,0.459c0.017,0.165,0.026,0.374,0.026,0.629v2.159c0,0.233-0.04,0.409-0.12,0.528
			c-0.081,0.119-0.184,0.178-0.312,0.178c-0.13,0-0.235-0.061-0.316-0.183c-0.081-0.122-0.121-0.296-0.121-0.523v-1.935
			c0-0.382-0.041-0.675-0.12-0.877c-0.08-0.202-0.239-0.304-0.478-0.304c-0.155,0-0.297,0.062-0.425,0.185
			c-0.127,0.124-0.221,0.293-0.281,0.508c-0.042,0.173-0.064,0.496-0.064,0.969v1.454c0,0.235-0.041,0.413-0.123,0.53
			c-0.082,0.117-0.188,0.176-0.317,0.176c-0.126,0-0.229-0.061-0.31-0.183c-0.081-0.122-0.122-0.296-0.122-0.523v-3.354
			c0-0.221,0.037-0.386,0.109-0.496c0.072-0.108,0.171-0.164,0.297-0.164c0.077,0,0.146,0.024,0.208,0.073
			c0.061,0.048,0.111,0.121,0.148,0.216C110.501,342.908,110.52,343.026,110.52,343.164"/>
		<path display="inline" clip-path="url(#SVGID_4_)" fill="#4C4C4C" d="M115.824,345.167h-1.705c0.002,0.264,0.042,0.496,0.12,0.697
			s0.181,0.353,0.31,0.455c0.128,0.102,0.271,0.152,0.426,0.152c0.104,0,0.2-0.016,0.286-0.048c0.086-0.034,0.169-0.084,0.251-0.154
			c0.08-0.069,0.155-0.144,0.224-0.223c0.067-0.081,0.156-0.188,0.265-0.324c0.044-0.051,0.108-0.077,0.191-0.077
			c0.09,0,0.162,0.034,0.217,0.099c0.056,0.065,0.083,0.157,0.083,0.276c0,0.105-0.031,0.227-0.093,0.368
			c-0.062,0.14-0.155,0.275-0.279,0.404s-0.281,0.235-0.469,0.321c-0.188,0.085-0.405,0.127-0.65,0.127
			c-0.56,0-0.996-0.213-1.307-0.638c-0.311-0.425-0.466-1.002-0.466-1.73c0-0.343,0.038-0.661,0.114-0.954
			c0.077-0.293,0.189-0.545,0.336-0.755s0.328-0.37,0.543-0.482c0.215-0.112,0.454-0.167,0.715-0.167
			c0.34,0,0.632,0.095,0.876,0.287c0.244,0.191,0.426,0.438,0.548,0.742s0.182,0.612,0.182,0.927c0,0.292-0.063,0.481-0.188,0.568
			C116.229,345.124,116.052,345.167,115.824,345.167 M114.119,344.508h1.581c-0.021-0.396-0.102-0.694-0.241-0.891
			c-0.14-0.197-0.323-0.296-0.551-0.296c-0.217,0-0.396,0.1-0.535,0.299C114.233,343.821,114.149,344.117,114.119,344.508"/>
		<path display="inline" clip-path="url(#SVGID_4_)" fill="#4C4C4C" d="M119.378,346.578v-0.115
			c-0.117,0.179-0.232,0.324-0.347,0.436c-0.114,0.112-0.237,0.198-0.37,0.255c-0.133,0.059-0.278,0.087-0.436,0.087
			c-0.209,0-0.402-0.059-0.58-0.176c-0.178-0.118-0.332-0.286-0.461-0.504c-0.13-0.219-0.229-0.475-0.295-0.77
			c-0.067-0.294-0.101-0.614-0.101-0.956c0-0.726,0.133-1.292,0.399-1.697c0.266-0.404,0.617-0.607,1.051-0.607
			c0.251,0,0.463,0.058,0.636,0.172c0.172,0.115,0.341,0.292,0.504,0.529v-1.713c0-0.238,0.036-0.418,0.107-0.54
			c0.071-0.122,0.173-0.183,0.305-0.183s0.233,0.056,0.305,0.167c0.071,0.113,0.107,0.277,0.107,0.496v5.119
			c0,0.221-0.039,0.387-0.115,0.497c-0.077,0.11-0.175,0.166-0.297,0.166c-0.119,0-0.218-0.057-0.295-0.172
			C119.417,346.954,119.378,346.791,119.378,346.578 M117.664,344.873c0,0.315,0.036,0.583,0.11,0.804s0.174,0.388,0.302,0.499
			c0.127,0.112,0.267,0.169,0.418,0.169c0.153,0,0.294-0.053,0.42-0.16c0.127-0.106,0.228-0.269,0.303-0.488
			c0.076-0.22,0.114-0.495,0.114-0.823c0-0.309-0.038-0.574-0.114-0.797c-0.075-0.222-0.177-0.392-0.306-0.51
			c-0.129-0.117-0.27-0.175-0.423-0.175c-0.159,0-0.302,0.06-0.428,0.18s-0.223,0.293-0.292,0.519S117.664,344.576,117.664,344.873"
			/>
		<path display="inline" clip-path="url(#SVGID_4_)" fill="#4C4C4C" d="M122.942,341.459v1.772c0.164-0.226,0.331-0.4,0.501-0.521
			c0.17-0.121,0.381-0.181,0.632-0.181c0.29,0,0.543,0.091,0.762,0.274c0.218,0.184,0.388,0.448,0.508,0.795
			c0.12,0.347,0.181,0.759,0.181,1.235c0,0.351-0.034,0.673-0.101,0.967c-0.067,0.293-0.165,0.547-0.292,0.763
			c-0.128,0.216-0.283,0.383-0.465,0.5c-0.182,0.117-0.383,0.176-0.602,0.176c-0.134,0-0.261-0.021-0.378-0.064
			c-0.119-0.042-0.219-0.098-0.302-0.167c-0.083-0.069-0.154-0.141-0.213-0.215c-0.059-0.074-0.136-0.185-0.231-0.332v0.115
			c0,0.218-0.04,0.383-0.118,0.496c-0.079,0.112-0.179,0.167-0.3,0.167c-0.124,0-0.222-0.056-0.295-0.167
			c-0.073-0.112-0.11-0.278-0.11-0.496v-5.068c0-0.235,0.036-0.413,0.107-0.533c0.071-0.121,0.171-0.181,0.298-0.181
			c0.135,0,0.237,0.057,0.31,0.172C122.906,341.083,122.942,341.247,122.942,341.459 M122.983,344.907
			c0,0.462,0.079,0.817,0.238,1.064c0.158,0.249,0.366,0.373,0.624,0.373c0.219,0,0.409-0.126,0.567-0.38
			c0.159-0.254,0.238-0.618,0.238-1.091c0-0.306-0.033-0.569-0.099-0.791c-0.066-0.221-0.16-0.392-0.281-0.512
			c-0.121-0.12-0.263-0.18-0.425-0.18c-0.166,0-0.314,0.06-0.444,0.18c-0.13,0.12-0.232,0.295-0.307,0.523
			S122.983,344.593,122.983,344.907"/>
		<path display="inline" clip-path="url(#SVGID_4_)" fill="#4C4C4C" d="M126.656,347.386l0.08-0.259l-1.073-3.597
			c-0.066-0.207-0.099-0.357-0.099-0.451c0-0.1,0.02-0.191,0.058-0.276c0.039-0.085,0.091-0.153,0.158-0.205
			c0.067-0.051,0.137-0.077,0.209-0.077c0.125,0,0.22,0.054,0.284,0.16c0.064,0.106,0.12,0.258,0.169,0.457l0.738,2.857l0.699-2.657
			c0.055-0.214,0.105-0.384,0.15-0.505c0.045-0.122,0.092-0.204,0.142-0.247c0.05-0.042,0.121-0.064,0.212-0.064
			c0.066,0,0.129,0.023,0.19,0.07c0.061,0.047,0.107,0.11,0.14,0.189c0.033,0.08,0.05,0.163,0.05,0.25
			c-0.009,0.053-0.022,0.13-0.042,0.23c-0.02,0.099-0.042,0.2-0.07,0.302l-1.137,3.962c-0.098,0.349-0.194,0.622-0.288,0.82
			c-0.094,0.198-0.217,0.351-0.372,0.457c-0.154,0.106-0.362,0.16-0.625,0.16c-0.255,0-0.447-0.037-0.574-0.11
			c-0.128-0.074-0.192-0.208-0.192-0.405c0-0.132,0.03-0.236,0.091-0.307c0.061-0.073,0.151-0.109,0.27-0.109
			c0.046,0,0.093,0.009,0.137,0.026c0.055,0.016,0.104,0.025,0.144,0.025c0.1,0,0.179-0.02,0.236-0.06
			c0.057-0.039,0.109-0.108,0.155-0.207C126.543,347.72,126.597,347.576,126.656,347.386"/>
		<path display="inline" clip-path="url(#SVGID_4_)" fill="#4C4C4C" d="M139.287,342.623h0.207v-0.348
			c0-0.365,0.034-0.652,0.104-0.868c0.069-0.214,0.187-0.37,0.353-0.467c0.165-0.097,0.391-0.146,0.678-0.146
			c0.511,0,0.765,0.164,0.765,0.499c0,0.106-0.027,0.198-0.081,0.275c-0.052,0.076-0.115,0.114-0.188,0.114
			c-0.034,0-0.093-0.008-0.177-0.026c-0.08-0.015-0.153-0.025-0.21-0.025c-0.156,0-0.257,0.063-0.304,0.186
			c-0.043,0.123-0.065,0.299-0.065,0.53v0.276h0.213c0.333,0,0.498,0.133,0.498,0.401c0,0.188-0.043,0.309-0.132,0.36
			c-0.088,0.051-0.21,0.077-0.366,0.077h-0.213v3.075c0,0.229-0.04,0.403-0.124,0.523c-0.081,0.122-0.187,0.182-0.317,0.182
			c-0.123,0-0.226-0.061-0.309-0.182c-0.082-0.12-0.123-0.294-0.123-0.523v-3.075h-0.239c-0.131,0-0.229-0.038-0.301-0.118
			c-0.07-0.076-0.105-0.179-0.105-0.303C138.849,342.761,138.995,342.623,139.287,342.623"/>
		<path display="inline" clip-path="url(#SVGID_4_)" fill="#4C4C4C" d="M142.142,345.565v0.97c0,0.234-0.045,0.412-0.126,0.528
			c-0.083,0.119-0.188,0.177-0.315,0.177c-0.128,0-0.231-0.059-0.312-0.179c-0.08-0.118-0.122-0.293-0.122-0.526v-3.232
			c0-0.522,0.141-0.783,0.424-0.783c0.146,0,0.25,0.061,0.314,0.183c0.063,0.122,0.099,0.301,0.106,0.541
			c0.104-0.239,0.21-0.418,0.319-0.541c0.112-0.123,0.256-0.183,0.44-0.183c0.185,0,0.36,0.061,0.533,0.183
			c0.173,0.122,0.259,0.285,0.259,0.485c0,0.141-0.037,0.26-0.109,0.35c-0.074,0.093-0.153,0.14-0.237,0.14
			c-0.033,0-0.111-0.028-0.232-0.081c-0.123-0.051-0.232-0.078-0.324-0.078c-0.128,0-0.232,0.046-0.313,0.134
			c-0.082,0.091-0.145,0.222-0.189,0.396c-0.043,0.177-0.074,0.388-0.092,0.629C142.149,344.921,142.142,345.217,142.142,345.565"/>
		<path display="inline" clip-path="url(#SVGID_4_)" fill="#4C4C4C" d="M146.15,345.166h-1.706c0.003,0.264,0.042,0.498,0.119,0.698
			c0.08,0.2,0.182,0.352,0.311,0.455c0.129,0.102,0.27,0.152,0.427,0.152c0.104,0,0.199-0.015,0.285-0.05
			c0.085-0.031,0.17-0.083,0.251-0.152c0.082-0.068,0.155-0.143,0.223-0.224c0.068-0.079,0.157-0.187,0.266-0.322
			c0.045-0.05,0.109-0.078,0.191-0.078c0.091,0,0.162,0.033,0.218,0.099s0.082,0.157,0.082,0.276c0,0.105-0.03,0.227-0.09,0.367
			c-0.063,0.142-0.156,0.276-0.281,0.406c-0.126,0.128-0.282,0.236-0.47,0.319c-0.188,0.085-0.405,0.128-0.65,0.128
			c-0.562,0-0.997-0.212-1.307-0.637c-0.311-0.426-0.468-1.003-0.468-1.732c0-0.343,0.04-0.661,0.117-0.955
			c0.076-0.295,0.188-0.544,0.336-0.755c0.146-0.21,0.326-0.371,0.542-0.483c0.214-0.111,0.453-0.167,0.715-0.167
			c0.34,0,0.632,0.096,0.876,0.289c0.244,0.189,0.429,0.437,0.548,0.741c0.121,0.305,0.182,0.612,0.182,0.929
			c0,0.29-0.063,0.479-0.189,0.566C146.554,345.123,146.378,345.166,146.15,345.166 M144.444,344.506h1.581
			c-0.021-0.396-0.1-0.694-0.24-0.889c-0.141-0.198-0.323-0.295-0.552-0.295c-0.217,0-0.396,0.098-0.535,0.299
			C144.559,343.82,144.473,344.115,144.444,344.506"/>
		<path display="inline" clip-path="url(#SVGID_4_)" fill="#4C4C4C" d="M149.777,345.166h-1.706c0.002,0.264,0.042,0.498,0.12,0.698
			c0.078,0.2,0.181,0.352,0.309,0.455c0.129,0.102,0.271,0.152,0.428,0.152c0.104,0,0.2-0.015,0.284-0.05
			c0.087-0.031,0.17-0.083,0.252-0.152c0.081-0.068,0.154-0.143,0.223-0.224c0.067-0.079,0.156-0.187,0.265-0.322
			c0.045-0.05,0.109-0.078,0.19-0.078c0.091,0,0.163,0.033,0.219,0.099s0.081,0.157,0.081,0.276c0,0.105-0.029,0.227-0.092,0.367
			c-0.059,0.142-0.153,0.276-0.279,0.406c-0.125,0.128-0.283,0.236-0.469,0.319c-0.188,0.085-0.406,0.128-0.651,0.128
			c-0.561,0-0.995-0.212-1.307-0.637c-0.311-0.426-0.467-1.003-0.467-1.732c0-0.343,0.039-0.661,0.117-0.955
			c0.077-0.295,0.188-0.544,0.335-0.755c0.146-0.21,0.327-0.371,0.542-0.483c0.214-0.111,0.454-0.167,0.716-0.167
			c0.339,0,0.632,0.096,0.879,0.289c0.242,0.189,0.425,0.437,0.545,0.741c0.121,0.305,0.184,0.612,0.184,0.929
			c0,0.29-0.065,0.479-0.189,0.566C150.181,345.123,150.004,345.166,149.777,345.166 M148.071,344.506h1.581
			c-0.021-0.396-0.102-0.694-0.24-0.889c-0.142-0.198-0.323-0.295-0.552-0.295c-0.217,0-0.395,0.098-0.536,0.299
			C148.185,343.82,148.1,344.115,148.071,344.506"/>
		<path display="inline" clip-path="url(#SVGID_4_)" fill="#4C4C4C" d="M151.687,343.173v0.139c0.164-0.269,0.334-0.466,0.512-0.593
			c0.175-0.127,0.376-0.191,0.6-0.191c0.268,0,0.517,0.093,0.742,0.276c0.226,0.185,0.403,0.455,0.534,0.808
			c0.131,0.356,0.197,0.774,0.197,1.259c0,0.357-0.038,0.686-0.113,0.986c-0.075,0.299-0.181,0.549-0.312,0.751
			c-0.133,0.202-0.288,0.359-0.468,0.468c-0.182,0.108-0.373,0.163-0.581,0.163c-0.249,0-0.459-0.067-0.627-0.201
			c-0.169-0.131-0.33-0.328-0.484-0.584v1.743c0,0.508-0.14,0.765-0.418,0.765c-0.165,0-0.272-0.065-0.327-0.196
			c-0.051-0.134-0.078-0.324-0.078-0.578v-5.011c0-0.222,0.035-0.385,0.107-0.496c0.072-0.106,0.172-0.163,0.298-0.163
			c0.124,0,0.224,0.056,0.301,0.167C151.649,342.801,151.687,342.96,151.687,343.173 M153.396,344.859
			c0-0.306-0.036-0.57-0.106-0.789c-0.07-0.22-0.167-0.388-0.291-0.505c-0.124-0.118-0.263-0.177-0.414-0.177
			c-0.241,0-0.444,0.127-0.608,0.378c-0.166,0.253-0.249,0.625-0.249,1.115c0,0.459,0.083,0.821,0.248,1.078
			c0.164,0.256,0.365,0.384,0.61,0.384c0.144,0,0.279-0.056,0.402-0.167c0.125-0.113,0.224-0.28,0.298-0.504
			C153.359,345.448,153.396,345.176,153.396,344.859"/>
		<path display="inline" clip-path="url(#SVGID_4_)" fill="#4C4C4C" d="M155.15,341.979c-0.122,0-0.225-0.051-0.31-0.15
			c-0.088-0.1-0.131-0.238-0.131-0.419c0-0.165,0.044-0.299,0.134-0.407c0.088-0.105,0.19-0.159,0.307-0.159
			c0.114,0,0.214,0.047,0.3,0.143c0.087,0.098,0.131,0.239,0.131,0.423c0,0.179-0.043,0.319-0.127,0.419
			C155.37,341.929,155.269,341.979,155.15,341.979 M155.582,343.179v3.358c0,0.231-0.042,0.407-0.124,0.525
			c-0.084,0.12-0.189,0.179-0.317,0.179s-0.23-0.06-0.312-0.182c-0.079-0.124-0.12-0.298-0.12-0.522v-3.325
			c0-0.229,0.041-0.4,0.12-0.517c0.082-0.118,0.184-0.175,0.312-0.175s0.233,0.057,0.317,0.175
			C155.541,342.812,155.582,342.974,155.582,343.179"/>
		<path display="inline" clip-path="url(#SVGID_4_)" fill="#4C4C4C" d="M158.393,346.71l-0.768-1.685l-0.474,0.594v0.924
			c0,0.224-0.044,0.395-0.133,0.515c-0.086,0.122-0.19,0.182-0.305,0.182c-0.134,0-0.241-0.059-0.316-0.179
			c-0.076-0.118-0.115-0.294-0.115-0.526v-4.952c0-0.256,0.039-0.453,0.111-0.588c0.075-0.137,0.183-0.202,0.32-0.202
			c0.134,0,0.24,0.061,0.319,0.184c0.079,0.121,0.119,0.301,0.119,0.537v2.817l0.981-1.371c0.122-0.168,0.212-0.287,0.278-0.349
			c0.063-0.062,0.141-0.093,0.231-0.093c0.11,0,0.2,0.046,0.274,0.138c0.071,0.092,0.108,0.208,0.108,0.346
			c0,0.169-0.119,0.398-0.355,0.681l-0.463,0.565l0.894,1.872c0.065,0.14,0.114,0.244,0.143,0.316
			c0.028,0.072,0.043,0.143,0.043,0.207c0,0.185-0.038,0.329-0.114,0.437c-0.075,0.106-0.176,0.159-0.298,0.159
			c-0.106,0-0.189-0.037-0.247-0.115C158.57,347.049,158.49,346.909,158.393,346.71"/>
		<path display="inline" clip-path="url(#SVGID_4_)" fill="#4C4C4C" d="M160.288,347.241c-0.131,0-0.244-0.057-0.341-0.171
			c-0.095-0.111-0.144-0.271-0.144-0.476c0-0.173,0.046-0.322,0.138-0.445c0.092-0.125,0.204-0.188,0.339-0.188
			c0.133,0,0.248,0.062,0.344,0.184c0.094,0.123,0.142,0.274,0.142,0.449c0,0.202-0.048,0.361-0.142,0.474
			C160.527,347.184,160.416,347.241,160.288,347.241"/>
		<path display="inline" clip-path="url(#SVGID_4_)" fill="#4C4C4C" d="M164.625,345.803c0,0.144-0.033,0.299-0.098,0.463
			c-0.064,0.166-0.164,0.321-0.297,0.47c-0.132,0.148-0.3,0.269-0.503,0.36c-0.202,0.09-0.43,0.137-0.683,0.137
			c-0.54,0-0.961-0.21-1.264-0.627c-0.301-0.419-0.453-0.98-0.453-1.683c0-0.478,0.069-0.898,0.208-1.264
			c0.137-0.365,0.337-0.648,0.599-0.848c0.262-0.201,0.577-0.3,0.939-0.3c0.226,0,0.433,0.044,0.623,0.132
			c0.189,0.087,0.347,0.202,0.479,0.34c0.13,0.141,0.231,0.288,0.3,0.444c0.069,0.158,0.103,0.305,0.103,0.442
			c0,0.138-0.038,0.256-0.115,0.353c-0.079,0.096-0.173,0.145-0.282,0.145c-0.074,0-0.134-0.025-0.182-0.074
			c-0.048-0.05-0.103-0.13-0.161-0.243c-0.106-0.213-0.217-0.376-0.335-0.483c-0.115-0.109-0.262-0.162-0.441-0.162
			c-0.256,0-0.465,0.133-0.624,0.401c-0.157,0.267-0.236,0.636-0.236,1.099c0,0.219,0.021,0.421,0.061,0.604
			c0.04,0.182,0.098,0.338,0.175,0.467c0.078,0.129,0.169,0.226,0.278,0.293c0.109,0.069,0.229,0.101,0.358,0.101
			c0.175,0,0.325-0.054,0.45-0.161c0.126-0.108,0.236-0.272,0.331-0.494c0.053-0.13,0.11-0.231,0.171-0.306
			c0.061-0.074,0.138-0.112,0.227-0.112c0.107,0,0.195,0.055,0.265,0.162C164.589,345.567,164.625,345.683,164.625,345.803"/>
		<path display="inline" clip-path="url(#SVGID_4_)" fill="#4C4C4C" d="M168.388,344.881c0,0.346-0.042,0.665-0.12,0.958
			c-0.083,0.292-0.199,0.543-0.353,0.752c-0.153,0.209-0.337,0.371-0.548,0.483c-0.215,0.111-0.454,0.168-0.719,0.168
			c-0.264,0-0.502-0.057-0.713-0.171c-0.209-0.111-0.394-0.275-0.547-0.484c-0.155-0.213-0.272-0.463-0.354-0.75
			c-0.078-0.288-0.118-0.606-0.118-0.954c0-0.352,0.042-0.673,0.121-0.966c0.082-0.293,0.198-0.542,0.35-0.749
			c0.151-0.207,0.333-0.366,0.548-0.479c0.216-0.111,0.454-0.167,0.713-0.167c0.264,0,0.503,0.056,0.719,0.171
			c0.214,0.112,0.397,0.275,0.552,0.483c0.154,0.212,0.271,0.46,0.35,0.748C168.347,344.214,168.388,344.531,168.388,344.881
			 M167.512,344.881c0-0.473-0.079-0.841-0.234-1.104c-0.156-0.267-0.366-0.398-0.63-0.398c-0.171,0-0.321,0.06-0.452,0.177
			c-0.13,0.117-0.229,0.291-0.299,0.521c-0.07,0.23-0.106,0.499-0.106,0.805c0,0.304,0.034,0.568,0.104,0.794
			c0.07,0.228,0.169,0.401,0.298,0.521c0.13,0.12,0.281,0.181,0.456,0.181c0.264,0,0.474-0.133,0.63-0.399
			C167.434,345.714,167.512,345.347,167.512,344.881"/>
		<path display="inline" clip-path="url(#SVGID_4_)" fill="#4C4C4C" d="M171.714,344.966v1.543c0,0.245-0.041,0.426-0.125,0.549
			c-0.084,0.122-0.192,0.183-0.329,0.183c-0.131,0-0.24-0.061-0.32-0.183c-0.083-0.124-0.125-0.305-0.125-0.549v-1.849
			c0-0.292-0.006-0.521-0.021-0.683c-0.015-0.158-0.056-0.293-0.122-0.395c-0.066-0.105-0.171-0.158-0.313-0.158
			c-0.287,0-0.474,0.13-0.564,0.394c-0.09,0.258-0.137,0.633-0.137,1.123v1.567c0,0.241-0.041,0.423-0.122,0.548
			c-0.084,0.122-0.19,0.184-0.325,0.184c-0.132,0-0.24-0.062-0.325-0.184c-0.084-0.125-0.126-0.307-0.126-0.548v-3.321
			c0-0.219,0.037-0.385,0.113-0.498c0.077-0.115,0.177-0.171,0.299-0.171c0.12,0,0.219,0.055,0.3,0.159
			c0.079,0.107,0.119,0.254,0.119,0.441v0.109c0.153-0.239,0.314-0.416,0.486-0.528c0.174-0.116,0.364-0.172,0.576-0.172
			c0.219,0,0.407,0.059,0.564,0.174c0.158,0.117,0.287,0.293,0.39,0.526c0.148-0.236,0.306-0.413,0.474-0.528
			c0.168-0.115,0.354-0.172,0.559-0.172c0.237,0,0.444,0.063,0.617,0.188c0.171,0.125,0.3,0.304,0.385,0.535
			c0.075,0.212,0.111,0.542,0.111,0.992v2.267c0,0.245-0.041,0.426-0.124,0.549c-0.083,0.122-0.193,0.183-0.329,0.183
			c-0.133,0-0.24-0.062-0.324-0.184c-0.084-0.125-0.126-0.307-0.126-0.548v-1.952c0-0.25-0.008-0.449-0.024-0.599
			c-0.015-0.151-0.059-0.277-0.128-0.379c-0.071-0.102-0.178-0.154-0.32-0.154c-0.115,0-0.224,0.048-0.327,0.138
			c-0.104,0.089-0.185,0.213-0.243,0.364C171.747,344.123,171.714,344.47,171.714,344.966"/>
		<polyline display="inline" clip-path="url(#SVGID_4_)" fill="#4C4C4C" points="131.126,344.6 131.126,344.592 131.126,344.6 		"/>
		<path display="inline" clip-path="url(#SVGID_4_)" fill="#4C4C4C" d="M131.17,344.971L131.17,344.971
			c-0.016-0.105-0.028-0.21-0.039-0.314C131.142,344.762,131.155,344.867,131.17,344.971"/>
		<path display="inline" clip-path="url(#SVGID_4_)" fill="#4C4C4C" d="M131.459,346.048c-0.002-0.004-0.003-0.009-0.005-0.015
			C131.456,346.04,131.457,346.044,131.459,346.048"/>
		<path display="inline" clip-path="url(#SVGID_4_)" fill="#4C4C4C" d="M131.432,345.977c-0.007-0.02-0.015-0.04-0.022-0.06
			C131.417,345.938,131.424,345.957,131.432,345.977"/>
		<path display="inline" clip-path="url(#SVGID_4_)" fill="#4C4C4C" d="M131.251,345.386c0.043,0.179,0.094,0.353,0.154,0.518
			C131.345,345.735,131.294,345.562,131.251,345.386L131.251,345.386z"/>
		<path display="inline" clip-path="url(#SVGID_4_)" fill="#4C4C4C" d="M134.502,340.152c0.169,0,0.293,0.018,0.436,0.05l0.04-0.342
			c0,0-0.394-0.161-0.911-0.105l-0.041-0.186c0.161-0.044,0.282-0.235,0.282-0.462c0-0.261-0.16-0.472-0.355-0.472
			c-0.196,0-0.355,0.211-0.355,0.472c0,0.227,0.121,0.418,0.281,0.462l0.045,0.208c-0.55,0.101-0.987,0.386-0.987,0.386l0.078,0.316
			c0.332-0.148,0.621-0.237,0.882-0.275C134.151,340.168,134.345,340.152,134.502,340.152"/>
		<path display="inline" clip-path="url(#SVGID_4_)" fill="#4C4C4C" d="M131.453,341.879l0.002-0.003
			c0.013-0.022,0.025-0.043,0.038-0.064l-0.105-0.101l-0.164-0.16c-0.009,0.017-0.267,0.333-0.471,0.917
			c-0.008-0.018-0.019-0.036-0.03-0.053c-0.061-0.089-0.146-0.134-0.255-0.131h-0.005c-0.067,0-0.113-0.03-0.144-0.066
			c0.03-0.051,0.048-0.115,0.048-0.185c0-0.165-0.101-0.299-0.225-0.299s-0.225,0.134-0.225,0.299c0,0.166,0.101,0.299,0.225,0.299
			c0.02,0,0.038-0.004,0.056-0.009c0.056,0.082,0.143,0.153,0.271,0.15c0.066-0.001,0.115,0.021,0.147,0.069
			c0.038,0.054,0.05,0.132,0.054,0.191c0,0.001,0,0.002-0.001,0.002c-0.146,0.533-0.104,1.195-0.104,1.195l0.355,0.019
			c0.007-0.242,0.033-0.664,0.125-0.999C131.222,342.302,131.443,341.896,131.453,341.879"/>
		<path display="inline" clip-path="url(#SVGID_4_)" fill="#4C4C4C" d="M137.595,340.548c-0.123,0-0.225,0.133-0.225,0.299
			c0,0.025,0.003,0.05,0.008,0.074c-0.062,0.074-0.115,0.191-0.113,0.363c0.001,0.088-0.016,0.151-0.052,0.195
			c-0.028,0.033-0.064,0.051-0.1,0.063c-0.265-0.494-0.591-0.794-0.591-0.794l-0.255,0.364c0.193,0.233,0.391,0.525,0.581,0.891
			c0.133,0.252,0.269,0.578,0.383,0.902l0.344-0.218c0,0-0.157-0.517-0.379-0.98c0.039-0.018,0.078-0.046,0.111-0.086
			c0.068-0.081,0.101-0.196,0.099-0.339c0-0.093,0.022-0.156,0.051-0.198c0.038,0.039,0.086,0.064,0.138,0.064
			c0.125,0,0.226-0.134,0.226-0.299C137.82,340.682,137.72,340.548,137.595,340.548"/>
		<path display="inline" clip-path="url(#SVGID_4_)" fill="#4C4C4C" d="M136.702,344.667c-0.475,0.307-1.254,0.713-2.28,0.904
			c-0.403,0.074-0.794,0.102-1.153,0.102c-0.468,0-0.881-0.046-1.198-0.1c-0.362-0.061-0.645-0.135-0.817-0.187
			c0.041,0.175,0.092,0.349,0.152,0.518c0.001,0.004,0.002,0.009,0.004,0.013c0.007,0.02,0.014,0.04,0.022,0.06
			c0.007,0.02,0.015,0.039,0.022,0.057c0.002,0.005,0.003,0.01,0.006,0.015c0.101,0.255,0.224,0.49,0.363,0.693
			c0.484,0.705,0.978,0.816,0.982,0.817l0.008,0.001l0.008,0.003c0.004,0.002,0.441,0.189,1.106,0.189
			c0.653,0,1.296-0.175,1.908-0.521c0.453-0.309,0.881-0.778,1.094-1.195c0.164-0.324,0.282-0.668,0.353-1.027
			c0.038-0.19,0.067-0.496,0.05-0.816C137.198,344.313,136.987,344.482,136.702,344.667"/>
		<path display="inline" clip-path="url(#SVGID_4_)" fill="#4C4C4C" d="M131.605,342.029c-0.014,0.026-0.22,0.414-0.382,1.008
			c-0.122,0.445-0.116,1.094-0.116,1.101v0.001c0,0.152,0.006,0.303,0.019,0.453c0,0.003,0,0.005,0,0.008
			c0.001,0.019,0.004,0.038,0.005,0.057c0.01,0.104,0.023,0.208,0.04,0.313c0.235,0.081,1.641,0.517,3.211,0.225
			c0.983-0.182,1.73-0.569,2.185-0.862c0.377-0.244,0.62-0.464,0.713-0.555c-0.093-0.459-0.351-1.182-0.586-1.632
			c-0.674-1.283-1.401-1.611-1.774-1.693c-0.143-0.031-0.256-0.049-0.418-0.049c-0.15,0-0.337,0.016-0.586,0.052
			c-0.25,0.034-0.529,0.122-0.852,0.267c-0.453,0.202-0.863,0.519-1.187,0.917l-0.011,0.014
			C131.819,341.711,131.719,341.834,131.605,342.029 M135.73,341.73c0.323,0,0.587,0.349,0.587,0.78
			c0,0.431-0.264,0.781-0.587,0.781s-0.586-0.35-0.586-0.781C135.145,342.08,135.407,341.73,135.73,341.73 M132.959,341.699
			c0.524,0,0.947,0.565,0.947,1.261s-0.423,1.26-0.947,1.26c-0.522,0-0.947-0.564-0.947-1.26S132.437,341.699,132.959,341.699"/>
	</g>
	<g clip-path="url(#SVGID_2_)">
		<defs>
			<rect id="SVGID_5_" width="269.001" height="358.088"/>
		</defs>
		<clipPath id="SVGID_6_">
			<use xlink:href="#SVGID_5_"  overflow="visible"/>
		</clipPath>
		<path clip-path="url(#SVGID_6_)" fill="#FFFFFF" d="M206.886,258.756c-0.505-19.286-10.567-35.338-24.083-40.003
			c-1.521-13.904-10.511-24.584-21.377-24.584c-4.462,0-8.607,1.802-12.05,4.886c-2.002-2.109-4.531-3.372-7.283-3.372
			c-3.742,0-7.072,2.33-9.225,5.958c-2.582-8.52-8.849-14.537-16.174-14.537c-5.622,0-10.619,3.545-13.807,9.043
			c-3.7-2.549-7.896-3.997-12.349-3.997c-14.864,0-26.915,16.041-26.915,35.828c0,4.017,0.504,7.875,1.42,11.481
			c-4.518,4.084-7.485,10.978-7.485,18.795c0,2.523,2.117,5.27,2.687,7.537c-0.815,3.287-3.066,6.474-3.066,10.125
			c0,5.869,2.203,13.424,6.949,13.424c-6.04,20.677,12.414,39.057,28.684,39.057c11.631,0,21.856-8.018,27.727-20.125
			c0.702,0.166,1.415,0.285,2.139,0.357c3.636,3.542,8.118,5.639,12.97,5.639c4.358,0,8.417-1.695,11.834-4.607
			c3.619,7.045,9.701,11.672,16.596,11.672c8.15,0,15.162-6.464,18.313-15.749c2.541,1.365,5.314,2.124,8.223,2.124
			c12.143,0,21.986-13.104,21.986-29.268C212.601,270.86,210.437,263.954,206.886,258.756"/>
		<path clip-path="url(#SVGID_6_)" fill="#DEEEF2" d="M209.103,281.299c-5.178,6.318-18.553,2.297-19.416-9.19
			c-0.863,9.765-9.924,11.487-15.102,14.934c-4.314,2.871-9.061-1.149-10.787-6.893c-4.746,9.764-18.121,11.487-22.436,0.575
			c-3.883,10.338-13.807,10.913-21.142,5.743c-2.158-1.723-3.021-4.595-3.883-7.466c0.863,14.359-6.472,26.42-16.827,30.441
			c-5.178,1.723-10.355-1.149-14.67-4.595c-5.177-4.596-7.766-12.636-5.177-20.103c-5.609,1.723-9.924-4.021-10.787-10.913
			c-0.863-4.595,0.432-8.616,2.157-12.636c-3.883,1.149-7.766-1.148-9.923-5.168c-0.927-2.222-1.693-4.551-2.096-6.939
			c-0.931,2.804-1.455,5.902-1.455,9.166c0,2.523,2.117,5.27,2.687,7.537c-0.815,3.287-3.066,6.474-3.066,10.125
			c0,5.869,2.203,13.424,6.95,13.424c-6.041,20.677,12.413,39.056,28.683,39.056c11.631,0,21.856-8.017,27.727-20.125
			c0.702,0.166,1.415,0.285,2.139,0.357c3.636,3.542,8.118,5.639,12.969,5.639c4.358,0,8.417-1.695,11.834-4.607
			c3.619,7.045,9.701,11.672,16.596,11.672c8.15,0,15.162-6.464,18.313-15.749c2.541,1.365,5.314,2.124,8.222,2.124
			c12.143,0,21.986-13.104,21.986-29.268c0-0.448-0.009-0.894-0.023-1.338C211.455,278.659,210.264,280.063,209.103,281.299"/>
		<path clip-path="url(#SVGID_6_)" fill="#FFFFFF" d="M68.958,60.368c-1.18,0-2.287,0.41-3.25,1.123
			c-1.616-2.103-3.725-3.534-6.075-3.959c-2.164-3.982-5.68-6.576-9.654-6.576c-4.873,0-9.06,3.897-10.903,9.477
			c-1.608-0.683-3.32-1.056-5.099-1.056c-2.416,0-4.709,0.686-6.783,1.912c-1.23-1.197-2.741-1.912-4.381-1.912
			c-3.962,0-7.191,4.125-7.42,9.323c-3.447,1.284-5.977,5.494-5.977,10.493c0,6.019,3.666,10.898,8.188,10.898
			c0.287,0,0.571-0.021,0.851-0.058c2.485,8.166,8.497,13.929,15.523,13.929c3.328,0,6.427-1.297,9.035-3.526
			c0.786,0.354,1.625,0.555,2.501,0.555c2.971,0,5.554-2.207,6.876-5.457c0.065,0.002,0.129,0.007,0.195,0.007
			c1.913,0,3.689-0.769,5.168-2.086c1.018,0.696,2.168,1.095,3.391,1.095c3.984,0,7.228-4.17,7.424-9.408
			c2-1.817,3.389-4.732,3.681-8.094c2.033-1.531,3.408-4.431,3.408-7.763C75.656,64.359,72.657,60.368,68.958,60.368"/>
		<path clip-path="url(#SVGID_6_)" fill="#DEEEF2" d="M69.33,70.275c0,2.477-0.372,5.945-2.605,6.44
			c-0.372,0-0.372-0.495-0.372-0.991c0,4.458-1.861,10.403-5.955,9.412c-1.861-0.99-2.977-2.477-3.721-4.954
			c0,1.982-0.372,3.467-0.745,4.954c-1.116,1.981-2.977,2.973-4.837,1.981c0-0.443-0.89-0.887-0.813-1.685
			c-0.677,2.964-0.749,7.167-2.909,8.125c-2.605,1.486-5.954,0.496-7.815-2.477c-1.117,4.458-5.582,3.963-8.559,3.467
			c-4.466-0.99-7.071-6.935-7.815-12.384c-4.6,3.827-10.308,0.851-13.697-4.353c-0.043,0.453-0.073,0.912-0.073,1.38
			c0,6.02,3.666,10.899,8.187,10.899c0.288,0,0.571-0.02,0.851-0.058c2.485,8.166,8.497,13.929,15.523,13.929
			c3.328,0,6.428-1.297,9.035-3.527c0.786,0.354,1.625,0.555,2.502,0.555c2.97,0,5.554-2.207,6.875-5.457
			c0.065,0.002,0.129,0.007,0.195,0.007c1.912,0,3.689-0.769,5.167-2.086c1.018,0.696,2.168,1.095,3.392,1.095
			c3.984,0,7.227-4.169,7.424-9.408c2-1.817,3.389-4.732,3.681-8.094c2.033-1.531,3.409-4.431,3.409-7.763
			c0-0.191-0.013-0.379-0.022-0.568C73.93,71.003,71.523,72.133,69.33,70.275"/>
		<path clip-path="url(#SVGID_6_)" fill="#FFFFFF" d="M261.94,118.147c0-10.672-6.5-19.325-14.517-19.325
			c-0.826,0-1.635,0.097-2.423,0.273c-2.107-1.742-4.592-2.751-7.255-2.751c-3.085,0-5.934,1.352-8.23,3.633
			c-1.854-2.256-4.321-3.633-7.031-3.633c-4.517,0-8.362,3.827-9.809,9.177c-0.871,0.638-1.707,1.351-2.503,2.13
			c-1.076-0.88-2.338-1.397-3.694-1.397c-3.906,0-7.072,4.215-7.072,9.415c0,2.906,0.989,5.502,2.543,7.229
			c-0.22,0.927-0.406,1.873-0.56,2.835c-0.403-0.095-0.816-0.154-1.24-0.154c-1.644,0-3.153,0.754-4.354,2.006
			c-6.079,0.437-10.907,7.135-10.907,15.337c0,8.484,5.166,15.36,11.539,15.36c0.19,0,0.379-0.006,0.567-0.018
			c0.838,1.67,1.95,3.075,3.251,4.102c-0.062,0.609-0.097,1.231-0.097,1.863c0,7.663,4.667,13.875,10.423,13.875
			c3.678,0,6.91-2.54,8.765-6.372c0.75,0.18,1.513,0.306,2.29,0.369c3.067,5.163,7.812,8.48,13.141,8.48
			c9.251,0,16.75-9.983,16.75-22.299c0-0.834-0.038-1.657-0.104-2.469c5.982-3.554,10.155-11.536,10.155-20.819
			c0-2.901-0.412-5.673-1.154-8.225C261.389,124.174,261.94,121.247,261.94,118.147"/>
		<path clip-path="url(#SVGID_6_)" fill="#DEEEF2" d="M258.646,147.724c-4.161,0.493-8.463-0.97-11.595-4.305
			c-1.117,7.433-2.978,14.866-7.817,18.83c-6.328,5.45-16.006,3.964-20.473-5.451c-2.233,4.459-6.7,5.451-10.05,2.973
			c-1.489-0.991-2.978-3.964-2.605-6.938c-2.979,0.496-6.329-1.982-5.583-6.441c-2.606,3.469-6.328,3.964-9.678,2.973
			c-2.107-0.561-4.332-2.233-5.867-4.566c0.695,7.599,5.555,13.486,11.451,13.486c0.19,0,0.379-0.007,0.567-0.02
			c0.838,1.67,1.95,3.076,3.251,4.102c-0.062,0.61-0.097,1.23-0.097,1.863c0,7.664,4.667,13.875,10.423,13.875
			c3.678,0,6.91-2.54,8.765-6.371c0.75,0.18,1.513,0.305,2.289,0.369c3.068,5.163,7.812,8.479,13.142,8.479
			c9.251,0,16.75-9.983,16.75-22.297c0-0.835-0.037-1.658-0.104-2.469C254.356,154.066,256.86,151.244,258.646,147.724"/>
		<path clip-path="url(#SVGID_6_)" fill="#FFFFFF" d="M129.284,235.212c0.021-0.172,0.041-0.343,0.059-0.513
			C129.316,234.873,129.298,235.043,129.284,235.212"/>
		<path clip-path="url(#SVGID_6_)" fill="#FFFFFF" d="M116.229,234.699c0.688,0.917,1.355,1.921,2.039,2.894
			c-0.007-0.07-0.014-0.14-0.021-0.208C117.91,236.042,117.238,235.146,116.229,234.699"/>
		<path clip-path="url(#SVGID_6_)" fill="#FFFFFF" d="M164.649,219.033c0.193,0,0.356-0.041,0.501-0.115
			C164.977,218.9,164.805,218.929,164.649,219.033"/>
		<g opacity="0.91" clip-path="url(#SVGID_6_)">
			<g>
				<defs>
					<rect id="SVGID_7_" x="94.505" y="205.881" width="73.063" height="44.171"/>
				</defs>
				<clipPath id="SVGID_8_">
					<use xlink:href="#SVGID_7_"  overflow="visible"/>
				</clipPath>
				<path clip-path="url(#SVGID_8_)" fill="#D9E7E8" d="M166.702,222.947c1.964-4.197,0.327-8.813-2.291-10.492
					c-2.946-2.098-7.201-0.419-9.165,2.938c0-2.518,0.328-5.875-1.963-6.715c-4.255-1.259-8.183,2.099-9.165,7.554
					c-1.637-2.098-2.618-6.295-5.564-5.036s-6.874,2.518-6.874,7.554c-1.309-4.197-3.273-8.393-6.546-10.911
					c-3.601-2.518-8.838-2.098-10.474,3.357c-2.619-3.777-7.201-6.715-11.456-4.616c-3.799,1.499-7.072,6.677-6.101,11.952
					c0.069-0.068,0.137-0.138,0.209-0.202c-0.072,0.064-0.14,0.133-0.209,0.202c0.117,0.633,0.291,1.267,0.536,1.896
					c-0.246-0.629-0.419-1.264-0.536-1.896c-3.089,3.066-3.647,10.363-0.446,13.647c2.292,2.099,4.91,2.518,7.528,0.839
					c-3.273,4.197-2.619,10.912,1.309,14.27c2.291,1.679,4.91,0.839,6.219-2.099c-0.654,4.197,3.601,5.456,6.219,4.617
					c2.882-0.821,2.631-5.256,2.313-8.199c-0.666-0.912-1.315-1.854-1.985-2.713c0.982,0.42,1.636,1.259,1.963,2.519
					c0.007,0.063,0.014,0.128,0.021,0.194c1.935,2.65,4.014,5.046,7.18,4.421c2.477-0.794,3.196-3.84,3.543-6.653
					c0.014-0.158,0.031-0.318,0.057-0.481c-0.018,0.159-0.037,0.32-0.057,0.481c-0.165,1.875,0.46,3.394,1.367,4.555
					c5.237,5.875,14.402,4.616,18.657-2.099c1.309-1.679,0.327-4.197,0.327-6.715c0.982,3.777,4.583,3.358,6.874,2.518
					c1.637-0.419,1.964-3.357,1.637-5.456c1.31,3.777,4.583,2.518,6.547,0.419c1.636-1.679,1.309-5.036,0.654-7.554
					c0-0.323-0.581-0.893-1.148-0.947c-0.142,0.069-0.3,0.108-0.488,0.108c0.151-0.097,0.319-0.125,0.488-0.108
					C166.232,223.927,166.468,223.546,166.702,222.947"/>
			</g>
		</g>
		<path clip-path="url(#SVGID_6_)" fill="#E2C8C4" d="M143.357,97.204c0.087-0.969,1.185-2.684,2.006-2.538
			c0.905,0.162,1.126,1.798,1.2,2.738c0.218,2.762-1.874,7.026-3.808,3.801"/>
		<path clip-path="url(#SVGID_6_)" fill="#D1BEBA" d="M145.962,97.871c0-1.067,0-2.134-0.801-2.134
			c-0.797,0.531-0.803,2.113-1.982,2.656l-0.194,1.292C144.698,101.098,144.039,95.312,145.962,97.871"/>
		<path clip-path="url(#SVGID_6_)" fill="#A90732" d="M117.304,142.689c-1.747,8.767-5.456,17.543-8.662,25.53
			c-2.445,6.089-4.023,10.761-9.774,10.217c-4.051-0.383-4.701-6.812-5.606-11.189c-0.562-2.716-0.807-5.216-0.808-8.018
			c0-2.07-0.292-5.938,0.386-7.736c0.783-2.076,4.819-3.817,6.428-2.608c1.955,1.47,1.05,5.432,1.554,7.661
			c2.144-7.793,4.294-16.271,7.81-23.187c1.781-3.504,6.774-8.437,9.278-3.741c1.021,1.915,1.144,4.407,1.008,6.676
			c-0.084,1.402-0.264,2.957-0.412,4.352C118.427,141.396,118.593,142.512,117.304,142.689"/>
		<path clip-path="url(#SVGID_6_)" fill="#940837" d="M112.294,146.424c-3.607,9.07-5.21,18.674-10.822,26.144
			c-2.326,2.581-5.399,2.157-7.411-1.253c0.755,3.492,1.914,6.85,4.807,7.123c5.751,0.543,7.329-4.128,9.774-10.217
			c3.207-7.986,6.916-16.763,8.662-25.53c1.289-0.177,1.123-1.292,1.202-2.043c0.148-1.395,0.327-2.95,0.412-4.352
			c0.022-0.383,0.034-0.774,0.04-1.166C116.941,139.069,114.235,142.364,112.294,146.424"/>
		<path clip-path="url(#SVGID_6_)" fill="#A90732" d="M120.713,189.908c0.002-17.152-5.963-34.36-7.982-51.332
			c-0.57-4.786-1.081-9.584,2.292-13.104c2.386-2.49,6.262-2.858,9.205-3.725c4.381-1.291,8.896-2.092,13.423-1.747
			c4.716,0.359,13.126,0.562,15.718,6.179c3.037,6.579,0.192,13.815-0.859,20.534c-1.401,8.95-6.802,18.356-6.799,27.472
			c0.001,4.835,1.068,10.15,0.653,14.882c-4.874,0.376-9.815-0.329-14.678,0.454C127.938,190.124,124.488,191.19,120.713,189.908"/>
		<path clip-path="url(#SVGID_6_)" fill="#940837" d="M154.662,134.575c-0.715,3.18-3.186,4.955-4.091,7.847
			c-4.008-0.8-4.609,8.804-9.018,7.203c0,1.067,0,2.134,0.401,3.202c-0.802-0.534-0.802,1.067-1.604,1.067
			c0.4,2.667,2.004,5.069,2.405,7.203c0.401,5.335-2.806,7.203-6.413,8.27c3.711,5.435,5.357,13.155,2.717,19.776
			c2.439,0.032,4.88,0.112,7.304-0.075c0.414-4.731-0.652-10.046-0.654-14.882c-0.003-9.116,5.398-18.522,6.799-27.472
			C153.127,142.767,154.362,138.642,154.662,134.575"/>
		<path clip-path="url(#SVGID_6_)" fill="#FFFFFF" d="M96.046,149.708c-0.896,0.43-2.34,1.318-2.596,2.545
			c-0.268,1.283,0.235,3.57,0.73,4.698c0.654,1.49,1.758,2.443,3.164,1.778c1.691-0.801,2.359-2.057,2.225-4.279
			c-0.113-1.866-1.561-6.495-3.644-4.643C95.858,149.631,95.837,149.444,96.046,149.708"/>
		<path clip-path="url(#SVGID_6_)" fill="#870732" d="M132.635,120.146c3.403,0,7.481-0.355,9.573,3.735
			c2.97,5.81-1.367,11.854-4.109,16.089c-1.942,3-4.398,4.52-6.767,6.672c-0.546-1.092-1.425-1.913-2.077-2.914
			c-0.717-1.102-1.354-1.709-2.056-2.805c-0.693-1.082-1.546-2.477-2.209-3.608c-0.877-1.496-1.261-3.476-1.503-5.316
			c-0.568-4.32,0.764-7.458,3.383-9.885C128.736,120.385,130.634,120.157,132.635,120.146"/>
		<path clip-path="url(#SVGID_6_)" fill="#E2C8C4" d="M140.946,124.292c-0.827-1.616-2.015-2.419-3.341-2.82
			c-0.011-0.013-0.021-0.023-0.032-0.036c-1.538-1.786-1.292-6.604-1.391-9.264c-2.426-0.234-5.076,0.35-7.607,0.275
			c0.442,1.455,0.559,3.286,0.434,5.005c-0.164,2.242,0.082,3.511-0.456,4.712c-0.259,0.177-0.518,0.372-0.775,0.611
			c-2.249,2.085-3.393,4.779-2.905,8.488c0.208,1.58,0.538,3.281,1.291,4.564c0.569,0.972,1.392,1.589,1.987,2.517
			c0.603,0.942,1.06,2.044,1.675,2.99c0.56,0.859,1.314,1.564,1.783,2.502c2.034-1.848,4.143-3.154,5.811-5.729
			C139.771,134.472,143.496,129.281,140.946,124.292"/>
		<path clip-path="url(#SVGID_6_)" fill="#FFFFFF" d="M127.925,131.484c-1.048-0.349-2.435-0.93-3.16-2.183
			c-0.019,0.621,0.015,1.273,0.105,1.962c0.208,1.58,0.538,3.28,1.291,4.564c0.57,0.972,1.283,2.154,1.878,3.083
			c0.604,0.942,1.169,1.479,1.785,2.424c0.56,0.859,1.314,1.564,1.783,2.502c2.034-1.848,4.143-3.154,5.811-5.729
			c1.665-2.572,4.013-5.921,4.344-9.428C137.48,131.093,132.703,131.882,127.925,131.484"/>
	</g>
	<g clip-path="url(#SVGID_2_)">
		<defs>
			<path id="SVGID_9_" d="M98.385,125.774c0,0-0.288,0-0.614,0.292c-0.323,0.29-0.676,1.092-0.676,1.092v0.859l23.082-0.445
				l3.052,42.5c0,0,0.856-0.782,0.958-1.483c0.041-0.28-0.002-1-0.002-1s-2.638-38.721-2.687-39.627
				c-0.024-0.445-0.274-1.111-0.599-1.544c-0.472-0.63-1.083-0.678-1.083-0.678L98.385,125.774z"/>
		</defs>
		<clipPath id="SVGID_10_">
			<use xlink:href="#SVGID_9_"  overflow="visible"/>
		</clipPath>
		
			<linearGradient id="SVGID_11_" gradientUnits="userSpaceOnUse" x1="2.6953" y1="799.7813" x2="3.1136" y2="799.7813" gradientTransform="matrix(-100.0511 -60.7453 -60.7453 100.0511 48984.2383 -79694.6172)">
			<stop  offset="0" style="stop-color:#787878"/>
			<stop  offset="0.4975" style="stop-color:#666665"/>
			<stop  offset="0.6332" style="stop-color:#CDCDCD"/>
			<stop  offset="0.6365" style="stop-color:#CBCBCB"/>
			<stop  offset="0.6909" style="stop-color:#AFAFAF"/>
			<stop  offset="0.7495" style="stop-color:#9A9A9A"/>
			<stop  offset="0.8143" style="stop-color:#8B8B8B"/>
			<stop  offset="0.8896" style="stop-color:#828282"/>
			<stop  offset="1" style="stop-color:#7F7F7F"/>
		</linearGradient>
		<polygon clip-path="url(#SVGID_10_)" fill="url(#SVGID_11_)" points="116.92,186.094 82.321,158.131 104.403,109.715 
			139.002,137.679 		"/>
	</g>
	<g clip-path="url(#SVGID_2_)">
		<defs>
			<path id="SVGID_12_" d="M119.575,126.109l-21.404,0.081c-0.835,0.003-1.45,0.907-1.373,2.02l2.779,40.256
				c0.077,1.112,0.816,2.011,1.652,2.008l21.417-0.081c0.835-0.002,1.45-0.907,1.373-2.02l-2.792-40.255
				c-0.077-1.11-0.814-2.008-1.647-2.008C119.578,126.109,119.577,126.109,119.575,126.109"/>
		</defs>
		<clipPath id="SVGID_13_">
			<use xlink:href="#SVGID_12_"  overflow="visible"/>
		</clipPath>
		
			<linearGradient id="SVGID_14_" gradientUnits="userSpaceOnUse" x1="2.1138" y1="800.2871" x2="2.5673" y2="800.2871" gradientTransform="matrix(-99.2235 -113.2166 -113.2166 99.2235 90946.1641 -78996.7031)">
			<stop  offset="0" style="stop-color:#646464"/>
			<stop  offset="1" style="stop-color:#DCDCFF"/>
		</linearGradient>
		<polygon clip-path="url(#SVGID_13_)" fill="url(#SVGID_14_)" points="108.613,188.541 80.2,145.383 112.204,108.046 
			140.617,151.203 		"/>
	</g>
	<g clip-path="url(#SVGID_2_)">
		<defs>
			<path id="SVGID_15_" d="M118.864,127.588l-19.777,0.074c-0.835,0.003-1.45,0.907-1.373,2.021l2.576,37.304
				c0.077,1.112,0.816,2.011,1.652,2.008l19.788-0.074c0.835-0.003,1.45-0.908,1.373-2.02l-2.587-37.304
				c-0.077-1.111-0.814-2.008-1.647-2.008C118.867,127.588,118.865,127.588,118.864,127.588"/>
		</defs>
		<clipPath id="SVGID_16_">
			<use xlink:href="#SVGID_15_"  overflow="visible"/>
		</clipPath>
		
			<linearGradient id="SVGID_17_" gradientUnits="userSpaceOnUse" x1="2.5474" y1="801.0098" x2="3.0147" y2="801.0098" gradientTransform="matrix(-50.2763 -106.3221 -106.3221 50.2763 85418.9063 -39820.2148)">
			<stop  offset="0" style="stop-color:#787878"/>
			<stop  offset="0.305" style="stop-color:#696969"/>
			<stop  offset="0.8887" style="stop-color:#434342"/>
			<stop  offset="1" style="stop-color:#3B3B3A"/>
		</linearGradient>
		<polygon clip-path="url(#SVGID_16_)" fill="url(#SVGID_17_)" points="102.305,182.138 85.616,135.155 118.512,114.448 
			135.202,161.431 		"/>
	</g>
	<g clip-path="url(#SVGID_2_)">
		<defs>
			<path id="SVGID_18_" d="M99.134,130.639c-0.04,0.493,0.233,0.972,0.61,1.07c0.376,0.097,0.715-0.224,0.755-0.717
				c0.041-0.493-0.232-0.972-0.609-1.069c-0.045-0.012-0.091-0.018-0.134-0.018C99.435,129.905,99.169,130.205,99.134,130.639"/>
		</defs>
		<clipPath id="SVGID_19_">
			<use xlink:href="#SVGID_18_"  overflow="visible"/>
		</clipPath>
		
			<linearGradient id="SVGID_20_" gradientUnits="userSpaceOnUse" x1="82.5859" y1="788.3408" x2="83.0014" y2="788.3408" gradientTransform="matrix(-2.6179 -1.5894 -1.5894 2.6179 1569.4587 -1801.418)">
			<stop  offset="0" style="stop-color:#787878"/>
			<stop  offset="0.5025" style="stop-color:#FFFFFF"/>
			<stop  offset="0.5728" style="stop-color:#F1F1F1"/>
			<stop  offset="0.7068" style="stop-color:#CBCBCA"/>
			<stop  offset="0.8891" style="stop-color:#8E8E8D"/>
			<stop  offset="1" style="stop-color:#666665"/>
		</linearGradient>
		<polygon clip-path="url(#SVGID_19_)" fill="url(#SVGID_20_)" points="100.149,132.66 98.46,131.294 99.483,129.052 
			101.172,130.417 		"/>
	</g>
	<g clip-path="url(#SVGID_2_)">
		<defs>
			<rect id="SVGID_21_" width="269.001" height="358.088"/>
		</defs>
		<clipPath id="SVGID_22_">
			<use xlink:href="#SVGID_21_"  overflow="visible"/>
		</clipPath>
		<path clip-path="url(#SVGID_22_)" fill="none" stroke="#262424" stroke-width="0.254" stroke-miterlimit="10" d="M100.499,130.992
			c0.041-0.493-0.232-0.972-0.609-1.069s-0.715,0.223-0.755,0.717c-0.04,0.493,0.233,0.972,0.609,1.069
			C100.121,131.806,100.458,131.485,100.499,130.992z"/>
	</g>
	<g clip-path="url(#SVGID_2_)">
		<defs>
			<path id="SVGID_23_" d="M99.245,130.667c-0.034,0.413,0.195,0.815,0.511,0.896c0.315,0.082,0.599-0.187,0.632-0.601
				c0.034-0.413-0.195-0.814-0.51-0.896c-0.038-0.01-0.076-0.015-0.113-0.015C99.497,130.053,99.274,130.304,99.245,130.667"/>
		</defs>
		<clipPath id="SVGID_24_">
			<use xlink:href="#SVGID_23_"  overflow="visible"/>
		</clipPath>
		
			<linearGradient id="SVGID_25_" gradientUnits="userSpaceOnUse" x1="82.5859" y1="788.3398" x2="83.0014" y2="788.3398" gradientTransform="matrix(-2.6179 -1.5894 -1.5894 2.6179 1569.4587 -1801.418)">
			<stop  offset="0" style="stop-color:#787878"/>
			<stop  offset="0.5025" style="stop-color:#FFFFFF"/>
			<stop  offset="0.5728" style="stop-color:#F1F1F1"/>
			<stop  offset="0.7068" style="stop-color:#CBCBCA"/>
			<stop  offset="0.8891" style="stop-color:#8E8E8D"/>
			<stop  offset="1" style="stop-color:#666665"/>
		</linearGradient>
		<polygon clip-path="url(#SVGID_24_)" fill="url(#SVGID_25_)" points="100.096,132.36 98.68,131.216 99.537,129.338 
			100.952,130.481 		"/>
	</g>
	<g clip-path="url(#SVGID_2_)">
		<defs>
			<rect id="SVGID_26_" width="269.001" height="358.088"/>
		</defs>
		<clipPath id="SVGID_27_">
			<use xlink:href="#SVGID_26_"  overflow="visible"/>
		</clipPath>
		<path clip-path="url(#SVGID_27_)" fill="none" stroke="#262424" stroke-width="0.213" stroke-miterlimit="10" d="M100.388,130.963
			c0.033-0.413-0.195-0.814-0.511-0.896c-0.315-0.082-0.599,0.188-0.633,0.6c-0.034,0.414,0.195,0.815,0.511,0.896
			C100.071,131.646,100.354,131.377,100.388,130.963z"/>
	</g>
	<g clip-path="url(#SVGID_2_)">
		<defs>
			<path id="SVGID_28_" d="M99.273,130.675c-0.032,0.393,0.186,0.774,0.485,0.852c0.3,0.078,0.569-0.178,0.601-0.57
				c0.032-0.393-0.185-0.773-0.485-0.851c-0.036-0.009-0.072-0.014-0.107-0.014C99.513,130.091,99.302,130.33,99.273,130.675"/>
		</defs>
		<clipPath id="SVGID_29_">
			<use xlink:href="#SVGID_28_"  overflow="visible"/>
		</clipPath>
		
			<linearGradient id="SVGID_30_" gradientUnits="userSpaceOnUse" x1="82.5854" y1="788.3389" x2="83.0011" y2="788.3389" gradientTransform="matrix(-2.6179 -1.5894 -1.5894 2.6179 1569.4587 -1801.418)">
			<stop  offset="0" style="stop-color:#787878"/>
			<stop  offset="0.5025" style="stop-color:#FFFFFF"/>
			<stop  offset="0.5728" style="stop-color:#F1F1F1"/>
			<stop  offset="0.7068" style="stop-color:#CBCBCA"/>
			<stop  offset="0.8891" style="stop-color:#8E8E8D"/>
			<stop  offset="1" style="stop-color:#666665"/>
		</linearGradient>
		<polygon clip-path="url(#SVGID_29_)" fill="url(#SVGID_30_)" points="100.082,132.283 98.737,131.197 99.551,129.412 
			100.896,130.499 		"/>
	</g>
	<g clip-path="url(#SVGID_2_)">
		<defs>
			<rect id="SVGID_31_" width="269.001" height="358.088"/>
		</defs>
		<clipPath id="SVGID_32_">
			<use xlink:href="#SVGID_31_"  overflow="visible"/>
		</clipPath>
		<path clip-path="url(#SVGID_32_)" fill="#FFFFFF" d="M109.563,144.694c-0.811,0-1.325,1.814-1.169,4.131
			c0.155,2.316,0.912,4.13,1.724,4.13c0.811,0,1.325-1.814,1.169-4.13C111.131,146.508,110.374,144.694,109.563,144.694
			 M110.1,152.697c-0.679,0-1.372-1.773-1.512-3.872c-0.141-2.1,0.313-3.873,0.992-3.873c0.679,0,1.372,1.773,1.513,3.873
			C111.233,150.924,110.779,152.697,110.1,152.697"/>
		<path clip-path="url(#SVGID_32_)" fill="#FFFFFF" d="M109.614,145.448c-0.59,0-0.966,1.511-0.841,3.376
			c0.125,1.866,0.704,3.377,1.294,3.377s0.966-1.511,0.841-3.377C110.783,146.959,110.204,145.448,109.614,145.448 M109.983,150.959
			c-0.498,0-0.938-0.538-0.982-1.2c-0.03-0.443,0.127-0.826,0.381-1.034c-0.282-0.208-0.49-0.591-0.52-1.034
			c-0.044-0.663,0.323-1.201,0.821-1.201c0.498,0,0.938,0.538,0.982,1.201c0.03,0.443-0.127,0.826-0.381,1.034
			c0.282,0.208,0.49,0.59,0.52,1.034C110.849,150.421,110.481,150.959,109.983,150.959"/>
		<path clip-path="url(#SVGID_32_)" fill="#E2C8C4" d="M94.659,151.493c0-3.486-0.396-7.084,2.128-9.041
			c1.703-1.319,6.668-1.539,6.668-0.424c0.219,2.712-3.583,1.149-5.33,3.329c1.449-0.714,6.327-1.968,6.48-0.126
			c0.209,2.507-5.04,1.745-6.278,2.855c1.203,0.015,6.222-1.501,6.33,0.104c0.183,2.716-4.921,2.055-6.199,3.552
			c1.099-0.383,6.226-2.438,6.016-0.035c-0.156,1.789-4.215,0.908-5.571,3.1c-0.582,0.939-0.694,3.498-1.988,3.578
			C93.956,158.569,94.68,151.365,94.659,151.493"/>
		<path clip-path="url(#SVGID_32_)" fill="#E2C8C4" d="M146.248,148.039c-0.653-1.917-1.349-5.08-2.46-6.571
			c-0.965-1.292-2.571-2.034-3.896-2.179c-1.718-0.188-0.937,1.662-0.386,1.815c1.623,0.454,1.843,1.096,1.901,1.354
			c-2.186-0.804-3.445-2.338-5.535-3.548c-0.689-0.398-2.343-2.165-3.185-1.382c-1.29,1.2,0.467,2.166,1.099,2.498
			c1.202,0.632,2.162,1.726,3.34,2.393c-0.288-0.198-0.423-0.215-0.716-0.441c-0.067,0.718-0.768,1.197-0.947,1.987
			c-0.15,0.664-0.026,1.574-0.099,2.219c-0.313,2.772,0.323,3.339,2.229,4.565c0.736,0.474,1.331,1.19,2.124,1.516
			c1.118,0.459,2.303-0.044,3.326,0.86c0.605,0.534,0.986,1.897,1.835,1.719c1.115-0.233,2.278-3.349,3.197-4.326
			C147.72,149.581,146.009,148.541,146.248,148.039"/>
		<path clip-path="url(#SVGID_32_)" fill="#A90732" d="M151.273,124.282c1.029-0.625,1.88,0.554,2.7,1.367
			c1.922,1.907,3.37,4.447,4.57,7.236c1.848,4.294,2.575,9.15,3.224,13.97c0.716,5.313,2.191,10.426,2.845,15.765
			c0.256,2.094,0.406,4.278,0.489,6.403c0.134,3.456-3.069,4.588-5.298,4.619c-1.484,0.02-2.021-0.927-3.212-1.989
			c-1.493-1.33-2.913-2.423-4.313-3.958c-2.185-2.396-4.875-4.196-6.698-7.102c-0.99-1.577-2.825-2.871-3.592-4.578
			c-0.684-1.521,0.806-2.436,1.692-3.482c0.883-1.043,1.759-2.184,2.378-3.503c0.313-0.667,0.526-1.379,0.923-1.965
			c1.373-2.024,2.682-0.375,3.792,1.227c1.892,2.729,3.737,5.524,5.621,8.233c-0.403-1.301-0.489-0.462-1.114-1.563
			c-0.304-0.537-0.711-2.974-0.901-3.602c-0.403-1.33-1.128-3.593-1.403-5.07c-0.515-2.763-1.359-5.755-1.586-8.584
			c-0.209-2.616-0.515-4.396-0.619-7.02C150.729,129.612,150.597,125.459,151.273,124.282"/>
		<path clip-path="url(#SVGID_32_)" fill="#940837" d="M156.238,156.086c0.64,0.283,1.037,1.542,1.748,1.542
			c-1.932-6.172-2.003-13.83-6.314-17.719c0.357,2.146,0.922,4.326,1.304,6.379c0.274,1.477,1,3.741,1.403,5.07
			c0.175,0.58,0.535,2.693,0.828,3.44c0.167,0.244,0.334,0.485,0.501,0.729C155.926,155.708,156.052,155.652,156.238,156.086"/>
		<path clip-path="url(#SVGID_32_)" fill="#A90732" d="M155.709,155.527c-0.167-0.243-0.334-0.485-0.501-0.729
			c0.025,0.063,0.05,0.12,0.073,0.162C155.462,155.28,155.597,155.435,155.709,155.527"/>
		<path clip-path="url(#SVGID_32_)" fill="#A90732" d="M155.709,155.527c-0.167-0.243-0.334-0.485-0.501-0.729
			c0.025,0.063,0.05,0.12,0.073,0.162C155.462,155.28,155.597,155.435,155.709,155.527"/>
		<path clip-path="url(#SVGID_32_)" fill="#940837" d="M143.322,152.924c-0.869,0.896-1.932,1.763-1.334,3.092
			c0.767,1.708,2.603,3.001,3.592,4.578c1.823,2.905,4.513,4.706,6.698,7.102c1.399,1.535,2.82,2.627,4.313,3.957
			c1.192,1.063,1.729,2.009,3.213,1.989c2.229-0.031,5.431-1.163,5.298-4.619c-0.011-0.271-0.026-0.545-0.039-0.818
			C157.702,172.612,149.098,160.017,143.322,152.924"/>
		<path clip-path="url(#SVGID_32_)" fill="#5F8E9B" d="M162.061,204.313c-0.059,0.009-0.13,0.025-0.203,0.043
			c-0.017,0.014-0.033,0.026-0.05,0.04C161.894,204.368,161.981,204.338,162.061,204.313"/>
		<path clip-path="url(#SVGID_32_)" fill="#D1BEBA" d="M136.667,119.377c-0.521-2.219-0.413-5.277-0.484-7.205
			c-2.427-0.235-5.077,0.35-7.608,0.275c0.442,1.455,0.559,3.286,0.434,5.005c-0.063,0.871-0.066,1.592-0.076,2.223
			C131.408,120.929,134.115,120.57,136.667,119.377"/>
		<path clip-path="url(#SVGID_32_)" fill="#E2C8C4" d="M122.114,102.939c-1.205-4.812-1.386-10.396-1.193-12.973
			c0.326-4.352,2.101-9.984,4.717-12.558c5.444-5.356,13.467-4.995,17.217,2.512c2.988,5.98,2.123,11.616,0.708,19.779
			c-1.216,7.015-3.604,14.358-8.02,17.895c-2.6,2.083-4.137,1.935-6.616-0.515C126.016,114.2,123.316,107.742,122.114,102.939"/>
		<path clip-path="url(#SVGID_32_)" fill="#E2C8C4" d="M122.515,95.67c-0.19-1.171-1.523-2.268-2.209-1.673
			c-0.602,0.523-0.813,2.907-0.697,3.874c0.501,4.135,1.704,6.002,3.207,4.802"/>
		<path clip-path="url(#SVGID_32_)" fill="#D1BEBA" d="M120.51,95.204c-0.501,2.801,0.468,2.267,1.27,4.713l-0.067-2.489
			C121.479,96.493,121.666,95.717,120.51,95.204"/>
		<path clip-path="url(#SVGID_32_)" fill="#262424" d="M123.648,77.33c0-2.025-0.38-4.637,0.752-6.042
			c-0.012,1.53-0.278,3.304,0.734,4.201c1.744-1.792,2.375-3.851,4.679-5.028c2.101-1.074,4.514-1.479,6.775-1.136
			c3.779,0.574,7.285,3.496,9.362,8.201c1.848,4.184,2.35,8.193,2.43,13.068c-0.431-1.164-0.805-2.399-1.467-3.313
			c0.579,3.381-0.847,5.581-1.521,8.991c-1.819-1.497-3.04-3.738-3.73-6.86c0.363,1.29,0.501,2.755,0.356,4.15
			c-3.53,0.241-4.417-10.471-8.284-11.754c-2.862-0.949-4.789,1.621-7.225-1.269c1.306,3.087-1.767,4.77-2.964,6.26
			c-1.93,2.402-1.832,8.599-1.204,11.838c-2.037-0.228-1.549-1.997-2.226-4.233c-0.568,1.787-0.521,3.152-0.186,5.069
			c-2.337-2.936-2.577-10.62-2.044-14.939c0.458-3.719,2.402-10.397,5.031-8.036c-0.129-0.898-0.322-1.81-0.56-2.644
			C123.036,74.758,123.842,76.244,123.648,77.33"/>
		<path clip-path="url(#SVGID_32_)" fill="#FFFFFF" d="M129.751,97.168c0.356-2.56,0.139-4.609-1.576-5.032
			c-1.714-0.423-2.605,1.353-2.961,3.912c-0.356,2.559,0.783,4.369,1.732,4.604C127.896,100.885,129.395,99.728,129.751,97.168"/>
		<path clip-path="url(#SVGID_32_)" fill="#FFFFFF" d="M135.204,97.359c-0.326-2.344-0.059-4.377,1.588-4.783
			c1.647-0.407,2.444,1.363,2.771,3.707c0.327,2.345-0.669,4.513-1.58,4.738C137.07,101.246,135.531,99.704,135.204,97.359"/>
		<path clip-path="url(#SVGID_32_)" fill="#59B0B2" d="M127.93,97.997c0,0.824-0.502,1.491-1.121,1.491s-1.12-0.667-1.12-1.491
			c0-0.823,0.501-1.491,1.12-1.491S127.93,97.173,127.93,97.997"/>
		<path clip-path="url(#SVGID_32_)" d="M127.402,97.997c0,0.436-0.266,0.79-0.593,0.79c-0.327,0-0.593-0.354-0.593-0.79
			c0-0.437,0.266-0.79,0.593-0.79C127.137,97.207,127.402,97.56,127.402,97.997"/>
		<path clip-path="url(#SVGID_32_)" fill="#FFFFFF" d="M127.146,97.759c0.066-0.141-0.113-0.314-0.203-0.316
			c-0.063-0.001-0.12,0.112-0.081,0.168C126.913,97.686,127.076,97.909,127.146,97.759"/>
		<path clip-path="url(#SVGID_32_)" fill="#FFFFFF" d="M126.563,98.394c0.035-0.057,0.005-0.187-0.091-0.189
			c-0.068-0.001-0.098,0.087-0.073,0.155C126.436,98.457,126.526,98.455,126.563,98.394"/>
		<path clip-path="url(#SVGID_32_)" fill="#59B0B2" d="M137.804,97.964c0,0.824-0.501,1.492-1.12,1.492
			c-0.618,0-1.12-0.668-1.12-1.492s0.502-1.492,1.12-1.492C137.303,96.473,137.804,97.141,137.804,97.964"/>
		<path clip-path="url(#SVGID_32_)" d="M137.277,97.964c0,0.436-0.266,0.79-0.594,0.79c-0.327,0-0.593-0.354-0.593-0.79
			s0.266-0.79,0.593-0.79C137.012,97.175,137.277,97.528,137.277,97.964"/>
		<path clip-path="url(#SVGID_32_)" fill="#FFFFFF" d="M137.021,97.728c0.065-0.141-0.112-0.314-0.202-0.317
			c-0.063-0.001-0.12,0.112-0.082,0.168C136.788,97.654,136.95,97.877,137.021,97.728"/>
		<path clip-path="url(#SVGID_32_)" fill="#FFFFFF" d="M136.438,98.361c0.036-0.057,0.006-0.187-0.091-0.189
			c-0.067-0.001-0.098,0.087-0.072,0.155C136.311,98.425,136.4,98.423,136.438,98.361"/>
		<path clip-path="url(#SVGID_32_)" fill="#262424" d="M130.81,87.485c-0.758-1.126-2.327-0.887-3.359-0.727
			c-1.296,0.2-2.414,0.776-3.503,1.72c-0.371,0.321-0.051,1.014,0.341,0.777c1.193-0.719,2.455-1.128,3.77-1.087
			c0.914,0.028,1.843,0.537,2.687-0.016C130.939,88.025,130.938,87.675,130.81,87.485"/>
		<path clip-path="url(#SVGID_32_)" fill="#262424" d="M135.229,86.339c0.906-0.911,2.411-0.274,3.401,0.147
			c1.242,0.529,2.257,1.38,3.189,2.585c0.317,0.411-0.097,1.008-0.447,0.676c-1.067-1.011-2.246-1.736-3.543-2.033
			c-0.9-0.207-1.886,0.055-2.634-0.704C135.023,86.836,135.076,86.493,135.229,86.339"/>
		<g clip-path="url(#SVGID_32_)">
			<g>
				<defs>
					<rect id="SVGID_33_" x="130.781" y="106.058" width="3.262" height="1.441"/>
				</defs>
				<clipPath id="SVGID_34_">
					<use xlink:href="#SVGID_33_"  overflow="visible"/>
				</clipPath>
				<path clip-path="url(#SVGID_34_)" fill="#E2C8C4" d="M130.781,106.475c0.552-0.16,0.901,1.278,1.704,0.984
					c0.433-0.159,1.312-0.669,1.558-1.184c-0.222-0.512-1.14,0.041-1.533,0.067C132.12,106.367,130.839,105.96,130.781,106.475"/>
			</g>
		</g>
		<path clip-path="url(#SVGID_32_)" fill="#FFFFFF" d="M130.03,109.476c1.954,0.4,5.534,1.192,7.467-1.71
			c0.043,0.86-0.666,2.558-1.116,3.116c-0.538,0.667-1.345,1.151-2.447,1.418c-1.526,0.37-3.225,0.211-4.333-0.651
			c-0.743-0.577-1.417-2.163-1.375-3.306C128.638,108.749,129.378,109.276,130.03,109.476"/>
		<path clip-path="url(#SVGID_32_)" fill="#D1BEBA" d="M125.253,94.937c0.7-1.071,1.499-1.515,2.605-1.066
			c1.232,0.499,1.526,0.802,2.038,2.267c0.1-1.467,0.243-2.501-0.618-3.646c-0.758-1.009-2.196-0.942-2.977-0.1
			C125.715,93.024,125.141,94.046,125.253,94.937"/>
		<path clip-path="url(#SVGID_32_)" fill="#D1BEBA" d="M135.04,95.559c0.602-1.689,2.899-1.292,3.927-0.348
			c0.313,0.288,0.495,0.778,0.722,1.122c0.175-3.163-2.731-5.887-4.329-2.763C135.067,94.14,135.04,94.448,135.04,95.559"/>
		<path clip-path="url(#SVGID_32_)" fill="#D1BEBA" d="M125.287,98.539c0.219,1.513,1.278,2.637,2.504,2.079
			c0.32-0.146,0.84-0.448,1.033-0.826c-0.609,0.197-1.217,0.688-2.284,0.324C125.955,99.917,125.41,99.152,125.287,98.539"/>
		<path clip-path="url(#SVGID_32_)" fill="#D1BEBA" d="M136.343,100.228c0.843,0.7,1.569,0.667,2.572-0.133
			c-0.321,0.635-0.563,0.982-1.103,1.022C137.223,101.161,136.729,100.723,136.343,100.228"/>
		<g clip-path="url(#SVGID_32_)">
			<g>
				<defs>
					<rect id="SVGID_35_" x="128.377" y="109.502" width="8.68" height="1.826"/>
				</defs>
				<clipPath id="SVGID_36_">
					<use xlink:href="#SVGID_35_"  overflow="visible"/>
				</clipPath>
				<path clip-path="url(#SVGID_36_)" fill="#BDBEBE" d="M136.985,109.713c0.017-0.034,0.055-0.118,0.071-0.153
					c-2.634,2.127-6.521,2.262-8.68-0.057C130.464,112.204,134.898,111.591,136.985,109.713"/>
			</g>
		</g>
		<path clip-path="url(#SVGID_32_)" fill="#FFFFFF" d="M143.812,75.868c-0.169-0.781-0.701-1.37-1.199-1.758
			c-0.091-0.071-0.196-0.09-0.298-0.073c-0.403-0.523-0.743-1.089-1.28-1.328c-3.491-1.556-1.388,0.213-0.817,0.943
			c0.433,0.554,0.767,1.175,1.076,1.839c-0.209-0.197-0.42-0.389-0.638-0.571c-0.274-0.231-1.252-1.242-1.609-0.815
			c-0.045,0.054-0.043,0.161,0,0.216c0.012,0.013,0.336,0.46,0.504,0.604c0.145,0.173,0.293,0.338,0.447,0.495
			c0.012,0.013,0.022,0.027,0.035,0.04c-0.027,0.034-0.04,0.089-0.022,0.145c0.132,0.402,0.213,0.832,0.247,1.266
			c-0.176,0.074-0.319,0.283-0.253,0.558c0.023,0.098,0.033,0.191,0.049,0.286c-0.232-0.035-0.482,0.266-0.395,0.596
			c0.026,0.1,0.048,0.2,0.07,0.299c-0.584-0.77-1.215-1.461-1.976-1.922c-0.343-0.207-0.682,0.301-0.427,0.701
			c-0.226-0.14-0.455,0.278-0.267,0.523c0.46,0.599,0.715,1.228,0.943,1.979c-0.014-0.001-0.027-0.002-0.041-0.003
			c-0.111-0.01-0.197,0.183-0.132,0.307c0.081,0.131,0.142,0.277,0.19,0.43c-0.002-0.001-0.004-0.003-0.007-0.004
			c-0.077-0.092-0.17,0.013-0.147,0.122c-0.425-0.48-0.876-0.919-1.292-1.413c-0.126-0.149-0.303,0.035-0.229,0.234
			c0.141,0.381,0.291,0.757,0.445,1.13c-0.484-0.628-1.032-1.109-1.655-1.256c-0.245-0.059-0.354,0.321-0.163,0.518
			c0.62,0.636,1.258,1.123,1.804,1.899c0.539,0.769,0.992,1.635,1.439,2.5c0.178,0.343,0.547,0.05,0.417-0.325
			c-0.44-1.27-1.009-2.512-1.581-3.712c0.295,0.321,0.588,0.645,0.898,0.939c0.107,0.102,0.203-0.077,0.163-0.209
			c0.015,0.009,0.028,0.018,0.047,0.029c0.095,0.058,0.182-0.037,0.167-0.17c-0.022-0.191-0.053-0.353-0.094-0.508
			c0.104,0.035,0.247-0.075,0.231-0.237c-0.023-0.251-0.066-0.492-0.123-0.726c0.246,0.323,0.486,0.652,0.715,0.999
			c0.254,0.383,0.7-0.107,0.521-0.534c-0.083-0.195-0.171-0.381-0.257-0.57c0.227,0.316,0.446,0.646,0.664,0.976
			c0.204,0.309,0.589,0.054,0.591-0.326c0.003-0.353-0.017-0.689-0.058-1.02c0.173-0.031,0.317-0.243,0.319-0.48
			c0.002-0.294-0.02-0.561-0.066-0.827c0.108-0.073,0.191-0.247,0.185-0.4c-0.014-0.352-0.065-0.655-0.159-0.919
			c0.03,0.034,0.06,0.066,0.089,0.1c0.592,0.688,1.155,1.405,1.719,2.134c0.772,1,1.036,0.792,0.804-0.623
			c-0.083-0.503-0.217-1.372-0.542-1.992c0.021-0.015,0.337,0.245,0.356,0.227C144.14,76.933,143.933,76.429,143.812,75.868"/>
		<path clip-path="url(#SVGID_32_)" fill="#FFFFFF" d="M118.481,84.066c0,0-0.025-1.434,0.401-2.668
			c0.425-1.234,1.327-2.768,1.327-2.768s-0.275,0.967-0.476,1.901c-0.2,0.933-0.169,1.821,0.451,1.133
			c0.751-0.833,1.227-1.467,0.876-0.6c-0.351,0.867-0.827,1.634-0.225,1.267c0.601-0.367,0.952-0.7,0.826-0.234
			c-0.125,0.467-0.326,2.068,0.476,1.368s1.077-1.5,1.378-2.435c0.3-0.934,0.564-0.102-0.201,1.934
			c-0.2,0.534-0.501,1.234-0.501,1.234s1.048-1.27,1.252-1.801c0.476-1.233,0.602-0.833,0.602-0.833s-0.101,1.167-0.376,1.634
			c-0.275,0.467-0.952,1.5-0.952,1.5s0.776,0.1,1.252-0.601c0.476-0.7,1.052-2.3,1.052-2.3s-0.276,2.001-0.827,2.5
			c-0.551,0.5-1.503,1.201-1.954,1.834c-0.451,0.633-1.177,2-1.177,2s0.601-1.901,0.952-2.301c0.351-0.4,0.376-0.9,0.175-0.867
			c-0.201,0.034-1.002,0.734-1.052,0.9c-0.05,0.167,0.426-0.834,0.477-1.233c0.05-0.4,0.17-0.542-0.276-0.634
			c-0.326-0.067-0.626,0-0.727-0.467s-0.148-0.82-0.526-0.733c-0.4,0.092-0.886,1.454-0.852,0.934
			c0.01-0.148,0.15-1.134,0.176-1.268c0.025-0.133,0.025-0.367-0.351-0.333s-0.451-0.167-0.651,0.367
			C118.832,83.032,118.481,84.066,118.481,84.066"/>
		<path clip-path="url(#SVGID_32_)" fill="#5F8E9B" d="M146.562,187.24c-8.854-0.936-17.112,0.005-25.885,0.821
			c-0.308,4.916-0.385,4.865-0.385,10.087c0,0-1.698,23.239,4.956,22.438c6.081-0.731,8.848-6.936,8.848-6.936
			s2.831,8.003,9.343,4.269s4.264-16.653,3.722-22.441C147.129,195.139,146.875,192.842,146.562,187.24"/>
		<path clip-path="url(#SVGID_32_)" fill="#595245" d="M120.582,189.548c-0.158,2.403-0.236,3.384-0.269,5.284
			c8.99-1.646,17.717-1.179,26.642-1.65c-0.088-1.098-0.198-2.629-0.319-4.675C137.921,189.067,129.347,189.191,120.582,189.548"/>
		<path clip-path="url(#SVGID_32_)" fill="#5F8E9B" d="M131.57,201.794c-0.129-0.319-0.27-0.636-0.438-0.949
			C131.257,201.234,131.405,201.544,131.57,201.794"/>
		<path clip-path="url(#SVGID_32_)" fill="#5F8E9B" d="M130.631,201.112c-1.023-2.313-21.499-4.413-24.148-4.801
			c-4.878-0.716-12.218,0.457-14.229,6.936c-4.511,14.539,16.249,19.303,24.049,20.275c7.003,0.873,14.074,2.942,20.641,5.068
			c3.763-8.223,3.34-13.605,3.34-13.605s-7.204-2.496-11.017-3.165c-4.244-0.744-8.449-2.436-12.575-4.021
			c-3.868-1.486-7.604-1.417-11.211-2.685c3.405,1.604,7.903,1.127,12.917,3.361c2.629,1.172,12.534,3.708,12.534,3.708
			s1.436-1.917,1.604-4.135C132.786,204.719,130.631,201.112,130.631,201.112"/>
		<path clip-path="url(#SVGID_32_)" fill="#5F8E9B" d="M130.932,212.183c0,0,0.005-0.007,0.007-0.01
			c-0.16-0.038-0.317-0.075-0.472-0.109C130.762,212.14,130.932,212.183,130.932,212.183"/>
		<path clip-path="url(#SVGID_32_)" fill="#5F8E9B" d="M118.397,208.476c0.45,0.201,1.118,0.442,1.91,0.704
			c-0.855-0.32-1.708-0.645-2.557-0.972C117.966,208.294,118.18,208.379,118.397,208.476"/>
		<path clip-path="url(#SVGID_32_)" fill="#5F8E9B" d="M105.48,205.114c3.11,1.465,7.134,1.2,11.629,2.845
			c-0.139-0.054-0.279-0.108-0.418-0.161C112.823,206.313,109.088,206.381,105.48,205.114"/>
		<g clip-path="url(#SVGID_32_)">
			<g>
				<defs>
					<rect id="SVGID_37_" x="93.88" y="213.716" width="45.833" height="14.874"/>
				</defs>
				<clipPath id="SVGID_38_">
					<use xlink:href="#SVGID_37_"  overflow="visible"/>
				</clipPath>
				<path clip-path="url(#SVGID_38_)" fill="#9E9E9E" d="M111.893,218.986c-6.101,0-12.2-2.142-18.013-5.27
					c4.986,6.55,16.923,9.12,22.422,9.805c7.003,0.873,14.074,2.942,20.641,5.069c1.473-3.219,2.303-6,2.769-8.195
					C130.536,216.152,121.034,219.493,111.893,218.986"/>
			</g>
		</g>
		<path clip-path="url(#SVGID_32_)" fill="#5F8E9B" d="M118.397,208.476c0.24,0.107,0.542,0.225,0.89,0.352
			c-0.396-0.16-0.793-0.319-1.19-0.477C118.197,208.394,118.296,208.431,118.397,208.476"/>
		<path clip-path="url(#SVGID_32_)" fill="#5F8E9B" d="M111.948,206.662c1.596,0.274,3.293,0.625,5.064,1.263
			c-0.107-0.042-0.214-0.085-0.321-0.126C115.108,207.191,113.514,206.902,111.948,206.662"/>
		<path clip-path="url(#SVGID_32_)" fill="#262424" d="M124.519,218.986c-2.049,0.221-7.656,0.078-9.005,2.097
			c-1.798,2.692-1.901,8.789-2.274,12.247c-0.415,3.841-1.116,8.749,1.186,11.724c1.789,2.313,3.3-1.392,4.494-4.685
			c1.408-3.883,1.681-5.521,3.23-10.664c1.718-0.418,2.771-1.115,2.771-1.115S124.719,221.387,124.519,218.986"/>
		<path clip-path="url(#SVGID_32_)" fill="#262424" d="M138.84,215.75c1.91-0.106,4.363-1.057,6.124-1.47
			c2.4-0.563,4.188,0.055,4.188,0.055s1.486,10.484,2.272,17.977c0.643,6.136,0.299,9.362-1.569,9.399
			c-3.083,0.063-5.766-8.641-7.397-14.323c-1.823,0.494-5.847-0.956-5.847-0.956S138.235,218.743,138.84,215.75"/>
		<path clip-path="url(#SVGID_32_)" fill="#5F8E9B" d="M140.15,199.512c7.156-0.713,13.452-3.977,21.042-2.935
			c4.951,0.679,11.27,0.396,12.225,8.27c1.403,11.561-21.243,20.097-30.261,22.676c-5.962,1.705-20.441,4.002-20.441,4.002
			s0.008-0.645-0.601-6.936c-0.535-5.514,0.735-6.136,0.735-6.136s6.085-1.099,8.582-1.718c3.964-0.982,7.838-2.38,11.734-3.618
			c3.138-0.998,16.559-8.448,18.896-8.804c-3.54,1.067-13.36,7.559-27.656,11.649C132.401,206.892,137.145,200.579,140.15,199.512"
			/>
		<path clip-path="url(#SVGID_32_)" fill="#5F8E9B" d="M140.913,213.847c-2.166,0.711-4.331,1.437-6.514,2.079
			c0.003,0.013,0.004,0.024,0.007,0.036C136.691,215.308,138.862,214.593,140.913,213.847"/>
		<path clip-path="url(#SVGID_32_)" fill="#5F8E9B" d="M147.067,211.393c7.446-3.226,12.626-6.366,14.995-7.08
			C160.302,204.581,152.273,208.863,147.067,211.393"/>
		<g clip-path="url(#SVGID_32_)">
			<g>
				<defs>
					<rect id="SVGID_39_" x="122.393" y="206.42" width="51.068" height="25.104"/>
				</defs>
				<clipPath id="SVGID_40_">
					<use xlink:href="#SVGID_39_"  overflow="visible"/>
				</clipPath>
				<path clip-path="url(#SVGID_40_)" fill="#9E9E9E" d="M122.393,227.539c0.327,3.557,0.322,3.986,0.322,3.986
					s14.479-2.297,20.441-4.002c8.604-2.46,29.612-10.344,30.305-21.103C159.227,221.141,140.272,227.559,122.393,227.539"/>
			</g>
		</g>
		<g clip-path="url(#SVGID_32_)">
			<g>
				<defs>
					<rect id="SVGID_41_" x="105.28" y="204.847" width="33.676" height="9.89"/>
				</defs>
				<clipPath id="SVGID_42_">
					<use xlink:href="#SVGID_41_"  overflow="visible"/>
				</clipPath>
				
					<path clip-path="url(#SVGID_42_)" fill="none" stroke="#56808C" stroke-width="1.192" stroke-linecap="round" stroke-miterlimit="10" d="
					M138.756,214.47c-2.326-0.768-6.771-2.174-9.49-2.651c-4.244-0.744-8.449-2.436-12.575-4.021
					c-3.868-1.486-7.604-1.417-11.211-2.684"/>
			</g>
		</g>
		<g clip-path="url(#SVGID_32_)">
			<g>
				<defs>
					<rect id="SVGID_43_" x="121.713" y="204.186" width="40.008" height="15.8"/>
				</defs>
				<clipPath id="SVGID_44_">
					<use xlink:href="#SVGID_43_"  overflow="visible"/>
				</clipPath>
				
					<path clip-path="url(#SVGID_44_)" fill="none" stroke="#56808C" stroke-width="1.192" stroke-linecap="round" stroke-miterlimit="10" d="
					M121.913,219.72c0.228-0.591,0.936-1.267,0.936-1.267s6.085-1.1,8.582-1.718c3.964-0.981,7.838-2.38,11.734-3.618
					c2.949-0.937,14.973-7.57,18.355-8.664"/>
			</g>
		</g>
		<path clip-path="url(#SVGID_32_)" fill="#A3A352" d="M131.317,188.551l3.47-0.153c0.306-0.013,0.562,0.306,0.572,0.713
			l0.112,4.369c0.01,0.417-0.241,0.763-0.555,0.763h-3.582c-0.306,0-0.554-0.33-0.554-0.738v-4.216
			C130.781,188.89,131.019,188.563,131.317,188.551"/>
		<g clip-path="url(#SVGID_32_)">
			<g>
				<defs>
					<rect id="SVGID_45_" x="103.898" y="186.881" width="54.94" height="29.527"/>
				</defs>
				<clipPath id="SVGID_46_">
					<use xlink:href="#SVGID_45_"  overflow="visible"/>
				</clipPath>
				<path clip-path="url(#SVGID_46_)" fill="#9E9E9E" d="M151.69,205.492c-2.493-0.369-3.262-4.049-2.839-7.697
					c-0.475,0.114-0.951,0.23-1.426,0.346c-0.108-0.979-0.209-1.875-0.281-2.641c-0.032-0.338-0.287-2.635-0.599-8.237
					c-2.235-0.237-4.433-0.353-6.611-0.382c0.002,2.464,0.727,5.059,1.172,7.406c0.46,2.427,0.294,5.202,0.296,7.826
					c0.003,4.075-1.274,5.858-4.537,6.186c-2.318,0.232-4-0.75-6.142-1.522c-2.42-0.872-4.921-1.28-7.354-2.134
					c-6.221-2.185-13.11-1.989-19.471-2.503c0.905,0.665,1.239,2.235,0.532,3.326c3.242,0.086,6.792,0.77,10.041,1.596
					c4.335,1.102,9.134,3.645,13.972,4.655c1.162,0.243,2.271,1.067,3.874,2.134c1.89,1.258-0.477,2.933,1.266,2.484
					c3.759-0.968,7.347-2.28,11.036-3.723c3.571-1.397,7.133-3.216,10.599-4.984c1.246-0.635,3.62-2.333,3.62-2.333
					s-0.616-0.067-1.437-0.222C155.54,205.498,153.636,205.665,151.69,205.492"/>
			</g>
		</g>
		<g clip-path="url(#SVGID_32_)">
			<g>
				<defs>
					<rect id="SVGID_47_" x="136.793" y="197.689" width="10.822" height="6.225"/>
				</defs>
				<clipPath id="SVGID_48_">
					<use xlink:href="#SVGID_47_"  overflow="visible"/>
				</clipPath>
				
					<path clip-path="url(#SVGID_48_)" fill="none" stroke="#56808C" stroke-width="1.192" stroke-linecap="round" stroke-miterlimit="10" d="
					M147.415,197.956c-1.819,0.505-3.679,1.382-5.416,2.292c-1.563,0.82-3.932,1.604-5.005,3.4"/>
			</g>
		</g>
		<g clip-path="url(#SVGID_32_)">
			<g>
				<defs>
					<rect id="SVGID_49_" x="120.092" y="197.649" width="10.84" height="8.621"/>
				</defs>
				<clipPath id="SVGID_50_">
					<use xlink:href="#SVGID_49_"  overflow="visible"/>
				</clipPath>
				
					<path clip-path="url(#SVGID_50_)" fill="none" stroke="#56808C" stroke-width="1.192" stroke-linecap="round" stroke-miterlimit="10" d="
					M120.292,197.916c1.205,0.032,4.214,1.87,5.429,2.93c1.885,1.645,3.431,3.116,5.01,5.158"/>
			</g>
		</g>
		<path clip-path="url(#SVGID_32_)" fill="#FFFFFF" d="M42.528,121.722c0.021-0.089,0.04-0.181,0.062-0.268
			C42.554,121.548,42.537,121.637,42.528,121.722"/>
	</g>
</g>
</svg>
