<?xml version="1.0" encoding="utf-8"?>
<!-- Generator: Adobe Illustrator 16.0.0, SVG Export Plug-In . SVG Version: 6.00 Build 0)  -->
<!DOCTYPE svg PUBLIC "-//W3C//DTD SVG 1.1//EN" "http://www.w3.org/Graphics/SVG/1.1/DTD/svg11.dtd" [
	<!ENTITY ns_extend "http://ns.adobe.com/Extensibility/1.0/">
	<!ENTITY ns_ai "http://ns.adobe.com/AdobeIllustrator/10.0/">
	<!ENTITY ns_graphs "http://ns.adobe.com/Graphs/1.0/">
	<!ENTITY ns_vars "http://ns.adobe.com/Variables/1.0/">
	<!ENTITY ns_imrep "http://ns.adobe.com/ImageReplacement/1.0/">
	<!ENTITY ns_sfw "http://ns.adobe.com/SaveForWeb/1.0/">
	<!ENTITY ns_custom "http://ns.adobe.com/GenericCustomNamespace/1.0/">
	<!ENTITY ns_adobe_xpath "http://ns.adobe.com/XPath/1.0/">
]>
<svg version="1.1" id="Layer_1" xmlns:x="&ns_extend;" xmlns:i="&ns_ai;" xmlns:graph="&ns_graphs;"
	 xmlns="http://www.w3.org/2000/svg" xmlns:xlink="http://www.w3.org/1999/xlink" x="0px" y="0px" width="796.5px"
	 height="412.939px" viewBox="378.409 -232.955 796.5 412.939" enable-background="new 378.409 -232.955 796.5 412.939"
	 xml:space="preserve">
<metadata><?xpacket begin="﻿" id="W5M0MpCehiHzreSzNTczkc9d"?>
<x:xmpmeta xmlns:x="adobe:ns:meta/" x:xmptk="Adobe XMP Core 5.3-c011 66.145661, 2012/02/06-14:56:27        ">
   <rdf:RDF xmlns:rdf="http://www.w3.org/1999/02/22-rdf-syntax-ns#">
      <rdf:Description rdf:about=""
            xmlns:dc="http://purl.org/dc/elements/1.1/">
         <dc:format>image/svg+xml</dc:format>
         <dc:title>
            <rdf:Alt>
               <rdf:li xml:lang="x-default">Print</rdf:li>
            </rdf:Alt>
         </dc:title>
      </rdf:Description>
      <rdf:Description rdf:about=""
            xmlns:xmp="http://ns.adobe.com/xap/1.0/"
            xmlns:xmpGImg="http://ns.adobe.com/xap/1.0/g/img/">
         <xmp:MetadataDate>2017-11-23T16:20:24+02:00</xmp:MetadataDate>
         <xmp:ModifyDate>2017-11-23T16:20:24+02:00</xmp:ModifyDate>
         <xmp:CreateDate>2017-11-23T16:20:23+02:00</xmp:CreateDate>
         <xmp:CreatorTool>Adobe Illustrator CS6 (Windows)</xmp:CreatorTool>
         <xmp:Thumbnails>
            <rdf:Alt>
               <rdf:li rdf:parseType="Resource">
                  <xmpGImg:width>256</xmpGImg:width>
                  <xmpGImg:height>132</xmpGImg:height>
                  <xmpGImg:format>JPEG</xmpGImg:format>
                  <xmpGImg:image>/9j/4AAQSkZJRgABAgEASABIAAD/7QAsUGhvdG9zaG9wIDMuMAA4QklNA+0AAAAAABAASAAAAAEA&#xA;AQBIAAAAAQAB/+4ADkFkb2JlAGTAAAAAAf/bAIQABgQEBAUEBgUFBgkGBQYJCwgGBggLDAoKCwoK&#xA;DBAMDAwMDAwQDA4PEA8ODBMTFBQTExwbGxscHx8fHx8fHx8fHwEHBwcNDA0YEBAYGhURFRofHx8f&#xA;Hx8fHx8fHx8fHx8fHx8fHx8fHx8fHx8fHx8fHx8fHx8fHx8fHx8fHx8fHx8f/8AAEQgAhAEAAwER&#xA;AAIRAQMRAf/EAaIAAAAHAQEBAQEAAAAAAAAAAAQFAwIGAQAHCAkKCwEAAgIDAQEBAQEAAAAAAAAA&#xA;AQACAwQFBgcICQoLEAACAQMDAgQCBgcDBAIGAnMBAgMRBAAFIRIxQVEGE2EicYEUMpGhBxWxQiPB&#xA;UtHhMxZi8CRygvElQzRTkqKyY3PCNUQnk6OzNhdUZHTD0uIIJoMJChgZhJRFRqS0VtNVKBry4/PE&#xA;1OT0ZXWFlaW1xdXl9WZ2hpamtsbW5vY3R1dnd4eXp7fH1+f3OEhYaHiImKi4yNjo+Ck5SVlpeYmZ&#xA;qbnJ2en5KjpKWmp6ipqqusra6voRAAICAQIDBQUEBQYECAMDbQEAAhEDBCESMUEFURNhIgZxgZEy&#xA;obHwFMHR4SNCFVJicvEzJDRDghaSUyWiY7LCB3PSNeJEgxdUkwgJChgZJjZFGidkdFU38qOzwygp&#xA;0+PzhJSktMTU5PRldYWVpbXF1eX1RlZmdoaWprbG1ub2R1dnd4eXp7fH1+f3OEhYaHiImKi4yNjo&#xA;+DlJWWl5iZmpucnZ6fkqOkpaanqKmqq6ytrq+v/aAAwDAQACEQMRAD8A7Tm1eedirsVdirsVdirs&#xA;VdirsVdirsVdirsVdirsVdirsVdirsVdirsVdirsVdirsVdirsVdirsVdirsVdirsVdirsVdirsV&#xA;dirsVdirsVdirsVdirsVdirsVaJAFSaDxOCUhEWTQTGJJoLVmiY0V1J8AQcphqsUzUZxJ8iGyWny&#xA;RFmJA9y/L2p2KuxV2KuxV2KuxV2KuxV2KuxV2KuxV2KuxV2KuxV2KuxV2KuxV2KuxV2KuxV2KuxV&#xA;2KuxVQvLpbeLkd2OyL4nNZ2r2nHSYuI7yO0R5/qDndn6KWoycI2iOZQenSW9xM7Xjhn29NH+z77d&#xA;M8t7Q12fUS4pyJ/R7g9pj00MMaxivvTVrOzkXeJCPEAfrGa0TI6p4ih5Yns6OrF7atGU7lPcHwzq&#xA;+w/aPJimMeU8WM9/OP7PL5Oq13ZkMwMoCsn3/tVuuemA28iRTsVdirsVdirsVdirsVdirsVdirsV&#xA;dirsVdirsVdirsVdirsVdirsVdirsVdirsVdirsVSfV3JuVXsq7fTnnntXmMtSI9Ix+/8fY9j2Bj&#xA;AwmXUy+5AZy7vF8U0sTco3KHxBpgIBQRafabefXYHjlALqKP4EHvmNkhwnZonHhLVmT9WQE141Wv&#xA;+qSP4Z6/2DlOTR4ye6vkSP0PFdqwEdRMD3/MWr5tnXuxV2KuxV2KuxV2KuxV2KuxV2KuxV2KuxV2&#xA;KuxV2KuxV2KuxV2KuxV2KuxV2KuxV2KpbrEBIWYDp8LfLtnG+1miJEcw6ek/o/Hm9J7P6kAnEeu4&#xA;/S8089HX7XUrObTbm4WK+H1dYYXUAXSBjDXn8PF+XxDvxzTdk+DPHIZBG4b2f5u3Fy7unvdzq+MS&#xA;BiTvt8eiRyHz7BG01w2pR2sfBp3MkAKwBSbo7nZuX93/AJObAfk5Go+GZG62lz/g+FfV5uOfGG54&#xA;q+HLr+x6B+Wr6pDoq3mozST3l6hmpIakB+KxKB0FVUMfcnNB2rjjk1Hh4o7A8Irqev27OXisYuKZ&#xA;8/h/YzWCP0oUTqQNz7nc56foNKMGCOP+aPt6/a8Pq8/i5ZT7z/YqZluO7FXYq7FXYq7FXYq7FXYq&#xA;7FXYq7FXYq7FXYq7FXYq7FXYq7FXYq7FXYq7FXYq7FXYqtdFdCjCqsKEZXmxRyQMJC4yFM8eQwkJ&#xA;R5hg3newY6FqCjaa0Q3Vu46h4P3qMPf4c8yhpzpdb4UuXFw++MtvuL3YzDPp+Md1+4hA+Zp/ruia&#xA;fAppHq9xbQycTv6Uh9RwKeKKcp0MPDyzl1xxkfiNh9rbnPFAD+cQzLR7ZS5koAkfwoB0r/YM3Pst&#xA;ofEyHNLlDl/WP6h97qe3tVwQGMc5c/d+1lNha6S0fO8uuLMNo0BqvzNDnczlO9g83ix469RX6jba&#xA;KY+dncBWVf7ohjyPzPTI45T6hlmhiq4lKsvcR2KuxV2KuxV2KuxV2KuxV2KuxV2KuxV2KuxV2Kux&#xA;V2KuxV2KuxV2KuxV2KuxVMLSz0xow1zeBHP7CqTT5mmVSnK9g5GPHjI9UkJcxRxSlY5VmTs6gj7w&#xA;csiSRu0ziAdjbwD83vOfma083X+lWt+YNPEMcfoCODdZYgX+KRC+/I9Dmm1ugw5cwnKNyjVHfpu7&#xA;zQZ5wxcIOxthLed/NbRWkTaoxjsGR7RfTtPgaNSin+73orEb5ijsvTgyPDvPnud7373M/NZKAvly&#xA;e3fkt5h1nW/L15Nqlx9alhuzHHKUjT4fTQ8f3SohoTXx3+WbXs7Tww4+CAqNul7SyGeQSkd6ehZn&#xA;uvdirsVdirsVdirsVdirsVdirsVdirsVdirsVdirsVdirsVdirsVdirsVdirsVdirsVdirsVeU/m&#xA;h+UmoeYNZ/TelX4tpZUSO6tmQtydfgV1KnuvFaU7ZiamFeq3Y6LN/AwtvyK84qOTaiFXf4mhkA+H&#xA;7W5HbvmGZxHMh2Qie57B+XPkg+UdCaxluvrt5PKZrm448RUgKEUVJ4qB3982eLHwh0eozeJK2VZY&#xA;0OxV2KuxV2KuxV2KuxV2KuxV2KuxV2KuxV2KuxV2KuxV2KuxV2KuxV2KuxV2KrxFKwBVCQ3QgV6Y&#xA;OIMhE9y1lZTRgQR1BwgsSKaxV2KrPrX1S/0+7Y0iiuFEv+rIDGP+GcZpe3eKOEZB/k5xkfd1dx2N&#xA;UskodZQNe8VL7gUVcawEs7nVwwbRYTMtjE5LSO7jgxUU+wxYhA3j/KRTks+qMoylE/WZQjHmRxVx&#xA;E/DeulgPTx0/qGP/ACpri7gBvv5jr+u0Bp8c8dhbxzmsyxqJP9YAVz0HTQlHFES+oRFvFa7JCeec&#xA;ofQZGvdaIy5xXYquEchIAUknoKdcFhIiXOjo3FxRvA4QQeSmJHNbih2KuxV2KuxV2KuxV2KuxV2K&#xA;uxV2KuxV2KuxV2KuxV2KuxV2KuxVPvLyQXEE0D7SoeSt3odvwIzE1Ao27DR1IEdV1zYUNZoq9gxy&#xA;uMyOTZPEOoSa8gWGcqv2SKgeFczMcuIOvyw4ZUFDJtarbWcN7MttMgkhl+F0YVBB7HKdREGBB3Bc&#xA;jSTlHKJRNSCsPJdzHrTpUf4fgLXtpCOouG/3VT+RDydfmPDOXxdkxhq/F6fpexz9oRlpz/q0hwk/&#xA;0e/3nkUKylWKnqCQfozrgbeHIotYoV7JQ1ygI5CtSMhkPpLZhFyDIrWzeVlZgRF3bMAl2kYWx2/l&#xA;jkvJXj/u+VE77DYHM/HGogOryyBkSFDJtbsVdirsVdirsVdirsVdirsVdirsVdirsVdirsVdirsV&#xA;dirsVdiqJ069azu0nG4Gzr4qeoyGSHEKbMOTglbM/wBzcwAg8opACCPvzXGwXd7SHkkupaZAJhyF&#xA;Qdwehp4HLoZCHEzYIk7oabReUYZI2T3oSKfTk45yObVLSgjbZMdM0iOERzdGBruPiP05VPKS5GHT&#xA;iO6bZU5SR6noam3Z4qGQb9KHr7Zfjy0d+ThZ9MCNuaWDR2KVDkkdTTbLvzHk435XbmmelWFuJh8F&#xA;QBuT3+eUZMhLlYcMQVfXtQW1tPQj2llHFQP2V6E/0w4MfEb6J1WXgjQ5limZzqXYq7FXYq7FXYq7&#xA;FXYq7FXYq7FXYq7FXYq7FXYq7FXYq7FXYq7FXYq7FU10XWTaMIZjW2Y9epQnuPbxyjNh4txzcvTa&#xA;ng2P0snCwTBZAFkB3Rtjt7HMLcO02O6pgZOxV2KuxV1BiqC1DUrXT4qUBkO6RLtX3PgMsx4zItGb&#xA;NHGPNiNzczXMzTSmrt9wHgM2EYiIoOnnMyNlSwsXYq7FXYq7FXYq7FXYq7FXYq7FXYqkk2vXd1cy&#xA;WuiWou2hbhPeSt6dtG46ryALOw7hRtlZmSai3DEALka+9ppfOUA9RoLG8UbtBC0kMnyVpOSn6aY3&#xA;Mdy1jPeEbpOsWupRSGIPFPA3C5tZRxlibrRl9+x6HJRmCwnjMUfkmDsVdirsVdirsVdirsVdiqLs&#xA;dTu7Nv3T/AesbbqfoyE8YlzbcWeUOSfWvmWzkAE4MLdz9pfvG/4Ziy08hy3dhDWxPPZMEv7F/sXE&#xA;Z9uQr91cqMJDo5AywPUKhmhA5F1A8aimRosuId6Fm1nTIvtXCsfBPi/4jXJjDI9GqWpgOqVXvmd2&#xA;BS0TgD1kehP0Dpl8NN3uJl1pP0pHJI8jl5GLO25Y7k5lAU4JJJsrcUOxV2KuxV2KuxV2KuxV2Kux&#xA;V2KuxVKvNF3PbaJcNbNxuZeEELeDzOIwfo5VyGQ1FtwxBkL5IfWY/wBC+ULmPTmMJtIKQuKcgRSr&#xA;fM9Tgn6YbMsZ48gvqVI6pqehALrJ+t6cCFXVI1oyVNB9YjH3cl+7BxGPPl3p4Iz+nY936lXV4xZ6&#xA;7pmpRfCbmT6hdgftrIrNGT7o6bfOmGW0gfgjGbiY926e5Y0OxV2KuxV2KuxV2KuxV2KuxV2KuxV2&#xA;KuxV2KuxV2KuxV2KuxV2KuxV2KuxV2KuxV2KuxVLfMVhNf6Nc28BAuKLJbk/78iYSJ97LTI5I2Gz&#xA;FIRkCeSCu5v8R+VLlbKguLiMxtC5oY5RTlG/gQciTxx2ZxHh5BbcOgXV/Kl15gkW4ZDyh0+Ov1WM&#xA;9iwO8je7be2IgTvJTlEdofPq1eyjUvMVnYwHnDpb/W75x0WTgyQx1/m+IsfbEm5AdyxHDAk/xbBP&#xA;8saHYq7FXYq7FXYq7FXYq7FXYq7FXYq7FXYq7FXYq7FXYq7FXYq7FXYq7FXYq7FXYq7FXYq7FUpv&#xA;fLsMt219ZXEunXz09SaCnGSnT1Y2BR/urkDDexsW2OUgURYUW0XXZx6d1rknoHZhbwxwOR/xkq5H&#xA;+xpg4JHmU+JEcoplp2m2WnWwtrOIRRA8j3LMerMx3YnxOTjEDk1zmZGyisLF2KuxV2KuxV2KuxV2&#xA;KuxV2KuxV2KuxV2KuxV2KuxV2KuxV2KuxV2KuxV2KuxV2KuxV2KuxV2KuxV2KuxV2KuxV2KuxV2K&#xA;uxV2KuxV2KuxV2KuxV2KuxV2KuxV2KuxV2KuxV2KuxV2KuxV2KuxV2Kv/9k=</xmpGImg:image>
               </rdf:li>
            </rdf:Alt>
         </xmp:Thumbnails>
      </rdf:Description>
      <rdf:Description rdf:about=""
            xmlns:xmpMM="http://ns.adobe.com/xap/1.0/mm/"
            xmlns:stRef="http://ns.adobe.com/xap/1.0/sType/ResourceRef#"
            xmlns:stEvt="http://ns.adobe.com/xap/1.0/sType/ResourceEvent#">
         <xmpMM:InstanceID>xmp.iid:2B8F347259D0E711BA38F1E5D1F16258</xmpMM:InstanceID>
         <xmpMM:DocumentID>xmp.did:2B8F347259D0E711BA38F1E5D1F16258</xmpMM:DocumentID>
         <xmpMM:OriginalDocumentID>uuid:5D20892493BFDB11914A8590D31508C8</xmpMM:OriginalDocumentID>
         <xmpMM:RenditionClass>proof:pdf</xmpMM:RenditionClass>
         <xmpMM:DerivedFrom rdf:parseType="Resource">
            <stRef:instanceID>xmp.iid:B0E0692B72CFE711865FE310528B6CAB</stRef:instanceID>
            <stRef:documentID>xmp.did:B0E0692B72CFE711865FE310528B6CAB</stRef:documentID>
            <stRef:originalDocumentID>uuid:5D20892493BFDB11914A8590D31508C8</stRef:originalDocumentID>
            <stRef:renditionClass>proof:pdf</stRef:renditionClass>
         </xmpMM:DerivedFrom>
         <xmpMM:History>
            <rdf:Seq>
               <rdf:li rdf:parseType="Resource">
                  <stEvt:action>saved</stEvt:action>
                  <stEvt:instanceID>xmp.iid:B0E0692B72CFE711865FE310528B6CAB</stEvt:instanceID>
                  <stEvt:when>2017-11-22T12:59:12+02:00</stEvt:when>
                  <stEvt:softwareAgent>Adobe Illustrator CS6 (Windows)</stEvt:softwareAgent>
                  <stEvt:changed>/</stEvt:changed>
               </rdf:li>
               <rdf:li rdf:parseType="Resource">
                  <stEvt:action>saved</stEvt:action>
                  <stEvt:instanceID>xmp.iid:2B8F347259D0E711BA38F1E5D1F16258</stEvt:instanceID>
                  <stEvt:when>2017-11-23T16:20:24+02:00</stEvt:when>
                  <stEvt:softwareAgent>Adobe Illustrator CS6 (Windows)</stEvt:softwareAgent>
                  <stEvt:changed>/</stEvt:changed>
               </rdf:li>
            </rdf:Seq>
         </xmpMM:History>
      </rdf:Description>
      <rdf:Description rdf:about=""
            xmlns:illustrator="http://ns.adobe.com/illustrator/1.0/">
         <illustrator:StartupProfile>Print</illustrator:StartupProfile>
      </rdf:Description>
      <rdf:Description rdf:about=""
            xmlns:xmpTPg="http://ns.adobe.com/xap/1.0/t/pg/"
            xmlns:stDim="http://ns.adobe.com/xap/1.0/sType/Dimensions#"
            xmlns:xmpG="http://ns.adobe.com/xap/1.0/g/">
         <xmpTPg:HasVisibleOverprint>False</xmpTPg:HasVisibleOverprint>
         <xmpTPg:HasVisibleTransparency>False</xmpTPg:HasVisibleTransparency>
         <xmpTPg:NPages>1</xmpTPg:NPages>
         <xmpTPg:MaxPageSize rdf:parseType="Resource">
            <stDim:w>796.500000</stDim:w>
            <stDim:h>412.939453</stDim:h>
            <stDim:unit>Pixels</stDim:unit>
         </xmpTPg:MaxPageSize>
         <xmpTPg:PlateNames>
            <rdf:Seq>
               <rdf:li>Cyan</rdf:li>
               <rdf:li>Magenta</rdf:li>
               <rdf:li>Yellow</rdf:li>
               <rdf:li>Black</rdf:li>
            </rdf:Seq>
         </xmpTPg:PlateNames>
         <xmpTPg:SwatchGroups>
            <rdf:Seq>
               <rdf:li rdf:parseType="Resource">
                  <xmpG:groupName>Default Swatch Group</xmpG:groupName>
                  <xmpG:groupType>0</xmpG:groupType>
               </rdf:li>
            </rdf:Seq>
         </xmpTPg:SwatchGroups>
      </rdf:Description>
      <rdf:Description rdf:about=""
            xmlns:pdf="http://ns.adobe.com/pdf/1.3/">
         <pdf:Producer>Adobe PDF library 10.01</pdf:Producer>
      </rdf:Description>
   </rdf:RDF>
</x:xmpmeta>
                                                                                                    
                                                                                                    
                                                                                                    
                                                                                                    
                                                                                                    
                                                                                                    
                                                                                                    
                                                                                                    
                                                                                                    
                                                                                                    
                                                                                                    
                                                                                                    
                                                                                                    
                                                                                                    
                                                                                                    
                                                                                                    
                                                                                                    
                                                                                                    
                                                                                                    
                                                                                                    
                           
<?xpacket end="w"?>
	</metadata>
<rect x="378.409" y="-231.31" fill="#A6DDF0" width="796.502" height="411.288"/>
<g>
	<g>
		<ellipse fill="#A6DDF0" cx="783.901" cy="-33.42" rx="126.67" ry="123.774"/>
		<path fill="#D8EDEE" d="M885.576,40.416c-0.146-8.5-6.313-16.046-15.188-17.778c-8.722-1.701-17.234,2.766-20.824,10.312
			c-2.09-1.82-4.686-3.139-7.631-3.713c-6.432-1.26-12.731,1.379-16.354,6.248c-1.045-0.414-2.141-0.736-3.286-0.963
			c-9.953-1.941-19.635,4.365-21.621,14.092c-1.987,9.729,4.47,19.188,14.427,21.129c3.422,0.67,6.813,0.361,9.866-0.725
			c-0.015,0.068-0.03,0.133-0.047,0.203c-0.998,4.891,0.228,9.703,2.996,13.451C851.089,74.283,871.067,59.457,885.576,40.416z"/>
		<path fill="#D8EDEE" d="M698.642,47.697c7.283,3.772,16.315,1.061,20.176-6.052c3.858-7.119,1.082-15.944-6.199-19.719
			c-1.359-0.702-2.771-1.18-4.204-1.444c0.106-0.186,0.222-0.375,0.323-0.563c4.014-7.399,1.125-16.573-6.444-20.491
			c-4.397-2.275-9.403-2.273-13.622-0.429c-1.083-3.067-3.316-5.755-6.48-7.394c-4.84-2.508-10.537-1.869-14.631,1.18
			c-1.036-1.172-2.304-2.18-3.786-2.949c-1.471-0.762-3.021-1.223-4.581-1.403c4.063,22.287,14.234,42.51,28.758,58.957
			c2.36-0.41,4.596-1.422,6.442-2.971C695.565,45.722,696.983,46.841,698.642,47.697z M681.771,21.844
			c-0.002-0.43-0.031-0.858-0.076-1.287c0.229,0.386,0.48,0.75,0.748,1.112C682.215,21.723,681.991,21.78,681.771,21.844z"/>
		<polygon fill="#D8EDEE" points="778.112,-31.581 761.633,59.592 812.701,56.578 793.271,-32.536 		"/>
		<path fill="#D8EDEE" d="M821.793,50.85c1.472-3.963-0.345-8.309-4.085-10.191c1.02-1.115,1.838-2.428,2.393-3.916
			c2.34-6.296-0.986-13.255-7.429-15.542c-6.442-2.285-13.563,0.963-15.903,7.259c-0.263,0.701-0.447,1.41-0.572,2.121
			c-0.543-0.279-1.108-0.529-1.702-0.742c-6.873-2.441-14.474,1.023-16.97,7.742c-2.127,5.724,0.139,11.961,5.111,15.189
			c-1.513,1.221-2.723,2.842-3.439,4.771c-1.572,4.223-0.365,8.766,2.701,11.736c-0.401,0.662-0.752,1.369-1.028,2.119
			c-2.427,6.534,1.022,13.758,7.708,16.127c6.688,2.375,14.08-0.998,16.508-7.532c0.834-2.242,0.975-4.57,0.525-6.754
			c0.05,0.018,0.094,0.035,0.141,0.053c6.413,2.275,13.502-0.957,15.832-7.229c1.557-4.182,0.595-8.66-2.125-11.854
			C820.479,53.326,821.296,52.191,821.793,50.85z"/>
		<path fill="#D8EDEE" d="M894.144-6.792c-0.451,0.59-0.838,1.209-1.17,1.849c-0.428-0.42-0.89-0.817-1.39-1.183
			c-5.784-4.245-14-3.105-18.345,2.545c-3.707,4.82-3.4,11.361,0.353,15.82c-1.791,0.729-3.414,1.92-4.665,3.547
			c-2.73,3.558-2.933,8.197-0.906,11.871c-0.576,0.516-1.115,1.082-1.603,1.719c-4.228,5.501-3.092,13.308,2.536,17.438
			c2.759,2.024,6.083,2.79,9.253,2.397c15.219-16.568,25.925-37.168,30.241-59.961C903.438-12.681,897.536-11.205,894.144-6.792z"/>
		<path fill="#D8EDEE" d="M772.392,36.734c0.625-0.902,1.131-1.92,1.476-3.035c1.655-5.32-0.921-10.798-5.751-12.228
			c-4.372-1.3-9.094,1.164-11.176,5.588c-4.063-0.123-8.015,2.761-9.396,7.204c-1.122,3.615-0.242,7.303,1.979,9.685
			c-1.979,0.734-3.664,2.453-4.375,4.756c-1.153,3.709,0.642,7.523,4.008,8.523c0.297,0.088,0.597,0.145,0.896,0.184
			c-0.007,0.023-0.021,0.049-0.024,0.074c-1.241,3.99,0.692,8.1,4.313,9.172c3.623,1.076,7.563-1.289,8.805-5.279
			c0.225-0.723,0.342-1.447,0.366-2.158c0.095,0.029,0.183,0.063,0.274,0.09c5.792,1.719,12.097-2.068,14.082-8.451
			C779.681,45.021,777.249,39.029,772.392,36.734z"/>
		<path fill="#D8EDEE" d="M756.024,73.365c1.109,0.174,2.254,0.258,3.42,0.225c10.146-0.266,18.152-8.518,17.879-18.432
			c-0.273-9.917-8.719-17.736-18.867-17.473c-3.487,0.09-6.721,1.123-9.453,2.846c-0.001-0.07,0-0.137-0.001-0.207
			c-0.261-9.509-8.36-17.013-18.094-16.755c-6.503,0.168-12.083,3.758-14.995,8.951c-1.734-0.857-3.706-1.32-5.788-1.268
			c-6.157,0.162-11.108,4.792-11.708,10.628c-2.044-0.734-4.264-1.111-6.572-1.053c-2.801,0.072-5.43,0.779-7.752,1.973
			c14.532,18.137,34.126,32.211,56.709,40.195c0.229,0.004,0.459,0.012,0.694,0.004C748.054,82.834,753.597,78.895,756.024,73.365z"
			/>
		<path fill="#FFFFFF" d="M882.217,44.625c-1.248-0.99-2.644-1.843-4.179-2.517c-8.11-3.564-17.432-1.072-22.661,5.5
			c-1.619-2.229-3.847-4.084-6.586-5.287c-5.981-2.629-12.726-1.434-17.37,2.519c-0.924-0.631-1.919-1.189-2.982-1.66
			c-9.258-4.066-20.138-0.031-24.301,9.012c-4.166,9.045-0.039,19.674,9.221,23.744c3.182,1.399,6.556,1.842,9.781,1.452
			c-0.027,0.063-0.063,0.125-0.091,0.188c-1.081,2.353-1.577,4.816-1.55,7.238C845.624,77.495,866.653,63.318,882.217,44.625z"/>
		<path fill="#FFFFFF" d="M703.335,57.234c0.063-0.029,0.124-0.061,0.189-0.094c8.563-4.521,11.758-14.973,7.127-23.341
			c-3.09-5.59-8.887-8.833-14.948-9.027c0.001-1.898-0.468-3.828-1.457-5.617c-2.925-5.295-9.396-7.523-14.99-5.409
			c-0.255-2.114-0.909-4.218-2.006-6.204c-3.233-5.85-9.413-9.141-15.771-9.079c7.831,28.782,26.002,53.434,50.397,69.938
			c-0.366-1.436-0.921-2.85-1.67-4.211C708.547,61.193,706.142,58.84,703.335,57.234z"/>
		<polygon fill="#FFFFFF" points="780.144,-14.328 767.36,49.439 806.974,47.333 791.901,-14.996 		"/>
		<path fill="#FFFFFF" d="M805.612,82.348c0.05,0.016,0.095,0.035,0.142,0.051c6.412,2.278,13.502-0.957,15.831-7.225
			c1.557-4.186,0.598-8.664-2.125-11.857c1.02-0.885,1.833-2.02,2.333-3.359c1.472-3.967-0.345-8.314-4.085-10.195
			c1.02-1.113,1.838-2.428,2.391-3.917c2.342-6.296-0.981-13.251-7.427-15.538c-6.442-2.289-13.563,0.961-15.903,7.255
			c-0.263,0.705-0.449,1.414-0.572,2.121c-0.543-0.279-1.108-0.529-1.702-0.744c-6.873-2.439-14.474,1.025-16.97,7.744
			c-2.127,5.725,0.139,11.965,5.111,15.19c-1.512,1.223-2.72,2.84-3.439,4.773c-1.572,4.219-0.365,8.764,2.701,11.733
			c-0.401,0.667-0.752,1.371-1.028,2.123c-1.241,3.34-0.945,6.854,0.534,9.815c0.83,0.018,1.664,0.029,2.498,0.029
			c7.279,0,14.412-0.607,21.355-1.76C805.931,86.508,806.028,84.366,805.612,82.348z"/>
		<path fill="#FFFFFF" d="M903.788-0.134c-5.98,1.486-9.941,6.769-9.876,12.541c-1.866-0.528-3.894-0.596-5.91-0.096
			c-4.413,1.094-7.547,4.588-8.323,8.688c-0.777,0.051-1.566,0.165-2.349,0.359c-6.824,1.693-10.95,8.474-9.22,15.14
			c1.526,5.871,7.092,9.695,13.061,9.369c11.417-13.356,20.003-29.102,24.865-46.356C905.288-0.431,904.538-0.317,903.788-0.134z"/>
		<path fill="#FFFFFF" d="M775.185,43.117c0.25-1.063,0.348-2.189,0.262-3.352c-0.418-5.549-4.838-9.751-9.873-9.388
			c-4.557,0.322-8.051,4.283-8.365,9.144c-3.838,1.314-6.46,5.396-6.109,10.027c0.282,3.771,2.463,6.898,5.412,8.34
			c-1.574,1.383-2.514,3.576-2.33,5.975c0.289,3.867,3.369,6.799,6.879,6.545c0.31-0.023,0.61-0.076,0.903-0.145
			c0.001,0.025,0,0.051,0.001,0.078c0.313,4.16,3.626,7.313,7.404,7.04c3.773-0.271,6.582-3.866,6.267-8.026
			c-0.057-0.752-0.214-1.469-0.452-2.143c0.098-0.006,0.193-0.006,0.291-0.014c6.038-0.436,10.525-6.182,10.024-12.836
			C785.038,48.281,780.563,43.548,775.185,43.117z"/>
		<path fill="#FFFFFF" d="M766.983,88.493c10.146-0.268,18.152-8.52,17.881-18.436c-0.272-9.916-8.717-17.736-18.865-17.473
			c-3.486,0.094-6.725,1.125-9.455,2.848c0-0.07,0-0.139,0-0.207c-0.262-9.51-8.361-17.014-18.093-16.76
			c-6.503,0.17-12.084,3.758-14.997,8.955c-1.735-0.859-3.708-1.32-5.788-1.27c-6.157,0.16-11.11,4.792-11.709,10.625
			c-2.045-0.732-4.263-1.113-6.57-1.051c-1.026,0.025-2.026,0.139-3,0.328c18.052,16.861,41.199,28.551,66.954,32.661
			c0.075-0.152,0.152-0.303,0.221-0.457C764.674,88.44,765.815,88.52,766.983,88.493z"/>
		<path fill="#FFFFFF" d="M825.358,74.34c-3.486,0.092-6.725,1.125-9.455,2.846c0-0.068,0-0.137,0-0.205
			c-0.262-9.512-8.362-17.012-18.096-16.758c-6.502,0.168-12.082,3.76-14.996,8.955c-1.732-0.861-3.705-1.324-5.787-1.271
			c-6.156,0.166-11.11,4.791-11.709,10.631c-2.045-0.734-4.263-1.115-6.57-1.056c-5.626,0.146-10.566,2.845-13.7,6.93
			c12.243,3.855,25.302,5.943,38.858,5.943c19.267,0,37.523-4.213,53.871-11.729C834.438,75.848,830.084,74.215,825.358,74.34z"/>
		<path fill="#FFFFFF" d="M864.39-94.259c-0.492,0.095-0.959,0.242-1.396,0.435c-0.024-0.269-0.061-0.539-0.114-0.81
			c-0.763-3.828-4.562-6.325-8.478-5.579c-2.154,0.412-3.896,1.721-4.904,3.451c-1.469-1.459-3.633-2.193-5.844-1.772
			c-2.682,0.512-4.651,2.58-5.11,5.059c-0.837-0.142-1.715-0.141-2.593,0.027c-2.875,0.55-5.012,2.711-5.614,5.338h41.58
			c0.005-0.42-0.03-0.847-0.119-1.275C871.131-92.73,867.813-94.912,864.39-94.259z M850.024-88.516
			c0.067-0.085,0.134-0.174,0.194-0.263c0.136,0.159,0.275,0.312,0.423,0.457C850.44-88.395,850.235-88.458,850.024-88.516z"/>
		<path fill="#FFFFFF" d="M730.913-67.437c-0.383,0.072-0.748,0.188-1.089,0.339c-0.019-0.209-0.046-0.421-0.087-0.632
			c-0.596-2.989-3.562-4.938-6.615-4.355c-1.684,0.322-3.043,1.343-3.83,2.695c-1.146-1.14-2.836-1.712-4.563-1.384
			c-2.097,0.398-3.633,2.015-3.994,3.947c-0.651-0.109-1.334-0.107-2.022,0.021c-2.246,0.428-3.914,2.118-4.382,4.167h32.46
			c0.004-0.328-0.024-0.66-0.092-0.995C736.175-66.244,733.584-67.949,730.913-67.437z M719.7-62.953
			c0.053-0.066,0.104-0.135,0.15-0.205c0.105,0.125,0.219,0.243,0.332,0.358C720.024-62.86,719.862-62.909,719.7-62.953z"/>
	</g>
	<g>
		<g>
			<path fill="#F15B2B" d="M788.849,12.019c5.018-12.291,16.352-27.812,16.172-34.785c-0.18-6.973-8.435-16.675-17.5-16.45
				c-9.062,0.226-16.809,10.202-16.625,17.297C771.081-14.828,788.849,12.019,788.849,12.019z"/>
			<path fill="#F7EB3C" d="M788.619,3.167c4.1-10.047,13.362-22.727,13.215-28.426c-0.146-5.7-6.892-13.627-14.299-13.444
				c-7.407,0.185-13.736,8.338-13.585,14.135C774.097-18.772,788.619,3.167,788.619,3.167z"/>
			<path fill="#FFFFFF" d="M788.366-6.499c3.16-7.74,10.296-17.512,10.187-21.902c-0.114-4.392-5.312-10.5-11.02-10.36
				c-5.708,0.142-10.589,6.426-10.47,10.892C777.179-23.404,788.366-6.499,788.366-6.499z"/>
		</g>
		<g>
			<path fill="#F15B2B" d="M773.878-2.101c5.088-7.259,14.756-15.719,15.68-20.269c0.922-4.552-2.988-12.021-8.902-13.167
				c-5.916-1.144-12.428,4.229-13.369,8.857C766.351-22.048,773.878-2.101,773.878-2.101z"/>
			<path fill="#F7EB3C" d="M775.048-7.875c4.158-5.937,12.061-12.847,12.813-16.565c0.752-3.722-2.441-9.823-7.276-10.76
				c-4.833-0.937-10.155,3.455-10.921,7.237C768.894-24.181,775.048-7.875,775.048-7.875z"/>
			<path fill="#FFFFFF" d="M776.325-14.183c3.205-4.574,9.295-9.9,9.875-12.766c0.58-2.866-1.879-7.569-5.609-8.291
				c-3.724-0.722-7.826,2.664-8.418,5.578C771.585-26.747,776.325-14.183,776.325-14.183z"/>
		</g>
		<g>
			<path fill="#F15B2B" d="M792.187-17.076c-0.027-5.59,1.896-13.425,0.693-16.129c-1.201-2.7-6.007-5.223-9.52-3.732
				c-3.516,1.489-4.932,6.599-3.709,9.347C780.876-24.839,792.187-17.076,792.187-17.076z"/>
			<path fill="#F7EB3C" d="M790.659-20.505c-0.021-4.568,1.549-10.97,0.568-13.179c-0.982-2.21-4.912-4.271-7.779-3.052
				c-2.867,1.218-4.026,5.392-3.029,7.64C781.417-26.848,790.659-20.505,790.659-20.505z"/>
			<path fill="#FFFFFF" d="M788.996-24.252c-0.017-3.521,1.194-8.453,0.438-10.155c-0.757-1.704-3.785-3.29-6-2.35
				c-2.209,0.938-3.104,4.153-2.332,5.886C781.874-29.141,788.996-24.252,788.996-24.252z"/>
		</g>
		<g>
			<path fill="#E8B02D" d="M832.508-136.113c-25.301,32.742-34.621,4.453-48.604,4.554c-7.323,0.052-12.646,29.489-48.605-4.554
				c-0.002-26.228,21.764-47.491,48.605-47.491S832.508-162.341,832.508-136.113z"/>
			<path fill="#E8B02D" d="M735.298-136.113c5.33,29.628,19.975,33.254,27.964,64.227c17.347,11.282,16.015,8.677,43.947,2.225
				c3.989-28.505,25.301-45.698,25.301-66.45C833.84-167.127,739.296-161.049,735.298-136.113z"/>
			<g>
				<path fill="none" stroke="#414042" stroke-width="4.8956" stroke-linecap="round" stroke-miterlimit="10" d="M761.937-127.088
					c0,0,9.211,20.666,11.994,28.332c2.783,7.667,2.865,25.971,2.865,25.971"/>
				<path fill="none" stroke="#414042" stroke-width="4.8956" stroke-linecap="round" stroke-miterlimit="10" d="M809.229-127.088
					c0,0-9.205,20.666-11.992,28.332c-2.785,7.667-2.865,25.971-2.865,25.971"/>
			</g>
			<path fill="#A6A8AC" d="M768.532-57.556V-42.9c0,4.509,2.992,8.16,6.688,8.159h20.055c3.687,0,6.679-3.65,6.679-8.159
				l-0.001-14.655H768.532z"/>
			<path fill="#221F1F" d="M760.207-75.532v23.764c0,4.508,3.737,8.16,8.349,8.16h33.375c4.609,0,8.35-3.652,8.35-8.16v-23.764
				H760.207z"/>
			<g>
				<path fill="none" stroke="#414042" stroke-width="4.084" stroke-linecap="round" stroke-miterlimit="10" d="M775.883-119.538
					c0,3.436-2.17,6.218-4.848,6.218c-2.681,0-4.849-2.784-4.849-6.218c0-3.43,2.17-6.212,4.849-6.213
					C773.711-125.754,775.883-122.967,775.883-119.538z"/>
				<path fill="none" stroke="#414042" stroke-width="4.084" stroke-linecap="round" stroke-miterlimit="10" d="M785.581-119.538
					c0,3.436-2.17,6.218-4.85,6.218c-2.676,0-4.85-2.783-4.85-6.218c0-3.428,2.171-6.212,4.85-6.212
					C783.413-125.752,785.581-122.968,785.581-119.538z"/>
				<path fill="none" stroke="#414042" stroke-width="4.084" stroke-linecap="round" stroke-miterlimit="10" d="M795.284-119.538
					c0,3.436-2.174,6.218-4.852,6.218c-2.682,0-4.853-2.783-4.854-6.218c0.002-3.43,2.171-6.212,4.854-6.212
					C793.11-125.752,795.284-122.967,795.284-119.538z"/>
				<path fill="none" stroke="#414042" stroke-width="4.084" stroke-linecap="round" stroke-miterlimit="10" d="M804.978-119.538
					c-0.002,3.436-2.17,6.218-4.847,6.218s-4.851-2.784-4.851-6.218c0-3.428,2.17-6.213,4.851-6.212
					C802.81-125.754,804.976-122.968,804.978-119.538z"/>
			</g>
			<path fill="#FDE03A" d="M768.532-174.883c11.994-8.648,33.394-1.293,41.32,4.335c11.018,7.82,19.149,25.09,17.879,36.256
				c-1.271,11.166-6.104,17.057-10.597,27.447c-1.599,3.694,5.464-11.262-3.118-31.425c-6.406-15.047-24.935-18.887-37.219-20.274
				C768.2-159.515,756.604-166.278,768.532-174.883z"/>
			<path fill="#414042" d="M811.972-68.37c0,0.65-0.514,1.172-1.144,1.172h-51.411c-0.629,0-1.143-0.523-1.143-1.172v-2.039
				c0-0.647,0.513-1.173,1.143-1.173h51.412c0.63,0,1.143,0.526,1.145,1.175L811.972-68.37z"/>
			<path fill="#414042" d="M811.974-61.356c-0.002,0.647-0.516,1.174-1.146,1.174h-51.411c-0.629,0-1.143-0.525-1.143-1.174v-2.038
				c0-0.648,0.513-1.175,1.143-1.175h51.412c0.63,0,1.143,0.524,1.143,1.173L811.974-61.356z"/>
			<path fill="#414042" d="M812.089-54.343c0,0.646-0.512,1.172-1.141,1.172h-51.414c-0.629,0-1.141-0.525-1.141-1.172v-2.038
				c0-0.649,0.512-1.176,1.141-1.176h51.415c0.629,0,1.141,0.525,1.141,1.176L812.089-54.343L812.089-54.343z"/>
		</g>
	</g>
</g>
<g>
	<path fill="#666666" d="M435.15,81.219c18.958,0,34.381,15.423,34.381,34.381c0,18.957-15.424,34.381-34.381,34.381
		S400.77,134.557,400.77,115.6C400.77,96.642,416.193,81.219,435.15,81.219 M435.15,77.398c-21.095,0-38.201,17.104-38.201,38.202
		c0,21.097,17.106,38.201,38.201,38.201c21.096,0,38.201-17.104,38.201-38.201C473.352,94.502,456.246,77.398,435.15,77.398
		L435.15,77.398z M435.15,77.398"/>
	<path fill="#666666" d="M450.415,111.455l-20.341-13.388c-3.51-2.309-6.383-0.76-6.383,3.442v28.174
		c0,4.202,2.876,5.757,6.394,3.455l20.322-13.298C453.921,117.537,453.925,113.765,450.415,111.455L450.415,111.455z
		 M447.703,117.031l-18.062,11.82c-1.172,0.769-2.131,0.25-2.131-1.15v-24.21c0-1.4,0.958-1.917,2.128-1.146l18.069,11.891
		C448.877,115.006,448.876,116.263,447.703,117.031L447.703,117.031z M447.703,117.031"/>
</g>
</svg>
